<svg id="Layer_1" data-name="Layer 1" xmlns="http://www.w3.org/2000/svg" viewBox="0 0 1000 1000"><defs><style>.cls-1{isolation:isolate;}.cls-2,.cls-3,.cls-4,.cls-5,.cls-6,.cls-7,.cls-8,.cls-9{fill:#fff;}.cls-2{opacity:0.27;}.cls-3{opacity:0.2;}.cls-4{opacity:0.27;}.cls-5{opacity:0.27;}.cls-6{opacity:0.2;}.cls-7{opacity:0.48;}.cls-8{opacity:0.45;}.cls-9{opacity:0.52;}</style></defs><g class="cls-1"><path class="cls-2" d="M471.59,358.71s-70.43,2.87-204.31,43.14S79.3,466.79,59.35,503.7c-9,17.23-16.62,12.71,54.67,51.72S219.66,620.78,264.61,623s79.7-14.44,130.91-88.88,78.21-141.86,87.08-157.92C482.6,376.16,493.39,352.71,471.59,358.71Z"/><path class="cls-3" d="M467.37,398.84S256.5,560.55,293.9,644.93c0,0,.91,34.59,61.9,68.3,0,0,19.07,21.63,22.51,53.21l.43,23.75s10.9-11.59,41.15-31.07c0,0,62.24-31.39,87.44-55.19s24.88-36.15,11.46-117C518.79,587,488.24,383.85,467.37,398.84Z"/><path class="cls-4" d="M110.51,496.21c-8.31,3-22.25,10.44-29.21,16.39-2.94,2.5-9.37,9.73-.8,9,14.37-1.31,23.6-17.16,37.77-21.69,3-.95,14-4.72,14.45-8.1.58-3.88-2.86-4.31-5.55-4.18C121.64,487.85,116.15,494.17,110.51,496.21Z"/><path class="cls-4" d="M172.55,468.89c-10.89,8.68-20.56,13.5-31.8,20.72S118,504,107.54,512.51c-4.35,3.54-12,8.42-14.94,13.31-.8,1.34-2.58,3.26-1.54,4.42,1.59,1.79,7.09-2.86,7.92-3.41a101.81,101.81,0,0,1,15.29-8.14c6.83-2.93,14-3.64,21-5.88,7.79-2.49,14.94-6.86,22.77-9.32,7.08-2.23,12.52-3.17,18.49-8,5.72-4.57,25.21-25.2,7.37-27.28a31.28,31.28,0,0,0-6.12,0C176,468.37,173.9,467.82,172.55,468.89Z"/><path class="cls-2" d="M265.3,581.09c-2.27,2.82-4.45,5.71-6.57,8.64a52.35,52.35,0,0,0-4.11,6c-1,1.77-2.82,3.72-2.18,5.63.59,1.74,3.11,2.8,4.92,2.49,1.21-.21,7.75-7.68,8.56-8.45,4.46-4.23,10.05-6.07,13.73-11.16.81-1.11,4.12-7.56,3.56-9.2-1.6-4.75-11.15-5.9-14-1.88C267,576.35,266.05,580.17,265.3,581.09Z"/><path class="cls-5" d="M393.71,747.82a35.46,35.46,0,0,0-4.25,7.18c-.49,1-4.25,9.29-2.62,11.33,1.05,1.32,3.41,1.31,5,.76s2.45-2.66,3.83-3.81c4-3.36,10.4-5,14-8.72C414,750,409.32,744,404.1,743,399.74,742.16,395.05,746.23,393.71,747.82Z"/><path class="cls-4" d="M132.09,523.38c-2.7-.23-5.25,1.33-7.81,2.2-3.08,1.06-6.08,2.34-9.09,3.58-1.79.75-6.15.63-5.32,2.39,1,2.08,4.56.72,6.86.87,2.6.17,10.64.16,13.2-.82,2.07-.8,3.76-2.37,5.49-3.76,1.48-1.19,5.7-2.88,4.12-3.93C137.11,522.28,134,523.54,132.09,523.38Z"/><path class="cls-2" d="M462,373.77c-8.66.29-16.38,6-23.84,10.35-11.46,6.75-22.16,14.24-33.27,21.49-16.5,10.76-35.27,17.42-51.69,28.26-23.69,15.65-44.09,35.57-68,50.91-12.21,7.82-24,15.16-34.36,25.45l-4.71,4.66c-1.21,1.2-4,1.94-3.62,3.59s3.09,1.34,4.68,1.11c5.21-.77,7.13-3.09,11.2-5.36,6.18-3.46,12.8-6.2,18.8-10,7.57-4.82,14.32-10.81,22.06-15.41,12.61-7.49,26.33-13.09,38.68-21.1,13.12-8.52,25-19.14,38.34-27.24,8.61-5.23,18.68-8.33,27.82-12.5,9.46-4.31,17.91-10.18,26.39-16.11,8.17-5.71,15.46-12.48,23.52-18.28,4.2-3,8.78-5.48,12.66-9,2.15-1.93,6.11-4.83,5.09-8.64a4.46,4.46,0,0,0-3.23-3.25C465.73,372.35,463,373.74,462,373.77Z"/><path class="cls-2" d="M457.69,371.12c-4.37.67-9.34.43-13.43,2.4-3.77,1.82-6.74,5.55-10.34,7.74-4.54,2.76-9.57,4.61-14.24,7.11-4.5,2.41-8.36,5.88-12.91,8.2-3.88,2-8,3.39-11.78,5.62-3.58,2.12-6.6,4.86-10.26,6.86-4.6,2.53-9.5,3.13-14.08,5.35-4.13,2-7.88,4.57-12.24,6.2-2.57,1-5.42,1.34-7.94,2.43-3.14,1.35-5.86,3.48-9.1,4.64-3.53,1.26-7.3,1.74-10.86,2.91-2.47.82-4.49,2.41-7,3.19-2.84.89-5.83,1.15-8.71,1.81-3.54.81-6.62,2.75-10.05,3.87-3,1-6.19,1.09-9.2,2-3.54,1.11-6.48,3.57-9.95,4.9s-7.47,1.59-11,3.11c-5.54,2.37-9,4-15,5.27-4.91,1.05-9,4.59-14,5.69-1.34.3-12.6,3.41-13,2.1-.74-2.21,10-9.69,11.58-10.84,6-4.43,10.56-5.53,17.23-8.48,4-1.75,7.18-4.68,11-6.59,3.64-1.83,8-2.77,11.74-4.4,4.23-1.83,7.68-5.11,12-6.7,3.92-1.44,8-2.53,11.74-4.4,2.91-1.45,5.4-3.61,8.37-4.91,3.43-1.5,7.15-2.31,10.59-3.76,3.23-1.36,5.84-3.51,8.87-5.14,3.43-1.84,7.35-2.38,10.94-3.79,4.49-1.76,8.23-4.92,12.74-6.43,3.58-1.2,7.33-1.73,10.82-3.26,2.94-1.28,5.43-3.32,8.41-4.56,3.93-1.65,8-2.39,11.93-4.25,4.35-2.09,7.86-5,12.59-6.24,6.45-1.7,11.22-5.43,17.31-7.79,3.26-1.26,3.5-.56,6.64-1.59,4-1.31,7.8-3.78,11.85-4.93,2.76-.79,5.64-.42,8.44-1.08,2.44-.58,4.8-1.9,7.25-2.35s10.47.31,10.56,4.1C465.26,368.78,459.74,370.8,457.69,371.12Z"/><path class="cls-2" d="M477.87,425.09c2.22,19.51,5.2,38.92,8.13,58.32,1.76,11.61,2.38,23.39,4.12,35,2.22,14.85,5.65,29.65,8.47,44.41,3.06,16.06,5.38,32.23,9.58,48,1.19,4.5,2.53,8.84,3.41,13.41l.78,4.12.78,4.11c-3.79-19.9-13.24-38.08-19.43-57.24-2.41-7.46-2.93-15.35-4.8-23-5.3-21.55-11.59-42.92-15.75-64.75-1.58-8.27-2.73-16.48-4.7-24.67-2.52-10.47-5.78-21.71-5.78-32.56,0-5.66,2.64-18.52,11.12-13.2a7.1,7.1,0,0,1,2.68,2.89A18.15,18.15,0,0,1,477.87,425.09Z"/><path class="cls-2" d="M465.2,534.19c13.17,1.19,7.9,24.63,12.2,37.06C481,581.58,487,590.81,487.73,602c.66,10.25-2.44,19.62-4.38,29.55-4.31,22.16-9.36,43.37-18.9,63.94-6.16,13.29-11.49,28-19.15,40.53-1.49,2.45-2.34,8.13-5,7s2.18-5.16,3.27-7.73c3.5-8.31,8.49-17.14,10.89-25.79,2.68-9.69,3.09-20.24,5.6-30.05,3.27-12.78,7.11-25.42,10.09-38.28A72.79,72.79,0,0,0,470,605.6c-1.49-6-4.92-11.5-5.73-17.62-1.22-9.15,1.3-18.8.71-28.06C464.17,547.51,452.41,533,465.2,534.19Z"/><path class="cls-2" d="M450.67,500.4c-9.86,16.22-.69,34.09,1.25,50.57.75,6.33-.7,12.77-.32,19.13.52,8.58,2,17.18,1.37,25.75-.5,6.86-3.19,13.42-3.93,20.27-1.44,13.37,2.07,24.82-1.83,38.25-3.23,11.09-7.48,22.39-11.32,33.3-.93,2.62-.39,7.23-3.12,7.73s-4.86-3.45-5.88-6.08c-1.23-3.17-.38-6.78-.43-10.18-.21-13.12-1-27,.07-40.07,1-11.57,5.58-21.55,5.34-33.41-.19-9.52-2.68-18.58-2.52-28.15.13-7.55,1.61-10.75.3-17.94-1.25-6.85-4.1-13.46-4.44-20.41-.28-5.56,2.71-10.8,4.45-16.08a111.42,111.42,0,0,0,4.64-26.84c.45-8.86-1.91-8.77.88-17.33a37.58,37.58,0,0,1,3.71-7.11c1.32-2.24,1.79-5.81,4.3-6.51,2.67-.75,6.11.86,7.72,3.12,2.13,3,1.72,7.16,2.21,10.8.31,2.32,1,15.65-.3,17.94C452.21,498.25,452.8,496.9,450.67,500.4Z"/><path class="cls-2" d="M404.89,477.91c-15.43,14.8-26.55,32.09-38.34,49.63q-8.4,12.51-17.21,24.71c-5.3,7.36-11.19,14.54-14.78,23-3.64,8.58-5.41,18.23-7.2,27.34-2.46,12.53-2.36,25.59-2,38.41.12,5,2,9.67,2.53,14.62s-1.1,9.89-.17,14.72c.17.9,3,9.76,2.34,10-1.07.33-.91-2-1.44-3-.62-1.15-1.41-2.2-2-3.35-2.61-4.81-4.92-10-7.34-14.88-2.71-5.53-1.86-11.64-3.67-17.51-2.78-9-7.35-19.09-8.09-28.56-.42-5.46.92-13,1.76-18.44,3-19.81,19.65-41.22,31.43-56.7,8.05-10.57,14.72-22.29,22.95-32.69,5-6.39,10.81-11.85,16.75-17.36,5.42-5,10.87-10.06,15.81-15.58,3.69-4.12,7.19-9.79,13.71-8.72C418.5,464.87,407.18,475.71,404.89,477.91Z"/><path class="cls-2" d="M349.55,565.52c-1.56,4.22-4.63,7.82-6,12.12-2.24,7.11-3.26,14.57-4.75,21.88-3.28,16.06-7.18,39.68-4.22,55.79,1.3,7.05,4.22,13.83,5.73,20.83,1.58,7.32,1.9,15.61,4.79,22.64.76,1.85.87,5.74,2.82,5.29s-1.23-3.67-1.74-5.54a48.32,48.32,0,0,1-1.25-5.42,91.54,91.54,0,0,1-.94-11c-.6-17.33-.29-35.28.38-52.62A144,144,0,0,1,352,589.39c2-5.89,7.75-20.13,7.26-25.89-.14-1.65-.62-3.61-2-4.57C351.55,554.87,349.81,564.83,349.55,565.52Z"/><path class="cls-2" d="M533.51,358.71s70.44,2.87,204.32,43.14,188,64.94,207.92,101.85c9,17.23,16.62,12.71-54.67,51.72S785.44,620.78,740.49,623s-79.7-14.44-130.91-88.88-78.21-141.86-87.07-157.92C522.51,376.16,511.72,352.71,533.51,358.71Z"/><path class="cls-6" d="M537.74,398.84S748.6,560.55,711.21,644.93c0,0-.91,34.59-61.91,68.3,0,0-19.07,21.63-22.51,53.21l-.43,23.75s-10.9-11.59-41.14-31.07c0,0-62.24-31.39-87.45-55.19s-24.88-36.15-11.45-117C486.32,587,516.86,383.85,537.74,398.84Z"/><path class="cls-2" d="M894.6,496.21c8.31,3,22.24,10.44,29.21,16.39,2.93,2.5,9.36,9.73.8,9-14.38-1.31-23.6-17.16-37.78-21.69-3-.95-13.94-4.72-14.45-8.1-.58-3.88,2.87-4.31,5.55-4.18C883.46,487.85,889,494.17,894.6,496.21Z"/><path class="cls-2" d="M832.55,468.89c10.89,8.68,20.57,13.5,31.8,20.72s22.78,14.38,33.21,22.9c4.35,3.54,12,8.42,15,13.31.79,1.34,2.58,3.26,1.54,4.42-1.6,1.79-7.09-2.86-7.93-3.41a101.33,101.33,0,0,0-15.29-8.14c-6.83-2.93-14-3.64-21-5.88-7.8-2.49-15-6.86-22.77-9.32-7.09-2.23-12.53-3.17-18.5-8-5.71-4.57-25.2-25.2-7.37-27.28a31.29,31.29,0,0,1,6.12,0C829.12,468.37,831.21,467.82,832.55,468.89Z"/><path class="cls-2" d="M739.8,581.09c2.28,2.82,4.45,5.71,6.58,8.64a55,55,0,0,1,4.11,6c1,1.77,2.82,3.72,2.17,5.63-.58,1.74-3.1,2.8-4.91,2.49-1.22-.21-7.75-7.68-8.57-8.45-4.45-4.23-10-6.07-13.72-11.16-.81-1.11-4.12-7.56-3.57-9.2,1.61-4.75,11.15-5.9,14-1.88C738.09,576.35,739.06,580.17,739.8,581.09Z"/><path class="cls-2" d="M611.39,747.82a35.46,35.46,0,0,1,4.25,7.18c.5,1,4.25,9.29,2.62,11.33-1,1.32-3.4,1.31-5,.76s-2.44-2.66-3.82-3.81c-4-3.36-10.41-5-14-8.72C591.12,750,595.78,744,601,743,605.37,742.16,610.05,746.23,611.39,747.82Z"/><path class="cls-2" d="M873,523.38c2.69-.23,5.24,1.33,7.8,2.2,3.08,1.06,6.08,2.34,9.09,3.58,1.8.75,6.15.63,5.32,2.39-1,2.08-4.55.72-6.85.87-2.6.17-10.64.16-13.2-.82-2.07-.8-3.76-2.37-5.5-3.76-1.48-1.19-5.7-2.88-4.12-3.93C868,522.28,871.07,523.54,873,523.38Z"/><path class="cls-2" d="M543.06,373.77c8.66.29,16.38,6,23.85,10.35,11.46,6.75,22.15,14.24,33.27,21.49,16.49,10.76,35.27,17.42,51.69,28.26,23.69,15.65,44.09,35.57,68,50.91,12.21,7.82,24,15.16,34.37,25.45l4.71,4.66c1.21,1.2,4,1.94,3.62,3.59s-3.1,1.34-4.68,1.11c-5.22-.77-7.14-3.09-11.21-5.36-6.18-3.46-12.8-6.2-18.79-10-7.58-4.82-14.32-10.81-22.06-15.41-12.62-7.49-26.33-13.09-38.68-21.1-13.12-8.52-25-19.14-38.34-27.24-8.62-5.23-18.68-8.33-27.82-12.5-9.47-4.31-17.91-10.18-26.4-16.11-8.16-5.71-15.46-12.48-23.52-18.28-4.2-3-8.77-5.48-12.66-9-2.15-1.93-6.1-4.83-5.08-8.64a4.43,4.43,0,0,1,3.23-3.25C539.37,372.35,542.1,373.74,543.06,373.77Z"/><path class="cls-2" d="M547.41,371.12c4.37.67,9.35.43,13.44,2.4,3.76,1.82,6.73,5.55,10.34,7.74,4.53,2.76,9.56,4.61,14.24,7.11,4.5,2.41,8.35,5.88,12.9,8.2,3.88,2,8,3.39,11.79,5.62,3.57,2.12,6.59,4.86,10.25,6.86,4.61,2.53,9.51,3.13,14.08,5.35,4.13,2,7.88,4.57,12.25,6.2,2.57,1,5.41,1.34,7.94,2.43,3.14,1.35,5.86,3.48,9.1,4.64,3.53,1.26,7.3,1.74,10.85,2.91,2.48.82,4.5,2.41,7,3.19,2.83.89,5.82,1.15,8.7,1.81,3.55.81,6.62,2.75,10.06,3.87,3,1,6.18,1.09,9.2,2,3.54,1.11,6.47,3.57,9.94,4.9s7.48,1.59,11,3.11c5.54,2.37,9,4,15,5.27,4.92,1.05,9,4.59,14,5.69,1.34.3,12.59,3.41,13,2.1.75-2.21-10-9.69-11.57-10.84-6.05-4.43-10.56-5.53-17.24-8.48-4-1.75-7.17-4.68-11-6.59-3.64-1.83-8-2.77-11.74-4.4-4.22-1.83-7.67-5.11-12-6.7-3.91-1.44-8-2.53-11.74-4.4-2.9-1.45-5.39-3.61-8.37-4.91-3.42-1.5-7.15-2.31-10.59-3.76-3.23-1.36-5.83-3.51-8.87-5.14-3.43-1.84-7.34-2.38-10.93-3.79-4.49-1.76-8.23-4.92-12.75-6.43-3.57-1.2-7.33-1.73-10.82-3.26-2.93-1.28-5.43-3.32-8.4-4.56-3.93-1.65-8.06-2.39-11.94-4.25-4.35-2.09-7.85-5-12.59-6.24-6.44-1.7-11.21-5.43-17.31-7.79-3.25-1.26-3.49-.56-6.63-1.59-4-1.31-7.8-3.78-11.86-4.93-2.76-.79-5.64-.42-8.43-1.08-2.44-.58-4.8-1.9-7.25-2.35s-10.47.31-10.56,4.1C539.85,368.78,545.36,370.8,547.41,371.12Z"/><path class="cls-2" d="M527.23,425.09C525,444.6,522,464,519.1,483.41c-1.75,11.61-2.38,23.39-4.12,35-2.22,14.85-5.65,29.65-8.46,44.41-3.06,16.06-5.38,32.23-9.58,48-1.2,4.5-2.54,8.84-3.41,13.41l-.78,4.12c-.27,1.37-1.05,5.48-.79,4.11,3.79-19.9,13.24-38.08,19.43-57.24,2.42-7.46,2.94-15.35,4.8-23,5.3-21.55,11.59-42.92,15.76-64.75,1.57-8.27,2.73-16.48,4.7-24.67,2.51-10.47,5.78-21.71,5.78-32.56,0-5.66-2.64-18.52-11.12-13.2a7,7,0,0,0-2.68,2.89A18.26,18.26,0,0,0,527.23,425.09Z"/><path class="cls-2" d="M539.9,534.19c-13.17,1.19-7.9,24.63-12.2,37.06-3.57,10.33-9.61,19.56-10.33,30.7-.65,10.25,2.45,19.62,4.38,29.55,4.31,22.16,9.37,43.37,18.9,63.94,6.17,13.29,11.49,28,19.15,40.53,1.5,2.45,2.35,8.13,5,7s-2.18-5.16-3.27-7.73c-3.51-8.31-8.5-17.14-10.89-25.79-2.68-9.69-3.09-20.24-5.6-30.05-3.28-12.78-7.12-25.42-10.1-38.28a72.67,72.67,0,0,1,.19-35.53c1.49-6,4.91-11.5,5.73-17.62,1.21-9.15-1.31-18.8-.71-28.06C540.93,547.51,552.7,533,539.9,534.19Z"/><path class="cls-2" d="M554.43,500.4c9.87,16.22.7,34.09-1.25,50.57-.75,6.33.7,12.77.32,19.13-.52,8.58-2,17.18-1.36,25.75.49,6.86,3.19,13.42,3.92,20.27,1.44,13.37-2.07,24.82,1.84,38.25,3.22,11.09,7.48,22.39,11.32,33.3.92,2.62.39,7.23,3.12,7.73s4.86-3.45,5.88-6.08c1.23-3.17.37-6.78.43-10.18.2-13.12,1-27-.07-40.07-1-11.57-5.59-21.55-5.35-33.41.2-9.52,2.69-18.58,2.53-28.15-.13-7.55-1.62-10.75-.3-17.94,1.25-6.85,4.09-13.46,4.44-20.41.28-5.56-2.72-10.8-4.45-16.08a111.42,111.42,0,0,1-4.64-26.84c-.45-8.86,1.9-8.77-.89-17.33a37.54,37.54,0,0,0-3.7-7.11c-1.32-2.24-1.8-5.81-4.3-6.51-2.67-.75-6.11.86-7.72,3.12-2.14,3-1.73,7.16-2.22,10.8-.31,2.32-1,15.65.3,17.94C552.9,498.25,552.3,496.9,554.43,500.4Z"/><path class="cls-2" d="M600.22,477.91c15.42,14.8,26.55,32.09,38.33,49.63q8.4,12.51,17.22,24.71c5.29,7.36,11.19,14.54,14.77,23,3.65,8.58,5.42,18.23,7.21,27.34,2.46,12.53,2.36,25.59,2,38.41-.13,5-2,9.67-2.54,14.62s1.1,9.89.18,14.72c-.18.9-3,9.76-2.34,10,1.07.33.9-2,1.44-3,.62-1.15,1.4-2.2,2-3.35,2.61-4.81,4.92-10,7.33-14.88,2.72-5.53,1.86-11.64,3.68-17.51,2.78-9,7.34-19.09,8.08-28.56.43-5.46-.91-13-1.75-18.44-3-19.81-19.65-41.22-31.43-56.7-8.05-10.57-14.73-22.29-23-32.69-5-6.39-10.82-11.85-16.75-17.36-5.42-5-10.87-10.06-15.82-15.58-3.69-4.12-7.19-9.79-13.71-8.72C586.6,464.87,597.93,475.71,600.22,477.91Z"/><path class="cls-2" d="M655.55,565.52c1.56,4.22,4.63,7.82,6,12.12,2.25,7.11,3.27,14.57,4.76,21.88,3.27,16.06,7.18,39.68,4.21,55.79-1.29,7.05-4.22,13.83-5.73,20.83-1.58,7.32-1.9,15.61-4.78,22.64-.76,1.85-.88,5.74-2.82,5.29s1.22-3.67,1.73-5.54a48.36,48.36,0,0,0,1.26-5.42,95.86,95.86,0,0,0,.94-11c.6-17.33.29-35.28-.39-52.62a143.63,143.63,0,0,0-7.61-40.13c-2-5.89-7.75-20.13-7.25-25.89.14-1.65.61-3.61,2-4.57C653.56,554.87,655.3,564.83,655.55,565.52Z"/><path class="cls-7" d="M497.24,324.57c-2-2-5.51-2.39-8.25-1.76-9.63,2.19-18.7,6.37-27.89,10-7.12,2.79-13.64,7-20.77,9.77-3.49,1.37-7.37,1.6-10.85,3-3.67,1.49-7.15,4.91-10.1,7.13-7.69,5.79-16.47,9.42-23.2,16.53-2.58,2.73-3.35,3.78-5.6,6.56-.81,1-3.71,3.17-2.43,3,1.67-.21,2.62-2.12,3.92-3.19,3.68-3,7.1-5.79,11.41-7.88s9.11-3.7,13.29-6c3.73-2.07,6.46-5.63,10.29-7.51,5.14-2.53,11.24-2.57,16.28-5.46,3.91-2.24,7.19-5.52,11.23-7.51,4.53-2.25,9.51-3.21,14-5.65,3.73-2,7.5-5.17,11.6-6.39,3.55-1.05,8.11-1.4,11.8-2.08,1.37-.25,3.26.35,4.12-.76C496.73,325.56,498.74,326.07,497.24,324.57Z"/><path class="cls-7" d="M482.3,346.38c-1.14-1.25-2.65-2.58-4.34-2.63-6.32-.17-12.54,1.8-18.85,2-7.67.26-13.86-3.14-21.15-4.35-3-.5-6.21-.28-9.18-1.08-5.38-1.46-9.56-4.78-14.56-7.13-2.57-1.21-5.47-1.71-7.92-3.13-5.28-3.06-4-3.71-9.1-7.51-4.6-3.39-7.56-4.61-11.64-9-5.29-5.67-11-11.38-16.46-16.83-.84-.84-1.81-2.85-2.79-2.19s-.33,2.73.22,3.91c.73,1.59,2.3,2.63,3.42,4a206.11,206.11,0,0,0,15.86,16.25c3.07,2.93,7.05,4.77,10.29,7.48,6.43,5.38,12.6,11.06,19.64,15.68,3,2,6.85,2.74,10.2,3.91,4,1.41,7.3,3.86,11.19,5.55,4.57,2,9.13,1.82,13.87,3,8.67,2.14,22.6,12.77,29.63,1.29a8.26,8.26,0,0,0,1.23-3.24C482.18,349.54,482.63,346.73,482.3,346.38Z"/><path class="cls-8" d="M492.38,331c-1.33,0-1.69,2.12-2.82,2.81s-7,2.11-8.22,2.47c-7.71,2.32-11.6,7.57-18.34,11.44-5.81,3.34-17.38,12.41-17.38,12.41-6.12,9.51-5.27,21.23-5.74,32.22-.26,5.79-1.92,11.48-2,17.24s3,10.9,4,16.47c.85,4.64.5,9.23,1.5,13.85s3.15,8.43,4.91,12.75c1.11,2.74,1.37,5.82,2.81,8.4,1.8,3.22,5,5.51,7,8.6s2.89,6.83,4.88,9.93c2.34,3.68,6,6.42,8.62,9.91,3.3,4.39,7.22,8.62,10.34,13.09s5.48,9.19,9.19,13.47c.73.84,6,6.69,7.5,6.53a.79.79,0,0,0,.56-.34.81.81,0,0,0,.57.34c1.47.16,6.77-5.69,7.5-6.53,3.71-4.28,6-8.91,9.18-13.47s7-8.7,10.35-13.09c2.62-3.49,6.27-6.23,8.62-9.91,2-3.1,2.9-6.84,4.91-9.93s5.14-5.38,6.94-8.6c1.44-2.58,1.69-5.66,2.81-8.4,1.75-4.32,3.91-8.14,4.91-12.75s.64-9.21,1.5-13.85c1-5.57,4.08-10.67,4-16.47s-1.77-11.45-2-17.24c-.48-11,.38-22.71-5.75-32.22,0,0-11.56-9.07-17.37-12.41-6.74-3.87-10.63-9.12-18.35-11.44-1.22-.36-7-1.72-8.22-2.47s-1.48-2.77-2.81-2.81-2.6,1.43-3.37,2.63-.66,2.9-1.13,4.31c-.79,2.37-1.55,4.56-2.22,6.78-.66-2.22-1.42-4.41-2.21-6.78-.48-1.41-.32-3.07-1.13-4.31S493.8,331,492.38,331Z"/><path class="cls-7" d="M497.78,319.59a5.6,5.6,0,0,0-3.75,1.88,7.21,7.21,0,0,0-.44.78c-5.8,2.87-13.06,7.24-14.31,8.81a17.66,17.66,0,0,0-2.25,3.56c-1.1,2.43-3.52,4.93-2.81,7.5.44,1.6,3.46-.31,5,.38,5.56,2.53,10.85,9.51,18.69,10l.4.06c.29,0,.54,0,.81,0s.53.06.82,0l.4-.06c7.84-.49,13.13-7.47,18.69-10,1.51-.69,4.53,1.22,5-.38.71-2.57-1.71-5.07-2.81-7.5a18.11,18.11,0,0,0-2.25-3.56c-1.25-1.57-8.51-5.94-14.32-8.81a5.81,5.81,0,0,0-.43-.78,5.6,5.6,0,0,0-3.75-1.88,12.66,12.66,0,0,0-1.32.44A12.58,12.58,0,0,0,497.78,319.59Z"/><path class="cls-7" d="M501,324.57c2-2,5.51-2.39,8.25-1.76,9.62,2.19,18.69,6.37,27.88,10,7.13,2.79,13.65,7,20.77,9.77,3.5,1.37,7.38,1.6,10.86,3,3.67,1.49,7.15,4.91,10.1,7.13,7.69,5.79,16.47,9.42,23.2,16.53,2.58,2.73,3.34,3.78,5.6,6.56.81,1,3.71,3.17,2.43,3-1.67-.21-2.62-2.12-3.93-3.19-3.67-3-7.09-5.79-11.41-7.88s-9.1-3.7-13.28-6c-3.73-2.07-6.46-5.63-10.29-7.51-5.14-2.53-11.24-2.57-16.28-5.46-3.91-2.24-7.19-5.52-11.23-7.51-4.53-2.25-9.51-3.21-14-5.65-3.73-2-7.5-5.17-11.6-6.39-3.55-1.05-8.11-1.4-11.8-2.08-1.37-.25-3.26.35-4.12-.76C501.46,325.56,499.45,326.07,501,324.57Z"/><path class="cls-9" d="M511.29,352.11c.47-1.83,1.26-3.93,2.9-4.86,6.13-3.48,13.28-4.8,19.61-7.9,7.68-3.77,12-10.36,18.55-15.36,2.73-2.09,6-3.53,8.47-5.88,4.54-4.25,6.92-9.71,10.61-14.63,1.9-2.54,4.48-4.55,6.16-7.23,3.6-5.77,2-5.71,5-12.14,2.75-5.75,5-8.5,6.75-14.93,2.25-8.34,4.85-16.92,7.41-25.17.39-1.25.29-3.74,1.6-3.61s1.76,2.51,1.84,4c.1,1.94-.9,3.79-1.31,5.69a231,231,0,0,1-7.11,24.28c-1.49,4.48-4.45,8.37-6.22,12.73-3.52,8.66-6.62,17.47-11.14,25.71-1.94,3.53-5.31,6.27-8,9.18-3.24,3.51-5.17,7.62-8.12,11.32-3.46,4.35-8,6.57-12.08,10.2-7.43,6.65-15.58,24.39-28.51,16.79a9.07,9.07,0,0,1-2.9-2.54C513.06,355.15,511.15,352.62,511.29,352.11Z"/></g></svg>