<svg id="Layer_1" data-name="Layer 1" xmlns="http://www.w3.org/2000/svg" viewBox="0 0 1000 1000"><defs><style>.cls-1{isolation:isolate;}.cls-10,.cls-11,.cls-12,.cls-13,.cls-2,.cls-3,.cls-4,.cls-5,.cls-6,.cls-7,.cls-8,.cls-9{fill:#fff;}.cls-2{opacity:0.21;}.cls-3{opacity:0.2;}.cls-4{opacity:0.3;}.cls-5{opacity:0.48;}.cls-6{opacity:0.3;}.cls-7{opacity:0.4;}.cls-8{opacity:0.44;}.cls-9{opacity:0.45;}.cls-10{opacity:0.55;}.cls-11{opacity:0.36;}.cls-12{opacity:0.51;}.cls-13{opacity:0.43;}</style></defs><g class="cls-1"><path class="cls-2" d="M453,478.23S361.65,363.11,192.1,350.4-3.54,372.81,62.28,431c0,0,32.28,40.37,74.68,60.06l1.85.85c1.81.82,3.57,1.59,5.3,2.31,4,1.69,7.86,3.13,11.48,4.35,26.34,8.91,41.69,6.26,52.68,7.14,63,5.05,94.65,2.63,141.24,2.89s57.3-5.63,72.79-10.52,28.1-8.6,28.1-8.6Z"/><path class="cls-3" d="M443.58,503.57s-29.72-7.71-79.82-7.94S216,498.33,187.49,524.08s2.22,41.82,14.21,50.81,33.6,53.06,91,45.37,33.09-5.35,43.81-6.51c0,0-5.64,9.71,6,15.73s45.86,10.21,70.26-12.24,28.13-32.83,32.29-51.57S451.81,532.26,443.58,503.57Z"/><path class="cls-2" d="M233.87,482.64c7.6.27,15.16,2.07,22.42,4,3.27.88,6.46,1.88,9.69,2.86,1.54.47,4.36,1.15,5.51,2.16.42.37.78,1.33.31,1.64-2.05,1.39-3.2.87-6.59,1.18-1.36.13-2.64.67-4,.91-3.42.63-7,.71-10.42,1.29-3,.5-5.71.31-8.61,1.29-3.47,1.17-6.91,2.07-10.39,3.14-5.84,1.78-8.91,3.18-15.06,1.32-2-.61-3.8-.23-5.86-.31-4.52-.18-9.07-1.14-13.6-1.12-2.65,0-8.91.88-11.22-.17-3.45-1.57,2.45-4.74,3.55-5.33a89.27,89.27,0,0,1,17.71-7.46c2.26-.66,4.35-1.85,6.63-2.41s4.5-.61,6.69-1.19a39.24,39.24,0,0,1,5.61-1.49A49.57,49.57,0,0,1,233.87,482.64Zm115.29-2c6.06.62,12,1.68,18,2.58,6.73,1,19.43,4.18,19.43,4.18s25.64,6.69,25.55,7.39c-.17,1.29-28.69,7.37-32.54,7.69-11.89,1-18.33-.12-33.94.39-2.38.07-31.41-.94-33.88-.7-4.39.42-11.07-3.29-15.47-2.74-1.6.2-7.37-3.29-8-3.9a1.65,1.65,0,0,1,.07-2,13.67,13.67,0,0,1,2.55-1.81,18.29,18.29,0,0,1,4.84-3.32c1.74-.72,8-2,15.12-3.2,8.69-1.52,18.75-3.05,23.75-3.7C339.1,480.91,344.65,480.2,349.16,480.65Zm-145.37-22.1a11,11,0,0,1,3.94.11c2.61.78,2.21,5.27,3.66,7.67.72,1.2,1.9,1.78,2.82,2.79.67.72.89,1.61,1.61,2.3s1,.61,1.49,1.39c.62,1.06,1.22,4.29.6,5.4-.75,1.35-3,1.53-4.33,1.89-1.06.28-2,.84-3,1.18a22,22,0,0,1-3.42.49,28.42,28.42,0,0,0-6.1,2.23c-2.2,1-3.94,2.5-6,3.77-1.65,1-3.46,1.78-5.13,2.79-3.14,1.88-5.93,4.34-9.13,6.2-1.92,1.12-3.74,3-6.07,3.24-5.1.46-9.58-1.87-14.29-3.24A78.25,78.25,0,0,1,140,487.87c-1.06-.67-5.18-2.16-5-3.87s3-2.56,4.25-3.21c2.23-1.11,4.39-2.65,6.73-3.52,1.48-.55,3.06-.83,4.49-1.53A211.57,211.57,0,0,1,171.54,467c1.27-.46,2.34-1.27,3.59-1.74a100.92,100.92,0,0,1,13.39-4.43,98.64,98.64,0,0,1,11.19-1.77C200.83,459,202.33,458.71,203.79,458.55Zm26.77-14.26c2.29-.52,14.6,1,20.29,2,7.52,1.22,12.1,1.21,19.59,2.58,12.81,2.33,13.16,1.25,26,3.66,3.79.71,20.21,5.09,23.91,6.27,9.93,3.18,19.78,6.69,29.74,9.8,3,.92,8.71,2.37,8.71,2.37s20.24,3.87,29,8c.73.34,29.32,10.12,29.28,10.32-.22,1.06-27.35-5-27.64-5.09-2.76-.5-5.54-.95-8.23-1.71a208,208,0,0,0-22.28-4.85c-3.53-.59-7-1.56-10.6-1.67a205.59,205.59,0,0,0-27.64.7c-5.34.54-10.42.57-15.69,2-6.91,1.86-13.64,5.61-20.15,8.58-2.37,1.08-5.24,2.94-7.91,3-3.22.11-4.65-2.09-7.36-3.28a124.34,124.34,0,0,0-24-7.94c-5.83-1.25-11.72-1.4-17.6-2.1a14.44,14.44,0,0,0-3.94,0c-.75.1-1.53.77-2.2.42-1.18-.6-.93-2.5-1.5-3.69-1.09-2.28-1.89-4.84-3.38-6.91-2.4-3.33-5.27-5.31-5.26-9.86,0-3.76,4-6.89,7.14-8.16C222.49,447.22,226.7,445.18,230.56,444.29Zm-46-12.93a24.62,24.62,0,0,1,6.94.1c4.13.78,8.22,1.77,12.34,2.62,2,.42,9.83,2.92,11.82,3.35a27,27,0,0,1,7.77,2.89c.37.21,2.1.88,2.06,1.46-.08,1.14-4.29,2.06-5.09,2.27-2.83.75-9.24,2.66-11.23,4.71-1,1-2.2,4.83-2.75,5.16-.71.42-2.31,0-3.11.1-1.88.26-3.82.56-5.71.87a133.86,133.86,0,0,0-24.06,6,232.6,232.6,0,0,0-23.28,9.9c-1.91,1-4,1.34-5.93,2.34-2,1.08-4.3,1.85-6.31,3a21.69,21.69,0,0,1-3.73,1.95,16,16,0,0,1-3.31.28c-5.49.71-10.26-3.06-14.78-5.82-2.91-1.78-5.68-2.59-8-5.13-1.44-1.59-4.93-2.89-4.84-5.54.1-3.16,4.22-5.52,6.65-6.69,0,0,43.2-21.54,67.71-22.46A39.44,39.44,0,0,1,184.58,431.36Zm-38.14-10.81c1.83.19,2.43,2.57,3.9,3.56,1.9,1.27,5.13,1.87,7.33,2.4,3.42.85,8.82-1.28,9.86,2.2.63,2.09-3.83,1.66-6.52,2.55-1.9.62-3.65,1.61-5.54,2.26-3.43,1.19-7,2.08-10.39,3.28-10.41,3.62-20.81,7.41-31.1,11.36-3.59,1.39-6.76,3.55-10.38,4.85-1,.37-2.8,1.25-4,1-1.94-.4-2.85-2.76-3.28-4.43-.57-2.26,1.24-3.87,2.76-5.23,3.84-3.44,8.6-5.84,13-8.54a150.82,150.82,0,0,1,14.26-7.46c2.62-1.26,5.49-1.95,8-3.38a63.31,63.31,0,0,1,8.33-3.45A8,8,0,0,1,146.44,420.55Zm19-22.45c4.64-.11,8.91.15,11.33.91,7.44,2.34-13.55,2.9-20.05,6.66-3.21,1.86-8.11,4-9.83,7.56-.53,1.12.45,2.66-.17,3.73-.3.52-8,2-9.17,2.48-5.69,2.29-11.64,4.51-17.08,7.35-4.75,2.48-9.2,5.59-14.19,7.6-3.07,1.24-6,2.54-9.06,3.84-2.76,1.18-5.92,1.29-8.79,2.06-3.63,1-6.94,2.23-10.63.66-1.94-.83-7.37-4.56-6.21-7.29.56-1.3,4-2.53,5.13-3.21,5.91-3.73,11.44-8.38,17.81-11.36,8.7-4.06,17.74-7.36,26.57-11.09,5-2.11,9.55-4.74,14.81-6.27s10.66-1.4,16-2.34A98.57,98.57,0,0,1,165.44,398.1Zm81.72-.1c5.22,0,10.45.25,15.61.38,3.21.08,6.36.14,9.17,1.19,9.62,3.58,17.92,10.15,27.23,14.43,8.89,4.08,18.15,7.17,27.05,11.12,11.82,5.25,23,11.7,34.69,17.15,11.37,5.3,20.57,14.37,31.72,20.08,9.47,4.85,18.59,10.63,27.65,16.18,1.38.85,8.75,4.62,8.82,6.13.15,3.45-10.1-.51-11.47-.94-9-2.85-17.41-7.64-26.5-10.21l-35.29-10s-29.18-8.56-43.6-13.27c-10.56-3.45-15.54-5.43-26.56-6.94-1.71-.23-14.64-2.12-16.35-2.3-5.8-.61-17-1.93-19.32-2.05-6.08-.34-12.15-1.36-18.23-1.89-4.9-.42-20-3.52-22.83-4.22-6.33-1.55-12.68-2.68-19-4.32-3.16-.82-6.38-.79-9.52-1.57a122.51,122.51,0,0,0-15.2-3.2c-3.12-.36-2.84.23-5.86-.91-1.42-.54-7.57-2.38-7.94-3.56-1-3,2.7-6.36,4.7-7.88,4.5-3.39,9.58-4,15-5.22a43.56,43.56,0,0,1,5.82-1.29c15.12-1.32,30-5.39,45.18-6.52,3.18-.24,6.26.51,9.45.21A150.3,150.3,0,0,1,247.16,398ZM123,382.17c2.31.09,4.59.34,6.69.63,4.38.6,9.69-.43,13.81,1.36a6.63,6.63,0,0,1,2.47,2.3c.57.76.6,6.5-2.23,8.5-.9.64-4.53,1.1-5.65,1.43-2.64.8-5.19,1.84-7.81,2.69s-5.54,1-8.22,2c-3.33,1.19-6.33,3.16-9.42,4.84s-6.87,2.7-10.14,4.46-6.45,4.23-9.9,6a100.84,100.84,0,0,1-11.12,4.35c-5,1.83-19,4.75-22.24-.8-.31-.53-5.94-3-6-3.52-1.72-10.82,16.13-15.76,23.27-19.76,4.83-2.7,8.23-2.93,13.38-5,3-1.22,6.06-1.83,9.12-2.94,2.58-.92,14.14-5.54,17.29-6.13A30.38,30.38,0,0,1,123,382.17Zm145.93-11.64c.83-.64,18,3.22,20.76,4.47,6.67,3,19.2,8.73,26,11.57,22.59,9.48,37.52,18.25,58,31.7,13.69,9,25.65,21.58,38.63,31.71,7.27,5.67,15.08,10.95,20.77,18.37,1.85,2.4,5.76,8.31,4.33,11.64-1.56,3.62-27.41-15.46-33.09-19.14-23.44-15.18-47.6-25.3-72.27-38.41-10-5.34-32.63-18-32.63-18s-19.64-6.16-21.58-8.36C273.2,390.86,268.06,371.17,268.91,370.53ZM80.38,370a25.52,25.52,0,0,1,9.86,1c2.11.77,3.32,2.59,5.27,3.6a26.58,26.58,0,0,0,7.18,2.09,60.91,60.91,0,0,0,6.38,1.25,10.94,10.94,0,0,0,2.06-.1c.79-.09,2-1.1,2.37-.39s1.56,1,.34,1.33c-11,3.41-21.64,7.15-32.42,11-7.5,2.69-9.73,6.47-17,9.86-4.94,2.31-11.76,8.63-17.39,6.86C42,405,33.47,393.79,35.3,388.34c.7-2.06,3.66-4.54,5.2-5.82,6.67-5.53,13.82-7.41,22.06-9.34,2.65-.63,5-1.86,7.74-2.13C73.39,370.75,76.91,370.22,80.38,370Zm119.12-1.71c1.62.06,3.16.65,4.78.66a368.52,368.52,0,0,1,41.86,2.76c5,.59,20.29.66,20.29.66s-.14,7.1,1.22,9.31c.86,1.39,3.18,5.19,3.07,8.16a10.49,10.49,0,0,1-2,5.38s-5.09-.08-8-.37c-6-.6-10.54-.07-16.55-.42a141.67,141.67,0,0,0-30.75,1c-2.15.27-13.51,1.46-15.63,1.93-3.18.72-11.87,1.86-12.92,1.94-2.42.18-4.75-4.06-7.13-4.23a58.88,58.88,0,0,1-7.88-1.22c-6-1.2-12-.17-17.92-.73-1.68-.16-4.15.65-3.66-1.95.45-2.38,3.72-5,5.51-6.28a80.83,80.83,0,0,1,17-9.41c4.61-1.83,9.21-5,14.05-6.13A61.35,61.35,0,0,1,199.5,368.33ZM163.17,352.5c9.66.25,19.28,2.23,28.76,3.66,10.52,1.6,21.32,1,31.76,2.86,2.35.41,4.7.21,7.05.53,7.72,1,15.29,2.79,22.9,4.39,2,.42,11.82,1.15,11.85,3.94.05,3.25-7.09,1.27-8.57,1-10-1.76-20.28-1.3-30.37-2.62A125.6,125.6,0,0,0,213.3,365c-2.19,0-4.35.55-6.55.56s-4.43-.53-6.66-.38c-1.94.12-3.85.69-5.78.83-2.32.17-4.63-.48-6.94-.13a130,130,0,0,0-14.19,3c-2.2.59-4.13,2-6.14,3-4.5,2.41-8,7.39-13.07,7.95s-11-2.82-16.56-2.93a31.13,31.13,0,0,1-4.32.07c-1.57-.21-3-.93-4.6-1.15-5.88-.8-12.12.11-18-.63-2.53-.31-16.48-.92-13.25-6.1,1.94-3.1,7.86-3.14,10.88-3.73,4.2-.82,7.59-3,11.57-4.32,2.67-.91,5.4-1.2,8.12-1.85,3.66-.86,6.89-2.66,10.46-3.62,3.1-.84,6.41-.66,9.52-1.36a55,55,0,0,1,5.72-1.26A66.38,66.38,0,0,1,163.17,352.5ZM115,350a108.69,108.69,0,0,1,21.75,2.16c5.45,1.18-8.25,2.88-13.75,3.81a49.48,49.48,0,0,0-12,3.93c-3,1.38-7.36.88-9.82,3-1.78,1.53-10.2,3.11-12.8,3.28s-5.13,1-7.74,1.22c-2.76.21-5.25-.26-8,.24-3.1.57-15.34,4.6-17.67,4.91-5.4.7-10.81,3.64-15.73,6.1a48.13,48.13,0,0,0-4.67,3.13c-.55.38-2.29-2.46-2.75-2.95-1.89-2,3.2-6.65,4.15-7.6a64.3,64.3,0,0,1,19.8-13,82.56,82.56,0,0,1,24.33-5c4.19-.25,8-2.05,12.14-2.34C99.75,350.38,107.44,349.92,115,350Zm20.19-2.16C17.47,346.84,4.7,380.09,62.28,431c0,0,32.28,40.34,74.68,60,.62.29,1.23.6,1.85.88,1.8.81,3.57,1.58,5.29,2.3,4.05,1.69,7.86,3.13,11.47,4.35,26.35,8.91,41.69,6.27,52.68,7.15,63,5,94.68,2.63,141.26,2.89,13.4.08,23.84-.36,32.27-1.13,20.88-1.92,29.49-5.91,40.52-9.39,15.49-4.9,28.1-8.62,28.1-8.62l2.65-11.22S361.66,363.11,192.11,350.41Q160.32,348,135.15,347.83Z"/><path class="cls-3" d="M290.73,585.34a29.94,29.94,0,0,1,4.71.14c4.55.48,8.15,3.55,3.94,7.95s-13.15,6.79-19,6c-5-.65-5.39-6.2-2-9.13A19.87,19.87,0,0,1,290.73,585.34Zm-25.59-6.55a9.66,9.66,0,0,1,2.79,0c1.81.28,3.92.78,5,2.27.95,1.31,1,2.53.1,4.53-1.76,3.88-9,6.57-12.76,4.95-5.06-2.17-2.2-9.75,2.17-11.09A17.85,17.85,0,0,1,265.14,578.79Zm-8.08-16.66c4-.09,7.85,1.29,11.68,5.23,2.49,2.56-1.43,4.5-4.75,6.86-5.24,3.74-18.9,6.41-24.57,2.06-5.22-4,.92-9,4.7-10.6C248.77,563.77,253,562.21,257.06,562.13Zm-3.73-16.42c3.4.17,6.18,1.07,6.45,3.9.88,9.51-25.2,17-33.92,10.56-3-2.19-3.2-7.33-.11-9.51,4.45-3.14,12.15-4.49,17.29-4.54C245.89,546.1,249.92,545.53,253.33,545.71ZM294,537c.88-.13,2.55-.09,2.54.8,0,2.34-2,5.43-2.75,8.75-.42,1.81-.25,3.88-1.71,5.3-3.08,3-6.16,3-10,3.83-2.8.61-5.32,1.3-8.19,1.75-2.36.36-9.29,2.58-11-.35-.78-1.34,3.31-5.3,2.9-8.06-.57-3.81-4.22-3.55-7-4.63-.74-.29-2.36-.9-1.67-2.2s4.25-1.82,5.5-1.85c6.31-.14,12.56-.61,18.86-.59a28.39,28.39,0,0,0,8.23-1C291.14,538.26,292.46,537.17,294,537Zm-66.69-13.25c4.15.13,8.39.88,11.85,1.18,2.8.25,5.71.05,8.4.84a49.66,49.66,0,0,1,12,5.16c.8.5,1.41,2,.83,2.72-1.23,1.63-4.73,2.14-7.77,3.24s-5.49,3-8.61,3.87c-4.21,1.13-8.84,2.71-13.25,2.44-2.54-.15-5.1,0-7.6-.52-4.84-1.09-12.72-3.93-11.26-10.22a11.68,11.68,0,0,1,4.15-6.17C219.13,524.08,223.17,523.58,227.32,523.71Zm74.5-9.94a1.66,1.66,0,0,1,1.74,1.12c.27,1-1.13,2.89-1.36,3.8-.48,1.91.2,4,.49,6,.23,1.52,1.7,4.33.63,5.72s-5.82,3-7.6,3.38c-5.4,1.19-11,1.59-16.32,3-3.06.83-7.81,2.06-10.91.77-2.71-1.13-2.76-3.69-3.21-6.1a11.7,11.7,0,0,0-3-5.06c-4.8-4.54-12.28-5-18.41-6-1.26-.2-3.39-1.41-2.13-3,.73-.94,3.25-1.19,4.33-1.43a55.75,55.75,0,0,1,12.86-.84c4.86.12,9.8-1,14.71-.94C283.09,514.33,292.41,515.6,301.82,513.77Zm108.7-3.1c5.05.08,10.27,0,15.06,1.64,1.5.5-.27.12.28-.31s1.6.26,2.37.52a11.58,11.58,0,0,1,7,6.73c4.05,9,2.08,17.2,1,26.6-.61,5.35-3.92,9.57-5.37,14.64-1.07,3.76-2.57,8.41-2.82,12.3-.27,4.18,0,8.6-1.5,12.66C422.33,597.34,408,610.59,396.75,616c-2.32,1.11-11.52,5-13.25,2.26-.69-1.08.08-4.78-.49-5.16-.77-.51-1.77.59-2.68.77-3.34.65-7.54.27-9.76-2.79-1.5-2.06-1.34-3.16-1.19-5.47.05-.83,1-2.07.28-2.51s-1.34,1-2.09,1.36a8.68,8.68,0,0,1-2.34.66c-2.8.39-6.45-.32-8.33-2.68-2.89-3.64,2.49-7.68-.73-9.66-.77-.47-1.83.09-2.72.21-4.81.62-9.22,2.38-14.19,1.22-3.38-.79-5.9-2.28-5-6.07.25-1.07,2.34-3.25.35-4.49-.48-.3-5.07.39-5.65.28a21.15,21.15,0,0,1-7.88-4.26c-2.74-2.51-2-4.5-.1-7.28a32.43,32.43,0,0,1,2.16-2.79c.54-.64,2.23-1.17,1.71-1.82s-1.88.39-2.83.46c-3.31.22-10.72-1.17-11.33-5.58-.43-3.15,4.33-7.65,6.56-9.13a20.65,20.65,0,0,1,2.33-1.22c.73-.36,2.7-.38,2.2-1,0,0-4,.94-5.75,1.12-5.84.62-15.29-2.26-16.28-9.31-.92-6.5,9-9.7,13.42-12.06,2.59-1.39,2.52-1.12,5.4-1.57.94-.14,3.12.47,2.79-.42s-1.95,0-2.93.07-2.1.51-3.17.56c-6.21.31-10.31-7.11-7.29-12.38,3.14-5.46,7.22-4,12.45-4.35,5-.36,9.78-1.11,14.82-1.26,6.25-.18,11.84,1.85,17.95,2.55,3.17.36,6.35-.43,9.52-.53,10-.29,20.07-1.22,30.08-1.67C398.71,511.76,404.54,510.58,410.52,510.67Zm-46.75-15.06c-50.1-.23-147.73,2.73-176.26,28.48s2.2,41.8,14.19,50.8,33.61,53.08,91.05,45.39,33.07-5.36,43.79-6.52c0,0-5.65,9.7,6,15.72s45.88,10.22,70.28-12.24,28.13-32.82,32.29-51.56,6.65-33.44-1.57-62.12C443.57,503.56,413.87,495.84,363.77,495.61Z"/><path class="cls-4" d="M284.66,425.91c-1.52-1.21-2.41-3.21-4.13-4.11s-5-.9-7-1c-12.15-.51-21.88,7.84-20.57,20.47.41,4,8.23,11.16,11.55,13.49,2.29,1.61,4.4,1.08,7,1.35s5.44.71,8-.55c4.11-2,10.1-11,10.11-15.53,0-2.3-.54-2.94-1.08-5.06C287.47,430.69,288,428.55,284.66,425.91Z"/><path class="cls-5" d="M367.35,453.74s-20.66-3.35-31,1.95c-4,2-7.55,6.73-6.54,11.44,1.17,5.51,8.06,7.37,12.68,8.65,4.17,1.16,7.65,1,11.82,1.39,1.84.17,3.57,1,5.4,1.28a37.74,37.74,0,0,0,15.14-.86c4.1-1.25,4.48-4.52,5.11-8.23.13-.73.64-4.25.38-5.15-.65-2.26-7-10.31-9.33-10.54A23.85,23.85,0,0,0,367.35,453.74Z"/><path class="cls-4" d="M291.25,385.89c-2.7-4.44-8.55-7.09-13.56-8-2.1-.4-4.26.29-6.39.25-2.37,0-4.67-.86-7-1-2.9-.14-5.37,1.2-8.12,1.84-3.62.85-8.26,1.81-9.86,5.81-1.68,4.22,3.13,7.37,2.55,10.45s-4.16,3.27-3.36,7c.75,3.5,4.49,6,7,8.13,1.36,1.18,2.44,2.82,4.09,3.56,2.27,1,3.12,0,5.3-.18,2.67-.27,5.6.47,8.22-.38,3.51-1.14,9.12-4.95,11-8.27,1.31-2.35,1.18-5.41,2.39-7.85a12,12,0,0,1,3.22-3.71c2.14-1.45,5-1.82,6.29-4.46.35-.73.95-1.82.39-2.41S291.75,386.71,291.25,385.89Z"/><path class="cls-4" d="M371.68,423.41c-2-1.54-3-3.38-5.1-4.78-2.88-1.92-13.08-6.08-16.41-4.37a20.4,20.4,0,0,0-4.25,4.87c-1.69,4.05,3.56,8.72,4,12.73.33,3.13-.27,7.61,1.63,10.33,7,10.07,23.16,9.18,30.24.3,1.72-2.16,1.91-2.19,2.23-4.91.57-5-2.84-8.3-6.28-11.29-.27-.25-3.58-3.24-4.06-3.21C372.8,423.14,372.57,424.11,371.68,423.41Z"/><path class="cls-4" d="M260.42,461c-4.58-2.43-8.18-4.75-11.88-.92-3.83,4,.54,6.1-.08,9.53-.43,2.45-4,3.94-5.06,6.21-5.25,11.6,4.82,21.55,15.82,22.36,8.13.6,16.35-2,15.68-11.7-.12-1.77-1.62-3.24-1.81-5-.37-3.65,4-6.35,3.73-9.78C276.48,466.79,265,463.42,260.42,461Z"/><path class="cls-4" d="M336.81,475.81c-9.07.19-16.45,12.57-8.74,19.28,2.6,2.28,13.3,2.45,16.77,1.6s5.21-3.56,9.28-3.57c3.68,0,7.68,1.78,11.19.14,2.59-1.2,6.59-4.67,7.54-7.47,1.39-4.1-3.82-7-7-8.13a57.3,57.3,0,0,0-10.82-2.92c-2.55-.37-5.13.42-7.69.16-1.66-.17-6.26-2.49-7.8-1.66C338.2,474,337.57,475.79,336.81,475.81Z"/><path class="cls-6" d="M436.31,511c-8.65-4.41-14.36-2.55-21.94,3.35-4.05,3.15-6.77,8.08-2,12.16,5.61,4.82,19.93,2.58,25.68-1.31,4.15-2.8,4.63-7.69,1.27-11.64A12.23,12.23,0,0,0,436.31,511Z"/><path class="cls-6" d="M442.3,533.78a8.3,8.3,0,0,0-3.55-3.82c-3.65-2.21-9.51,2.41-12.11,4.59-1.49,1.24-4.3,2.66-3,5.36,2.81,6,14.48,6.62,18.19,1.54C444.26,538.1,443.19,536.06,442.3,533.78Z"/><path class="cls-6" d="M414.21,535.61c-2.07-1.08-5.91-2.51-8.43-.81a5.33,5.33,0,0,0,.25,9c3.39,2.13,9,1.43,10.73-2.55a3.42,3.42,0,0,0,.23-2.93A7.72,7.72,0,0,0,414.21,535.61Z"/><path class="cls-2" d="M548.3,478.23s91.39-115.12,261-127.83,195.63,22.41,129.81,80.6c0,0-32.27,40.37-74.68,60.06l-1.85.85q-2.71,1.23-5.29,2.31c-4,1.69-7.87,3.13-11.49,4.35-26.34,8.91-41.69,6.26-52.68,7.14-63,5.05-94.65,2.63-141.23,2.89S594.54,503,579,498.08s-28.1-8.6-28.1-8.6Z"/><path class="cls-3" d="M557.76,503.57s29.72-7.71,79.82-7.94,147.74,2.7,176.27,28.45-2.22,41.82-14.21,50.81S766,628,708.6,620.26s-33.09-5.35-43.81-6.51c0,0,5.65,9.71-6,15.73s-45.87,10.21-70.27-12.24-28.13-32.83-32.29-51.57S549.53,532.26,557.76,503.57Z"/><path class="cls-2" d="M767.47,482.64c-7.6.27-15.16,2.07-22.42,4-3.27.88-6.45,1.88-9.69,2.86-1.54.47-4.36,1.15-5.51,2.16-.42.37-.77,1.33-.31,1.64,2.05,1.39,3.21.87,6.59,1.18,1.36.13,2.64.67,4,.91,3.42.63,7,.71,10.43,1.29,3,.5,5.7.31,8.61,1.29,3.46,1.17,6.9,2.07,10.39,3.14,5.83,1.78,8.9,3.18,15.06,1.32,2-.61,3.8-.23,5.85-.31C795,502,799.51,501,804,501c2.66,0,8.91.88,11.22-.17,3.45-1.57-2.45-4.74-3.55-5.33A89.27,89.27,0,0,0,794,488.05c-2.26-.66-4.35-1.85-6.63-2.41s-4.5-.61-6.69-1.19a38.89,38.89,0,0,0-5.61-1.49A49.52,49.52,0,0,0,767.47,482.64Zm-115.29-2c-6.06.62-12,1.68-18,2.58-6.73,1-19.43,4.18-19.43,4.18s-25.64,6.69-25.55,7.39c.17,1.29,28.69,7.37,32.54,7.69,11.89,1,18.33-.12,33.94.39,2.38.07,31.41-.94,33.88-.7,4.39.42,11.07-3.29,15.47-2.74,1.61.2,7.38-3.29,8-3.9a1.64,1.64,0,0,0-.07-2,13.67,13.67,0,0,0-2.54-1.81,18.34,18.34,0,0,0-4.85-3.32c-1.74-.72-8-2-15.12-3.2-8.69-1.52-18.74-3.05-23.75-3.7C662.24,480.91,656.69,480.2,652.18,480.65Zm145.37-22.1a11,11,0,0,0-3.94.11c-2.61.78-2.2,5.27-3.66,7.67-.72,1.2-1.9,1.78-2.82,2.79-.67.72-.88,1.61-1.6,2.3s-1,.61-1.5,1.39c-.62,1.06-1.21,4.29-.59,5.4.74,1.35,3,1.53,4.32,1.89,1.06.28,2,.84,3,1.18a21.89,21.89,0,0,0,3.41.49,28.42,28.42,0,0,1,6.1,2.23c2.21,1,4,2.5,6,3.77,1.65,1,3.46,1.78,5.13,2.79,3.14,1.88,5.94,4.34,9.13,6.2,1.92,1.12,3.75,3,6.07,3.24,5.1.46,9.58-1.87,14.29-3.24a78.31,78.31,0,0,0,20.54-8.89c1.05-.67,5.17-2.16,5-3.87s-3-2.56-4.26-3.21c-2.23-1.11-4.39-2.65-6.73-3.52-1.48-.55-3.06-.83-4.49-1.53A211.57,211.57,0,0,0,829.8,467c-1.27-.46-2.34-1.27-3.59-1.74a100.44,100.44,0,0,0-13.39-4.43,98.64,98.64,0,0,0-11.19-1.77C800.51,459,799,458.71,797.55,458.55Zm-26.77-14.26c-2.29-.52-14.6,1-20.29,2-7.52,1.22-12.1,1.21-19.59,2.58-12.81,2.33-13.16,1.25-26,3.66-3.8.71-20.22,5.09-23.92,6.27-9.92,3.18-19.77,6.69-29.74,9.8-3,.92-5.77,1.28-8.71,2.37-9,3.33-20.24,3.87-29,8-.72.34-29.32,10.12-29.28,10.32.22,1.06,27.36-5,27.65-5.09,2.75-.5,5.53-.95,8.22-1.71a208.49,208.49,0,0,1,22.28-4.85c3.53-.59,7-1.56,10.6-1.67a205.55,205.55,0,0,1,27.64.7c5.34.54,10.42.57,15.69,2,6.91,1.86,13.65,5.61,20.15,8.58,2.37,1.08,5.24,2.94,7.91,3,3.23.11,4.66-2.09,7.36-3.28a124.56,124.56,0,0,1,24-7.94c5.83-1.25,11.72-1.4,17.61-2.1a14.37,14.37,0,0,1,3.93,0c.75.1,1.53.77,2.2.42,1.18-.6.93-2.5,1.5-3.69,1.09-2.28,1.9-4.84,3.38-6.91,2.4-3.33,5.27-5.31,5.27-9.86,0-3.76-4-6.89-7.15-8.16C778.85,447.22,774.64,445.18,770.78,444.29Zm46-12.93a24.55,24.55,0,0,0-6.93.1c-4.14.78-8.23,1.77-12.35,2.62-2,.42-9.83,2.92-11.81,3.35a27,27,0,0,0-7.78,2.89c-.37.21-2.1.88-2,1.46.07,1.14,4.28,2.06,5.09,2.27,2.83.75,9.24,2.66,11.22,4.71,1,1,2.2,4.83,2.75,5.16.71.42,2.31,0,3.11.1,1.89.26,3.83.56,5.71.87a133.86,133.86,0,0,1,24.06,6,233.76,233.76,0,0,1,23.29,9.9c1.9,1,4,1.34,5.92,2.34,2,1.08,4.31,1.85,6.31,3a22.06,22.06,0,0,0,3.73,1.95,16.07,16.07,0,0,0,3.32.28c5.48.71,10.25-3.06,14.78-5.82,2.91-1.78,5.67-2.59,8-5.13,1.45-1.59,4.93-2.89,4.85-5.54-.11-3.16-4.23-5.52-6.66-6.69,0,0-43.2-21.54-67.7-22.46A39.75,39.75,0,0,0,816.76,431.36Zm38.14-10.81c-1.83.19-2.43,2.57-3.9,3.56-1.9,1.27-5.13,1.87-7.32,2.4-3.43.85-8.82-1.28-9.87,2.2-.63,2.09,3.83,1.66,6.52,2.55,1.9.62,3.66,1.61,5.54,2.26,3.44,1.19,7,2.08,10.39,3.28,10.41,3.62,20.81,7.41,31.1,11.36,3.6,1.39,6.76,3.55,10.39,4.85,1,.37,2.79,1.25,4,1,1.94-.4,2.85-2.76,3.28-4.43.57-2.26-1.24-3.87-2.76-5.23-3.84-3.44-8.6-5.84-13-8.54A153.3,153.3,0,0,0,875,428.36c-2.62-1.26-5.5-1.95-8.06-3.38a63.31,63.31,0,0,0-8.33-3.45A8,8,0,0,0,854.9,420.55Zm-19-22.45c-4.64-.11-8.91.15-11.33.91-7.44,2.34,13.55,2.9,20,6.66,3.22,1.86,8.11,4,9.83,7.56.53,1.12-.45,2.66.17,3.73.31.52,8,2,9.17,2.48,5.7,2.29,11.65,4.51,17.08,7.35,4.75,2.48,9.2,5.59,14.19,7.6,3.07,1.24,6.05,2.54,9.07,3.84,2.75,1.18,5.91,1.29,8.78,2.06,3.63,1,6.94,2.23,10.63.66,1.94-.83,7.37-4.56,6.21-7.29-.56-1.3-4-2.53-5.12-3.21-5.92-3.73-11.44-8.38-17.82-11.36-8.7-4.06-17.73-7.36-26.56-11.09-5-2.11-9.56-4.74-14.82-6.27s-10.66-1.4-16-2.34A98.57,98.57,0,0,0,835.9,398.1Zm-81.71-.1c-5.23,0-10.46.25-15.62.38-3.2.08-6.36.14-9.17,1.19-9.62,3.58-17.92,10.15-27.23,14.43-8.89,4.08-18.15,7.17-27,11.12-11.82,5.25-23,11.7-34.69,17.15-11.37,5.3-20.57,14.37-31.72,20.08-9.47,4.85-18.59,10.63-27.65,16.18-1.38.85-8.75,4.62-8.82,6.13-.15,3.45,10.1-.51,11.47-.94,9-2.85,17.41-7.64,26.5-10.21,26.38-7.48,52.88-14.79,78.89-23.29,10.56-3.45,15.55-5.43,26.56-6.94,1.71-.23,14.64-2.12,16.35-2.3,5.8-.61,17-1.93,19.32-2.05,6.08-.34,12.15-1.36,18.23-1.89,4.9-.42,20-3.52,22.83-4.22,6.34-1.55,12.69-2.68,19-4.32,3.17-.82,6.38-.79,9.52-1.57a123.28,123.28,0,0,1,15.2-3.2c3.12-.36,2.84.23,5.86-.91,1.42-.54,7.57-2.38,7.95-3.56,1-3-2.71-6.36-4.71-7.88-4.5-3.39-9.58-4-15-5.22a43.22,43.22,0,0,0-5.82-1.29c-15.11-1.32-30-5.39-45.18-6.52-3.18-.24-6.26.51-9.45.21A150.21,150.21,0,0,0,754.19,398Zm124.17-15.83c-2.31.09-4.59.34-6.69.63-4.37.6-9.69-.43-13.8,1.36a6.66,6.66,0,0,0-2.48,2.3c-.57.76-.6,6.5,2.23,8.5.9.64,4.53,1.1,5.65,1.43,2.64.8,5.19,1.84,7.81,2.69s5.54,1,8.22,2c3.34,1.19,6.33,3.16,9.42,4.84s6.87,2.7,10.14,4.46,6.46,4.23,9.9,6a101.63,101.63,0,0,0,11.12,4.35c5,1.83,19,4.75,22.25-.8.31-.53,5.93-3,6-3.52,1.73-10.82-16.13-15.76-23.27-19.76-4.83-2.7-8.22-2.93-13.38-5-3-1.22-6.06-1.83-9.12-2.94-2.58-.92-14.14-5.54-17.29-6.13A30.38,30.38,0,0,0,878.36,382.17ZM732.43,370.53c-.83-.64-18,3.22-20.76,4.47-6.66,3-19.2,8.73-26,11.57-22.59,9.48-37.52,18.25-58,31.7-13.69,9-25.64,21.58-38.62,31.71-7.28,5.67-15.08,10.95-20.78,18.37-1.85,2.4-5.76,8.31-4.32,11.64,1.56,3.62,27.4-15.46,33.08-19.14,23.44-15.18,47.6-25.3,72.27-38.41,10-5.34,32.63-18,32.63-18s19.64-6.16,21.58-8.36C728.14,390.86,733.28,371.17,732.43,370.53ZM921,370a25.52,25.52,0,0,0-9.86,1c-2.1.77-3.32,2.59-5.27,3.6a26.58,26.58,0,0,1-7.18,2.09,60.91,60.91,0,0,1-6.38,1.25,10.8,10.8,0,0,1-2-.1c-.8-.09-2-1.1-2.37-.39s-1.57,1-.35,1.33c11,3.41,21.64,7.15,32.42,11,7.5,2.69,9.73,6.47,17,9.86,4.94,2.31,11.76,8.63,17.39,6.86,5-1.57,13.59-12.81,11.75-18.26-.7-2.06-3.65-4.54-5.19-5.82-6.67-5.53-13.83-7.41-22.07-9.34-2.65-.63-5-1.86-7.74-2.13C928,370.75,924.44,370.22,921,370Zm-119.12-1.71c-1.61.06-3.16.65-4.77.66a368.54,368.54,0,0,0-41.87,2.76c-5,.59-20.29.66-20.29.66s.14,7.1-1.22,9.31c-.86,1.39-3.18,5.19-3.07,8.16a10.49,10.49,0,0,0,2,5.38s5.09-.08,8-.37c6-.6,10.54-.07,16.56-.42a141.6,141.6,0,0,1,30.74,1c2.15.27,13.52,1.46,15.63,1.93,3.18.72,11.87,1.86,12.92,1.94,2.43.18,4.75-4.06,7.13-4.23a58.63,58.63,0,0,0,7.88-1.22c5.95-1.2,12-.17,17.92-.73,1.68-.16,4.15.65,3.66-1.95-.45-2.38-3.72-5-5.51-6.28a80.83,80.83,0,0,0-17-9.41c-4.6-1.83-9.21-5-14.05-6.13A61.35,61.35,0,0,0,801.84,368.33Zm36.33-15.83c-9.65.25-19.28,2.23-28.76,3.66-10.52,1.6-21.32,1-31.76,2.86-2.35.41-4.69.21-7,.53-7.73,1-15.3,2.79-22.91,4.39-2,.42-11.81,1.15-11.85,3.94,0,3.25,7.09,1.27,8.58,1,10-1.76,20.27-1.3,30.36-2.62A125.6,125.6,0,0,1,788,365c2.19,0,4.35.55,6.55.56s4.43-.53,6.66-.38c1.94.12,3.85.69,5.79.83,2.31.17,4.62-.48,6.93-.13a129.49,129.49,0,0,1,14.19,3c2.2.59,4.13,2,6.14,3,4.5,2.41,8,7.39,13.07,7.95s11-2.82,16.56-2.93a31.13,31.13,0,0,0,4.32.07c1.57-.21,3-.93,4.61-1.15,5.87-.8,12.12.11,18-.63,2.53-.31,16.48-.92,13.25-6.1-1.93-3.1-7.85-3.14-10.88-3.73-4.2-.82-7.59-3-11.57-4.32-2.66-.91-5.4-1.2-8.12-1.85-3.65-.86-6.89-2.66-10.46-3.62-3.09-.84-6.41-.66-9.52-1.36a55,55,0,0,0-5.72-1.26A66.26,66.26,0,0,0,838.17,352.5ZM886.38,350a108.69,108.69,0,0,0-21.75,2.16c-5.45,1.18,8.26,2.88,13.75,3.81a49.48,49.48,0,0,1,12,3.93c3,1.38,7.37.88,9.83,3,1.77,1.53,10.19,3.11,12.79,3.28s5.13,1,7.74,1.22,5.25-.26,8,.24c3.1.57,15.34,4.6,17.67,4.91,5.4.7,10.81,3.64,15.73,6.1a48.13,48.13,0,0,1,4.67,3.13c.55.38,2.29-2.46,2.75-2.95,1.89-2-3.2-6.65-4.15-7.6a64.06,64.06,0,0,0-19.8-13,82.5,82.5,0,0,0-24.33-5c-4.19-.25-8-2.05-12.13-2.34C901.59,350.38,893.9,349.92,886.38,350Zm-20.18-2.16c117.68-1,130.45,32.26,72.86,83.18,0,0-32.28,40.34-74.68,60-.62.29-1.23.6-1.84.88q-2.71,1.21-5.3,2.3c-4,1.69-7.86,3.13-11.47,4.35-26.34,8.91-41.69,6.27-52.68,7.15-63,5-94.67,2.63-141.26,2.89-13.4.08-23.84-.36-32.27-1.13-20.87-1.92-29.48-5.91-40.52-9.39-15.49-4.9-28.1-8.62-28.1-8.62l-2.65-11.22s91.39-115.14,260.94-127.84C830.43,348.82,849.38,348,866.2,347.83Z"/><path class="cls-3" d="M710.61,585.34a29.94,29.94,0,0,0-4.71.14c-4.55.48-8.15,3.55-3.94,7.95s13.15,6.79,19,6c5-.65,5.39-6.2,2.06-9.13A19.91,19.91,0,0,0,710.61,585.34Zm25.59-6.55a9.66,9.66,0,0,0-2.79,0c-1.81.28-3.91.78-5,2.27-.95,1.31-1,2.53-.1,4.53,1.77,3.88,9,6.57,12.76,4.95,5.07-2.17,2.21-9.75-2.16-11.09A18,18,0,0,0,736.2,578.79Zm8.09-16.66c-4-.09-7.86,1.29-11.68,5.23-2.49,2.56,1.42,4.5,4.74,6.86,5.24,3.74,18.91,6.41,24.58,2.06,5.22-4-.93-9-4.71-10.6C752.57,563.77,748.32,562.21,744.29,562.13ZM748,545.71c-3.41.17-6.19,1.07-6.45,3.9-.89,9.51,25.19,17,33.92,10.56,3-2.19,3.19-7.33.1-9.51-4.45-3.14-12.15-4.49-17.29-4.54C755.45,546.1,751.42,545.53,748,545.71ZM707.33,537c-.87-.13-2.55-.09-2.54.8,0,2.34,2,5.43,2.75,8.75.43,1.81.26,3.88,1.71,5.3,3.08,3,6.16,3,10,3.83,2.8.61,5.33,1.3,8.19,1.75,2.36.36,9.29,2.58,11-.35.79-1.34-3.31-5.3-2.89-8.06.57-3.81,4.21-3.55,7-4.63.75-.29,2.36-.9,1.68-2.2s-4.26-1.82-5.51-1.85c-6.31-.14-12.56-.61-18.86-.59a28.43,28.43,0,0,1-8.23-1C710.2,538.26,708.88,537.17,707.33,537ZM774,523.71c-4.15.13-8.39.88-11.85,1.18-2.8.25-5.71.05-8.4.84a49.42,49.42,0,0,0-12,5.16c-.81.5-1.41,2-.84,2.72,1.23,1.63,4.74,2.14,7.77,3.24s5.49,3,8.61,3.87c4.21,1.13,8.85,2.71,13.25,2.44,2.54-.15,5.1,0,7.6-.52,4.85-1.09,12.72-3.93,11.26-10.22a11.68,11.68,0,0,0-4.15-6.17C782.21,524.08,778.17,523.58,774,523.71Zm-74.5-9.94a1.66,1.66,0,0,0-1.74,1.12c-.27,1,1.13,2.89,1.36,3.8.49,1.91-.2,4-.49,6-.23,1.52-1.7,4.33-.63,5.72s5.83,3,7.6,3.38c5.4,1.19,11,1.59,16.32,3,3.06.83,7.82,2.06,10.91.77,2.72-1.13,2.76-3.69,3.21-6.1a11.62,11.62,0,0,1,3-5.06c4.79-4.54,12.27-5,18.4-6,1.26-.2,3.39-1.41,2.13-3-.73-.94-3.25-1.19-4.32-1.43a55.87,55.87,0,0,0-12.87-.84c-4.86.12-9.8-1-14.71-.94C718.25,514.33,708.94,515.6,699.52,513.77Zm-108.7-3.1c-5,.08-10.27,0-15.06,1.64-1.5.5.27.12-.27-.31s-1.61.26-2.37.52a11.59,11.59,0,0,0-7,6.73c-4.05,9-2.07,17.2-1,26.6.61,5.35,3.93,9.57,5.37,14.64,1.07,3.76,2.58,8.41,2.82,12.3.27,4.18,0,8.6,1.5,12.66C579,597.34,593.33,610.59,604.6,616c2.31,1.11,11.51,5,13.24,2.26.69-1.08-.08-4.78.49-5.16.78-.51,1.77.59,2.68.77,3.35.65,7.54.27,9.77-2.79,1.5-2.06,1.33-3.16,1.18-5.47-.05-.83-1-2.07-.28-2.51s1.34,1,2.09,1.36a8.68,8.68,0,0,0,2.34.66c2.8.39,6.45-.32,8.33-2.68,2.89-3.64-2.49-7.68.73-9.66.77-.47,1.83.09,2.72.21,4.82.62,9.22,2.38,14.19,1.22,3.38-.79,5.9-2.28,5-6.07-.25-1.07-2.33-3.25-.35-4.49.48-.3,5.07.39,5.65.28a21.07,21.07,0,0,0,7.88-4.26c2.74-2.51,2-4.5.1-7.28a32.43,32.43,0,0,0-2.16-2.79c-.53-.64-2.22-1.17-1.71-1.82s1.88.39,2.83.46c3.31.22,10.72-1.17,11.33-5.58.43-3.15-4.33-7.65-6.56-9.13a20.65,20.65,0,0,0-2.33-1.22c-.73-.36-2.7-.38-2.2-1,0,0,4,.94,5.75,1.12,5.84.62,15.29-2.26,16.29-9.31.91-6.5-9-9.7-13.43-12.06-2.58-1.39-2.52-1.12-5.4-1.57-.94-.14-3.12.47-2.79-.42s2,0,2.93.07,2.1.51,3.17.56c6.21.31,10.31-7.11,7.29-12.38-3.14-5.46-7.22-4-12.45-4.35-5-.36-9.78-1.11-14.81-1.26-6.26-.18-11.84,1.85-18,2.55-3.17.36-6.35-.43-9.52-.53-10-.29-20.07-1.22-30.08-1.67C602.63,511.76,596.81,510.58,590.82,510.67Zm46.75-15.06c50.1-.23,147.74,2.73,176.26,28.48s-2.2,41.8-14.18,50.8S766,628,708.59,620.28s-33.07-5.36-43.79-6.52c0,0,5.65,9.7-6,15.72s-45.88,10.22-70.28-12.24-28.12-32.82-32.28-51.56-6.66-33.44,1.57-62.12C557.78,503.56,587.47,495.84,637.57,495.61Z"/><path class="cls-4" d="M716.68,425.91c1.53-1.21,2.41-3.21,4.13-4.11s5-.9,7-1c12.15-.51,21.88,7.84,20.57,20.47-.41,4-8.23,11.16-11.55,13.49-2.29,1.61-4.4,1.08-7.05,1.35s-5.44.71-8-.55c-4.11-2-10.1-11-10.11-15.53,0-2.3.54-2.94,1.08-5.06C713.87,430.69,713.35,428.55,716.68,425.91Z"/><path class="cls-7" d="M634,453.74c11.09-2.7,20.67-3.35,31,1.95,4,2,7.54,6.73,6.54,11.44-1.18,5.51-8.06,7.37-12.69,8.65-4.17,1.16-7.65,1-11.82,1.39-1.84.17-3.57,1-5.4,1.28a37.74,37.74,0,0,1-15.14-.86c-4.1-1.25-4.48-4.52-5.11-8.23-.13-.73-.64-4.25-.38-5.15.65-2.26,7-10.31,9.33-10.54C631.86,453.53,633.2,453.94,634,453.74Z"/><path class="cls-4" d="M710.09,385.89c2.71-4.44,8.55-7.09,13.56-8,2.1-.4,4.26.29,6.4.25,2.36,0,4.66-.86,7-1,2.9-.14,5.37,1.2,8.12,1.84,3.62.85,8.26,1.81,9.86,5.81,1.68,4.22-3.13,7.37-2.55,10.45s4.16,3.27,3.36,7c-.75,3.5-4.49,6-7,8.13-1.36,1.18-2.44,2.82-4.09,3.56-2.26,1-3.12,0-5.3-.18-2.67-.27-5.6.47-8.22-.38-3.51-1.14-9.12-4.95-11-8.27-1.31-2.35-1.18-5.41-2.39-7.85a11.86,11.86,0,0,0-3.22-3.71c-2.14-1.45-5-1.82-6.29-4.46-.35-.73-.95-1.82-.38-2.41S709.59,386.71,710.09,385.89Z"/><path class="cls-4" d="M629.67,423.41c2-1.54,3-3.38,5.09-4.78,2.88-1.92,13.08-6.08,16.42-4.37a20.36,20.36,0,0,1,4.24,4.87c1.69,4.05-3.56,8.72-4,12.73-.33,3.13.28,7.61-1.62,10.33-7,10.07-23.17,9.18-30.25.3-1.72-2.16-1.91-2.19-2.22-4.91-.58-5,2.83-8.3,6.27-11.29.27-.25,3.58-3.24,4.06-3.21C628.54,423.14,628.78,424.11,629.67,423.41Z"/><path class="cls-4" d="M740.92,461c4.58-2.43,8.19-4.75,11.88-.92,3.83,4-.53,6.1.08,9.53.43,2.45,4,3.94,5.07,6.21,5.25,11.6-4.83,21.55-15.83,22.36-8.12.6-16.35-2-15.68-11.7.12-1.77,1.63-3.24,1.81-5,.38-3.65-4-6.35-3.72-9.78C724.86,466.79,736.39,463.42,740.92,461Z"/><path class="cls-4" d="M664.53,475.81c9.07.19,16.45,12.57,8.75,19.28-2.61,2.28-13.31,2.45-16.78,1.6s-5.21-3.56-9.28-3.57c-3.68,0-7.68,1.78-11.18.14-2.6-1.2-6.6-4.67-7.55-7.47-1.38-4.1,3.83-7,7-8.13a57.2,57.2,0,0,1,10.83-2.92c2.54-.37,5.12.42,7.68.16,1.66-.17,6.27-2.49,7.8-1.66C663.14,474,663.78,475.79,664.53,475.81Z"/><path class="cls-6" d="M565,511c8.65-4.41,14.36-2.55,22,3.35,4,3.15,6.76,8.08,2,12.16-5.61,4.82-19.93,2.58-25.68-1.31-4.15-2.8-4.63-7.69-1.26-11.64A12,12,0,0,1,565,511Z"/><path class="cls-6" d="M559,533.78a8.3,8.3,0,0,1,3.55-3.82c3.65-2.21,9.51,2.41,12.12,4.59,1.49,1.24,4.29,2.66,3,5.36-2.82,6-14.49,6.62-18.2,1.54C557.08,538.1,558.15,536.06,559,533.78Z"/><path class="cls-6" d="M587.13,535.61c2.07-1.08,5.91-2.51,8.43-.81a5.33,5.33,0,0,1-.25,9c-3.39,2.13-9,1.43-10.73-2.55a3.42,3.42,0,0,1-.23-2.93A7.72,7.72,0,0,1,587.13,535.61Z"/><path class="cls-8" d="M499,410.09a24.59,24.59,0,0,0-3.66.42,11.17,11.17,0,0,0-5.58.87c-.42.07-.87.17-1.29.21-5.87.59-10.25.88-15.48,3.11-8.59,3.65-12.83,3.44-18.3,11.78a10.21,10.21,0,0,0-1.67,2.86c-1.62,6.36,4.61,7.41,7.25,11.54.6.94,1.76,2.41,1,3.2s-4.26-1.85-6.49-2.44c-3.82-1-6.51,1-8.57,4.15-4.51,6.87-6.44,16.26-8.62,24-.74,2.67-3.35,7.79.49,9.76,5.45,2.8,4.83-5.63,5.13-8.08.62-5.17,1.39-9.85,5.54-13.46.86-.75,1.68-1.93,2.82-1.92,2.46,0,3.61,3.81,4,5.34,1.24,4.65,1.85,8.67,4.71,12.79,6.2,8.92,17.2,8.31,26.74,7.84,3.7-.18,6.8.05,9.73-.69,2.91.73,6,.52,9.69.69,9.54.47,20.54,1.08,26.74-7.84,2.26-3.26,5.64-18.1,8.68-18.13,6-.06,7.94,11.57,8.4,15.38.29,2.45-.33,10.88,5.12,8.08,3.84-2,1.24-7.09.49-9.76-2.18-7.76-4.11-17.15-8.61-24-2.06-3.14-4.79-5.16-8.61-4.15-2.23.59-4.84,4.09-6.45,2.44-1.86-1.9,9.64-9.06,8.19-14.74-2.53-9.91-26.51-17.66-35.42-17.75-.26,0-.57-.09-.83-.1A9.56,9.56,0,0,0,499,410.09Z"/><path class="cls-9" d="M559.26,498a3.5,3.5,0,0,1,2.89,1.22c1.81,2,1.14,6,1,9.35a65.24,65.24,0,0,0-9.7-3.91c-1.56-.47-4.29,1.11-4.88-.42-.28-.74,1.52-.57,2.17-1C552.48,501.9,556.11,498.21,559.26,498Zm-115,0c3.15.18,6.78,3.87,8.58,5.2.64.47,2.45.3,2.16,1s-1.7-.14-2.55-.07a12.18,12.18,0,0,0-2.37.49c-2.88.88-6.93,1.47-9.65,3-.12-3.29-.33-7.05.94-8.44A3.5,3.5,0,0,1,444.25,498Zm42-40c-3.28.56-5.61,4.82-7,7.25l-4.39,4.57c-.72-.34-1.37-1.15-2.17-1-3.91.5-8.88,3.74-12.62,5.29-1.84.77-3.87,1.11-5.61,2.1-1.4.79-2.33,2.25-3.69,3.1-2.21,1.37-5.07,1.77-7.08,3.45-1.82,1.53-2.93,3.9-4.74,5.51s-5.19,3.5-5.4,6.45c-.18,2.45,2.1,4.51,1.91,7.14-.26,3.61-1.84,7.68-.42,11.3-1.37,1.4-3,3.15-2.4,4.88.64,2,2.66,2.22,4.18,1.29.4-.25,2.86-3.46,3.28-3.9,2.39-2.53,5.22-3.55,8.47-4.54a12.41,12.41,0,0,1,4.71-.94c.84,0,2.38-.52,2.51.32s-6.29,3.08-7.05,3.45c-5,2.43-9.51,4.61-11.95,9.93-.33.71-1,1.45-.77,2.2.93,3.24,5.29.38,6.66-.42,2.29-1.34,10.31-7.41,13-4.5,1.45,1.56-.08,5.38-.11,7.15,0,.78.93,2,.21,2.3s-1.33-1.12-2.09-1.53a11,11,0,0,0-2.2-.77c-3.94-1.14-16.45-.37-17.43,4.92-.43,2.34,1.46,3,3.14,3.45,4.77,1.34,9.36-.23,14,2.26,2.4,1.3,2.18.92,3.14,3.45.29.78,1.48,2.13.69,2.41s-1.48-1.3-2.3-1.85a21.38,21.38,0,0,0-7.25-3.17c-2.71-.49-9.65.12-5.85,4.08,4.32,4.51,14.05,4.34,16.28,10.21,1.26,3.35,1.12,15-.25,18.31-1.23,3-3,5.53-3.9,8.68-4.33,14.53-3.29,29.79-3,44.69a55.4,55.4,0,0,1-.83,10.6c-.32,1.82-1.54,4.93-.84,6.79.64,1.68,2.22,2.82,3,4.43.69,1.44.18,3.3.94,4.71.41.76,1.64.79,2.09,1.53,2,3.32-1.42,8.34,2,12.73a34.41,34.41,0,0,0,8.05,6.86c.69.42,1.58.5,2.16,1.05,2.09,2,1.67,4.52,4.61,5.93,3.12,1.49,7-.39,7.7,3.76.9,5.33,1,10.79,2.3,16.07,1.95,7.77,4.95,15.11,7.6,22.63,1.33,3.77,2.91,11.86,8.16,12.23,7.4.54,5.3-10.78,4.91-14.92-.18-1.94,2.65-2.57,2.41,0-.39,4.14-2.48,15.46,4.92,14.92,5.25-.37,6.82-8.46,8.15-12.23,2.65-7.52,5.65-14.86,7.6-22.63,1.33-5.28-2.34-13.65-1.44-19,.7-4.15,4.58-2.27,7.71-3.77,2.93-1.4,2.52-4,4.6-5.92,3-2.83,7.53-4.46,10.21-7.92,3.21-4.13-.32-9,1.95-12.72.46-.74,1.72-.77,2.13-1.53.76-1.41.25-3.27.94-4.71.78-1.61,2.37-2.75,3-4.43,1.11-2.92-1.74-13.41-1.67-17.39.25-14.9,5-27.25.71-41.78-.94-3.15-2.67-5.72-3.91-8.68-1.74-4.16-1.85-14.07-.24-18.31,2.37-6.25,11.9-5.64,16.28-10.21,3.79-4-3.15-4.57-5.86-4.08a21.46,21.46,0,0,0-7.25,3.17c-.82.55-1.37,2.18-2.3,1.85-2-.72,3.25-5.54,3.83-5.86,3.48-1.88,18-1.1,17.12-5.71-1.09-5.87-13.34-6.1-17.43-4.92-1.56.45-2.79,2.93-4.29,2.3-.72-.3.22-1.52.21-2.3,0-1.77-1.55-5.59-.1-7.15,3.07-3.29,10.61,3.09,13,4.5,1.37.8,5.73,3.66,6.66.42,1.38-4.77-9.61-10.63-12.72-12.13-.74-.36-7.22-2.33-7-3.45.21-1.36,6.68.46,7.21.62,3.25,1,6,2,8.44,4.54.42.44,2.91,3.65,3.31,3.9,1.52.93,3.54.71,4.18-1.29s-.4-3.87-2.16-5.58c1-3.44-.42-7.22-.66-10.6-.19-2.63,2.1-4.69,1.92-7.14-.21-2.95-3.51-4.76-5.4-6.45s-2.92-4-4.75-5.51c-2-1.68-4.87-2.08-7.07-3.45a58.09,58.09,0,0,0-9.31-5.2c-4.29-1.78-10.54-6.28-14.78-4.25l-4.4-4.57c-1.42-2.43-3.76-6.69-7-7.25s-9.2,5.68-10.42,8.2a16.37,16.37,0,0,0-.8,2.92,15.54,15.54,0,0,0,.24-3.2c-.09-.93-2.2.85-2.61,0C502.61,463.77,488.77,457.59,486.26,458Z"/><path class="cls-10" d="M489.37,427.84c-1.72-8.52-9.56-16.92-18.15-19.31-12.29-3.43-27.45,7-28.43,19.77-.35,4.48,1.52,7.32,4.14,10.74,5.89,7.71,15.14,9.15,24.15,10,3.57.35,6.21,1.1,9.65-.48,4.64-2.13,10.43-6,9.79-11.8-.2-1.8-1.56-3.38-1.59-5.19C488.89,430,489.47,428.34,489.37,427.84Z"/><path class="cls-10" d="M523.72,413.16c-1.28-4.4-10.13,1.92-12,4-9.08,10-10.5,23.37,1.64,31.32a14.51,14.51,0,0,0,5.16,2.44,24.68,24.68,0,0,0,9.05-.64c5.13-1.51,15.06-9.43,16.36-14.63A23,23,0,0,0,541.19,418c-1.59-2.52-6.48-5.73-9.46-6.2-1.79-.29-3.3.54-5.06.25-2.7-.44-4.07-.7-6.79.06"/><path class="cls-10" d="M487.34,418.7c.09-2.8-.48-5.36.37-8.1s3.33-4.57,2.77-7.68c-1.23-7-9.92-6.31-14.46-3.25-6.41,4.32-7.82,11.7-4.89,18.53,1.13,2.63,3.91,5,6.95,4.86,2.12-.09,3.92-2.11,5.75-2.9S487.33,418.85,487.34,418.7Z"/><path class="cls-10" d="M508.29,418.52c-.29-3.71,5.1-8.45,4.11-12.33-.42-1.64-2.51-4.23-1.84-6,1.2-3.27,8.3-2.74,10.5-1.15,4.68,3.38,10.94,12.68,5.69,18.14-2.62,2.73-7.55,2.95-11,3.34S508.54,421.55,508.29,418.52Z"/><path class="cls-11" d="M457.41,605.29c-4.83,2.35-4.32,11.43.54,12.14,4,.59,10.87-3.38,15.27-3.86,11.79-1.27,23.66-1.25,35.25,1.46a95.5,95.5,0,0,1,11.9,3.24c5.38,2,10.39,5.14,16.3,5.14,2.64,0,7.51.22,8.74-3,.77-2-1.41-4.94-2.36-6.5-3.43-5.63-9.85-8.38-15.83-10.35-5.21-1.72-11.22-2-16.65-2.77-12.1-1.63-23.36-3.34-35.5-.76C470.53,601,463,602.59,457.41,605.29Z"/><path class="cls-11" d="M517.63,623.94c-5.39.59-10.68-1.79-16.12-1.93-2.48-.06-6.46.61-9,.66-3.85.08-7.6-1.38-11.45-.72-2.61.46-4.94,1.72-7.32,2.78-3.18,1.41-7,2.43-9.67,4.72a18.26,18.26,0,0,0-4.81,21.06c3.72,9.12,10.72,12.71,18.92,16.77,3.92,1.93,7.55,4.91,11.11,7.39,4.82,3.36,7,7.88,13.7,5.68,5.07-1.68,5.73-4.85,8.4-8.75,1.86-2.72,4.82-5,7.48-6.83,5.77-4,15.82-6.45,17.57-14.41,2.28-10.4-2.26-16.71-10.24-22.9C523.51,625.4,521.72,623.5,517.63,623.94Z"/><path class="cls-11" d="M497.63,546.39c-3.07,1.41-11.84,6.86-9.46,11.18,1.73,3.15,10.34-.2,13-.45s4.94,2.1,7.53,1.31c2.81-.85,3.05-4.46,2-6.74C508.8,547.55,501.77,544.48,497.63,546.39Z"/><path class="cls-12" d="M497.62,491c-1.27,6.47-1.2,13.37-1.32,20-.09,5.17.81,10.21.92,15.36.08,3.85-.67,8.59.21,12.34.83,3.54,4.84,2.75,6.27.07s.54-8.12.62-11c.12-4.72.61-9.42.78-14.11.14-4-1.17-7.78-1.21-11.72-.05-3.77-.09-7.82-1.89-11.31-.39-.76-.7-2.35-1.51-2.08A4.81,4.81,0,0,0,497.62,491Z"/><path class="cls-13" d="M466.54,562.44c1.79.55,3.1,2.11,4.76,3a26.38,26.38,0,0,0,6.68,2.78c4.16.93,7.91.78,12.09.76,6.21,0,12.46,1.14,18.66.1,7.46-1.25,13.75-3,20.38-6.58,1-.57,5-3.5,6.23-3.17,2.57.69,1.77,5.64,1.82,7.39.15,5.74-.55,10.73-5.34,14.52-2.73,2.15-6.06,2.86-9,4.63-10,6-22.54,7.61-34,6.35-4.46-.49-9.3-.71-13.25-3.15-4.24-2.61-5.58-6-8.5-9.64-1.77-2.23-3.3-3.54-4.1-6.44-.47-1.7-.55-3.5-1.07-5.2-.65-2.13-2.53-4.9-2.75-7.07a6.59,6.59,0,0,1,.51-2.09c.17-.69-.19-1.9.51-2.08s1,1.06,1.57,1.55c1.63,1.46,4.82,4.45,4.82,4.45S465.16,562,466.54,562.44Z"/><path class="cls-11" d="M485.4,520.25c-.79-1.46-.95-3.18-1.59-4.71-2.4-5.71-9.47-11-14.72-13.8a39.56,39.56,0,0,0-8.49-2.95c-.67-.19-1.48-1.12-2-.64s0,1.58.2,2.33c1.37,4.51,4.49,8.09,6.61,12.21,2.77,5.41,6.25,12.51,11.31,16.22C483.52,533.89,488.88,526.73,485.4,520.25Z"/><path class="cls-11" d="M516.75,522.91c5-6.38,13.52-11.6,20.65-14.2.76-.27,5.7-2.85,6.22-2.53,1.67,1-3,7.29-3.61,8.27-3.14,4.69-9.2,9.61-13.32,13.7-1.36,1.36-2.75,3.23-4.58,4-2.6,1.11-6.76-.14-8-2.87C513.28,527.48,515.08,525,516.75,522.91Z"/></g></svg>