<svg id="Layer_1" data-name="Layer 1" xmlns="http://www.w3.org/2000/svg" viewBox="0 0 1000 1000"><defs><style>.cls-1{isolation:isolate;}.cls-10,.cls-11,.cls-12,.cls-13,.cls-14,.cls-15,.cls-16,.cls-17,.cls-18,.cls-19,.cls-2,.cls-20,.cls-21,.cls-22,.cls-23,.cls-24,.cls-25,.cls-26,.cls-27,.cls-28,.cls-29,.cls-3,.cls-30,.cls-31,.cls-4,.cls-5,.cls-6,.cls-7,.cls-8,.cls-9{fill:#fff;}.cls-2{opacity:0.18;}.cls-3{opacity:0.19;}.cls-4{opacity:0.22;}.cls-5{opacity:0.25;}.cls-6{opacity:0.2;}.cls-7{opacity:0.24;}.cls-8{opacity:0.22;}.cls-9{opacity:0.41;}.cls-10{opacity:0.46;}.cls-12{opacity:0.55;}.cls-13{opacity:0.18;}.cls-14{opacity:0.45;}.cls-15{opacity:0.41;}.cls-16{opacity:0.53;}.cls-17{opacity:0.26;}.cls-18{opacity:0.34;}.cls-19{opacity:0.31;}.cls-20{opacity:0.52;}.cls-21{opacity:0.35;}.cls-22{opacity:0.27;}.cls-23{opacity:0.6;}.cls-24{opacity:0.39;}.cls-25{opacity:0.57;}.cls-26{opacity:0.43;}.cls-27{opacity:0.59;}.cls-28{opacity:0.38;}.cls-29{opacity:0.64;}.cls-30{opacity:0.36;}.cls-31{opacity:0.26;}</style></defs><g class="cls-1"><path class="cls-2" d="M145,253.29a148.54,148.54,0,0,0-34.3,3.22C25.12,275.57,54.34,359.23,74.41,398.72c0,0,1.77,36.84,11.1,56.76a154.3,154.3,0,0,0,21,33.25s3.07,19.74,13.14,34.95a.25.25,0,0,0,0,.07,43.57,43.57,0,0,0,10.52,11.44c18.74,13.5,29.06,16.93,54.56,16.09a299,299,0,0,0,62.4-8.6s0,0,0,0c9.56-2.3,19.26-5,29.57-8.17,4.9-1.52,10.09-3.18,15.3-4.89,13.39-4.39,28.74-9.68,45.29-15.33.93-.32,1.67-.55,2.61-.88,0,0,0,0,0,0h0l7.3-2.5c31.14-10.58,55.78-18,75.66-23.71,26.38-7.57,43.45-11.75,47.14-12.68,4.3-1.09,9.47.57,13.21,2-.22-2.25-.48-4.59-.72-7.2,0,0,1.55,0,0-.15-.07-.82-.13-1.41-.22-2.27-1.63-2.39-2.62-5.39-1.82-11.13,0-.24.08-.45.11-.68v0c.06-.44.16-.82.23-1.25.64-4.25,1.36-8.35,2.19-12.23l.35-1.52c1.28-5.75,2.77-10.93,4.31-15.6L478,418.49s-6.65-11-75.2-61.49C342.82,312.81,229.67,254.42,145,253.29Z"/><path class="cls-3" d="M454.65,485.66a296.59,296.59,0,0,0-30.37,1.4c-.1.08-.06.26-.19.3.13,0,.05-.22.15-.3l-1,.08-.15,0c-3.7.36-7.53.83-11.48,1.37,0,0-.07,0-.11,0-7.22,1.68-15.81,3.1-24.46,4.39h0s0,0,0,0h0c-6,1.31-12.13,2.72-18.56,4.5,5.06-.58,9.24-1.2,13.6-1.81-4.15.56-7.91,1.15-12.58,1.7l-.22,0-.87.11h0c-7.6,2.12-15.36,4.46-23.48,7.35-48.91,17.38-70.37,24.19-97.5,37.82,0,0,0,0,0,0-13.49,6.78-28.28,15.12-48.76,27.53-61.7,37.38-79.71,66.62-49.42,112.95,4,6.11,24.69,21.09,24.69,21.09l19.16,12.16a121,121,0,0,0,16.43,17.15c.37.3.73.54,1.1.83a42.78,42.78,0,0,0,5.19,3.75c10.49,5.82,32.86,11.21,32.86,11.21s9.2,6.83,20.34,13.86c12.49,7.88,30.54,11.14,41.16,10.56,19.94-1.09,36.57,3.79,58.57-10.83,4.53-3,9.13-5.8,13.78-8.52.91-.53,1.82-1,2.73-1.55,25.43-14.66,51.36-27,66.68-51.91,22.5-36.62,36.84-84.42,42.22-104.13-1-9.22-2-20-3.3-32l0-.3c-.06-.5-.06-.83-.12-1.33v0c-.06-.6-.13-1.08-.19-1.59,0,0,0,0,0,0,0-.23,0-.45-.07-.72A217.19,217.19,0,0,1,489,529.58c0-.28,0-.59,0-.87,0,0,.1-1.15.11-1.59.12-3.88.27-7.58.5-11.13,0-.29,0-.62,0-.91l0-1.14c.07-1.47.13-3.05.23-4.39.54-7.42-2.67-14.14-2.58-20.18a13.09,13.09,0,0,1-.79-1.48A283.8,283.8,0,0,0,454.65,485.66Z"/><path class="cls-4" d="M856.47,248.8c-84.67,1.14-197.79,59.53-257.78,103.71C530.14,403,523.45,414,523.45,414L512,420.93c.32,1.19.63,2.24,1,3.49a58.17,58.17,0,0,1,3.74,10.64c.11.41.24.79.35,1.21s.17.65.26,1a2.76,2.76,0,0,0,.08.27A81.28,81.28,0,0,1,519,448.73c0,.32.13.61.16.94s0,.71,0,1.06a.48.48,0,0,1,0,.12c.11,1.67.31,3.33.31,5,0,2.36-.06,5-.15,7.69,0,.36,0,.66,0,1-.4,0,0,.19,0,.19,0,.31-.06.61-.08.91-.1,2-.21,4-.37,6,3.78-1.36,8.56-2.69,12.45-1.7,3.61.91,20.3,5,45.78,12.3l1.1.3h.15c3.57,1,8.19,2.49,12.08,3.64,17.78,5.24,38.1,11.45,63.69,20.14,2.64.9,4.56,1.58,7,2.43l.34.11h0c.9.31,1.61.53,2.5.83h0l2.92,1c13.77,4.71,26.47,9,38,12.87,0,0,0,0,.07,0,1.31.43,3,1,4.24,1.44,1.86.61,3.62,1.14,5.46,1.74,0,0,0,0,.07,0,3.31,1.07,6.67,2.17,9.81,3.14,10.34,3.2,20.07,5.87,29.65,8.18a299.24,299.24,0,0,0,62.36,8.6c25.5.83,35.83-2.6,54.56-16.1a42.19,42.19,0,0,0,9.73-10.41c.25-.36.56-.66.8-1l0-.08c.17-.25.29-.54.46-.79,9.67-15.09,12.68-34.19,12.68-34.19a163.73,163.73,0,0,0,10.57-14.58,1,1,0,0,0,.79-.76c0-.13,0-.25-.07-.38A151,151,0,0,0,916,451a76.47,76.47,0,0,0,3.74-10.34c.15-.48.28-1,.42-1.48,5.65-19.95,6.93-44.94,6.93-44.94,13.71-27,31.6-74.5,14.39-108-.24-.45-.47-.91-.72-1.36-8.2-14.94-23.59-27-49.94-32.83A149.24,149.24,0,0,0,856.47,248.8Z"/><path class="cls-5" d="M790.3,287.61c-68,1-158.86,50.84-207,88.58-55.06,43.13-60.43,52.52-60.43,52.52l-9.18,5.92c.26,1,.51,1.9.76,3a52.06,52.06,0,0,1,3,9.09c.09.36.19.68.27,1s.15.56.22.84l.06.22a74.76,74.76,0,0,1,1.31,9.58c0,.28.1.52.12.8s0,.61,0,.91v.1c.09,1.43.24,2.84.24,4.3,0,2,0,4.28-.12,6.56,0,.31,0,.57,0,.88-.32,0,0,.16,0,.16,0,.26,0,.51-.06.77-.08,1.72-.18,3.41-.31,5.15,3-1.17,6.89-2.3,10-1.46,2.9.78,16.3,4.29,36.77,10.51l.88.26h.12c2.87.87,6.57,2.12,9.7,3.1,14.28,4.48,30.6,9.78,51.15,17.21l5.66,2.07.27.09h0c.72.27,1.29.46,2,.72h0l2.34.84c11.06,4,21.26,7.72,30.53,11l.06,0c1.05.38,2.4.88,3.41,1.23,1.49.52,2.9,1,4.38,1.49l.06,0c2.66.92,5.36,1.86,7.88,2.69,8.3,2.73,16.11,5,23.81,7a226.33,226.33,0,0,0,50.08,7.34c20.48.72,28.78-2.21,43.83-13.74a35.42,35.42,0,0,0,7.81-8.89c.2-.31.45-.57.64-.88l0-.06c.14-.22.23-.46.36-.68,7.77-12.89,10.19-29.2,10.19-29.2a139.51,139.51,0,0,0,8.49-12.45.82.82,0,0,0,.64-.65.68.68,0,0,0-.07-.32,131.33,131.33,0,0,0,7.85-14.94,68.53,68.53,0,0,0,3-8.83c.12-.42.22-.85.34-1.26C846,433.17,847,411.83,847,411.83c11-23,25.38-63.63,11.56-92.26-.19-.39-.38-.78-.58-1.17-6.59-12.76-19-23-40.11-28A113.39,113.39,0,0,0,790.3,287.61Z"/><path class="cls-6" d="M211.44,286.22c68,1,158.86,50.84,207,88.58,55.06,43.13,60.42,52.52,60.42,52.52l9.19,5.91c-.26,1-.51,1.91-.76,3a51.78,51.78,0,0,0-3,9.09c-.09.35-.19.67-.28,1s-.14.56-.21.84l-.06.23a74.6,74.6,0,0,0-1.31,9.57c0,.28-.1.53-.12.81s0,.61,0,.91v.09c-.09,1.43-.24,2.85-.24,4.3,0,2,0,4.28.12,6.57,0,.3,0,.57,0,.87.32,0,0,.16,0,.16,0,.26.05.52.06.78.08,1.71.17,3.41.3,5.14-3-1.16-6.88-2.29-10-1.45-2.9.78-16.3,4.29-36.77,10.51l-.88.26h-.12c-2.87.87-6.58,2.12-9.7,3.1-14.28,4.47-30.61,9.78-51.15,17.2l-5.66,2.07-.27.1h0l-2,.71h0l-2.34.84c-11.06,4-21.26,7.73-30.53,11l-.06,0c-1.05.37-2.4.88-3.41,1.23-1.49.52-2.9,1-4.38,1.49l-.06,0c-2.66.92-5.36,1.86-7.88,2.68-8.3,2.74-16.12,5-23.81,7a226.92,226.92,0,0,1-50.08,7.34c-20.49.72-28.78-2.21-43.83-13.74a35.47,35.47,0,0,1-7.81-8.9c-.2-.3-.45-.56-.64-.87l0-.06c-.14-.22-.23-.46-.37-.68-7.76-12.89-10.18-29.21-10.18-29.21a137.67,137.67,0,0,1-8.49-12.45.82.82,0,0,1-.64-.64.92.92,0,0,1,.06-.33,131.3,131.3,0,0,1-7.84-14.94,66.54,66.54,0,0,1-3-8.83c-.12-.41-.22-.84-.34-1.26-4.54-17-5.56-38.38-5.56-38.38-11-23-25.38-63.63-11.56-92.27.19-.39.38-.78.58-1.16,6.58-12.77,18.95-23,40.11-28A112.41,112.41,0,0,1,211.44,286.22Z"/><path class="cls-7" d="M547.44,483.89a268.81,268.81,0,0,0-29.5,2c-.69,3.46-1.53,6.5-2.69,8.37a43.4,43.4,0,0,1-.94,8c-.06.31-.06.75-.12,1.06s-.1.74-.15,1c-.41,2.21-.8,4.79-1.14,8,0,.38-.19,1.71-.22,2-.08.66-.18,1.27-.23,2.12-.18,3.21-.55,10.35-.57,10.72-.51,9.08-1.06,18.62-1.28,24.38-.09,2.26-.18,4.15-.27,6.18,0,0,0,0,0,0,0,.57-.05,1.14-.08,1.74v0c0,.4,0,.75,0,1.14s0,.39,0,.64c-.53,13.69-1.06,25.64-1.78,35,1.74,6.28,4.27,14.89,7.53,24.81,7.6,23.11,19.22,53.37,34.42,78.1,15.33,25,41.26,37.31,66.72,52l2.69,1.55c4.63,2.72,9.23,5.48,13.74,8.49,22,14.62,38.64,9.7,58.58,10.79,10.62.58,28.66-2.68,41.16-10.57,11.13-7,20.33-13.82,20.33-13.82s22.37-5.42,32.87-11.24a43.49,43.49,0,0,0,5.18-3.75c.38-.3.77-.53,1.14-.83a122.25,122.25,0,0,0,16.43-17.12l19.12-12.19s20.74-15,24.73-21.09c30.29-46.33,12.25-75.53-49.45-112.91-20.48-12.41-35.25-20.75-48.73-27.53-27.15-13.65-48.64-20.48-97.58-37.87-8.42-3-16.48-5.43-24.35-7.61-1.86-.22-3.43-.45-5.18-.68,1.71.22,3.25.43,5.07.65-6.13-1.69-11.92-2.95-17.68-4.21h0l0,0h0c-8.43-1.27-16.87-2.62-23.93-4.25l-.22,0-.12,0-.15,0-.15,0-.15,0c-3.92-.54-7.71-1-11.4-1.41-.39,0-.75,0-1.13-.07A293.27,293.27,0,0,0,547.44,483.89Z"/><path class="cls-8" d="M536.06,486.27a155.88,155.88,0,0,0-20.8,1.7,26.59,26.59,0,0,1-1.89,7.06,43.06,43.06,0,0,1-.67,6.74c0,.27,0,.63-.08.9s-.07.62-.11.86c-.29,1.86-.56,4-.8,6.74,0,.33-.14,1.45-.16,1.67-.05.56-.12,1.07-.16,1.79-.12,2.71-.38,8.73-.4,9-.36,7.67-.75,15.72-.91,20.59-.06,1.9-.12,3.5-.18,5.21,0,0,0,0,0,0,0,.48,0,1-.06,1.47v0c0,.33,0,.63,0,1s0,.33,0,.54c-.37,11.55-.74,21.64-1.25,29.54,4.09,17.65,14.26,57,29.58,86.87,10.8,21.06,29.09,31.49,47,43.88l1.9,1.31c3.27,2.29,6.51,4.63,9.69,7.16,15.51,12.35,27.24,8.19,41.3,9.11,7.48.49,20.21-2.26,29-8.92,7.85-5.93,14.33-11.66,14.33-11.66s15.77-4.58,23.17-9.49a32.46,32.46,0,0,0,3.66-3.17c.27-.25.54-.44.8-.7a97.36,97.36,0,0,0,11.59-14.45l13.48-10.29s14.62-12.65,17.43-17.8c21.36-39.11,8.64-63.76-34.86-95.32-14.44-10.47-24.85-17.51-34.36-23.23-19.14-11.52-34.29-17.29-68.8-32-5.94-2.53-11.62-4.59-17.16-6.43-1.32-.18-2.42-.38-3.66-.57,1.21.18,2.29.36,3.58.54-4.32-1.43-8.4-2.49-12.47-3.55h0s0,0,0,0h0c-6-1.06-11.9-2.21-16.87-3.58l-.16,0-.08,0-.11,0-.1,0-.11,0c-2.77-.45-5.44-.88-8-1.18l-.8-.07A174.61,174.61,0,0,0,536.06,486.27Z"/><path class="cls-8" d="M464.76,482.7a155.88,155.88,0,0,1,20.8,1.7,27,27,0,0,0,1.89,7.06,43.06,43.06,0,0,0,.67,6.74c0,.27,0,.63.08.9s.07.62.11.86c.29,1.86.56,4,.8,6.75,0,.32.14,1.44.16,1.66.05.56.13,1.07.16,1.79.12,2.71.38,8.73.4,9,.36,7.67.75,15.72.91,20.59.06,1.9.12,3.5.18,5.21,0,0,0,0,0,0,0,.48,0,1,.06,1.47v0c0,.34,0,.63,0,1s0,.33,0,.54c.37,11.55.75,21.64,1.25,29.54-4.09,17.66-14.26,57-29.57,86.87-10.81,21.06-29.09,31.49-47,43.88l-1.9,1.31c-3.27,2.29-6.51,4.63-9.69,7.16-15.51,12.35-27.24,8.19-41.3,9.11-7.48.49-20.21-2.26-29-8.91-7.85-5.93-14.33-11.67-14.33-11.67s-15.77-4.58-23.17-9.49a31.34,31.34,0,0,1-3.66-3.17c-.27-.25-.54-.44-.8-.7a97.36,97.36,0,0,1-11.59-14.45l-13.48-10.29s-14.62-12.65-17.43-17.8c-21.36-39.11-8.64-63.76,34.86-95.31,14.44-10.48,24.85-17.52,34.36-23.24,19.14-11.52,34.29-17.29,68.8-32,5.94-2.53,11.62-4.59,17.16-6.43,1.32-.18,2.43-.38,3.66-.57-1.21.18-2.29.36-3.58.54C408.89,491,413,490,417,488.9h0s0,0,0,0h0c5.95-1.06,11.9-2.2,16.87-3.58l.16,0,.08,0,.11,0,.1,0,.11,0c2.77-.45,5.44-.88,8-1.18l.8-.06A172.81,172.81,0,0,1,464.76,482.7Z"/><path class="cls-9" d="M150,255.9h.07c1.37.1,2.92.29,4.28.45,2.8.35,5.61.8,8.37,1.37a224,224,0,0,1,24.5,6.93c11,3.55,21.94,7,32.75,11.05,9.65,3.59,19.11,7.61,28.63,11.51,13.34,5.48,26.62,11.13,39.53,17.57a840.51,840.51,0,0,1,88.49,51.08c10.89,7.21,21.67,14.61,32.11,22.45,5.22,3.93,10.32,8,15.37,12.16,9.17,7.52,18,15.43,26.84,23.32,4.89,4.36,9.76,8.73,14.66,13.07,1.55,1.37,3.18,2.65,4.77,4s3.28,2.83,5,4.17c1.54,1.21,3.1,2.4,4.65,3.59,0,0-.05,0-.07,0a1,1,0,0,1-.72-.15c-1.3-.85-2.63-1.64-3.94-2.46l-1.93-1.06L468.09,432c-1.06-.59-2.13-1.16-3.18-1.75q-25.07-13.85-50.1-27.71l-.23-.12q-95.1-52.65-190.19-105.33-28.53-15.81-57.06-31.62l-14.8-8.18-2.12-1.17Zm-4.24-2.31a1,1,0,0,0-.87.57h0s0,0,0,0a.79.79,0,0,0,.38,1.28s0,0,0,0c2.11,1.17,1.4.57,2.12,1.17a12.5,12.5,0,0,0,2.12,1.18l2.12,1.17L160,263.7q14.8,8.19,29.57,16.39l95.12,52.67Q329.1,357.35,373.46,382c4.91,2.72,9.83,5.42,14.73,8.14l26.47,14.65c2,1.12,4,2.26,6.06,3.37L449,423.75l16.62,9.2,8.52,4.7c1.15.64,2.26,1.29,3.41,1.93l1.74.95,1.7.94a4.09,4.09,0,0,0,2,.8s.07,0,.11,0c.05-.22.07-.47.11-.68l.35-1.52c.08-.36.18-.62.26-1a8.68,8.68,0,0,0-.91-.8l-1.25-1c-1.25-1-2.53-1.94-3.78-2.92-3.27-2.53-6.49-5.09-9.58-7.83-16-14.19-31.69-28.81-48.43-42.15C401.76,370,382.52,356.93,363,344.58q-27.25-17.22-55.78-32.3c-9-4.75-18-9.44-27.15-13.78-10.05-4.77-20.38-9-30.67-13.18-6.69-2.75-13.33-5.6-20.07-8.25-12.26-4.84-24.75-9-37.29-13-7.52-2.42-15-4.93-22.68-6.89A114.35,114.35,0,0,0,152.41,254l-2.19-.19C149.47,253.8,150.22,253.82,145.75,253.59Z"/><path class="cls-10" d="M67.52,289.26a35.58,35.58,0,0,0-7,.07,1,1,0,0,0-.84,1.1,1,1,0,0,0,1.1.87c6-.73,12.16.49,18,1.67,7.18,1.46,14.28,3.41,21.35,5.34s14.28,3.64,21.4,5.56c10.42,2.82,20.82,5.81,31.27,8.52,4.67,1.22,9.36,2.31,14.05,3.45,4.29,1,8.56,2.07,12.83,3.18,7.28,1.88,14.52,4,21.78,6,13.76,3.71,27.55,7.31,41.12,11.7,8.8,2.85,17.49,6.08,26.2,9.2,6.62,2.37,13.26,4.69,19.88,7.05,30.57,10.88,61,22.3,90.72,35.29C401.7,398,423.4,409,445,420.15c4.93,2.56,9.85,5.19,14.8,7.69,4.19,2.12,8.46,4.09,12.57,6.36,2.35,1.3,4.58,2.77,6.82,4.24a1.08,1.08,0,0,0,1.48-.3,1,1,0,0,0-.31-1.44c-2.28-1.5-4.57-3-7-4.31-4.14-2.29-8.44-4.27-12.65-6.4-4.95-2.51-9.84-5.1-14.77-7.65-22.07-11.44-44.26-22.59-67.06-32.53C349.57,373,319.52,361.74,289.33,351c-6.62-2.35-13.26-4.63-19.88-7-8.73-3.12-17.41-6.39-26.24-9.24-13.6-4.39-27.47-8-41.27-11.7-7.27-1.95-14.49-4.1-21.77-6-4.64-1.2-9.29-2.33-13.94-3.45C151.4,310.07,136.73,306,122,302c-7.87-2.13-15.77-4.07-23.63-6.21s-15.85-4.28-23.93-5.64C72.16,289.74,69.85,289.44,67.52,289.26Z"/><path class="cls-11" d="M79.86,325.72a65.85,65.85,0,0,0-13,.76c-3.89.68-7.54,2.18-11.28,3.37a1,1,0,1,0,.6,1.89c3.66-1.16,7.22-2.63,11-3.29,8.44-1.48,17.21-.48,25.71-.19,4.36.15,8.7.06,13.06.23,6.12.23,12.23.72,18.33,1.17,13.32,1,26.65,1.94,40,2.69,6.19.34,12.41.31,18.6.79,4.58.36,9.15,1,13.7,1.63,7,.93,13.94,2,20.9,3,6.76,1,13.52,1.91,20.3,2.69,12.24,1.41,24.46,3,35.78,8.1a1,1,0,0,0,1.36-.49,1,1,0,0,0-.49-1.4c-12.23-5.55-25.27-7-38.47-8.48-6.07-.69-12.13-1.57-18.17-2.46-7-1-14-2.06-20.94-3-4.6-.61-9.2-1.27-13.82-1.63-6.2-.48-12.43-.42-18.63-.76-13.32-.73-26.64-1.68-39.95-2.65-6.13-.45-12.26-.95-18.4-1.17-4.37-.17-8.74-.09-13.1-.23S84.24,325.82,79.86,325.72Z"/><path class="cls-12" d="M93.5,394.71c11.25.42,22.51.5,33.77.8,5.3.13,10.51,1.11,15.79,1.47,5.13.35,10.28-.19,15.41.19,6.76.5,13.51,1.34,20.26,1.93,4.2.37,8.41.66,12.61,1.06,10.73,1,21.42,2.45,32.11,3.86,4,.54,8.06,1,12.07,1.63,4.78.74,9.42,2,14.2,2.69,5.28.74,10.61,1.22,15.91,1.86,11.24,1.35,22.49,2.84,33.66,4.69,14.54,2.41,28.9,5.76,43.43,8.22,7.2,1.21,14.42,2.22,21.62,3.44,12.75,2.18,25.47,4.6,38.05,7.58,6.93,1.64,13.74,3.76,20.6,5.64,4.85,1.33,9.73,2.48,14.62,3.63,6.81,1.61,13.42,3.91,20.33,5.12a146.91,146.91,0,0,1,16.24,4.27l1.78.53-1.4-.22c-1.59-.25-3.21-.52-4.81-.76l-9.54-1.44L398,441.36l-229.5-35.18q-35.86-5.49-71.75-11Zm-20.68-3.22a1,1,0,0,0-1.06.87s0,.05,0,.08a1,1,0,0,0,.87,1.06s0,0,.08,0a3.73,3.73,0,0,0,.45,0,2.24,2.24,0,0,1,1.06.16,5.63,5.63,0,0,0,1.59.26l3.19.49,8,1.21,30.3,4.62,117.94,18.1L342,434.81l60.55,9.28,35.06,5.37,20.75,3.18,11.13,1.71,6.4,1,3.44.53c.25,0,.85,0,1.37,0,0-.06,0-.09,0-.15,0-.24.08-.45.11-.68v0c.06-.44.16-.82.23-1.25s.1-.57.15-.87a9.48,9.48,0,0,0-2-.76l-2.19-.64a207.64,207.64,0,0,0-20.49-5.34c-5.61-1.08-11.05-2.92-16.58-4.32-4.4-1.11-8.83-2-13.22-3.18-7.42-2-14.78-4.25-22.23-6.13-9-2.28-18.1-4.06-27.22-5.76q-10.44-1.95-20.94-3.63c-6-1-12.08-1.81-18.1-2.92-6.84-1.26-13.65-2.7-20.48-4.05l-2.08-.42c-6-1.18-12.11-2.12-18.18-3.1-2.49-.4-5-.92-7.46-1.29-8.82-1.32-17.68-2.47-26.54-3.52-4.48-.53-9-.93-13.44-1.55-5.26-.73-10.38-2.18-15.64-2.92-14.24-2-28.55-3.93-42.86-5.3-4.21-.4-8.44-.69-12.65-1.06-7.19-.63-14.34-1.66-21.55-2-3.86-.18-7.76.14-11.62,0-5.27-.13-10.42-1.18-15.68-1.51-1.29-.09-2.6,0-3.9-.08-1.7,0-3.4-.1-5.11-.11s-3.36-.09-5-.12c-7.58-.14-15.18-.3-22.76-.56-4.54-.16-9.06-.41-13.59-.72l-2.27-.16C76.61,391.74,77.36,391.81,72.82,391.49Z"/><path class="cls-13" d="M131,327.92a1,1,0,0,0-.27,2.08c10.21,1.23,19.76,5.22,29.39,8.63,9.36,3.32,18.49,7.28,27.52,11.4,3.7,1.69,7.37,3.41,11,5.19,2.11,1,4.23,2,6.25,3.22,3.15,1.85,6.16,4.09,9.2,6.13,5.34,3.58,10.64,7.2,15.79,11.06,2.31,1.73,4.52,3.61,6.89,5.26,5,3.45,10.3,6.39,15.45,9.58,7.4,4.58,14.76,9.3,22.49,13.33a119.28,119.28,0,0,0,13.63,6.06c4.28,1.56,8.68,2.8,13.07,4,5.22,1.44,10.48,2.77,15.75,4.05a1,1,0,0,0,.45-1.89c-5.78-1.41-11.53-2.9-17.26-4.51-3.8-1.06-7.62-2.16-11.33-3.52a113.77,113.77,0,0,1-13.4-6c-7.68-4-15-8.69-22.34-13.25-5.11-3.18-10.39-6.11-15.33-9.55-2.76-1.91-5.37-4.1-8.07-6.09-5.2-3.85-10.53-7.49-15.9-11.1-2.66-1.78-5.27-3.71-8-5.34-2.34-1.38-4.82-2.56-7.27-3.74-3.38-1.64-6.8-3.25-10.22-4.81-9.38-4.28-18.84-8.33-28.55-11.78C150.46,333,141.07,329.13,131,327.92Z"/><path class="cls-11" d="M172.71,384.52c-5.53.24-11.07,1.21-16.55,1.9-7,.88-14,2-21,3.18-4.46.78-8.94,1.58-13.36,2.57a1.06,1.06,0,0,0-.8,1.25,1,1,0,0,0,1.25.76c4.91-1.1,9.89-1.95,14.85-2.8,6.43-1.12,12.83-2.1,19.31-2.92,5.43-.68,10.92-1.59,16.39-1.85,1.91-.09,3.85,0,5.76,0q5.07.09,10.14.22c4.32.11,8.64.16,12.95.34,5.86.25,11.72.66,17.57,1.1,11.49.86,23.07,1.65,34.42,3.67a1,1,0,0,0,1.18-.79,1,1,0,0,0-.8-1.14c-5.45-1-11-1.6-16.47-2.16-6.92-.69-13.85-1.23-20.79-1.74-5-.36-10-.73-15-.94-4.84-.21-9.67-.29-14.5-.42S177.52,384.32,172.71,384.52Z"/><path class="cls-11" d="M125.72,439.5c-14.85.11-29.72.1-44.19,3.87-.13,0-.09.22-.19.3-.31.24-.63.51-.53.91s.54.52,1,.57c.11,0,.15.18.26.15,1.15-.3,2.33-.43,3.49-.68,2.57-.57,5.16-1.19,7.76-1.56h0c11.34-1.59,22.86-1.5,34.34-1.59,19.3-.14,38.6.14,57.89.31L216,442c5.33,0,10.68,0,16,.19,13.92.48,27.83,1.44,41.73,2.35,16.35,1.07,32.68,2.22,49,3.71,12.4,1.13,24.82,1.9,37.18,3.48,1.65.21,3.3.47,5,.68,7.23.95,14.44,2,21.66,3q26,3.71,52,7.92c14.72,2.4,29.39,5.47,44.26,6.85,0-.32-.08-.91-.08-.91v-.15s-.08-.73-.11-1.06c-14.69-1.39-29.19-4.41-43.73-6.78q-23.7-3.85-47.49-7.27l-3.63-.49c-9.19-1.31-18.36-2.65-27.57-3.82-12.38-1.58-24.83-2.36-37.25-3.49-17.11-1.55-34.24-2.76-51.39-3.86-13.14-.84-26.33-1.71-39.49-2.16-6.08-.2-12.16-.13-18.25-.19l-28.25-.26C165.6,439.6,145.66,439.36,125.72,439.5Z"/><path class="cls-11" d="M325.64,450.94c-17-.16-34,.51-51,1l-17.46.57c-3.16.1-6.34.1-9.5.3-3.94.25-7.86.77-11.78,1.21-6.26.71-12.52,1.47-18.78,2.16s-12.69.93-19,1.59c-5.91.62-11.76,1.73-17.64,2.58-9.67,1.39-19.33,2.7-29,4.05-8.14,1.13-16.31,2.12-24.46,3.25-3.31.47-6.57,1.23-9.88,1.67-7,1-14.15,1.46-21.13,2.8a1,1,0,0,0-.83,1.21,1.07,1.07,0,0,0,1.25.84c6.94-1.34,14-1.86,21-2.8,3.31-.45,6.6-1.17,9.92-1.63,8.14-1.14,16.31-2.16,24.46-3.3,9.67-1.35,19.33-2.65,29-4,5.85-.85,11.69-1.92,17.57-2.54,6.32-.66,12.69-.92,19-1.62,6.81-.77,13.63-1.63,20.44-2.39,3.34-.37,6.68-.77,10-1,3.14-.2,6.28-.24,9.43-.34,6.46-.22,12.95-.41,19.42-.61,16.29-.5,32.59-1.13,48.88-1,8.79.07,17.58.5,26.36.87q19.52.82,39,1.85a1,1,0,0,0,1.06-.91,1,1,0,0,0-.95-1.06q-19.51-1-39-1.85C343.24,451.47,334.45,451,325.64,450.94Z"/><path class="cls-11" d="M85.62,442.76a1,1,0,0,0,0,2A281.73,281.73,0,0,1,118.07,447c9.21,1.13,18.35,2.64,27.53,4,17.72,2.58,35.49,4.59,52.93,8.79a1.08,1.08,0,0,0,1.29-.76,1.06,1.06,0,0,0-.8-1.25c-17.69-4.25-35.74-6.31-53.73-8.9C125.43,446,105.75,442.91,85.62,442.76Z"/><path class="cls-11" d="M423.52,485.47c-18.43,5.33-36,8.11-66.68,11.36l-6.93.72c-13.79,1.44-20,2.14-27.71,3.14-1.82.24-20.52,2.66-25.87,3.37-17.54,2.34-31.09,4.36-44.11,6.67-2.63.46-9.57,1.73-9.8,1.78-11,2-16,2.92-22.15,3.82a520.65,520.65,0,0,1-65.55,5.79c-3.28.06-5.92.19-11.85.57-.6,0-.84.09-1.17.12-6.74.42-10.51.57-14.62.49a70.16,70.16,0,0,1-7.65-.53,1,1,0,0,0-1.1.83,1,1,0,0,0,.88,1.1,73.17,73.17,0,0,0,7.83.57c4.18.08,8-.1,14.77-.53.33,0,9.67-.59,12.91-.65a522.94,522.94,0,0,0,65.81-5.83c6.22-.91,11.16-1.78,22.23-3.82.23-.05,7.18-1.32,9.8-1.78,13-2.3,26.49-4.29,44-6.63,5.34-.71,24.05-3.13,25.86-3.37,7.66-1,13.94-1.7,27.72-3.14l6.93-.72c30.74-3.26,48.45-6.06,67-11.44a1,1,0,0,0,.68-1.21A1,1,0,0,0,423.52,485.47Z"/><path class="cls-11" d="M146.69,669l-1.32-1.44-.11.11a.59.59,0,0,0-.08.16l-.08.18v.53l.46.61c.44.13.45.11.45.11a1.93,1.93,0,0,0,.34,0l.12,0c.07,0,.13-.12.19-.15Z"/><path class="cls-14" d="M489.63,513.94l-24.57,5.46-.12,0s-2.12.81-3.4,1.28a1.08,1.08,0,0,1,.49.65,1,1,0,0,0-.53-.65l-5.68,2.09c-1.5.55-3.59,1.27-5.19,1.85-6.29,2.28-12.76,4.62-20.45,7.31-21,7.34-44.07,15-68.08,22.6l-1.77.57c-6.92,2.19-13.52,4.36-20.64,6.55-19.09,5.87-42.15,16-68.35,29.57-11.94,6.21-24.39,13.09-37.22,20.49-21.18,12.22-42.33,25.3-62.62,38.47-7,4.53-13.29,8.72-19.09,12.61l-6.81,4.58.11,0,.15,0c.21,0,.23,0,.23,0l.42.15.49.6v.49a1.33,1.33,0,0,1-.19.35l-.12.11,6.82-4.54c5.79-3.89,12.1-8.08,19.08-12.61,20.27-13.15,41.37-26.19,62.52-38.4,12.8-7.39,25.23-14.25,37.14-20.44,26.1-13.56,49.05-23.64,68-29.46,3.59-1.11,6.87-2.19,10.41-3.3,3.77-1.17,7.38-2.34,11.09-3.52,24.38-7.73,47.84-15.46,69.11-22.91,9.64-3.37,18.21-6.44,25.63-9.16,2.6-.95,9-3.37,9.13-3.41L489.56,516c0-.29,0-.62,0-.91Z"/><path class="cls-11" d="M460.74,520.61a91.54,91.54,0,0,1-10.37,2c-4.94.62-9.9.86-14.85,1.4-4.27.46-8.51,1.63-12.83,1.59-8.6-.08-17.12-1.35-25.71-1.52-4.94-.09-9.9.19-14.84.19-5.68,0-11.37-.11-17,.19-5.36.29-10.63,1.08-16,1.37-4,.21-8,.15-12,.19-6.24.06-12.45.26-18.67.79-6.05.52-12.12.54-18.18,1-4.18.28-8.34.86-12.49,1.44-6.33.88-12.6,2.11-18.36,5a1,1,0,1,0,.87,1.74c5.57-2.76,11.63-3.88,17.75-4.73,4.11-.58,8.21-1.17,12.35-1.44,6.06-.41,12.15-.43,18.21-1s12.33-.7,18.52-.76c4,0,8.08,0,12.11-.19,5.35-.28,10.67-1.08,16-1.36,6.44-.34,12.91-.14,19.35-.15,4.12,0,8.22-.24,12.34-.15,8.6.17,17.14,1.43,25.75,1.51,4.41,0,8.74-1.12,13.1-1.59,5-.53,9.93-.77,14.88-1.4a91.49,91.49,0,0,0,10.64-2,1.05,1.05,0,1,0-.53-2Z"/><path class="cls-11" d="M488.34,504c-4.27,0-8.39.85-12.64,1.13-4.54.31-9.1.12-13.63.53-5.23.48-10.4,1.35-15.64,1.75-6.71.51-13.47.21-20.18.53-6,.28-12,.8-18,1.25-5,.37-10.09.64-15.14,1-22.46,1.51-44.82,3.9-67.36,3.11a1,1,0,1,0-.08,2c22.61.81,45.06-1.57,67.59-3.06,5-.34,10.09-.62,15.15-1,6-.44,12-.93,18-1.21,6.74-.31,13.49,0,20.22-.53,5.25-.39,10.43-1.26,15.68-1.74,4.51-.41,9-.23,13.55-.53,4.2-.28,8.31-1.1,12.53-1.1a1,1,0,0,0,1.06-1A1.06,1.06,0,0,0,488.34,504Z"/><path class="cls-11" d="M362,554.5a1.05,1.05,0,0,0-.8.15c-4.69,2.8-9.68,5-14.46,7.65-2.51,1.39-4.93,3-7.31,4.58-8,5.37-15.4,11.42-23,17.3-5.52,4.29-11.25,8.32-16.59,12.84a54.7,54.7,0,0,0-4.2,3.86c-.89.93-1.67,2-2.57,2.88-2.32,2.34-5,4.39-7.5,6.55C270.41,623.54,255,636.55,240,650c-10.4,9.35-20.8,18.7-31.42,27.79-2.22,1.89-4.7,3.4-6.9,5.3-2.87,2.49-5.6,5.2-8.4,7.76A88.73,88.73,0,0,1,177,703.23a1,1,0,0,0-.38,1.36,1,1,0,0,0,1.32.38,91.29,91.29,0,0,0,16.7-12.65c2.79-2.55,5.47-5.25,8.33-7.72,2.2-1.9,4.68-3.37,6.89-5.26,11-9.43,21.81-19.17,32.6-28.86,15-13.45,30.46-26.39,45.67-39.6,2.15-1.87,4.47-3.66,6.47-5.68.92-.93,1.68-2,2.58-2.92a49.1,49.1,0,0,1,4.09-3.67c5.31-4.5,11-8.5,16.51-12.76,7.54-5.85,14.94-11.89,22.87-17.23,2.33-1.57,4.69-3.14,7.15-4.5,4.8-2.67,9.79-4.88,14.5-7.69a1,1,0,0,0,.34-1.44A.94.94,0,0,0,362,554.5Z"/><path class="cls-11" d="M489,528.37c0-.44.06-.81.07-1.25-3.18,1.94-6.35,3.85-9.65,5.61-7.59,4-15.43,7.64-22.76,12.15-2.59,1.6-5.07,3.37-7.53,5.15-4,2.92-8.09,5.88-12,9-2.31,1.87-4.54,3.84-6.81,5.76-5.74,4.82-11.47,9.64-17.38,14.23-4.93,3.83-10.09,7.36-15.3,10.79s-10.5,6.78-16,9.74c-9.45,5.09-19.6,8.38-29.53,12.38-11.53,4.64-23.22,9.5-34.19,15.33-5,2.65-9.73,5.61-14.51,8.6-2.66,1.66-5.32,3.35-7.95,5.07-1.16.76-2.38,1.49-3.48,2.35a70.42,70.42,0,0,0-8.9,8.71c-1.49,1.65-3.1,3.22-4.54,4.92-3.24,3.79-6.18,7.8-9.28,11.7a28.5,28.5,0,0,1-2.31,2.73c-.6.58-1.21,1.16-1.86,1.7a18.94,18.94,0,0,0-2.68,2.46s0,0,0,0c-5.64,6.91-10.67,14.28-16.29,21.2-2,2.43-4,4.83-6,7.2-1.21,1.42-2.42,2.88-3.74,4.2-5.53,5.53-11.71,10.36-17.5,15.6-3.27,3-6.24,6.22-9.54,9.16-.19.17,0,.42,0,.65s-.23.54,0,.76a.93.93,0,0,0,1.14.07c.08,0,.16.06.23,0,3.3-2.95,6.3-6.23,9.58-9.2,5.81-5.26,12-10.08,17.57-15.64,1.56-1.56,3-3.28,4.43-5,1.85-2.17,3.69-4.37,5.49-6.59,5.62-6.92,10.61-14.32,16.24-21.24,1.25-1.54,3-2.6,4.39-4a30.1,30.1,0,0,0,2.5-2.92c3.09-3.88,6-7.89,9.24-11.66,1.43-1.68,3-3.25,4.51-4.89a69.51,69.51,0,0,1,8.63-8.44c1.33-1,2.83-1.93,4.24-2.84,2.67-1.73,5.36-3.39,8.07-5.07,4.39-2.74,8.78-5.49,13.36-7.92s9-4.44,13.56-6.47l3.25-1.44c1.65-.71,3.28-1.46,4.93-2.16,4.07-1.73,8.16-3.5,12.26-5.15,7.38-3,14.79-5.77,22-9,1.88-.83,3.77-1.61,5.6-2.54.7-.35,1.44-.58,2.13-1,5.53-3,10.88-6.35,16.13-9.8,3.43-2.27,6.72-4.75,10.07-7.16,1.95-1.41,4-2.68,5.9-4.16.21-.16.41-.34.61-.5,5.53-4.34,10.94-8.84,16.32-13.36,2.26-1.91,4.47-3.9,6.78-5.76,3.85-3.1,7.84-6,11.85-8.9,2.42-1.75,4.87-3.5,7.42-5.07,5.12-3.15,10.47-5.87,15.83-8.6l2.38-1.21c1.47-.75,2.94-1.49,4.4-2.27,2.93-1.56,5.75-3.29,8.59-5,0-.28,0-.59,0-.87C489,528.71,489.08,528.31,489,528.37Z"/><path class="cls-11" d="M294.74,603a26,26,0,0,0-6.55,7.73c-2.31,3.75-4.26,7.71-6.28,11.62S278,630.08,276.08,634c-1,1.95-2,3.88-2.84,5.87-1,2.36-1.71,4.89-2.54,7.31-1.21,3.54-2.5,7-3.63,10.6-.79,2.47-1.6,5-2.24,7.46-.36,1.42-.56,2.86-.87,4.28a51.06,51.06,0,0,1-1.55,5.57,1,1,0,0,0,.64,1.32,1,1,0,0,0,1.33-.64A55.26,55.26,0,0,0,266,670c.3-1.4.51-2.82.87-4.21.63-2.47,1.38-4.91,2.15-7.34,1.13-3.55,2.4-7,3.6-10.57.81-2.37,1.51-4.89,2.5-7.19,1.12-2.6,2.43-5.11,3.67-7.65,1.61-3.26,3.22-6.5,4.89-9.73,2.14-4.16,4.17-8.44,6.7-12.38a22.24,22.24,0,0,1,5.53-6.33,1,1,0,0,0,.23-1.36A1,1,0,0,0,294.74,603Z"/><path class="cls-11" d="M335.6,620a1,1,0,0,0-1.4.19c-2.46,3.18-4.89,6.35-7.23,9.62a68.2,68.2,0,0,0-4,6c-2,3.46-3.5,7.18-5.15,10.79-2.28,5-4.53,10.07-6.74,15.11-1.41,3.21-2.75,6.45-4.2,9.65-1.57,3.47-3.22,6.9-4.66,10.42-1.7,4.17-2.85,8.57-4.32,12.83-2,5.79-4.25,11.53-6.28,17.31a28.43,28.43,0,0,1-1.4,2.95c-.79,1.6-1.59,3.21-2.39,4.81-2.56,5.12-5.18,10.19-7.76,15.3-1.38,2.73-2.49,5.65-3.75,8.44-1.84,4.09-3.78,8.13-5.75,12.15-.88,1.79-1.32,3.71-2.28,5.46a1,1,0,0,0,.42,1.4,1,1,0,0,0,1.4-.42c1-1.78,1.43-3.72,2.31-5.53,2-4,3.94-8.08,5.8-12.19,1.21-2.7,2.43-5.85,3.71-8.37q3.89-7.65,7.72-15.33c.88-1.76,1.78-3.53,2.65-5.3a27.29,27.29,0,0,0,1.25-2.69c2-5.78,4.3-11.51,6.29-17.31,1.45-4.22,2.55-8.61,4.24-12.76,1.5-3.7,3.25-7.29,4.88-10.94s3.1-7.13,4.66-10.68q3.32-7.54,6.74-15.07c1.38-3,2.7-6.15,4.35-9.05a83.69,83.69,0,0,1,5.11-7.53c1.94-2.65,3.9-5.24,5.91-7.84A1,1,0,0,0,335.6,620Z"/><path class="cls-15" d="M379.64,601.11a1,1,0,0,0-.76.23c-2.25,1.89-4.45,3.81-6.55,5.86-3.63,3.56-7,7.37-10.68,10.91-3.28,3.18-6.64,6.25-9.84,9.5-5.38,5.46-10.5,11.17-15.42,17-6.15,7.35-12,15-17.49,22.83-3.34,4.75-6.54,9.6-9.81,14.39-1.86,2.74-3.75,5.4-5.86,8a74.33,74.33,0,0,0-5.87,7.39,1,1,0,0,0,1.66,1.06,73.34,73.34,0,0,1,5.76-7.16c2.15-2.6,4.08-5.35,6-8.14,3.27-4.79,6.43-9.61,9.77-14.35a331.64,331.64,0,0,1,21.13-27c4.37-5,8.9-9.89,13.63-14.57,3.07-3,6.29-5.92,9.35-9s6-6.34,9.13-9.39c2.06-2,4.23-3.86,6.43-5.72a1,1,0,0,0,.12-1.47A1,1,0,0,0,379.64,601.11Z"/><path class="cls-16" d="M414.43,577.9c-3,2.67-5.17,6.07-7.57,9.27q-4.58,6.12-9.12,12.27c-6.71,9.09-14.66,17.54-19.92,27.61a174.85,174.85,0,0,0-7.95,18.7c-1.87,4.89-3.83,9.81-5.27,14.84-.67,2.39-1.05,4.9-1.62,7.31-1.42,6-2.83,12-4.7,17.84-.73,2.28-1.81,4.52-2.73,6.74-1.74,4.25-3.52,8.48-5.22,12.76-3.22,8.07-6.25,16.2-9.5,24.27-1.11,2.73-2.12,5.55-3.37,8.21-2.52,5.33-5.57,10.43-8.37,15.6q-4.77,8.8-9.36,17.72a1,1,0,0,0,1.86,1c3.31-6.46,6.69-12.91,10.19-19.27,2.56-4.66,5.3-9.27,7.57-14.09,1.47-3.11,2.61-6.42,3.9-9.62,3.24-8,6.22-16.19,9.46-24.23,1.7-4.2,3.44-8.38,5.15-12.57.79-1.92,1.75-3.85,2.39-5.83,2-6.25,3.47-12.74,5-19.12.47-2,.79-4.1,1.36-6.1,1.51-5.29,3.56-10.46,5.53-15.6A167.41,167.41,0,0,1,379.6,628c3.58-6.85,8.51-12.89,13.29-18.93,2.51-3.17,4.94-6.4,7.34-9.65,3-4.1,6.1-8.14,9.13-12.23,2-2.71,3.83-5.51,6.36-7.77a1,1,0,0,0,.08-1.4A1,1,0,0,0,414.43,577.9Z"/><path class="cls-11" d="M490.31,561.62c-2,3-4.08,6-6.05,9.08-5.19,8-10.36,16.1-16.17,23.71-2.65,3.46-5.64,6.62-8.52,9.88-.71.8-1.4,1.61-2.08,2.42-.48.57-.9,1.17-1.37,1.74-3.78,4.65-7.34,9.48-11,14.2-5.93,7.62-12.06,15.11-17.22,23.29-4.09,6.47-7.59,13.35-11.17,20.11a168.93,168.93,0,0,0-8.33,16.85c-2.23,5.58-3.78,11.37-5.65,17.07-2.16,6.61-4.6,13.13-6.77,19.73-.93,2.82-1.7,5.7-2.62,8.52-.48,1.5-1,3-1.55,4.47-2.93,7.4-7.32,14-9.47,21.73,0,.14-.11.27-.15.42a1,1,0,0,0,1.93.49c.23-.86.67-1.63.95-2.46a137.18,137.18,0,0,1,6.59-15,76.34,76.34,0,0,0,3.6-9c.91-2.81,1.68-5.66,2.61-8.48,2.17-6.6,4.61-13.12,6.78-19.72,1.85-5.67,3.39-11.46,5.6-17,2.43-6.09,5.75-12,8.82-17.75,3.37-6.34,6.69-12.79,10.53-18.86,5.13-8.12,11.26-15.5,17.15-23.06,4.12-5.28,8-10.78,12.35-15.9,3.51-4.17,7.36-8,10.67-12.38,5.85-7.65,11.06-15.75,16.28-23.82,1.52-2.34,3.09-4.64,4.62-7l0-.3c-.06-.5-.06-.83-.12-1.33v0C490.44,562.61,490.37,562.13,490.31,561.62Z"/><path class="cls-11" d="M475.28,536.06a1,1,0,0,0-1.29.72c-1,3.55-2.28,7-3.4,10.56a39.52,39.52,0,0,0-1.44,5c-1.48,8.17-2.65,16.42-4,24.61-.62,3.81-1.08,7.72-2,11.48a68.85,68.85,0,0,1-2.5,7.64q-2.19,6.08-4.73,12a1,1,0,0,0,.53,1.29,1,1,0,0,0,1.29-.5c1.86-4.35,3.62-8.78,5.19-13.25.77-2.22,1.6-4.45,2.15-6.74.92-3.8,1.41-7.77,2.05-11.62,1.35-8.18,2.54-16.38,4-24.54a43.19,43.19,0,0,1,1.63-5.45c1.06-3.28,2.2-6.54,3.18-9.85A1.08,1.08,0,0,0,475.28,536.06Z"/><path class="cls-17" d="M854.27,253A105.52,105.52,0,0,0,836.92,255c-9.84,2-19.38,5.25-28.93,8.33s-19.2,6.22-28.66,9.73c-9,3.35-17.87,7.07-26.77,10.72-9.64,3.95-19.3,7.87-28.78,12.23-7.39,3.39-14.64,7.08-21.88,10.79-11.73,6-23.3,12.33-34.72,18.89a781.75,781.75,0,0,0-74.25,48.09C570.85,390.07,551,409,530.37,426.93c-4.56,4-9.51,7.46-14.27,11.17-.29.23-.55.49-.83.72.11.42.23.79.34,1.21s.17.66.26,1c.52-.42,1-.88,1.52-1.29.83-.65,1.65-1.33,2.5-2,3.37-2.56,6.76-5.1,10-7.8l0,0c.59-.48,1.24-.89,1.81-1.4,20.61-17.92,40.38-36.81,62.41-53a777.67,777.67,0,0,1,74-48q17.71-10.18,35.9-19.5c6.77-3.47,13.6-6.92,20.52-10.11,9.45-4.34,19.08-8.24,28.7-12.19C762.19,282,771,278.29,780,275c10.13-3.77,20.41-7.05,30.67-10.38,9.44-3.06,18.93-6.21,28.7-8a102.91,102.91,0,0,1,15-1.62,1,1,0,0,0,.95-1A1,1,0,0,0,854.27,253Z"/><path class="cls-18" d="M934.84,288.39a77.79,77.79,0,0,0-14,1.93c-7.23,1.46-14.36,3.4-21.47,5.34s-14.28,3.64-21.39,5.56c-10.43,2.82-20.79,5.81-31.24,8.52-4.66,1.21-9.37,2.28-14,3.41q-6.45,1.56-12.87,3.22c-7.29,1.88-14.51,4-21.78,5.94-13.8,3.72-27.67,7.35-41.27,11.74-8.82,2.85-17.5,6.12-26.24,9.24-7,2.52-14.12,4.95-21.16,7.46-31.48,11.18-62.75,23-93.3,36.5-21.52,9.53-42.49,20.19-63.39,31-4.49,2.33-9,4.69-13.48,7-4.21,2.13-8.47,4.11-12.6,6.4-2.4,1.32-4.69,2.81-7,4.31a1,1,0,0,0,1.13,1.75c2.24-1.48,4.47-2.91,6.82-4.21,4.11-2.27,8.38-4.28,12.57-6.4,5-2.5,9.87-5.09,14.81-7.64,22-11.42,44.15-22.57,66.9-32.49,29.34-12.8,59.33-24,89.48-34.72,6.62-2.36,13.26-4.68,19.87-7.05,8.72-3.12,17.4-6.35,26.21-9.2,13.57-4.39,27.39-8,41.15-11.74,7.26-1.95,14.46-4.09,21.74-6,4.27-1.11,8.58-2.14,12.87-3.18,4.69-1.13,9.38-2.19,14-3.41,10.46-2.71,20.85-5.7,31.28-8.52,7.86-2.12,15.76-4.07,23.62-6.21s15.73-4.22,23.74-5.56c4.39-.74,8.93-1.38,13.37-.83a1,1,0,0,0,1.1-.84,1,1,0,0,0-.87-1.1A34.47,34.47,0,0,0,934.84,288.39Z"/><path class="cls-11" d="M920.15,325c-4.37.1-8.74.43-13.06.57s-8.74.06-13.11.23c-6.13.23-12.27.69-18.4,1.13-13.3,1-26.62,1.92-39.94,2.65-6.21.34-12.44.32-18.63.8-4.62.36-9.23,1-13.82,1.63q-10.49,1.39-20.94,2.95c-6,.89-12.07,1.77-18.14,2.46-13.2,1.51-26.23,3-38.47,8.52a1,1,0,0,0,.83,1.89c12-5.43,24.95-6.85,37.87-8.33,6.09-.69,12.14-1.56,18.21-2.46,7-1,13.93-2.06,20.9-3,4.56-.61,9.12-1.27,13.71-1.63,6.18-.48,12.4-.45,18.59-.79,13.33-.75,26.67-1.71,40-2.69,6.11-.45,12.22-.94,18.33-1.17,4.37-.17,8.74-.08,13.1-.23,8.5-.29,17.23-1.29,25.67.19,3.8.66,7.4,2.13,11.06,3.29a1,1,0,1,0,.61-1.89c-3.75-1.19-7.44-2.69-11.33-3.37A65.85,65.85,0,0,0,920.15,325Z"/><path class="cls-11" d="M927.19,390.77c-6.72.51-20.15,1.16-20.15,1.16s-10.76.39-16.16.51l-11.89.23c-1.6,0-3.21.06-4.81.11h-.07c-.92,0-1.85,0-2.77,0-5.28.22-10.51,1.23-15.79,1.47-3.84.18-7.67-.1-11.51,0-2.22.07-4.45.26-6.66.46-5.41.48-10.83,1.11-16.25,1.59-7.08.62-14.13,1.17-21.2,2-11.44,1.29-22.86,2.85-34.27,4.39-5.26.71-10.41,2.15-15.67,2.88-6.88.94-13.79,1.56-20.68,2.42q-13,1.62-25.93,3.71c-1,.16-2,.26-3,.42-6.11,1-12.17,2.27-18.25,3.48-7.85,1.57-15.7,3.1-23.59,4.47s-15.5,2.43-23.25,3.75c-11.17,1.9-22.32,4-33.39,6.43-8.59,1.88-17,4.51-25.45,6.82-5.43,1.48-10.94,2.62-16.39,4-3.72,1-7.38,2.07-11.1,3-3.89,1-7.87,1.63-11.77,2.62-6.62,1.67-13.13,3.73-19.65,5.75,0,.33.12.62.15.95s0,.71,0,1.06a.41.41,0,0,0,0,.11c6.63-2.06,13.27-4.17,20-5.87,3.9-1,7.87-1.56,11.77-2.57,3.71-1,7.38-2.12,11.1-3.07,5.46-1.4,11-2.56,16.43-4.05,8.44-2.31,16.78-4.87,25.33-6.74q16.56-3.63,33.28-6.48c7.75-1.32,15.55-2.36,23.29-3.71,14-2.42,27.8-5.66,41.8-8,9.58-1.58,19.19-2.91,28.82-4.12,6.89-.87,13.79-1.48,20.67-2.43,5.26-.72,10.41-2.2,15.68-2.91,11.39-1.54,22.77-3.06,34.19-4.36,7-.8,14.14-1.38,21.2-2,5.42-.48,10.8-1.11,16.21-1.59,2.17-.2,4.36-.4,6.55-.46,3.85-.1,7.73.18,11.59,0,5.27-.25,10.47-1.25,15.75-1.47,6.48-.28,13-.24,19.5-.38,12.16-.28,24.29-.75,36.42-1.67a1,1,0,1,0-.15-2Z"/><path class="cls-11" d="M869,327.2c-10,1.21-19.44,5.07-28.92,8.44-9.72,3.45-19.17,7.5-28.55,11.78-3.72,1.69-7.43,3.43-11.1,5.22-2.15,1.05-4.33,2.08-6.4,3.3-3.18,1.88-6.17,4.14-9.24,6.21-5.36,3.6-10.73,7.25-15.9,11.13-2.29,1.72-4.46,3.59-6.81,5.22-5,3.44-10.26,6.37-15.38,9.55-7.35,4.56-14.65,9.25-22.34,13.25a112.48,112.48,0,0,1-13.36,6c-4.23,1.55-8.58,2.75-12.92,3.94-5.2,1.43-10.46,2.78-15.71,4a1,1,0,0,0,.49,1.93c5.81-1.41,11.59-2.89,17.35-4.5,3.84-1.08,7.71-2.19,11.47-3.56a116.49,116.49,0,0,0,13.59-6.1c7.73-4,15.09-8.71,22.49-13.29,5.15-3.19,10.47-6.17,15.45-9.62,2.38-1.64,4.58-3.49,6.89-5.22,5.55-4.15,11.29-8,17-11.89,2.63-1.76,5.22-3.7,8-5.3,2.3-1.35,4.73-2.48,7.12-3.64,3.37-1.63,6.78-3.22,10.19-4.77,9.33-4.25,18.7-8.31,28.36-11.74,9.33-3.31,18.61-7.1,28.51-8.29a1,1,0,1,0-.27-2.08Z"/><path class="cls-19" d="M827.31,383.81c-2-.09-3.92,0-5.87,0-3.4.07-6.8.17-10.19.27-4.32.12-8.66.15-13,.34-5.43.23-10.85.66-16.28,1.06-7,.51-13.92,1.1-20.86,1.82-5,.52-10.1,1.07-15.11,2a1,1,0,0,0-.79,1.17,1,1,0,0,0,1.13.79c5-.88,9.95-1.45,15-2,6.92-.72,13.88-1.31,20.82-1.82,5.41-.4,10.79-.8,16.21-1,4.82-.21,9.68-.26,14.5-.38,3.3-.09,6.62-.13,9.92-.19,1.48,0,3-.11,4.43,0,5.48.26,11,1.21,16.4,1.89,7,.89,13.95,2,20.9,3.18,4.43.78,8.86,1.55,13.25,2.54a1,1,0,1,0,.46-2c-4.94-1.11-9.94-2-14.92-2.84-6.47-1.12-12.92-2.1-19.43-2.92C838.37,385,832.83,384,827.31,383.81Z"/><path class="cls-20" d="M872.4,438.75c-19.31-.15-38.62.14-57.93.3l-30.44.26c-5.35.05-10.71,0-16.06.19-13.94.48-27.88,1.41-41.8,2.31-16.37,1.07-32.74,2.23-49.07,3.71-12.43,1.13-24.88,1.91-37.26,3.49-9.19,1.17-18.35,2.51-27.53,3.82-1.22.18-2.45.32-3.67.49q-23.77,3.44-47.48,7.27c-14.4,2.35-28.72,5.33-43.24,6.74,0,.36-.14,1.82-.15,2.12,14.68-1.4,29.18-4.44,43.73-6.81q25.95-4.23,52-7.91c7.31-1.05,14.63-2.08,22-3,1.55-.21,3.1-.45,4.65-.65,12.36-1.58,24.78-2.35,37.19-3.48,17.09-1.56,34.22-2.79,51.34-3.9,13.12-.85,26.28-1.71,39.42-2.16,6.06-.21,12.14-.17,18.21-.23l28.21-.26c19.93-.17,39.89-.41,59.83-.27,10.81.08,21.65.14,32.33,1.63,2.66.37,5.28.94,7.92,1.52,1.14.25,2.3.38,3.44.68.12,0,.15-.14.27-.15.4,0,.83-.16.94-.57s-.22-.67-.53-.91c-.1-.08,0-.27-.19-.3C903.4,438.72,887.87,438.86,872.4,438.75Z"/><path class="cls-11" d="M674.41,450.22c-8.81.08-17.63.5-26.43.87q-19.53.82-39,1.89a1,1,0,0,0-.94,1,1,1,0,0,0,1.06.94q19.5-1,39-1.85c8.77-.37,17.57-.83,26.35-.91,17-.15,34,.54,50.89,1.06,5.81.18,11.6.37,17.42.57,3.14.1,6.29.1,9.43.3,3.9.25,7.81.77,11.7,1.21,6.26.71,12.55,1.5,18.81,2.2s12.65.92,19,1.59c5.88.61,11.72,1.72,17.57,2.57,9.67,1.4,19.37,2.7,29,4.05,8.15,1.14,16.32,2.12,24.47,3.26,3.31.46,6.56,1.22,9.88,1.67,7,.94,14.07,1.46,21,2.8a1,1,0,0,0,.38-2.05c-7-1.34-14.09-1.89-21.13-2.84-3.31-.44-6.57-1.16-9.88-1.62-8.14-1.14-16.31-2.16-24.46-3.3-9.67-1.35-19.34-2.62-29-4-5.88-.85-11.74-2-17.65-2.58-6.31-.66-12.66-.89-19-1.59-6.82-.76-13.63-1.59-20.45-2.35-3.37-.37-6.76-.8-10.14-1-3.16-.2-6.34-.24-9.51-.34q-9.7-.31-19.42-.6C707.06,450.68,690.73,450.07,674.41,450.22Z"/><path class="cls-11" d="M914.39,442a285.7,285.7,0,0,0-32.67,2.31c-9.22,1.13-18.37,2.58-27.57,3.9-17.8,2.55-35.65,4.58-53.16,8.78a1.08,1.08,0,0,0-.76,1.29,1,1,0,0,0,1.25.76c17.44-4.2,35.25-6.25,53-8.82,9.18-1.33,18.33-2.81,27.53-3.94A281.89,281.89,0,0,1,914.43,444a1,1,0,0,0,1-1A1,1,0,0,0,914.39,442Z"/><path class="cls-11" d="M576.49,484.75a1,1,0,0,0-1.21.68,1,1,0,0,0,.64,1.21c18.57,5.38,36.29,8.14,67,11.4,1.92.2,3.33.38,6.93.76,13.78,1.44,20.06,2.11,27.72,3.1,1.82.24,20.52,2.66,25.86,3.37,17.52,2.34,31,4.37,44,6.67,2.63.46,9.58,1.73,9.81,1.78,11.06,2,16,2.91,22.22,3.82a522.94,522.94,0,0,0,65.81,5.83c3.24.06,5.84.19,11.74.57l1.21.08c6.79.43,10.59.57,14.77.49a71.48,71.48,0,0,0,7.84-.53,1,1,0,0,0,.83-1.14,1,1,0,0,0-1.1-.83,69.4,69.4,0,0,1-7.61.53c-4.1.08-7.88-.06-14.62-.49l-1.21-.08c-5.92-.38-8.53-.5-11.81-.57a518.64,518.64,0,0,1-65.54-5.79c-6.19-.9-11.12-1.78-22.15-3.82-.24-.05-7.22-1.32-9.85-1.78-13-2.31-26.53-4.33-44.07-6.67-5.35-.71-24.05-3.13-25.86-3.37-7.69-1-14-1.7-27.76-3.14l-6.93-.72C612.54,492.86,594.92,490.08,576.49,484.75Z"/><path class="cls-21" d="M510.87,513.34c0,.38-.19,1.71-.22,2l23.74,5.22h0l.11,0c.29.11,6.42,2.43,9,3.37,7.43,2.72,16,5.79,25.67,9.16,21.32,7.47,44.8,15.2,69.22,22.95h0c3.66,1.16,7.22,2.32,10.94,3.48h0c3.52,1.1,6.77,2.2,10.34,3.3,19,5.82,41.9,15.9,68,29.46,11.91,6.19,24.34,13,37.15,20.41,21.14,12.2,42.28,25.28,62.55,38.43,7,4.53,13.29,8.72,19.08,12.61,1.87,1.25,6.85,4.62,6.89,4.65s0,0,.12,0,0,0,.11.08l.15,0c.21,0,.23,0,.23,0l.41-.11.5-.6a4.3,4.3,0,0,1,0-.53,1.33,1.33,0,0,0-.19-.35l-.12-.11-1.32,1.44a1.08,1.08,0,0,1-.11-.11.49.49,0,0,1-.08-.12c-.09-.21-.08-.22-.08-.22v-.53l.46-.61c.44-.13.45-.11.45-.11a1.93,1.93,0,0,1,.34,0c-.26-.17-4.84-3.31-6.66-4.54-5.8-3.89-12.13-8.07-19.12-12.61-20.29-13.16-41.45-26.24-62.63-38.47-12.82-7.4-25.28-14.24-37.22-20.45-26.19-13.61-49.26-23.7-68.35-29.57-7-2.16-13.54-4.31-20.37-6.47l-2-.65c-24-7.63-47.13-15.25-68.12-22.6-7.77-2.72-14.33-5.08-20.68-7.38h-.07l-4.89-1.78-5.6-2.09h0l-3.44-1.32-.15,0Z"/><path class="cls-11" d="M539.27,519.89a1,1,0,0,0-.49,2,90.8,90.8,0,0,0,10.6,2c5,.63,9.93.91,14.88,1.44,4.36.47,8.69,1.63,13.1,1.59,8.61-.08,17.15-1.37,25.75-1.55,4.93-.1,9.84.19,14.77.19,5.63,0,11.29-.15,16.92.15,5.36.28,10.67,1.08,16,1.36,4,.22,8.08.12,12.12.16,6.19,0,12.34.27,18.51.79s12.15.51,18.22.91c4.13.27,8.23.87,12.34,1.44,6.12.85,12.18,2,17.76,4.77a1,1,0,0,0,.87-1.78c-5.77-2.85-12-4.08-18.37-5-4.15-.58-8.31-1.16-12.49-1.44-6-.4-12.09-.39-18.14-.91-6.22-.53-12.43-.77-18.67-.83-4,0-8,.06-12-.15-5.35-.29-10.66-1.12-16-1.4-6.47-.35-12.95-.14-19.43-.16-4.13,0-8.28-.27-12.42-.18-8.59.16-17.15,1.43-25.74,1.51-4.33,0-8.57-1.13-12.84-1.59-4.94-.53-9.91-.78-14.84-1.4A91.3,91.3,0,0,1,539.27,519.89Z"/><path class="cls-22" d="M512.27,503.27c0,.31,0,.74-.11,1.06s-.1.74-.15,1c4.1,0,8.1.79,12.19,1.06,4.52.3,9,.12,13.56.53,5.24.48,10.42,1.35,15.67,1.74,6.73.51,13.49.22,20.22.53,6,.28,12,.78,18,1.21,5.05.37,10.13.65,15.18,1,19.57,1.29,39.09,3.13,58.69,3.1,3,0,5.93.07,8.9,0a1,1,0,1,0-.08-2c-4.89.17-9.77.16-14.65.07-17.61-.31-35.16-2-52.74-3.18-5.05-.34-10.1-.65-15.15-1-6-.45-12-.93-18-1.21-6.72-.32-13.48-.06-20.19-.57-5.23-.4-10.4-1.26-15.63-1.74-4.54-.42-9.1-.23-13.63-.53C520.27,504.06,516.33,503.34,512.27,503.27Z"/><path class="cls-23" d="M638,553.78a1,1,0,0,0-.64.49,1,1,0,0,0,.34,1.4c4.72,2.81,9.71,5.07,14.5,7.73,2.46,1.36,4.83,2.93,7.16,4.5,7.92,5.34,15.36,11.34,22.91,17.19,5.49,4.27,11.19,8.3,16.5,12.8a52.3,52.3,0,0,1,4.06,3.67c.89,1,1.69,2,2.61,2.92,2.35,2.37,5,4.47,7.57,6.66,15.22,13.22,30.66,26.19,45.67,39.65,10.42,9.35,20.82,18.73,31.46,27.83,2.21,1.89,4.73,3.36,6.93,5.26,2.86,2.48,5.54,5.17,8.33,7.72a90.36,90.36,0,0,0,16.66,12.61,1,1,0,0,0,1.36-.38,1,1,0,0,0-.37-1.32,88.93,88.93,0,0,1-16.32-12.38c-2.81-2.57-5.5-5.24-8.37-7.73-2.2-1.9-4.72-3.41-6.93-5.3-11-9.42-21.79-19.13-32.56-28.81-15-13.48-30.42-26.45-45.63-39.68-2.11-1.84-4.4-3.58-6.36-5.57-.91-.92-1.65-2-2.54-2.92a54.74,54.74,0,0,0-4.24-3.82c-5.33-4.52-11.06-8.55-16.59-12.84-7.57-5.88-15-11.93-23-17.3-2.38-1.61-4.8-3.19-7.31-4.58-4.77-2.65-9.73-4.89-14.42-7.69A1,1,0,0,0,638,553.78Z"/><path class="cls-11" d="M510,525.8c0,.4-.13,2-.15,2.34,3.23,2,6.47,3.91,9.81,5.68,1.46.78,3,1.52,4.43,2.28l2.35,1.21c5.35,2.72,10.7,5.44,15.82,8.59,2.55,1.57,5,3.32,7.42,5.08,4,2.89,8,5.83,11.89,8.93,2.31,1.86,4.52,3.82,6.78,5.72,5.37,4.52,10.77,9,16.28,13.37.21.16.4.36.61.53,1.91,1.49,4,2.78,5.94,4.2,3.35,2.4,6.65,4.86,10.08,7.12,5.24,3.45,10.56,6.83,16.09,9.8.7.38,1.45.63,2.16,1,1.84.93,3.75,1.7,5.64,2.54,7.22,3.18,14.61,6,22,8.93,4.64,1.86,9.26,3.83,13.86,5.79,1.13.49,2.21,1.07,3.33,1.56s2.34,1.13,3.52,1.66c4.46,2,9,3.92,13.29,6.21,4.58,2.43,9,5.14,13.37,7.88q4,2.52,8.06,5.11c1.42.91,2.91,1.8,4.24,2.84a70.29,70.29,0,0,1,8.64,8.44c1.48,1.64,3.07,3.17,4.5,4.85,3.22,3.77,6.16,7.82,9.24,11.7a29.82,29.82,0,0,0,2.5,2.88c1.41,1.37,3.14,2.47,4.39,4,5.64,6.92,10.66,14.32,16.28,21.24,2,2.44,4,4.85,6.06,7.24,1.25,1.45,2.47,3,3.83,4.31,5.54,5.56,11.75,10.38,17.57,15.64,3.27,3,6.28,6.22,9.58,9.16.06.06.15,0,.22,0a1,1,0,0,0,1.18-.07c.19-.22,0-.49,0-.76s.15-.48,0-.64c-3.29-2.95-6.3-6.2-9.58-9.17-5.79-5.24-12-10-17.49-15.56-1.53-1.53-2.88-3.24-4.28-4.88-1.84-2.16-3.7-4.31-5.49-6.52-5.61-6.91-10.62-14.3-16.24-21.2a.08.08,0,0,1,0,0,19.88,19.88,0,0,0-2.69-2.5c-.63-.52-1.23-1.09-1.82-1.66a35.92,35.92,0,0,1-2.84-3.33c-2.92-3.71-5.72-7.55-8.78-11.14-1.45-1.69-3.05-3.23-4.55-4.88a69.44,69.44,0,0,0-8.86-8.71c-1.38-1.07-2.92-2-4.39-3-2.68-1.74-5.39-3.43-8.1-5.12-4.44-2.76-8.87-5.49-13.48-8a356.73,356.73,0,0,0-34.16-15.33c-9.92-4-20.12-7.29-29.57-12.38-5.47-3-10.74-6.31-15.94-9.73s-10.4-7-15.33-10.8c-5.92-4.59-11.65-9.45-17.38-14.27-2.28-1.91-4.5-3.89-6.82-5.76-3.88-3.12-7.93-6-12-9-2.47-1.78-4.95-3.55-7.54-5.15C536,539.65,528.23,536,520.64,532,517,530.08,513.5,528,510,525.8Z"/><path class="cls-24" d="M705.27,602.24a1,1,0,0,0-1.4.23,1,1,0,0,0,.23,1.36,23.86,23.86,0,0,1,6,7.16c2.29,3.71,4.18,7.64,6.18,11.51s3.93,7.74,5.83,11.63c.94,1.92,1.92,3.83,2.76,5.79,1,2.31,1.65,4.78,2.46,7.16,1.2,3.52,2.47,7,3.6,10.6.77,2.43,1.56,4.87,2.2,7.34.35,1.39.52,2.81.83,4.21a50.15,50.15,0,0,0,1.63,5.75,1,1,0,0,0,1.32.65,1.06,1.06,0,0,0,.68-1.33c-1.3-3.84-1.88-7.81-3-11.7-1.39-4.9-3.08-9.69-4.73-14.5-1-2.91-1.9-5.85-3-8.71s-2.56-5.39-3.86-8c-1.72-3.48-3.45-6.93-5.23-10.37-1.91-3.71-3.75-7.47-5.94-11A26,26,0,0,0,705.27,602.24Z"/><path class="cls-11" d="M664.45,619.32a1,1,0,0,0-.19,1.36c2.45,3.16,4.87,6.38,7.2,9.62,1.34,1.88,2.71,3.75,3.86,5.76,1.94,3.4,3.45,7.12,5.07,10.68,2.28,5,4.5,10,6.7,15,1.42,3.22,2.76,6.48,4.21,9.69,1.55,3.44,3.2,6.88,4.62,10.38,1.68,4.14,2.82,8.53,4.28,12.76,2,5.79,4.21,11.48,6.24,17.26a31.53,31.53,0,0,0,1.52,3.22q1.18,2.42,2.38,4.81,3.85,7.68,7.73,15.33c1.28,2.52,2.49,5.63,3.71,8.33,1.85,4.12,3.81,8.19,5.79,12.23.89,1.81,1.34,3.75,2.31,5.53a1,1,0,1,0,1.82-1c-1-1.75-1.36-3.71-2.24-5.49-2-4-4-8-5.79-12.12-1.26-2.79-2.37-5.71-3.75-8.44q-3.87-7.66-7.72-15.34c-.88-1.75-1.79-3.5-2.65-5.26a23.72,23.72,0,0,1-1.18-2.5c-2-5.78-4.28-11.48-6.28-17.27-1.47-4.26-2.58-8.66-4.28-12.83-1.52-3.72-3.31-7.36-5-11s-3.06-7.13-4.62-10.68c-2.22-5-4.48-10.06-6.78-15.07-1.41-3.08-2.75-6.29-4.43-9.24a81.66,81.66,0,0,0-5.22-7.68c-1.95-2.67-4-5.31-6-7.92A1,1,0,0,0,664.45,619.32Z"/><path class="cls-25" d="M620.42,600.39a1,1,0,0,0-.72.34,1,1,0,0,0,.11,1.48c2.2,1.86,4.37,3.73,6.44,5.75,3.63,3.56,7,7.37,10.67,10.91,3.27,3.16,6.61,6.22,9.81,9.46,5.34,5.41,10.48,11.07,15.37,16.89,6.13,7.29,11.9,14.89,17.38,22.68,3.34,4.74,6.54,9.56,9.81,14.35,1.9,2.79,3.83,5.5,6,8.1a70.57,70.57,0,0,1,5.72,7.2,1,1,0,0,0,1.7-1.06,73.36,73.36,0,0,0-5.9-7.38c-2.11-2.56-4-5.22-5.87-8-3.27-4.79-6.47-9.67-9.81-14.42a333.64,333.64,0,0,0-21.2-27.19c-4.4-5.06-8.95-10-13.71-14.69-3.07-3.05-6.3-6-9.35-9s-6-6.3-9.13-9.35c-2.1-2.06-4.3-4-6.55-5.87A1,1,0,0,0,620.42,600.39Z"/><path class="cls-26" d="M585.62,577.18a1,1,0,1,0-1.33,1.47c2.9,2.59,5,5.89,7.31,9,3,4.07,6.11,8.13,9.13,12.23,6.62,9,14.5,17.44,19.69,27.37a174.38,174.38,0,0,1,7.87,18.52c1.85,4.84,3.77,9.71,5.19,14.69.67,2.35,1,4.81,1.59,7.2,1.42,6,2.84,12.09,4.73,18,.75,2.34,1.84,4.63,2.77,6.89,1.74,4.25,3.53,8.5,5.22,12.76,3.21,8.08,6.26,16.21,9.51,24.27,1.11,2.78,2.09,5.63,3.36,8.33,2.53,5.37,5.63,10.51,8.45,15.72,3.17,5.85,6.28,11.76,9.31,17.68a1,1,0,0,0,1.4.46,1.09,1.09,0,0,0,.46-1.44c-3.32-6.48-6.68-12.94-10.19-19.31-2.54-4.63-5.28-9.2-7.53-14-1.45-3.07-2.59-6.34-3.86-9.5-3.25-8-6.26-16.19-9.51-24.23-1.7-4.21-3.42-8.38-5.15-12.57-.77-1.88-1.69-3.75-2.31-5.68-2-6.2-3.43-12.6-4.92-18.94-.48-2.05-.82-4.17-1.4-6.21-1.53-5.35-3.61-10.56-5.6-15.75a170.88,170.88,0,0,0-7.62-17.83c-3.63-7-8.62-13.1-13.47-19.24-2.5-3.15-4.92-6.34-7.31-9.58-3-4.09-6.1-8.17-9.13-12.26A49.85,49.85,0,0,0,585.62,577.18Z"/><path class="cls-27" d="M508.3,558.74s-.05,1.13-.08,1.74v0c0,.39,0,.74,0,1.13s0,.4,0,.65c2,2.93,4,5.82,5.87,8.78,5.22,8.08,10.4,16.21,16.24,23.86,3.32,4.33,7.2,8.21,10.72,12.38,4.68,5.56,8.88,11.51,13.36,17.23,5.57,7.09,11.27,14.09,16.09,21.73,4.07,6.43,7.57,13.24,11.14,20a169.28,169.28,0,0,1,8.21,16.66c2.21,5.54,3.79,11.29,5.64,17,2.17,6.6,4.57,13.12,6.74,19.73.93,2.81,1.74,5.7,2.66,8.52a74.89,74.89,0,0,0,3.55,9c2.37,5,4.91,9.85,6.67,15.07.27.82.68,1.58.91,2.42a1,1,0,1,0,1.89-.53c0-.12-.08-.22-.11-.34-2.14-7.76-6.57-14.39-9.51-21.81-.58-1.46-1.07-3-1.55-4.47-.91-2.82-1.69-5.66-2.61-8.48-2.17-6.6-4.58-13.12-6.74-19.73-1.87-5.7-3.42-11.53-5.64-17.11-2.47-6.19-5.82-12.07-8.94-17.95-3.39-6.38-6.71-12.89-10.56-19-5.16-8.18-11.34-15.63-17.27-23.25-3.68-4.72-7.23-9.55-11-14.2-.46-.57-.89-1.17-1.36-1.74-.68-.81-1.39-1.59-2.08-2.38-2.89-3.27-5.87-6.45-8.52-9.92-5.81-7.61-11-15.71-16.17-23.74C513.32,566.17,508.3,558.74,508.3,558.74Z"/><path class="cls-28" d="M524.73,535.34a1,1,0,0,0-.68,1.29c1.05,3.56,2.28,7.09,3.41,10.64a38.11,38.11,0,0,1,1.36,4.69c1.47,8.16,2.67,16.36,4,24.54.63,3.85,1.12,7.78,2,11.58a77.92,77.92,0,0,0,2.57,7.88c1.48,4.08,3.07,8.13,4.78,12.12a1,1,0,0,0,1.32.53,1,1,0,0,0,.49-1.29c-1.84-4.31-3.56-8.68-5.11-13.1a66.5,66.5,0,0,1-2.12-6.59c-.89-3.76-1.35-7.66-2-11.47-1.33-8.2-2.5-16.41-4-24.58a46.08,46.08,0,0,0-1.67-5.75c-1.05-3.27-2.21-6.48-3.18-9.77A1,1,0,0,0,524.73,535.34Z"/><path class="cls-29" d="M468.3,300.09c-4.54,0-1.56,9.65-1.56,9.65a24.18,24.18,0,0,1,5.45,3c1,.83,2,5,3.49,5,.06,0,.1,0,.16,0,.58,3.52,1.18,7,1.62,10.6.28,2.25.64,4.55.74,6.82.08,1.83.08,3.65.16,5.49.1,2.3.35,4.62.5,6.93.13,2,.14,4,.43,6,.55,3.88,2.14,7.5,3.25,11.24,1,3.35,1.68,6.77,2.52,10.15.69,2.8,1.44,5.6,2.09,8.41.08.37.08.76.15,1.13a8.21,8.21,0,0,0-1,4.17,8,8,0,0,0,.38,1.74,16.46,16.46,0,0,0-1.82,7.27,15.72,15.72,0,0,0,8.37,14.16c-4.65,9.47-9.58,25.13-12.24,43.77-.82,5.75.2,8.75,1.86,11.13,1.13,9.95.72,17.61,4.93,22.51-.09,6,3.17,12.75,2.62,20.17-1.05,14.19-2,35.49.44,55.72s-1.67,34.33.58,44c1.27,5.48,6.62,12.79,6.62,12.79,3.45,0,6.3-15,8.35-31.38,1.45-11.57,2.48-21.28,3.14-38.17.33-8.29,1.15-21.63,1.9-35.1.64-11.33,2.7-13.63,2.86-22.14,3.94-6.23,5-23.74,5-35.64s-2.71-23.52-6.7-31.46a127.39,127.39,0,0,0-5.65-17.61,15.77,15.77,0,0,0,6.47-12.76,16.39,16.39,0,0,0-2.17-7.84c0-.34.15-.55.15-.91a10.82,10.82,0,0,0-.85-4.43l0-.07c1-3.42,1.88-6.94,3-10.34.67-2,1.54-4,2.17-6.1a54,54,0,0,0,1.28-5.49c.82-4.17,1.36-8.4,2.24-12.57s2.34-8.08,3.45-12.15c.41-1.51.66-3,1-4.55a48.49,48.49,0,0,1,3.48-10.26,22.2,22.2,0,0,1,3.3-4.69,6.07,6.07,0,0,0,3,.83c3.77,0,7.18-5.21,7.18-9s-3.41-5-7.18-5-2.67,4.19-2.67,7.94c0,1.84-3.19,2.61-2.06,3.87a23.71,23.71,0,0,0-3.52,5.08c-1.66,3.37-2.31,7.07-3.72,10.52-1,2.53-2.49,4.88-3.72,7.31a44,44,0,0,0-3.44,9c-2.1,8.1-2.11,16.53-3.18,24.77a55.44,55.44,0,0,1-2.09,8.18c-.1.35-.24.7-.35,1.06-.35,0-6.24-4.66-10.3-4.66-4.39,0-7.76,4.43-8.71,4.66-.05-1.1-.1-2.21-.16-3.3A104.75,104.75,0,0,0,488.42,369a52.84,52.84,0,0,0-1.62-7.57,82.71,82.71,0,0,1-2.56-8.71c-.45-2.41-.65-4.86-1.16-7.27-.85-4-2.18-8-2.79-12-.47-3.15-.74-6.35-1.16-9.51-.31-2.28-1.15-6.1-1.53-8.37,3.2-1.2,2.86-2.31,2.86-6.22,0-2.73-5.4-7.11-5.4-7.11S470.26,300.09,468.3,300.09Z"/><path class="cls-30" d="M495.82,380.83s-3.9-2.82-5.85,5.47-4,13.06-2.22,15.86,3.22,3.53,6.6,6.71-.3,4.72,4.43,6,5.84-4.37,6.14-6.06-1.86,1.68,1.68-4.21,5.44-6.18,2.31-12.81-3.79-9.05-5.77-9.77"/><path class="cls-29" d="M486.92,440.25s5.57,2.75,14.68,2.33,11.19-.32,12.63-.05-7.15,4.17-13.9,3.73-8,0-10.53-.68a8.44,8.44,0,0,1-4.18-3.14"/><path class="cls-29" d="M487.72,463.19s5.57,2.75,14.68,2.33,11.2-.32,12.63,0c1.06.2-8.55,3.35-8.55,3.35-1.75-.39-3.62.49-5.35.38-6.76-.43-8,0-10.52-.68a8.49,8.49,0,0,1-4.19-3.14"/><path class="cls-29" d="M514.53,474.56s-5.58,2.74-14.68,2.32-11.2-.32-12.63-.05c-1.07.2,8.54,3.35,8.54,3.35,1.76-.39,3.63.5,5.36.39,6.75-.44,8,0,10.52-.69a8.49,8.49,0,0,0,4.19-3.14"/><path class="cls-29" d="M485.91,452.08c2.73.34.37,2.05,9.59,2.23s9.44.54,13.76.15,6.74,1.51,7.19,2.6,1.52,1.82-2.25,2.17-3.49.89-8.64.9-1,1.12-8.91-.47-8-1.6-10.59-3.44-2.66-2.13-2.7-3.16S483.18,451.74,485.91,452.08Z"/><path class="cls-31" d="M494.1,533.8c-.83,12.43-.93,27.91-1.5,48.82-.83,30.25-3.76,55.94,2.95,58.83,11.36,4.9,7.29-21.63,8.52-33.85.53-5.26,2.16-29.69,2.16-29.69S508,542.38,507.47,534c-.93-14.68-2.78-18.08-8.34-14.37S494.28,531.22,494.1,533.8Z"/></g></svg>