<svg id="Layer_1" data-name="Layer 1" xmlns="http://www.w3.org/2000/svg" viewBox="0 0 1000 1000"><defs><style>.cls-1{isolation:isolate;}.cls-2,.cls-3,.cls-4,.cls-5,.cls-6,.cls-7,.cls-8{fill:#fff;}.cls-2{opacity:0.3;}.cls-3{opacity:0.4;}.cls-4{opacity:0.25;}.cls-5{opacity:0.3;}.cls-6{opacity:0.25;}.cls-7{opacity:0.3;}.cls-8{opacity:0.5;}</style></defs><g class="cls-1"><path class="cls-2" d="M430.1,233.68a41.84,41.84,0,0,0-20.26,5.42,47,47,0,0,0-10.65-1.47c-9.07-.2-11.87,6.76-18.89,11.24-8.62,5.53-20.87,4.3-28.65,12.62-24.27,26-.93,50.76,28.44,51.93,12.39.49,59.17-3.58,69.11-4,29.37-1.16,52.74-26,28.47-51.92-7.78-8.33-20-7.07-28.65-12.59C442,240.44,439.17,233.48,430.1,233.68Z"/><path class="cls-3" d="M426.07,312.75c-1.93.21-12.16-.56-18.54,2.48-12.14,5.78-32.42-1.63-43,10.87-12.84,15.21-2.09,41.72-7,59.16-3.75,13.34-11,23.56-12.71,37.89-2.09,17.05,2.86,33.75,5.41,50.39,1,6.68-2.72,12.66-2.75,19.29,0,5.54,4.41,8.36,4.38,13.78,0,5.94-2.84,12-2.6,18.29.61,15.8,3.62,30.3,5.73,45.73.69,5-2.11,9.85-1.5,14.84,1.89,15.4,10.92,26.3,19.57,37.68,15.3,20.1,16.59,45.34,49.14,47.44a11.2,11.2,0,0,0,3.89-.44c30.95-3.16,32.24-27.86,47.07-47.79,8.52-11.46,17.44-22.47,19.16-37.89.56-5-2.29-9.82-1.66-14.82,2-15.44,4.77-30,5.2-45.81.17-6.27-2.73-12.32-2.82-18.26-.08-5.43,4.35-8.27,4.26-13.81-.1-6.63-3.92-12.57-3-19.26,2.37-16.67,7.16-33.4,4.88-50.42-1.91-14.32-9.25-24.47-13.15-37.77-5.1-17.38,5.36-44-7.64-59.1-10.69-12.38-30.89-4.72-43.1-10.37C431.65,313.13,428.58,312.49,426.07,312.75Z"/><path class="cls-4" d="M365.1,355.13s-5,22.42-19.18,42.32a82.77,82.77,0,0,1-15.67,16.86c-26.23,20.9-38,58.72-52.47,78.7s-67.17,114.17-85.61,176.3-18.51,108.71,6.44,120,54,11.48,98.87-45l36-47.75s7.9,3.32,28.78-17.9S406.45,431,403.58,374.42l-.87-18.73s5.74-31.38,4.86-33.24S379.83,303.75,365.1,355.13Z"/><path class="cls-5" d="M321.67,675.16c.22.74.49,1.45.72,2.19a15.72,15.72,0,0,0-2.1-1.22A1.25,1.25,0,0,0,321.67,675.16Zm-1.56-65.86a27.61,27.61,0,0,1,3.85.4,111.94,111.94,0,0,1,26.52,7.21,31.38,31.38,0,0,0-4.54.4,50.61,50.61,0,0,0-22.33,10.5,36.1,36.1,0,0,0-6.42,6.82c-.07-1.07-.25-2.15-.31-3.22-.22-4.16-.25-8.34-.28-12.5,0-3.19,0-6.39,0-9.58C317.79,609.32,318.94,609.3,320.11,609.3ZM268.9,580a53.44,53.44,0,0,0,2.6,5.7,8.13,8.13,0,0,0-4.32-1.06,6.77,6.77,0,0,0-1,.22C267.1,583.24,268,581.64,268.9,580Zm92.2-75.66a3.68,3.68,0,0,1,.47,0,13.57,13.57,0,0,1,3.88,1.75c.2.12.42.19.63.29a336.1,336.1,0,0,0-3.79,74.94c.86,14.33,1.8,29,5,43.09a18,18,0,0,0-1.78-2.22,17,17,0,0,0-6.05-3.88,117.28,117.28,0,0,0-33.54-10.84,46.66,46.66,0,0,0-5.26-.66c-1.35-.06-2.67,0-4,0,0-1.82,0-3.65,0-5.48.16-8.55.55-17.08,1.47-25.58.36-3.29.76-6.59,1.35-9.84,1.92-10.49,5.17-20.77,8.42-30.91,2.91-9,6-18,9.21-27,1.09,0,2.19-.11,3.29-.22.18,0,.36.1.53.12l.91.13c.29,0,1.06.33.88.09-.5-.65-.28-.43-.32-.5l.26,0c.29.24.6.55.84.56a1.17,1.17,0,0,0,1.16-.9l3.95-.69C352.77,505.89,356.94,505.11,361.1,504.35ZM309.3,502c2.63,1.81,5.39,3.39,8,5.2a1.22,1.22,0,0,0,.53.13c-3.59,9.26-7.12,18.54-10.33,27.93-6.28,18.35-11.56,37.06-16.7,55.75-1.07,3.9-2.08,7.81-3.13,11.71-7.15-7.19-13.64-15.12-17.13-24.77-.06-.16-.2-.23-.31-.35,13.46-24.8,26.54-49.8,38.86-75.19C309.18,502.27,309.24,502.14,309.3,502Zm9.15.66c-.95-1.16-1.72-2.69-3.14-2.88S315.29,500,318.45,502.66Zm11.27-36.55a16.13,16.13,0,0,1,2,0l.79.07c.26,0,1,0,.78.09-2.41.6,0,0,.78.09.07,0,.12-.06.19-.06-3.27,8.1-6.66,16.15-9.86,24.27-1.53,3.87-3,7.75-4.55,11.62a1.21,1.21,0,0,0-.9.78c-.22-.19-.27-.16-.47-.34a5.62,5.62,0,0,0,.44.53c0,.05-.15.13-.16.13a3.9,3.9,0,0,1-2.38-.66,12.1,12.1,0,0,1-4-3.19,4.85,4.85,0,0,1-1-1.92c.12-.24.23-.48.34-.72,1.27,1.06.29.2.1-.15q6.8-14.16,13.25-28.5a1.1,1.1,0,0,0,.87-.38c4.05-.71,2.45-.39,4-.69,1.25-.22-2.52.34-3.79.41-.11,0,.17-.14.25-.22l.25-.22a4.67,4.67,0,0,1,1.1-.59A6.48,6.48,0,0,1,329.72,466.11Zm16.51-70.43a1.26,1.26,0,0,0-.76.59c-7.35,12.58-15,25.07-21.51,38.12-3.72,7.45-7.15,15.06-10.74,22.58-.12,0-.23-.07-.35,0a168,168,0,0,1-17.35,3.91,1.18,1.18,0,0,0-.94,1.38,1.21,1.21,0,0,0,1.38,1c5.35-1,10.67-2,15.91-3.48-.6,1.24-1.13,2.51-1.75,3.73a227.8,227.8,0,0,1-12.22,20.86c-12.31,19-24.86,37.88-37,57,0,0,0,0-.06,0-7.36,4.57-15.2,8.94-20.86,15.65a1.18,1.18,0,0,0,.16,1.66,1.16,1.16,0,0,0,1.66-.12c4.37-5.19,10.21-8.82,16-12.34C251,557,244.31,567.81,238,578.89c-.52.92-1,1.86-1.53,2.78,0,0-.06,0-.1-.06a1.28,1.28,0,0,0-1,.13c-3.82,2.12-8.21,3.4-11,7a1.21,1.21,0,0,0,.22,1.69,1.17,1.17,0,0,0,1.66-.22c2.13-2.69,5.39-3.9,8.45-5.32-4.79,8.61-9.44,17.31-13.81,26.15-4.1,8.29-7.9,16.71-11.84,25.08-6.62,14.1-13.26,28.18-18.91,42.69-4.16,10.67-7.76,21.68-9.43,33a1.19,1.19,0,1,0,2.35.34c1.69-11.52,5.46-22.63,9.68-33.44,5.51-14.15,12-27.86,18.47-41.59,3.93-8.36,7.75-16.78,11.84-25.06q8-16.23,17-32c18.51-32.38,39.64-63.15,59.91-94.43a230.06,230.06,0,0,0,12.34-21.07c4.86-9.57,9.05-19.49,13.84-29.1,6.48-13,14.13-25.43,21.45-38a1.25,1.25,0,0,0-.46-1.7A1.26,1.26,0,0,0,346.23,395.68Zm34.54-3.38a19.68,19.68,0,0,0,1.35,4.47c2.9,6,8.58,10,13.62,14.13a182.31,182.31,0,0,0-7.05,17.51,45.87,45.87,0,0,0-2,5.44q-1.61,4.53-3.29,9c-1.92,5.15-3.84,10.3-5.57,15.51a315.26,315.26,0,0,0-9.15,33.19c-.68,3.16-1.11,6.33-1.69,9.49a1.3,1.3,0,0,0-.84-.19c-1.86.3-3.7.69-5.55,1a4.78,4.78,0,0,0-.53-.06,8.14,8.14,0,0,0-2.13.37c-.25.08-1,.2-.72.25s0,0,.19.06c-3.58.7-7.16,1.36-10.74,2-1.29.23-2.63.45-3.95.66a6.8,6.8,0,0,1-1.44-.88,9.9,9.9,0,0,1,1.09.94l-1.34.19a5.17,5.17,0,0,1-2.16-.72.81.81,0,0,1-.25-.94c.67.57,2,1.68,1.56,1.19a19.88,19.88,0,0,0-1.47-1.47c0-.07.07-.13.09-.19,1.13.48-.06-.06.16-.44,0,0,0,0,0,0,1.05-2.92,2.07-5.86,3.13-8.77C354.58,460,367.86,426.21,380.77,392.3Zm6.33-17a64.17,64.17,0,0,0,4.63,17.35A72,72,0,0,0,399,405.1c-.67,1.19-1.38,2.36-2,3.57-4.68-3.78-10-7.42-12.68-12.93a19.33,19.33,0,0,1-1.57-5.1,1.1,1.1,0,0,0-1-.85l.12-.31C383.63,384.76,385.32,380,387.1,375.29Zm12.62-57.56a1.18,1.18,0,0,0-.72.56c-3.39,5.93-6.37,12.07-9.31,18.23-3.72,7.8-7.3,15.68-10.83,23.58-9.46,21.18-18.52,42.51-27.44,63.92-5.4,13-10.57,26.05-15.84,39.09-3.52-.44-2.78-.22-4.17-.57s2.54.36,3.79.66c.28.07-.56,0-.84.06l-1,.06a18.72,18.72,0,0,1-4.61-.18,4.85,4.85,0,0,1-1.28-.44c.06-.15.12-.29.19-.44s.37,0,0-.06c10.3-23.23,19.9-46.77,28.21-70.78,3.84-11.09,7.35-22.28,10.65-33.54a1.26,1.26,0,0,0-.84-1.57,1.29,1.29,0,0,0-1.57.88c-3.28,11.22-6.76,22.36-10.58,33.41-8.28,23.94-17.85,47.39-28.13,70.53a1.19,1.19,0,0,0-.88,1.35c0,.11.13.15.16.25q-7.31,16.39-15.06,32.6a3.48,3.48,0,0,0-.57,1.16c-.36.76-.7,1.53-1.06,2.29a1,1,0,0,0-.75,1.62c-.15.31-.29.61-.44.91-23.76,49-50.22,96.62-77,144-15.1,26.71-31.22,53.4-40.15,83-3.57,11.83-6.19,24.27-4.76,36.68a59.66,59.66,0,0,0,3.57,14.34,1.19,1.19,0,1,0,2.22-.85,57.8,57.8,0,0,1-3.41-13.78c-1.52-13.21,1.64-26.52,5.7-39,9.29-28.6,25-54.55,39.71-80.58q16-28.21,31.51-56.68h0a6,6,0,0,1,1.66-1c4.36-1.61,8.36,3.31,10.36,6.55a1.27,1.27,0,0,0,.82.56,102.18,102.18,0,0,0,9.8,11.12c-5.19,19.37-10.26,38.78-15.78,58.06-2,6.81-4,13.6-6.05,20.39-.3,1-.58,2-.88,3a7.18,7.18,0,0,0-1.28,4.48v0c-.33,1.17-.71,2.32-1,3.5-2.66,10.6-4.07,21.45-6.11,32.17-.6,3.18-1.31,6.33-2.07,9.49a32.16,32.16,0,0,1-1.87,6.23,11.75,11.75,0,0,1-1.79,2.72c-2.87,3.24-7.35,3.6-11.4,3.7-2.34.06-4.68,0-7,.16a28.32,28.32,0,0,0-7.52,1.53,43.65,43.65,0,0,0-14.53,9.18,72.19,72.19,0,0,0-15.76,21.58,1.29,1.29,0,0,0,.6,1.69,1.24,1.24,0,0,0,1.66-.57,68.35,68.35,0,0,1,16.57-22.11,39.87,39.87,0,0,1,12.3-7.39,26,26,0,0,1,6.86-1.41c7.06-.52,15.59,1.08,20.58-5.26a14.18,14.18,0,0,0,1.69-2.76,33.39,33.39,0,0,0,2.07-6.73c.77-3.19,1.45-6.36,2.06-9.58,2-10.67,3.43-21.49,6.08-32,.65-2.6,1.45-5.16,2.22-7.74,1.83-2.3,5.26-3.73,7.71-4.66.83-.32,1.64-.61,2.47-.91a97.33,97.33,0,0,1,12.56-3.48c4.72-1,9.51-1.87,14.31-2.44,2.25-.26,4.52-.44,6.8-.56,0,0,.05.06.09.06,4.59.52,9.2,1.6,12.44,5.14a14.35,14.35,0,0,1,1.44,2.09,51.74,51.74,0,0,0,8.39,14.75,1.2,1.2,0,0,0,1.69.13,1.17,1.17,0,0,0,.13-1.66,47.13,47.13,0,0,1-7.27-12.75,1.27,1.27,0,0,0-.06-.72c-.18-.32-.44-.59-.63-.9-.2-.52-.47-1-.66-1.51A124.58,124.58,0,0,1,321.7,666a195.79,195.79,0,0,1-4.16-27.81,32.09,32.09,0,0,1,8.64-9.27c6.21-4.68,13.72-8.29,21.49-9.3,5.69-.74,11.85.13,16,4.38a18.22,18.22,0,0,1,3.26,4.76,1.22,1.22,0,0,0,1.38.63,95.56,95.56,0,0,0,4.88,14,1.18,1.18,0,0,0,1.57.59,1.17,1.17,0,0,0,.59-1.56c-8.67-19.45-9.6-41.52-10.8-62.48a329.34,329.34,0,0,1,4-73.69,2,2,0,0,0,.4-2.26c.7-3.94,1.28-7.91,2.13-11.83a315.59,315.59,0,0,1,9.09-32.95c1.34-4,2.83-8,4.32-12-.44,4.87-.66,9.76-.91,14.54-1.1,20.92-.84,42.13,3.19,62.76A163.06,163.06,0,0,0,391,540.74a1.26,1.26,0,1,0,2.41-.72,160.76,160.76,0,0,1-4.07-16c-4.12-21-4.29-42.54-3.2-63.83.43-8.29.63-17,2.82-25.05.44-1.25.91-2.48,1.35-3.73a39,39,0,0,1,2-5,1.18,1.18,0,0,0,.1-.78,133.41,133.41,0,0,1,8.8-19.27s.09,0,.12,0a1.15,1.15,0,0,0,.44-1c.64-1.09,1.16-2.23,1.85-3.29a1.24,1.24,0,0,0-.38-1.72,1.22,1.22,0,0,0-.94-.19,1.28,1.28,0,0,0-.78.56c-.41.64-.7,1.33-1.09,2a65.52,65.52,0,0,1-9.43-19.2,64.71,64.71,0,0,1-2.1-12c0-.15-.12-.25-.19-.38,2.27-6.08,4.59-12.14,6.77-18.26,3.37-9.49,6.72-19,9.27-28.78a1.24,1.24,0,1,0-2.41-.62c-2.53,9.68-5.86,19.14-9.21,28.56-4.54,12.76-9.34,25.45-14.16,38.11-13.08,34.39-26.54,68.62-39.14,103.19-1.1,3-2.06,6-3.14,9l0,0c-.18-.1-.18.37-.25.56a4.65,4.65,0,0,0-.22.91c-3.63,10.17-7.29,20.32-10.58,30.6S319,555,317.1,565.55c-.6,3.3-1,6.65-1.35,10-1,9-1.31,18-1.47,27,0,1.71,0,3.42,0,5.14-.05.11-.14.19-.16.31a1.26,1.26,0,0,0,.16.63c0,3.45-.06,6.91,0,10.36,0,4.2,0,8.4.28,12.59.11,2,.43,4.07.6,6.11a3.11,3.11,0,0,0-.25.38,1.16,1.16,0,0,0,.43,1.53,197.66,197.66,0,0,0,4.54,28.66c.48,1.92,1,3.89,1.57,5.85a1.26,1.26,0,0,0-.72-.44,47.8,47.8,0,0,0-8.71-.4c-2.91.1-5.8.4-8.67.75a125.81,125.81,0,0,0-28.56,6.54,38.06,38.06,0,0,0-7,3.26c1.93-6.48,3.9-12.94,5.77-19.45,6.9-24.12,13.06-48.46,19.69-72.66,5.12-18.64,10.35-37.32,16.6-55.62,5.28-15.43,11.34-30.64,17.32-45.81q13.22-33.51,27.09-66.74c8.71-20.91,17.57-41.74,26.81-62.42,3.52-7.88,7.09-15.76,10.8-23.55,2.92-6.1,5.89-12.16,9.24-18a1.19,1.19,0,0,0-1.34-1.75Z"/><path class="cls-6" d="M370.18,357.71a105.55,105.55,0,0,1-27.84,31.53A80,80,0,0,1,322.94,400c-31.11,11.73-50.45,41.14-69.18,54.78S162.68,536.27,131.88,584.8s-39.67,88.08-16,103.39,53.8,22.17,110.86-15.49L273,640.41s7.55,4.64,33.18-8.59,92.47-200.18,100.16-248.88L409,366.83s11.87-25.33,11.3-27.12S395.11,317.45,370.18,357.71Z"/><path class="cls-5" d="M264.87,619.54c.08.68.23,1.35.33,2a16.87,16.87,0,0,0-1.94-1.52A1.34,1.34,0,0,0,264.87,619.54Zm10.79-56.3a35.62,35.62,0,0,1,3.92,1.23,140,140,0,0,1,26.1,12.22,38.78,38.78,0,0,0-4.78-.7,59.28,59.28,0,0,0-25.09,3.78,34.86,34.86,0,0,0-7.94,4.32c.13-.93.14-1.88.29-2.81.55-3.58,1.31-7.14,2.06-10.68.58-2.72,1.22-5.42,1.84-8.13ZM228.17,526.6a43.45,43.45,0,0,0,1.61,5.44,10.21,10.21,0,0,0-4.27-1.9,9.08,9.08,0,0,0-1,0C225.69,528.93,227,527.78,228.17,526.6ZM337.9,483.53a2.88,2.88,0,0,1,.49.11,16.3,16.3,0,0,1,3.69,2.38c.18.14.4.25.59.38a240.67,240.67,0,0,0-18.05,62.79c-1.82,12.37-3.61,25-3,37.74a17.49,17.49,0,0,0-1.43-2.3,18.84,18.84,0,0,0-5.53-4.69A144.91,144.91,0,0,0,282,563c-1.76-.64-3.52-1.29-5.33-1.77-1.38-.36-2.77-.57-4.15-.89.35-1.55.68-3.1,1.06-4.65a204.94,204.94,0,0,1,6.35-21.39c1-2.71,2-5.42,3.25-8.05,4-8.46,9.26-16.45,14.55-24.31,4.71-7,9.64-13.92,14.62-20.79,1.13.25,2.28.41,3.44.57.18.07.35.17.53.23s.61.22.92.31,1,.53.89.29c-.39-.67-.21-.43-.23-.5l.26,0c.27.28.52.61.77.67a1.21,1.21,0,0,0,1.37-.5l4.22.32C329,482.93,333.44,483.22,337.9,483.53Zm-53.19-13.9c2.38,2.13,4.94,4.12,7.32,6.26a1.67,1.67,0,0,0,.53.23c-5.47,7-10.87,14.11-16,21.35-10,14.13-19,28.81-27.8,43.51-1.84,3.06-3.62,6.15-5.45,9.23-6.05-7.76-11.27-16-13.06-25,0-.15-.17-.25-.26-.37,18.61-18,36.87-36.2,54.42-54.93Zm9.34,2.66c-.76-1.21-1.27-2.68-2.7-3.17S291.29,469.27,294.05,472.29Zm18.57-28.45a19.53,19.53,0,0,1,2,.48l.79.23c.27.08,1.07.27.8.26-2.61,0,0,0,.79.26.07,0,.14,0,.21,0-4.92,6.13-9.95,12.19-14.79,18.35-2.31,2.93-4.6,5.88-6.9,8.82a1.24,1.24,0,0,0-1.09.46c-.19-.22-.24-.2-.42-.4.12.18.23.39.36.55s-.18.07-.19.07a4.79,4.79,0,0,1-2.34-1.1,12.58,12.58,0,0,1-3.48-3.62,3.91,3.91,0,0,1-.68-1.86l.49-.53c1.11,1.19.26.24.13-.11q9.71-10.47,19.09-21.16a1.38,1.38,0,0,0,1-.12c4.32.32,2.6.22,4.31.34,1.34.1-2.68-.29-4-.52-.11,0,.2-.09.3-.13l.3-.13a5.13,5.13,0,0,1,1.25-.25A7.91,7.91,0,0,1,312.62,443.84Zm30.37-56a1.32,1.32,0,0,0-.89.33c-10,9-20.27,17.84-29.47,27.43-5.25,5.48-10.24,11.15-15.38,16.71a1.42,1.42,0,0,0-.35-.11c-6.23.17-12.44-.28-18.7-.66a1.05,1.05,0,0,0-1.23.95,1.25,1.25,0,0,0,1.24,1.14c5.74.36,11.43.74,17.13.71-.86.91-1.65,1.86-2.52,2.76A193.89,193.89,0,0,1,276.24,452c-16.33,13.31-32.88,26.46-49.07,39.9,0,0,0,0-.07,0-8.48,2.19-17.43,4.1-24.55,8.5a.91.91,0,0,0-.15,1.45,1.44,1.44,0,0,0,1.74.27c5.51-3.4,12.23-5.14,18.9-6.8-9.07,7.6-18,15.29-26.66,23.25-.72.66-1.41,1.35-2.12,2l-.08-.07a1.66,1.66,0,0,0-1-.12c-4.37.93-9.15,1-12.73,3.37a.94.94,0,0,0-.09,1.49,1.44,1.44,0,0,0,1.76.19c2.71-1.79,6.32-2.07,9.76-2.57-6.59,6.21-13,12.53-19.23,19-5.81,6.11-11.34,12.38-17,18.59-9.51,10.44-19,20.88-27.63,31.91-6.32,8.1-12.13,16.63-16,25.89a1.09,1.09,0,0,0,.79,1.38,1.25,1.25,0,0,0,1.58-.55c3.93-9.39,9.92-18,16.33-26.18,8.37-10.75,17.7-20.9,27-31.08,5.65-6.19,11.18-12.47,17-18.56Q186,531.33,198.32,520c25.27-23.24,53-44.52,79.84-66.43a196.15,196.15,0,0,0,16.75-15.06c6.83-7,13-14.47,19.82-21.53,9.16-9.55,19.42-18.35,29.37-27.31a1,1,0,0,0-.17-1.54A1.54,1.54,0,0,0,343,387.81Zm36.4,5.07a15.29,15.29,0,0,0,.55,4.11c1.87,5.8,7,10.43,11.44,15.13a145.29,145.29,0,0,0-10.59,13.25,33.85,33.85,0,0,0-3.07,4.17q-2.52,3.48-5.11,6.91c-3,3.92-5.91,7.86-8.69,11.88a236.85,236.85,0,0,0-15.73,26.1c-1.3,2.52-2.34,5.11-3.54,7.67a1.53,1.53,0,0,0-.84-.36c-2-.17-4-.26-5.94-.39-.18-.05-.35-.14-.54-.18a10.86,10.86,0,0,0-2.27-.17c-.27,0-1.05-.06-.79.05s0,0,.18.09c-3.83-.22-7.67-.49-11.5-.76-1.38-.1-2.8-.23-4.21-.35a7.69,7.69,0,0,1-1.33-1.08,13.24,13.24,0,0,1,1,1.05c-.48,0-.95-.09-1.43-.15a6,6,0,0,1-2.1-1.1.64.64,0,0,1-.08-.86c.58.64,1.75,1.89,1.39,1.37s-1-1.33-1.24-1.59a1.66,1.66,0,0,1,.13-.14c1.08.67-.06-.06.24-.33,0,0,0,0,0,0,1.64-2.24,3.24-4.5,4.9-6.73C339.51,444.35,359.63,418.72,379.39,392.88Zm9.76-13a48.32,48.32,0,0,0,1.53,15.8,60.8,60.8,0,0,0,5.14,12.25c-.92.85-1.88,1.68-2.75,2.57-4.14-4.29-9-8.61-10.7-13.9a14.59,14.59,0,0,1-.65-4.7c0-.45-.4-.77-.88-.94l.19-.24C383.77,387.13,386.42,383.49,389.15,379.89Zm23.92-46a1.27,1.27,0,0,0-.85.31c-4.62,4.26-8.87,8.79-13.07,13.34-5.33,5.78-10.52,11.65-15.66,17.54-13.79,15.82-27.19,31.85-40.46,48-8,9.78-15.86,19.7-23.78,29.55a32.24,32.24,0,0,1-4.21-1.44c-1.23-.55,2.57.89,3.8,1.43.28.12-.59-.09-.89-.14l-1-.17a23.8,23.8,0,0,1-4.73-1.21,6,6,0,0,1-1.25-.67l.28-.33s.38.09,0-.05c15.05-17.36,29.43-35.14,42.56-53.63,6.07-8.53,11.81-17.23,17.35-26a1.08,1.08,0,0,0-.58-1.52,1.4,1.4,0,0,0-1.78.38c-5.52,8.78-11.22,17.44-17.27,25.95-13.08,18.42-27.41,36.14-42.41,53.44-.65,0-1.18.39-1.16.94,0,.1.1.16.11.25q-10.67,12.26-21.74,24.23a2.94,2.94,0,0,0-.81.85c-.52.56-1,1.14-1.53,1.7a1.28,1.28,0,0,0-.82.18.82.82,0,0,0-.27,1l-.62.67C248.47,504.64,212.1,539,175.42,573.08c-20.67,19.22-42.4,38.18-57.22,61.24-5.92,9.22-11,19.19-11.84,30a44.75,44.75,0,0,0,1,13,1.36,1.36,0,0,0,1.46.93,1,1,0,0,0,1-1.14,42.93,42.93,0,0,1-.93-12.49c.91-11.57,6.7-22.15,13.26-31.83,15-22.16,36.14-40.59,56.31-59.32q21.86-20.28,43.31-40.9h0a6.7,6.7,0,0,1,1.92-.5c4.82-.37,8,4.74,9.49,7.94a1.35,1.35,0,0,0,.74.67,99.4,99.4,0,0,0,8.05,11.7c-9,15.26-17.93,30.58-27.29,45.68-3.3,5.34-6.73,10.63-10.1,15.93-.5.78-1,1.57-1.47,2.35a5.45,5.45,0,0,0-2.18,3.51v0c-.57.92-1.17,1.81-1.7,2.75-4.75,8.38-8.26,17.27-12.39,25.91-1.23,2.57-2.55,5.08-3.93,7.59a24.62,24.62,0,0,1-3.12,4.86,10,10,0,0,1-2.36,1.9c-3.58,2.09-8.3,1.37-12.5.52-2.43-.49-4.85-1.09-7.3-1.48a35.33,35.33,0,0,0-8.07-.42A48.53,48.53,0,0,0,132.81,666a64.9,64.9,0,0,0-20.38,14.7,1,1,0,0,0,.29,1.58,1.45,1.45,0,0,0,1.83-.1,62.2,62.2,0,0,1,21.32-15A45,45,0,0,1,150,663.79a32.65,32.65,0,0,1,7.37.38c7.4,1.18,15.93,4.5,22.29.26a12.61,12.61,0,0,0,2.27-1.95,25.59,25.59,0,0,0,3.41-5.24c1.4-2.54,2.71-5.07,4-7.67,4.11-8.6,7.6-17.46,12.33-25.81,1.17-2.06,2.48-4.06,3.76-6.06,2.33-1.54,6.15-2,8.86-2.19l2.73-.21a122,122,0,0,1,13.66-.06c5.09.21,10.2.59,15.28,1.21,2.38.29,4.76.67,7.14,1.08,0,0,.05.07.09.08,4.65,1.5,9.23,3.48,11.9,7.22a12.48,12.48,0,0,1,1.1,2.11,43.75,43.75,0,0,0,5.91,14.46,1.5,1.5,0,0,0,1.73.5.9.9,0,0,0,.44-1.38,39.94,39.94,0,0,1-5.12-12.5.86.86,0,0,0,.07-.63c-.13-.31-.34-.6-.48-.91-.11-.48-.3-1-.39-1.43a93.08,93.08,0,0,1-1.67-13.32,141,141,0,0,1,.93-24.58,31.18,31.18,0,0,1,10.69-5.89,55.33,55.33,0,0,1,24-3c6,.68,12.25,2.84,15.78,7.41a15.83,15.83,0,0,1,2.47,4.79,1.41,1.41,0,0,0,1.31.85,74.3,74.3,0,0,0,2.42,13,1.37,1.37,0,0,0,1.51.86,1,1,0,0,0,.91-1.19c-5.31-18.52-2.11-37.48.6-55.55a236.14,236.14,0,0,1,18-61.67,1.55,1.55,0,0,0,.85-1.82c1.46-3.2,2.81-6.43,4.44-9.57a237.15,237.15,0,0,1,15.61-25.89c2.16-3.12,4.45-6.16,6.74-9.2-1.37,4-2.52,8.14-3.68,12.14-5.09,17.52-8.82,35.59-8.53,54a122.86,122.86,0,0,0,1.21,14.78,1.4,1.4,0,0,0,1.46,1.08c.73,0,1.26-.53,1.17-1.14a120.92,120.92,0,0,1-1.19-14.55c-.31-18.77,3.59-37.12,8.73-54.95,2-6.94,3.85-14.27,7.64-20.63.69-1,1.4-1.9,2.1-2.86a29.52,29.52,0,0,1,3.06-3.81.87.87,0,0,0,.24-.64,106.92,106.92,0,0,1,12.75-14.34s.09,0,.13,0a.93.93,0,0,0,.65-.77c.86-.78,1.62-1.63,2.53-2.37a1,1,0,0,0-.06-1.55,1.59,1.59,0,0,0-.94-.38,1.41,1.41,0,0,0-.92.3c-.54.45-1,1-1.5,1.43a53.51,53.51,0,0,1-6.14-18.48,47.3,47.3,0,0,1,.08-10.64c0-.13-.08-.24-.12-.36,3.49-4.65,7-9.26,10.44-14a266.28,266.28,0,0,0,15-22.31,1.07,1.07,0,0,0-.62-1.5,1.39,1.39,0,0,0-1.76.41,262.45,262.45,0,0,1-14.92,22.15c-7.11,9.79-14.47,19.47-21.84,29.11-20,26.21-40.42,52.19-60,78.65-1.7,2.29-3.27,4.65-4.95,6.94l0,0c-.17-.13-.26.27-.37.42a3.39,3.39,0,0,0-.4.72c-5.68,7.8-11.38,15.58-16.73,23.56s-10.68,16-14.68,24.59c-1.25,2.67-2.27,5.42-3.28,8.18a216.48,216.48,0,0,0-6.61,22.56c-.35,1.45-.66,2.91-1,4.36-.07.08-.18.12-.22.23a.9.9,0,0,0,.05.56c-.68,2.93-1.37,5.86-2,8.8-.76,3.58-1.53,7.14-2.08,10.76-.27,1.76-.33,3.55-.54,5.32-.1.1-.23.17-.33.26a.93.93,0,0,0,.17,1.41,142.36,142.36,0,0,0-.71,25.38c.13,1.75.32,3.54.52,5.34a1.32,1.32,0,0,0-.66-.54,60.91,60.91,0,0,0-8.94-2.35c-3-.58-6.09-1-9.12-1.36a159.16,159.16,0,0,0-30.81-1,44.47,44.47,0,0,0-7.85,1.16c3.22-5.06,6.48-10.1,9.64-15.19,11.69-18.91,22.66-38.16,34.09-57.19,8.81-14.66,17.75-29.32,27.68-43.42,8.37-11.9,17.51-23.42,26.57-34.94q20-25.41,40.63-50.45c13-15.76,26.06-31.41,39.53-46.86,5.13-5.88,10.31-11.75,15.63-17.51,4.16-4.52,8.39-9,13-13.2a1,1,0,0,0-.14-1.49A1.57,1.57,0,0,0,413.07,333.9Z"/><path class="cls-4" d="M476.34,355.13s5.05,22.42,19.18,42.32a83.05,83.05,0,0,0,15.67,16.86c26.24,20.9,38,58.72,52.48,78.7s67.17,114.17,85.6,176.3,18.52,108.71-6.43,120-54.05,11.48-98.87-45l-36-47.75s-7.9,3.32-28.78-17.9S435,431,437.86,374.42l.88-18.73s-5.75-31.38-4.87-33.24S461.61,303.75,476.34,355.13Z"/><path class="cls-5" d="M519.77,675.16c-.22.74-.49,1.45-.72,2.19a15.72,15.72,0,0,1,2.1-1.22A1.25,1.25,0,0,1,519.77,675.16Zm1.57-65.86a27.91,27.91,0,0,0-3.86.4A112.07,112.07,0,0,0,491,616.91a31.26,31.26,0,0,1,4.54.4,50.56,50.56,0,0,1,22.33,10.5,35.78,35.78,0,0,1,6.42,6.82c.07-1.07.25-2.15.31-3.22.23-4.16.25-8.34.28-12.5,0-3.19,0-6.39,0-9.58C523.66,609.32,522.5,609.3,521.34,609.3ZM572.54,580a53.44,53.44,0,0,1-2.6,5.7,8.13,8.13,0,0,1,4.32-1.06,6.77,6.77,0,0,1,1,.22C574.35,583.24,573.42,581.64,572.54,580Zm-92.2-75.66a3.69,3.69,0,0,0-.47,0A13.57,13.57,0,0,0,476,506.1c-.2.12-.42.19-.63.29a336.1,336.1,0,0,1,3.79,74.94c-.86,14.33-1.8,29-5,43.09A17.22,17.22,0,0,1,476,622.2a16.85,16.85,0,0,1,6-3.88,117.28,117.28,0,0,1,33.54-10.84,46.66,46.66,0,0,1,5.26-.66c1.35-.06,2.68,0,4,0,0-1.82,0-3.65,0-5.48-.16-8.55-.55-17.08-1.47-25.58-.36-3.29-.75-6.59-1.35-9.84-1.92-10.49-5.16-20.77-8.42-30.91-2.91-9-6-18-9.21-27-1.09,0-2.19-.11-3.29-.22a5,5,0,0,1-.53.12l-.91.13c-.29,0-1.05.33-.88.09.5-.65.28-.43.32-.5l-.25,0c-.3.24-.6.55-.85.56a1.17,1.17,0,0,1-1.16-.9l-3.94-.69C488.67,505.89,484.51,505.11,480.34,504.35Zm51.8-2.35c-2.62,1.81-5.39,3.39-8,5.2a1.22,1.22,0,0,1-.53.13c3.59,9.26,7.12,18.54,10.34,27.93,6.28,18.35,11.56,37.06,16.69,55.75,1.07,3.9,2.08,7.81,3.13,11.71,7.16-7.19,13.64-15.12,17.13-24.77.06-.16.2-.23.31-.35-13.45-24.8-26.54-49.8-38.86-75.19C532.26,502.27,532.21,502.14,532.14,502Zm-9.14.66c.94-1.16,1.71-2.69,3.13-2.88S526.15,500,523,502.66Zm-11.28-36.55a16.13,16.13,0,0,0-2,0l-.78.07c-.27,0-1,0-.79.09,2.41.6,0,0-.78.09-.07,0-.12-.06-.19-.06,3.27,8.1,6.66,16.15,9.87,24.27,1.52,3.87,3,7.75,4.54,11.62a1.24,1.24,0,0,1,.91.78c.22-.19.26-.16.47-.34-.15.17-.29.38-.44.53s.15.13.15.13a3.9,3.9,0,0,0,2.38-.66,12,12,0,0,0,3.95-3.19,4.72,4.72,0,0,0,1-1.92l-.34-.72c-1.27,1.06-.29.2-.1-.15q-6.79-14.16-13.24-28.5a1.12,1.12,0,0,1-.88-.38c-4-.71-2.44-.39-4-.69-1.25-.22,2.52.34,3.79.41.11,0-.17-.14-.25-.22l-.25-.22a4.48,4.48,0,0,0-1.1-.59A6.48,6.48,0,0,0,511.72,466.11Zm-16.5-70.43a1.25,1.25,0,0,1,.75.59c7.35,12.58,15,25.07,21.51,38.12,3.72,7.45,7.15,15.06,10.75,22.58.11,0,.22-.07.34,0a168.59,168.59,0,0,0,17.35,3.91,1.18,1.18,0,0,1,.94,1.38,1.2,1.2,0,0,1-1.38,1c-5.35-1-10.66-2-15.91-3.48.6,1.24,1.14,2.51,1.76,3.73a230,230,0,0,0,12.21,20.86c12.31,19,24.86,37.88,37,57,0,0,0,0,.06,0,7.36,4.57,15.2,8.94,20.86,15.65a1.18,1.18,0,0,1-.16,1.66,1.16,1.16,0,0,1-1.66-.12c-4.37-5.19-10.2-8.82-16-12.34,6.79,10.79,13.47,21.65,19.79,32.73.53.92,1,1.86,1.54,2.78,0,0,0,0,.09-.06a1.28,1.28,0,0,1,1,.13c3.83,2.12,8.21,3.4,11,7a1.21,1.21,0,0,1-.22,1.69,1.16,1.16,0,0,1-1.65-.22c-2.14-2.69-5.4-3.9-8.46-5.32,4.8,8.61,9.45,17.31,13.81,26.15,4.1,8.29,7.9,16.71,11.84,25.08,6.62,14.1,13.26,28.18,18.91,42.69,4.16,10.67,7.76,21.68,9.43,33a1.19,1.19,0,0,1-1,1.35,1.2,1.2,0,0,1-1.35-1c-1.69-11.52-5.46-22.63-9.67-33.44-5.52-14.15-12-27.86-18.48-41.59-3.93-8.36-7.74-16.78-11.84-25.06q-8-16.23-17-32c-18.5-32.38-39.64-63.15-59.91-94.43a232.37,232.37,0,0,1-12.34-21.07c-4.85-9.57-9.05-19.49-13.84-29.1-6.48-13-14.12-25.43-21.45-38a1.24,1.24,0,0,1,.47-1.7A1.26,1.26,0,0,1,495.22,395.68Zm-34.55-3.38a20.17,20.17,0,0,1-1.34,4.47c-2.9,6-8.58,10-13.63,14.13a182.31,182.31,0,0,1,7.05,17.51,44.17,44.17,0,0,1,2,5.44q1.61,4.53,3.29,9c1.93,5.15,3.84,10.3,5.58,15.51a317.65,317.65,0,0,1,9.14,33.19c.68,3.16,1.11,6.33,1.69,9.49a1.31,1.31,0,0,1,.85-.19c1.85.3,3.69.69,5.54,1a4.78,4.78,0,0,1,.53-.06,8.14,8.14,0,0,1,2.13.37c.25.08,1,.2.72.25s0,0-.19.06c3.58.7,7.16,1.36,10.75,2,1.28.23,2.62.45,3.94.66a6.56,6.56,0,0,0,1.44-.88,9.9,9.9,0,0,0-1.09.94l1.34.19a5.08,5.08,0,0,0,2.16-.72.83.83,0,0,0,.26-.94c-.68.57-2,1.68-1.57,1.19s1.22-1.24,1.47-1.47c0-.07-.07-.13-.09-.19-1.13.48.06-.06-.16-.44,0,0,0,0,0,0-1.05-2.92-2.07-5.86-3.13-8.77C486.86,460,473.58,426.21,460.67,392.3Zm-6.32-17a64.56,64.56,0,0,1-4.64,17.35,72,72,0,0,1-7.23,12.46c.67,1.19,1.38,2.36,2,3.57,4.68-3.78,10-7.42,12.69-12.93a19.31,19.31,0,0,0,1.56-5.1,1.1,1.1,0,0,1,1-.85l-.12-.31C457.82,384.76,456.12,380,454.35,375.29Zm-12.62-57.56a1.24,1.24,0,0,1,.72.56c3.38,5.93,6.36,12.07,9.3,18.23,3.72,7.8,7.31,15.68,10.83,23.58C472,381.28,481.1,402.61,490,424c5.4,13,10.57,26.05,15.84,39.09,3.52-.44,2.78-.22,4.17-.57s-2.54.36-3.79.66c-.28.07.56,0,.85.06s.64.05,1,.06a18.64,18.64,0,0,0,4.6-.18,4.73,4.73,0,0,0,1.28-.44l-.18-.44s-.38,0,0-.06c-10.31-23.23-19.91-46.77-28.22-70.78-3.84-11.09-7.35-22.28-10.65-33.54a1.25,1.25,0,1,1,2.41-.69c3.29,11.22,6.76,22.36,10.59,33.41,8.28,23.94,17.85,47.39,28.12,70.53a1.18,1.18,0,0,1,.88,1.35c0,.11-.13.15-.16.25q7.31,16.39,15.06,32.6a3.48,3.48,0,0,1,.57,1.16c.36.76.7,1.53,1.06,2.29a1,1,0,0,1,.75,1.62c.15.31.3.61.44.91,23.76,49,50.22,96.62,77,144,15.1,26.71,31.22,53.4,40.15,83,3.57,11.83,6.19,24.27,4.76,36.68a59.66,59.66,0,0,1-3.57,14.34,1.19,1.19,0,1,1-2.22-.85,56.86,56.86,0,0,0,3.41-13.78c1.52-13.21-1.64-26.52-5.7-39-9.29-28.6-25-54.55-39.71-80.58q-16-28.21-31.5-56.68h0a6.26,6.26,0,0,0-1.66-1c-4.37-1.61-8.37,3.31-10.37,6.55a1.27,1.27,0,0,1-.82.56,102.18,102.18,0,0,1-9.8,11.12c5.2,19.37,10.26,38.78,15.79,58.06,1.95,6.81,4,13.6,6,20.39.3,1,.58,2,.88,3a7.18,7.18,0,0,1,1.28,4.48v0c.33,1.17.71,2.32,1,3.5,2.66,10.6,4.07,21.45,6.11,32.17.61,3.18,1.31,6.33,2.07,9.49a31.51,31.51,0,0,0,1.88,6.23,11.4,11.4,0,0,0,1.78,2.72c2.87,3.24,7.36,3.6,11.4,3.7,2.34.06,4.69,0,7,.16a28.33,28.33,0,0,1,7.51,1.53,43.65,43.65,0,0,1,14.53,9.18,72.19,72.19,0,0,1,15.76,21.58,1.29,1.29,0,0,1-.6,1.69,1.24,1.24,0,0,1-1.66-.57,68.46,68.46,0,0,0-16.56-22.11,40,40,0,0,0-12.31-7.39,25.93,25.93,0,0,0-6.86-1.41c-7.06-.52-15.59,1.08-20.58-5.26a15.23,15.23,0,0,1-1.69-2.76,34,34,0,0,1-2.06-6.73c-.77-3.19-1.46-6.36-2.07-9.58-2-10.67-3.43-21.49-6.08-32-.65-2.6-1.45-5.16-2.22-7.74-1.83-2.3-5.26-3.73-7.71-4.66-.82-.32-1.64-.61-2.47-.91a97.33,97.33,0,0,0-12.56-3.48c-4.72-1-9.51-1.87-14.31-2.44-2.25-.26-4.52-.44-6.8-.56,0,0,0,.06-.09.06-4.58.52-9.2,1.6-12.43,5.14a13.61,13.61,0,0,0-1.44,2.09,51.77,51.77,0,0,1-8.4,14.75A1.2,1.2,0,0,1,507,698a1.16,1.16,0,0,1-.12-1.66,47.09,47.09,0,0,0,7.26-12.75,1.19,1.19,0,0,1,.07-.72c.18-.32.43-.59.62-.9.2-.52.47-1,.66-1.51A124.58,124.58,0,0,0,519.74,666a195.79,195.79,0,0,0,4.16-27.81,32.09,32.09,0,0,0-8.64-9.27c-6.21-4.68-13.72-8.29-21.48-9.3-5.69-.74-11.86.13-16,4.38a18.22,18.22,0,0,0-3.26,4.76,1.22,1.22,0,0,1-1.37.63,96.8,96.8,0,0,1-4.89,14,1.18,1.18,0,0,1-2.16-1c8.67-19.45,9.6-41.52,10.8-62.48a329.93,329.93,0,0,0-4-73.69,2,2,0,0,1-.41-2.26c-.7-3.94-1.28-7.91-2.13-11.83a315.55,315.55,0,0,0-9.08-32.95c-1.35-4-2.84-8-4.33-12,.44,4.87.66,9.76.91,14.54,1.11,20.92.85,42.13-3.19,62.76a163.06,163.06,0,0,1-4.14,16.28,1.26,1.26,0,1,1-2.41-.72,158.06,158.06,0,0,0,4.07-16c4.12-21,4.29-42.54,3.2-63.83-.43-8.29-.63-17-2.82-25.05-.44-1.25-.9-2.48-1.35-3.73a37.64,37.64,0,0,0-2-5,1.18,1.18,0,0,1-.1-.78,133.41,133.41,0,0,0-8.8-19.27s-.08,0-.12,0a1.15,1.15,0,0,1-.44-1c-.64-1.09-1.16-2.23-1.85-3.29a1.25,1.25,0,0,1,.38-1.72,1.22,1.22,0,0,1,.94-.19,1.28,1.28,0,0,1,.78.56c.41.64.7,1.33,1.1,2a65.74,65.74,0,0,0,9.42-19.2,64.71,64.71,0,0,0,2.1-12c0-.15.13-.25.19-.38-2.27-6.08-4.59-12.14-6.77-18.26-3.37-9.49-6.72-19-9.27-28.78a1.25,1.25,0,0,1,.88-1.53,1.27,1.27,0,0,1,1.54.91c2.52,9.68,5.85,19.14,9.2,28.56,4.55,12.76,9.34,25.45,14.16,38.11,13.08,34.39,26.54,68.62,39.15,103.19,1.09,3,2.05,6,3.13,9l0,0c.18-.1.18.37.25.56a4,4,0,0,1,.22.91c3.63,10.17,7.29,20.32,10.58,30.6s6.56,20.66,8.49,31.26c.61,3.3,1,6.65,1.35,10,1,9,1.31,18,1.47,27,0,1.71,0,3.42,0,5.14,0,.11.14.19.16.31a1.16,1.16,0,0,1-.16.63c0,3.45.06,6.91,0,10.36,0,4.2-.05,8.4-.28,12.59-.11,2-.42,4.07-.59,6.11.07.13.18.24.25.38a1.17,1.17,0,0,1-.44,1.53,196.3,196.3,0,0,1-4.54,28.66c-.47,1.92-1,3.89-1.57,5.85a1.26,1.26,0,0,1,.72-.44,47.8,47.8,0,0,1,8.71-.4c2.91.1,5.8.4,8.67.75a126,126,0,0,1,28.57,6.54,38.28,38.28,0,0,1,7,3.26c-1.93-6.48-3.9-12.94-5.76-19.45-6.9-24.12-13.07-48.46-19.7-72.66C543.13,573,537.9,554.34,531.64,536c-5.28-15.43-11.34-30.64-17.32-45.81q-13.22-33.51-27.09-66.74c-8.7-20.91-17.57-41.74-26.81-62.42-3.52-7.88-7.09-15.76-10.8-23.55-2.91-6.1-5.89-12.16-9.24-18a1.19,1.19,0,0,1,.44-1.63A1.21,1.21,0,0,1,441.73,317.73Z"/><path class="cls-6" d="M547.47,389.48s17.13,12.37,37.12,17.7a63.49,63.49,0,0,0,18.78,2.36c26.65-1.06,57.18,17.9,77.38,23.1s107.82,38.75,157.5,70.43,80.11,63.49,75.09,85.79S894,628.34,834.92,616l-49-11.59s-1.76,6.9-26,4.61S576.44,465.53,541,425.18l-11.78-13.31s-23.33-18.1-24.11-19.89S506.64,363,547.47,389.48Z"/><path class="cls-5" d="M777.81,582.85c.38.63.71,1.28,1.08,1.92a13.81,13.81,0,0,1,.24-2.06A.89.89,0,0,1,777.81,582.85Zm-42.19-45.94a17.47,17.47,0,0,0-1.65,2.53,81.32,81.32,0,0,0-8.46,20.45,18.82,18.82,0,0,1,2.52-2.38c5-3.77,11.4-5.66,17.93-5.9a27.71,27.71,0,0,1,7.64.91c-.67-.78-1.28-1.61-2-2.38-2.61-3-5.32-5.85-8-8.71-2.07-2.2-4.17-4.36-6.26-6.54C736.79,535.57,736.21,536.23,735.62,536.91Zm6.3-50c.9,1.79,1.72,3.59,2.43,5.41a5.77,5.77,0,0,1,1.45-3.25,4.49,4.49,0,0,1,.62-.42C744.92,488.08,743.42,487.52,741.92,486.93Zm-95.11,2.22c-.07.1-.18.16-.23.27a10.93,10.93,0,0,0-.79,3.48c0,.19-.09.37-.12.56a387.11,387.11,0,0,1,50.77,49c8.93,10.3,18,20.88,25.65,32.38a20.7,20.7,0,0,1-.57-2.57,15.17,15.17,0,0,1,.47-6.19,87.49,87.49,0,0,1,9.57-27,31.53,31.53,0,0,1,2.18-3.53c.63-.83,1.36-1.53,2-2.33-1.2-1.24-2.38-2.5-3.59-3.73-5.66-5.75-11.42-11.35-17.42-16.63-2.32-2-4.67-4.06-7.09-5.93a259.1,259.1,0,0,0-24.35-16.2c-7.34-4.48-14.74-8.79-22.16-13a18.48,18.48,0,0,1-1.77,1.77c-.07.13-.11.28-.18.4l-.37.62c-.13.19-.31.84-.38.58-.18-.74-.14-.46-.17-.53l-.14.13a2,2,0,0,1,0,.88.85.85,0,0,1-1.17.05l-2.41,1.84C652,485.33,649.37,487.23,646.81,489.15ZM671,457.23c-.13,2.77-.46,5.48-.59,8.25a.91.91,0,0,1-.18.4c7.82,4.23,15.63,8.51,23.35,13.05,15.09,8.86,29.91,18.56,44.66,28.34,3.07,2,6.12,4.12,9.19,6.17-1.14-9.1-3.1-18.31-7.66-27a1,1,0,0,1-.07-.41C716.82,477,694,467.55,671.34,457.4Zm-4.11,5.8c-.29-1.34-.9-2.84-.33-3.8S666.67,459.34,666.87,463Zm-29.44-18.38a9.79,9.79,0,0,0-1,1.17l-.35.5c-.11.17-.49.63-.32.52,1.58-1,0,0-.33.53,0,0-.1,0-.13.06,6.9,3.63,13.84,7.15,20.73,10.82l9.83,5.29a.9.9,0,0,1,1,0c0-.26,0-.27,0-.51,0,.21.11.43.13.62s.15,0,.16,0c.51-.31.65-1.25.75-1.84a11.44,11.44,0,0,0-.13-4.5,5.39,5.39,0,0,0-.75-1.89l-.64-.29c.06,1.46,0,.3-.15-.05q-12.6-5.7-25.16-11.73a.73.73,0,0,1-.68.25c-2.47,1.88-1.47,1.16-2.46,1.9-.76.57,1.48-1.25,2.15-1.94.06-.06-.18,0-.27,0h-.27a3,3,0,0,0-.93.23A3.88,3.88,0,0,0,637.43,444.65Zm-54.14-38.5a.87.87,0,0,1,.76,0c11.85,4.29,23.8,8.35,35.54,13.46,6.71,2.93,13.37,6.12,20.06,9.16.06-.07.07-.18.15-.23A98.19,98.19,0,0,0,651,421a1,1,0,0,1,1.37.39,1.08,1.08,0,0,1-.05,1.47,118.15,118.15,0,0,1-10.16,6.93c1.1.49,2.19,1.05,3.3,1.52a207.25,207.25,0,0,0,19.67,7.12c18.51,5.79,37,11.35,55.55,17.3,0,0,0,0,0,0,6.64-1.17,13.38-2.78,20.57-1.49a1.31,1.31,0,0,1,1,1.22.78.78,0,0,1-.9.89c-5.56-1-10.82-.06-16,.93,10.41,3.4,20.8,6.91,31.17,10.79.86.32,1.72.68,2.58,1,0,0,0-.07,0-.1a.78.78,0,0,1,.56-.48c3.29-.79,6.29-2.48,10-1.7a1.38,1.38,0,0,1,1,1.28.77.77,0,0,1-1,.82c-2.81-.59-5.22.49-7.67,1.31,8,3.08,16,6.31,23.92,9.8,7.44,3.27,14.82,6.8,22.24,10.22,12.48,5.76,25,11.5,37.23,18.11a160.3,160.3,0,0,1,26.24,17.08,1.24,1.24,0,0,1,.38,1.5.85.85,0,0,1-1.32.11c-8.36-6.89-17.48-12.28-26.63-17.21-12-6.44-24.14-12-36.3-17.62-7.4-3.41-14.79-6.94-22.22-10.2q-14.58-6.4-29.31-11.89c-30.31-11.3-60.87-20-91.33-29.5a207.78,207.78,0,0,1-19.88-7.18c-8.65-3.71-17.2-8-25.85-11.79-11.69-5.1-23.6-9.13-35.41-13.4a1.42,1.42,0,0,1-.87-1.43A.86.86,0,0,1,583.29,406.15Zm-19.35,17.9a24.73,24.73,0,0,1,2.26,3.85c2.5,5.83,2.24,11.83,2.45,17.63,5.05,2.28,10,5,14.92,7.84A45.39,45.39,0,0,1,588.1,456c2.5,1.43,5,2.85,7.52,4.24,4.31,2.39,8.62,4.79,12.88,7.33,8.91,5.32,17.67,11.1,26.2,17.35,2.39,1.75,4.68,3.67,7,5.5a.89.89,0,0,1,.29-.63c1.12-.88,2.29-1.69,3.43-2.54.08-.1.13-.25.22-.35a5.21,5.21,0,0,1,1.3-1c.18-.09.62-.44.52-.25s0,0,0,.15q3.34-2.42,6.64-4.91c.79-.6,1.59-1.23,2.39-1.86a6.34,6.34,0,0,0,.14-1.44,11,11,0,0,0,.07,1.28c.27-.22.53-.43.79-.66a3.66,3.66,0,0,0,.6-1.76,1,1,0,0,0-.49-.79c0,.79.11,2.33,0,1.73s-.2-1.56-.23-1.86l-.17-.08c-.24,1,0-.07-.36-.2l0,0c-2.43-1.38-4.85-2.79-7.28-4.16C621.1,455,592.48,439.69,563.94,424.05Zm-14.23-7.92a77.25,77.25,0,0,1,9,14.57,82.61,82.61,0,0,1,4.54,12.76c1.11.42,2.23.8,3.33,1.26-.15-5.33.12-10.93-2.15-16.26a24,24,0,0,0-2.55-4.41,1,1,0,0,1-.06-1.16l-.27-.14C557.61,420.57,553.67,418.32,549.71,416.13Zm-43.82-32a.87.87,0,0,1,.73,0c5.54,2.08,11,4.53,16.5,7,6.94,3.16,13.86,6.45,20.76,9.78,18.52,8.95,36.93,18.23,55.32,27.65,11.15,5.71,22.24,11.63,33.36,17.45a16,16,0,0,0,1.7-2.83c.41-.94-1,1.74-1.45,2.67-.09.21.31-.3.46-.45s.35-.35.52-.53a11.8,11.8,0,0,0,2.16-2.82,3.52,3.52,0,0,0,.36-1.05l-.38-.19s-.19.22-.06,0c-20.27-9.85-40.39-20.33-60.18-31.88-9.14-5.33-18.18-10.93-27.17-16.7a1.4,1.4,0,0,1-.6-1.57.87.87,0,0,1,1.35-.31c9,5.75,18,11.33,27.06,16.65,19.72,11.51,39.76,21.95,60,31.76a1,1,0,0,1,1.32.41c.06.08,0,.17.08.26q14.34,6.93,28.75,13.47a3.44,3.44,0,0,1,1,.46c.68.31,1.35.64,2,.94a.79.79,0,0,1,.63-.14,1.25,1.25,0,0,1,.81.82l.81.36c43.76,19.6,88,36.67,132.16,53.38,24.92,9.43,50.33,18.24,74.05,33.23,9.49,6,18.9,13,26.28,22.28a72.27,72.27,0,0,1,7.59,11.9,1,1,0,0,1-.31,1.37,1.11,1.11,0,0,1-1.34-.65,70.45,70.45,0,0,0-7.3-11.42c-7.87-9.92-18.12-17.17-28.29-23.34-23.27-14.12-48-22.68-72.27-31.85q-26.34-9.94-52.62-20.32l0,0a3.72,3.72,0,0,0-1.49.27c-3.22,1.44-2,7.15-.88,10.54a1.15,1.15,0,0,1,0,.86,110.3,110.3,0,0,1,2.39,13.33c15.21,10.21,30.39,20.51,45.71,30.46,5.41,3.52,10.87,6.94,16.3,10.4l2.4,1.55a7.47,7.47,0,0,1,3.56,2.31l0,0c.93.61,1.87,1.18,2.79,1.81,8.23,5.69,16,12.28,24,18.42,2.38,1.82,4.78,3.56,7.22,5.27a32,32,0,0,0,5,3.16,9.39,9.39,0,0,0,2.66.82c3.53.53,6-1.84,8.07-4.14,1.19-1.33,2.31-2.75,3.58-4a16.88,16.88,0,0,1,4.73-3.35,28.77,28.77,0,0,1,13.19-2.23A60.33,60.33,0,0,1,910.8,581a1.44,1.44,0,0,1,.81,1.5.81.81,0,0,1-1.19.59c-7.44-3.31-15.21-5.43-22.65-5.43a26.12,26.12,0,0,0-10.93,2.15,15.53,15.53,0,0,0-4.32,3.05c-3.84,3.78-7,9.86-13.64,8.45a12.67,12.67,0,0,1-2.64-.9,34.9,34.9,0,0,1-5.42-3.39c-2.46-1.73-4.87-3.5-7.28-5.34-8-6.11-15.72-12.69-23.91-18.35-2-1.4-4.09-2.68-6.15-4-2.41-.51-5.05.53-6.87,1.32-.62.27-1.21.55-1.82.83a58.26,58.26,0,0,0-8.5,5,89.28,89.28,0,0,0-8.69,6.7c-1.29,1.14-2.53,2.35-3.74,3.59,0,0,0,.07,0,.1-1.93,3-3.52,6.48-2.82,10.79a15.93,15.93,0,0,0,.66,2.28,59.83,59.83,0,0,1,5.46,15,.84.84,0,0,1-.76,1.08,1.28,1.28,0,0,1-1.14-1.06,54.83,54.83,0,0,0-4.72-13,1.4,1.4,0,0,1-.43-.53c-.13-.33-.18-.66-.29-1s-.41-.95-.65-1.41c-2.23-4.26-4.73-8.4-7.37-12.43a235.05,235.05,0,0,0-16.08-21.45,24.93,24.93,0,0,0-10.33-1.28c-6.14.44-12.22,2.36-16.73,6.22a13.66,13.66,0,0,0-5.1,12.38A20.33,20.33,0,0,0,725,577.6a1,1,0,0,1-.27,1.23,115.23,115.23,0,0,1,6.71,12.43.92.92,0,0,1-.39,1.32,1.14,1.14,0,0,1-1.32-.72c-8.39-18.37-22.32-34-35.4-49a378.57,378.57,0,0,0-50.07-48c-.71,0-1.24-.57-1.67-1.3-2.92-2.29-5.8-4.66-8.78-6.85q-12.71-9.28-26-17.21c-3.3-2-6.64-3.82-10-5.67,3.38,3.07,6.69,6.29,9.93,9.4,14.2,13.66,27.91,28.32,39.36,44.78,3.06,4.4,5.89,8.93,8.58,13.55a1.07,1.07,0,0,1-.23,1.5,1.14,1.14,0,0,1-1.44-.58c-2.65-4.55-5.43-9-8.44-13.34C634,502.31,620,487.48,605.58,473.56c-5.62-5.42-11.38-11.23-17.75-15.48l-3.1-1.76a36.68,36.68,0,0,0-4.3-2.25,1.4,1.4,0,0,1-.55-.48,127.84,127.84,0,0,0-16.94-8s0,.05-.08.05a1.13,1.13,0,0,1-.89-.45c-1-.37-2-.84-3.06-1.16a1.42,1.42,0,0,1-.94-1.4.9.9,0,0,1,.34-.68.86.86,0,0,1,.76-.07c.62.19,1.22.49,1.83.7a76.64,76.64,0,0,0-7.85-18.64,79.36,79.36,0,0,0-6.76-9.4,1.31,1.31,0,0,1-.15-.37c-5.1-2.83-10.2-5.62-15.27-8.52-7.87-4.51-15.75-9.08-23.38-14.26a1.38,1.38,0,0,1-.57-1.56.87.87,0,0,1,1.36-.27c7.57,5.14,15.39,9.66,23.2,14.13,10.58,6.07,21.24,11.94,31.89,17.78,28.93,15.86,57.94,31.38,86.75,47.64,2.49,1.4,5,2.91,7.44,4.33,0,0,0,0,0,0,0-.17.33.15.49.24a5.22,5.22,0,0,1,.7.49c8.43,4.82,16.87,9.63,25.21,14.73a265,265,0,0,1,24.61,16.4c2.45,1.91,4.82,4,7.18,6,6.33,5.57,12.36,11.5,18.33,17.57,1.13,1.15,2.24,2.33,3.36,3.5.1,0,.2,0,.28.12a1.38,1.38,0,0,1,.34.52c2.26,2.35,4.53,4.69,6.77,7.07,2.73,2.89,5.45,5.77,8.08,8.77,1.28,1.46,2.44,3,3.69,4.52.12,0,.25.06.37.11a1.34,1.34,0,0,1,.78,1.31A233.84,233.84,0,0,1,774.19,577c1,1.59,2,3.25,3,4.92a1.06,1.06,0,0,1,.07-.73,31.63,31.63,0,0,1,4.05-5.37,62.44,62.44,0,0,1,4.8-4.56A75.5,75.5,0,0,1,804.6,559a23.23,23.23,0,0,1,5.59-1.86c-5.19-3.3-10.38-6.56-15.55-9.92-19.16-12.46-38.1-25.49-57.18-38.15-14.7-9.75-29.48-19.46-44.52-28.31-12.69-7.47-25.62-14.32-38.49-21.19q-28.41-15.18-57-29.77-26.94-13.81-54-27c-6.89-3.32-13.81-6.63-20.73-9.78-5.43-2.46-10.86-4.87-16.35-6.92a1.36,1.36,0,0,1-.85-1.37A.83.83,0,0,1,505.89,384.16Z"/><path class="cls-7" d="M423.22,240.71c.81-2.37-1.14-5.76.6-7.79,1.19-1.38,14.72-8.86,16.35-11.47,1.88-3,8.7-12.13,9.68-11.73,1.51.6-4.22,6.63-4.84,7.6-1.53,2.36-2.2,6-3.72,8.22-2.65,4-5.44,5.86-6.15,10.37-.24,1.52.95,5.77,1.5,7.32,1.15,3.28,14.07,6.74,17.31,8a77.44,77.44,0,0,1,9.12,5.4c6.5,5,9.44,11.86,10.62,19.73.79,5.28.15,13.2-3.73,17.31C460.22,304,445,305.64,431.8,303c-5-1-1.72-2.14-5.44-5.86-9.7-9.7-5.23-27.67-1.86-38.91a48.19,48.19,0,0,1,2.61-5.77C428.22,250.91,422.66,242.34,423.22,240.71Z"/><path class="cls-7" d="M410.64,242.67c-.81-2.37,1.14-5.75-.6-7.78-1.19-1.39-14.72-8.87-16.35-11.48-1.88-3-8.7-12.12-9.68-11.72-1.51.6,4.22,6.63,4.84,7.59,1.53,2.37,2.2,5.95,3.72,8.23,2.65,4,5.44,5.86,6.15,10.37.24,1.51-1,5.77-1.5,7.32-1.15,3.28-14.07,6.74-17.31,8a77.44,77.44,0,0,0-9.12,5.4c-6.5,5-9.44,11.87-10.62,19.74-.79,5.28-.15,13.19,3.73,17.31,9.74,10.35,24.92,12,38.16,9.31,5-1,1.75-2.31,5.47-6,9.7-9.71,5.23-27.68,1.86-38.91-.58-1.95-.55-6.1-1.75-7.75S411.2,244.31,410.64,242.67Z"/><path class="cls-5" d="M451,329.83c-7.21-17-35.08-11.68-49-7-5.91,2-13.5,2.83-18.56,6.71-10.2,7.83-18.83,24.53-17.19,37.4.38,3,1.86,6.05,2.72,8.91,1.13,3.75,1.15,7.9,3,11.34,4,7.34,16.22,12.92,23.25,16.31A57.89,57.89,0,0,0,424.18,409c5-.45,9.36-3,14.24-4.14,4.26-1,9.73-1.67,13.58-4,7.79-4.64,11.13-12.35,15.87-19.56,2.6-4,5.87-8.21,6.5-13.14,1.28-10-6.53-19.91-11.37-28-4.1-6.87-14.7-13-21.67-17.09l-94,39.87"/><path class="cls-8" d="M362.48,346.72c-2.39.78-8.21,9.38-11.67,9s-15.23-6.27-18.33-8.33c-6.56-4.36-13.78-8.29-21.73-8.64-8.65-.39-14.83,3.39-22.27,7.17-1.15.59-7.71,3.58-6.9,5.54,1.21,3,10.51-2.23,11.5-2.87,5.41-3.46,12.24-3.93,19-1.69,5.55,1.83,10.62,5.46,15.17,9.14s5.74,12.73,13.52,15.31,12,2.44,18.22-2.71,8.57-13.77,6.47-17.9C364.46,348.82,363.09,346.53,362.48,346.72Z"/><path class="cls-8" d="M372.17,328.87c-2.5-.18-11.12,5.62-14.2,4s-11.78-11.52-13.88-14.59c-4.45-6.5-9.68-12.85-16.91-16.15-7.88-3.61-15-2.41-23.34-1.69-1.29.11-8.49.42-8.47,2.55,0,3.2,10.58,1.86,11.73,1.64,6.32-1.18,12.82.94,18.26,5.55,4.46,3.77,7.79,9,10.64,14.16s.55,13.95,6.8,19.26,10.25,6.77,17.91,4.3,13.1-9.55,12.7-14.17C373.22,331.55,372.81,328.91,372.17,328.87Z"/><path class="cls-8" d="M477.65,346.72c2.39.78,8.21,9.38,11.66,9s15.23-6.27,18.33-8.33c6.56-4.36,13.79-8.29,21.73-8.64,8.66-.39,14.84,3.39,22.28,7.17,1.15.59,7.71,3.58,6.9,5.54-1.22,3-10.51-2.23-11.5-2.87-5.41-3.46-12.24-3.93-19-1.69-5.54,1.83-10.61,5.46-15.16,9.14s-5.74,12.73-13.52,15.31-12.05,2.44-18.22-2.71-8.57-13.77-6.47-17.9C475.67,348.82,477,346.53,477.65,346.72Z"/><path class="cls-8" d="M470.65,326.49c2.51.13,10.35,6.95,13.61,5.73s13.1-10,15.56-12.77c5.22-5.9,11.19-11.56,18.77-13.95,8.26-2.61,15.21-.54,23.37,1.19,1.27.27,8.37,1.47,8.1,3.58-.41,3.17-10.73.55-11.85.19-6.12-1.95-12.84-.64-18.8,3.26-4.89,3.19-8.85,8-12.3,12.74s-2.26,13.78-9.11,18.28-11,5.46-18.31,2.07-11.83-11.09-10.86-15.63C469.28,329,470,326.45,470.65,326.49Z"/></g></svg>