<svg id="Layer_1" data-name="Layer 1" xmlns="http://www.w3.org/2000/svg" viewBox="0 0 1000 1000"><defs><style>.cls-1{isolation:isolate;}.cls-10,.cls-11,.cls-12,.cls-2,.cls-3,.cls-4,.cls-5,.cls-6,.cls-7,.cls-8,.cls-9{fill:#fff;}.cls-2{opacity:0.51;}.cls-3{opacity:0.62;}.cls-4{opacity:0.45;}.cls-5{opacity:0.2;}.cls-6{opacity:0.31;}.cls-7{opacity:0.15;}.cls-8{opacity:0.17;}.cls-9{opacity:0.29;}.cls-10{opacity:0.23;}.cls-11{opacity:0.39;}.cls-12{opacity:0.22;}</style></defs><g class="cls-1"><path class="cls-2" d="M206,586.85s6.41,42.26,21.14,80.47,6.2,27.16,20.71,62.92,12.05,40.29,18.67,30.65-6.27-53.53-9.43-73.58,2.56-14.47-.35-32.15-.25-13.93-8.23-32.49.38-32.93-14.46-42.9S203.29,569.4,206,586.85Z"/><path class="cls-3" d="M203.92,549.9c-4,2-7.78,5-10,8.87-1.68,2.93.84,10.81,2.53,13.4a7.58,7.58,0,0,0,2.21,2.46,9.79,9.79,0,0,0,3.06.72c1.43,1.56.34,4.43,1.54,6.18.52.76,9.41,7.76,10,7.74,1.14,0,1.94-1.19,2.82-1.91,3.23-2.68,2.43-5.68,2.47-9.53.07-6.83,3.89-16.24,0-22.59-1.14-1.85-9.11-8-11.28-7.29C205.69,548.49,205,549.37,203.92,549.9Z"/><path class="cls-4" d="M213.48,554.55c7.12-1,1.12-5.5,1.56-12.68.4-6.54-.83-21.34,0-27.77.89-6.93,2.76-11.06,4.86-17.63,1-3.2,10-25.24,13.86-33,.48-.94,7.78-8.54,8.51-9.55,5.49-7.58,6.54-10.65,13.35-17.07,11-10.34,25.37-15.35,36.22-25.74,4.59-4.39,5.95-5.93,8.82-11.63.37-.73,1.32-1.29,1.27-2.11-.21-3.61-4.69-1.73-6.16-.78-4,2.61-7.92,5.38-12,7.91-10.49,6.47-19,15.69-26.92,24.92-4.06,4.71-8.82,8.85-13,13.56-9.17,10.42-15.21,22.71-21,35.07-1.08,2.28-8.77,23.33-9.2,26.66-.36,2.86-2.25,4.66-2.67,7.5a161.77,161.77,0,0,0-1,16.22C209.59,537.83,208,555.34,213.48,554.55Z"/><path class="cls-5" d="M257.82,595.84s26.88-123.37,252.79-150,237.48,61.46,236.9,163.54c0,0,10.87,29.68-4.72,66,0,0,5.37,17-8.85,47.7s-12.74,28.84-42.82,61c0,0,2.77,15.58-22.93,33.8s-52.71,26.72-70.36,25S545,839.79,545,839.79l-47-2.9S346.4,803.42,276.16,664C276.16,664,244,626.67,257.82,595.84Z"/><path class="cls-6" d="M214.68,553.31s-10.54-10.55-13.21-22c-2-8.6-7.77-24.67-7.82-33.41-.12-19.1,2.85-36.63,10.4-54.19.92-2.14,1.12-4.49,2.1-6.6,5.9-12.63,14.17-24,19.56-36.91.75-1.81,3.49-12.1.81-13-3.19-1-4.51,4.77-5.19,6.56a164.16,164.16,0,0,1-9.43,20.7c-5.39,9.76-10.82,19.83-14.2,30.5-2,6.39-6.93,32.19-7.69,38.48-.57,4.68-.48,8.75-.67,13.43-.12,2.78-.69,5.27.18,8,1.45,4.56,1.65,9.41,3.19,13.94,2.33,6.87,12,28.32,14.17,32.48C207.29,552.2,214.68,553.31,214.68,553.31Z"/><path class="cls-5" d="M250.8,566.52S408.24,265.46,609.46,176.37c0,0,144.39-71.43,222-55.3,0,0,26.11,7.68,17.67,67.59s-80.65,73.73-93.7,106S729.27,330,726.2,406.77,683.63,545.15,570.12,567.9s-114.21,23.53-114.21,23.53L262.7,603.08S226.31,599.87,250.8,566.52Z"/><path class="cls-7" d="M799.61,118.81c-5.26.19-10.68.64-16.16,1.25-2.34.26-4.75.65-7.13,1-3.43.48-6.87.95-10.35,1.56-2.24.39-4.49.85-6.75,1.29-3.53.69-7.06,1.4-10.62,2.2-2.44.55-4.87,1.14-7.31,1.74-2.61.64-5.21,1.33-7.82,2-9.49,2.5-18.93,5.25-28.09,8.19-1,.31-1.87.64-2.81.95-6.79,2.22-13.2,4.48-19.6,6.79-5.92,2.13-11.66,4.26-17.1,6.37-4.57,1.77-9.16,3.53-13.31,5.23-4.34,1.77-8.37,3.46-12.18,5.08-3.27,1.4-6.69,2.81-9.51,4.06-12.25,5.43-21.39,9.86-21.39,9.86-5.49,2.43-10.92,5.07-16.34,7.81-2.14,1.08-4.25,2.21-6.37,3.34-2.6,1.37-5.19,2.8-7.78,4.24-8.21,4.58-16.38,9.37-24.42,14.56s-16,10.81-23.88,16.57c-1.76,1.29-3.53,2.56-5.28,3.87-7.51,5.63-14.95,11.44-22.25,17.48-.23.19-.46.35-.69.53a50.29,50.29,0,0,1,4.67,4.55c2.21,2.47,4.7,4.77,6.33,7.66,1.72,3,1.62,6.9,3.22,10,2.07,4,7.49,7.76,11.53,9.45,11.49,4.78,27.36,1,39.36.34,6.12-.33,14.46-.77,18.85,4.55,3.45,4.19,3.16,10.24,4,15.32a47.71,47.71,0,0,1,.91,11c-1.21,29.71-37.23,35.24-44,63.1-.35,1.45-1.09,2.87-1,4.36.35,7.38,8.82,8.21,13.46,11.95a82.32,82.32,0,0,1,10.81,10.31c1.25,1.49,5.29,5.6,1.63,8.08-2.74,1.85-6.74-.28-9.9.68-13.82,4.18-26.1,14.1-37.24,22.71-3.27,2.53-9.2,6.28-9.82,10.92-.58,4.39,4.6,10.48,6.26,14.34,2.7,6.28,2.6,11.63,1.71,18.35-1,7.49-3.74,12.4-8.08,18.5-.95,1.34-5.45,6.8-4.78,9.1.45,1.57,2.65,1.92,3.87,3,4.11,3.65,7.11,7.47,7.58,13.08.62,7.4-1.64,13.67-3,20.78-1.16,6.09-1.85,12.63-4,18.51-1.84,5.17-8.54,11.27-6.29,17.44.54,1.47,2.24,2.18,3.3,3.34s2,2,3,3c16.51-3.38,23.78-4.92,55.21-11.22a323.1,323.1,0,0,0,39.17-10.32A215.58,215.58,0,0,0,656,535.91a158.51,158.51,0,0,0,23.73-18.2c3.51-3.27,6.76-6.63,9.83-10.12s5.89-7,8.53-10.73a141,141,0,0,0,18.39-35.72,167.87,167.87,0,0,0,6.78-26.32,209.56,209.56,0,0,0,2.92-28.06c.39-9.58.92-18,1.6-25.52v0c.67-7.49,1.49-14,2.42-19.83A145.18,145.18,0,0,1,737,334c1.32-3.59,2.72-6.84,4.17-9.94,0,0,0,0,0,0,4.37-9.31,9.29-17.29,14.18-29.38a38.79,38.79,0,0,1,7.43-11.34s0,0,0,0a88.62,88.62,0,0,1,11.53-10.35C783.09,266.14,793.6,259.5,804,252a167.3,167.3,0,0,0,22.25-18.74c2.27-2.33,4.45-4.76,6.49-7.31a75.64,75.64,0,0,0,16.38-37.32c4.23-30-.17-46.87-5.65-56.27a32.77,32.77,0,0,0-4.21-5.72c-4.15-4.51-7.81-5.58-7.81-5.58A134.16,134.16,0,0,0,799.61,118.81Z"/><path class="cls-8" d="M585.67,441c-3.79,0-8.17.3-12.14.38-9.54,3.25-17.79,9.31-25.59,15.89-22.32,18.83-36.11,42.88-31.21,73,1.8,11,5.28,21.13,13.77,29.12,5.81,5.47,11.6,5.86,19,7.16,15.56,2.77,31,8.25,36.85,24.31,4.41,12-5.83,25.56-8.72,36.74-1.41,5.48.15,11.88-2.12,17-2.74,6.14-9.31,9.25-11.53,15.74-1.39,4.06,1.61,9.71-.72,13.19-3.56,5.33-12.75,2.19-17.63,2-13.56-.39-27.56,3.64-39.89,9.29-6.76,3.1-12.88,9.3-16.54,15.7-.81,1.42-1.56,2.9-2.23,4.4-.56,1.23-.16,3.37-1.44,3.79s-2.57-1.57-4-2.05a15.91,15.91,0,0,0-5-1c-6.05,0-11.46,3-17,4.85-5.2,1.69-10.23,2.19-15.05,4.89-14.33,8-23.78,22.64-34.32,34.74-2.87,3.29-5.39,7-9.25,9.36-4.42,2.66-8.64,1.12-13.42.69-10.21-.94-22.95-3.36-31.59,3.18C424.29,820.49,498,836.87,498,836.87l47,2.92s35.17,1.42,52.82,3.11,44.64-6.76,70.34-25,22.94-33.83,22.94-33.83c30.08-32.17,28.59-30.33,42.81-61s8.87-47.7,8.87-47.7c15.6-36.36,4.71-66.06,4.71-66.06.35-62.12-3.8-119.07-58-148.13C665.76,448.46,632.43,441.09,585.67,441Z"/><path class="cls-9" d="M237.78,620a25.65,25.65,0,0,1-10-19c-.38-5.65,1.88-11.17,4.7-15.91,2-3.34,4.41-7.86,7.67-10.18,7.4-5.27,23.38-6,32.31-5.51,5.91.3,13.29,2.08,19,.14,5.93-2,22.57-15.18,27.42-6.19,2.58,4.78-1.42,11.25-3.7,15.42-3.17,5.76-8,9.87-11.5,15.27-4.15,6.34-6.78,13.64-12,19.26-1.4,1.49-3.4,2.3-4.89,3.7s-2.45,3.23-4,4.43c-.88.66-2.4.77-2.75,1.81-.88,2.62,2.71,3.67,3.69,4.89,2.79,3.43,4.14,11.47,2.82,15.7-2.27,7.28-13.36,12.78-20.43,12.16-10-.88-21.16-3.51-27-12.5-3.73-5.75-8.35-11.3-7.73-18.57.06-.73.38-5.47,2-5.65C235.43,619,238.24,620.37,237.78,620Z"/><path class="cls-10" d="M754.86,288.19c-1.6.17-2.78.35-5.84.91-4.91.9-8.92,1.43-17.9,2.46l-2.69.31c-6.79.79-11.19,1.41-15.7,2.24-5.05.92-9.14,1.45-18.39,2.57-.23,0-.22.05-.45.08-14.5,1.77-21.3,2.85-29.39,5.12-40.59,11.37-82.17,33.19-120.54,62-1.51,1.13-6.91,5-7.28,5.3-7.58,5.5-11.57,8.63-15.7,12.52-8.93,8.39-18.16,17.28-28.74,27.68-.59.57-1.23,1.18-2.17,2l-1.1.91c-4.53,3.84-6.49,6.19-7.12,9.63a109.59,109.59,0,0,0-19.68,8.95c-4.47,2.8-22.91,15-31.63,20.93-2.34,1.58-4.45,3.11-6.71,4.67-.59.2-1.19.36-1.78.56a1.86,1.86,0,0,0-1.14,1.45c-21.39,14.83-39.74,28.83-56,43.22-2.83,2.5-5.26,4.38-10.73,8.5,0,0-9,6.89-12.21,9.86-7.85,7.2-14,13.12-27.61,26.54,0,0-7.75,7.67-10.73,10.58-2.42,2.36-4.7,4.43-8.87,8.19l-1.18,1.06c-13.83,12.44-19.8,18.85-24.8,28.21a1.88,1.88,0,0,0,.8,2.54,1.86,1.86,0,0,0,2.54-.76c4.72-8.84,10.5-15,24-27.18l1.18-1.07c4.21-3.79,6.48-5.9,8.95-8.3,3-2.91,10.73-10.55,10.77-10.58,13.57-13.39,19.68-19.3,27.49-26.47a142.53,142.53,0,0,1,11.9-9.59s8.07-6.13,11-8.72c16.81-14.84,36.12-29.34,58.51-44.75,27.32-9.21,55.44-17.12,72.27-19.41,34.4-4.68,59.78-5.95,84.18-3.07,11.16,1.32,21.47,3.16,38.72,6.75l11.56,2.43c26.69,5.5,41.82,9.53,57.37,16.22A64.67,64.67,0,0,1,700.75,469c.38.25,3.84,2.59,4.51,3a1.89,1.89,0,0,0,2.62-.53,1.94,1.94,0,0,0-.57-2.65l-4.44-3a67.44,67.44,0,0,0-11.37-6.64c-15.86-6.82-31.2-10.94-58.13-16.49l-11.53-2.39c-17.35-3.61-27.8-5.49-39.09-6.83-6.2-.73-12.42-1.22-18.85-1.44-19.29-.65-40.23,1-66.24,4.52-14.63,2-37.43,8.11-60.9,15.62,9.41-6.32,23.58-15.75,27.42-18.16,4.61-2.9,12.68-6.44,19.26-8.69,0,0,0,0,.07,0,2.55.15,4.6-.61,8.08-2.5l1.06-.57c2.81-1.51,5-2.81,9.86-5.73,0,0,6-3.53,8.27-4.81,7.84-4.36,16.65-7.49,30-11.11,1.32-.36,8.46-2.21,8.72-2.28,4.93-1.29,8-2.15,11.11-3.07,5.34-1.57,9.74-2.28,19.72-3.56.68-.09,1-.15,1.36-.19,4.8-.62,7.73-1,10.81-1.6,44.7-8.28,95.45-3.65,136.74,12.82a1.9,1.9,0,0,0,1.4-3.53c-26.22-10.46-56.18-16.22-86-17a253.68,253.68,0,0,0-52.82,4c-3,.56-5.85,1-10.58,1.59-.37.05-.65.11-1.33.19-10.18,1.31-14.72,2.08-20.32,3.72-3.08.9-6.14,1.71-11,3L539.82,397c-13.65,3.69-22.68,6.9-30.86,11.45-2.36,1.31-4.21,2.38-8.34,4.85,0,0-7.05,4.17-9.79,5.65l-1,.57a24,24,0,0,1-3.53,1.63c.77-1.74,2.11-3.45,5.16-6l1.1-.95c1-.84,1.69-1.47,2.35-2.12,10.56-10.38,19.76-19.23,28.67-27.6,4-3.75,7.9-6.81,15.35-12.21.38-.28,5.8-4.24,7.32-5.39,38-28.54,79.15-50.12,119.26-61.35,7.85-2.2,14.54-3.26,28.85-5,.24,0,13.92-1.75,19.08-2.69,4.4-.8,8.75-1.41,15.47-2.2l2.65-.3c9.06-1.05,13.14-1.59,18.16-2.5,3-.54,4.07-.72,5.54-.88a24.27,24.27,0,0,1,6,.08,1.86,1.86,0,0,0,2.12-1.59,1.89,1.89,0,0,0-1.59-2.16A27.28,27.28,0,0,0,754.86,288.19ZM617,256.07c-16.07-.49-29,0-41.29,1.9-14.88,2.3-26.9,4.49-38.38,7.17-6.8,1.58-12.19,3.19-24.08,6.93l-5.57,1.75a4.35,4.35,0,0,0-1.67.95c-.19.16-.26.25-.34.3a1.89,1.89,0,0,0,2.09,3.15c.2-.14.35-.26.64-.5a2.64,2.64,0,0,1,.42-.3l5.57-1.74c11.79-3.72,17.1-5.27,23.78-6.83,11.36-2.65,23.32-4.88,38.11-7.17,12-1.85,24.75-2.34,40.61-1.85,5.9.18,10.74.41,21.19,1,9.35.51,13.27.73,18.32.91,2.83.11,5.08.14,10.16.19l4.06,0c5.36.08,9,.34,12.81.68l-9.51,2.05c-10,2.16-17,3.79-20.74,4.78-5.06,1.35-10.31,2.7-16.73,4.32L626,276.4c-38.07,9.51-55.24,14.4-76,22.6a438.54,438.54,0,0,0-69.27,35.22c-3.92,2.43-7.25,4.31-14.45,8.31l-.65.34c-9.92,5.5-14.67,8.31-20,12-3.7,2.53-28.45,20.76-31.82,23.43-29.45,23.41-45,36.81-60.82,53.58-2.49,2.65-4.36,4.84-8.46,9.86,0,0-5.83,7.09-8.22,9.63-2.91,3.08-38.3,49.13-41.37,53.62-5.4,7.9-22.31,34.3-25.67,40.2-1.06,1.84-2.14,3.65-3.64,6l-2.55,3.95c-3.82,6-6,10-7.84,14.75a1.91,1.91,0,0,0,1.09,2.46,1.87,1.87,0,0,0,2.43-1.1,75.91,75.91,0,0,1,7.51-14.1c.42-.66,2.12-3.28,2.54-3.95,1.54-2.41,2.67-4.27,3.75-6.18,3.31-5.79,20.18-32.11,25.52-39.92,3-4.34,38.21-50.26,41-53.17,2.47-2.62,4.34-4.83,8.41-9.82,0,0,5.9-7.08,8.31-9.63,15.68-16.61,31.09-29.94,60.4-53.24,3.3-2.62,28-20.81,31.63-23.28,5.25-3.59,9.89-6.3,19.71-11.75.33-.18,11.26-6.33,15.25-8.8a434.61,434.61,0,0,1,68.67-34.89c20.54-8.12,37.62-13,75.53-22.48,5.59-1.4,7.55-1.86,10.39-2.58,6.44-1.62,11.73-3,16.8-4.36,3.62-1,10.66-2.56,20.55-4.7l20.67-4.4c3.47.47,6.42.88,13,1.86,21.35,3.19,31,4.32,43,4.66a32.5,32.5,0,0,1,7.1,1.21l.75.19c4,.95,6.25,1.32,8.91,1.14a1.91,1.91,0,0,0,1.75-2.05,1.87,1.87,0,0,0-2-1.74c-2.17.15-4.18-.16-7.77-1-.21,0-.36-.1-.72-.18a34.9,34.9,0,0,0-7.93-1.33c-11.84-.34-21.34-1.46-42.54-4.63-4.49-.67-6.34-.92-8.92-1.29a1.83,1.83,0,0,0-2.08-1.25l-2.69.57-1.63-.23c-2.28-.3-4.44-.59-6.53-.83a153.15,153.15,0,0,0-16.38-.91c-1.13,0-11.35-.13-14.14-.23-5-.18-9-.36-18.28-.87C627.74,256.49,622.9,256.25,617,256.07Zm183.38-79.66c-8.55-.24-18.59-.19-29.62.11-16.18.44-34,1.52-37.65,2.12-4.12.67-15.4,2.38-16,2.47-22.5,3.44-33.35,5.38-46.11,8.57-8.28,2.07-14.82,4.47-28.78,10.2l-3.48,1.44c-4.72,1.93-8.1,3.24-11.46,4.47C609,212.47,596,217.88,584.42,224c-.87.46-6.52,4-21.77,13.43,0,0-19.29,12-21.16,13.08-2.48,1.48-1.32.88-25.4,12.74-.37.18-.36.2-.72.38-14.83,7.3-22.51,11.26-25.18,13.16-9.38,6.65-37.71,29.22-42.28,33.63a123.9,123.9,0,0,1-12.82,10.5c-.08.07-.1,0-.19.12-6.9,5.19-10,7.69-13.53,11.15L412,341.39C394,359,382.66,370.82,371.5,383.75c-2.72,3.15-6.45,7.2-14.56,15.88,0,.05-6.36,12.31,2.66,2.66,0-.05,12-12.87,14.78-16.08,11.08-12.83,22.37-24.57,40.24-42.13l9.4-9.21c3.37-3.31,6.38-5.72,13.16-10.81.08-.06.1-.05.19-.11a125.36,125.36,0,0,0,13.15-10.81c4.41-4.26,32.59-26.74,41.83-33.29,2.42-1.72,10.2-5.72,24.68-12.86.37-.18,23.77-11.67,26.4-13.23,1.89-1.13,6.24-3.82,21.23-13.12,0,0,20.8-12.88,21.54-13.27,11.36-6,24.26-11.39,42.35-18,3.41-1.25,6.85-2.61,11.61-4.55l3.45-1.41c13.78-5.66,20.23-8,28.28-10,12.61-3.15,23.38-5.07,45.77-8.5.57-.08,11.87-1.83,16-2.5,3.47-.56,21.15-1.61,37.17-2.05,21.82-.6,39.68-.17,49.55,1.48,2.27.38,4.28.86,12.29,3,.38.1.38.12.76.22,7,1.87,10.74,2.75,13.46,3a1.93,1.93,0,0,0,2.09-1.71,1.88,1.88,0,0,0-1.71-2.05c-2.45-.26-6.12-1.15-12.89-3-.38-.1-.38-.08-.76-.18C825.43,179,823.43,178.44,821,178A157,157,0,0,0,800.33,176.41Z"/><path class="cls-10" d="M264.53,630.67a1.9,1.9,0,0,0-2.46,1.06,1.92,1.92,0,0,0,1.1,2.47,135.07,135.07,0,0,0,19.56,5.61c.2.14.33.36.57.42,5.72,1.43,9.17,6.31,12.71,10.65,2.79,3.44,5.93,6.56,8.79,9.94a74.92,74.92,0,0,1,6.37,9.1c-.07.2-.23.34-.22.57a1.88,1.88,0,0,0,1.7,1.82c.57.92,1.17,1.85,1.75,2.77,4.94,7.82,9.82,15.78,13.23,24.42,2.91,7.37,4.81,15.1,7.13,22.67,3.18,10.37,7.08,20.52,7.54,31.47a2,2,0,0,0,2.09,1.9,2,2,0,0,0,1.93-2.09c-.5-11.41-4.45-21.66-7.77-32.46-2.36-7.66-4.27-15.47-7.24-22.94-3.58-9-8.7-17.24-13.88-25.36a67.63,67.63,0,0,1,20.44,5.87c12.09,5.35,23.21,12.63,34.2,19.91,17.46,11.56,34.46,24.11,48.54,39.74C434.9,754.09,446,772.41,459,789.29c7.13,9.25,15,17.9,22.6,26.77,3.78,4.41,7.42,8.91,11,13.46a2,2,0,0,0,2.81.34,2,2,0,0,0,.34-2.84c-3.65-4.59-7.33-9.13-11.15-13.58-7.55-8.81-15.35-17.39-22.44-26.58-13.68-17.72-25.29-37.07-40.65-53.47-14.24-15.2-31.16-27.39-48.46-38.82-10.81-7.15-21.79-14.24-33.67-19.49-7.77-3.43-16-6-24.46-6.34a92,92,0,0,0-8.08-11.45c-2.59-3-5.39-5.73-7.89-8.8a81.47,81.47,0,0,0-5.61-6.37,172.22,172.22,0,0,1,16.84,4c4.4,1.35,8.56,3.27,12.81,5,5.58,2.27,11.26,4.36,16.84,6.6,21.53,8.64,42.87,18.28,62.38,30.94a252.44,252.44,0,0,1,50.92,43.87c4,4.47,7.3,9.44,10.81,14.26,2.54,3.51,5.17,6.92,7.81,10.35,8.57,11.14,17.35,22.12,26.24,33,7.13,8.72,14.28,17.44,21.8,25.83,6.38,7.1,15.42,10.67,23.32,15.69,1.42.91,2.79,2,4.17,2.92.42.3.86.55,1.26.88.79.66,1.43,1.46,2.16,2.2l2.31,2.31a2,2,0,1,0,2.84-2.85c-1.56-1.57-3-3.35-4.74-4.77-.92-.77-2-1.36-3-2s-1.9-1.38-2.89-2c-7.55-4.81-16.39-8.18-22.48-15-7.48-8.34-14.6-17-21.69-25.71-8.87-10.84-17.65-21.78-26.2-32.87-2.62-3.4-5.25-6.81-7.78-10.28-3.59-4.93-7-10-11.07-14.52a256,256,0,0,0-51.72-44.52c-20.15-13.05-42.23-22.9-64.46-31.81-5.12-2-10.33-3.92-15.43-6-4.37-1.78-8.65-3.74-13.16-5.12-6.15-1.89-12.51-3.09-18.81-4.36C283,636.15,273.56,634.19,264.53,630.67Zm-8.15-12.81a1.9,1.9,0,0,0-.15,3.79c15.83.68,31.58,2.8,47.25,5.08q10.17,1.47,20.32,3.11c4.38.7,8.78,1.39,13.12,2.31,8,1.7,15.81,4.09,23.74,6,6.28,1.54,12.63,2.78,18.88,4.47a180.11,180.11,0,0,1,27.61,9.79c21.38,9.75,39.34,25.18,58.39,38.64,9.21,6.5,19,12,28.21,18.62,3.76,2.69,7.34,5.62,11,8.49,4.71,3.73,9.44,7.44,14.14,11.19,16,12.72,31.9,25.56,48,38.14,8.24,6.44,17.36,11.62,26,17.41,12.35,8.22,24.61,16.59,37.39,24.15,5.08,3,10.46,5.41,15.66,8.19,2.56,1.37,5,2.89,7.51,4.44a2,2,0,1,0,2.12-3.38c-2.54-1.6-5.09-3.17-7.74-4.59-5.15-2.75-10.47-5.13-15.5-8.11-12.72-7.52-24.91-15.86-37.2-24-8.61-5.73-17.66-10.84-25.83-17.22-16.1-12.57-32-25.4-48-38.1q-7.07-5.61-14.14-11.19c-3.67-2.9-7.31-5.85-11.11-8.57-9.18-6.57-19.07-12.12-28.29-18.62-15.72-11.08-30.77-23.31-47.48-32.84,14.29.15,28.57.6,42.85.88,15.3.3,30.86.46,45.73,4.47a172.29,172.29,0,0,1,24.23,8.8c22.48,9.88,43.12,23.23,64.69,34.85,5.05,2.71,10.11,5.36,15.28,7.84,9.6,4.62,19.35,8.9,28.82,13.77,6.46,3.32,12.62,7.25,18.92,10.84,4.36,2.49,8.79,4.78,13.35,6.87,8.32,3.8,16.88,7,25.33,10.54,4.79,2,9.53,4.08,14.26,6.22a2,2,0,1,0,1.63-3.64c-4.77-2.16-9.54-4.3-14.37-6.3-8.41-3.47-16.91-6.68-25.18-10.46-4.46-2-8.79-4.29-13.05-6.71-6.35-3.62-12.56-7.54-19.07-10.89-9.51-4.88-19.3-9.18-28.93-13.8-5.76-2.76-11.42-5.73-17-8.8-21-11.46-41.17-24.25-63.09-33.86a189.1,189.1,0,0,0-20.18-7.47c4.24-1.66,8.51-3.23,12.9-4.47,5.53-1.57,11.16-2.86,16.64-4.59,8-2.52,15.43-6.38,23.44-8.76a106.77,106.77,0,0,1,12-2.62,156.72,156.72,0,0,1,21.5-2.35c16.29-.57,32.34,2.76,48.15,6.3,18.76,4.19,55,17,55,17s25.16,11.41,37.2,18.2a1.89,1.89,0,0,0,1.86-3.3,336.51,336.51,0,0,0-37.62-18.42A349.86,349.86,0,0,0,648,637.46c-15.51-3.42-31.22-6.52-47.17-6a160,160,0,0,0-22,2.39,108.57,108.57,0,0,0-12.47,2.69c-8,2.38-15.53,6.23-23.51,8.76-5.45,1.72-11,3-16.53,4.55a135.57,135.57,0,0,0-16.42,5.69,1.93,1.93,0,0,0-.95,1c-15.66-4-31.94-4.13-48-4.47-15.73-.33-31.46-.9-47.2-.91-.17,0-.27.15-.42.19-1.53-.77-3-1.72-4.51-2.43A184.9,184.9,0,0,0,380.53,639c-6.28-1.7-12.65-3-19-4.52-8-1.94-15.83-4.36-23.85-6.06-4.89-1-9.82-1.76-14.75-2.54-6.31-1-12.65-2-19-2.88C288.22,620.68,272.34,618.54,256.38,617.86Zm190.28-22.07c-27.6-.13-55.2,1.2-82.74,2.54-21.85,1.06-43.67,2.51-65.49,4.13-14.23,1.06-28.5,1.66-42.62,3.83a1.9,1.9,0,1,0,.57,3.75c14-2.15,28.19-2.74,42.32-3.79,22.4-1.66,44.82-3.13,67.27-4.21,36-1.73,72.09-3.33,108.1-1.66,40.62,1.88,81,7.26,121.3,12.21,12.54,1.53,25.09,3,37.66,4.24,17.89,1.81,35.81,3.53,53.54,6.64,19.88,3.48,39.15,9.52,58.74,14.26a2,2,0,0,0,.94-3.91c-19.67-4.75-39-10.8-59-14.3-17.82-3.11-35.89-4.85-53.88-6.67-12.54-1.27-25-2.68-37.54-4.21-40.43-4.93-80.89-10.32-121.61-12.17Q460.48,595.84,446.66,595.79ZM682.47,476.87c-5.1.07-10.21.2-15.31.27-11.27.16-22.57,0-33.79,1.1-19.38,1.95-38.31,7-57.11,11.91-20.39,5.3-40.85,10.66-60.51,18.31-11.95,4.65-23.57,10.19-35.19,15.58-17.86,8.29-35.65,16.69-53.89,24.12-2.83,1.16-5.75,2.15-8.6,3.26-.86.1-1.72.16-2.58.27a1.81,1.81,0,0,0-1.44,1.29q-20.57,7.83-41.49,14.67c-38.71,12.67-78.06,23.22-117.39,33.79a1.87,1.87,0,0,0-1.33,2.31,1.9,1.9,0,0,0,2.31,1.37C295.55,594.54,335,584,373.78,571.29c15.19-5,30.29-10.27,45.2-16a113.22,113.22,0,0,1,41.18,3c3,.81,6,1.76,9,2.8a34,34,0,0,1,3.68,1.41c3.66,1.78,6.57,4.73,9.75,7.2a36.3,36.3,0,0,0,6.29,4,50.34,50.34,0,0,0,7,2.65c4.62,1.47,9.35,2.54,14,3.95,6.39,1.93,12.6,4.44,19.07,6.14,5.14,1.35,10.38,2.36,15.55,3.6,9.18,2.22,18.35,4.59,27.68,6.11,5,.82,10.1,1.29,15.17,1.82,5.23.55,10.47,1.12,15.69,1.7,16,1.8,32,3.83,48,5.47,5.51.56,11.06.94,16.57,1.51,10.4,1.08,20.66,3.21,30.94,5,14.61,2.6,29.24,4.8,44.1,5a2,2,0,0,0,.08-4c-14.64-.19-29.11-2.37-43.5-4.93-10.38-1.85-20.74-4-31.24-5.08-5.51-.57-11-.92-16.53-1.48-16-1.62-32-3.68-48-5.46q-8.57-.94-17.14-1.82c-4.51-.47-9-.9-13.5-1.63-9.23-1.5-18.32-3.85-27.41-6C540.26,585,535,584,529.93,582.71c-7-1.84-13.76-4.58-20.71-6.6-4.62-1.34-9.32-2.43-13.87-4a40.75,40.75,0,0,1-4.78-1.86c-3.83-1.88-7-4.77-10.35-7.4,32.18-6,64.73-9.19,97.3-12.43,15.16-1.52,30.32-3.18,45.5-4.55,17.15-1.56,34.36-2.85,51.57-3.64,4.74-.22,9.47-.48,14.22-.31,7.14.27,14.31,1.15,21.46.84,4.54-.2,9-1,13.54-1.44,5.3-.51,10.63-.7,16-.72a2,2,0,0,0,2-2,2,2,0,0,0-2-2c-5.45,0-10.88.23-16.3.75-4.45.43-8.88,1.21-13.35,1.41-6.56.29-13.14-.42-19.68-.72-5.34-.25-10.66,0-16,.22-32.94,1.55-65.69,5.14-98.48,8.46-33.59,3.4-67.2,6.58-100.37,13a19.56,19.56,0,0,0-2.84-1.47,119.46,119.46,0,0,0-40.12-7.7c-.63,0-1.26.07-1.9.07,17.4-7.17,34.47-15.14,51.54-23,11.55-5.35,23.08-10.86,35-15.47,19.53-7.58,39.81-12.92,60.06-18.16,18.6-4.83,37.37-9.84,56.54-11.76,11.11-1.11,22.29-.91,33.44-1.06,14.61-.21,29-.84,43.53,1.36a2,2,0,0,0,.61-4c-4.51-.68-9-1.19-13.58-1.44C692.69,476.83,687.58,476.81,682.47,476.87Z"/><path class="cls-9" d="M537.59,554.58c17,19.11,34,4.78,44.5-11.47,2.88-4.47,6.89-13.68,6.42-19.16s-3.74-9.94-6.73-14.14c-3.27-4.6-4.63-7-10.3-9.11-15.45-5.67-32.91-1.69-45.72,8-1.8,1.36-3.74,2.79-4.8,4.78-.89,1.66-2,11-2,13-.22,11.35,4.71,15.93,11.75,24.1,3,3.46,4.74,6.2,9.32,7.64,4,1.25,8.79.39,12.78,0"/><path class="cls-9" d="M570.58,522.57c-2.27-6.41-10.8-16-19.14-14.41-15.07,2.92-20.34,27.95-12.36,39.05,3.49,4.85,5.7,4.85,11.66,5.55,7.47.87,13.67-.63,18.08-7.22,2.62-3.92,2.92-8.14,3.83-12.65.45-2.25,2.44-4.72,1.36-6.75C573.13,524.48,571.53,525.24,570.58,522.57Z"/><path class="cls-9" d="M624.14,365.34c7,2.93,10.84-7.51,11.94-13.06,4-20.22-16.42-27.17-30.83-16.34-4,3-5.5,7.23-7.34,11.62-1.74,4.13-3.77,8.47-3.07,13.12,2.07,13.82,18.35,17.46,29,10.38,2.4-1.59,4.42-4.39,6.16-6.61"/><path class="cls-9" d="M675.64,224.26c-1.54-4.93-3.21-5.74-8.48-7.15-4.91-1.31-13.47,7.47-13.52,12.22-.07,7.9,8.63,12.62,15.25,9.44C674.08,236.27,677,228.77,675.64,224.26Z"/><path class="cls-9" d="M607,574.21c.18-2.37-1.53-5.53-2.43-7.47a35.92,35.92,0,0,0-12.08-15c-11.19-8.43-16.34-5.48-26.31,2.49-6.15,4.91-12.26,10-12.2,18.8.12,15.13,17,32.22,32.54,29.78,9-1.4,14.22-8,17.2-15.92,1.13-3,1.94-4.31,2.19-7.29.09-1.15-.76-2.59,0-3.45C606.51,575.46,606.84,576.51,607,574.21Z"/><path class="cls-9" d="M588.58,563.68c-2.47-2-4.07-4.68-7.29-5.64-18.59-5.57-19.41,24.53-8.42,32.71C593.8,606.33,603.92,576.13,588.58,563.68Z"/><path class="cls-9" d="M697.35,362.76c-8.88-27.09-43.19-28.89-65.1-14-10,6.82-18.08,14.14-16.9,27.51.55,6.31,4.3,11.17,7,16.66,8.7,17.58,34.35,19.37,51.49,14.94,0,0,13.58-7.61,18.67-12C703.14,386.68,700.7,373,697.35,362.76Z"/><path class="cls-9" d="M683.84,361.87c-9.67-7.59-11.46-13.93-25.81-10.3-6.29,1.59-16.75,6.24-21.52,10.66-2.9,2.68-3.49,6.76-4.57,10.27-2.78,9,1.89,15.74,9.51,20.7,11.64,7.59,29,5.16,39.77-3.15,4.66-3.6,14.63-19.32,8.2-25.06C687.53,363.3,685.08,362.84,683.84,361.87Z"/><path class="cls-11" d="M230.68,670.84c4.91.19,10.72-1.8,15.09-3.28.36-.13,3.38-1.29,3.59-1,.68.9-3.42,3.24-3.81,3.5a38.73,38.73,0,0,1-12.68,5.4C229.25,676.13,228.82,670.77,230.68,670.84Z"/><path class="cls-11" d="M242.28,716.41c2-1.28,4.23-1.23,6.5-1.81,1.44-.37,2.68-1.2,4.11-1.61,1-.28,5.39-1,3.29,1.65-1.2,1.5-8.56,2.64-10.73,3.34-.49.15-2.27.82-2.81.08C242.24,717.52,242,716.61,242.28,716.41Z"/><path class="cls-11" d="M245.26,723.12c1.65-1.26,3.7-1.55,5.7-2.11,1.35-.39,2.69-.85,4-1.2.44-.11,3.56-.77,3.75.17.32,1.54-2.82,2-3.63,2.36s-9.39,3.13-9.67,2.62C245.07,724.28,245,723.32,245.26,723.12Z"/><path class="cls-11" d="M248.12,730.17c1.79-1.58,4.22-1.8,6.4-2.73a33.88,33.88,0,0,1,3.94-1.35c2.92-.84,5.83.42,1.79,2.59-1.85,1-4,.88-5.91,1.53-1.36.45-2.22,1.3-3.68,1.52a11.83,11.83,0,0,1-2.53.12A1.75,1.75,0,0,1,248.12,730.17Z"/><path class="cls-12" d="M235.94,600.72c-11.33-117.58,100.4-186,151.48-278.08,8.81-15.88,37-94.77,55.51-92.7,22.54,2.52,41.27,56.41,46,75.76,11.91,49.08,18.56,116.15,6.64,165.47-4,16.62-14.74,43.35-23.75,58.14-4.11,6.73-33.07,30.78-32.9,37.54.06,2.58,14.76,16.37,16.31,20.62,14.5,39.77-3,78-26.71,109.26-21.55,28.39-90.18,78.16-125.83,46.49-20-17.78-23.83-41.19-36.22-63.81-15.37-28.09-33.6-45.23-29.53-78.31"/></g></svg>