<svg xmlns="http://www.w3.org/2000/svg" xml:space="preserve" id="Layer_1" x="0" y="0" style="enable-background:new 0 0 1000 1000" version="1.1" viewBox="0 0 1000 1000"><style>.st0,.st1{opacity:.87;fill:#fff;enable-background:new}.st1{opacity:.52;fill:none;stroke:#fff;stroke-miterlimit:10}.st2,.st4,.st6,.st7{opacity:.41;fill:#fff;enable-background:new}.st4,.st6,.st7{opacity:.52}.st6,.st7{opacity:.36}.st7{opacity:.74}.st10,.st12,.st13,.st14,.st15,.st16,.st17,.st8,.st9{opacity:.52;fill:#fff;stroke:#fff;stroke-miterlimit:10;enable-background:new}.st10,.st12,.st13,.st14,.st15,.st16,.st17,.st9{stroke-width:1;stroke-miterlimit:9.9999}.st10,.st12,.st13,.st14,.st15,.st16,.st17{stroke-miterlimit:9.9998}.st12,.st13,.st14,.st15,.st16,.st17{stroke-miterlimit:10.0001}.st13,.st14,.st15,.st16,.st17{stroke-miterlimit:10.0004}.st14,.st15,.st16,.st17{stroke-miterlimit:10.0002}.st15,.st16,.st17{stroke-miterlimit:9.9996}.st16,.st17{stroke-miterlimit:10.0003}.st17{stroke-width:1.0034;stroke-miterlimit:10.0344}.st19{opacity:.52;stroke-width:1;stroke-miterlimit:10}.st19,.st20,.st22,.st27{fill:#fff;stroke:#fff;enable-background:new}.st20{opacity:.52;stroke-width:1;stroke-miterlimit:9.9997}.st22,.st27{opacity:.27;stroke-miterlimit:10}.st27{opacity:.38}.st28,.st29{opacity:.69;stroke:#fff;stroke-width:1}.st28{fill:#fff;stroke-miterlimit:9.9999;enable-background:new}.st29{stroke-miterlimit:9.9998}.st29,.st30,.st31{fill:#fff;enable-background:new}.st30{opacity:.86}.st31{stroke-width:1;stroke-miterlimit:10}.st31,.st32,.st33{opacity:.69;stroke:#fff}.st32{fill:#fff;stroke-width:1;stroke-miterlimit:10.0001;enable-background:new}.st33{stroke-miterlimit:10.0004}.st33,.st34,.st35{fill:#fff;stroke-width:1;enable-background:new}.st34{opacity:.69;stroke:#fff;stroke-miterlimit:10.0002}.st35{stroke-miterlimit:9.9996}.st35,.st36,.st38{opacity:.69;stroke:#fff}.st36{fill:#fff;stroke-width:1;stroke-miterlimit:10.0003;enable-background:new}.st38{stroke-miterlimit:10}.st38,.st40,.st42,.st43,.st47,.st48{fill:#fff;enable-background:new}.st40{opacity:.69;stroke:#fff;stroke-width:1;stroke-miterlimit:9.9997}.st42,.st43,.st47,.st48{opacity:.8}.st43,.st47,.st48{opacity:.26;stroke:#fff;stroke-miterlimit:10}.st47,.st48{opacity:.41}.st48{opacity:.3}.st49{opacity:.2;stroke:#fff;stroke-width:1;stroke-miterlimit:9.9999}.st49,.st50,.st51{fill:#fff;enable-background:new}.st50{opacity:.2;stroke:#fff;stroke-width:1;stroke-miterlimit:9.9998}.st51{opacity:.5}.st52,.st54,.st55,.st56,.st57,.st58,.st59{opacity:.3;fill:#fff;stroke:#fff;stroke-width:1;stroke-miterlimit:10;enable-background:new}.st54,.st55,.st56,.st57,.st58,.st59{opacity:.2;stroke-miterlimit:10.0004}.st55,.st56,.st57,.st58,.st59{stroke-miterlimit:10.0002}.st56,.st57,.st58,.st59{opacity:.3}.st57,.st58,.st59{stroke-miterlimit:9.9999}.st58,.st59{stroke-miterlimit:9.9998}.st59{opacity:.2;stroke-width:1.0034;stroke-miterlimit:10.0344}.st60,.st61{stroke-width:1}.st60{opacity:.2;fill:#fff;stroke:#fff;stroke-miterlimit:9.9996;enable-background:new}.st61{opacity:.4;stroke-miterlimit:10.0003}.st61,.st62,.st66,.st67,.st68{fill:#fff;stroke:#fff;enable-background:new}.st62{opacity:.4;stroke-width:1;stroke-miterlimit:9.9998}.st66,.st67,.st68{opacity:.2;stroke-miterlimit:10}.st67,.st68{stroke-width:1}.st68{stroke-miterlimit:10.0003}</style><g id="Layer_15"><path d="M628.4 195.9s16.9 3 8.1 57.9c-8.7 54.9-16.1 44-16.1 44s18.3 18.3-13.1 77.6-55.7 155.9-107.7 196.3c0 0 7.3 27.8-16.9 71.8s-19.8 128.1-13.3 147.2c6.6 19-3.6 31.5-3.6 31.5s10.3-8.1 24.2 30c13.9 38.1 35.9 79.1 43.2 82.7s1.4-23.4 1.4-23.4-121.5-130.5-16-337 92.2-200.7 115.7-212.4c0 0-7.3-16.1 1.4-44S650 209 638.3 194.7c0 0-5.1-3.7-8.7-4l-1.2 5.2z" class="st0"/><path d="M675.3 562.8s-5.1 35.1-35.9 55.3c0 0 14.3 19.4-27.1 58.5-41.4 39.1-79.1 100.3-103.6 113.2 0 0 7.7 28.2-22.4 76.5 0 0-18.3 42.8-6.9 94.4 0 0 7.7 4.4 12.5-.4 0 0-51.5-89.2 58.9-199.5 1.4-1.4 39.5-53.8 50.6-57.1 11.1-3.3 13.9-2.2 13.9-2.2s0-10.9 4.8-16.1c4.8-5.1 53.1-63.3 63-121.6l-7.8-1z" class="st0"/><path d="M287.2 379.8s-12.7 85.4 3.3 129.8.5 47.3.5 47.3 9.3 0 28.8 25c19.6 25 100.6 100.7 114.9 147.9 0 0 89 49.4 139.5 182.3 0 0 12.1-2.2 10.9-16.5C584 881.4 464.3 742.9 439 712.2s-49.4-69.2-49.4-73.6-97.8-49.1-97.8-170.2c0-4.4 3.3-25.2 6.6-27.5 0 0-20.8-20.8 2.2-59.3l-13.4-1.8z" class="st0"/><path d="M514.9 929.6s-37.3-138.4-201.1-148.3" class="st1"/><path d="M409.4 803.4s-41.8-13.1-31.9-82.3c-.3-9.6-1.7-19.3-4.4-28.6.1-.1 47.4 32.8 36.3 110.9zM426.5 813.8s-43.1 7.6-42.3 77.4c-1.4 9.5-4.2 18.9-8.1 27.8-.1 0 51.1-26.5 50.4-105.2z" class="st2"/><path d="M352.3 785.8s-20.8 14.3-27.5 53.8c-6.7 39.5-76.9 63.7-84.5 63.7 0 0 34.7-27.8 56-82.3 0-.1 24.2-41.8 56-35.2z" style="opacity:.37;fill:#fff;enable-background:new"/><path d="M346.9 786s-23.7 8.7-39.6 45.5-90.1 43.2-97.5 41.3c0 0 38.3-19.4 74.4-66.4-.2.2 33.3-34.5 62.7-20.4z" class="st4"/><path d="M316.4 782s-25.3.3-52.7 29.5c-27.4 29.2-99.3 10.3-105.7 5.9 0 0 42.6-5.4 92.4-37.3-.1 0 43.2-21.2 66 1.9z" style="opacity:.68;fill:#fff;enable-background:new"/><path d="M506 873.8s-57.4-131.3 64.2-241.5" class="st1"/><path d="M509.4 709.2s24.3-36.4-26.6-84.3c-5.9-7.7-10.8-16.1-14.4-25.1-.1.2-16.3 55.4 41 109.4zM502.7 728s38.5-21 81.6 34c7.1 6.6 15.1 12.1 23.7 16.6-.1 0-56.6 11.3-105.3-50.6z" class="st6"/><path d="M532 676.8s38.3-21.1 81.6 34c7.1 6.6 15.1 12.1 23.7 16.6-.2 0-56.7 11.3-105.3-50.6z" class="st7"/><path d="M628 665.7s25.2-1.9 55.1 24.8c29.8 26.8 99.8 1.7 105.9-3.2 0 0-44.5 0-95.2-29.3-.1 0-45.1-17.3-65.8 7.7z" class="st6"/><path d="M588.5 422s24.1-8 59.4 10.8c35.4 18.8 97.3-22.5 101.9-28.7 0 0-42.1 8.7-99.4-5.4 0 0-47.9-6.1-61.9 23.3z" class="st7"/><path d="M527.6 545.1s2.3-25.2-23.8-55.6c-26.1-30.4.3-99.8 5.1-105.7 0 0 .9 43 27.4 95.7.2.1 16.8 45.4-8.7 65.6z" class="st4"/><path d="M294.8 374.5s-.8-.6-2.3-1.8c-1-.9-2.6-1.9-4.2-3.2l-.5-.4c-.1-.1-.3-.1-.4-.3-.4-.3-.6-.5-1-.8l-1.7-1.2-.5-.3-.6-.5c-1.5-1-3.3-2.2-5.1-3.2-1-.6-2.1-1.2-3.1-1.8-13.1-7.5-31-14.5-48.2-11.6-6 1-11.7 3.3-16.7 6.7-4.2 3-8.1 6.4-11.3 10.4-20.3 25.1-15.4 40.5-7.3 49.1 4 4.1 8.9 7.3 14.3 9.3-4.5 2.3-2.6 36.4 46.2 22.5 2.7-.8 5.4-1.8 8.1-3 7.5-3.2 14.2-8.2 19.3-14.5 7.5-8.9 11.3-19.4 13.4-28.9.3-1.4.6-2.8.8-4.2.4-2.4.6-4.9.9-7.1 0-.4 0-.6.1-1v-.3c.1-1.3.1-2.6.3-3.7v-4.2c-.3-3.8-.5-6-.5-6z" class="st8"/><ellipse cx="282.7" cy="352.7" class="st9" rx="1.9" ry="4.1" transform="rotate(-24.811 282.693 352.739)"/><ellipse cx="285.6" cy="348.9" class="st10" rx="1.9" ry="4.1" transform="rotate(-3.322 285.612 348.874) scale(.99998)"/><ellipse cx="289.6" cy="349.4" class="st10" rx="1.4" ry="2.3" transform="rotate(-3.322 289.6 349.39) scale(.99998)"/><ellipse cx="294.5" cy="350.2" class="st10" rx="4.4" ry="3.1" transform="rotate(-71.681 294.456 350.184)"/><path d="M291.3 348.9s-11.2-12.9 3.9-22c0 0 4.8-1.8 4.2.8-.4 2.2-2.6.9-2.6.9s-1.3-1.9-4.2 1.9c0 0-7.3 6.9 0 18.7l-1.3-.3zM309.4 355.8s19.6-9.8 3.5-30.4c0 0-5.5-5.1-5.8-1.5-.3 3.1 3 2.6 3 2.6s2.4-1.7 4.8 4.9c0 0 6.8 13.3-7.2 23.7l1.7.7zM279.3 351.8s7.5-8.5-2.8-14.7c0 0-3.2-1.2-2.8.5.3 1.4 1.7.6 1.7.6s.9-1.3 2.8 1.3c0 0 5 4.8.1 12.3h1z" class="st4"/><path d="M299.5 253c-4 9.3-12.1 25.2-22.9 31.4-13.9 8.1-16.7 48.5-17 57.9-4.9-13.1-5-28.2-2.1-41.8.1-.6.3-1.3.4-1.8.4-1.8.9-3.5 1.4-5.1.1-.6.4-1.2.5-1.7.1-.5.3-.9.5-1.4.3-.5.5-1.3.6-1.9.1-.4.4-.9.5-1.3.3-.6.5-1.3.8-1.9l.5-1.3.1-.4.6-1.3c1-2.3 2.3-4.5 3.6-6.7.3-.4.5-.8.8-1.2l.1-.3c.3-.3.4-.6.6-.9l.6-1c.3-.4.5-.8.8-1 .3-.3.4-.6.6-.9.3-.3.6-.8.9-1.2 0 0 0-.1.1-.1.6-.8 1.3-1.5 1.9-2.2 1.7-1.7 3.5-3.2 5.4-4.6.6-.5 1.4-.9 2.2-1.3.4-.3.8-.4 1.2-.6l.8-.4.3-.1h.1c.4-.1.8-.3 1.2-.5 5.5-1.6 10.3-3.8 14.9-6.4z" class="st8"/><ellipse cx="290.3" cy="388" rx="2.7" ry="4" style="opacity:.52;fill:#fff;stroke:#fff;stroke-width:.9946;stroke-miterlimit:9.9461;enable-background:new" transform="rotate(-12.78 290.279 387.996)"/><ellipse cx="299.5" cy="389.6" class="st12" rx="2.1" ry="4.9" transform="rotate(-18.576 299.546 389.558)"/><ellipse cx="299.7" cy="398.1" class="st10" rx="2.1" ry="4.9" transform="rotate(-23.393 299.664 398.15)"/><ellipse cx="303.2" cy="396.2" class="st10" rx="1.3" ry="3" transform="rotate(-23.393 303.228 396.238)"/><ellipse cx="294.8" cy="398" class="st10" rx="2.2" ry="5" transform="rotate(-23.393 294.76 398.002)"/><ellipse cx="289.4" cy="392.7" class="st13" rx="1.8" ry="3.3" transform="rotate(-7.492 289.398 392.734)"/><ellipse cx="289.5" cy="400.3" class="st13" rx="2.6" ry="4.1" transform="rotate(-7.492 289.53 400.324)"/><ellipse cx="283.9" cy="398" class="st14" rx="4.1" ry="2.6" transform="rotate(-74.77 283.934 397.98)"/><ellipse cx="284.1" cy="388.4" class="st14" rx="4.4" ry="3" transform="rotate(-72.079 284.103 388.4)"/><ellipse cx="302.7" cy="384.5" class="st9" rx="2.1" ry="4" transform="rotate(-45.001 302.694 384.529)"/><ellipse cx="305.9" cy="381" class="st10" rx="2.1" ry="4" transform="rotate(-60 305.878 381.038)"/><ellipse cx="313.3" cy="381.6" class="st10" rx="2.7" ry="4.9" transform="rotate(-60 313.303 381.621)"/><ellipse cx="306.1" cy="392.3" class="st15" rx="2.1" ry="3.7" transform="rotate(-51.77 306.084 392.29)"/><ellipse cx="310.5" cy="387.7" class="st13" rx="2.7" ry="4.9" transform="rotate(-55.911 310.48 387.725)"/><ellipse cx="292.7" cy="374" class="st16" rx="4" ry="2.7" transform="matrix(.06052 -.9982 .9982 .06052 -98.365 643.494)"/><ellipse cx="292.6" cy="364.9" class="st16" rx="3.6" ry="2.8" transform="matrix(.06052 -.9982 .9982 .06052 -89.304 634.859)"/><ellipse cx="301.4" cy="372.1" class="st17" rx="3.6" ry="2.8" transform="rotate(-29.888 301.355 372.152)"/><ellipse cx="299.8" cy="377.5" class="st9" rx="2.2" ry="2.7" transform="rotate(-45.001 299.775 377.548)"/><ellipse cx="296" cy="381.7" class="st10" rx="2.2" ry="2.7" transform="rotate(-30 296.025 381.725)"/><ellipse cx="289.6" cy="381.7" class="st10" rx="2.7" ry="2.2" transform="rotate(-72.788 289.645 381.674)"/><ellipse cx="286.4" cy="377.1" class="st12" rx="2.7" ry="2.2" transform="rotate(-23.059 286.428 377.079)"/><ellipse cx="272" cy="380.3" class="st13" rx="3.6" ry="2.7" transform="rotate(-6.851 272.028 380.267)"/><ellipse cx="286.8" cy="370.7" class="st10" rx="2.2" ry="2.7" transform="rotate(-68.943 286.781 370.689)"/><ellipse cx="279.2" cy="374.3" class="st14" rx="2.2" ry="4.4" transform="matrix(.08507 -.9964 .9964 .08507 -117.459 620.614)"/><ellipse cx="269.7" cy="386.1" rx="5.1" ry="2.4" style="opacity:.52;fill:#fff;stroke:#fff;stroke-width:1;stroke-miterlimit:9.9995;enable-background:new" transform="rotate(-14.058 269.67 386.09)"/><ellipse cx="268.9" cy="374.7" class="st8" rx="5.1" ry="2.4"/><ellipse cx="272.4" cy="369.8" class="st19" rx="2.6" ry="3.9" transform="rotate(-75.93 272.366 369.788)"/><ellipse cx="273.9" cy="360.4" class="st16" rx="3.1" ry="5" transform="rotate(-66.473 273.884 360.424)"/><ellipse cx="278.3" cy="355.2" class="st9" rx="3.1" ry="5" transform="rotate(-41.952 278.343 355.186)"/><ellipse cx="300.5" cy="352.4" class="st13" rx="5.5" ry="2.7" transform="rotate(-68.15 300.532 352.345)"/><ellipse cx="305.7" cy="353.9" class="st13" rx="5" ry="2.7" transform="rotate(-68.15 305.653 353.92)"/><ellipse cx="309.2" cy="358.3" class="st9" rx="4.2" ry="2.3" transform="rotate(-37.079 309.19 358.274)"/><ellipse cx="279.6" cy="379.4" class="st10" rx="3.1" ry="1.5" transform="rotate(-18.414 279.539 379.384)"/><ellipse cx="279.2" cy="367.7" class="st10" rx="2.2" ry="4.4" transform="rotate(-55.39 279.178 367.703)"/><ellipse cx="281.5" cy="364.3" class="st15" rx="2.2" ry="4.4" transform="rotate(-48.239 281.483 364.29)"/><ellipse cx="285.3" cy="361.7" class="st10" rx="2.2" ry="4.4" transform="rotate(-30 285.244 361.754)"/><ellipse cx="288.3" cy="358.5" class="st10" rx="2.2" ry="4.4" transform="rotate(-30 288.332 358.552)"/><ellipse cx="291.3" cy="357.9" class="st16" rx="1.8" ry="3.6" transform="rotate(-16.081 291.32 357.88)"/><ellipse cx="295.3" cy="358.6" class="st19" rx="3.6" ry="1.8" transform="rotate(-74.817 295.31 358.613)"/><ellipse cx="301.2" cy="362.7" class="st10" rx="4.9" ry="2.4" transform="rotate(-54.02 301.169 362.693)"/><ellipse cx="306.7" cy="365.4" class="st20" rx="3.9" ry="2.1" transform="rotate(-10.848 306.716 365.362)"/><ellipse cx="307.5" cy="369.6" class="st8" rx="3.9" ry="2.1"/><ellipse cx="316.4" cy="375.5" class="st16" rx="2.1" ry="3.9" transform="matrix(.0828 -.9966 .9966 .0828 -84.067 659.708)"/><ellipse cx="313.9" cy="371.8" class="st20" rx="2.6" ry="1.4" transform="rotate(-5.171 313.907 371.76) scale(.99997)"/><ellipse cx="315.6" cy="366.3" class="st10" rx="3.9" ry="2.1" transform="rotate(-12.472 315.575 366.3)"/><ellipse cx="315.2" cy="362.8" class="st17" rx="4" ry="2.1" transform="rotate(-29.888 315.215 362.805)"/><ellipse cx="306.6" cy="375.4" class="st9" rx="2.7" ry="5" transform="rotate(-77.267 306.621 375.418)"/><ellipse cx="297.7" cy="361.9" class="st10" rx="3.2" ry="1.5" transform="rotate(-54.02 297.648 361.902)"/><ellipse cx="283.8" cy="381.7" class="st14" rx="3.2" ry="1.5" transform="rotate(-38.409 283.852 381.693)"/><ellipse cx="277.4" cy="383.6" class="st14" rx="3.2" ry="1.5" transform="rotate(-38.409 277.432 383.62)"/><ellipse cx="275.5" cy="389" class="st14" rx="3.2" ry="1.5" transform="rotate(-38.409 275.495 388.979)"/><ellipse cx="280.3" cy="395.1" class="st19" rx="2.7" ry="1.3" transform="rotate(-52.316 280.307 395.124)"/><ellipse cx="275.6" cy="394.8" class="st9" rx="5.4" ry="2.4" transform="rotate(-45.001 275.581 394.848)"/><path d="M285.6 401.1s-3.2 31.5 16.6 31.3c0 0 5.7-1.8 3.7-5.4-1.7-3.1-3 1.2-3 1.2s-.1 4.2-5.1 1.2c0 0-11.1-4-10.9-29.6l-1.3 1.3z" class="st4"/><path d="M285.8 400.9s2.8 20.1 15.2 16.9c0 0 3.2-2.1 1.4-3.9-1.5-1.7-1.7 1.2-1.7 1.2s.6 2.7-3.1 1.4c0 0-7.6-.8-11.3-16.7l-.5 1.1zM268.7 369.6s-18.5 8.1-22.4-4c0 0 0-3.7 2.6-3.3 2.2.4-.1 2.1-.1 2.1s-2.6.9.4 3.3c0 0 4.6 5.9 20.2.8l-.7 1.1zM273.2 389.9s-3.7 8-9.6 4.2c0 0-1.4-1.5-.3-1.9s.8.8.8.8-.6 1 1.4 1.3c0 0 4 1.2 7.7-4.9v.5z" class="st4"/><path d="M275.2 365.2s-13.3 6-16.3-4c0 0-.1-3.1 1.8-2.6 1.5.4 0 1.7 0 1.7s-1.8.6.4 2.7c0 0 3.6 5 14.8 1.3l-.7.9zM273.8 356.7s-23.8-32.3-4.9-43.4c0 0 6.6-1.3 7.1 3.7.4 4.2-3.5.5-3.5.5s-3-4.5-5.7 1.8c0 0-7.8 10.8 9.3 38.3l-2.3-.9zM317 358.9s27-27.8 41-10.9c0 0 2.3 6.2-2.3 7.3-4 1-1.2-3.3-1.2-3.3s3.9-3.5-2.7-5.1c0 0-11.7-6.2-35.4 14.4l.6-2.4z" class="st4"/><path d="M316.3 361.4s17.5-11.6 23-1c0 0 .5 3.6-2.1 3.6-2.3 0-.1-1.9-.1-1.9s2.4-1.4-.8-3.1c0 0-5.5-4.6-20.5 3.6l.5-1.2zM309.6 390.4s32.4 29.5 19 41.8c0 0-5.5 1.8-7.6-3.1-1.8-4.1 3-.8 3-.8s4.2 4.2 4.5-2.2c0 0 3.5-11.1-21.4-36.7l2.5 1zM309.6 383.7s10.5 12.1 21.9-2.6c0 0 2.6-4.8 0-4.4-2.2.3-1.3 2.6-1.3 2.6s1.5 1.4-2.6 4.1c0 0-8 6.9-18-1.2v1.5zM269.4 377.8s-16.7-10.5-24.6 8.7c0 0-1.2 5.9 1.5 4.9 2.4-.9.5-3.1.5-3.1s-2.4-1.2 1.4-5.3c0 0 6.8-9.8 21.4-3.6l-.2-1.6z" class="st4"/><path d="M269 382.5s-10.5-1.9-10.5 9.3c0 0 .5 3.2 1.8 2.1 1.3-1.2-.4-1.7-.4-1.7s-1.4-.1-.4-3c0 0 1.4-6.3 10-6l-.5-.7z" class="st4"/><path d="M314.8 377.6c.4.1.8.1 1.2.1 2.2.1 4-.6 4.1-1.8s-1.5-2.2-3.7-2.4h-1v-.8c.5-.3.9-.6.8-1.2-.1-.4-.4-.6-.6-.8l.1-2.4h.1c2.1-.5 3.6-1.8 3.3-2.8-.3-1-2.1-1.7-4.1-1.2l-.5-1.8c1.7-1 2.6-2.6 2.1-3.6s-2.6-.9-4.5.1l-.3.1-.4-.4c1-1.2 1.3-2.4.8-3.2-.5-.8-2.4-.8-4.1.3l-.6-.5c.1-.1.1-.4.3-.6 1-2.6.8-5-.6-5.7-1.4-.6-3 .8-4 3l-.1-.1c.6-2.4.4-4.5-.8-5-1.2-.5-3.1 1-4.2 3.5l-.6-.3c.4-2.1-.3-3.9-1.7-4.4-1.4-.5-3.5.9-4.2 3.2-.1.3-.1.5-.1.8l-.4.1v-.8c-.1-1.3-.8-2.2-1.5-2.2s-1.4 1.2-1.3 2.3c0 .4.1.6.3 1l-.9.1c.1-.6.1-1.3.1-1.8-.1-2.3-1.2-4-2.2-4-1 0-1.9 1.9-1.8 4.2 0 .6.1 1.3.3 1.8-.9-1.4-2.2-2.3-3-1.9-.8.4-1 2.2-.3 4.1-1.9-2.1-4.4-2.8-5.7-1.7s-.8 3.7 1.2 5.8c.4.4.8.8 1.2 1l-.4.4c-.5-.4-1.2-.8-1.8-1-2.6-1.2-5.1-.8-5.9.8s.9 3.7 3.3 4.9l-1 3.9c-1.3-.1-2.4.6-3 1.8-.1 1.3.5 2.4 1.7 3l-.1.5c-.4 0-.9-.1-1.3-.1-2.8 0-5.1 1.2-5.1 2.4 0 1.3 2.3 2.4 5.1 2.4h.4l.1 1.3c-1 .8-1.3 2.2-.5 3.2.3.4.6.6 1 .8l.1.9c-.3 0-.5.1-.9.1-2.7.6-4.8 2.3-4.4 3.6.4 1.3 2.8 1.8 5.5 1.2l.6-.1 1.9 2.4c0 .1 0 .1.1.3l.1.1 1 1.3.3.3c-.1.1-.4.3-.5.5-2.1 2.1-3.1 4.6-2.1 5.5 1 .9 3.5 0 5.5-2.1.3-.3.5-.5.6-.8l.3.3c-.1.4 0 .8.3 1.2.4.3 1 .1 1.7-.3l1.3.4v.1c-.6 2.2 0 4.2 1.3 4.6 1.3.4 3-1.2 3.5-3.3v-.1l.6.1c-.1.6-.1 1.2 0 1.8.3 2.3 1.7 4 3.1 3.7 1.4-.3 2.2-2.2 1.9-4.4 0-.4-.1-.6-.3-1l.9-.3v.1c1.2 2.6 2.8 4.2 4 3.7 1.2-.5 1-2.7.1-5.1l.4-.1c.1.5.3 1 .5 1.5 1 2.4 2.7 4.1 3.9 3.6 1.2-.5 1-2.8 0-5.3-.1-.4-.4-.8-.5-1l.9-.3c.1.3.1.5.3.8.6 1.5 1.7 2.4 2.3 2.2s.6-1.7 0-3.2c-.1-.3-.3-.5-.4-.8l1-1c1.5 1.2 3.5 1.4 4.1.6.6-.8.1-2.3-1.3-3.6l1-1 .1.1c2.3 1.5 4.8 1.8 5.7.5.9-1.3-.1-3.1-1.9-4.6l.5-1.4c2.1.8 3.9.6 4.5-.4.6-1-.5-3.5-3-4.9l.3-.6-.1-.2z" class="st8"/><path d="M305.6 377.1c.3 0 .5.1.8.1 1.3.1 2.4-.4 2.4-1s-1-1.4-2.3-1.4h-.6v-.5c.3-.1.5-.4.5-.6 0-.3-.3-.4-.4-.5l.1-1.5h.1c1.3-.3 2.2-1 2.1-1.8-.1-.8-1.3-1-2.6-.8l-.3-1c1-.6 1.5-1.5 1.3-2.2-.3-.6-1.5-.6-2.7.1l-.1.1-.3-.3c.6-.8.8-1.5.5-1.9-.3-.4-1.5-.5-2.6.1l-.4-.3c0-.1.1-.3.1-.4.6-1.5.5-3.1-.4-3.5-.9-.4-1.8.5-2.4 1.8h-.1c.4-1.5.3-2.8-.5-3.1s-1.9.6-2.6 2.2l-.4-.1c.4-1-.1-2.2-1-2.7-1-.3-2.2.5-2.6 1.9 0 .1-.1.3-.1.5h-.3v-.5c0-.8-.5-1.4-1-1.3s-.9.6-.8 1.4c0 .3 0 .4.1.6l-.5.1c.1-.4.1-.8 0-1.2-.1-1.4-.6-2.4-1.4-2.4s-1.2 1.2-1 2.6c0 .4.1.8.3 1.2-.6-.9-1.3-1.4-1.8-1.2-.5.3-.6 1.4-.1 2.6-1.2-1.3-2.7-1.8-3.5-1s-.5 2.3.6 3.6c.3.3.5.5.8.6l-.3.3c-.4-.3-.6-.5-1-.6-1.5-.6-3.2-.5-3.6.5-.4 1 .5 2.3 2.1 3l-.6 2.4c-.8-.3-1.5.3-1.8 1-.3.8.3 1.5 1 1.8l-.3.1h-.8c-1.8 0-3.2.6-3.2 1.5s1.4 1.5 3.2 1.5h.1l.1.8c-.4.3-.6.8-.6 1.3.1.5.4.9.9 1.2v.5l-.5.1c-1.7.4-2.8 1.4-2.7 2.3.1.9 1.8 1.2 3.5.6.1 0 .3-.1.4-.1l1.2 1.5v.1l.1.1.6.8.1.1-.3.3c-1.3 1.3-1.8 2.8-1.3 3.3s2.1 0 3.5-1.3c.1-.1.3-.3.4-.5l.1.1c-.1.3 0 .5.1.6.3.1.6.1 1-.1l.8.3v.1c-.4 1.3 0 2.6.8 2.8.8.3 1.8-.6 2.2-2.1l.4.1v1.2c.1 1.4 1 2.4 1.9 2.3.9-.1 1.4-1.3 1.2-2.7 0-.3-.1-.4-.1-.6l.6-.1v.1c.6 1.5 1.8 2.6 2.4 2.3.6-.3.6-1.7 0-3.2h.3c.1.4.1.6.4 1 .6 1.5 1.7 2.4 2.3 2.2.6-.3.6-1.7 0-3.2-.1-.3-.3-.4-.3-.6l.5-.1c0 .1.1.3.1.5.4.9 1 1.5 1.4 1.3.4-.3.4-1 0-1.9-.1-.1-.1-.4-.3-.5l.6-.6c1 .8 2.1.9 2.6.4s0-1.4-.8-2.2l.6-.6h.1c1.4.9 3 1 3.5.3.5-.8-.1-1.9-1.3-2.8l.3-.9c1.3.5 2.4.4 2.8-.3.4-.6-.4-2.1-1.8-3l.1-.4.4-.6z" class="st8"/><path d="M298.9 375.6h.4c.6 0 1.3-.3 1.3-.5s-.5-.6-1.2-.8h-.3v-.3c.1 0 .3-.3.3-.4 0-.1-.1-.3-.3-.3v-.8c.6-.1 1.2-.5 1-.9-.1-.4-.6-.5-1.3-.4l-.1-.5c.5-.4.8-.8.6-1.2-.1-.4-.8-.3-1.4 0h-.1l-.1-.1c.3-.4.4-.8.3-1s-.8-.3-1.3.1l-.1-.1.1-.1c.3-.8.3-1.5-.3-1.8s-.9.3-1.3.9c.3-.8.1-1.4-.3-1.5-.4-.1-1 .3-1.4 1.2l-.3-.1c.1-.6-.1-1.3-.5-1.4-.4-.1-1.2.3-1.4 1v.3h-.1v-.3c0-.4-.3-.6-.5-.6s-.4.4-.4.8c0 .1 0 .3.1.3h-.3v-.6c0-.8-.4-1.3-.8-1.3s-.6.6-.5 1.3c0 .3 0 .4.1.6-.3-.5-.6-.8-.9-.6-.3.1-.3.8-.1 1.3-.6-.6-1.4-.9-1.8-.5-.4.4-.3 1.2.4 1.8l.4.4-.1.1c-.1-.1-.4-.3-.5-.4-.8-.4-1.7-.3-1.9.3-.3.5.3 1.2 1 1.5l-.3 1.3c-.5 0-.9.3-.9.5 0 .4.1.8.5.9v.1h-.4c-.9 0-1.7.4-1.7.8s.8.8 1.7.8h.1v.4c-.3.1-.3.4-.3.6 0 .3.3.5.5.6v.3h-.3c-.9.3-1.5.8-1.4 1.2.1.4.9.6 1.8.4h.1l.6.8.3.4.1.1-.1.1c-.6.6-1 1.4-.6 1.8.4.4 1.2 0 1.8-.6l.3-.3.1.1c0 .1 0 .3.1.4.1.1.3 0 .5-.1l.4.1c-.1.6 0 1.4.4 1.4s.9-.4 1.2-1h.3v.6c.1.8.5 1.3 1 1.2.5-.1.6-.6.6-1.4 0-.1 0-.3-.1-.3l.3-.1c.4.8.9 1.3 1.3 1.2.4-.1.4-.9 0-1.7h.1c0 .1.1.4.1.5.4.8.9 1.3 1.3 1.2.4-.1.4-.9 0-1.7 0-.1-.1-.3-.1-.4l.3-.1c0 .1 0 .1.1.3.3.5.5.8.8.6.3-.1.1-.5 0-1 0-.1-.1-.1-.1-.3l.3-.3c.5.4 1.2.5 1.3.1s0-.8-.4-1.2l.3-.4c.8.5 1.5.5 1.8.1.3-.4 0-1-.6-1.4l.1-.5c.6.3 1.3.3 1.4-.1.1-.4-.1-1.2-.9-1.5v-.3l-.1.4z" class="st8"/><path d="M306.6 352.1c-1.2 4.2-3.1 8.4-5.5 12.1v.1c-1 1.5-2.2 3.1-3.3 4.5l-.3.3-.1.1-.3.3-.5.5c-1 1-1.9 2.1-3.1 3l-.3.3c-1.7 1.4-3.3 2.7-5.1 4l-1 .6c-1.9 1.2-3.9 2.2-5.8 3.2-.6.3-1.2.5-1.8.8-.8.4-1.5.6-2.4 1l-.5.1-1.3.4c-.1 0-.1.1-.3.1-.8.3-1.7.5-2.6.8-.1 0-.4.1-.5.1s-.1 0-.3.1l-1.7.4c-.8.1-1.7.4-2.6.5-9.8 1.8-21.7 1.8-35.8-1-15.1-3.1-25.1-9.6-31.5-17.9-2.6-3.3-4.8-7.1-6.2-11.1-1.4-3.9-2.3-7.8-2.7-12-1.2-12.5 2.4-24.7 8.1-31.9 13.5-17.4 2.6-21.4 2.6-21.4 4.2-2.6 17.9-4 17.9-4 26.5-7.2 45.5-5 58.9 1.9 5.3 2.7 10 6.4 14 10.8 1.4 1.5 2.7 3.2 4 5 11.7 16.9 12.7 38.7 10 48.3z" style="opacity:.24;fill:#fff;stroke:#fff;stroke-miterlimit:10;enable-background:new"/><path d="M289 373.1c3 1.8 5.5 4.1 7.7 6.8v.1c.9 1.2 1.8 2.3 2.6 3.6 0 .1.1.1.1.3 0 0 0 .1.1.1 0 .1.1.1.1.3.1.1.1.3.3.5.5 1 1 1.9 1.5 3 0 .1.1.1.1.3.6 1.5 1.3 3.2 1.8 4.8.1.3.1.6.3.9.4 1.7.8 3.5 1 5.1 0 .5.1 1 .1 1.7 0 .6.1 1.4.1 2.2V407.6c0 .5 0 .9-.1 1.4 0 .6-.1 1.4-.3 2.1-1 8.1-3.9 17.5-9.3 28-5.9 11.2-13.3 17.9-20.8 21.2-3.1 1.4-6.4 2.3-9.8 2.7-3.2.4-6.4.3-9.5-.3-9.6-1.5-17.9-6.9-21.9-12.9-9.8-14.2-15.3-6.3-15.3-6.3-.9-3.9 1.3-14.9 1.3-14.9.9-22.3 7.1-36.8 15.4-46.1 3.2-3.6 7.1-6.6 11.4-8.9 1.5-.8 3.1-1.5 4.6-2.1 15.5-6 31.9-2.4 38.5 1.6z" class="st22"/><path d="M285.5 370.9c-12-5.8-21.4-16.1-25.7-28.6-4.9-13.1-5-28.2-2.1-41.8.1-.6.3-1.3.4-1.8.4-1.8.9-3.5 1.4-5.1.1-.6.4-1.2.5-1.7.1-.5.3-.9.5-1.4.3-.5.5-1.3.6-1.9.1-.4.4-.9.5-1.3.3-.6.5-1.3.8-1.9l.5-1.3.1-.4.6-1.3c1-2.3 2.3-4.5 3.6-6.7.3-.4.5-.8.8-1.2l.1-.3c.3-.3.4-.6.6-.9l.6-1c.3-.4.5-.8.8-1 .3-.3.4-.6.6-.9.3-.3.6-.8.9-1.2 0 0 0-.1.1-.1.6-.8 1.3-1.5 1.9-2.2 1.7-1.7 3.5-3.2 5.4-4.6.6-.5 1.4-.9 2.2-1.3.4-.3.8-.4 1.2-.6.4-.3.8-.4 1.2-.5.4-.1.8-.3 1.2-.5 4.9-1.7 9.8-3.9 14.3-6.3 10.5-5.9 11.6-10.8 11.6-12.6 1.3 11.8 2.6 9 2.6 9 16.9 6.9 17.4 22.5 17.4 22.5 15.6 6.4 13.6 13.6 18 34.7 4.5 21.1-13.9 88.5-63.2 64.2z" class="st8"/><path d="M302.8 367.5c10-5.5 21.9-6.8 32.8-3.6 11.6 3.2 22.1 10.5 30.1 19.6.4.4.6.8 1 1.3 1 1.2 1.9 2.4 2.8 3.6l.9 1.3.8 1c.4.5.6 1 1 1.5l.6 1 .9 1.5.6 1c.1.1.1.3.1.4.3.4.4.8.6 1.2 1 1.9 2.1 3.9 2.8 5.9.1.4.3.8.4 1.2 0 .1 0 .1.1.3l.3.9c.1.3.3.6.4 1l.4 1c.1.3.1.6.3.9.1.3.3.8.3 1.2v.1c.3.8.4 1.7.5 2.4.4 2.1.5 4 .5 6 0 .8 0 1.4-.1 2.2 0 .4-.1.8-.1 1s-.1.8-.3 1-.1.6-.3 1c-1.3 4.2-2.2 8.6-2.8 13.1-1.2 10.3 1.7 13.5 3 14.4-8.9-5-7.6-2.7-7.6-2.7-13.3 8.2-24.3.8-24.3.8-12.2 7.7-16.3 2.7-33.2-4.9-16.8-7.3-54.1-54.4-12.5-76.6z" style="opacity:.22;fill:#fff;stroke:#fff;stroke-miterlimit:10;enable-background:new"/><path d="M292.3 370s23.8-72.3 88.3-39.2c0 0 24.1-1.7 31.4 11.7 7.3 13.4-1.2 19-1.2 19s23.8 10.8 7.3 28.8-56.3 38.1-97.5 18c0 0-29.2-15.2-28.3-38.3z" style="opacity:.18;fill:#fff;stroke:#fff;stroke-miterlimit:10;enable-background:new"/><path d="M291.3 376.4s-68.3.6-59-63.7c0 0-8.4-19.9.9-30.1 9.3-10.2 16.6-4.6 16.6-4.6s2.3-23.3 22.4-14.7c20.1 8.6 48.8 36.8 43.6 77.7-.1.2-4.4 29.4-24.5 35.4z" class="st22"/><path d="M333 465.3c-1 10-11.7 14.7-11.7 14.7-7.1-15.6-34.6-12.5-34.6-12.5-5.5-1.7-10.5-4.6-14.5-8.9-9.6-10.4-9.9-26.2-7.1-40.8.8-4 1.8-8 2.8-11.7 1.7-5.7 4.1-11.1 7.3-16 .8-1.2 1.5-2.2 2.3-3.2.6-.8 1.3-1.5 1.8-2.3l.1-.1c1.3-1.4 2.4-2.7 3.6-3.9l.6-.6c1.4-1.3 2.8-2.6 4.4-3.7.8-.6 1.5-1.2 2.4-1.7.8-.4 1.5-.6 2.4-.9.8-.1 1.8-.4 3-.5.8-.1 1.7-.1 2.6-.3.6 0 1.3-.1 1.9-.1h1.3c1.5 0 3.3 0 5.1.1h.4c1.3.1 2.6.3 3.9.4.9.1 1.7.3 2.6.4h.1l.4.1c2.8.5 5.7 1.2 8.4 1.9 13 3.9 27 12 35.5 28 1.4 2.6 2.6 5.1 3.5 7.8 15.6 43.1-28.5 53.8-28.5 53.8z" style="opacity:.33;fill:#fff;stroke:#fff;stroke-miterlimit:10;enable-background:new"/><path d="M272.1 458.8c-9.6-10.4-9.9-26.2-7.1-40.8.8-4 1.8-8 2.8-11.7 1.7-5.7 4.1-11.1 7.3-16 .8-1.2 1.5-2.2 2.3-3.2.4 2.1.9 4.2 1.5 6.3 6 19.3-1.3 29.3-7.1 47.6-2.2 7.5-1.5 13.4.3 17.8z" class="st8"/><path d="m278.1 387.6-1.4 1.8c.3-.9.6-1.7 1.2-2.4.8-1.4 2.1-2.6 3.7-3.2l-3.5 3.8zM218.9 364.8c-3.7 1.3-7.3 3-10.8 4.9-17.6 9.6-17.4 32.7-15.6 45.8-8.1-8.6-13-24.1 7.3-49.1 3.2-4 6.9-7.6 11.3-10.4 2.1 3.3 4.7 6.3 7.8 8.8zM360.8 362.7c3.6-2.2 6.9-4.6 10.2-7.3 16.2-13.8 11.8-40 7.7-54.7 9.8 8.6 17.5 25.3 1.4 57.1-2.4 5-5.7 9.6-9.6 13.6-2.8-3.3-6.1-6.3-9.7-8.7z" class="st8"/><path d="M293.7 376.8s1 .4 2.8.8c1.3.4 3.1.8 5.3 1.3l.6.1c.1 0 .3.1.5.1l1.2.3 1.9.4.5.1.8.1c1.9.4 3.9.6 5.9 1 1.2.1 2.3.3 3.6.5 14.9 1.7 34.2 1.3 48.9-8.2 5.1-3.2 9.5-7.6 12.7-12.7 2.8-4.4 4.9-9 6.3-14 8.9-31-1.7-43.2-12.6-48-5.3-2.2-10.9-3.2-16.7-3 3.2-3.9-12-34.5-51.3-2.7-2.2 1.8-4.4 3.7-6.3 5.8-5.7 5.9-9.8 13.1-12.1 21-3.3 11.1-2.7 22.4-.9 31.9l.9 4.2c.6 2.4 1.3 4.8 1.9 6.8.1.4.3.6.3 1v.1c.4 1.3.9 2.4 1.3 3.6.1.4.3.8.4 1.2.4 1 .8 1.9 1.2 2.7 1.8 3.5 2.9 5.6 2.9 5.6z" style="opacity:.53;fill:#fff;stroke:#fff;stroke-miterlimit:10;enable-background:new"/><path d="M189.3 342.8c9.3 4.6 25 14 30.9 25.6 7.5 14.9 48.5 20.1 58 20.8-13.6 4.4-28.9 3.7-42.7-.1l-1.9-.5c-1.8-.5-3.5-1.2-5.1-1.8l-1.7-.6-1.4-.6c-.6-.3-1.3-.5-1.9-.9l-1.3-.5-1.9-1-1.3-.6-.4-.3c-.5-.3-.9-.5-1.3-.8-2.3-1.3-4.5-2.7-6.6-4.1l-1.2-.9-.3-.1c-.3-.3-.6-.5-.9-.6l-1-.8-1-.9-.9-.8-1-1-.1-.1c-.8-.6-1.4-1.4-2.1-2.2-1.7-1.8-3.2-3.7-4.4-5.9-.5-.8-.9-1.5-1.3-2.3-.1-.4-.4-.8-.5-1.3-.1-.5-.3-.5-.4-.9l-.1-.3v-.1c-.1-.4-.3-.8-.4-1.3-1.7-5-3.5-10.2-5.8-15.1z" class="st8"/><path d="M631.6 206.9s-1-.9-3-2.4c-1.4-1.2-3.3-2.6-5.7-4.4l-.6-.5c-.1-.1-.4-.3-.5-.4l-1.3-.9c-.8-.5-1.4-1-2.2-1.5l-.6-.4c-.3-.3-.6-.4-.9-.6-2.1-1.4-4.4-2.8-6.7-4.2-1.3-.8-2.7-1.5-4.1-2.4-17.2-9.8-40.9-19.3-63.7-15.3-7.8 1.3-15.4 4.4-22.1 8.9-5.7 3.9-10.7 8.5-15.1 13.8-26.8 33.1-20.3 53.4-9.6 64.8 5.3 5.4 11.7 9.6 18.9 12.2-5.9 3.1-3.3 48 60.8 29.7 3.6-1 7.2-2.3 10.7-3.9 9.9-4.4 18.7-10.9 25.5-19.2 9.8-11.7 14.9-25.7 17.6-38.2.4-1.9.8-3.7 1-5.5.5-3.2.9-6.4 1.2-9.3 0-.5.1-.9.1-1.4v-.3c.1-1.8.3-3.5.3-5V219c0-1.4.1-2.7 0-3.9.2-5.2 0-8.2 0-8.2z" class="st27"/><ellipse cx="615.5" cy="178.2" class="st28" rx="2.6" ry="5.4" transform="rotate(-24.811 615.49 178.193)"/><ellipse cx="619.3" cy="173.2" class="st29" rx="2.6" ry="5.4" transform="rotate(-3.322 619.31 173.165) scale(.99998)"/><ellipse cx="624.6" cy="173.8" class="st29" rx="1.9" ry="3" transform="rotate(-3.322 624.585 173.809) scale(.99998)"/><ellipse cx="631.1" cy="174.8" class="st29" rx="5.8" ry="4" transform="rotate(-71.681 631.082 174.833)"/><path d="M626.9 173.3s-14.8-17.1 5.1-29.1c0 0 6.3-2.3 5.7 1-.5 2.8-3.3 1.2-3.3 1.2s-1.7-2.4-5.5 2.4c0 0-9.6 9.3 0 24.6l-2-.1zM650.9 182.3s25.9-12.9 4.6-40c0 0-7.3-6.7-7.7-2.1-.4 4 3.9 3.5 3.9 3.5s3.2-2.2 6.2 6.4c0 0 8.9 17.5-9.6 31.3l2.6.9zM611.2 177s9.8-11.3-3.7-19.4c0 0-4.2-1.5-3.9.6.4 1.9 2.3.8 2.3.8s1.2-1.7 3.7 1.7c0 0 6.6 6.2.1 16.3h1.5z" class="st30"/><path d="M637.7 46.6c-5.3 12.2-16 33.2-30.1 41.6-18.4 10.7-22 64.1-22.4 76.4-6.4-17.4-6.6-37.2-2.7-55.2.1-.8.4-1.7.5-2.4.5-2.3 1.2-4.6 1.9-6.8.3-.8.5-1.5.8-2.3.3-.8.4-1.2.6-1.8.3-.9.6-1.8.9-2.6.3-.5.4-1.2.6-1.7.4-.9.6-1.8 1-2.6.3-.5.5-1.2.8-1.8.1-.1.1-.4.3-.5.3-.6.5-1.2.9-1.8 1.4-3.1 3.1-5.9 4.9-8.9.3-.5.6-1 1-1.5l.1-.3c.3-.4.5-.8.8-1.2.3-.4.6-.9.9-1.3s.6-.9 1-1.4l.9-1.2c.4-.5.8-1 1.2-1.4l.1-.1c.9-1 1.7-1.9 2.6-2.8 2.2-2.3 4.5-4.4 7.1-6.2.9-.6 1.8-1.2 2.8-1.8.5-.3 1-.5 1.5-.8.5-.3.6-.4 1-.5l.4-.1h.1c.5-.3 1-.4 1.5-.6 6.7-2.3 13-5.1 19-8.4z" class="st8"/><ellipse cx="630.6" cy="226.3" class="st31" rx="3.5" ry="5.3" transform="rotate(-12.89 630.558 226.255)"/><ellipse cx="637.9" cy="226.8" class="st32" rx="2.7" ry="6.4" transform="rotate(-18.576 637.887 226.806)"/><ellipse cx="638" cy="238.1" class="st29" rx="2.7" ry="6.4" transform="rotate(-23.393 637.98 238.11)"/><ellipse cx="642.7" cy="235.7" class="st29" rx="1.7" ry="3.9" transform="rotate(-23.393 642.732 235.687)"/><ellipse cx="631.4" cy="238" class="st29" rx="2.8" ry="6.6" transform="rotate(-23.393 631.425 238.002)"/><ellipse cx="624.4" cy="231" class="st33" rx="2.3" ry="4.4" transform="rotate(-7.492 624.378 231.014)"/><ellipse cx="624.5" cy="241.1" class="st33" rx="3.3" ry="5.4" transform="rotate(-7.492 624.519 241.053)"/><ellipse cx="617.2" cy="238" class="st34" rx="5.4" ry="3.3" transform="rotate(-74.77 617.147 238.034)"/><ellipse cx="617.5" cy="225.3" class="st34" rx="5.7" ry="3.9" transform="rotate(-72.079 617.449 225.293)"/><ellipse cx="642" cy="220.3" class="st28" rx="2.7" ry="5.3" transform="rotate(-45.001 641.993 220.27)"/><ellipse cx="646.2" cy="215.6" class="st29" rx="2.7" ry="5.3" transform="rotate(-60 646.178 215.638)"/><ellipse cx="656" cy="216.3" class="st29" rx="3.6" ry="6.6" transform="rotate(-60 655.995 216.318)"/><ellipse cx="646.5" cy="230.4" class="st35" rx="2.8" ry="5" transform="rotate(-51.77 646.512 230.445)"/><ellipse cx="652.3" cy="224.4" class="st33" rx="3.6" ry="6.6" transform="rotate(-55.911 652.309 224.422)"/><ellipse cx="628.8" cy="206.3" class="st36" rx="5.3" ry="3.5" transform="matrix(.06052 -.9982 .9982 .06052 384.834 821.54)"/><ellipse cx="628.6" cy="194.2" class="st36" rx="4.6" ry="3.9" transform="matrix(.06052 -.9982 .9982 .06052 396.637 809.89)"/><ellipse cx="637.8" cy="201.2" class="st29" rx="4.6" ry="3.9" transform="rotate(-30 637.845 201.2)"/><ellipse cx="638.1" cy="211" class="st28" rx="2.8" ry="3.6" transform="rotate(-45.001 638.103 210.966)"/><ellipse cx="633.2" cy="216.5" class="st29" rx="2.8" ry="3.6" transform="rotate(-30 633.235 216.556)"/><ellipse cx="624.6" cy="216.5" class="st29" rx="3.6" ry="2.8" transform="rotate(-72.788 624.639 216.494)"/><ellipse cx="620.6" cy="210.3" class="st32" rx="3.6" ry="2.8" transform="rotate(-23.059 620.64 210.3)"/><ellipse cx="601.5" cy="214.6" class="st33" rx="4.8" ry="3.6" transform="rotate(-6.851 601.487 214.557)"/><ellipse cx="621.1" cy="201.8" class="st29" rx="2.8" ry="3.6" transform="rotate(-68.943 621.063 201.796)"/><ellipse cx="610.9" cy="206.6" class="st34" rx="2.8" ry="5.8" transform="matrix(.08507 -.9964 .9964 .08507 353.122 797.745)"/><ellipse cx="598.5" cy="222.2" rx="6.8" ry="3.2" style="opacity:.69;fill:#fff;stroke:#fff;stroke-width:1;stroke-miterlimit:9.9995;enable-background:new" transform="rotate(-14.058 598.483 222.19)"/><ellipse cx="597.3" cy="207.4" class="st38" rx="6.8" ry="3.2"/><ellipse cx="601.9" cy="200.8" class="st31" rx="3.5" ry="5" transform="rotate(-75.93 601.867 200.838)"/><ellipse cx="603.8" cy="188.3" class="st36" rx="4.1" ry="6.7" transform="rotate(-66.473 603.826 188.264)"/><ellipse cx="609.8" cy="181.4" class="st28" rx="4.1" ry="6.7" transform="rotate(-41.952 609.799 181.378)"/><ellipse cx="639.1" cy="177.6" class="st33" rx="7.3" ry="3.5" transform="rotate(-68.15 639.066 177.622)"/><ellipse cx="645.9" cy="179.7" class="st33" rx="6.6" ry="3.5" transform="rotate(-68.15 645.848 179.697)"/><ellipse cx="650.5" cy="185.5" class="st28" rx="5.7" ry="3.1" transform="rotate(-37.079 650.507 185.553)"/><ellipse cx="611.3" cy="213.4" class="st29" rx="4.1" ry="1.9" transform="rotate(-18.414 611.34 213.49)"/><ellipse cx="611" cy="198" class="st29" rx="2.8" ry="5.8" transform="rotate(-55.39 611.017 198.007)"/><ellipse cx="614.1" cy="193.5" class="st35" rx="2.8" ry="5.8" transform="rotate(-48.239 614.12 193.516)"/><ellipse cx="618.9" cy="190" class="st29" rx="2.8" ry="5.8" transform="rotate(-30 618.91 190.028)"/><ellipse cx="623.1" cy="185.9" class="st29" rx="2.8" ry="5.8" transform="rotate(-30 623.075 185.894)"/><ellipse cx="627" cy="185" class="st36" rx="2.3" ry="4.8" transform="rotate(-16.081 626.944 184.98)"/><ellipse cx="632.3" cy="186" class="st31" rx="4.8" ry="2.3" transform="rotate(-74.817 632.27 185.953)"/><ellipse cx="642.3" cy="191.6" rx="6.6" ry="3.2" style="opacity:.69;fill:#fff;stroke:#fff;stroke-width:1.0021;stroke-miterlimit:10.0212;enable-background:new" transform="rotate(-53.928 642.292 191.558)"/><ellipse cx="647.2" cy="194.9" class="st40" rx="5.1" ry="2.7" transform="rotate(-10.848 647.255 194.926)"/><ellipse cx="648.4" cy="200.6" class="st38" rx="5.1" ry="2.7"/><ellipse cx="660.1" cy="208.4" class="st36" rx="2.7" ry="5.1" transform="matrix(.0828 -.9966 .9966 .0828 397.782 848.952)"/><ellipse cx="656.8" cy="203.4" class="st40" rx="3.5" ry="1.8" transform="rotate(-5.171 656.731 203.38) scale(.99997)"/><ellipse cx="659.1" cy="196.1" class="st29" rx="5.1" ry="2.7" transform="rotate(-12.472 659.075 196.125)"/><ellipse cx="659.4" cy="190.3" rx="5.1" ry="2.7" style="opacity:.69;fill:#fff;stroke:#fff;stroke-width:1.0034;stroke-miterlimit:10.0344;enable-background:new" transform="rotate(-29.888 659.372 190.262)"/><ellipse cx="647.1" cy="208.1" class="st28" rx="3.6" ry="6.7" transform="rotate(-77.267 647.118 208.121)"/><ellipse cx="635.3" cy="190.3" class="st29" rx="4.1" ry="2.1" transform="rotate(-54.02 635.338 190.28)"/><ellipse cx="617.2" cy="216.5" class="st34" rx="4.1" ry="2.1" transform="rotate(-38.409 617.194 216.447)"/><ellipse cx="608.7" cy="218.9" class="st34" rx="4.1" ry="2.1" transform="rotate(-38.409 608.664 218.912)"/><ellipse cx="606" cy="226.1" class="st34" rx="4.1" ry="2.1" transform="rotate(-38.409 606.013 226.126)"/><ellipse cx="612.4" cy="234" class="st31" rx="3.6" ry="1.8" transform="rotate(-52.316 612.387 234.042)"/><ellipse cx="606.3" cy="233.9" class="st28" rx="7.1" ry="3.2" transform="rotate(-45.001 606.269 233.884)"/><path d="M619.5 242.1s-4.1 41.6 21.9 41.3c0 0 7.5-2.4 4.9-7.1-2.2-4-3.9 1.4-3.9 1.4s-.1 5.7-6.8 1.4c0 0-14.7-5.3-14.4-39.1l-1.7 2.1z" class="st42"/><path d="M619.6 241.9s3.7 26.5 19.9 22.3c0 0 4.2-2.7 1.9-5.1-1.9-2.2-2.2 1.5-2.2 1.5s.8 3.5-4 1.9c0 0-9.9-1-14.9-22.1l-.7 1.5zM597 200.6s-24.6 10.8-29.5-5.3c0 0 0-5 3.3-4.4 2.8.5-.1 2.7-.1 2.7s-3.5 1.2.4 4.4c0 0 6.2 7.8 26.8 1l-.9 1.6zM603 227.3s-4.9 10.5-12.7 5.5c0 0-1.9-1.9-.4-2.6 1.3-.5.9 1 .9 1s-.8 1.4 1.8 1.7c0 0 5.1 1.5 10.2-6.6l.2 1z" class="st42"/><path d="M605.7 194.6s-17.5 8-21.6-5.3c0 0-.1-4.1 2.3-3.5 2.1.5 0 2.2 0 2.2s-2.4.9.5 3.6c0 0 4.8 6.7 19.4 1.8l-.6 1.2z" class="st42"/><path d="M603.8 183.6s-31.4-42.6-6.4-57.2c0 0 8.6-1.7 9.3 4.9.5 5.7-4.6.6-4.6.6s-3.9-6-7.3 2.3c0 0-10.4 14.3 12.2 50.7l-3.2-1.3z" class="st30"/><path d="M660.9 186.3s35.6-36.7 54.2-14.3c0 0 3.1 8.2-3.1 9.8-5.3 1.3-1.4-4.4-1.4-4.4s5.1-4.6-3.6-6.8c0 0-15.6-8.1-46.7 19l.6-3.3z" class="st42"/><path d="M659.9 189.5s23-15.3 30.4-1.3c0 0 .6 4.6-2.8 4.8-3 .1-.3-2.4-.3-2.4s3.2-1.8-1-4c0 0-7.3-6.2-26.9 4.6l.6-1.7zM651 228.1s42.8 38.9 25.2 55.3c0 0-7.2 2.3-10-4-2.4-5.4 4-1 4-1s5.5 5.5 5.9-2.8c0 0 4.6-14.7-28.2-48.4l3.1.9zM651.1 219.2s13.9 16 28.9-3.5c0 0 3.3-6.2 0-5.8-2.8.4-1.7 3.3-1.7 3.3s2.2 1.8-3.3 5.4c0 0-10.5 9.1-23.7-1.5l-.2 2.1zM598 211.4s-22.1-13.9-32.4 11.6c0 0-1.5 7.7 2.1 6.4 3.2-1.2.8-4.1.8-4.1s-3.2-1.5 1.9-6.9c0 0 8.9-13 28.2-4.6l-.6-2.4z" class="st42"/><path d="M597.6 217.4s-13.9-2.6-14 12.3c0 0 .8 4.2 2.3 2.8 1.4-1.3-.4-2.2-.4-2.2s-1.9-.1-.4-3.9c0 0 1.9-8.4 13.3-8l-.8-1z" class="st42"/><path d="M658.1 211c.5.1 1 .3 1.5.3 2.8.3 5.3-.8 5.4-2.3.1-1.5-2.1-3-4.9-3.2h-1.3v-1c.6-.4 1.2-.9 1-1.5-.1-.5-.4-.9-.9-1.2l.3-3.2h.3c2.8-.6 4.8-2.3 4.5-3.9-.3-1.5-2.7-2.2-5.4-1.5l-.6-2.3c2.2-1.4 3.3-3.5 2.7-4.6-.6-1.2-3.3-1.3-5.8.3-.1 0-.3.1-.4.3l-.5-.5c1.3-1.5 1.8-3.2 1-4.2s-3.2-1-5.4.4l-.8-.5c.1-.3.3-.5.4-.8 1.3-3.3 1-6.7-.8-7.5-1.8-.8-3.9 1-5.3 4l-.1-.1c.9-3.2.5-6-1-6.7-1.5-.6-4.1 1.4-5.7 4.6l-.9-.3c.5-2.7-.4-5.1-2.3-5.7-2.1-.6-4.6 1.2-5.7 4.2-.1.4-.3.6-.3 1l-.6.1c0-.4.1-.6 0-1-.1-1.7-1-3-2.1-2.8-1 .1-1.8 1.4-1.7 3.1 0 .4.1.9.3 1.3l-1.2.1c.1-.8.1-1.7.1-2.4-.1-3-1.5-5.4-3-5.3-1.4.1-2.4 2.6-2.3 5.5 0 .8.1 1.7.4 2.4-1.3-1.9-2.8-3.1-4-2.6s-1.3 3-.4 5.4c-2.4-2.7-5.8-3.7-7.5-2.3-1.7 1.4-1 4.9 1.4 7.7.5.5 1 1 1.5 1.4l-.5.5c-.6-.5-1.4-1-2.3-1.4-3.3-1.4-6.8-1-7.7 1-.9 2.1 1.2 4.9 4.5 6.4l-1.4 5.1c-1.9 0-3.5.9-3.9 2.3-.4 1.4.6 2.8 2.2 3.9l-.1.6c-.5-.1-1.2-.1-1.7-.1-3.7 0-6.8 1.4-6.8 3.2 0 1.8 3.1 3.2 6.8 3.2h.4l.3 1.7c-1.4 1-1.7 2.8-.6 4.2.4.5.8.9 1.4 1l.1 1.2c-.4 0-.8.1-1.2.3-3.6.9-6.2 3.1-5.8 4.9.4 1.8 3.7 2.4 7.3 1.5.3-.1.5-.1.8-.3l2.4 3.2c0 .1.1.3.1.3s.1.1.3.1l1.3 1.7.4.4-.6.6c-2.8 2.8-4 6-2.7 7.3 1.3 1.3 4.5 0 7.3-2.7.3-.4.6-.6.9-1l.4.3c-.1.5 0 1.2.4 1.5.5.4 1.3.1 2.2-.4l1.7.5v.1c-.8 2.8 0 5.7 1.8 6.2s3.9-1.4 4.6-4.4v-.1l.9.3c-.1.8-.1 1.5 0 2.4.4 3 2.2 5.1 4 5 1.8-.1 3-2.8 2.6-5.8-.1-.4-.1-.9-.3-1.3l1.3-.4c0 .1.1.1.1.3 1.4 3.3 3.9 5.5 5.3 5s1.4-3.6.1-6.7l.5-.1c.1.8.4 1.4.6 2.1 1.4 3.2 3.6 5.4 5 4.8 1.4-.6 1.4-3.7 0-6.9-.3-.5-.4-.9-.6-1.4l1.2-.3c.1.4.3.6.4 1 .9 1.9 2.2 3.2 3.1 3s.8-2.3 0-4.2c-.1-.4-.4-.8-.5-1l1.3-1.3c2.2 1.5 4.5 1.9 5.4.8.9-1.2.1-3.1-1.7-4.8l1.3-1.4.1.1c3 2.1 6.3 2.3 7.5.6s-.1-4.1-2.6-6l.6-1.9c2.7 1.2 5.1.9 6-.5 1-1.7-.8-4.6-3.9-6.4l.3-.9-.2-1.6z" class="st43"/><path d="M645.7 210.3c.3.1.6.1.9.1 1.7.1 3.2-.5 3.3-1.4.1-.9-1.3-1.8-3-1.9h-.8v-.6c.4-.3.6-.6.6-.9-.1-.3-.3-.5-.5-.6l.1-1.9h.1c1.7-.4 3-1.4 2.7-2.3s-1.7-1.3-3.3-1l-.4-1.4c1.3-.9 2.1-2.1 1.7-2.8s-2.1-.8-3.6.1l-.3.1-.3-.3c.8-1 1-2.1.6-2.6s-1.9-.6-3.3.3l-.5-.4c.1-.1.1-.4.3-.5.9-2.1.6-4.1-.5-4.5s-2.4.6-3.2 2.4l-.1-.1c.5-1.9.4-3.7-.6-4.1-1-.4-2.4.8-3.5 2.8l-.5-.1c.3-1.7-.3-3.1-1.4-3.5s-2.8.8-3.5 2.6c-.1.3-.1.4-.1.6h-.4v-.6c0-1-.6-1.8-1.3-1.8s-1.2.9-1 1.9c0 .3.1.5.1.8l-.8.1c.1-.5.1-1 .1-1.4-.1-1.8-.9-3.3-1.8-3.2s-1.5 1.5-1.4 3.5c0 .5.1 1 .3 1.4-.8-1.2-1.8-1.8-2.4-1.5-.6.3-.8 1.8-.3 3.3-1.5-1.7-3.6-2.3-4.6-1.4-1 .9-.6 3.1.9 4.8.3.3.6.6 1 .9l-.4.3c-.4-.4-.9-.6-1.4-.8-2.1-.9-4.2-.6-4.8.6-.5 1.3.6 3 2.8 3.9l-.9 3.2c-1-.1-1.9.5-2.3 1.4-.1 1 .4 1.9 1.4 2.3l-.1.4h-1c-2.3 0-4.1.9-4.1 2.1 0 1.2 1.9 2.1 4.1 2.1h.3l.1 1c-.5.4-.8 1-.8 1.8.1.6.5 1.3 1.2 1.5l.1.8-.6.1c-2.2.5-3.9 1.9-3.6 3 .3 1 2.3 1.5 4.5.9l.5-.1 1.5 2.1s0 .1.1.1l.1.1.8 1 .3.3-.4.4c-1.7 1.7-2.4 3.7-1.7 4.5s2.8 0 4.5-1.7c.3-.3.4-.4.5-.6l.3.1c-.1.3 0 .6.3.9s.8.1 1.3-.3l1 .3v.1c-.5 1.8 0 3.5 1 3.7 1 .3 2.3-.9 2.8-2.7l.5.1c-.1.5-.1 1 0 1.4.3 1.8 1.3 3.2 2.4 3.1 1.2-.1 1.8-1.8 1.5-3.6 0-.3-.1-.5-.1-.8l.8-.3v.1c.9 2.1 2.3 3.5 3.2 3.1.9-.4.9-2.2.1-4.1l.4-.1c.1.4.3.9.4 1.3.9 1.9 2.3 3.3 3.1 3 .8-.4.9-2.3 0-4.2-.1-.3-.3-.6-.4-.9l.6-.3c0 .3.1.4.3.6.5 1.2 1.4 2.1 1.9 1.8.5-.3.5-1.4 0-2.6-.1-.3-.3-.5-.4-.6l.8-.8c1.3 1 2.8 1.2 3.3.5.5-.6 0-1.9-1-3l.8-.9.1.1c1.8 1.3 3.9 1.4 4.5.4.6-1-.1-2.6-1.5-3.7l.4-1.2c1.7.6 3.2.5 3.7-.4s-.4-2.8-2.3-3.9l.1-.6.1-1.2z" class="st43"/><path d="M637 208.4c.1 0 .4.1.5.1.9.1 1.7-.3 1.7-.8s-.6-.9-1.5-1h-.4v-.3c.3-.1.4-.3.4-.5 0-.1-.1-.3-.3-.4v-1h.1c.9-.3 1.5-.8 1.4-1.3-.1-.5-.9-.6-1.7-.5l-.2-.7c.6-.5 1-1.2.9-1.5s-1-.4-1.9 0h-.1l-.1-.1c.4-.5.5-1 .3-1.3-.3-.3-1-.3-1.7.1l-.4-.2c0-.1.1-.1.1-.3.4-1 .3-2.2-.3-2.3-.5-.1-1.3.4-1.7 1.3.3-1 .1-1.9-.4-2.2-.5-.3-1.3.4-1.8 1.4l-.3-.1c.3-.6-.1-1.4-.8-1.8-.6-.3-1.5.4-1.8 1.4l-.1.3h-.1v-.3c0-.5-.3-.9-.6-.9-.4 0-.6.5-.5 1 0 .1 0 .3.1.4l-.4.1v-.8c0-1-.5-1.7-.9-1.7s-.8.8-.8 1.8c0 .3 0 .5.1.8-.4-.6-.9-1-1.3-.8-.4.3-.4.9-.1 1.8-.8-.9-1.9-1.2-2.4-.8-.5.4-.4 1.5.5 2.4l.5.5-.1.1c-.3-.1-.5-.4-.8-.4-1-.5-2.2-.3-2.4.4-.3.6.4 1.5 1.4 2.1l-.4 1.7c-.5-.1-1 .3-1.3.8 0 .5.3 1 .8 1.3v.3h-.5c-1.2 0-2.2.5-2.2 1s1 1 2.2 1h.1l.1.5c-.3.3-.4.5-.4.9s.3.6.6.8v.4h-.4c-1.2.3-1.9 1-1.8 1.5.1.5 1.2.8 2.3.5l.3-.1.8 1v.1l.4.5.1.1-.3.1c-.9.9-1.3 1.9-.9 2.3.4.4 1.4 0 2.3-.9l.3-.3.1.1c0 .1 0 .4.1.5.1.1.4 0 .6-.1l.5.1c-.3.9 0 1.8.5 1.9.5.1 1.3-.5 1.5-1.4l.3.1v.8c.1.9.6 1.7 1.3 1.5.6-.1.9-.9.8-1.8 0-.1 0-.3-.1-.4l.4-.1v.1c.5 1 1.2 1.8 1.7 1.5.5-.3.4-1.2 0-2.2h.1c0 .3.1.4.3.6.4 1 1.2 1.7 1.5 1.5.4-.1.4-1.2 0-2.2 0-.1-.1-.3-.3-.4l.4-.1.1.3c.3.6.6 1 1 .9s.3-.8 0-1.3c0-.1-.1-.3-.1-.4l.4-.4c.6.5 1.4.6 1.7.3s0-1-.5-1.5l.4-.4c.9.6 2.1.8 2.3.3.3-.5 0-1.3-.9-1.9l.1-.6c.9.4 1.7.3 1.9-.1.3-.4-.3-1.4-1.3-2.1l.1-.3.9-.3z" class="st43"/><path d="M647.3 177.4c-1.5 5.7-4.1 11.1-7.3 16l-.1.1c-1.4 2.1-2.8 4-4.5 5.9l-.4.4-.3.3-.3.3-.6.6c-1.3 1.4-2.6 2.7-4 4-.1.1-.3.3-.4.3-2.1 1.9-4.4 3.6-6.7 5.1-.4.3-.9.6-1.3.9-2.4 1.5-5 3-7.7 4.2-.8.4-1.5.8-2.4 1-1 .5-2.2.9-3.2 1.3l-.6.3c-.5.1-1.2.4-1.7.5-.1 0-.3.1-.4.1-1 .4-2.2.6-3.3 1l-.6.1c-.1 0-.3 0-.4.1-.8.1-1.5.4-2.3.5-1 .3-2.2.5-3.3.6-13 2.4-28.7 2.4-47.2-1.4-19.8-4.1-33.2-12.9-41.6-23.7-3.5-4.5-6.2-9.4-8.2-14.7-1.9-5-3.1-10.4-3.6-15.7-1.5-16.5 3.2-32.5 10.7-42.2 17.9-22.9 3.5-28.2 3.5-28.2 5.5-3.5 23.7-5.4 23.7-5.4 35-9.5 60.1-6.6 77.7 2.6 9.5 4.9 17.6 12.1 23.7 20.8 15.3 22.7 16.5 51.6 13.1 64.3z" style="opacity:.25;fill:#fff;stroke:#fff;stroke-miterlimit:10;enable-background:new"/><path d="M550.1 306.2c-12.9-18.7-20.2-8.4-20.2-8.4-1.3-5.1 1.7-19.7 1.7-19.7 1.3-29.5 9.4-48.6 20.5-60.7 4.2-4.8 9.4-8.7 15.1-11.7 1.9-1 4-2.1 6.2-2.8 20.3-7.8 42.1-3.1 50.7 2.3 3.9 2.4 7.3 5.4 10.2 9l.1.1c1.3 1.5 2.3 3.1 3.3 4.8l.3.4c0 .1.1.1.1.3l.1.3c.1.1.3.4.4.6.8 1.3 1.4 2.6 1.9 4 0 .1.1.3.1.4.9 2.1 1.7 4.1 2.3 6.3.1.4.3.8.4 1.2.6 2.3 1 4.5 1.3 6.9.1.6.1 1.4.3 2.2.1.9.1 1.8.3 2.8V250.4c0 .6-.1 1.3-.1 1.9 0 .9-.1 1.8-.3 2.8-1.3 10.7-5 23-12.3 36.9-7.7 14.8-17.5 23.5-27.5 28-4.1 1.8-8.4 3-12.9 3.5-4.2.5-8.5.4-12.6-.4" class="st8"/><path d="M619.2 202.2c-15.8-7.6-28-21.2-34.1-37.8-6.4-17.4-6.6-37.2-2.7-55.2.1-.8.4-1.7.5-2.4.5-2.3 1.2-4.6 1.9-6.8.3-.8.5-1.5.8-2.3.3-.8.4-1.2.6-1.8.3-.9.6-1.8.9-2.6.3-.5.4-1.2.6-1.7.4-.9.6-1.8 1-2.6.3-.5.5-1.2.8-1.8.1-.1.1-.4.3-.5.3-.6.5-1.2.9-1.8 1.4-3.1 3.1-5.9 4.9-8.9.3-.5.6-1 1-1.5l.1-.3c.3-.4.5-.8.8-1.2.3-.4.6-.9.9-1.3.3-.4.6-.9 1-1.4l.9-1.2c.4-.5.8-1 1.2-1.4l.1-.1c.9-1 1.7-1.9 2.6-2.8 2.2-2.3 4.5-4.4 7.1-6.2.9-.6 1.9-1.2 2.8-1.8.5-.3 1-.5 1.5-.8.5-.3 1-.5 1.5-.6.5-.1 1-.4 1.5-.6 6.6-2.2 12.9-5 18.9-8.2 14-7.8 15.3-14.3 15.3-16.6 1.5 15.6 3.5 11.8 3.5 11.8 22.3 9.1 22.9 29.6 22.9 29.6 20.6 8.5 18 18 23.8 45.9 6 27.9-18.7 117-83.8 84.9z" class="st8"/><path d="M642.1 197.7c13.3-7.2 28.8-8.9 43.4-4.8 15.3 4.2 29.2 14 39.8 25.7.5.5.9 1 1.4 1.5 1.3 1.5 2.6 3.1 3.9 4.8.4.5.8 1 1.2 1.7l.9 1.3c.5.6.9 1.3 1.3 1.9l.9 1.3c.4.6.9 1.4 1.3 2.1.3.5.5.9.8 1.4.1.1.1.3.3.4.3.5.5 1 .8 1.5 1.4 2.4 2.7 5 3.7 7.7.3.5.4 1 .6 1.4l.1.3c.1.4.3.8.4 1.2.1.4.3.9.4 1.3.1.4.3.9.4 1.4.1.5.3.8.4 1.2l.4 1.5v.1c.3 1.2.5 2.2.6 3.2.5 2.7.8 5.3.6 8 0 1-.1 1.9-.3 2.8 0 .5-.1 1-.3 1.4-.1.4-.1.9-.3 1.4-.1.5-.3.9-.4 1.4-1.7 5.7-3 11.4-3.6 17.2-1.5 13.6 2.3 17.9 3.9 19-11.6-6.7-9.9-3.5-9.9-3.5-17.5 10.9-32 1-32 1-16.2 10.2-21.6 3.6-43.9-6.4s-71.6-71.2-16.8-100.4z" style="opacity:.5;fill:#fff;stroke:#fff;stroke-miterlimit:10;enable-background:new"/><path d="M628.2 200.9s31.4-95.3 116.4-51.8c0 0 31.8-2.3 41.4 15.4s-1.4 25.1-1.4 25.1 31.4 14.2 9.8 38.1c-21.6 23.9-74.4 50.3-128.8 23.8.1 0-38.5-19.9-37.4-50.6z" style="opacity:.31;fill:#fff;stroke:#fff;stroke-miterlimit:10;enable-background:new"/><path d="M626.9 209.4s-90.2.9-77.8-84c0 0-11.1-26.4 1.2-39.8 12.2-13.4 21.9-6 21.9-6s3-30.7 29.6-19.3C628.4 71.8 666 109 659.4 163c-.3 0-6.1 38.6-32.5 46.4z" class="st47"/><path d="M682 326.9c-1.3 13.3-15.4 19.3-15.4 19.3-9.4-20.6-45.8-16.5-45.8-16.5-7.3-2.2-13.9-6.2-19.2-11.7-12.9-13.8-13-34.6-9.4-53.8 1-5.3 2.3-10.5 3.7-15.4 2.2-7.5 5.4-14.5 9.6-21.1 1-1.5 2.1-3 3.1-4.2.8-1 1.7-2.1 2.4-3l.3-.3c1.7-1.9 3.2-3.6 4.8-5.1l.8-.8c1.8-1.7 3.7-3.3 5.8-4.9 1-.8 2.1-1.5 3.2-2.2 1-.5 2.1-.9 3.2-1.2 1.3-.3 2.6-.5 3.9-.6 1-.1 2.2-.3 3.5-.3.8 0 1.7-.1 2.6-.1h1.7c2.1 0 4.4 0 6.7.3h.5c1.7.1 3.3.3 5.1.5 1.2.1 2.3.3 3.3.5h.1l.5.1c3.7.6 7.5 1.5 11.1 2.6 17.2 5 35.6 15.8 46.8 37 1.8 3.3 3.3 6.8 4.6 10.4 20.8 56.3-37.5 70.5-37.5 70.5z" class="st8"/><path d="M601.6 318.1c-12.9-13.8-13-34.6-9.4-53.8 1-5.3 2.3-10.5 3.7-15.4 2.2-7.5 5.4-14.5 9.6-21.1 1-1.5 2.1-3 3.1-4.2.5 2.8 1.2 5.5 2.1 8.2 8.1 25.5-1.7 38.7-9.4 62.9-3.1 9.9-2 17.7.3 23.4z" class="st8"/><path d="m609.4 224.2-1.9 2.3c.4-1.2.8-2.2 1.4-3.2 1-1.9 2.8-3.5 4.9-4.2l-4.4 5.1z" class="st38"/><path d="M531.2 194.1c-4.9 1.8-9.6 3.9-14.3 6.4-23.3 12.7-22.9 43.1-20.6 60.5-10.7-11.4-17.2-31.8 9.6-64.8 4.2-5.3 9.3-9.9 14.9-13.8 2.8 4.4 6.4 8.4 10.4 11.7z" class="st47"/><path d="M720.6 196.4c4.4-3 8.6-6.3 12.5-10 19.9-19 14.5-55.2 9.5-75.5 13.8 12 20.7 40.3.1 78.7-3.7 6.7-7.7 9.6-13.9 14.7-3.2-4.8-3.7-4.5-8.2-7.9z" class="st6"/><path d="M632.3 211s1.3.4 3.6 1c1.7.5 4 1.2 6.8 1.8l.8.1c.1.1.4.1.6.1l1.5.4c.9.1 1.7.4 2.6.5l.8.1c.4.1.6.1 1 .3 2.4.5 5 .9 7.7 1.3 1.5.3 3 .4 4.6.6 19.4 2.3 44.4 1.7 63.4-10.9 6.6-4.4 12.2-10 16.6-16.9 3.6-5.8 6.3-12.1 8.1-18.7 11.4-41.3-2.2-57.5-16.2-63.9-6.9-3-14.4-4.2-21.9-3.9 4.1-5.1-15.4-45.9-66.5-3.6-3 2.4-5.7 5-8.1 7.7-7.3 7.8-12.6 17.5-15.6 27.9-4.2 14.8-3.6 29.7-1.2 42.5.4 1.9.8 3.7 1.2 5.5.8 3.2 1.7 6.3 2.6 9.1.1.5.3.9.4 1.3 0 .1.1.1.1.3.5 1.7 1.2 3.2 1.7 4.8.1.5.4 1 .5 1.4.5 1.3 1 2.6 1.4 3.6 2.1 4.9 3.5 7.6 3.5 7.6z" class="st27"/><path d="M492.2 165.2c12.2 6.2 33.1 18.5 40.7 33.7 9.9 19.7 64.1 26.5 76.7 27.5-18 5.8-38.3 4.9-56.5-.3l-2.4-.8c-2.3-.6-4.6-1.5-6.8-2.3-.8-.3-1.5-.6-2.3-.9l-1.8-.8c-.9-.4-1.8-.8-2.6-1.2l-1.7-.8c-.9-.4-1.8-.8-2.6-1.3l-1.7-.9-.5-.3-1.8-1c-3-1.7-5.9-3.5-8.7-5.5l-1.5-1.2-.3-.1-1.2-.9c-.4-.3-.9-.6-1.3-1l-1.4-1.2-1.2-1-1.4-1.3-.1-.1c-1-.9-1.9-1.9-2.8-2.8-2.2-2.3-4.1-5-5.8-7.7-.6-1-1.2-2.1-1.7-3.1-.3-.5-.5-1-.8-1.5-.3-.5-.3-.8-.5-1.2 0-.1-.1-.3-.1-.4v-.1c-.3-.5-.4-1-.5-1.7-1.8-6.6-4.3-13.3-7.4-19.8z" class="st8"/><path d="M677.6 565s-.6-.5-1.8-1.4c-.9-.6-1.9-1.5-3.3-2.6l-.4-.3c-.1-.1-.3-.1-.3-.3l-.8-.5c-.4-.3-.9-.6-1.3-.9l-.4-.3c-.1-.1-.4-.3-.5-.4-1.3-.8-2.6-1.7-4-2.6-.8-.5-1.5-.9-2.4-1.4-10.4-5.9-24.6-11.6-38.2-9.1-4.8.8-9.4 2.6-13.4 5.3-3.3 2.3-6.4 5-8.9 8.2-16.1 19.8-12.2 32-5.8 38.9 3.2 3.2 7.1 5.8 11.3 7.3-3.6 1.8-2.1 28.8 36.5 17.9 2.2-.6 4.4-1.4 6.4-2.3 5.9-2.6 11.2-6.6 15.3-11.6 5.3-6.7 8.9-14.5 10.5-22.9.3-1.2.5-2.2.6-3.3.4-1.9.5-3.9.8-5.5 0-.3 0-.5.1-.9v-.1c0-1 .1-2.1.1-3V570c.2-3.2-.1-5-.1-5z" class="st48"/><ellipse cx="668" cy="547.8" class="st49" rx="1.5" ry="3.2" transform="rotate(-24.811 667.974 547.815)"/><ellipse cx="670.4" cy="544.8" class="st50" rx="1.5" ry="3.2" transform="rotate(-3.322 670.373 544.803) scale(.99998)"/><ellipse cx="673.5" cy="545.2" class="st50" rx="1.2" ry="1.8" transform="rotate(-3.322 673.461 545.194) scale(.99998)"/><ellipse cx="677.4" cy="545.8" class="st50" rx="3.5" ry="2.4" transform="rotate(-71.681 677.364 545.843)"/><path d="M674.9 544.8s-8.9-10.3 3.1-17.4c0 0 3.7-1.4 3.3.6-.4 1.7-2.1.6-2.1.6s-1-1.5-3.3 1.5c0 0-5.8 5.5 0 14.8l-1-.1zM689.2 550.3s15.4-7.7 2.8-24.1c0 0-4.4-4-4.6-1.3-.3 2.4 2.3 2.1 2.3 2.1s1.9-1.3 3.7 3.9c0 0 5.4 10.5-5.8 18.8l1.6.6zM665.4 547.1s5.9-6.8-2.2-11.6c0 0-2.6-.9-2.3.4.3 1.2 1.3.5 1.3.5s.6-1 2.3 1c0 0 4 3.7.1 9.8l.8-.1z" class="st51"/><path d="M681.4 468.9c-3.2 7.3-9.5 19.9-18 24.8-10.9 6.4-13.3 38.3-13.4 45.8-3.9-10.4-4-22.3-1.5-33.1l.4-1.4c.3-1.4.6-2.7 1.2-4.1.1-.5.3-.9.4-1.4s.3-.8.4-1 .4-1 .5-1.5l.4-1c.3-.5.4-1 .6-1.5l.5-1c0-.1.1-.3.1-.3.1-.4.4-.8.5-1 .9-1.8 1.8-3.6 2.8-5.3l.6-.9.1-.1c.1-.3.3-.5.5-.8l.5-.8.6-.9c.1-.3.4-.5.5-.6.1-.1.5-.6.8-.9v-.1c.5-.6 1-1.2 1.5-1.7 1.3-1.4 2.7-2.6 4.2-3.7.5-.4 1.2-.8 1.7-1 .3-.1.6-.3.9-.5l.6-.3.3-.1.9-.4c3.9-1.5 7.8-3.1 11.4-5.2z" class="st48"/><ellipse cx="677.1" cy="576.6" class="st52" rx="2.1" ry="3.2" transform="rotate(-12.89 677.137 576.547)"/><ellipse cx="681.4" cy="577" rx="1.7" ry="3.9" style="opacity:.3;fill:#fff;stroke:#fff;stroke-width:1;stroke-miterlimit:10.0001;enable-background:new" transform="rotate(-18.576 681.366 577.004)"/><ellipse cx="681.4" cy="583.6" class="st50" rx="1.7" ry="3.9" transform="rotate(-23.393 681.43 583.678)"/><ellipse cx="684.3" cy="582.2" class="st50" rx="1" ry="2.3" transform="rotate(-23.393 684.287 582.275)"/><ellipse cx="677.6" cy="583.6" class="st50" rx="1.7" ry="4" transform="rotate(-23.393 677.605 583.655)"/><ellipse cx="673.4" cy="579.5" class="st54" rx="1.4" ry="2.6" transform="rotate(-7.492 673.417 579.504)"/><ellipse cx="673.4" cy="585.5" class="st54" rx="1.9" ry="3.2" transform="rotate(-7.492 673.411 585.434)"/><ellipse cx="669" cy="583.7" class="st55" rx="3.2" ry="1.9" transform="rotate(-74.77 669.035 583.667)"/><ellipse cx="669.2" cy="576" class="st56" rx="3.5" ry="2.3" transform="rotate(-72.079 669.238 576.014)"/><ellipse cx="683.9" cy="573" class="st57" rx="1.7" ry="3.2" transform="rotate(-45.001 683.887 572.992)"/><ellipse cx="686.4" cy="570.3" class="st58" rx="1.7" ry="3.2" transform="rotate(-60 686.396 570.357)"/><ellipse cx="695" cy="567.3" class="st59" rx="2.2" ry="4" transform="rotate(-60.112 694.972 567.309)"/><ellipse cx="686.6" cy="579.2" class="st60" rx="1.7" ry="3" transform="rotate(-51.77 686.63 579.178)"/><ellipse cx="690.1" cy="575.5" class="st54" rx="2.2" ry="3.9" transform="rotate(-55.911 690.094 575.48)"/><ellipse cx="676.1" cy="564.7" class="st61" rx="3.2" ry="2.1" transform="matrix(.06052 -.9982 .9982 .06052 71.471 1205.386)"/><ellipse cx="676" cy="557.5" class="st61" rx="2.8" ry="2.3" transform="matrix(.06052 -.9982 .9982 .06052 78.538 1198.501)"/><ellipse cx="681.4" cy="561.7" class="st62" rx="2.8" ry="2.3" transform="rotate(-30 681.352 561.693)"/><ellipse cx="681.6" cy="567.4" rx="1.7" ry="2.2" style="opacity:.4;fill:#fff;stroke:#fff;stroke-width:1;stroke-miterlimit:9.9999;enable-background:new" transform="rotate(-45.001 681.575 567.435)"/><ellipse cx="678.6" cy="570.8" class="st62" rx="1.7" ry="2.2" transform="rotate(-30 678.631 570.83)"/><ellipse cx="673.5" cy="570.7" class="st62" rx="2.2" ry="1.7" transform="rotate(-72.788 673.499 570.721)"/><ellipse cx="671.1" cy="567.1" rx="2.2" ry="1.7" style="opacity:.4;fill:#fff;stroke:#fff;stroke-width:1;stroke-miterlimit:10.0001;enable-background:new" transform="rotate(-23.059 671.061 567.052)"/><ellipse cx="659.7" cy="569.5" class="st54" rx="2.8" ry="2.2" transform="rotate(-6.851 659.634 569.493)"/><ellipse cx="671.3" cy="562" class="st62" rx="1.7" ry="2.2" transform="rotate(-68.943 671.335 562.064)"/><ellipse cx="665.3" cy="564.8" class="st56" rx="1.7" ry="3.5" transform="matrix(.08507 -.9964 .9964 .08507 45.981 1179.7)"/><ellipse cx="657.7" cy="574.1" rx="4.1" ry="1.9" style="opacity:.2;fill:#fff;stroke:#fff;stroke-width:1;stroke-miterlimit:9.9995;enable-background:new" transform="rotate(-14.058 657.772 574.176)"/><ellipse cx="657.2" cy="565.3" class="st66" rx="4.1" ry="1.9"/><ellipse cx="659.8" cy="561.3" class="st67" rx="2.1" ry="3" transform="rotate(-75.93 659.79 561.28)"/><ellipse cx="661" cy="553.8" class="st68" rx="2.4" ry="4" transform="rotate(-66.473 660.976 553.78)"/><ellipse cx="664.6" cy="549.7" class="st49" rx="2.4" ry="4" transform="rotate(-41.952 664.6 549.672)"/><ellipse cx="682.2" cy="547.5" class="st54" rx="4.4" ry="2.1" transform="rotate(-68.15 682.179 547.47)"/><ellipse cx="686.2" cy="548.7" class="st54" rx="4" ry="2.1" transform="rotate(-68.15 686.183 548.64)"/><ellipse cx="688.9" cy="552.2" class="st49" rx="3.3" ry="1.8" transform="rotate(-37.079 688.908 552.23)"/><ellipse cx="665.5" cy="568.9" class="st58" rx="2.4" ry="1.2" transform="rotate(-18.414 665.452 568.942)"/><ellipse cx="665.2" cy="559.7" class="st58" rx="1.7" ry="3.5" transform="rotate(-55.39 665.233 559.715)"/><ellipse cx="667.1" cy="556.9" class="st60" rx="1.7" ry="3.5" transform="rotate(-48.239 667.165 556.938)"/><ellipse cx="673.4" cy="557.6" class="st59" rx="1.7" ry="3.5" transform="rotate(-29.888 673.402 557.653)"/><ellipse cx="672.6" cy="552.4" class="st58" rx="1.7" ry="3.5" transform="rotate(-30 672.562 552.392)"/><ellipse cx="674.8" cy="551.9" rx="1.4" ry="2.8" style="opacity:.3;fill:#fff;stroke:#fff;stroke-width:1;stroke-miterlimit:10.0003;enable-background:new" transform="rotate(-16.081 674.8 551.89)"/><ellipse cx="678.1" cy="552.5" class="st52" rx="2.8" ry="1.4" transform="rotate(-74.817 678.055 552.512)"/><ellipse cx="682.8" cy="555.7" class="st58" rx="3.9" ry="1.9" transform="rotate(-54.02 682.754 555.742)"/><ellipse cx="687" cy="557.8" rx="3.1" ry="1.7" style="opacity:.3;fill:#fff;stroke:#fff;stroke-width:1;stroke-miterlimit:9.9997;enable-background:new" transform="rotate(-10.848 686.983 557.844)"/><ellipse cx="687.8" cy="561.2" class="st48" rx="3.1" ry="1.7"/><ellipse cx="694.8" cy="565.8" class="st68" rx="1.7" ry="3.1" transform="matrix(.0828 -.9966 .9966 .0828 73.359 1211.353)"/><ellipse cx="692.8" cy="562.9" rx="2.1" ry="1.2" style="opacity:.2;fill:#fff;stroke:#fff;stroke-width:1;stroke-miterlimit:9.9997;enable-background:new" transform="rotate(-5.171 692.75 562.919) scale(.99997)"/><ellipse cx="694.2" cy="558.6" class="st50" rx="3.1" ry="1.7" transform="rotate(-12.472 694.17 558.635)"/><ellipse cx="692.4" cy="554.2" class="st50" rx="3.1" ry="1.7" transform="rotate(-30 692.35 554.215)"/><ellipse cx="687" cy="565.8" class="st57" rx="2.2" ry="4" transform="rotate(-77.267 687.048 565.816)"/><ellipse cx="679.9" cy="555.1" class="st50" rx="2.6" ry="1.3" transform="rotate(-54.02 679.937 555.08)"/><ellipse cx="669" cy="570.8" class="st56" rx="2.6" ry="1.3" transform="rotate(-38.409 669.046 570.747)"/><ellipse cx="663.9" cy="572.4" class="st55" rx="2.6" ry="1.3" transform="rotate(-38.409 663.938 572.324)"/><ellipse cx="662.4" cy="576.6" class="st55" rx="2.6" ry="1.3" transform="rotate(-38.409 662.361 576.552)"/><ellipse cx="666.2" cy="581.3" class="st67" rx="2.2" ry="1" transform="rotate(-52.316 666.154 581.275)"/><ellipse cx="662.4" cy="581.1" class="st49" rx="4.2" ry="1.9" transform="rotate(-45.001 662.4 581.13)"/><path d="M670.4 586.1s-2.6 25 13.1 24.7c0 0 4.5-1.4 2.8-4.2-1.3-2.4-2.3.9-2.3.9s-.1 3.3-4.1.9c0 0-8.7-3.2-8.6-23.4l-.9 1.1z" class="st51"/><path d="M670.4 585.9s2.3 15.8 12 13.4c0 0 2.6-1.5 1.2-3.1-1.2-1.3-1.3.9-1.3.9s.5 2.1-2.4 1.2c0 0-5.9-.6-9-13.3l-.5.9zM656.9 561.2s-14.7 6.4-17.6-3.1c0 0 0-3 2.1-2.6 1.7.4-.1 1.5-.1 1.5s-2.1.8.3 2.6c0 0 3.7 4.8 16 .6l-.7 1zM660.5 577.2s-3 6.3-7.6 3.3c0 0-1.2-1.2-.3-1.5.9-.4.5.6.5.6s-.5.8 1.2 1c0 0 3.1.9 6-3.9l.2.5z" class="st51"/><path d="M662.2 557.7s-10.5 4.8-13-3.2c0 0-.1-2.4 1.4-2.1 1.3.4 0 1.3 0 1.3s-1.4.5.3 2.2c0 0 2.8 4 11.7 1l-.4.8zM661 551s-18.8-25.5-3.9-34.3c0 0 5.1-1 5.5 3 .3 3.3-2.8.4-2.8.4s-2.3-3.6-4.4 1.4c0 0-6.2 8.5 7.3 30.4l-1.7-.9zM695.2 552.7s21.4-22 32.4-8.6c0 0 1.9 4.9-1.8 5.8-3.2.8-.9-2.6-.9-2.6s3.1-2.8-2.2-4.1c0 0-9.3-4.9-28 11.4l.5-1.9z" class="st51"/><path d="M694.6 554.6s13.9-9.1 18.1-.8c0 0 .4 2.8-1.7 2.8-1.8 0-.1-1.5-.1-1.5s1.9-1.2-.6-2.4c0 0-4.4-3.6-16.1 2.8l.4-.9zM689.2 577.7s25.6 23.3 15.1 33.2c0 0-4.4 1.4-6-2.4-1.4-3.2 2.3-.6 2.3-.6s3.3 3.3 3.5-1.7c0 0 2.8-8.7-16.9-28.9l2 .4zM689.3 572.3s8.4 9.5 17.4-2.1c0 0 1.9-3.7 0-3.5-1.7.3-1 1.9-1 1.9s1.3 1.2-1.9 3.2c0 0-6.3 5.5-14.2-.9l-.3 1.4zM657.6 567.7s-13.3-8.4-19.4 6.9c0 0-.9 4.6 1.3 3.9 1.9-.8.4-2.4.4-2.4s-1.9-.9 1.2-4.1c0 0 5.4-7.8 16.9-2.8l-.4-1.5z" class="st51"/><path d="M657.3 571.3s-8.4-1.5-8.4 7.3c0 0 .4 2.6 1.4 1.7 1-.9-.3-1.3-.3-1.3s-1.2-.1-.3-2.3c0 0 1.2-5 8-4.8l-.4-.6z" class="st51"/><path d="M693.6 567.5c.3.1.6.1.9.1 1.7.1 3.2-.5 3.2-1.4s-1.3-1.8-3-1.9h-.8v-.6c.4-.3.6-.5.6-.9 0-.3-.3-.5-.5-.6l.1-1.9h.1c1.7-.4 2.8-1.4 2.7-2.3-.1-.9-1.7-1.3-3.2-.9l-.4-1.4c1.3-.9 2.1-2.1 1.5-2.8s-2.1-.8-3.5.1l-.3.1-.3-.3c.8-.9 1-1.9.6-2.6-.4-.6-1.9-.6-3.2.3l-.5-.4.3-.5c.8-2.1.6-4-.5-4.5s-2.3.6-3.2 2.3l-.1-.1c.5-1.9.3-3.6-.6-4-.9-.4-2.4.8-3.3 2.8l-.5-.1c.3-1.5-.3-3.1-1.4-3.5s-2.8.8-3.3 2.6c0 .3-.1.4-.1.6h-.4v-.6c0-1-.6-1.8-1.3-1.7-.6.1-1 .9-1 1.9 0 .3.1.5.1.8l-.6.1c.1-.5.1-1 .1-1.4-.1-1.8-.9-3.2-1.8-3.2s-1.5 1.5-1.4 3.3c0 .5.1 1 .3 1.4-.8-1.2-1.7-1.8-2.3-1.5-.6.3-.8 1.8-.3 3.2-1.5-1.7-3.5-2.3-4.5-1.4-1 .9-.6 3 .9 4.6l.9.9-.4.3c-.4-.4-.9-.6-1.4-.8-2.1-.9-4.1-.6-4.6.6-.5 1.3.6 3 2.7 3.9l-.8 3.1c-1-.3-2.1.5-2.2 1.5-.1.9.4 1.8 1.3 2.2l-.1.4c-.4 0-.6-.1-1-.1-2.2 0-4.1.9-4.1 1.9s1.8 1.9 4.1 1.9h.3l.1 1c-.5.4-.8 1-.8 1.7.1.6.5 1.2 1.2 1.5l.1.6c-.3 0-.5.1-.6.1-2.2.5-3.7 1.8-3.5 2.8.3 1 2.3 1.4 4.4.9l.5-.1 1.5 1.9s0 .1.1.1l.1.1.8 1 .3.3-.4.4c-1.7 1.7-2.4 3.6-1.7 4.4s2.7 0 4.4-1.7c.3-.1.4-.4.5-.6l.3.3c-.1.3 0 .6.3.9.3.3.8.1 1.3-.3l1 .3v.1c-.5 1.7 0 3.3 1 3.6 1 .3 2.3-.9 2.8-2.6v-.1l.5.1c-.1.5-.1.9 0 1.4.3 1.8 1.3 3.1 2.4 3 1.2-.1 1.8-1.7 1.5-3.5 0-.3-.1-.5-.1-.8l.8-.3v.1c.9 2.1 2.3 3.3 3.1 3s.9-2.2 0-4.1l.4-.1c.1.4.3.9.4 1.3.9 1.9 2.2 3.2 3 2.8s.8-2.2 0-4.1c-.1-.3-.3-.5-.4-.8l.6-.3c0 .3.1.4.3.6.5 1.2 1.3 1.9 1.8 1.8.5-.1.5-1.3 0-2.6-.1-.3-.3-.4-.4-.6l.8-.8c1.3.9 2.7 1.2 3.2.5.5-.6 0-1.9-1-2.8l.8-.8.1.1c1.8 1.2 3.7 1.4 4.5.4.8-1-.1-2.4-1.5-3.6l.4-1.2c1.5.6 3.1.5 3.6-.4s-.4-2.7-2.3-3.9l.1-.5h-.1z" class="st48"/><path d="M686.1 567.1c.1 0 .4.1.5.1 1 .1 1.9-.3 1.9-.9 0-.6-.8-1-1.8-1.2h-.5v-.4c.3-.1.4-.3.4-.5 0-.1-.1-.4-.4-.4l.1-1.2h.1c1-.3 1.8-.9 1.7-1.4-.1-.5-1-.8-2.1-.6l-.3-.9c.8-.5 1.3-1.3 1-1.7-.3-.4-1.3-.4-2.2.1l-.1.1-.1-.1c.5-.6.6-1.2.4-1.5-.3-.4-1.2-.4-1.9.1l-.3-.3.1-.3c.5-1.3.4-2.4-.3-2.7-.6-.3-1.4.4-1.9 1.4.4-1.2.3-2.2-.4-2.4-.6-.3-1.5.5-2.1 1.7l-.4-.1c.3-.8-.1-1.7-.8-2.1-.8-.3-1.7.4-2.1 1.5 0 .1-.1.3-.1.4h-.3v-.4c0-.6-.4-1-.8-1s-.6.5-.6 1.2c0 .1 0 .4.1.5h-.4v-.9c0-1.2-.5-1.9-1-1.9s-.9.9-.9 2.1c0 .3.1.6.1.9-.4-.8-1-1.2-1.4-.9-.4.3-.5 1-.1 2.1-.9-1-2.2-1.4-2.7-.9s-.4 1.8.5 2.8c.1.1.4.4.6.5l-.3.3c-.3-.3-.5-.4-.9-.5-1.3-.5-2.6-.4-2.8.4-.3.8.4 1.8 1.7 2.3l-.5 1.9c-.6-.1-1.2.3-1.4.9-.1.6.3 1.2.9 1.4l-.1.3h-.6c-1.4 0-2.4.5-2.4 1.2 0 .6 1.2 1.2 2.4 1.2h.1l.1.6c-.4.3-.5.6-.5 1s.4.8.6.9v.4l-.4.1c-1.3.4-2.3 1.2-2.2 1.8.1.6 1.4.9 2.7.5l.3-.1.9 1.2v.1h.1l.5.6.1.1-.3.3c-1 1-1.4 2.2-1 2.7s1.7 0 2.7-1l.4-.4.1.1c0 .3 0 .4.1.5s.5 0 .8-.1l.6.1v.1c-.3 1 0 2.1.6 2.3.6.3 1.4-.5 1.7-1.7l.3.1v.9c.1 1 .8 1.9 1.4 1.8.6-.1 1-1 .9-2.2 0-.1 0-.4-.1-.5l.5-.1v.1c.5 1.3 1.4 2.1 1.9 1.8.5-.3.5-1.3 0-2.4h.3c.1.3.1.5.3.8.5 1.2 1.3 1.9 1.8 1.8.5-.1.5-1.4 0-2.6-.1-.1-.1-.4-.3-.5l.4-.1c0 .1.1.3.1.4.3.8.8 1.2 1.2 1 .4-.1.3-.9 0-1.5 0-.1-.1-.3-.3-.4l.5-.5c.8.6 1.7.8 1.9.3.3-.5 0-1.2-.6-1.8l.5-.5c1 .8 2.3.9 2.7.3.4-.6 0-1.5-1-2.2l.3-.6c1 .4 1.9.4 2.2-.3.3-.6-.3-1.7-1.4-2.3l.1-.4.9-.7z" class="st48"/><path d="M681 565.9h.3c.5 0 1-.1 1-.4s-.4-.5-.9-.6h-.3v-.3c.1-.1.3-.1.3-.3 0-.1-.1-.1-.1-.3v-.6c.5-.1.9-.4.9-.8s-.5-.4-1-.3l-.1-.4c.4-.3.6-.6.5-.9-.1-.3-.6-.3-1.2 0l-.1-.1c.3-.3.4-.6.3-.8-.1-.1-.6-.1-1 .1l-.1-.1v-.1c.3-.6.3-1.3-.1-1.4s-.8.3-1 .8c.1-.6.1-1.2-.3-1.3-.4-.1-.8.3-1 .9h-.1c.1-.4 0-.9-.4-1.2-.4-.1-.9.3-1 .8v.3h-.1v-.1c0-.3-.3-.5-.4-.5-.1 0-.4.3-.4.6v.3h-.3v-.5c0-.5-.3-1-.5-1s-.5.5-.4 1c0 .1 0 .3.1.5-.3-.4-.5-.6-.8-.5-.3.1-.3.5 0 1-.5-.5-1.2-.8-1.4-.4-.3.4-.3.9.3 1.4.1.1.1.3.3.3l-.1.1c-.1-.1-.3-.3-.4-.3-.6-.3-1.3-.3-1.5.3-.3.5.3.9.9 1.3l-.3 1c-.3 0-.6.1-.8.4 0 .3.1.6.4.8v.1h-.3c-.8 0-1.3.3-1.3.6s.6.6 1.3.6v.3c-.1.1-.3.4-.3.5 0 .3.1.4.4.5v.3h-.6c-.6.1-1.2.6-1.2.9 0 .3.8.5 1.4.3h.1l.5.6.3.3.1.1-.1.1c-.5.5-.8 1.2-.5 1.4.3.3.9 0 1.4-.5l.1-.3v.3c.1.1.3 0 .4-.1l.3.1c-.1.5 0 1 .4 1.2.4.1.8-.3.9-.9h.1v.5c0 .5.4 1 .8.9s.5-.5.5-1.2v-.3h.3c.3.6.8 1 1 .9.3-.1.3-.6 0-1.3h.1c0 .1.1.3.1.4.3.6.6 1 .9.9.3-.1.3-.6 0-1.3 0-.1-.1-.1-.1-.3h.3c0 .1 0 .1.1.3.1.4.4.6.6.5.3-.1.1-.4 0-.8l-.1-.3.3-.3c.4.3.9.4 1 .1.1-.3 0-.6-.3-.9l.3-.3c.6.4 1.2.4 1.4.1.3-.3 0-.8-.5-1.2l.1-.4c.5.3 1 .1 1.2-.1.1-.3-.1-.9-.8-1.3v-.1l.2.4z" class="st48"/><path d="M687 547.3c-.9 3.3-2.4 6.6-4.4 9.5v.1c-.8 1.3-1.7 2.4-2.7 3.6l-.3.3-.1.1c0 .1-.1.1-.1.1l-.4.4c-.8.8-1.5 1.5-2.4 2.3l-.3.3c-1.3 1.2-2.6 2.2-4 3.1-.3.1-.5.4-.8.5-1.4.9-3 1.8-4.6 2.6-.5.3-.9.4-1.4.6-.6.3-1.3.5-1.9.8l-.4.1-1 .4s-.1.1-.3.1c-.6.3-1.3.4-2.1.6l-.4.1h-.3l-1.3.3c-.6.1-1.3.3-2.1.4-1 .3 0 0 0 0-7.7 1.5-17.1 1.4-28.3-.9-11.8-2.4-19.9-7.7-25-14.2-2.1-2.7-3.7-5.7-4.9-8.7-1.2-3.1-1.8-6.2-2.2-9.4-.9-9.9 1.9-19.6 6.4-25.2 10.7-13.8 2.1-16.9 2.1-16.9 3.3-2.1 14.2-3.2 14.2-3.2 21-5.7 36-4 46.6 1.5 4.2 2.2 8 5 11.1 8.5 1.2 1.3 2.2 2.6 3.1 4 9.5 13.3 10.3 30.6 8.2 38.2z" class="st48"/><path d="M670.3 562.2c-9.5-4.6-16.9-12.7-20.5-22.6-3.9-10.4-4-22.3-1.5-33.1l.4-1.4c.3-1.4.6-2.7 1.2-4.1.1-.5.3-.9.4-1.4.1-.5.3-.8.4-1 .1-.3.4-1 .5-1.5l.4-1c.3-.5.4-1 .6-1.5l.5-1c0-.1.1-.3.1-.3.1-.4.4-.8.5-1 .9-1.8 1.8-3.6 2.8-5.3l.6-.9.1-.1c.1-.3.3-.5.5-.8l.5-.8.6-.9c.1-.3.4-.5.5-.6.1-.1.5-.6.8-.9v-.1c.5-.6 1-1.2 1.5-1.7 1.3-1.4 2.7-2.6 4.2-3.7.5-.4 1.2-.8 1.7-1 .3-.1.6-.3.9-.5l.9-.4.9-.4c3.9-1.3 7.7-3 11.3-5 8.4-4.6 9.3-8.6 9.3-9.9.9 9.3 2.1 7.1 2.1 7.1 13.4 5.5 13.8 17.8 13.8 17.8 12.3 5 10.8 10.8 14.3 27.5 3.5 16.4-11.3 69.8-50.3 50.5z" class="st48"/><path d="M675.7 561.4s18.8-57.1 69.9-31.1c0 0 19-1.3 24.8 9.3 5.8 10.5-.9 15.1-.9 15.1s18.8 8.5 5.8 22.8-44.5 30.1-77.2 14.3c0 0-23-12-22.4-30.4z" class="st48"/><path d="M707.9 636.9c-.8 8-9.3 11.6-9.3 11.6-5.5-12.3-27.4-9.9-27.4-9.9-4.4-1.3-8.4-3.7-11.4-6.9-7.7-8.2-7.8-20.7-5.7-32.3.6-3.2 1.4-6.3 2.2-9.3 1.3-4.5 3.2-8.7 5.8-12.6.6-.9 1.2-1.8 1.8-2.6.6-.8 1-1.3 1.4-1.8l.1-.1c.9-1 1.9-2.1 2.8-3.1l.5-.5c1-1 2.2-2.1 3.5-3 .6-.5 1.3-.9 1.9-1.3.6-.4 1.3-.5 1.9-.6.8-.1 1.5-.3 2.3-.4.6-.1 1.3-.1 2.1-.1l1.5-.1h1c1.3 0 2.6 0 4 .1h.3c1 0 2.1.1 3.1.3l2.1.3h.4c2.2.4 4.5.9 6.7 1.5 10.3 3 21.4 9.5 28 22.1 1 2.1 1.9 4.1 2.8 6.2 12.5 34-22.4 42.5-22.4 42.5z" class="st48"/><path d="M659.6 631.6c-7.7-8.2-7.8-20.7-5.7-32.3.6-3.2 1.4-6.3 2.2-9.3 1.3-4.5 3.2-8.7 5.8-12.6.6-.9 1.2-1.8 1.8-2.6.4 1.7.8 3.3 1.3 4.9 4.9 15.3-1 23.2-5.5 37.7-1.6 4.7-1.6 9.7.1 14.2z" class="st48"/><path d="m664.4 575.4-1.2 1.4c.3-.6.5-1.3.9-1.9.6-1.2 1.7-2.1 3-2.6l-2.7 3.1z" class="st66"/><path d="M617.5 557.4c-3 1-5.8 2.3-8.6 3.9-13.9 7.6-13.8 25.9-12.3 36.3-6.4-6.8-10.3-19 5.8-38.9 2.6-3.2 5.5-5.9 8.9-8.2 1.6 2.5 3.8 4.9 6.2 6.9zM729.9 555.6c2.8-1.7 5.5-3.6 8-5.8 12.9-10.9 9.4-31.6 6-43.2 7.7 6.8 13.9 20.1 1 45.2-1.9 4-4.5 7.6-7.6 10.8-2-2.6-4.6-5-7.4-7z" class="st48"/><path d="M676.9 566.8s.8.3 2.2.6c1 .3 2.4.6 4.1 1l.5.1c.1 0 .3 0 .4.1l.9.3 1.5.3.4.1c.3 0 .4.1.6.1 1.5.3 3.1.5 4.8.8l2.8.4c11.8 1.3 27.1 1 38.7-6.6 4-2.6 7.5-6 10-10 2.2-3.5 3.9-7.2 4.9-11.1 6.9-24.6-1.3-34.2-9.9-38-4.2-1.8-8.7-2.6-13.3-2.3 2.6-3.1-9.4-27.3-40.5-2.1-1.8 1.4-3.5 3-5 4.6-4.4 4.8-7.7 10.4-9.5 16.6-2.3 8.2-2.6 16.9-.8 25.2.3 1.2.5 2.3.6 3.3.5 1.9 1 3.7 1.5 5.4.1.3.1.5.3.8v.1c.4 1 .6 1.9 1 2.8.1.3.3.6.4.9.3.8.6 1.5.9 2.2 1.6 2.9 2.5 4.4 2.5 4.4zM594.1 540.1c7.3 3.7 19.8 11.1 24.4 20.2 5.9 11.8 38.3 15.8 45.9 16.5-10.8 3.5-22.9 3-33.8-.1l-1.5-.4c-1.4-.4-2.8-.9-4.1-1.4l-1.4-.5-1-.4-1.5-.8-1-.4c-.5-.3-1-.5-1.5-.8l-1-.5-.3-.1-1-.6c-1.8-1-3.6-2.1-5.3-3.3l-.9-.6-.1-.1-.6-.5-.8-.6c-.3-.3-.5-.4-.8-.6l-.6-.6c-.3-.3-.6-.5-.9-.8h-.3c-.6-.5-1.2-1.2-1.7-1.7-1.3-1.4-2.4-3-3.5-4.6-.4-.6-.6-1.3-1-1.8-.1-.3-.3-.6-.4-1-.1-.3-.1-.5-.3-.6l-.1-.3v-.1c-.1-.3-.3-.6-.3-1-1.2-4.7-2.8-8.7-4.6-12.5z" class="st48"/></g></svg>