<svg xmlns="http://www.w3.org/2000/svg" xml:space="preserve" style="enable-background:new 0 0 1000 1000" viewBox="0 0 1000 1000"><style>.st2,.st3,.st5,.st7{opacity:.56;enable-background:new}.st2{fill:none;stroke:#fff;stroke-miterlimit:10}.st3,.st5,.st7{fill:#fff}.st5,.st7{opacity:.73}.st7{opacity:.52}.st10,.st11,.st13,.st14,.st15,.st9{opacity:.3;fill:#fff;enable-background:new}.st10,.st11,.st13,.st14,.st15{opacity:.2}.st11,.st13,.st14,.st15{opacity:.39}.st13,.st14,.st15{opacity:.46}.st14,.st15{opacity:.47}.st15{opacity:.61}</style><g id="Layer_18"><path d="M370.3 916.6s12.9-38.7-33.1-66.3-110.4-83.8-110.4-83.8-43.3-97.6-90.2-122.4c0 0 57.1-13.8 120.6 34.1C320.6 726 399.8 804.3 392.4 853c-7.3 48.8-22.1 63.6-22.1 63.6z" style="opacity:.28;fill:#fff;enable-background:new"/><path d="M397 900.8s21.2-32.2 39.6-44.2c18.4-12 116-24.9 127-26.7 11-1.8 93.9-95.7 106.8-103.1 12.9-7.4 25.8-17.5 34.1-17.5s-50.6-23.9-82.8-1.8c-32.2 22.1-102.2 73.6-132.6 96.7-30.4 23-53.4 26.7-64.4 37.7-11.2 11.1-30.5 37.8-27.7 58.9z" style="opacity:.41;fill:#fff;enable-background:new"/><path d="M370.3 916.6s34.1-55.2-58.9-100.3c0 0-32.2-29.5-46.9-41.4-14.7-12-39.6-29.5-46-41.4-6.5-12-46-67.2-81.9-89.3 0 0 170.3 161.1 188.7 172.1 18.4 11.1 70.3 45 51.3 94.2" class="st2"/><path d="M371.8 913.6s5.2-51.2-28.3-94.8-133.1-147-147.2-157.5c-14.1-10.5-59.8-17.2-59.8-17.2" class="st2"/><path d="M145.4 645.9s41.1 20.9 58.3 43.6 34.4 38.1 45.4 52.2c11 14.1 49.1 46 60.7 57.1 11.7 11 77.3 70 73 84.1 0 0 5.5-38.7-8-60.7-13.5-22.1-112.2-138.5-125.6-149" class="st2"/><path d="M377.9 898.3s24.2-32.8-11-73.3-79.1-113.8-79.1-113.8-11-106.2-48-144.3c0 0 58.6 4.5 104.2 69.7s96.7 164 74.6 208.2c-22.1 44.1-40.7 53.5-40.7 53.5z" class="st3"/><path d="M377.9 898.3s49.4-42-25-113.6c0 0-21.5-38-31.8-53.9-10.3-15.9-28.6-40.2-31-53.7-2.4-13.4-23-78.1-50.3-110.2 0 0 112.2 205.8 126.3 222 14.1 16.2 52.9 64.6 19.6 105.4" class="st2"/><path d="M380.4 895.9s20.8-47.1 2.5-98.9-81.3-181-91.5-195.3c-10.2-14.3-51.6-34.8-51.6-34.8" class="st2"/><path d="M247.7 571.4s32.7 32.5 42 59.4c9.3 27 20.9 46.8 27.1 63.6 6.1 16.8 32.5 59 40.1 73.1 7.6 14.1 51.9 90.4 43.5 102.5 0 0 17.2-35.1 11.2-60.3-6-25.2-63.8-166.4-73.5-180.5" class="st2"/><path d="M452.3 735s7.2-40.1 60.8-42.3 137-20.6 137-20.6 84.8-64.9 137.9-64.2c0 0-43.5-39.5-122.2-27.9s-185.7 42.4-202.6 88.7C446.4 715 452.3 735 452.3 735z" style="opacity:.33;fill:#fff;enable-background:new"/><path d="M452.3 735s-3.4-64.8 99.8-59.8c0 0 42.4-10.4 61.1-13.9 18.7-3.4 48.9-6.9 60.3-14.3 11.4-7.4 72.6-36.9 114.7-39.1 0 0-226.7 59.8-248.1 60.6s-83.4 5.9-90.1 58.1" class="st2"/><path d="M452.4 731.6s20-47.5 70.2-69.7c50.2-22.2 187.3-65.2 204.7-67.6s60.7 13.6 60.7 13.6" class="st2"/><path d="M779.4 605.3s-46.1-1.4-72 10.3c-26 11.7-48.4 17-64.8 24s-65.2 16.9-80.7 21c-15.5 4.1-101.4 24.4-104.4 38.8 0 0 13.7-36.6 36.1-49.4 22.4-12.9 164.8-67.8 181.7-70.5M402.5 885.9s1.2-31.9 103.7-60.1c0 0 104.3-60.1 113.5-68.1 9.2-8 31.9-27 38.7-27.6 4.1-.4 8.2-1.4 12-3.1" class="st2"/><path d="M699.5 707.9c-33.1.6-60.1 20.9-84.7 31.9s-51.6 39.9-128.3 77.3c-76.7 37.4-88.4 79.1-88.4 79.1" class="st2"/><path d="M400.7 892s4.9-44.2 77.3-74.9c0 0 57.1-33.8 65.7-41.1 8.6-7.4 64.4-41.1 74.9-50.3 10.4-9.2 55.8-21.5 73-21.5" class="st2"/><path d="M381.8 444.8c-2.3 4.6-13.4 4.1-18 1.4 0 0-4.2-18.2-10.1-44.3-.5-1.5-.9-3.1-1.4-4.9-10.1-36.4-48.8-88.4-48.8-88.4 16.5 5.1 35.5 45.3 44.1 65.5-10.5-48.6-22.7-108.9-25.2-137.7-.8-2.3-2.2-4.4-4-6.1-3.1-3.1 7.7-8.6 10.4-2.8-1.2 2.5-1.8 5.2-1.5 8 .2 2.7 8.3 49.3 19.1 97.3 3.6-21.2 14.3-32.1 15-32.8-12.1 15.9-10.1 49.7-9.7 55.7 7.6 31.1 15.9 59.9 23.6 74.5 0-.1 8.8 10 6.5 14.6z" class="st5"/><path d="m648.2 448.9 9.2 6.5c-3.6 15.6-57.9 78.2-57.9 78.2-21.2 11-73.6 62.6-80.1 71.8-6.4 9.2-11 30.4-11 30.4l-17.5 16.6c-27.7 35.9-43.3 146.3-74.6 205.3-31.3 58.9-38.7 114.1-38.7 114.1l-25.8-3.7c6.4-31.3 30.4-77.3 30.4-77.3 49.7-103.1 87.4-232.9 87.4-232.9-73.7-77.3-104-211.6-104-211.6l14.7-2.8c-2.8 93 93.9 206.2 93.9 206.2 46.9-52.5 59.8-169.4 59.8-169.4C491 423 480.7 285 479.9 273c-1-.5-1.9-1-2.5-1.6 0 0-.4-14-.8-34-.1-1.2-.2-2.4-.3-3.8-2-28.1-21.7-71.6-21.7-71.6 10.8 6 18.4 38.1 21.6 54.1-.5-37.2-.6-83.3 1.7-104.8-.3-1.8-.9-3.5-1.9-5.1-1.7-2.7 6.6-5.3 7.7-.6-1.2 1.7-2 3.6-2.2 5.7-.3 2-1.1 37.4-.3 74.2 5.5-15.1 14.5-21.7 15.1-22.2-10.7 10.1-14 35.3-14.6 39.7.5 11.9 1.1 23.5 2.1 33.6 1 10 2.3 18.6 3.9 24.5 0 .1 4.2 7.7 2.8 11.2h.5c-2.8 120.6 54.3 205.3 54.3 205.3 87.4-83.8 127.9-255.9 127.9-255.9l12-.9c-25.8 130.7-121.5 254.1-131.6 266-10.1 12-31.3 98.5-31.3 98.5 65.2-39.7 125.9-136.4 125.9-136.4z" style="opacity:.86;fill:#fff;enable-background:new"/><path d="M461.9 244.6s6 40.1 34.1 22.1c0 0 8.7-62.6-9.7-100.3 0 0-11-41-11.5-50.6s-.9-12-3.2-17c-2.3-5.1-1.4-7.8-7.4-13.4-5.9-5.5-9.2-6-10.1-7.4-.9-1.4-2.8 28.1-4.6 42.4s-.5 82.3 12.4 124.2z" class="st7"/><path d="M460.1 248s8.9 39.6 35.6 19.5c0 0 4.1-63.1-17-99.4 0 0-14-40-15.2-49.6-1.2-9.6-1.8-11.9-4.5-16.8s-1.9-7.7-8.3-12.7c-6.4-5-9.6-5.3-10.6-6.6-1-1.3-.7 28.3-1.4 42.6s5.5 82.2 21.4 123z" class="st7"/><path d="M474.8 259.3s-18.4-79.6-7.4-117.8 23-58 31.8-62.2c8.7-4.2 7.8 0 7.8 0s-18.9 23.5-6.4 66.7 13.8 69.5 6 91.6c0 0-6.9 33.6-23 36.3-.1.1-5.6-3.1-8.8-14.6z" class="st7"/><path d="M682.7 232.2c-3 2.4-9.9-1.5-11.9-4.8 0 0 3.4-13.6 8.5-32.9.2-1.1.5-2.4.7-3.8 5.8-27.6-1.3-74.8-1.3-74.8 8.7 8.7 7.3 41.7 6 57.9C694.4 138 707 93.6 715 73.6c.2-1.8.1-3.6-.5-5.4-.9-3 7.8-3.3 7.5 1.4-1.6 1.3-2.9 2.9-3.6 4.9-.8 1.9-11.3 35.7-20.6 71.3 9.4-13 19.9-17 20.6-17.2-13 6.8-23.2 30.1-24.9 34.2-5.7 23.2-10 45.2-10.1 57.4.1.1 2.3 9.7-.7 12z" style="opacity:.5;fill:#fff;enable-background:new"/><path d="M663.3 197.4s-5.2 40.1 26.7 30.6c0 0 25.5-57.8 18.2-99.2 0 0 .6-42.4 2.8-51.8s2.4-11.8 1.6-17.2c-.8-5.5.8-7.9-3.4-14.9-4.3-7-7.2-8.3-7.7-9.9-.5-1.6-10.4 26.3-16.1 39.5s-23.1 79-22.1 122.9z" class="st9"/><path d="M658.9 197.1s0 40.5 30.4 26.8c0 0 17.9-60.6 5.2-100.7 0 0-4.9-42.1-3.9-51.8s.8-12-.7-17.3-.2-7.9-5.3-14.3-8.2-7.3-8.9-8.8c-.7-1.5-6.9 27.4-10.8 41.2s-12.6 81.5-6 124.9z" class="st10"/><path d="M663.2 214.1s9.2 22.9 21.8 8.4c0 0-4.6-38.3-20.2-58.1 0 0-12.1-22.7-13.8-28.4s-2.3-7-4.2-9.6c-1.9-2.7-1.9-4.4-6-6.9s-5.9-2.3-6.6-3 2.7 17 3.8 25.7c1.1 8.8 11.9 48.9 25.2 71.9z" class="st9"/><path d="M671.6 215.1s4.1-81.6 25.1-115.3 38-49.4 47.6-51.1c9.5-1.6 7.5 2.1 7.5 2.1s-24.6 17.4-24.5 62.4c.1 45-5.7 70.6-19.3 89.7 0 0-15.8 30.4-32.1 28.7.1 0-4.3-4.6-4.3-16.5z" class="st10"/><path d="M674.3 212.3s31.6-75.4 62.9-99.9c31.3-24.6 52.6-33.6 62.2-31.9s6.3 4.6 6.3 4.6-29 8-44.2 50.4c-15.2 42.4-29.5 64.5-48.7 77.8 0 0-25.2 23.2-39.9 16.1-.1 0-2.7-5.9 1.4-17.1z" class="st10"/><path d="M377.2 448.9s-36.3-7.8-48.3-20.2c-12-12.4-32.2.9-34.5 1.8-2.3.9-3.7-2.8-7.8 0-4.2 2.8-14.3 10.6-14.3 14.7s4.6 8.3-.5 9.7c-5.1 1.4-6-5.5-11 2.8-5.1 8.3-12 21.6-13.4 29.9s1.9 25.8-7.4 20.7-22.1-20.7-20.3-40c1.8-19.3 4.6-33.1 9.7-41.9 3.8-6.2 8.1-12 12.8-17.5 0 0 4.6-14.7 15.2-16.1 10.6-1.4 70 7.4 81 16.6 11 9.2 36.8 20.2 43.3 35.4" class="st11"/><path d="M428.3 282.8c-5.1-3.2-6.9-7.4-10.1-2.8-1.3 1.7-2.8 3.2-4.4 4.6-1.4 1.6-2.7 3.9-3.4 9.2-1.4 10.1-6.4 44.6-3.2 59.8 3.2 15.2-18.9 55.2-20.7 70s1.4 27.6-13.8 25.8c0 0-16.6-35.4-11-69.5 5.5-34.1-2.3-40-2.3-40s6.9-3.7 7.4-17c.5-13.4 8.3-24.8 10.1-27.6 1.9-2.8-.9-6.9-.9-6.9s5.1 4.1 8.3-.9c3.2-5.1 8.7-17.5 13.4-17.5s4.1-2.3 8.7-1.4c4.6.9 22.6-3.7 23 .9.2 4.5 3.9 16.5-1.1 13.3z" class="st7"/><path d="M428.3 282.8c-5.1-3.2-6.9-7.4-10.1-2.8-1.3 1.7-2.8 3.2-4.4 4.6l-7.6-16.1c4.6.9 22.6-3.7 23 .9.4 4.6 4.1 16.6-.9 13.4zM463.4 313.7c-4.7-4.1-5.8-8.2-10.2-4.9-1.8 1.2-3.7 2.2-5.7 3-1.9 1.1-3.6 2.8-5.5 7.3-3.5 8.7-16 38.1-15.7 52.4.3 14.3-31.4 44.5-36.4 57.2-5 12.6-4.2 24.9-20 19.6 0 0-10.4-35.6 2.5-64.5s5.8-36.2 5.8-36.2 8.1-1.6 11.3-13.4c3.2-11.8 13.9-20.1 16.4-22.1 2.5-2 .4-6.4.4-6.4s4.5 4.9 9 1.2 12.9-13.4 17.8-12.3c4.9 1.1 4.9-1 9.6.9 4.7 1.9 24.7 2.2 24.3 6.5s1.2 15.8-3.6 11.7z" class="st7"/><path d="M463.4 313.7c-4.7-4.1-5.8-8.2-10.2-4.9-1.8 1.2-3.7 2.2-5.7 3l-4.7-16.2c4.7 1.9 24.7 2.2 24.3 6.5s1.1 15.7-3.7 11.6zM377.2 448.9s-92-60.3-122-61.7-38.1 6.9-47.9 6.4c-9.7-.5-33.6 7.8-35.4 46.9 0 0-10.6-13.4-6-24.8 4.6-11.5 14.3-23.9 23.5-30.4 9.2-6.4 20.7-11 24.4-11.5s8.3-5.1 25.3-3.7c17 1.4 33.1 12 42.4 15.2 9.3 3.2 91.6 23.9 100.3 54.3 0 .1 4.1 8.4-4.6 9.3z" class="st7"/><path d="M375.4 445.2s-67.4-33.4-87.9-31.9-25.4 7.8-32 8.3c-6.5.5-22.2 8.1-20.2 34.8 0 0-8.3-8.2-6.1-16.4 2.4-8.6 7.1-16.4 13.4-22.6 5.7-5.1 13.2-9.2 15.6-9.8 2.5-.6 5.2-4.1 16.9-4.6s23.5 5.4 30 6.9 64.1 8.8 72.6 28.7c0 0 3.5 5.3-2.3 6.6z" class="st7"/><path d="M377.2 448.9s-6.4-39.1-9.7-56.6c-3.2-17.5-13.3-33.6-26.7-35.4-13.4-1.8-24.9-3.7-29-7.8 0 0-1.4 7.8-5.1 11-3.6 3.2 12 32.2 22.6 39.1 10.6 6.9 29.4 28.1 30.8 34 1.4 6 7 16.2 17.1 15.7z" class="st7"/><path d="M370.3 444.7s-33.4-54.6-47.9-79.3-20.1-54-7.4-68.5c12.7-14.4 23.4-27.3 23.7-36.2 0 0 9.6 8.5 17 9.2 7.3.7 20.2 51 15.7 69.2-4.5 18.2-3.2 61.8 1.4 70.5 4.6 8.7 9.1 26.5-2.5 35.1z" class="st11"/><path d="M377.2 448.9s-28.1-64-54.8-83.8-35.9-21.2-45.6-33.6c0 0-5.1 2.8-8.3 13.4s-16.1 13.3-4.6 23c11.5 9.7 27.2 13.8 30.8 18.9 3.7 5.1 33.1 23.5 39.6 31.3s32.3 30.4 42.9 30.8z" class="st7"/><path d="M376.1 437.9s-36.1-78.4-70.5-102.6-46.2-25.9-58.7-41.2c0 0-6.5 3.4-10.7 16.3-4.2 13-20.7 16.3-5.9 28.2 14.8 11.8 35 17 39.7 23.1 4.7 6.2 42.7 28.7 51 38.3 8.3 9.7 41.5 37.3 55.1 37.9z" class="st11"/><path d="M648.5 449.7c1.2 5.6 13.2 8.1 18.8 6.4 0 0 9.6-18.4 23-44.6.9-1.4 1.9-3.1 2.8-4.9 20.9-36.1 76.7-81.1 76.7-81.1-19.1.9-50.5 38.7-65.3 57.9C729.2 334.2 759 273 769.6 243c1.5-2.3 3.6-4.1 6-5.5 4.1-2.4-5.8-11.3-10.4-5.8.6 3 .5 6.1-.6 8.9-.9 2.8-22.5 50.4-47.4 98.9 2-23.6-6.4-38.3-7.1-39.3 8.5 20.4-2.8 56-5 62.3-16.6 31.2-33.4 59.7-45.7 73.2.1 0-12.1 8.4-10.9 14z" style="opacity:.85;fill:#fff;enable-background:new"/><path d="M598.1 275.5c5.6-3.6 7.6-8.1 11.2-3 1.5 1.8 3.1 3.5 4.9 5.1 1.6 1.8 3 4.2 3.8 10.2 1.5 11.2 7.1 49.3 3.6 66.1s20.9 61.1 22.9 77.3c2 16.3-1.5 30.5 15.3 28.5 0 0 18.4-39.2 12.2-76.8s2.5-44.3 2.5-44.3-7.6-4.1-8.1-18.8-9.1-27.5-11.2-30.5c-2-3.1 1-7.6 1-7.6s-5.7 4.6-9.2-1c-3.5-5.6-9.7-19.3-14.8-19.3-5.1 0-4.6-2.5-9.7-1.5s-24.9-4.1-25.4 1c-.6 4.9-4.6 18.1 1 14.6z" class="st13"/><path d="M598.1 275.5c5.6-3.6 7.6-8.1 11.2-3 1.5 1.8 3.1 3.5 4.9 5.1l8.3-17.8c-5.1 1-24.9-4.1-25.4 1-.6 5-4.6 18.2 1 14.7z" class="st13"/><path d="M559.2 309.6c5.2-4.5 6.4-9.1 11.3-5.5 2 1.3 4.1 2.4 6.2 3.3 2.1 1.2 4 3.1 6.1 8.1 3.9 9.6 17.7 42.2 17.3 57.9-.4 15.8 34.7 49.2 40.2 63.2s4.6 27.6 22.1 21.6c0 0 11.5-39.3-2.7-71.3s-6.4-40-6.4-40-8.9-1.8-12.5-14.7-15.4-22.2-18.2-24.4-.5-7.1-.5-7.1-5 5.4-9.9 1.3-14.2-14.8-19.7-13.6-5.4-1.1-10.6 1c-5.2 2.1-27.4 2.5-26.8 7.1.6 4.9-1.2 17.7 4.1 13.1z" class="st11"/><path d="M559.2 309.6c5.2-4.5 6.4-9.1 11.3-5.5 2 1.3 4.1 2.4 6.2 3.3l5.2-17.9c-5.2 2.1-27.4 2.5-26.8 7.1.5 4.8-1.2 17.6 4.1 13z" class="st7"/><path d="M579.8 404.7c.1-6.9-2.4-10.9 3.5-12 2.3-.6 4.5-1.4 6.7-2.4l-9.8-15.9c-1.9 5.3-16.5 21.9-12.7 24.7 3.8 2.8 12.1 12.6 12.3 5.6z" class="st9"/><path d="M811.1 522.5c3.6-5.9 7.9-7.9 3.5-12-1.6-1.7-3.1-3.6-4.4-5.6-1.5-1.9-3.7-3.5-9-4.6-10.1-2.2-44.5-10.3-60.1-7.3-15.5 3-54.3-25.9-69-29-14.7-3.1-27.9 0-25-18.1 0 0 36.8-17.9 70.8-9.3s40.5-.5 40.5-.5 3.2 8.5 16.7 9.9c13.4 1.4 24.5 11.4 27.1 13.8 2.7 2.4 7.1-.7 7.1-.7s-4.5 5.9.4 10c4.9 4.2 17 11.5 16.7 17.1s2 5.1.8 10.6 2.2 27.4-2.5 27.7c-4.8.2-17.2 3.9-13.6-2z" class="st14"/><path d="M870.7 492.7c2.8-7.9 7.5-11.3 1.3-15.2-3-1.9-4.5-3.9-6.5-5.7-2.1-1.7-5.3-3.2-11.9-3.4-12.6-.3-55.7-1.7-73.5 5.7-17.8 7.3-71.2-18-89.5-18.1-18.3-.1-33.4 6.8-34.3-15.7 0 0 39.8-30.3 82.4-28.1 42.6 2.2 48.3-10.3 48.3-10.3s5.9 9.4 22.3 7.8c16.4-1.6 32 7.8 35.7 10 3.7 2.2 8.2-2.6 8.2-2.6s-4 8.1 2.8 11.9c6.8 3.8 23.1 9.7 24 16.4.9 6.7 3.7 5.7 3.5 12.5-.2 6.9 9.1 32.2 3.6 33.7-5.5 1.6-19.2 9-16.4 1.1z" class="st15"/><path d="M811.1 522.5c3.6-5.9 7.9-7.9 3.5-12-1.6-1.7-3.1-3.6-4.4-5.6l16.8-8.2c-1.2 5.5 2.2 27.4-2.5 27.7s-17 4-13.4-1.9zM654.5 459.2s101.7-66.7 134.8-68.2c33.1-1.5 42.2 7.6 52.9 7.1 10.7-.6 37.1 8.7 39.2 51.9 0 0 11.7-14.8 6.6-27.5s-15.7-26.4-26-33.5c-10.2-7.1-22.9-12.2-27-12.7-4.1-.5-9.2-5.7-28-4.1-18.8 1.6-36.6 13.2-46.8 16.8S659 415.5 649.3 449c.1 0-4.4 9.1 5.2 10.2z" class="st14"/><path d="M654.5 459.2s7.1-43.2 10.7-62.6c3.6-19.3 14.7-37.1 29.5-39.2 14.7-2 27.5-4.1 32.1-8.6 0 0 1.5 8.6 5.7 12.2 4.1 3.6-13.2 35.6-24.9 43.2s-32.5 31.1-34.1 37.6c-1.7 6.6-7.8 17.9-19 17.4z" class="st5"/><path d="M662.1 454.4s36.9-60.4 53-87.7c16.1-27.3 22.3-59.7 8.2-75.7-14.1-16-25.9-30.1-26.1-39.9 0 0-10.6 9.4-18.8 10.1-8.2.7-22.3 56.4-17.4 76.6 4.9 20.2 3.6 68.3-1.6 77.9-5.1 9.7-10.1 29.2 2.7 38.7z" class="st11"/><path d="M654.5 459.2s31.1-70.7 60.5-92.6c29.5-21.9 39.7-23.4 50.4-37.1 0 0 5.7 3.1 9.2 14.7s17.8 14.7 5.1 25.4c-12.7 10.7-30 15.3-34.1 20.9s-36.6 26-43.8 34.6-35.6 33.6-47.3 34.1z" class="st15"/><path d="M655.7 446.9s40-86.6 78-113.4c38-26.8 51.1-28.7 64.9-45.5 0 0 7.2 3.7 11.8 18.1 4.6 14.3 22.9 18.1 6.6 31.2-16.4 13.1-38.7 18.7-43.9 25.6-5.2 6.9-47.2 31.8-56.3 42.4-9.3 10.5-46 41-61.1 41.6z" class="st3"/><path d="M665.4 459s-45.9-11.2-65.4-30-22.9-26.5-33.1-32.3c0 0 .2-4.9 5.5-9.8s3.2-16.5 12.2-8.6c9.1 7.9 16.1 20.5 20.1 22.6 4.1 2.1 23.5 23.6 30 27.6s27.4 21.5 30.7 30.5z" class="st5"/></g></svg>