<svg xmlns="http://www.w3.org/2000/svg" xml:space="preserve" style="enable-background:new 0 0 1000 1000" viewBox="0 0 1000 1000"><style>.st1,.st2,.st3{opacity:.2;fill:#fff;enable-background:new}.st2,.st3{opacity:.44}.st3{opacity:.19}.st10,.st11,.st13,.st4,.st6,.st7{opacity:.1;fill:#fff;enable-background:new}.st10,.st11,.st13,.st6,.st7{opacity:.3}.st10,.st11,.st13,.st7{opacity:.56}.st10,.st11,.st13{opacity:.74}.st11,.st13{opacity:.49}.st13{opacity:.63}</style><g id="Layer_12"><path d="m578.3 987.1 22-17.3s-34.6-99.2-33.9-125.9c0 0 25.2-51.2 30.7-91.3 5.5-40.1 19.7-79.5-4.7-155.8 0 0 9.5-26-25.2-48.8 0 0-17.3-36.2-.8-73.2 0 0 31.5-39.4 33.8-77.1 0 0 11-20.5 39.4-26.8 28.4-6.3 60.6-36.2 64.5-47.2 0 0 26.8-15 48-18.9 21.3-3.9 39.4-25.2 39.4-25.2s35.4-18.1 48.8-25.2c13.4-7.1 18.9-21.3 17.3-29.9-1.6-8.7-18.1-26.7-21.2-39.4-1.9-7.7-2.4-15.7-1.6-23.6 0 0 3.9 2.7 4.2 11.5s4.7 0 2.4-13.9c-1.2-7.8-3.6-15.4-7.1-22.4 0 0-11.2 33.9-3.2 51.7s33.9 36.9 3.2 56.1c0 0-28.6 16.5-39.5 26 0 0-11 8.2-11.5 2.4-.5-5.9 6.2-19.8-8.5-39.8s-20.1-35.4-15.4-59.9c0 0 3.8-8.9 4.7 9.7 0 0 2.1 4.7 2.7-.9s1.2-19.2-7.1-27.7c0 0 1.2 19.8-2.7 11.5-3.8-8.3-4.1-12.4-9.7-16.5.9 5.1.7 10.3-.6 15.4-2.1 9.1-.3 35.1 1.2 38.7 3.3 8.3 8.1 15.9 14.2 22.4 8.2 8.6 28.3 38.4 12.4 53.7-16 15.3-58.7 28.9-68.8 37.2 0 0 4.7-12.7-8.9-31.9-13.6-19.2-46-52.6-45.7-86.3 0 0 1.5-12.7 6.9-16.2s5 9.7 3.3 14.8c-1.8 5 2.1 4.4 3.8 1.5s7.7-30.1 2.4-42.2c0 0-3-3.2-3 3.8 0 7.1-.6 15.1-3.8 13.6 0 0-.3-21.2-9.5-27.7 0 0 4.7 10.3 1.2 18.6s-25.1 19.2-.3 60.5 46.7 56.1 39.8 98c0 0-19.2 26-62.6 42.2 0 0-23.3 9.4-31 24.2 0 0-16-29.9-19.2-56.3-3.2-26.4-21.6-53.9-25.2-63s-3.5-19.7-3.5-22c0 0 5.1 5.5 5.5 8.2s1.2-5.5-2.7-11.8-11.8-13.4-16.5-14.2c0 0 10.6 5.9 9.4 13-1.2 7.1 2.4 25.2 4.7 29.1 2.4 3.9-3.9 3.1-10.6-3.5-6.7-6.7-19.2-14.6-21.6-23.2 0 0-3.9-1.6-.8 5.9 3.1 7.5 23.2 23.6 23.2 23.6s-.4 3.5-18.9-2c0 0 3.9 6.3 20.9 7.5 0 0 13-2.7 27.2 66.5 0 0 10.6 32.7 14.2 47.6s-6.7 37.8-22.4 61.4c0 0-10.6 19.3-12.2 26.4 0 0-27.7-52.5-89.7-82.6 0 0-86.8-43.7-109.8-86.2 0 0-4.7-2.4-6.5-13.6 0 0-5.9-5.3-5.3 1.8.6 7.1 8.2 29.5 9.4 25.4.7-2.5.7-5.2 0-7.7 0 0 22.4 44.3 107.4 84.4 0 0 71.4 34.2 87.4 83.2 0 0-5.9 5.9-24.2-8.9-18.3-14.8-30.7-47.8-30.7-47.8s5.9 37.8 30.7 55.5c24.8 17.7 26.6 24.8 27.2 46.1 0 0-62 8.9-119.2-20.1 0 0-18.3-14.2-20.7-25.4 0 0-2.4 8.9-.6 16.5 0 0-3 4.7-10-11.8-7.1-16.5 1.8-26 8.9-28.3 0 0-13-3.5-14.8 21.8 0 0-7.1-3.5-5.9-19.5 0 0-4.1-2.4-4.7 8.9l-17.1-10 11.8 13-20.1 3 19.5 1.8-7.1 10 12.4-5.9-4.1 12.4 8.9-10.6s11.8 19.5 26 24.2c0 0-30.1-9.4-46 10.6 0 0 28.3-9.4 45.4-6.5 0 0-29.5 5.3-26.6 17.7 0 0 33.1-14.2 89.2-1.8 56.1 12.4 91.5 31.3 91.5 31.3s41.3 68 21.2 171.3c0 0-29.3 89.5-38.8 108.4l-10.2 20.5c-.4-.4 25.6 51.6 43.7 123.2z" style="opacity:.88;fill:#fff;enable-background:new"/><path d="M691.8 322.9s4.9-46.5 26.6-61.5c0 0-5.9 42.1-19.3 62.2 0 0-5.5 7.2-7.3-.7z" class="st1"/><path d="M695.9 324.4s12.2-37.1 3.9-56.7c0 0-11.4 16.1-11.8 47.2.1 0 .5 15 7.9 9.5z" class="st1"/><path d="M701.4 314.5s1.6-17.3-15.3-59.8c0 0-5.5-26 5.9-51.2 11.4-25.2 2.7-55.1-11.4-68.9-14.2-13.8-16.1-12.6-16.1-12.6s-40.9 46.8-23.6 92.9c0 0 19.2 34.2 35.4 54.3 16.2 20.1 25.1 45.3 25.1 45.3z" class="st2"/><path d="M699.1 323.6s-6.3 7.7-7.3-.7c0 0 7.8-8.7 2.6-24.4-1.8-5.4-4.5-10.4-7.9-15l-.8-.7c-.8-.7-2.1-2-3.8-3.8l-1-1.1c-1.2-1.4-2.6-2.9-4.1-4.6-.5-.5-.9-1-1.4-1.5-20.3-23.3-58.9-78.3-35.7-137.8 0 0 27.7-51.2 45.5 6 .2.6.4 1.2.5 1.8 7.1 24.2 6.1 46.7 4 67.4v.3c-1.6 16.2-4 31.4-3.5 45.4.1 2.7.3 5.3.6 7.9 1 9.7 4.3 19.1 9.6 27.3 1.7 3.8 3.1 7.8 4 11.8v.1c1.5 6.8 2.2 15.1-1.3 21.6z" class="st2"/><path d="M688.6 209.7c-.2 1.8-.4 3.5-.7 5.2v.1c-.5 3.3-1.2 6.5-2 9.6-4.6 18.5-12 33.9-6.1 49.2l.5 1.3s.3 1 .6 2.6c-1.2-1.4-2.6-2.9-4.1-4.6-.3-.9-.7-1.8-1.1-2.6 0 0-.3-.5-1-1.4-2.8-3.9-5.3-8.1-7.5-12.4-8.7-16.5-19.1-45.9-3-72.5 0 0 20.5-26 24.5 8.7.5 5.6.5 11.2-.1 16.8z" class="st1"/><path d="M785.3 278.9s2.5-16.5-11.3-58.4c0 0-3.8-25.3 8.6-48.9 12.4-23.6 5.8-52.8-7-66.9-12.8-14.1-14.8-13-14.8-13s-42 42.7-28 87.9c0 0 16.6 34 31 54.2s21.5 45.1 21.5 45.1z" class="st3"/><path d="M782.5 287.5s-6.5 7-7-1.1c0 0 8-7.9 3.9-23.3-1.5-5.3-3.7-10.3-6.7-14.9l-.7-.7c-.7-.8-1.9-2.1-3.4-3.9-.3-.3-.6-.7-.9-1.1-1.1-1.4-2.4-2.9-3.8-4.7l-1.2-1.5c-18.2-23.6-52.1-78.6-26.5-134.5 0 0 29.6-47.7 43.4 8.4.1.6.3 1.2.4 1.8 5.5 23.7 3.2 45.3 0 65v.2c-2.5 15.5-5.6 29.9-5.9 43.5-.1 2.6 0 5.1.1 7.7.4 9.4 3 18.6 7.7 26.8 1.4 3.8 2.5 7.6 3.2 11.6v.1c1 6.5 1.2 14.5-2.6 20.6z" class="st3"/><path d="M853 232.2s1.8-12.1-8.2-42.6c0 0-2.7-18.5 6.3-35.7 9-17.2 4.2-38.5-5.1-48.8s-10.8-9.5-10.8-9.5-30.7 31.2-20.4 64.2c0 0 12.1 24.8 22.6 39.6 10.3 14.8 15.6 32.8 15.6 32.8z" class="st4"/><path d="M851 238.5s-4.7 5.1-5.1-.8c0 0 5.8-5.7 2.8-17-1.1-3.8-2.7-7.5-4.9-10.8l-.5-.5c-.5-.6-1.4-1.5-2.5-2.8l-.7-.8c-.8-1-1.7-2.1-2.7-3.4-.3-.4-.6-.7-.9-1.1-13.2-17.2-38.1-57.4-19.3-98.2 0 0 21.6-34.8 31.7 6.1.1.4.2.9.3 1.4 4 17.3 2.3 32.9 0 47.5v.2c-1.8 11.3-4.1 21.8-4.3 31.7 0 1.9 0 3.7.1 5.6.3 6.9 2.2 13.6 5.6 19.6 1.1 2.7 1.8 5.6 2.3 8.5v.1c.7 4.4.8 10.3-1.9 14.7z" class="st4"/><path d="M784.5 172.7c-.3 1.7-.6 3.3-1 5v.1c-.7 3.1-1.6 6.2-2.5 9.1-5.5 17.5-13.4 31.9-8.7 47 .1.4.3.9.4 1.3 0 0 .2 1 .4 2.6-1.1-1.4-2.4-2.9-3.8-4.7-.3-.9-.6-1.7-.9-2.6 0 0-.3-.5-.9-1.4-2.4-4-4.6-8.1-6.5-12.4-7.5-16.5-15.7-45.3 1.4-70 0 0 21.2-23.8 23 9.7.4 5.5 0 10.9-.9 16.3z" class="st1"/><path d="M845 128.6c-.3 1.7-.6 3.3-1 5v.1c-.7 3.1-1.6 6.2-2.5 9.1-5.5 17.5-13.4 31.9-8.7 47 .1.4.3.9.4 1.3 0 0 .2 1 .4 2.6-1.1-1.4-2.4-2.9-3.8-4.7-.3-.9-.6-1.7-.9-2.6 0 0-.3-.5-.8-1.4-2.4-4-4.6-8.1-6.5-12.4-7.5-16.5-15.7-45.3 1.4-70 0 0 21.2-23.8 23 9.7.3 5.5 0 10.9-1 16.3z" class="st4"/><path d="M829.8 148.1c.5 1.6.9 3.3 1.3 4.9v.1c.7 3.1 1.2 6.2 1.7 9.3 2.6 18.2 1.7 34.6 12.5 46.1.3.3.6.7.9 1 0 0 .6.8 1.5 2.1-1.6-.7-3.4-1.6-5.4-2.6-.6-.7-1.3-1.3-2-1.9 0 0-.5-.3-1.4-.8-3.9-2.5-7.6-5.2-11.2-8.2-13.9-11.7-33.7-34.1-29-63.7 0 0 8.8-30.6 25-1.2 2.6 4.7 4.6 9.7 6.1 14.9zM700.9 223.7c-1 14.8-7.6 26-12.7 36.3-.5 1-1 1.9-1.4 2.9-2.3 4.5-3.9 9.3-4.7 14.3-.1.6-.2 1.2-.2 1.8l-1-1.1c-1.2-1.4-2.6-2.9-4.1-4.6-.5-.5-.9-1-1.4-1.5-.3-.8-.5-1.6-.8-2.4-.3-.9-.6-2.1-.9-3.3-3.7-14.5-5.4-36 9.4-52.6 1.7-1.4 3.5-2.7 5.5-3.7.3-.2.7-.4 1.1-.5h.1c5.5-2.5 12.3-2.3 11.1 14.4z" class="st1"/><path d="M534.2 863.5s-29.8-64.5-2.1-106.4c0 0 15.1 14.8 10.3 51.9-4.8 37.2-3.8 62.3-3.8 62.3l-4.4-7.8z" style="opacity:.35;fill:#fff;enable-background:new"/><path d="M534.2 863.5s-46.3-59.2-44.9-113.9c0 0 8.5 6.2 25.1 30.1 16.6 23.9 19.8 63.6 19.8 83.8z" class="st2"/><path d="M586.1 381s-7.5-40.9.4-64.5c0 0 15 48.8 9.8 69.7-5 20.9-10.2-5.2-10.2-5.2z" class="st1"/><path d="M596.4 386.2s-22-33.8-39-43.7c0 0 10.6 33.4 31.9 45.6 0 0 6.3 4 7.1-1.9z" class="st1"/><path d="M549.5 258.6s-31.9 7.9-29.5 50.4 19.3 67.7 42.5 71.6c23.2 3.9 33.8-30.3 36.2-42.5 2.4-12.2 10.2-70.8-36.2-80.7 0 .1-10.2-.3-13 1.2z" class="st6"/><path d="M535.8 260.1s-26.8-.7-34.1 33.3c-7.3 34 .6 57.4 18.1 65.5 17.4 8.1 33.2-16.6 37.6-25.7 4.5-9.1 23.3-53.5-11.2-71.3.1.1-7.9-2.4-10.4-1.8z" class="st4"/><path d="M546.8 270.4s-.8 34.6-38.6 54.7c-37.8 20.1-52.3 24.8-61.4 18.5s-9.4-62.2 16.5-79.9c26-17.7 69.3-14.2 80.7 0l2.8 6.7z" class="st7"/><path d="M543.8 279.1s-36.5 12.9-72.4-18.6-46.7-44.8-43.7-56.8 61.2-34.5 90-14.4c28.8 20.1 42.3 66.7 32 84.3l-5.9 5.5z" class="st6"/><path d="M555.5 262.6s-2-39.4-65.3-44.5-93.7 6.7-96.8 29.1c0 0-4.3 57.1 68.5 42.1-.1 0 31.4 5.9 93.6-26.7z" class="st6"/><path d="M548.4 274s15.4 40.5 56.7 30.3c0 0 18.9-9.4 37.1-11 18.2-1.5 55.9-18.5 27.2-52.7 0 0-29.9-33.5-79.1-15.7 0 0-33.8 18.5-39.8 35.4-2.5 4.1-3.2 9-2.1 13.7z" class="st6"/><path d="M553.9 270.1s-26.8-42.5-2.7-79.5 63.8-61 74.8-60.2c11 .8 31.9 27.9 13.4 51.6s-22.8 39.8-25.6 48.8c-2.8 8.9-10.3 41.6-59.9 39.3z" class="st7"/><path d="M547.8 266.1s9.8-25.1 33.4-26.5c23.6-1.4 46.6 8 49.7 13 3.2 5-1.9 22.6-17.9 22.2-16.1-.5-24.4 2.8-29.2 4.5s-21.2 8.9-36-13.2z" style="opacity:.43;fill:#fff;enable-background:new"/><path d="M550.7 272.4s-82.6-29.9-80.3-79.1 20.9-92.5 42.9-93.7c22-1.2 54.7 13.4 52.3 60.2-2.4 46.8-19.2 94.1-10.2 102.7 9 8.7-4.7 9.9-4.7 9.9z" class="st7"/><path d="M346.7 320.4s-51 10.9-124.1-81.9c0 0-31.5-28.3-86.2 2.7 0 0-38.4 16.2-46.9 3.7-8.5-12.4 37.1-41.6 56.6-45.9 19.6-4.4 89.1 16.5 127.3 50.3s71.7 57 73.3 71.1z" style="opacity:.34;fill:#fff;enable-background:new"/><path d="M346.7 320.4S240.6 220 256.9 149.5c16.3-70.6 44.1-82.7 62.7-76 18.6 6.7 8.2 20.5-12.4 50.4 0 0-21.5 65.3 1.5 112.6s44.6 66 44.4 77.3c-.2 11.2-6.4 6.6-6.4 6.6z" class="st10"/><path d="M346.7 320.4s-66.6-89.7-81.4-179.5S235.5 25 196.4 26.5c0 0-25.3-5.8-36.1 19.9s-26.5 31-10 57.5 143.5 190.6 176.6 207.9c0 0 10.4 7.2 19.8 8.6z" class="st10"/><path d="M331.4 313.7s-34.1-46-41.7-92c-7.6-46.1-15.3-59.4-35.3-58.6-7.8-1.6-15.7 2.7-18.5 10.2-5.5 13.2-13.6 15.9-5.1 29.5 8.5 13.5 73.6 97.7 90.6 106.6-.2-.1 5.2 3.6 10 4.3z" class="st6"/><path d="M353.1 313.8s6.1-1.8-12.9-49-37.4-69.2-44.7-86.2-2.2-74.8 9.3-96.4 12.5-57.6-2.9-64.5c0 0-11.7-1.9-20.4 11.4s-23.1 19.7-29.2 32.1-20.6 43.7-12 73.2S324.9 296 333 309.9s16.4 12.7 20.1 3.9z" class="st11"/><path d="M344.4 319.8s-54.8-28.8-73.7-51.7c-19-22.9-74.1-53.4-105.7-56.7-31.6-3.2-87.7-15.4-98.5-70.3 0 0 21.7-13.6 36.2-13.5s40.8-15.7 70.7-5.5 54.5 47.3 70.9 53.5 92.4 90 100.1 144.2z" class="st11"/><path d="M346 322.9s-28.8-5.7-40.6-13.6-41-14.3-55.8-11.5-42.1 4.9-54.4-18.7c0 0 8.1-9.1 14.7-11s16.5-12.7 31.5-12.1c15 .6 31.3 14.2 39.5 14.8 8.3.6 54.3 28.5 65.1 52.1z" class="st6"/><path d="M404.8 512.1s17.8-48.9-63.8-134.3c0 0-23.6-35.1 14.7-85.1 0 0 21.4-35.8 10.2-45.9-11.2-10.1-46.3 30.9-53.3 49.7-7 18.7 3.9 90.6 32.1 133.1 28.2 42.6 46.4 79 60.1 82.5z" style="opacity:.58;fill:#fff;enable-background:new"/><path d="M404.8 512.1s-84.6-119-156.7-112.8c-72.1 6.3-88.1 32.2-84 51.6 4.1 19.4 19.1 11 51.7-5.3 0 0 67.7-12.2 111.3 17.2 43.6 29.4 59.2 53.3 70.3 54.7 11.2 1.4 7.4-5.4 7.4-5.4z" class="st13"/><path d="M402.1 510.7s-92.8-76.1-148.6-55.5c-55.8 20.6-62.9 44.5-55.5 59 7.4 14.5 17.5 4.6 39.8-15.4 0 0 51-24.3 91.9-10.4s58.4 29.5 67.6 28.2c9.2-1.3 4.8-5.9 4.8-5.9z" class="st6"/><path d="M404.8 512.1s-79.5-78.4-166.4-105.7c-86.9-27.3-110.6-45.7-103.7-84.2 0 0-2.3-25.9 24.8-32.9 27-7.1 34.4-22 58.3-1.9 23.9 20 168.8 168.6 181.3 203.9 0 0 5.7 11.4 5.7 20.8z" class="st6"/><path d="M400.3 496s-40.8-40.2-85.3-54.1-56.7-23.4-53.1-43.2c-.5-8 4.9-15.1 12.7-16.9 13.9-3.6 17.6-11.3 29.9-1 12.2 10.3 86.5 86.5 92.9 104.5-.1 0 2.9 5.9 2.9 10.7z" class="st6"/><path d="M397.4 517.5s-2.7 5.8-46.8-19.6c-44.1-25.4-63.3-46.7-79.2-56.3s-73.8-12.5-96.7-4.2-58.9 4.3-63.5-11.9c0 0-.2-11.8 14.2-18.6 14.4-6.8 22.7-20.1 35.8-24.4 13-4.3 46.2-14.3 74.1-1.7s148.3 106.4 161 116.4c12.8 9.9 10.3 17.9 1.1 20.3z" class="st13"/><path d="M404.5 509.8s-20.8-58.2-40.9-80.2-42.5-80.8-41.4-112.5c1.2-31.7-3-89-55.9-107.3 0 0-16.5 19.6-18.4 34s-21.2 38.1-15.3 69.2 39.2 60.6 43.1 77.6c3.9 17.1 76.2 104 128.8 119.2z" class="st13"/><path d="M407.4 511.8s-1.6-29.4-7.8-42.1c-6.2-12.7-8.5-42.6-3.6-56.9 4.8-14.3 10.7-41-11-56.5 0 0-10.2 6.7-13 13s-14.8 14.5-16.4 29.5 9.7 32.9 9.1 41.2c-.5 8.2 20.7 57.7 42.7 71.8z" style="opacity:.52;fill:#fff;enable-background:new"/></g></svg>