<svg xmlns="http://www.w3.org/2000/svg" xml:space="preserve" style="enable-background:new 0 0 1000 1000" viewBox="0 0 1000 1000"><style>.st2,.st3,.st4,.st5,.st6,.st8,.st9{opacity:.7;fill:#fff;enable-background:new}.st3,.st4,.st5,.st6,.st8,.st9{opacity:.1}.st4,.st5,.st6,.st8,.st9{opacity:.18}.st5,.st6,.st8,.st9{opacity:.26}.st6,.st8,.st9{opacity:.31}.st8,.st9{opacity:.16}.st9{opacity:.34}</style><g id="Layer_2_1_"><path d="M496.8 397.4s-1.5-38.5-34-20.7c0 0-11.8 13.3-1.5 31.1 0 0-35.5-26.6-35.5 8.9 0 0-25.2 1.5-16.3 25.2 0 0-38.5-22.2-35.5-1.5 2.9 20.7 13.3 29.6 23.7 29.6-7.1 4.9-10.1 14-7.3 22.3C394.8 507 411 507 411 507s-15.3 16.8-3.5 26.6c0 0-25.6 10.9-14.8 35.5 10.8 24.7 31.6 1 31.6 1s-24.7 12.8-15.8 29.6c8.9 16.8 30.6 6.9 30.6 6.9s-3 28.6 10.8 29.6 24.7-1 26.6-6.9c0 0 5.9 15.8 19.7 10.8s16.8-13.8 16.8-13.8 17.8 13.8 28.6 1 11.8-21.7 11.8-21.7 13.8 19.7 28.6 10.8 15.8-18.7 15.8-18.7 11.8 7.9 19.7 3c7.9-4.9 7.9-19.7 3-22.7 0 0 29.6-11.8 20.7-29.6-8.9-17.7-14.8-14.8-14.8-14.8s14.8-25.7 2-34.5c-12.8-8.9-21.7-9.9-21.7-9.9s22.7-11.8 16.8-21.7c-3.6-5.8-10-9.2-16.8-8.9 0 0 1-31.6-16.8-33.6s-2-27.6-24.7-25.6-19.7 9.9-19.7 9.9-7.9-34.5-24.7-23.7-9.9 15.8-9.9 15.8l-14.1-4z" style="opacity:.5;fill:#fff;enable-background:new"/><path d="M426.5 505.9s-26.6-3.8-18.4 20.8c0 0 7.7 9.8 21.1 4.9 0 0-22.7 21.1 1.7 25.4 0 0-2.1 17.4 15.2 14.3 0 0-20 23.6-5.4 24.2 14.6.5 21.9-5.5 23.2-12.5 2.5 5.5 8.3 8.7 14.3 7.8 10.7-1.2 12.7-12.4 12.7-12.4s9.6 12.6 17.8 5.7c0 0 4.3 18.9 22.5 14.6 18.3-4.4 4.6-21.5 4.6-21.5s5.7 18.5 18.3 14.5c12.6-4 8.5-20.1 8.5-20.1s19.2 5.6 21.6-3.8c2.4-9.3 2.4-17-1.4-19.1 0 0 11.6-2.1 9.9-12.2-1.7-10.1-7.4-13.2-7.4-13.2s11.7-10.5 4.2-19.5c-7.5-9-13.4-10.8-13.4-10.8s15.2-7 11-18.3c-4.2-11.2-10.9-13.2-10.9-13.2s6.9-7.1 4.5-13.2-12.5-7.9-15.2-4.8c0 0-4.4-21.8-17.7-17.9-13.3 3.9-12 8.3-12 8.3s-15.8-13.3-23.4-5.6c-7.6 7.7-9.5 13.7-9.5 13.7s-5.3-17-12.8-14.2c-4.4 1.7-7.6 5.7-8.2 10.4 0 0-21.5-4.6-25.1 7.3-3.6 11.9-19.2-2.1-20.6 13.7s4.3 14.8 4.3 14.8-24.7 1.1-19.3 14c5.4 12.8 9.6 8.7 9.6 8.7l-4.3 9.2z" style="opacity:.61;fill:#fff;enable-background:new"/><path d="M452.1 506.3s-17.5-2.5-12.1 13.7c3.5 3.9 9.1 5.2 13.9 3.2 0 0-14.9 13.8 1.1 16.7 0 0-1.4 11.5 10 9.4 0 0-13.2 15.5-3.6 15.9s14.5-3.6 15.3-8.3c1.6 3.6 5.5 5.7 9.4 5.1 7-.8 8.4-8.1 8.4-8.1s6.3 8.3 11.7 3.7c0 0 2.8 12.5 14.8 9.6 12-2.9 3-14.2 3-14.2s3.8 12.2 12.1 9.5c8.3-2.6 5.6-13.2 5.6-13.2s12.7 3.7 14.2-2.5c1.6-6.1 1.6-11.2-.9-12.6 0 0 7.6-1.3 6.5-8-1.1-6.7-4.9-8.7-4.9-8.7s7.7-6.9 2.8-12.8-8.8-7.1-8.8-7.1 10-4.6 7.2-12-7.2-8.6-7.2-8.6 4.5-4.7 2.9-8.7c-1.6-4-8.3-5.2-10-3.2 0 0-2.9-14.3-11.7-11.8s-7.9 5.5-7.9 5.5-10.3-8.9-15.4-3.8c-5.1 5.1-6.2 9-6.2 9s-3.5-11.2-8.4-9.3c-2.9 1.1-5 3.8-5.4 6.8 0 0-14.2-3-16.5 4.8-2.3 7.8-12.6-1.3-13.6 9s2.8 9.7 2.8 9.7-16.2.7-12.7 9.2 6.3 5.7 6.3 5.7l-2.7 6.4z" class="st2"/><path d="M501.4 542.4s-1 11.2 9.1 7.2c2.4-2.3 3-5.9 1.6-8.9 0 0 9.2 9 10.5-1.3 0 0 7.3.5 5.6-6.7 0 0 10.3 7.8 10.2 1.7s-2.8-9-5.7-9.4c2.2-1.2 3.4-3.7 2.9-6.1-.8-4.4-5.4-5-5.4-5s5-4.3 2-7.6c0 0 7.8-2.2 5.6-9.7-2.2-7.5-9.1-1.4-9.1-1.4s7.6-2.8 5.6-8-8.6-3.1-8.6-3.1 1.9-8.1-2-8.9c-3.9-.8-7.2-.6-7.9 1 0 0-1.1-4.8-5.3-3.9-4.1.9-5.3 3.4-5.3 3.4s-4.6-4.6-8.2-1.3c-3.6 3.3-4.2 5.8-4.2 5.8s-3.3-6.2-7.9-4.2c-4.6 2-5.3 4.8-5.3 4.8s-3.1-2.7-5.6-1.6c-2.4 1.1-3 5.4-1.7 6.4 0 0-9 2.3-7.1 7.8 1.9 5.5 3.7 4.8 3.7 4.8s-5.2 6.9-1.8 9.9c1.7 1.6 3.7 2.9 5.9 3.6 0 0-7 2.6-5.6 5.6.8 1.8 2.5 3 4.5 3.2 0 0-1.4 9.1 3.6 10.3 5.1 1.2-.4 8 6.2 8.3s6.1-2.1 6.1-2.1 1 10.3 6.3 7.7c5.2-2.5 3.4-4.2 3.4-4.2l3.9 1.9z" class="st2"/><path d="M501.6 505.6s-72.9-137.3-52.9-244.5 47.2-121.6 47.2-121.6 11.4 11.4 11.4 20c0 0 7.1-14.3 12.9-12.9 5.7 1.4 25.7 44.3 32.9 61.5 7.2 17.2 32.9 93-14.3 204.5 0 0-24.3 78.7-25.7 95.8l-11.5-2.8z" class="st3"/><path d="M498.5 510.8s-151.4-35.3-219-120.9-60.6-115.5-60.6-115.5 16.1-1.1 22.6 4.5c0 0-6.1-14.8-1.2-18.2 4.8-3.4 50.3 9.7 68 15.6 17.6 5.9 91.7 36.3 144.7 145.2 0 0 43.3 70 55.3 82.4l-9.8 6.9z" class="st3"/><path d="M493.7 510.6s-192.4-44.9-278.4-153.7-77-146.8-77-146.8 20.5-1.4 28.7 5.8c0 0-7.7-18.8-1.6-23.1s64 12.4 86.4 19.9 116.5 46.2 183.9 184.6c0 0 55 89 70.2 104.7l-12.2 8.6z" class="st3"/><path d="M513 488.7s2.9-105.8-27.2-155.9-82.9-140.1-143-145.9c0 0 4.3 12.9 2.9 17.1 0 0-21.5-27.2-31.5-17.1-10 10.1 1.4 40 10 52.9 8.6 12.9 61.5 90.1 67.3 161.6s78.7 110.1 90.1 111.6c11.5 1.4 32.9-15.7 31.4-24.3z" class="st4"/><path d="M503.1 460.9s-15.7-42.9 8.6-84.4c24.3-41.5 32.9-108.7 40-123 7.1-14.3 32.9-103 67.2-100 0 0 4.3-1.4 8.6 21.5s20 24.3 1.4 64.3-90.1 140.1-97.2 178.7c-7.2 38.6-10 52.9-28.6 42.9z" class="st3"/><path d="M508.8 494.3s56.6-144.8 151.1-199.4 123-43.4 123-43.4-1.2 16.1-7.7 21.7c0 0 15.5-3.9 18.2 1.4s-16.9 48.4-25.3 65-49.1 85.5-164.5 122.3c0 0-75.5 32.8-89.5 42.9l-5.3-10.5z" class="st3"/><path d="M501.6 495s119.7-99.2 228.8-101.3S859 415.3 859 415.3s-8.9 13.5-17.3 15.3c0 0 15.5 4.1 15.2 10-.2 5.9-38.2 34.2-53.6 44.7s-84.4 51-203.2 27.4c0 0-81.9-7.9-99-5.8l.5-11.9z" class="st3"/><path d="M486.5 533.4s5.9 120 44.2 174c38.3 54 106 151.4 174.4 152.7 0 0-6-14.2-4.7-19.2 0 0 26.6 29 37.1 16.7s-5.1-45.2-15.9-59c-10.8-13.8-77.4-96.6-90-177.1S533.1 503.7 520 503c-13-.5-35.8 20.9-33.5 30.4z" class="st3"/><path d="M512.5 507.3S467 656 377 717.7s-119.3 52.7-119.3 52.7 0-16.2 6.1-22.2c0 0-15.2 5.1-18.2 0s13.2-49.6 20.2-66.7c7-17.2 42.5-89 154.7-134.5 0 0 72.8-38.4 86-49.6l6 9.9z" class="st3"/><path d="M514.7 498.6s145.7-54.2 249.4-20.2 114.3 62.8 114.3 62.8-12.8 9.8-21.4 8.7c0 0 13.2 9 11.1 14.5-2.2 5.5-47.4 19.7-65.3 24.5s-96.5 20.4-200.8-41.1c0 0-74.8-34.5-91.6-38.2l4.3-11z" class="st4"/><path d="M511.7 505.7s43.6 164.6-4.5 273.9-80.6 117.8-80.6 117.8-9.4-15-7.2-24.2c0 0-11.2 13.5-16.9 10.5-5.7-2.9-16.4-53.7-19.7-73.7-3.3-20-11.9-107.3 66.2-214.5 0 0 45.5-77.8 51.3-95.7l11.4 5.9z" class="st4"/><path d="M497.7 505.1s155.1 11.4 235.2 85.5 77.7 104.7 77.7 104.7-15.8 3.6-23-1c0 0 8.3 13.7 4 17.7-4.3 4.1-51.2-1.8-69.6-4.9-18.3-3.1-96.2-21.7-165.5-121 0 0-53.6-62.5-67.4-72.8l8.6-8.2z" class="st3"/><path d="M537.3 505.5s82.2-66.8 100.6-122.2 52.3-154.2 17.5-203.5c0 0-7 11.6-11.2 13.3 0 0 6.6-34-7.5-35.1-14-1.1-29.5 27.2-33.6 42.1s-28.3 105.3-78.8 156.3c-50.5 51-32.3 131.3-25.9 140.9s33.3 14.9 38.9 8.2z" class="st4"/><path d="M485.3 449.5s-19-53.7 10.3-105.6c29.3-51.9 39.7-136 48.3-153.9 8.6-17.9 39.7-128.9 81.1-125.3 0 0 5.2-1.8 10.3 26.8 5.2 28.6 24.2 30.4 1.7 80.5-22.4 50.1-108.7 175.4-117.4 223.8s-11.9 66.2-34.3 53.7z" class="st5"/><path d="M486.2 484.1s84.1-187.3 212.1-253.3 165-49.2 165-49.2-2.6 21.2-11.6 28.1c0 0 20.7-4.1 23.9 3 3.1 7.1-25.4 62.8-37.5 84.1-12.1 21.4-70.3 109.6-224.8 150.7 0 0-101.7 38.4-120.8 50.8l-6.3-14.2z" class="st6"/><path d="M530.2 514.2S645.7 447.9 680.5 384s98.2-177.7 66.4-243.8c0 0-11.1 12.9-16.6 14.2 0 0 15.6-40-1.4-43.9-17.1-3.8-42.1 27.6-50.5 45S620.3 278.3 547.1 331s-68.6 153.7-62.9 166.5 37.7 23.8 46 16.7z" class="st3"/><path d="M545.2 524.3S677.7 523.1 739 484s171.7-108.1 176.2-182.1c0 0-15.9 5.8-21.3 4.3 0 0 33-27.6 20.1-39.4-13-11.8-50 3.6-65.7 14.7-15.7 11.1-110 79.5-199.2 89.8S514.7 472.7 513.4 486.8c-1.4 14.1 21.1 39.7 31.8 37.5z" class="st4"/><path d="M512.8 499.5s29.4-34.9 77.5-34.5c48.1.4 110.7-25.5 126.6-26.4 16-.9 105.7-22.7 120.3 8.5 0 0 3.4 3-14.3 18.1s-11.1 29.4-55.1 33.2c-44 3.8-166.4-8.5-203.4 4.5-37.2 13-51 17.7-51.6-3.4z" class="st3"/><path d="M512.6 500.6s138.1-95.4 255.7-87.4 136.3 35.4 136.3 35.4-10.8 13.7-20 14.8c0 0 16.2 5.9 15.4 12.2s-44.3 33.2-61.9 43c-17.5 9.8-95.6 46.9-221.2 10.3 0 0-87.4-16.2-106-15.6l1.7-12.7z" style="opacity:.27;fill:#fff;enable-background:new"/><path d="M488.3 491.7s-59.4-164.4-20-280.6 71.9-127.8 71.9-127.8 10.9 14.6 9.5 24.1c0 0 10.2-14.8 16.4-12.3 6.1 2.5 21.6 53.4 26.8 73.7s21.8 108.7-48.4 225.4c0 0-39.6 83.7-43.9 102.6l-12.3-5.1z" class="st5"/><path d="M490.5 494s-105.8-156.4-95.4-288.4c10.3-132.1 41.3-152.9 41.3-152.9s15.3 12.3 16.4 22.7c0 0 6.8-18.2 13.9-17.2s36.9 50.2 47.6 70c10.7 19.8 51.6 108 9 248.8 0 0-19.2 98.1-18.7 119l-14.1-2z" class="st8"/><path d="M482.5 491.7S330.3 380 295.6 252.1 283.1 94.3 283.1 94.3s18.5 6.5 23.1 15.9c0 0 .3-19.4 7.3-20.9s51.5 34.9 68.5 49.9c16.9 15 85 84.3 92.2 231.2 0 0 14.9 98.9 22.4 118.4l-14.1 2.9z" class="st5"/><path d="M505.7 496.8s167.1-16.6 266 47.4 102.1 97 102.1 97-16.1 6.7-24.7 3.2c0 0 11.4 13 7.6 18.1-3.8 5.1-54.8 7.5-74.9 7.6-20.1.1-106.4-5.3-198.4-98.1 0 0-68.6-56.6-85.2-65l7.5-10.2z" class="st6"/><path d="M515.3 508s163.2 39.5 235.5 132.4 64.4 125.2 64.4 125.2-17.4 1.1-24.4-5.1c0 0 6.4 16 1.2 19.6-5.3 3.6-54.3-11-73.3-17.5s-98.7-40-155-158.1c0 0-46.1-76-59-89.5l10.6-7z" class="st4"/><path d="M510.1 505.6s215.1 26.8 321.5 135.6 100.9 151.3 100.9 151.3-22.2 3.9-32-3c0 0 10.5 19.6 4.4 25s-71.2-6.1-96.5-11.7c-25.3-5.6-132.5-37-222-180.2 0 0-70.3-90.8-88.7-106.2l12.4-10.8z" class="st6"/><path d="M504.5 506.3s149.7 117.8 180.4 248c30.6 130.2 7.3 159.6 7.3 159.6s-18.4-7.2-22.7-16.8c0 0-.9 19.6-8.1 20.8-7.1 1.2-50.8-37-67.3-52.7-16.5-15.7-82.9-87.9-85.2-236.4 0 0-11.7-100.2-18.6-120.2l14.2-2.3z" class="st9"/><path d="M513 507.6s47.4-13.6 90.2 15.9 114.5 44 129.3 52.8 108.3 43.5 102.5 80.3c0 0 1.2 4.7-23.8 7.6s-27.8 19.7-69.4-3.5C700.2 637.5 598 552.6 557 541.9c-41-10.8-56.2-15-44-34.3zM493.5 509.4s-136.6 74.1-244.1 55.1-122-46.1-122-46.1 11.3-11.5 19.9-11.6c0 0-14.4-7-13-12.8 1.4-5.7 44.1-26.1 61.2-33.4 17.1-7.3 92.7-33.7 204.6 12.5 0 0 78.9 23.6 96 24.9l-2.6 11.4z" class="st3"/><path d="M506.1 512.9s-116 181.8-259.2 230.8-179 26-179 26 6-21.6 16.4-27.5c0 0-22.1 1.1-24.3-6.8-2.2-7.9 36-61.3 51.8-81.7 15.8-20.4 89.8-103.2 256.7-122.3 0 0 111.6-24.3 133.3-34.3l4.3 15.8z" class="st6"/><path d="M510.1 514.7s-60.8 176.7-171.4 247S193.3 820 193.3 820s.7-19.4 8.2-26.5c0 0-18.4 5.5-21.9-.8-3.4-6.2 17.8-59 27-79.3S261.3 608.3 398 558.3c0 0 89-43.2 105.3-56l6.8 12.4z" class="st3"/><path d="M502.6 516.1S310.1 560.6 185 500.8 51.3 402.9 51.3 402.9s17.8-10.3 28.3-7.5c0 0-15.2-13.5-11.6-20s62.8-17 86.3-20.1 124.9-9.9 246.4 84.7c0 0 88.6 55.7 109.2 63.1l-7.3 13z" class="st4"/><path d="M461.5 526.8s-210-26.3-313.7-132.7-98.5-147.7-98.5-147.7 21.7-3.8 31.3 2.9c0 0-10.3-19.2-4.3-24.4 6.1-5.3 69.5 6.1 94.2 11.6 24.7 5.5 129.3 36.2 216.5 176.1 0 0 68.5 88.7 86.5 103.7l-12 10.5z" class="st6"/><path d="M483.5 524.3s-37.1 42.1-96.1 40.2-136.6 28.2-156.2 29c-19.6.7-130.4 24.9-147.4-13.8 0 0-4.1-3.8 18.1-21.8s14.5-35.9 68.6-39.3c54.1-3.4 204 15 250 .1s62.9-20.3 63 5.6zM522.5 494.2s43.4 47.3 34 114.2c-9.5 66.9 15.4 158.8 13.7 181.3-1.7 22.5 12.3 151.3-33.9 165.9 0 0-4.8 4.1-22.6-23.3s-39-20.9-36.3-82.8c2.7-62 42.1-230.2 30.8-284.2s-15.2-74.1 14.3-71.1z" class="st3"/><path d="M523.2 496.4s16.3 58-19.9 110.1C467 658.6 448.9 746.1 438 764.2c-10.9 18.1-53.7 132.1-98.6 124.8 0 0-5.8 1.4-9.1-29.1s-23.9-34 4.7-84.8c28.6-50.8 132.9-175.1 146.2-225.2 13.4-50 18.6-68.5 42-53.5z" class="st6"/><path d="M507.4 508.6s-29.2 35.1-77.3 34.9-110.6 26-126.5 27c-15.9 1-105.6 23.2-120.3-7.9 0 0-3.4-3 14.3-18.2s11-29.5 55-33.5 166.4 7.6 203.4-5.5 50.7-17.9 51.4 3.2z" class="st9"/><path d="M501.6 525.3S320 483 238.9 380.3s-72.6-138.5-72.6-138.5 19.4-1.3 27.1 5.5c0 0-7.3-17.7-1.5-21.8 5.8-4 60.4 11.7 81.5 18.8 21.2 7.1 109.9 43.6 173.5 174.2 0 0 51.9 84 66.3 98.8l-11.6 8z" class="st9"/><path d="M536.1 528.6s109-62.5 141.8-122.9 92.6-167.8 62.6-230.1c0 0-10.5 12.2-15.7 13.4 0 0 14.8-37.8-1.3-41.4s-39.8 26.1-47.7 42.5S621.2 306 552.1 355.7s-64.7 145-59.4 157.1c5.4 12.1 35.5 22.5 43.4 15.8z" class="st9"/><path d="M519.5 515.8s130.3-90 241.3-82.4 128.6 33.4 128.6 33.4-10.2 12.9-18.9 13.9c0 0 15.3 5.6 14.5 11.5s-41.8 31.3-58.4 40.6-90.2 44.2-208.6 9.6c0 0-82.5-15.3-100-14.7l1.5-11.9zM498.6 509.6s-99.8-147.5-90.1-272.2 39-144.3 39-144.3 14.5 11.7 15.5 21.4c0 0 6.4-17.1 13.2-16.2 6.8.9 34.7 47.4 45 66.1 10.2 18.7 48.8 101.9 8.6 234.8 0 0-18.1 92.6-17.7 112.3l-13.5-1.9z" class="st9"/><path d="M513.7 523.5S663 641 693.6 770.8c30.6 129.8 7.2 159.3 7.2 159.3s-18.4-7.1-22.7-16.7c0 0-.9 19.5-8 20.7-7.1 1.2-50.7-36.9-67.1-52.5-16.5-15.7-82.7-87.7-85-235.7 0 0-11.7-100-18.5-119.8l14.2-2.6z" class="st8"/><path d="M517.2 529.1s-57.4 166.7-161.8 233.1-137.3 55-137.3 55 .6-18.3 7.7-25c0 0-17.4 5.1-20.6-.7-3.2-5.8 16.8-55.6 25.5-74.9 8.7-19.2 51.6-99.2 180.6-146.4 0 0 84-40.7 99.3-52.8l6.6 11.7z" class="st9"/><path d="M514.5 523.3s-27.6 33.1-72.9 32.9c-45.4-.2-104.3 24.6-119.4 25.5-15.1.9-99.6 21.9-113.5-7.5 0 0-3.2-2.8 13.5-17.1s10.4-27.9 51.9-31.6c41.5-3.7 157.1 7.2 192-5.2 34.8-12.4 47.9-16.9 48.4 3z" style="opacity:.2;fill:#fff;enable-background:new"/></g></svg>