<svg xmlns="http://www.w3.org/2000/svg" xml:space="preserve" id="Layer_6" x="0" y="0" style="enable-background:new 0 0 1000 1000" version="1.1" viewBox="0 0 1000 1000"><style>.st0,.st1,.st2{opacity:.2;fill:#fff;enable-background:new}.st1,.st2{opacity:.1}.st2{opacity:.3}</style><path d="M492.9 512s-110.5-342.5 36.3-337.7c0 0 162.5-33.1 157.8 115.2 0 0 97.8-75.8 140.5 53.7s-93.1 186.2-214.6 181.5-120-12.7-120-12.7z" class="st0"/><path d="M494.1 498s347.5 93.4 263.8 214c0 0-60.5 154.5-182.5 69.9 0 0 10.4 123.3-121.4 88.8s-105.7-179.4-35.7-278.8 75.8-93.9 75.8-93.9z" class="st0"/><path d="M499 503.1s62.2 354.4-82.5 329.5c0 0-165.6 10.4-140.4-135.8 0 0-107.4 61.5-131.7-72.5S262.3 452.7 382 474.1s117 29 117 29z" class="st1"/><path d="M489.3 506.5s-359.3 20-317.5-120.8c0 0 9.2-165.6 151.5-123.4 0 0-48.5-113.9 87.5-122.3S567.4 277.4 532 393.7s-42.7 112.8-42.7 112.8z" class="st0"/><path d="M492.7 501s243.8-264.7 311.9-134.6c0 0 108.8 125.2-22.7 194.1 0 0 114.1 47.9 22.4 148.7s-207.9 10.6-263.6-97.6-48-110.6-48-110.6z" class="st1"/><path d="M451.8 494.6S331.9 486.7 256.1 340c0 0 145.2-18.9 208.3 88.4 0 0 23.7 47.3 26.8 60s-39.4 6.2-39.4 6.2z" class="st2"/><path d="M458.3 516.5S354 576.2 209.7 495.7c0 0 110.5-96 222.5-41.5 0 0 45.9 26.4 55.5 35.1s-29.4 27.2-29.4 27.2z" class="st1"/><path d="M487.7 528.2s-43.6 112-206.3 140.2c0 0 25.6-144.2 146.9-172.1 0 0 52.3-8.4 65.3-7.6s-5.9 39.5-5.9 39.5z" class="st2"/><path d="M504.3 534.5s3.5 120.2-135.5 209.4c0 0-32.5-142.8 68.3-215.7 0 0 44.9-28 57.2-32.4s10 38.7 10 38.7z" class="st0"/><path d="M524 526.7s83.2 86.8 40 246.2c0 0-119.9-84-94.1-205.8 0 0 14.5-50.9 20.7-62.4s33.4 22 33.4 22z" class="st2"/><path d="M534.2 499.1s119.8-8.7 215.2 126.2c0 0-141.2 38.8-218.5-58.8 0 0-30-43.6-34.9-55.7s38.2-11.7 38.2-11.7z" class="st1"/><path d="M518.8 477.3s94.6-74.2 249-15.5c0 0-95.5 111-214.1 73.2 0 0-49.2-19.5-60-26.8s25.1-30.9 25.1-30.9z" class="st2"/><path d="M490.8 470.6s13.6-119.4 163.9-188c0 0 12 145.9-98.3 203.8 0 0-48.4 21.4-61.2 23.9s-4.4-39.7-4.4-39.7z" class="st0"/><path d="M472.2 485.1s-59.4-104.5 21.6-248.5c0 0 95.7 110.9 40.7 222.6 0 0-26.5 45.8-35.3 55.4s-27-29.5-27-29.5z" class="st0"/><path d="M473.2 501.4s-69.9-4.6-114-90.1c0 0 84.6-11 121.4 51.5 0 0 13.8 27.6 15.6 34.9s-23 3.7-23 3.7z" class="st2"/><path d="M494.1 520.9s-25.4 65.3-120.1 81.7c0 0 14.9-84 85.6-100.3 0 0 30.5-4.9 38-4.4s-3.5 23-3.5 23z" class="st2"/><path d="M503.8 524.6s2 70-79 122c0 0-19-83.2 39.8-125.7 0 0 26.2-16.3 33.3-18.9s5.9 22.6 5.9 22.6z" class="st2"/><path d="M515.3 520s48.5 50.5 23.3 143.4c0 0-69.9-48.9-54.8-119.9 0 0 8.4-29.7 12-36.3s19.5 12.8 19.5 12.8z" class="st2"/><path d="M512.3 491.2s55.1-43.2 145-9c0 0-55.6 64.7-124.7 42.7 0 0-28.7-11.3-35-15.6s14.7-18.1 14.7-18.1z" class="st2"/><path d="M485.1 495.8s-34.6-60.9 12.6-144.8c0 0 55.7 64.6 23.7 129.7 0 0-15.5 26.7-20.6 32.3s-15.7-17.2-15.7-17.2z" class="st2"/></svg>