<svg xmlns="http://www.w3.org/2000/svg" xml:space="preserve" style="enable-background:new 0 0 1000 1000" viewBox="0 0 1000 1000"><style>.st0{opacity:.1;stroke:#fff;stroke-miterlimit:10}.st0,.st1,.st2{fill:#fff;enable-background:new}.st1{opacity:.58;stroke:#fff;stroke-miterlimit:10}.st2{opacity:.63}.st12,.st13,.st14,.st16,.st18,.st3,.st6{opacity:.3;fill:#fff;stroke:#fff;stroke-miterlimit:10;enable-background:new}.st12,.st13,.st14,.st16,.st18,.st6{opacity:.85}.st12,.st13,.st14,.st16,.st18{opacity:.2}.st13,.st14,.st16,.st18{opacity:.18}.st14,.st16,.st18{opacity:.43}.st16,.st18{opacity:.15}.st18{opacity:.13}</style><g id="Layer_3"><path d="M513.4 522.6s-.3-2.5-1.2-7.1c-.6-3.4-1.4-7.8-2.6-13-.1-.5-.3-1-.4-1.5-.1-.4-.1-.8-.2-1.2-.2-1-.5-1.9-.7-3v-.1c-.4-1.6-.8-3.2-1.3-4.9-.1-.4-.2-.9-.4-1.4s-.3-1.3-.5-1.9c-1.3-4.5-2.6-9.3-4.2-14.3-.9-2.7-1.8-5.5-2.8-8.4v-.1c-12.2-35-33.8-77.4-70.4-99.9-12.7-7.9-27-12.9-41.8-14.8-12.6-1.6-25.3-1.2-37.8 1-78.3 13.4-94.2 49.9-93.3 79 .7 22.4 11.4 40.5 11.4 40.5-12.1-3-63.9 63.2 48.7 116.7 6.4 3 12.9 5.6 19.7 7.7 19.2 6.1 39.5 7.6 59.4 4.5 28.2-4.5 52.5-17.7 71.8-31.9 2.9-2.1 5.7-4.3 8.4-6.5v-.1c4.8-3.9 9.2-7.8 13.1-11.6.6-.6 1.3-1.3 1.9-1.8.1-.1.2-.2.4-.3 2.3-2.3 4.5-4.5 6.5-6.7.7-.7 1.4-1.4 2-2.1 1.8-1.9 3.4-3.7 4.9-5.4 6.1-6.8 9.4-11.4 9.4-11.4z" class="st0"/><ellipse cx="526.1" cy="462.6" class="st1" rx="10.1" ry="4.9" transform="rotate(-73.513 526.097 462.594)"/><ellipse cx="537.6" cy="460.4" class="st1" rx="10.1" ry="4.9" transform="rotate(-52.019 537.663 460.457)"/><ellipse cx="544.2" cy="467.8" class="st1" rx="5.6" ry="3.6" transform="rotate(-52.019 544.267 467.85)"/><ellipse cx="552.1" cy="477.3" class="st1" rx="10.8" ry="7.5" transform="rotate(-30.379 552.15 477.326)"/><path d="M548.3 469.7s.3-42.1 43-34.3c0 0 11.7 4.5 6.7 8.4-4.3 3.3-6.1-2.5-6.1-2.5s.7-5.6-10.8-3.4c0 0-24.9 1-30.3 34.4l-2.5-2.6zM570.5 511.8s52.1 13.6 55.8-50.4c0 0-1.9-18.4-8.2-12.4-5.4 5.1 1.3 9.6 1.3 9.6s7.1.9.8 16.7c0 0-9 35.5-51.9 32l2.2 4.5zM521.5 455.6s27.7-3.7 18.7-31.7c0 0-4-7.5-6.1-3.8-1.8 3.2 2.2 3.8 2.2 3.8s3.6-.9 3.2 7c0 0 1.6 16.8-19.9 23.1l1.9 1.6z" class="st2"/><path d="M719.3 305.5c-22.5 10.7-63.3 26.9-93.4 21-38.8-7.6-109.7 62.6-125.4 79.4 12.3-32.3 36.5-60.2 64.2-80.6 1.3-.9 2.5-1.8 3.8-2.7 3.6-2.5 7.3-5 11-7.3 1.3-.8 2.5-1.5 3.8-2.3 1-.6 2-1.2 3.1-1.8 1.5-.9 3-1.7 4.5-2.5 1-.5 2-1 3-1.6 1.6-.8 3.2-1.6 4.7-2.3l3.2-1.5c.3-.2.7-.3 1-.5 1.1-.5 2.3-1 3.4-1.4 5.7-2.5 11.6-4.6 17.6-6.4 1.1-.3 2.2-.7 3.3-1l.6-.2c.9-.2 1.8-.5 2.6-.7.9-.2 1.9-.5 2.8-.7 1-.2 2.1-.5 3.2-.7l2.6-.5c1.2-.2 2.3-.4 3.5-.6.1 0 .2-.1.3-.1 2.4-.4 4.8-.6 7.2-.8 5.8-.5 11.7-.5 17.5.2 2.1.2 4.1.6 6.2 1 1 .2 2.1.5 3.1.8l2.1.6.7.2.2.1c1 .3 1.9.6 2.9 1 11.9 5.2 24.2 9 36.7 11.9z" class="st3"/><ellipse cx="487.9" cy="548.5" class="st1" rx="9.9" ry="6.6" transform="rotate(-61.59 487.93 548.503)"/><ellipse cx="497.7" cy="558.1" class="st1" rx="11.9" ry="5.1" transform="rotate(-67.289 497.73 558.115)"/><ellipse cx="483.8" cy="574.3" class="st1" rx="11.9" ry="5.1" transform="rotate(-72.091 483.8 574.35)"/><ellipse cx="493.5" cy="576.8" class="st1" rx="7.3" ry="3.1" transform="rotate(-72.091 493.525 576.85)"/><ellipse cx="474.8" cy="566.1" class="st1" rx="12.3" ry="5.3" transform="rotate(-72.091 474.863 566.121)"/><ellipse cx="473.5" cy="547.6" class="st1" rx="8.1" ry="4.3" transform="rotate(-56.2 473.459 547.551)"/><ellipse cx="461.4" cy="561.7" class="st1" rx="10.1" ry="6.2" transform="rotate(-56.2 461.426 561.707)"/><ellipse cx="454.9" cy="548.5" class="st1" rx="10.1" ry="6.2" transform="rotate(-33.478 454.898 548.532)"/><ellipse cx="470.9" cy="530.9" class="st1" rx="10.6" ry="7.2" transform="rotate(-30.792 470.89 530.848)"/><ellipse cx="511.6" cy="554.1" class="st1" rx="5.1" ry="9.9" transform="rotate(-3.71 511.565 554.114)"/><ellipse cx="523.1" cy="552.8" class="st1" rx="5.1" ry="9.9" transform="rotate(-18.71 523.047 552.794)"/><ellipse cx="536.1" cy="565.8" class="st1" rx="6.7" ry="12.2" transform="rotate(-18.71 536.036 565.742)"/><ellipse cx="502.1" cy="572.7" rx="5.1" ry="9.3" style="opacity:.58;fill:#fff;stroke:#fff;stroke-width:.9964;stroke-miterlimit:9.9639;enable-background:new" transform="rotate(-10.411 501.952 572.562)"/><ellipse cx="520.6" cy="575.7" rx="6.7" ry="12.2" style="opacity:.58;fill:#fff;stroke:#fff;stroke-width:1.0017;stroke-miterlimit:10.017;enable-background:new" transform="rotate(-14.453 520.544 575.63)"/><ellipse cx="510.1" cy="518.2" class="st6" rx="9.9" ry="6.6" transform="rotate(-45.243 510.076 518.23)"/><ellipse cx="524.6" cy="501.2" class="st6" rx="8.7" ry="7.1" transform="rotate(-45.243 524.586 501.134)"/><ellipse cx="529.1" cy="522.3" class="st6" rx="7.1" ry="8.7" transform="rotate(-78.708 529.123 522.279)"/><ellipse cx="517.5" cy="536.3" class="st6" rx="5.4" ry="6.6" transform="rotate(-3.71 517.458 536.313)"/><ellipse cx="503.9" cy="538.1" class="st6" rx="6.6" ry="5.4" transform="rotate(-78.708 503.933 538.134)"/><ellipse cx="491.9" cy="527.6" class="st6" rx="6.6" ry="5.4" transform="rotate(-31.489 491.992 527.628)"/><ellipse cx="493.8" cy="513.8" class="st6" rx="5.4" ry="6.6" transform="rotate(-71.772 493.765 513.793)"/><ellipse cx="461.6" cy="496.2" rx="6.7" ry="8.8" style="opacity:.58;fill:#fff;stroke:#fff;stroke-width:1;stroke-miterlimit:10;enable-background:new" transform="rotate(-55.549 461.597 496.252)"/><ellipse cx="504.8" cy="502.5" class="st6" rx="5.4" ry="6.6" transform="rotate(-27.65 504.807 502.499)"/><ellipse cx="484.8" cy="497" class="st1" rx="5.4" ry="10.9" transform="rotate(-43.822 484.754 496.986)"/><ellipse cx="448.1" cy="503.3" class="st1" rx="6.1" ry="12.6" transform="rotate(-62.769 448.11 503.236)"/><ellipse cx="464.9" cy="481" class="st1" rx="6.1" ry="12.6" transform="rotate(-48.71 464.89 481.034)"/><ellipse cx="479.2" cy="477.6" class="st1" rx="6.4" ry="9.4" transform="rotate(-34.634 479.15 477.64)"/><ellipse cx="497.3" cy="462.7" class="st1" rx="7.6" ry="12.5" transform="rotate(-25.171 497.297 462.663)"/><ellipse cx="514.3" cy="460" class="st1" rx="7.6" ry="12.5" transform="matrix(.9999 -.01152 .01152 .9999 -5.265 5.954)"/><ellipse cx="559.9" cy="490.7" class="st1" rx="13.8" ry="6.6" transform="rotate(-26.862 559.847 490.73)"/><ellipse cx="566.8" cy="502" class="st1" rx="12.3" ry="6.6" transform="rotate(-26.862 566.813 502.076)"/><ellipse cx="566.2" cy="515.8" class="st1" rx="5.7" ry="10.5" transform="rotate(-85.79 566.23 515.795)"/><ellipse cx="477" cy="506.9" class="st1" rx="3.7" ry="7.6" transform="rotate(-67.12 476.98 506.905)"/><ellipse cx="495.5" cy="484.6" class="st1" rx="5.4" ry="10.9" transform="rotate(-14.093 495.595 484.608)"/><ellipse cx="505.4" cy="482.3" class="st1" rx="5.4" ry="10.9" transform="rotate(-6.927 505.592 482.322)"/><ellipse cx="516.3" cy="483.4" class="st1" rx="10.9" ry="5.4" transform="rotate(-78.708 516.35 483.438)"/><ellipse cx="527.3" cy="482.6" class="st1" rx="10.9" ry="5.4" transform="rotate(-78.708 527.312 482.578)"/><ellipse cx="533.9" cy="486.1" class="st1" rx="8.9" ry="4.4" transform="rotate(-64.793 533.812 486.1)"/><ellipse cx="540.1" cy="494" class="st1" rx="8.9" ry="4.4" transform="rotate(-33.53 540.123 493.922)"/><ellipse cx="544.4" cy="511.1" class="st1" rx="12.1" ry="6" transform="rotate(-12.735 544.238 511.039)"/><ellipse cx="550.2" cy="525" class="st1" rx="5.1" ry="9.6" transform="rotate(-59.562 550.131 524.988)"/><ellipse cx="544.7" cy="534.4" class="st1" rx="5.1" ry="9.6" transform="rotate(-48.71 544.7 534.36)"/><ellipse cx="551.5" cy="559.8" class="st1" rx="5.1" ry="9.6" transform="rotate(-43.951 551.475 559.848)"/><ellipse cx="552.9" cy="548.7" class="st1" rx="3.4" ry="6.4" transform="rotate(-53.88 552.874 548.652)"/><ellipse cx="565.3" cy="541.2" class="st1" rx="5.1" ry="9.6" transform="rotate(-61.177 565.3 541.264)"/><ellipse cx="569.9" cy="527.7" class="st1" rx="5.1" ry="9.6" transform="rotate(-78.708 569.93 527.704)"/><ellipse cx="535.8" cy="542.3" rx="6.6" ry="12.4" style="opacity:.58;fill:#fff;stroke:#fff;stroke-width:1.0021;stroke-miterlimit:10.021;enable-background:new" transform="rotate(-36.07 535.738 542.229)"/><ellipse cx="539.1" cy="503.7" class="st1" rx="7.8" ry="3.8" transform="rotate(-12.735 538.985 503.622)"/><ellipse cx="481.3" cy="518.1" class="st6" rx="3.8" ry="7.8" transform="scale(.99996) rotate(-87.12 481.307 518.16)"/><ellipse cx="466.3" cy="511.2" class="st1" rx="3.8" ry="7.8" transform="scale(.99996) rotate(-87.12 466.32 511.245)"/><ellipse cx="453.8" cy="517.9" class="st1" rx="3.8" ry="7.8" transform="matrix(.05024 -.9987 .9987 .05024 -86.288 945.15)"/><ellipse cx="453" cy="537.1" class="st1" rx="6.7" ry="3.3" transform="rotate(-11.022 452.838 536.98)"/><ellipse cx="444.7" cy="529.1" class="st1" rx="13.3" ry="6.1" transform="rotate(-3.71 444.726 529.082)"/><path d="M453.1 557S396 610.1 433 641.8c0 0 13.4 5.7 15.5-4 1.8-8.4-7.2-2.7-7.2-2.7s-7.2 7.7-11.3-6.3c0 0-14-25.5 28.1-72.5l-5 .7z" class="st2"/><path d="M453.5 556.7s-27.3 41.8.5 55.8c0 0 9.2 1.5 9-4.9-.1-5.5-4.9-.6-4.9-.6s-3.3 5.9-8-2.2c0 0-12.6-13.7 6.4-49.5l-3 1.4zM472.6 471.1S425 456 437.8 427.5c0 0 6.2-7 10.1-1.9 3.3 4.3-3.4 3.6-3.4 3.6s-6.3-2.5-4.8 6.7c0 0-1.1 18.6 36.2 34.3l-3.3.9zM448.2 515.9s-20 8.8-24.7-7.9c0 0-.2-5.1 2.6-4.1 2.4.8 0 2.7 0 2.7s-2.8.9.6 4.5c0 0 5.4 8.6 22.2 3.4l-.7 1.4z" class="st2"/><path d="M492.2 473.6s-34.3-10.3-23.8-34.1c0 0 4.8-6 7.5-2 2.3 3.4-2.7 3-2.7 3s-4.5-1.8-3.8 5.7c0 0-1.6 15.2 25.1 26.4l-2.3 1z" style="opacity:.58;fill:#fff;enable-background:new"/><path d="M503.2 455.8s8.4-98.3 61.6-88.1c0 0 14.2 8.3 7 18.2-6.2 8.5-7.3-4.8-7.3-4.8s2-13.2-13.2-5.8c0 0-32.1 7.1-45.3 86l-2.8-5.5zM579.7 529.9s95-7.6 93.6 46.6c0 0-5.7 15.3-16.3 9.8-9.1-4.7 3.4-8 3.4-8s12.9-.2 3.5-14c0 0-11.8-30.5-89-30.8l4.8-3.6z" class="st2"/><path d="M574.3 533.1s51.1 7 44.1 35.5c0 0-4.8 7.4-9.8 3.3-4.3-3.5 2.7-3.8 2.7-3.8s6.8 1.4 3.5-7c0 0-2.7-17.5-43.5-26.6l3-1.4zM514.5 576.2s12.1 107.2-32.8 108.4c0 0-13-5.7-9.1-18 3.3-10.6 6.8 3.4 6.8 3.4s.9 14.6 11.8 3.2c0 0 24.6-14.9 20-102.4l3.3 5.4zM525.5 563.9s0 39.4 44.7 30.7c0 0 12.3-4.6 7.1-8.1-4.5-3-6.4 2.5-6.4 2.5s.7 5.2-11.4 3.5c0 0-26.1-.2-31.4-31.3l-2.6 2.7zM460.8 487.6s-13.9-46.7-59.6-23.7c0 0-11.8 8.9-4.9 11.5 5.9 2.2 6.1-4.9 6.1-4.9s-2.5-6 11.2-7.4c0 0 28.5-7.2 45.2 28.1l2-3.6z" class="st2"/><path d="M452.8 495.6s-16.3-20.7-34.8 0c0 0-4.2 6.9-.2 6.8 3.4-.1 2.1-3.7 2.1-3.7s-2.5-2.5 4.1-6c0 0 12.9-9.3 28.4 5.1l.4-2.2z" class="st2"/><path d="M545.4 561c.5.8 1.2 1.6 1.8 2.3 3.7 3.8 8.3 5.3 10.4 3.4 2-2 .7-6.7-3-10.5-.5-.6-1.1-1.1-1.8-1.6l1.3-1.3c1.2.4 2.5.1 3.4-.8.5-.8.5-1.8 0-2.7l4.3-4.3.4.2c4.7 2.5 9.5 2.6 10.9.1 1.4-2.5-1.2-6.4-5.7-9l1.8-4.1c4.8.7 8.9-.7 9.5-3.3.6-2.6-3.2-5.9-8.4-6.9-.3 0-.5-.1-.7-.1v-1.3c3.7-.6 6.4-2.4 6.6-4.7.2-2.7-3.3-5.3-8.1-6.2l-.4-1.8c.5-.2 1-.4 1.5-.7 6.1-3.1 9.6-8.2 8-11.4-1.5-3-6.8-3.3-12.3-1l-.1-.3c5.2-3.4 8.2-7.8 6.8-10.6-1.4-2.8-7.4-3.1-13.6-.4l-1-1.6c4-3.1 5.7-7.6 3.8-10.8-2.1-3.6-8-4-13.2-1-.6.3-1.1.7-1.6 1.1l-.9-.6c.5-.4.9-.8 1.3-1.3 1.9-2.4 2.2-5.4.6-6.6s-4.4-.2-6.3 2.2c-.5.7-1 1.4-1.3 2.2l-1.9-1.2c1.2-.9 2.3-2 3.2-3.2 3.4-4.4 4.5-9.3 2.4-11-2.1-1.7-6.7.6-10.1 5-.9 1.2-1.7 2.5-2.4 3.9.6-4.2-.3-7.8-2.4-8.4-2.4-.7-5.5 2.5-7.2 7.2-.1-6.9-3.5-12.5-7.7-12.4s-7.5 5.7-7.4 12.6c0 1.3.2 2.6.5 3.9l-1.4.1c-.3-1.6-.8-3.2-1.5-4.8-2.9-6.2-8.4-9.9-12.2-8.1-3.8 1.8-4.5 8.3-1.6 14.5l-8.3 5.6c-2.8-2.3-6.1-3.1-8.3-1.5-2.2 1.5-2.7 4.8-1.6 8.2l-1.1.7c-.7-.8-1.4-1.5-2.2-2.3-5.3-4.6-11.3-6.3-13.5-3.7-2.2 2.5.2 8.3 5.5 12.9l.5.4-1.8 2.7c-3.1-.3-5.9 2-6.2 5.1-.1 1.1.1 2.2.6 3.2l-1.3 1.8c-.6-.4-1.2-.7-1.8-1.1-6.2-3.2-12.5-3.4-14-.3s2.2 8 8.4 11.2c.5.2.9.4 1.4.6l-.5 7.6c-.1.2-.1.4-.2.6 0 .2 0 .3.1.5l-.3 3.9.1 1h-1.7c-7.3.5-13 3.6-12.8 6.9.2 3.4 6.4 5.7 13.6 5.2.9 0 1.7-.2 2.5-.3l.1.9c-.9.5-1.3 1.5-1.3 2.5.2 1.1 1.6 1.9 3.6 2.1l1.8 2.7c-.1.1-.2.1-.3.2-4.7 3.1-6.9 7.9-5.1 10.7 1.9 2.8 7.2 2.6 11.9-.4l.2-.1.9 1.4c-1.2 1-2.2 2.1-3 3.3-3.1 4.7-3.3 10-.5 11.9 2.8 1.9 7.6-.3 10.8-5 .5-.7.9-1.4 1.3-2.2l2.2 1c0 .1-.1.3-.2.4-2.1 6.5-1.6 12.5 1.3 13.4 2.8.9 6.4-3.3 8.5-9.3l1 .4c-.6 1.2-1.2 2.5-1.6 3.8-2 6.3-1.5 12 1.2 12.9s6.5-3.5 8.5-9.8c.3-.9.5-1.8.7-2.8l2 .9c-.3.6-.5 1.2-.8 1.9-1.3 3.8-.9 7.3.7 7.9 1.6.5 3.9-2.1 5.2-6 .2-.7.4-1.5.5-2.2l3.5-.3c1 4.8 3.9 8.3 6.7 7.8 2.7-.5 4-4.3 3.5-8.7l3.5-.3c0 .1 0 .3.1.4 1.7 6.5 6 11 9.6 10.1 3.3-.9 4.8-5.9 3.8-11.7l3.2-1.9c2.4 4.8 6.1 7.6 9.1 6.7 3.5-1.2 4.6-7.3 2.5-13.7v-.1l1.6-1 1.9-1.4z" class="st3"/><path d="M529 544.7c.3.5.7 1 1.1 1.4 2.3 2.4 5.1 3.3 6.4 2.1 1.3-1.2.4-4.1-1.8-6.5-.3-.3-.7-.7-1.1-1l.8-.8c.7.2 1.5.1 2.1-.5.3-.5.3-1.1 0-1.6l2.6-2.6c.1.1.2.1.2.1 2.9 1.6 5.9 1.6 6.7.1.8-1.5-.7-3.9-3.5-5.5l1.1-2.5c3 .4 5.5-.4 5.8-2 .3-1.6-2-3.6-5.2-4.2-.1 0-.3-.1-.4-.1v-.8c2.3-.4 4-1.5 4.1-2.9.1-1.7-2-3.3-5-3.8l-.2-1.1c.3-.1.6-.3.9-.4 3.7-1.9 5.9-5 4.9-7s-4.2-2-7.6-.6v-.2c3.2-2.1 5-4.8 4.1-6.5-.9-1.7-4.5-1.9-8.3-.3l-.6-.9c2.5-1.9 3.5-4.7 2.4-6.7-1.3-2.2-4.9-2.5-8.1-.6-.3.2-.7.4-1 .7l-.6-.4c.3-.2.6-.5.8-.8 1.2-1.5 1.3-3.3.4-4.1-.9-.7-2.7-.1-3.8 1.3-.3.4-.6.9-.8 1.4l-1.1-.7c.7-.6 1.4-1.2 1.9-2 2.1-2.7 2.8-5.7 1.5-6.8-1.3-1-4.1.3-6.2 3.1-.6.7-1.1 1.5-1.4 2.4.4-2.6-.2-4.8-1.5-5.2s-3.4 1.5-4.4 4.4c0-4.2-2.2-7.6-4.7-7.6-2.6 0-4.6 3.5-4.6 7.7 0 .8.1 1.6.3 2.4h-.9c-.2-1-.5-2-.9-2.9-1.8-3.8-5.1-6.1-7.5-5-2.3 1.1-2.7 5.1-1 8.9l-5.1 3.4c-1.7-1.4-3.7-1.9-5.1-.9-1.4 1-1.7 2.9-1 5l-.7.5c-.4-.5-.9-1-1.4-1.4-3.2-2.8-6.9-3.8-8.3-2.3s.1 5.1 3.4 7.9l.3.3-1.1 1.6c-1.9-.2-3.6 1.2-3.8 3.1-.1.7.1 1.4.4 2l-.8 1.1c-.4-.2-.7-.4-1.1-.6-3.8-2-7.6-2.1-8.6-.2s1.4 4.9 5.2 6.9c.3.1.6.3.9.4l-.3 4.7c0 .1-.1.2-.1.4v.3l-.2 2.4.1.6h-1c-4.5.3-8 2.2-7.9 4.3.1 2.1 3.8 3.5 8.4 3.2.5 0 1-.1 1.6-.2l.1.5c-.5.3-.8.9-.8 1.6.1.7 1 1.2 2.2 1.3l1.1 1.7c-.1 0-.1.1-.2.1-2.9 1.9-4.3 4.8-3.1 6.6s4.4 1.6 7.3-.3l.1-.1.6.9c-.7.6-1.3 1.3-1.8 2-1.9 2.9-2.1 6.1-.3 7.3 1.7 1.2 4.7-.2 6.6-3.1.3-.4.5-.9.8-1.4l1.3.6c0 .1-.1.2-.1.3-1.3 4-1 7.6.8 8.2 1.7.6 3.9-2 5.2-5.7l.6.3c-.4.7-.7 1.5-1 2.3-1.3 3.8-.9 7.4.7 7.9s4-2.1 5.2-6c.2-.6.3-1.1.4-1.7l1.2.6c-.2.4-.3.8-.5 1.1-.8 2.3-.6 4.5.4 4.8 1 .3 2.4-1.3 3.2-3.6.1-.4.2-.9.3-1.3l2.1-.2c.6 3 2.4 5.1 4.1 4.8 1.7-.3 2.5-2.5 2.2-5.4l2.2-.2v.2c1 4 3.7 6.8 5.9 6.2 2-.5 3-3.6 2.3-7.2l1.9-1.2c1.5 2.9 3.8 4.7 5.6 4.1 2.2-.7 2.8-4.5 1.5-8.4l1-.6 1.2-.9z" style="opacity:.5;fill:#fff;stroke:#fff;stroke-miterlimit:10;enable-background:new"/><path d="M519.2 531.4c.2.3.4.5.6.7 1.2 1.3 2.7 1.7 3.3 1.1.6-.6.2-2.1-1-3.4-.2-.2-.4-.3-.6-.5l.4-.4c.4.1.8 0 1.1-.2.1-.3.1-.6 0-.9l1.4-1.4.1.1c1.5.8 3.1.8 3.5 0 .4-.8-.4-2-1.8-2.9l.6-1.3c1.5.2 2.8-.2 3-1.1.2-.8-1-1.9-2.7-2.2h-.2v-.4c1.2-.2 2.1-.8 2.1-1.5.1-.7-1.1-1.7-2.5-2l-.1-.6.5-.2c1.9-1 3.1-2.6 2.5-3.6s-2.2-1.1-3.9-.3v-.1c1.7-1.1 2.6-2.5 2.1-3.4-.5-.9-2.4-1-4.3-.1l-.3-.5c1.3-1 1.8-2.4 1.3-3.5-.6-1-2.5-1.3-4.2-.3-.2.1-.3.2-.5.4l-.3-.2.4-.4c.6-.8.7-1.7.2-2.1-.5-.4-1.4-.1-2 .7-.2.2-.3.4-.4.7l-.6-.4c.4-.3.7-.6 1-1 1.1-1.4 1.4-3 .8-3.5-.7-.5-2.1.2-3.2 1.6-.3.4-.6.8-.8 1.3.2-1.4-.1-2.5-.8-2.7-.7-.2-1.7.8-2.3 2.3 0-2.2-1.1-4-2.5-4-1.3 0-2.4 1.8-2.4 4 0 .4.1.9.1 1.3h-.4c-.1-.5-.3-1-.5-1.5-.9-2-2.7-3.2-3.9-2.5-1.2.6-1.4 2.6-.5 4.6l-2.6 1.8c-.7-.8-1.9-1-2.7-.3-.7.6-.9 1.6-.5 2.4l-.3.2-.7-.7c-1.7-1.5-3.6-2-4.3-1.2-.7.8.1 2.7 1.7 4.1l.2.1-.6.9c-.7 0-1.3.3-1.7.8-.3.6-.4 1.3-.1 1.9l-.4.6-.6-.3c-2-1-4-1.1-4.5-.1s.7 2.5 2.7 3.6l.4.2-.2 2.4v.4l-.1 1.3v.3h-.5c-2.3.2-4.2 1.1-4.1 2.2s2 1.8 4.3 1.7l.8-.1v.3c-.3.2-.4.5-.4.8.1.4.5.6 1.1.7l.6.9-.1.1c-1.5 1-2.2 2.5-1.6 3.4.6.9 2.3.8 3.8-.1l.3.4c-.4.3-.7.7-1 1.1-1 1.5-1.1 3.2-.2 3.8.9.6 2.4-.1 3.4-1.6.1-.2.3-.5.4-.7l.7.3v.1c-.7 2.1-.5 4 .4 4.3.9.3 2-1 2.7-3l.3.1c-.2.4-.4.8-.5 1.3-.6 2-.5 3.8.4 4.1.9.3 2.1-1.1 2.7-3.1.1-.3.2-.6.2-.9l.6.3c-.1.2-.2.4-.2.6-.4 1.2-.3 2.3.2 2.5.5.2 1.3-.7 1.7-1.9.1-.2.1-.5.2-.7l1.1-.1c.3 1.5 1.3 2.6 2.1 2.5s1.3-1.4 1.1-2.8l1.1-.1v.1c.5 2.1 1.9 3.5 3.1 3.2s1.5-1.9 1.3-3.8l1-.6c.8 1.5 2 2.5 2.9 2.1 1-.3 1.5-2.3.8-4.4l.5-.3.8-.8z" class="st3"/><path d="M571.6 500.4c-9.2 6-19.3 10.5-29.9 13.4h-.3c-4.5 1.2-9 2.1-13.6 2.8-.3 0-.7 0-1.1.1h-.6l-.8.1c-.5.1-1.1.1-1.6.2-3.5.4-7 .6-10.5.6h-.9c-5.3.1-10.6-.3-15.8-1-1-.1-1.9-.2-2.9-.4-5.4-.8-10.7-2-15.9-3.6-1.6-.4-3.1-.9-4.7-1.5-2.1-.7-4-1.4-6.2-2.2l-1.3-.5c-1-.4-2.1-.9-3.1-1.3-.2 0-.4-.1-.6-.2-2-.8-4-1.8-6-2.7-.4-.2-.8-.4-1.1-.5l-.6-.3c-1.3-.7-2.5-1.3-3.8-2-1.9-1-3.7-2-5.6-3.1h-.1c-21.2-12.6-43.1-31.9-64.5-60.1-22.8-30.1-30.7-58.8-29.2-84.3.6-10.5 2.8-20.8 6.6-30.7 3.6-9.4 8.4-18.3 14.4-26.5 18.1-25 44.7-41.6 66.9-45.9 53.2-10.2 39.5-35.3 39.5-35.3 12.1 2 39.8 21.6 39.8 21.6 60.7 29.8 92.3 64.6 105.8 99.2 5.4 13.6 8.2 28.1 8.3 42.8.1 5.2-.2 10.4-.8 15.6-5.7 50.3-39.3 92.3-59.8 105.7z" style="opacity:.36;fill:#fff;stroke:#fff;stroke-miterlimit:10;enable-background:new"/><path d="M276.9 561.5c4.9-42-18.1-36.6-18.1-36.6 4.5-8.7 26.6-25.6 26.6-25.6 38-39.7 73-56.6 103.4-60 11.9-1.4 23.9-.6 35.5 2.1 4.1 1 8.1 2.2 12.1 3.6 38 14.1 62.8 47.6 68.3 65.6 2.5 8.1 3.5 16.6 3.2 25.1v.2c-.1 3.6-.5 7.2-1.1 10.7 0 .3-.1.5-.2.8 0 .1-.1.3-.1.4 0 .2-.1.4-.1.6-.1.2-.2.8-.2 1.3-.6 2.7-1.2 5.4-2.1 8-.1.2-.1.4-.2.7-1.2 4-2.8 7.9-4.6 11.7-.3.7-.7 1.4-1 2.1-2 3.9-4.2 7.7-6.6 11.3-.7 1.1-1.5 2.2-2.3 3.3-1 1.4-2 2.8-3.2 4.2l-.7.8c-.6.7-1.2 1.4-1.8 2-.1.2-.2.3-.3.4-1.1 1.3-2.4 2.7-3.6 4-.3.2-.5.5-.7.8l-.4.4-2.5 2.5c-1.3 1.2-2.5 2.4-3.8 3.6-15 13.5-35.4 26.1-62.7 36.6-29.1 11.2-53.5 11.4-73.1 5.4-8-2.5-15.6-6.1-22.5-10.9-6.5-4.5-12.3-9.9-17.3-16" class="st12"/><path d="M780.9 201.7c45.8 60.7 69.6 23.5 69.6 23.5 5.3 16.8-1.2 66.3-1.2 66.3 2.2 98.8-20.8 164.7-55.1 207.6-13.4 16.8-29.6 31.2-47.9 42.4-6.4 4-13.1 7.6-20 10.7-66.2 30.5-140.2 19.3-170.3 3.5-13.5-7.2-25.7-16.6-36.1-27.8l-.3-.3c-4.4-4.7-8.5-9.8-12.3-15-.3-.4-.5-.9-.9-1.3-.1-.2-.3-.4-.4-.7l-.6-.9c-.5-.6-.9-1.3-1.3-1.9-2.7-4.1-5.2-8.4-7.5-12.8-.2-.4-.4-.7-.6-1.1-3.5-6.7-6.5-13.6-9-20.7-.5-1.3-1-2.6-1.4-4-2.5-7.4-4.4-15-5.9-22.7-.5-2.3-.9-4.7-1.3-7.1v-.1c-.5-3.1-.9-6.1-1.3-9.4-.1-.6-.1-1.3-.2-1.9-.1-1.6-.3-3.3-.3-4.9v-.1c-.1-.3-.1-.6-.1-1v-.2c-.2-3.1-.4-6.4-.5-9.6v-9.4c0-3.1.2-6.2.3-9.4v-.1c1.9-36.2 11.9-78.2 33.2-126.3 22.7-51.2 53.4-82.7 86.1-99.8 13.3-7 27.7-11.9 42.5-14.5 14-2.5 28.2-3 42.3-1.6.2.3 71.5 12.1 100.5 50.6z" class="st0"/><path d="M501.8 500.8c-13.9-33.5-12.3-65.9-1.2-94.9 12.3-32.3 36.5-60.2 64.2-80.6 1.3-.9 2.5-1.8 3.8-2.7 3.6-2.5 7.3-5 11-7.3 1.3-.8 2.5-1.5 3.8-2.3 1-.6 2-1.2 3.1-1.8 1.5-.9 3-1.7 4.5-2.5 1-.5 2-1 3-1.6 1.6-.8 3.2-1.6 4.7-2.3l3.2-1.5c.3-.2.7-.3 1-.5 1.1-.5 2.3-1 3.4-1.4 5.7-2.5 11.6-4.6 17.6-6.4 1.1-.3 2.2-.7 3.3-1l.6-.2c.9-.2 1.8-.5 2.6-.7.9-.2 1.9-.5 2.8-.7 1-.2 2.1-.5 3.2-.7l2.6-.5c1.2-.2 2.3-.4 3.5-.6.1 0 .2-.1.3-.1 2.4-.4 4.8-.6 7.2-.8 5.8-.5 11.7-.5 17.5.2 2.1.3 4.1.6 6.2 1 1 .2 2.1.5 3.1.8l3 .9c1 .3 1.9.6 2.9 1 11.9 4.9 24.2 8.8 36.7 11.6 29.2 6.2 39.1-1.1 42-4.3-16.9 23.8-9.7 20.8-9.7 20.8 19.9 40.2-4.4 69.7-4.4 69.7 18.5 37.3 3.1 47.5-23.1 93.7s-170.7 140.7-222.4 15.7z" class="st12"/><path d="M551.4 601.9c8.3 48.4-3.4 90.8-26.7 125.7-25.9 38.9-66.1 68.7-108.8 87.4-1.9.8-3.9 1.7-5.8 2.5-5.6 2.3-11.2 4.4-16.8 6.4-1.9.6-3.8 1.3-5.7 1.9-1.5.5-3.1 1-4.6 1.4-2.2.7-4.5 1.3-6.7 1.9-1.5.4-2.9.8-4.4 1.2-2.3.6-4.6 1.1-6.9 1.6l-4.7 1c-.5.1-1 .2-1.4.3-1.7.3-3.3.6-4.9.9-8.3 1.6-16.7 2.7-25.2 3.2-1.6.1-3.1.2-4.7.3h-.8c-1.3 0-2.5.1-3.7.1h-8.4c-1.3 0-2.4-.1-3.6-.1l-4.8-.3h-.4c-3.3-.2-6.6-.6-9.7-1-7.9-1.1-15.6-2.9-23.1-5.5-2.7-1-5.3-2-7.8-3.2-1.3-.6-2.5-1.3-3.8-1.9-1.3-.6-2.5-1.4-3.6-2.1-1.2-.7-2.4-1.4-3.5-2.2-17.7-12.2-32.6-20.6-45-26.3-36.7-16.9-52-10.2-56.7-6.8 29.4-26.4 19.1-24.6 19.1-24.6-14.3-59.1 26.7-90.8 26.7-90.8-13.3-54.7 10-63.6 58.4-116.9 48.3-53.4 266.9-134.6 298 45.9z" class="st13"/><path d="M350.5 193.9c1.3 29.7.1 81.9-20.3 112.2-26.4 39 17.6 149.4 28.8 174.4-29.6-28.5-49.1-68-58.6-107.9-.4-1.8-.8-3.6-1.3-5.4-1.1-5.2-2.1-10.4-2.9-15.5-.3-1.8-.5-3.5-.7-5.2-.2-1.4-.4-2.8-.5-4.2-.3-2-.4-4.1-.6-6.1-.1-1.3-.2-2.7-.3-4-.1-2.1-.3-4.2-.3-6.2-.1-1.4-.1-2.8-.2-4.2v-5.7c-.1-7.4.3-14.9 1.2-22.3.1-1.4.3-2.7.5-4.1 0-.3.1-.5.1-.7.1-1.1.3-2.1.5-3.2s.4-2.3.6-3.4c.2-1.1.5-2.5.7-3.8s.4-2.1.7-3.1c.3-1.4.6-2.7 1-4.1 0-.1 0-.2.1-.4.7-2.8 1.6-5.6 2.4-8.3 2.1-6.6 4.9-13 8.4-19.1 1.3-2.2 2.5-4.3 4-6.3.7-1 1.5-2 2.3-3 .5-.7 1.1-1.4 1.7-2 .2-.2.4-.4.5-.6 0-.1.1-.1.2-.2.8-1 1.6-1.8 2.5-2.7 10.6-10.8 20.5-22.5 29.5-34.9z" class="st12"/><path d="M463.6 523.2c-43.2-.4-78-17.2-104.6-42.8-29.6-28.5-49.1-68-58.6-107.9-.4-1.8-.8-3.6-1.3-5.4-1.1-5.2-2.1-10.4-2.9-15.5-.3-1.8-.5-3.5-.7-5.2-.2-1.4-.4-2.8-.5-4.2-.3-2-.4-4.1-.6-6.1-.1-1.3-.2-2.7-.3-4-.1-2.1-.3-4.2-.3-6.2-.1-1.4-.1-2.8-.2-4.2V316c-.1-7.4.3-14.9 1.2-22.3.1-1.4.3-2.7.5-4.1 0-.3.1-.5.1-.7.1-1.1.3-2.1.5-3.2s.4-2.3.6-3.4.5-2.5.7-3.8.4-2.1.7-3.1c.3-1.4.6-2.7 1-4.1 0-.1 0-.2.1-.4.7-2.8 1.6-5.6 2.4-8.3 2.1-6.6 4.9-13 8.4-19.1 1.3-2.2 2.6-4.3 4-6.3.7-1 1.5-2 2.3-3 .8-1 1.6-1.9 2.4-2.8.8-.9 1.6-1.8 2.5-2.7 10.9-10.8 20.9-22.4 29.8-34.9 20.3-29.2 16.9-43.4 14.7-48 18.2 29.6 18.3 20.3 18.3 20.3 53.4-3.1 74.4 37.3 74.4 37.3 49.5-3 53.5 18.6 92 68.9s74.5 252.3-86.6 250.9z" class="st14"/><path d="M662.7 196.5c-2.4 29.6-3.1 81.9 16.2 112.8 25 40-23.1 148.6-35.2 173.3 30.7-27.4 51.5-66.1 62.5-105.7.5-1.8 1-3.6 1.4-5.4 1.3-5.1 2.4-10.3 3.4-15.4.3-1.7.6-3.5.9-5.2.2-1.4.5-2.8.7-4.2.3-2 .6-4.1.8-6.1.2-1.3.3-2.7.5-4 .2-2.1.4-4.2.6-6.2l.3-4.2c0-.5.1-.9.1-1.3 0-1.5.1-3 .2-4.4.3-7.4.2-14.9-.3-22.3-.1-1.4-.2-2.7-.3-4.1 0-.3 0-.5-.1-.7-.1-1.1-.2-2.2-.4-3.2-.1-1.1-.3-2.3-.4-3.5-.2-1.2-.4-2.5-.6-3.8-.2-1.1-.4-2.1-.6-3.2-.3-1.4-.5-2.7-.9-4.1v-.4c-.6-2.9-1.3-5.6-2.1-8.3-1.9-6.7-4.4-13.2-7.6-19.4-1.2-2.2-2.4-4.4-3.8-6.4-.7-1-1.4-2.1-2.1-3.1-.5-.7-1.1-1.4-1.6-2.1l-.5-.6c0-.1-.1-.1-.2-.2-.8-1-1.6-1.9-2.4-2.8-10.4-11-20-23-28.5-35.8z" class="st0"/><path d="M537.7 521.6c43.2 1.2 78.6-14.3 106.1-38.9 30.7-27.4 51.5-66.1 62.5-105.7.5-1.8 1-3.6 1.4-5.4 1.3-5.1 2.4-10.3 3.4-15.4.3-1.7.6-3.5.9-5.2.2-1.4.5-2.8.7-4.2.3-2 .6-4.1.8-6.1.2-1.3.3-2.7.5-4 .2-2.1.4-4.2.6-6.2l.3-4.2c0-.5.1-.9.1-1.3 0-1.5.1-3 .2-4.4.3-7.4.2-14.9-.3-22.3-.1-1.4-.2-2.7-.3-4.1 0-.3 0-.5-.1-.7-.1-1.1-.2-2.2-.4-3.2-.1-1.1-.3-2.3-.4-3.5-.2-1.2-.4-2.5-.6-3.8-.2-1.1-.4-2.1-.6-3.2-.3-1.4-.5-2.7-.9-4.1v-.4c-.6-2.9-1.3-5.6-2.1-8.3-1.9-6.7-4.4-13.2-7.6-19.4-1.2-2.2-2.5-4.3-3.8-6.4-.7-1-1.4-2.1-2.1-3.1-.7-1-1.5-2-2.3-2.9s-1.6-1.9-2.4-2.8c-10.5-11.1-20-23.2-28.5-35.9-19.3-29.9-15.3-44-13-48.5-19.3 28.9-19.1 19.7-19.1 19.7-53.2-5.1-75.7 34.5-75.7 34.5-49.3-4.7-54.2 16.7-94.5 65.5s-83.8 249.4 77.2 253.9z" class="st0"/><path d="M509.1 494.5c1-48.2 20.2-86.8 49.1-116 32.2-32.7 76.5-53.8 121.1-63.8 2-.5 4-.9 6.1-1.3 5.8-1.2 11.6-2.1 17.3-3 2-.3 3.9-.5 5.8-.7 1.6-.2 3.1-.4 4.7-.5 2.3-.3 4.6-.4 6.8-.6 1.5-.1 3-.2 4.4-.3 2.3-.1 4.7-.2 7-.3l4.7-.1H742.4c8.3 0 16.6.6 24.8 1.6 1.6.2 3.1.4 4.6.6l.8.1c1.2.2 2.4.3 3.6.6 1.2.2 2.5.4 3.8.7l4.2.8 3.5.8c1.5.4 3 .7 4.5 1.2l.4.1c3.1.8 6.2 1.8 9.2 2.8 7.4 2.5 14.5 5.7 21.2 9.6 2.4 1.4 4.7 3 6.9 4.6 1.1.8 2.3 1.7 3.3 2.5 1.1.9 2.1 1.8 3.1 2.7s2 1.8 3 2.8c11.8 12.3 24.7 23.6 38.5 33.7 32.2 23.1 48.2 19.5 53.3 17.1-33.3 19.9-22.9 20.2-22.9 20.2 2.7 59.5-42.6 82.4-42.6 82.4 2.5 55.2-21.5 59.4-78.1 101.7-56.3 42.2-282.2 79.6-278.4-100z" style="opacity:.39;fill:#fff;stroke:#fff;stroke-miterlimit:10;enable-background:new"/><path d="M492.7 476.2c-21.2-43.3-54.8-70.3-93.3-84.7-43-16.1-92-16.7-136.7-7.1-2 .4-4 .9-6 1.4-5.8 1.3-11.4 2.9-17 4.6-1.9.6-3.8 1.2-5.6 1.8l-4.5 1.5c-2.2.7-4.4 1.5-6.5 2.3-1.4.5-2.8 1.1-4.1 1.6-2.2.9-4.4 1.8-6.5 2.7-1.4.6-2.9 1.3-4.3 1.9-.5.2-.9.4-1.3.6-1.5.7-3 1.4-4.4 2.1-7.5 3.5-14.8 7.5-21.9 11.9l-3.9 2.4-.7.4c-1 .7-2 1.3-3 2s-2.1 1.5-3.2 2.2c-1 .8-2.3 1.7-3.5 2.5s-1.9 1.5-2.8 2.2c-1.2 1-2.4 1.9-3.6 3l-.3.3c-2.5 2.1-4.9 4.2-7.1 6.4-5.7 5.3-10.8 11.3-15.3 17.6-1.6 2.3-3 4.7-4.4 7-.7 1.3-1.3 2.5-1.9 3.7s-1.2 2.5-1.7 3.7-1.1 2.5-1.5 3.8c-7.1 19.9-14.1 35.1-20.8 46.7-19.5 34.5-35.6 37.9-41.2 37.9 38.6 4.1 29.2 8.7 29.2 8.7 22.5 55.2 73.3 57 73.3 57 20.8 51.2 44.5 44.9 113.5 59.5s289.7-46.1 211-207.6z" class="st12"/><path d="M887 581.5c-27.2-15.2-73.3-45.1-89.2-80-20.3-45.1-143.3-66.5-171.9-70.3 41.9-10.8 87.9-6.4 128.8 7 1.8.6 3.7 1.3 5.5 1.9 5.3 1.8 10.4 3.8 15.4 6 1.7.7 3.4 1.5 5.1 2.2 1.4.6 2.7 1.2 4 1.8 2 .9 3.9 1.9 5.8 2.8 1.3.6 2.5 1.3 3.7 1.9 2 1 3.9 2.1 5.8 3.1 1.3.7 2.5 1.4 3.8 2.2.4.2.8.5 1.2.7 1.3.8 2.7 1.6 3.9 2.4 6.7 4 13.1 8.5 19.3 13.3 1.2.9 2.3 1.8 3.4 2.7.2.2.4.3.6.5.9.7 1.8 1.4 2.5 2.2.8.8 1.9 1.6 2.8 2.4.9.8 2 1.8 3 2.7s1.6 1.6 2.4 2.3l3.1 3.1.3.3c2.1 2.2 4.2 4.5 6.1 6.7 4.8 5.6 8.9 11.6 12.5 18 1.3 2.3 2.4 4.7 3.4 7 .5 1.2 1 2.4 1.4 3.7.3.9.6 1.7.9 2.5.1.3.2.5.3.8v.3c.4 1.3.7 2.4 1 3.7 3.9 15.9 8.8 31.2 15.1 46.1z" class="st16"/><path d="M530.1 501.3c24.2-38.5 58.3-60.3 95.9-70 41.9-10.8 87.9-6.4 128.8 7 1.8.6 3.7 1.3 5.5 1.9 5.3 1.8 10.4 3.8 15.4 6 1.7.7 3.4 1.5 5.1 2.2 1.4.6 2.7 1.2 4 1.8 2 .9 3.9 1.9 5.8 2.8 1.3.6 2.5 1.3 3.7 1.9 2 1 3.9 2.1 5.8 3.1 1.3.7 2.5 1.4 3.8 2.2.4.2.8.5 1.2.7 1.3.8 2.7 1.6 3.9 2.4 6.7 4 13.1 8.5 19.3 13.3 1.2.9 2.3 1.8 3.4 2.7.2.2.4.3.6.5.9.7 1.8 1.4 2.5 2.2.8.8 1.9 1.6 2.8 2.4.9.8 2 1.8 3 2.7s1.6 1.6 2.4 2.3l3.1 3.1.3.3c2.1 2.2 4.2 4.5 6.1 6.7 4.8 5.6 8.9 11.6 12.5 18 1.2 2.3 2.4 4.7 3.4 7 .5 1.2 1 2.4 1.4 3.7.4 1.2.9 2.5 1.3 3.7.4 1.2.7 2.4 1 3.7 3.6 15.6 8.6 31 14.8 45.8 14.9 34.3 29.5 39.1 34.8 39.6-36.5 0-28.3 5.2-28.3 5.2-26.6 49.5-74.3 46.1-74.3 46.1-24.6 45.9-46.1 37.6-112.3 44.4-66 6.9-266.7-72.1-176.7-215.4z" class="st16"/><path d="M539.4 522.7c27.5 6.2 51.4 22.9 66.6 46.6 16.3 24.7 23.6 55.5 24 85v4c0 3.8-.2 7.6-.5 11.3-.1 1.3-.2 2.5-.3 3.8l-.3 3c-.1 1.5-.3 3-.5 4.4-.1 1-.3 1.9-.4 2.8-.2 1.5-.5 3-.8 4.4-.2 1-.4 2-.5 3 0 .3-.1.6-.2.9-.2 1-.4 2.1-.7 3.1-1.1 5.2-2.6 10.4-4.3 15.4-.3 1-.6 1.9-1 2.8 0 .2-.1.3-.2.5-.3.7-.5 1.5-.8 2.2-.3.7-.6 1.6-.9 2.3-.3.8-.7 1.7-1.1 2.5-.4.8-.6 1.4-1 2.1-.4.9-.9 1.8-1.3 2.7 0 .1-.1.2-.1.2-1 1.9-2 3.7-3 5.4-2.6 4.3-5.5 8.4-8.9 12.1l-3.8 3.8-2.1 1.8c-.7.6-1.4 1.1-2.1 1.6-.7.5-1.4 1-2.2 1.5-9.4 5.8-18.2 12.4-26.5 19.7-18.9 17.2-18.8 27.8-18 31.3-8.1-23.7-9.6-17.2-9.6-17.2-37.9-6.3-46.3-38-46.3-38-35.2-5.8-34.6-21.6-53.7-62.9-19.1-41.1-12.4-188.7 100.5-162.1z" class="st3"/><path d="M582.2 511.1c50.1-4.2 92.2 11.4 125.7 38.2 37.4 29.8 64.2 73.5 79.5 118.6.7 2 1.3 4.1 2 6.2 1.9 5.9 3.5 11.8 5 17.6.5 2 1 4 1.4 6 .4 1.6.7 3.2 1.1 4.8.5 2.3 1 4.7 1.4 7 .3 1.5.5 3.1.8 4.6.4 2.4.8 4.8 1.1 7.2.2 1.6.4 3.3.6 4.9.1.5.1 1 .2 1.5.2 1.7.4 3.4.5 5.1.9 8.6 1.2 17.3 1.1 25.9 0 1.6 0 3.2-.1 4.8v.9c0 1.3-.1 2.5-.2 3.8s-.2 2.7-.3 4.1-.3 3-.4 4.5c-.1 1.3-.3 2.5-.5 3.7-.2 1.6-.4 3.2-.7 4.8v.4c-.5 3.4-1.2 6.7-1.9 9.8-1.8 7.9-4.3 15.6-7.6 23-1.3 2.7-2.5 5.2-4 7.7-.7 1.3-1.5 2.5-2.3 3.7s-1.6 2.4-2.4 3.5c-.8 1.1-1.7 2.3-2.5 3.4-14 17-23.8 31.4-30.7 43.6-20.5 36-14.9 52.1-11.9 57.2-24.3-32.3-23.4-21.6-23.4-21.6-61.5 9.3-90.2-35.1-90.2-35.1-57.1 8.8-64.1-15.8-114.2-69.8s-113.8-284.2 72.9-300z" style="opacity:.22;fill:#fff;stroke:#fff;stroke-miterlimit:10;enable-background:new"/><path d="M515.9 510.1s161.4-95.1 227.2 70.7c0 0 47.3 35.9 39.1 72.7-8.2 36.8-33 33.5-33 33.5s26.5 58.5-33.2 65.3c-59.7 6.8-166-21-209.8-125.1 0 0-29.5-75.5 9.7-117.1z" class="st18"/><path d="M513.2 555.2s-50.6 192.2-224 116.5c0 0-62.4 8.3-83.8-25.6s-.2-49.8-.2-49.8-63.7-24.3-23.8-74S322.2 414.1 433 459.8c.1-.2 78.7 34.7 80.2 95.4z" style="opacity:.25;fill:#fff;stroke:#fff;stroke-miterlimit:10;enable-background:new"/><path d="M522.1 536.7s83.8 167.5-86 221.8c0 0-39.1 44.7-75.2 34s-31.1-35.2-31.1-35.2-60.2 22.5-62.9-37.5c-2.7-60 32.3-164.2 139.1-200.8-.1 0 77.3-24.2 116.1 17.7z" class="st14"/><path d="M498.8 529.7s-229 162.8-348.4-76.4c0 0-75.2-47.6-67.7-103.7s45-54.2 45-54.2-47.1-84 41.2-101.8 250.8 10 329.6 159.9c-.2 0 53.5 109.1.3 176.2z" class="st12"/><path d="M503.7 520.6S376.1 410.8 498 306.9c0 0 16.9-50.6 50.6-54.3 33.7-3.7 38 18.3 38 18.3s42.1-39.5 65.1 9.3 30.2 147.3-45.6 214.7c0 0-55.7 47-102.4 25.7z" class="st3"/><path d="M436.3 752.8c-18.1 17-45.5 8.1-45.5 8.1 12.3-40.4-43.9-79.4-43.9-79.4-8.3-14-12.1-27.3-12.5-39.9-1.1-35 24.3-64.5 53.1-87 8-6.2 16.2-11.9 24.2-17 12.2-7.8 25.5-13.7 39.5-17.5 3.3-.9 6.4-1.6 9.5-2.3 2.4-.5 4.8-.9 7.1-1.3.2 0 .4-.1.6-.1 4.7-.7 9.1-1.1 13.1-1.3l2.1-.1c4.7-.2 9.3-.1 14 .3 4.6.4 7.2.9 7.2.9 2.1.5 4.1 1.3 5.9 2.3 2.2 1.2 4.3 2.4 6.4 3.8 1.7 1.1 3.4 2.4 5.2 3.8 1.3.9 2.5 1.9 3.8 3 .8.6 1.5 1.3 2.3 2 3 2.5 6.1 5.4 9.2 8.6l.7.7c2.2 2.2 4.3 4.5 6.5 7 1.4 1.6 2.8 3.2 4.1 4.9.1 0 .1.1.1.1l.7.8c4.5 5.5 8.6 11.2 12.4 17.2 17.9 28.3 30.4 66.1 20.2 109.5-1.6 6.9-3.8 13.7-6.4 20.3-40.4 104.5-139.6 52.6-139.6 52.6z" class="st18"/><path d="M334.3 641.5c-1.1-35 24.3-64.5 53.1-87 8-6.2 16.2-11.9 24.2-17 12.2-7.8 25.5-13.7 39.5-17.5 3.3-.9 6.4-1.6 9.5-2.3-2.7 4.6-5.1 9.3-7.2 14.1-20 45.6-49.7 52.2-90.4 76.6-16.8 10.1-24.9 22.3-28.7 33.1z" class="st3"/><path d="m461.1 519.6-5.6.8c1.9-1.2 3.9-2.1 6-2.8 6.8-2.1 11.5-.1 12 .1l-12.4 1.9z" class="st1"/><path d="M388.4 381.2c-9.1-3.6-18.4-6.4-28-8.5-48.2-10.8-85.2 32.2-103.3 59.3-.9-29.2 15-65.6 93.3-79 12.5-2.3 25.2-2.6 37.8-1-1.4 9.7-1.4 19.5.2 29.2z" class="st3"/><path d="M517.3 525.1s-3.6.4-9.9 1.4c-4.7.6-10.7 1.7-18 3.1l-2.1.5c-.5 0-1.1.2-1.6.3-1.3.3-2.7.6-4.1.8h-.1c-2.2.5-4.4.9-6.8 1.5-.6.1-1.3.3-1.9.4l-2.7.6c-6.2 1.5-12.9 3.2-19.8 5.2h-.1c-3.8 1.1-7.6 2.2-11.7 3.5h-.1c-48.7 15.3-107.8 43.3-140.2 92.8-11.3 17.2-18.9 36.6-22.1 57-2.7 17.2-2.7 34.8-.1 52.1 15.3 108.3 64.9 131.7 105 131.6 30.8 0 56.2-14 56.2-14-4.6 16.6 84.5 90.6 162.6-62.3 4.5-8.6 8.3-17.5 11.4-26.7 9.2-26.1 12.1-54.1 8.5-81.6-5.1-38.9-22.2-73-41.1-100.1-2.9-4.1-5.7-8-8.6-11.8l-.1-.1c-5.2-6.8-10.4-12.9-15.4-18.5l-2.4-2.7-.5-.5c-3.1-3.3-6.1-6.4-8.9-9.2-.9-1-1.9-2-2.8-2.8-2.5-2.5-5-4.9-7.2-7-9.2-8.8-15.4-13.5-15.4-13.5z" class="st13"/><path d="M532.9 522.6s4.2-.8 11.5-2.5c5.5-1.2 12.6-2.9 21.1-5.3.8-.3 1.7-.5 2.5-.8.6-.1 1.2-.3 1.8-.5 1.6-.4 3.2-.9 4.8-1.3l.1-.1c2.5-.8 5.2-1.5 7.9-2.4.7-.2 1.4-.4 2.2-.7 1-.3 2.1-.6 3.1-1 7.3-2.3 15-5 23-7.9h.1c4.4-1.6 8.9-3.3 13.5-5.2l.1-.1c56.3-22.5 123.8-60.8 157.7-122.4 11.9-21.4 19.1-45 21.1-69.4 1.6-20.7.1-41.4-4.5-61.6-27.7-126.9-88.5-150.2-136-146.5-36.5 2.8-65.3 21.6-65.3 21.6 4-19.9-108-99.6-186.9 88.3-4.5 10.6-8.2 21.5-11.1 32.7-8.6 31.8-9.5 65.1-2.8 97.3 9.4 45.6 32.8 84.5 57.5 114.9 3.8 4.6 7.5 9 11.2 13.2l.1.1c6.8 7.5 13.5 14.4 19.9 20.6 1 1 2.1 2 3 3 .2.2.4.3.6.5 4 3.6 7.8 7 11.4 10.2 1.2 1.1 2.4 2.2 3.6 3.1 3.3 2.8 6.4 5.3 9.2 7.6 11.8 9.6 19.6 14.6 19.6 14.6z" class="st12"/><path d="M317.7 691.5c-5.3 12.3-9.6 25.1-12.8 38.1-16.8 65.9 40.9 118.6 77.6 144.5-40.2.1-89.7-23.3-105-131.6-2.6-17.3-2.6-34.8.1-52.1 13.2 2.5 26.7 2.8 40.1 1.1zM654.6 607.9c10.1 1.9 20.3 2.8 30.6 2.9 52.3.8 86.9-54.8 103-88.7 4.2 31.8-8.7 75.4-90.3 108-12.8 5.3-26.3 8.6-40 9.8.6-10.8-.5-21.6-3.3-32z" class="st3"/><path d="M511.3 525.1s1.3 2.2 3.9 6.1c1.8 2.9 4.4 6.6 7.5 10.9.3.4.6.9 1 1.3.2.3.4.7.7 1 .6.8 1.2 1.6 1.8 2.5h.1c1 1.3 2 2.6 3 4 .3.4.6.7.9 1.1.3.4.8 1.1 1.3 1.6 2.9 3.7 6.1 7.5 9.5 11.4 1.9 2.2 3.8 4.4 5.8 6.6 24.9 27.4 61.4 57.9 103.9 64.2 14.8 2.3 29.9 1.3 44.3-2.8 12.2-3.5 23.8-8.8 34.3-15.8 66.8-43 67.1-82.8 54.8-109.3-9.4-20.3-26.3-32.8-26.3-32.8 12.3-2 34-83.2-90.6-88.3-7-.3-14.1-.1-21.1.6-20 2-39.3 8.6-56.3 19.4-24.2 15.2-41.4 36.9-53.5 57.5-1.8 3.1-3.5 6.2-5.1 9.3v.1c-2.9 5.5-5.4 10.8-7.5 15.8-.3.8-.7 1.6-1 2.4-.1.2-.1.3-.2.5-1.3 3.1-2.4 5.9-3.4 8.7-.4.9-.7 1.8-1 2.7-.9 2.5-1.7 4.8-2.4 6.9-3.2 8.9-4.4 14.4-4.4 14.4z" style="opacity:.16;fill:#fff;stroke:#fff;stroke-miterlimit:10;enable-background:new"/><path d="M369.4 292.6c9.5 23.7 23.5 66.6 15.4 97.4-10.5 39.8 57.2 116 73.5 133-32.5-14.1-59.7-40.3-78.8-69.8-.8-1.3-1.7-2.7-2.5-4-2.4-3.8-4.7-7.8-6.8-11.7-.7-1.3-1.4-2.7-2.1-4-.5-1.1-1.1-2.2-1.6-3.3-.8-1.6-1.5-3.2-2.3-4.8-.5-1-.9-2.1-1.4-3.1-.7-1.7-1.4-3.3-2.1-5-.4-1.1-.9-2.3-1.3-3.4-.2-.4-.3-.7-.4-1-.4-1.2-.9-2.4-1.3-3.6-2.2-6-4-12.2-5.4-18.5-.3-1.2-.5-2.3-.8-3.5 0-.2-.1-.4-.1-.6-.2-.9-.4-1.8-.5-2.7-.2-.9-.4-2-.5-3s-.4-2.2-.5-3.3c-.2-1.1-.2-1.8-.3-2.8-.1-1.3-.3-2.4-.4-3.6v-.3c-.2-2.5-.3-5-.4-7.5-.1-6.1.3-12.1 1.4-18.1.4-2.1.9-4.3 1.5-6.4.3-1.1.6-2.1 1-3.1.2-.7.5-1.4.8-2.2.1-.2.2-.4.3-.7 0-.1.1-.1.1-.2.4-1 .8-2 1.3-2.9 5.7-12 10.5-24.5 14.2-37.3z" class="st14"/></g></svg>