<svg xmlns="http://www.w3.org/2000/svg" xml:space="preserve" id="Layer_1" x="0" y="0" style="enable-background:new 0 0 1000 1000" version="1.1" viewBox="0 0 1000 1000"><style>.st0{opacity:.45;fill:#fff;enable-background:new}.st1,.st2,.st3,.st4,.st6,.st8,.st9{opacity:.67;fill:#fff;enable-background:new}.st2,.st3,.st4,.st6,.st8,.st9{opacity:.2}.st3,.st4,.st6,.st8,.st9{opacity:.48}.st4,.st6,.st8,.st9{opacity:.58}.st6,.st8,.st9{opacity:.7}.st8,.st9{opacity:.76}.st9{opacity:.84}</style><path d="M483 159.1s19.2-17.5 56.2-37.1l44.6-20.2-2.9 5.7s-.6-5 20.8 1.6 19.3 10 29.9 11.6c-3.6 6.5-7.7 12.8-12.1 18.8-9.2 12.7-13.6 17.8-22.6 22.2 0 0 12.6 4.5 23.7 17.5s16.6 17.9 16.6 17.9-4.5 4.4-20.2 13.6-15.3 11.6-28.2 12.1-63.8-12.3-97.3-29.3c0 0-3.9-2-7.7-4.1-2.5-1.4-4.2-2.8-7.6-3.9-8.4-2.8-22.6-1.2-25.1-13.2 0 0 2.6-5.6 11-7.3s6-.9 11.1-2.4c3.5-1 6.7-2.1 9.8-3.5z" class="st0"/><path d="M482.6 159.6s24-22.2 46.3-33c22.3-10.8 28.3-7.1 42.7-10.4s30.2-7.2 30.2-7.2l4.9 17.2s15.6 12.6 19.1 13.8l14 19.8s4 3.6-11.4 17.1-10.2 6.6-22.6 14.2c0 0 7.5 1.1 18.2 16.2 0 0 5.6 13.9 7.3 15.7 0 0-11.8 2.2-38.5 0s-60.8-13.4-82.3-20.4c0 0-25.6-12.1-31.1-15.5s-28.2-4.8-26.9-12.1c0 0-3.4-6 9.3-9.9s8.5-.9 20.8-5.5z" class="st1"/><path d="M434.4 141.7s-4.6-1.6-13.7-.7c-10.1-5.8-20.6-10.7-31.5-14.7-17-6.1-69.8-9.8-93.8-12.4s-31-4.7-31-4.7 19.3 24.3 33.1 32.3l7.8 4.2s-11.9-.7-20.6 12.3-14.5 23.2-14.5 23.2c8.7 3.8 17.2 8.3 25.2 13.5 11.4 7.5 14.9 6.9 21 7.3 0 0-2.2 2.2-6.3 16.2s2.2 13.6-2.9 22c0 0 3 6.2 13.9-.2s15-11.8 25.8-17.8 39.9-20.5 51.8-31.3c7.7-7.2 14.6-15.4 20.5-24.2 0 0 10.8-8.7 15-12.8s6.4-6.6 4.1-9.3" class="st2"/><path d="M431 140.7s-1.5-1.4-10.5.3c0 0-12.2-8.7-25.4-13.7s-24.8-5.6-31.9-7.4c-17.7-4.6-49.9-.8-74.1-1.3s-31.4-1.9-31.4-1.9 22.3 22.4 37 29.1l8.2 3.5s-11.9.4-19 14.1-11.5 24.4-11.5 24.4c9.2 3 18.1 6.8 26.7 11.2 12.2 6.5 15.7 5.6 21.8 5.4 0 0-1.9 2.4-4.2 16.7s3.9 13.4-.1 22.2c0 0 3.8 5.9 13.8-1.5s13.4-13 23.4-20 40-24.7 50.5-36.5 14.9-18.7 14.9-18.7 9.1-6.5 12.9-11c2.2-2.6 3.8-3.2 5.2-4.9 1-1.2 2-2.2.4-6.3-1.1-3.3-6.7-3.7-6.7-3.7zM289.9 523.8s-10.5 2.6-26.9-14l-5.4-6.2c3.8-3 7.5-6.2 10.9-9.6 5.4-5.4 17.1-16.2 26.8-19l5.3-1.3s-11.6-10.5-18.5-20.3c0 0-6.6-13.3-9.5-15.6 0 0 .1.8 10.6-5.5s10.6-9.5 24.4-11.4l10.9-1.8c-2.9-5.5-5-11.5-6.2-17.6 0 0-2.5-9.8-4-17.3l-1.3-4.5s6.4-2.4 11-3.7c0 0 2.2-.7 8.3 3.3s92.1 50.5 94.8 77.2c0 0 8.5 8.5 16.1 14.9s11.1 4.3 3.7 13.3c0 0-1.7 2.6-12.3 5.4-4.3 3.5-8.9 6.7-13.7 9.4-6.4 3.4-33 17.1-81.7 18.2l-43.3 6.1z" class="st0"/><path d="M427.3 489.4s-4.6 3-10 7.2c-7.6 5.9-19.9 12.9-42 16.4-37.9 6.1-62.2 5.1-76.2 9.7l-10.5 1.6s7.1-7.3 23.7-10c0 0-25.4.5-41.5-13.2s-14.2-14.7-14.2-14.7 26.5-26.9 50.4-26c0 0-5.9-1.3-16.6-13.9s-9.5-16.6-9.5-16.6-.1-9-2.1-12.9c0 0 15.9-5.4 23.6-7.9s22-4.7 28.4-2.9c0 0-6.5-8.8-6.5-17.3l-5.1-14.4s29.3 19.8 43.6 28.1 53.8 29.9 60.5 55.9c0 0 2.6 5.9 12.3 11.1 0 0 10.9 6 9.1 10.4-1.3 3.1-7.5 7.5-7.5 7.5-3.4.9-6.6 1.5-9.9 1.9zM434.4 141.7s-4.6-1.6-13.7-.7c-10.1-5.8-20.6-10.7-31.5-14.7-17-6.1-69.8-9.8-93.8-12.4s-31-4.7-31-4.7 19.3 24.3 33.1 32.3l7.8 4.2s-11.9-.7-20.6 12.3-14.5 23.2-14.5 23.2c8.7 3.8 17.2 8.3 25.2 13.5 11.4 7.5 14.9 6.9 21 7.3 0 0-2.2 2.2-6.3 16.2s2.2 13.6-2.9 22c0 0 3 6.2 13.9-.2s15-11.8 25.8-17.8 39.9-20.5 51.8-31.3c7.7-7.2 14.6-15.4 20.5-24.2 0 0 10.8-8.7 15-12.8s6.4-6.6 4.1-9.3" class="st1"/><path d="M703.5 487.6s-54.7 15.7-76.4 30.5c0 0-14.6 2.2-24.5 9s-18.7 10.1-20.3 14.7c0 0-4 7.5 4.6 6.5l13.7-2.5c2.5 2 5.4 3.4 8.5 4.2 0 0 6.8 11 17.7 16.1 0 0 21 13.3 32.5 16.4s30.7 11.7 37.7 13.4 18.4 2.5 18.4 2.5 5-21.6-8.9-31.2c0 0 15.1-9.4 24.7-20.5l4.9-4.9s-13.4-18.1-26.8-23c0 0 3.8-6.4 8.1-14.6s6.6-8.2 6.6-8.2-14.2-9.2-20.5-8.4z" class="st0"/><path d="M583.4 305.7s24.2 3.3 37.3 13.2c0 0 4 9.5 22 13.6s14.6 4.3 34.6 16.7l12.7 7.6s-8.9 3.4-23 2.3-9 3.1-24.9-1.9-13.8-4.5-21.1-9.9-2.1-2.8-12.4-7.1-21.5-10.6-28-22.2-2.6-12.1 2.8-12.3z" class="st3"/><path d="M685.1 493.9s7.8-1.8 23.7 10.9c15.9 12.7 18.4 17.8 21.3 20.1-3.2 1.8-6.2 4-8.9 6.5-4.7 4.3-12.2 11.1-20.8 13.1 0 0 6.1 1.6 12.1 15 0 0 1.1 2.8 6.3 5.5 0 0-10.5 6.4-15.5 13.2s-11.2 12-15.3 12.4-24.9-6.8-24.9-6.8-32.2-13.1-43.1-21.8c0 0-8-9.1-10.1-11.1s-8.6-4.2-8.6-4.2-15.8 3.5-18.1 2-2.7-5.2 1.2-9.2 23.8-17.6 39.5-21.7c-.2 0 49.7-23.5 61.2-23.9z" class="st1"/><path d="m613.1 313.9 10.3 9.5s-4.7-1.7 12.4 9 27 13 35 23.2 5.5 15.6 5.5 15.6-11.6-2.6-16.9-2.6c0 0 4.2 3.7 3.9 9.1s-.3 9.7-.3 9.7-7.2-.7-20.2-17.1c-6.2-5.1-12.1-10.6-17.6-16.4-4-4.5-8.5-8.6-13.3-12.2 0 0-18.3-7.3-25.8-15.7 0 .1-31.9-36.3 27-12.1z" class="st3"/><path d="M452.2 682.3s-7.8-6.3 25.1-24.5c0 0 22.2-13.3 23.6 6.5 0 0-16.6 19.4-35.3 25.9 0 0-17.7 4.3-13.4-7.9z" class="st4"/><path d="M451.6 687.2s-9.2-4 5.9-15.9 15.7-11.1 15.7-11.1l-1.4 11.1s-6.4 1.9 6.2-.9 19.6-2 21.1-3.4-18.3 17.8-31 22.1-16.5-1.9-16.5-1.9z" style="opacity:.69;fill:#fff;enable-background:new"/><path d="M588.3 530.1s-7.9-3.3 12.4-24.2c0 0 13.4-14.9 20.2.1 0 0-7.2 18.5-19.9 27.5 0 0-12.5 7-12.7-3.4z" class="st4"/><path d="M589.2 534.1s-8.4-1.2-.1-13.6 9-11.9 9-11.9l2.1 9s-4.5 2.8 4.5-2 14.7-5.6 15.4-7.1-9 17.6-17.6 23.6-13.3 2-13.3 2z" class="st6"/><path d="M625.8 724.8s-6.9-1.2-10.2-18.9l-1-8.5s5.6-13.5 13.3-7.3c0 0 10.9 6 4.7 26.1 0 0-2 10.4-6.8 8.6z" class="st4"/><path d="M626.1 727.8c-.7-.3-7.6-6-9.3-14s-2.9-14.6-3.2-16.7 2.7 4.4 5.9 7 5.4 1.4 9.3 4.9 4.7 6.4 3.4 11.5-2.6 8.5-6.1 7.3z" class="st6"/><path d="M621.4 729.7s-7.1 1.6-11.5-9.7l-1.6-5s10 3.5 13.6 9.6c.1 0 2.2 3.3-.5 5.1z" class="st6"/><path d="M481.5 86.7s-12.7 7.2-49.9-15.9l-16.9-11.7s-15.8-27.9 7.2-28.4c0 0 27.5-4.9 54.5 34 0 0 15.8 18.5 5.1 22z" class="st4"/><path d="M487.4 90.8c-1.6.6-22.6.6-39.7-9.4s-30.9-18.7-35.2-21.5 12.2 3.3 21.8 3.1 10.9-4.8 23.2-4.6 18.9 3.7 26.2 13.3 11.2 16.5 3.7 19.1zM484.4 102.5s-8.1 11.6-35.2-.1l-11.5-5.7s21.7-7.5 38.4-2.8c0 0 9.3 2.3 8.3 8.6z" class="st6"/><path d="M422.5 371.3s-8.4-1.8-12-26.3c0 0-6.5-24.3 8-25.2 0 0 12.4-4.2 14.4 23.1 0 0 2.7 20-5.4 26.5-.3.3-.7.5-1 .7-1.3.7-2.6 1.1-4 1.2z" class="st4"/><path d="M423.3 371.3s-4.2-.4-7.5-7.9c-1.8-4.6-2.9-9.5-3.2-14.4l-2.7-14.3s12.3 13.2 15.8 19.1c0 0 5.8 2.1 5.1 7.7-.4 3-1.1 5.8-3 7.6-1.3 1-2.8 1.8-4.5 2.2z" class="st6"/><path d="M541.4 267.7s-8.4-1.4-12-19.8c0 0-6.5-18.2 8-19 0 0 12.4-3.2 14.4 17.4 0 0 3.7 20.4-10.4 21.4z" class="st4"/><path d="M543.2 267s-9.8.2-11.6-16l-2.7-10.8s12.3 9.9 15.8 14.3c0 0 5.8 1.6 5.1 5.8s-6.6 6.7-6.6 6.7z" class="st6"/><path d="M503.8 305.4s6.6-1.1 9.5-15.6c0 0 5.2-14.4-6.3-15 0 0-9.8-2.5-11.4 13.7 0 .1-2.9 16.2 8.2 16.9z" class="st4"/><path d="M502.4 304.8s7.7.1 9.2-12.6l2.1-8.5s-9.7 7.8-12.4 11.3c0 0-4.5 1.3-4 4.5s5.1 5.3 5.1 5.3z" class="st6"/><path d="M457.6 152.9s-7.4-1.4-10.6-19.9c0 0-5.8-18.3 7-19.1 0 0 10.9-3.2 12.7 17.5.1 0 3.3 20.5-9.1 21.5z" class="st4"/><path d="M459.3 152.1s-8.6.2-10.2-16.1l-2.4-10.8s10.8 10 13.9 14.4c0 0 5.1 1.6 4.5 5.8s-5.8 6.7-5.8 6.7z" class="st2"/><path d="M480.6 162.3c10.2 8.1 16.1 14.5 21.3 23.8 3.5 6.1 5.9 12.8 7.2 19.7.7 3.4 1 6.8.9 10.3v.3h.1c-.5 2.7-1 6.1-1.2 7.2-.8 4.7-.2 2-.9 6.4-1.7-6.3-1.6-9.6-15.2-27.9-4.6-6.2-11.3-13.5-12.6-21.3-1.1-7.2-.8-10.9.4-18.5zm9.2-73-3.2 2.3c.5.1.9.1 1.3.2 1.3.3 2.6.7 3.9 1.1 4.3 1.4 8.3 3.6 12 6.3 4.3 3.2 7.9 7.2 10.6 11.8-4-2.2-8.2-3.9-12.5-5.1-4.5-1.3-2.3-2.1-7.1-2.9-1.7-.3-8.1-4.4-10.9-3.1v2.3c.1 0 8.7 2.6 10.3 2.9 4.7.8 5.1 2.6 9.5 3.9 8 2.3 10.7 5 13.7 8.3 1.5 3.8 2.7 7.7 3.3 11.7 1.1 7.3.3 19-2.3 37-1 7.2-2.3 15.2-4.3 26.8-.1.8-1.1 6.6-1.9 11.1-1.4-6.7-3.8-13.2-7.1-19.1-5.8-10.2-14.5-19.2-25.9-28 .8-3.9 3-7.3 4.3-11.2 1.1-3.2 3.5-10.4 4.6-13 .4-.9.8-1.7 1.1-2.4.2-.4 3-3.6.4-.8l-2.3-.9c-.1.2-.2.4-.4.9-.4.7-.7 1.5-1.1 2.5-1.2 2.6-2.2 3.7-3.3 7-1.2 3.5-4.7 12.7-5.5 16.2-4.3-3.1-8.9-6.2-14-9.3-4.1-2.7-8.8-4.3-13.6-4.9-4.1-.4-8.2.3-12 1.9-1.3.5-2.5 1.2-3.6 2l2.4 2.2c.2-.2.4-.3.7-.4.7-.4 1.4-.8 2.2-1.1 6.2-2.6 13.6-2.4 22 2.7 5.7 3.5 10.7 7 15.4 10.5-1.5 8.3-4 17.5-2.7 25.4 1.3 8.1 8.7 16.1 13.5 22.6 15.7 21.1 17.4 26.4 18.2 32.9.1.5.4 3.6.4 4.3h.1c-3 19.7-5.5 31-7 47.5-1.9-2.4-6.5-5-12.4-12.8-5.5-7.3-7.4-6.4-7-8.5 0-.1-.1-4.5-.1-4.6.7-2.8 1.8-4.5.4-9.4-1.2-4-4.3-11.7-4.7-12.5-.6-1.2-3.8-7.5-4.4-8.8-2.2-4.3-7.8-14.9-8.4-16.1-.1-.1-2.7-2.4-2.7-2.4-1.9-5.2-1.6-10.6-2.3-16.9-.8-6.2-1-12.5-.9-18.8.3-5.9-.4-11.3.5-17.1.5-2.7 1-5.2 1.5-7.5.7-1.4 1.4-2.7 2.3-4l-2.4-.5c0 .1-1.4 3.6-1.6 4.4-.5 2.2-1.7 4.4-2.2 7.2-2 12.1-2.8 24.5-1.5 36.1.4 3.3 1 6.7 1.7 9.9-1-1.3-1.8-2.5-3-3.9-4.6-5.4-6.8-8.8-8-12.3-.6-1.9-1-3.8-1.3-5.8-.1-.5-.1-1-.3-2.2-.5-3 1.4-5.3 4.9-7 1.2-.5 2.4-1 3.6-1.3.4-.1.9-.2 1.2-.3l.4-.1-.4-2.1c-.4.1-1 .2-1.9.4-1.4.4-2.8.9-4.1 1.5-4.3 2-6.8 5-6.2 9.1.2 1.1.3 1.6.4 2.2.3 2.1.7 4.1 1.4 6.1 1.3 3.8 3.6 7.4 8.4 13 2.8 3.2 5.3 6.7 7.5 10.4.5 1.2.8 2.6 1.3 3.8 2.9 6.4 5.1 10.9 7.2 15-1.3-.7-2.4-1.2-3.3-1.7-4.5-2.3-9.5-5-14.8-7.8-3.4-1.8-8.1-2.6-14-2.6-2 0-4 .1-6.2.3-4.8.4-9.5 1.1-14.2 2.1-2.6.5-5.1 1.1-7.4 1.7-.8.2-2.8.7-2.9.8l.8 2 2.8-.7c2.2-.6 4.7-1.1 7.2-1.6 4.6-1 9.2-1.7 13.9-2.1 8.3-.7 14.7-.1 18.6 2 5.4 2.9 10.3 5.5 14.8 7.8l5.7 2.9.2-.3c.8 1.5 3.4 6.3 3.9 7.5.4.7.7 1.5 1 2.2.8 2 1.6 4.4 2.9 8.4 1.4 4.6 1.5 6.9.9 9.4 0 .1-.2 1-.3 1.2-.5 2.8.8 5.6 6.6 13.3 6.6 8.8 16 19.6 16.5 20.4.1.2.2.4.4.6-.2 2.4-.6 4.9-.8 7.2-2 27.8-1.8 52.7 1 74.9 4.3 34.1 7.4 54.3 9.3 63.1.4 1.8 1 3.6 1.7 5.3.1.1-1 8.5-1 8.6s.1 18.8-.3 29.5c-.8 23.5 3.8 72.3 3.8 72.3s-9.2 35.9-9.6 54c-.6 31.6 1.5 55.9 3 77.6 4.4 65.3 8.6 120.7 6.9 177.8-.1 4.2-.7 20.1-.7 21.4-.2 6.8-.2 16.2-.1 27.5.1 7 .2 14.5.4 22.2.1 4.3.5 17 .5 17l10.6 1.5c0-.1-.7-15.4-.8-19.7-.2-7.7-.8-20.8-.9-27.8-.1-11.3 2.3-15.8 2.5-22.6 0-1.3-.2-23.1-.2-23.1s.7-7.7 2.1-16.8-.8-8.5 3.6-19.5c.2-.5 9.3-25.1 9.3-25.2 4.5-10.7 7.4-24.1 8.7-39.7 1.4-17.7 1.2-35.4-.5-53.1-.3-3.4-.6-6.5-1-9.3-.1-1-.4-3.2-.4-3.4l-3.5 1.4c0 .1 1.1 1.2 1.2 2.2.3 2.7.6 5.8.9 9.2 1.5 17.5.2 41.5-1.2 58.5-1.2 15.5-2.3 23-6.7 33.5 0 .1-8.1 19.4-10.4 25-.2.6-.5 1.1-.7 1.6-3.8 9.4-1.6.9-3.2 5.5.9-44.8-2.1-103.1-2.1-103.1s-5.4-38-5.9-45.4c-1.5-21.6-2.3-46.2-2.6-73.3-.2-18.3 8.9-23.2 9.8-53.8s-6.8-45.5-6-68.6c.4-11.8 1.6-15.2 2-24.9 0-.7 1.8-13.4 1.9-14.2.1-.3.6-10.7 2.7-17 1.7-5.2 1.4-7.1 2.1-9.7.2-.6 2.5-11.4 2.7-12s1.4-12.8 3.2-20.8c3.7-16.3 3.1-11.6 2.8-15.4v-11.3c-.2-2.2 1.2-2.4 2.5-8.4.3-1.6 1.3-7 1.8-9.2s1.6-14.8 2-16.6c2.2-9.4 5-10.3 10-23.8.3-.7.6-1.1.9-1.8.5 0 .8-1.6.8-1.6 2.8-4.9 6.8-6.9 11.8-6.4 3.5.4 5.5 4.9 9.5 7.1 1.6.9 3.2 1.9 4.7 3 .5.4.9.7 1.3 1l.4.4c.1.1 2.2-1.9 1.2-2.6-1.5-1.1-5.2-4.9-7-5.9-4.5-2.6-5.1-6.4-9.5-6.9-6.2-.9-12.4 1.8-15.8 7.1-1.5-2.1-2.6-4.3-3.4-6.7-.4-1.2-.8-2.5-1.2-4-2.5-8.9-.5-18 1-23.6.2-.7.4-1.4.7-2.1.1-.3.2-.6.3-.7l-2.3-.8c-.5 1-.8 2.1-1.1 3.1-1.6 6-2.9 15.6-2.9 15.6s2.7 11.8 3.1 13c1.4 4.1 1.8 8.4 3.4 10.2-.5 1 0 .1-.4 1.2-5.2 13.6-7.9 22.5-10.2 32.1-.2 1-.4.8-.7 1.9l-8-7.1-3.7-1.4 6.9 8.3-1.2-.7c-4.4-2.7-8.6-5.8-12.4-9.2-1.2-1.1-2.4-2.2-3.5-3.4-.4-.4-.7-.7-1-1.1-5-5.9-10.1-15.9-8.6-21.6.1-.5.3-.9.5-1.4.1-.2.1-.4.2-.5l-2.3-.8c-.2.4 0-1.9-.3-.9-1.7 6.2 3 19.8 8.5 26.2.4.4.7.9 1.1 1.3 1.2 1.2 4.1 5.2 5.4 6.3 4 3.7 6.3 6 10.6 8.7 1.5.9 2.8 1.9 4 2.5.7.5 1.4 1.1 2.1 1.7-.5 2.5-1.3 7.7-1.6 9.3-1.3 6.4-1.5 8.6-1.3 11.2v.1c.3 3.4-.4 8-3.9 23.5-.5-4-1-8-1.9-12.3-.6-2.9-1.2-5.7-1.8-8.3-.2-.9-.8-3.1-.9-3.2l-2.4.5c0 .1.6 2.3.8 3.2.6 2.5 1.2 5.3 1.8 8.2 1 4.7 1.7 9.4 2.2 14.1.2 2 .3 3.8.4 5.6v.4c-1 4.4-2.1 9.2-2.8 12.8 0 .1-1.6 8-1.9 9.5-.2.6-.3 1.2-.4 1.8-.6 2.4-1.3 4.9-3 9.9-1 2.9-1.5 5.3-2.3 7.9-.2 0-.4-.1-.6-.1-1.9-9.3-4.7-28.4-8.9-60.8-2.8-21.9-3-46.5-1-74.1 1.8-25.4 5.3-51.2 10.8-85 .8-4.7 4.8-28.6 5.2-30.7 1.9-11.5 3.2-19.5 4.3-26.9 2.6-18.3 3.4-30.2 2.2-38-2.2-14.6.2-13.3-6.5-22.6-5.1-6.9-12.3-12.1-20.5-14.8-2.9-.8-5.7-1.4-8.5-1.9z" style="fill:#fff"/><path d="M464.5 532.2c-.1 3-.2 3.4-.2 7.2-.3 16.2-.4 22.6-.8 31.4-1.1 26.7-3.6 46.4-8.5 61.7-.4-3.3-.9-11.8-1.3-14.9-2.5-22.6-3.4-28.6-3-37 .3-5.8-1.4-8 1.2-14.9.7-2 5.5-15.8 5.5-15.8s2.7-6.6 2.9-7c1.6-3.9 3-7.4 4.2-10.7zm-42.4-161c-.3 4.7-.2 9.3.1 14 .2 3.9.8 13.6 1.3 16.7 1.4 9.5 5.7 23.4 8.7 29.1 4.1 7.8 21.4 28.1 23.4 31 .2.3 2.3 3.4 3.5 5.8.4.8 1.2 6.2 1.7 7.1 1.4 2.5 7.2 9.6 8.1 10.7-.5 1.1-.8 2.3-1.1 3.5-2.3-4.9-3.6-7.1-8.7-8.8-2-.6-5.4 0-7.4-.2s-8.5 1.1-8.5 1.1l-2.5 3.7c.2 0 13.8-2.1 16.9-1.2 6.9 2.2 8.2 7.7 7.9 19.4v.1c-.1.8-.1 2.4-.1 3.1-.9 11.5-3.6 21-9.5 35.2-.1.4-2.3 5.5-2.9 7-1.1 2.7-1.9 4.8-2.7 6.9-2.4 6.2-3.9 12.8-4.4 19.4-.5 8.6.8 25.4 3.3 48.2.5 4.8 1.1 9.9 1.8 15.1 1.1 9.2 2.3 18.5 3.6 27.4.4 3.1 1.6 11.3 1.6 11.5 0 .4-.1 2-.1 2.7-.5 28.2 1 56.5 4.5 84.5 3 22.2 7.3 41.2 13.3 55.8 5.2 12.8 7.5 26.2 7.5 41.1 0 11.3-.9 21.1-3.6 39.4-.2 1.7.1.1-.1 1.6-3.9-5-5.6-11.2-6.9-20-1.1-8.2-2.3-15.8-1.6-24.1.1-1.2.2-2.3.3-3.3 0-.4.1-.8.2-1.2v-.2c-1.1-18.6 1.1-15.5-3.3-28.1-.5-1.5-5.6-23.1-7.5-28.5-2.5-7.4-6.5-14.6-14.5-25.7-.4-.6-5.2-7.1-5.4-7.4-11.5-16-15.4-25-13.7-37.3 1.4-10.2 1.8-10.7 5.8-18.4 2.6-5 8.2-10.3 11.3-12.4 1.1-.7 7.5-5.6 7.5-5.6s2.3-1.5 2.5-1.6l-.6-1.2c-.2.1-2.5 1.5-3.1 1.8-1 .5-2.2 1.1-3.3 1.8-3.4 2.3-6.6 5-9.5 8-7.3 7.4-12 17-13.4 27.2-.9 7.1.2 14.3 3.2 20.8 2.3 5.4 5.3 10 10.9 17.9l1.6 2.2c7.9 10.9 11.2 16.4 13.6 23.5 1.8 5.4 7.1 19.8 7.6 21.2 4.3 12.4 6.4 23.1 7.4 41.4 0 .1-.1.8-.2 1.2-.1 1-.2 2.1-.3 3.4-.8 8.6-.6 17.2.4 25.8 1.5 10.5 4.6 18.8 9.9 24.2-1.4 9.8-2.1 15.8-2.4 21.8-.6 10.3 0 19 2.2 26.8l13.9.1c-2-7.4-5.2-16.8-4.7-26.8.4-7.5 2.4-17.5 1.2-23.5-3.4-18.4-1-33.7-1-45.2-.1-15.3 4.6-24.2-.8-37.4-5.8-14.3-12.3-38.4-15.2-60.3-3.8-29-9.7-58.7-9.3-83.6 0-.8.1-2.9.1-3v-.3c0-.1-1.2-8.4-1.6-11.5-1.2-8.8-.1-10.1-1.2-19.3 0-.3 8.1-45.5 9.3-74.8.2-5.4 2-12.8 2.1-19.2l.3.1c.1-.1.1-.3.2-.4.1-.2.5-.7.8-1.1.9-1.2 2.1-2.5 3.5-3.9 4.5-4.6 9.6-8.6 15-12 0 0 5.2-3.2 7.5-4.5 1-.5 7.4-6.4 8.1-6.8 3.8-2.6 7.4-5.6 10.6-8.9 9.7-9.6 12.6-11.3 18.4-18 9.7-11.2 17.2-22 22.2-32.8l-2.4-1.1c-5.7 11.9-13 23.1-21.7 33-5.7 6.6-11.5 9.8-21.1 19.3-4.8 4.8-15.6 11.7-16.6 12.3-2.4 1.3-4.8 2.8-7.7 4.6-5.7 3.6-11 7.8-15.7 12.6-.5.6-.9 1-1.4 1.6 0-2.6.1-3.1.2-6.4.3-18.8.6-27.2 1.2-35.8 1.1-14.5.5-17.8 5.5-29.3 3-6.9 8-12.7 14.4-16.7l-1.2-3.2c-1.5.8-2.8 1.8-4.1 2.9-3.2 2.8-6.1 6-8.5 9.5-2.7 4.1-4.8 8.4-6.5 13-.9-1-1.8-1.9-2.8-2.7-1.6-1.4-2.9-3.1-3.8-5-.5-.9-2.3-4.4-2.7-5.2-1.2-2.4-2.6-4.7-4.1-7l-.6-.9c-2-2.9-11-14.4-10.9-14.2-5-6.5-9.5-13.4-13.3-20.6-2.9-5.5-5.1-13.2-6.5-22.5-.6-4.1-1.6-14.4-2.1-19.4-.7-8.3-.6-11-.6-11.1l-.7.5z" class="st8"/><path d="M576.3 550.4c-4.3 5.5-8.8 10.3-13.1 13.4s-2.4 0-5.2.9c-.6.2-1.5 2.2-2 2.3 2.6-3.7.7-4.3 4-7.1 4.9-4.3 8.3-6.4 13.5-8.3.3-.2 2.8-1.2 2.8-1.2zm10.4-15.7s-3.6 6.5-6.9 11.2c-.2 0-.3 0-.5.1-1.9.4-3.7 1-5.5 1.7-6.1 2.3-11.7 5.6-16.6 9.9-10.2 8.9-23.2 41.7-23.8 42.7-2.2 3.9-3.2 8.7-2.5 14.6.8 6.5 3.2 29.4 9.4 51.3 7.7 27.5 18.9 51.6 27 71.5 12.6 31 15.6 39.8 16.8 48.4.3 2 .4 3.9.7 7.1 0-.4.2 4.2.3 5.7s.2 2.6.4 4.6c.4 4.1.5 8.3.2 12.4-2 11.2-12 23.6-39.2 47.4-.6.4-1.2.9-1.8 1.4-1.6 1.4-3 3-4.3 4.8-3.7 5.3-5.9 12.2-6.1 20.7-.2 10.8 2.4 25.8 9.7 40.7l7.2 26.2s7.6-.8 6.8-8.2-9.8-21.5-9.8-21.5c-7.1-14.5-10.2-26.9-10.1-37.2.1-8 2.2-14.3 5.5-19.1 1.2-1.7 32.2-26.5 32.2-26.5s11.6-13.7 11.6-14c1.5-3.8 2.4-15.9 2.4-19.5 0 0 1.8-6.9 1.8-7.3 1.1-5.5.5-6 2.6-13 3-10.1 5.9-13.5 12.8-17.2 7.9-4.2 10.7-6.2 15.4-12.4.7-.9 1.3-1.8 1.9-2.7 6.6-10.1 6.5-18.9 5.2-28-.1-.6-.6-2.6-.7-2.7l-2 .5c.5.7 1 1.4 1.4 2.1.4 3 .7 6 .7 9-.8-2.1-1.7-4.1-2.8-6-.9-1.2-1.8-2.4-2.8-3.5-.3-.3-.9-.8-1.1-1.1s-.8.9-.6 1.2c.8.9 1.5 1.9 2.2 2.9 1.6 2.1 2.6 4.5 3.1 7.1 0 0-1.3 11.5-5.1 17.3-.6.9-1.1 1.7-1.8 2.6-4.4 5.8-6.9 7.6-14.5 11.6s-11 8-14.1 18.7c-1 3.5-1.8 6.5-2.5 9.6 0-.3-.1-.7-.1-1-.1-1.4-.4-6-.3-5.6-.2-3.2-.4-5.2-.7-7.3-1.2-9-4.2-17.8-17-49.1-8-19.8-16.5-45.8-24.2-73.2-6.1-21.8-9.8-38.3-10.6-44.7-.7-5.2 14.1-42.9 14.1-42.9s8-5.9 14.5-10.7c5-3.7 10.3-9.3 15.3-16 .1 0 .2-.1.4-.1.5-.1 1-.2 1.3-.3h.4l-.3-2c3.4-4.7 9.1-10.1 9.8-12.1l-4.8-.1z" class="st8"/><path d="M419.2 489.8c-2.4.8-4.9 1.5-7.4 2.1-4.5.9-9 1.4-13.5 2.2-3.9.7-7.7 1.5-11.5 2.5-2.9.7-5.8 1.6-8.6 2.6-2.6 1-5.1 2.2-7.9 3-2.4.7-5 1.2-7.4 1.7-4.4 1-8.9 1.9-13.3 2.9-11.2 2.5-22.4 5.1-33.8 6.2-.1 0-.1 0-.1.1s.1.1.1.1c10.6-1.8 21.4-2.3 32.1-3.5 6.1-.7 12.2-1.7 18.2-3.1 2.5-.5 5-1.2 7.5-2 2.7-1 5.2-2.4 7.9-3.5 4.1-1.7 8.4-3.4 12.7-4.8 5.8-2 11.8-3 17.7-4.5 2.4-.5 4.8-1.3 7.3-2zM315.8 464.2s-.1 0-.1.1c0 0 0 .1.1.1 3.9.6 7.8 1.3 11.8 1.8 8.3 1.1 16.6 2 24.8 3.3 4 .6 8 1.6 12.1 2.2 5.6.7 11.3 1 17 1.4 2.8.2 5.5.3 8.2.6 3.2.4 6.4.9 9.6 1.5 1.5.3 3.1.5 4.6.9 2.3.6 4.3 1.7 6.7 2 3 .4 6.1-.3 9-.7-2.9.4-6 1-9 .4-2.6-.5-4.6-1.9-7.1-2.7-4.4-1.4-8.8-2.9-13.4-3.9-2.8-.6-5.6-.9-8.4-1.3-5.6-.6-11.2-1-16.8-1.6-4.5-.5-8.9-1.5-13.4-1.7-5-.2-10-.2-15-.3-7 0-13.9-.7-20.7-2.1zM329.2 424c5 1.5 9.9 3.4 14.6 5.6 3.5 1.5 7.1 3 10.8 4.4 6.4 2.5 12.9 4.7 19.4 7.1 8.6 3.1 17 6.7 25.2 10.8 5.8 2.9 10.7 6.7 15.9 10.2 2.6 1.8 5.3 3.3 8.1 4.8-2.8-1.5-5.4-3.1-8-4.9-4.1-3-7.9-6.4-12-9.5-2.8-2.1-5.8-4-8.8-5.8-9.8-5.7-20.8-9.8-31.9-13.1-5.2-1.6-10.6-2.8-15.9-4.3-5-1.4-9.8-3.3-14.7-4.7l-2.7-.6zm-2.2-.5c.7.1 1.5.3 2.2.5-.7-.2-1.4-.3-2.2-.5zm-4-.9c-.1 0-.1 0-.1.1 0 0 0 .1.1.1 1.3.2 2.7.4 4 .7-1.3-.2-2.6-.6-4-.9zM340.5 394.9c-.1 0-.1 0-.2.1 0 0 0 .1.1.1 9.4 3.6 16.7 9.9 24.8 15.1 6.6 4.3 13.9 7.9 20 12.8 4.3 3.5 8.4 7.2 12.4 11 3.5 3.3 7.1 6.7 10.5 10.1 4.4 4.4 8.7 8.9 13.1 13.2-3.9-3.8-7.6-7.9-11.1-12.1s-6.7-8.6-10.2-12.8c-3.6-4.3-7.6-8.2-11.9-11.8-6.9-5.6-15.4-9.2-23.5-13.2-5.1-2.6-10-5.4-15-8.1-3.1-1.6-6.1-2.9-9-4.4zM708.1 514.9c-2.4.1-4.8.2-7.2.5-4.7.5-9.5 1.2-14.3 1.2-5.5-.1-10.9-1.7-16.5-1.2-3 .3-5.8 1.4-8.7 2.1-1.3.3-2.7.6-4 .8-4.3.6-8.7.5-12.9 1.4-.9.2-1.8.4-2.6.7-1.4.5-2.7 1.2-4.1 1.7-1.7.6-3.6 1-5.4 1.5-5 1.3-10.2 2.1-15.3 3.1-3.4.7-6.8 1.5-10.2 2.3l-.1.1.1.1c9.9-3.4 20.9-2.8 31.2-4.5 1.4-.3 2.8-.7 4.1-1.2 1-.3 2-.5 3-.7 5.3-.8 10.7-.5 15.9-1.7 3.2-.8 6.2-2.3 9.5-2.8 5.3-.8 10.7 0 16-.5 4.8-.5 9.5-1.5 14.2-2.1 2.4-.5 4.8-.7 7.3-.8zM631.9 538.5c-2.7-.1-5.3-.1-8 0-5.4.2-10.8.6-16.2.6l-.1.1s0 .1.1.1c4.2-.3 8.4-.3 12.6-.2 3.8 0 7.6.4 11.3 1.1 5 1.2 9.9 2.9 14.5 5.1 6.4 2.8 12.7 5.9 19.3 8.5 7 2.7 14.2 4.9 21.4 7.2 5.4 1.7 10.7 3.5 16.1 5.3-5.9-2-11.8-4.1-17.5-6.6-7.9-3.5-15.6-7.3-23.4-10.9-7.3-3.4-14.7-7.2-22.8-9.1-2.4-.7-4.9-1.1-7.3-1.2zM611 550c-.1 0-.1 0-.2.1 0 0 0 .1.1.1 5.3 1.4 10.2 3.8 14.5 7.2 3.5 2.6 6.7 5.5 10.4 8.1 2.4 1.7 4.8 3.1 7.4 4.3 6.6 2.9 13.5 5 20.6 6.2 4.5.8 9 1.5 13.5 2.3 6.4 1.2 12.6 3.2 19 4.4-4.5-.9-8.9-2.1-13.2-3.6-3.6-1.2-7.3-2.3-11-3.4-9.7-2.9-19.7-5.3-28.7-9.4-7.7-3.5-14.5-8.2-22-12-3.3-1.8-6.8-3.2-10.4-4.3z" class="st9"/><path d="M624.5 328.4h-.2v.1c5 2.2 6.9 6.9 9.3 10.9 2 3.5 4.3 6.8 6.8 10 1.7 2.2 3.5 4.2 5.4 6.2 1 1 2 2 3.1 2.9 2.3 1.7 5.2 3 7.6 4.6 1.4 1 2.7 2.2 3.9 3.5-1.1-1.3-2.4-2.5-3.7-3.7-2.2-1.8-4.6-3.4-6.3-5.6-.8-1-1.5-2.1-2.1-3.2-1.4-2.2-3-4.4-4.5-6.6-2-2.8-4.2-5.4-6.5-7.9-1.2-1.3-2.5-2.5-3.8-3.7-1.7-1.7-3.3-3.5-5.2-5.1-1.3-.8-2.5-1.6-3.8-2.4z" style="opacity:.92;fill:#fff;enable-background:new"/><path d="M415.9 153.6c-2.1.2-4.2.4-6.3.8-4.1.8-8.1 2-12.2 3.1-7.8 2-15.8 3.9-22.6 7.8-4.1 2.4-7.4 5.6-11.1 8.4-5.4 4.1-11.6 7.5-17.2 11.5-5.2 3.8-10 7.9-15.4 11.4-5.4 3.7-11.3 6.6-17.5 8.7 6.8-2.3 13.3-5.3 19.4-8.9 4.8-2.7 9.4-5.4 14-8.3 5.9-3.6 12.2-6.9 17.8-10.8 4.2-3 7.7-6.7 12-9.6 6.6-4.4 14.5-7.4 22.3-10.1 5.4-1.9 10.8-3.7 16.7-3.9 0 0 .1 0 .1-.1zM404.5 143.3c1.3.1 2.5.4 3.8.7 0 0 .1 0 .1-.1 0 0 0-.1-.1-.1-1.3-.2-2.5-.3-3.8-.5zm-41.9-1.9c-2.6 0-5.2.1-7.9.4-3.9.4-7.9 1.1-11.7 2.2-5 1.3-9.9 2.9-15.2 3.4-8 .9-16.2-.8-24.1-1.8 4.7.7 9.4 1.5 14 2.2 3.4.5 6.7.9 10.1.9 8.2.1 16.1-2.2 24.1-3.2 8.6-1.1 17.3-.8 25.9-1.2 4.5-.2 8.9-.5 13.3-.9 4.2-.4 8.4-.5 12.5-.2-.8-.1-1.5-.3-2.3-.3-5.1-.4-10.3-.1-15.4-.4-7.7-.4-15.5-1.1-23.3-1.1zM596.4 160c-4.4 1.8-8.8 3.5-13.3 5.1-3.5 1.2-7 2.2-10.7 2.9-5.5 1-11.2.3-16.8.8-3.9.3-7.6 1.2-11.5 1.3-4.6.1-9.2-.5-13.8-.6s-9 .6-13.5.5c-3.2-.1-6.3-.7-9.5-.8-3.8-.1-7.2 1.1-11 1.2-4.3.2-8.7-.4-13-.2-3.8.3-7.6.8-11.4 1.5-3 .4-6 .8-9 1 2-.1 4-.3 6-.5 3.9-.5 7.9-1.2 11.9-1.4 5.3-.3 10.3.9 15.5 1.1 3 .1 5.9-.6 8.9-.4 3.8.2 7.5 1.3 11.4 1.5 4.5.3 9.1-.3 13.6-.2 5.4.1 10.8.9 16.1.3 4.3-.5 8.4-1.6 12.7-2.2 4.6-.6 9.2-.7 13.7-2 8.2-2.3 15.7-6.1 23.7-8.9.1-.1.1 0 0 0zM506.2 180.2c-2.3.1-4.7.2-7 .5-3.9.5-7.7 1.4-11.6 2-.1 0-.1 0-.1.1l.1.1c5.4-1.1 10.7-2.2 16.3-2.1 8.3.1 16.5 1.7 24.5 3.6 6.6 1.5 13.1 3.1 19.8 4.5 2.7.6 5.5 1.2 8.2 1.6 2 .3 4 .3 6 .6 1.2.2 2.4.4 3.6.7 8.6 1.7 17.2 4.1 26.1 4.7 6.7.5 13.5-.2 20.2-.5-4.7.2-9.5.4-14.2.3-2.2 0-4.5-.2-6.7-.5-3-.6-6.1-1.2-9-2.1-6-1.7-11.7-3.9-17.8-5.3-2.5-.6-5.1-.8-7.6-1.2-1.9-.3-3.8-.8-5.7-1.2-7.4-1.6-14.7-3.3-22.2-4.4-7.6-1.1-15.3-1.6-22.9-1.4zM489.3 157.1c-.9.1-1.7.5-2.2 1.2v.1c.1 0 .1 0 .2-.1.4-.7 1.2-1.2 2-1.2zm70.2-37.5c-5 3.3-10.1 6.8-15.8 9.2-4.7 1.9-9.8 3.2-14.2 5.6-8.7 4.5-16 10.6-24.2 15.8-4.1 2.5-8.3 4.6-12.8 6.3-1 .3-2 .5-3.1.7.9-.2 1.9-.2 2.6-.4s1.6-.5 2.3-.8c5.4-1.9 10.8-3.7 15.8-6 7.7-3.6 14.2-8.6 21.3-12.9 4.2-2.5 8.8-4.6 12.9-7.1 5.3-3.3 10.1-7 15.2-10.4zM492 661.5c-2.1 2.1-4.6 4.8-7.6 6-1.5.6-2.9 1-4.5 1.3-4.3 1-9 1.9-12.6 4.3-4.7 3.1-5.8 8.3-8.9 12.4v.1h.2c2.5-4.6 6.5-8.2 11.4-10.2 4.1-1.8 8.8-2.6 12.6-4.8 2.3-1.5 4.3-3.3 6-5.4 1.2-1.3 2.3-2.5 3.4-3.7z" class="st9"/><path d="M422.3 325.5c-.1 0-.1 0-.1.1-.3 1.1-1.1 2.2-1.3 3.4-.2 1.5.4 3.5.8 5 .7 2.5 1.2 5.1 1.5 7.7.4 3.3.1 6.6.5 9.9.2 2 .6 4 1 6.1.1.7.1 1.3.3 2 .3 1.4.8 2.7 1.2 4-.4-1.3-.7-2.6-.9-4-.1-1.3 0-2.7.3-4 .3-1.6.9-3.3 1.2-4.9.8-3.1.9-6.3.3-9.5-.6-2.5-1.8-4.9-3.4-7-1-1.5-2.6-3.5-2.5-5.2.2-1.2.6-2.3 1.2-3.3.1-.2 0-.2-.1-.3.1 0 .1 0 0 0z" class="st6"/></svg>