<svg xmlns="http://www.w3.org/2000/svg" xml:space="preserve" style="enable-background:new 0 0 1000 1000" viewBox="0 0 1000 1000"><style>.st1{fill:none;stroke:#fff;stroke-miterlimit:10}</style><g id="Layer_1"><path d="M511 451.9s-14.8-28.2-16.9-13.5c0 0 3.5 8.7 6.5 12.2 0 0-2.6 2.6-2.6 6.5 0 0-15.6-12.2-17.4-8.3-1.7 3.9 7.4 12.6 7.4 12.6s-9.1-5.2-9.1-2.6 1.7 6.1 3.5 7.8c0 0-21.7-3.9-20.9-.4S489.3 481 498 481c0 0-8.7 9.1-21.7 11.7s1.7 7 1.7 7 8.7-3.9 0 8.3c-8.7 12.2 6.1 6.1 22.6-9.1 0 0-11.3 17.4-7 15.2 4.3-2.2 6.5-3.5 10.4-6.1 3.9-2.6-1.7 21.3 2.6 21.7 4.3.4 8.3-10.9 9.1-16.1 0 0 9.1 20.9 9.6 16.9s.4-11.7-2.2-17.8c0 0 13 16.5 11.7 11.3s-4.3-11.7-5.2-13c0 0-1.6-3.6 1.5-1.7s6.7 2 5.7-1.6-6-9.4-2.3-8.6c3.7.8 6.5-2.3 2.3-5.4-4.2-3.1-4.6-3.7 1.6-3.6 6.2.2 38 2.3 19.1-6.7 0 0-11.1-2.8-6.8-5.5 0 0 3.4-5.9-8.8-3.3s-7.7-2.8-1-3.6c6.7-.8 30.8-4.9 12.2-9 0 0-11.7-2.3-19.1.8 0 0-6 .5 2.9-3.3 9-3.7 14.5-16.3-6.7-10.9 0 0-10.1 13.8-10.9 5.2-.7-8.5-3-8-8.3-1.9z" style="fill:#fff"/><path d="M519.4 453.9s44.1-91.1 25.9-167.9" class="st1"/><path d="M483.4 298c40.7-7.7 81.4-15.4 122.2-23.1" class="st1"/><path d="M482.4 289.6s77.5 5.5 129.3-25.4" class="st1"/><path d="M470 274.2s33.9 17.6 75.3 12.4c0 0 45-16.6 59.9-46.6" class="st1"/><path d="M477.2 263.8s23.8 24.4 68.1 22.8c0 0 37.8-21.2 58-60.3" class="st1"/><path d="M473.3 243s29.6 47.2 72 43.7c0 0 33.6-13.4 42-59" class="st1"/><path d="M490.9 251.8s22.8 42.4 54.4 34.9c0 0 32.6-9.8 22.2-55.4" class="st1"/><path d="M503.9 220.5s-.3 69.4 41.4 66.1c0 0 27-10.1 3.9-49.5" class="st1"/><path d="M508.8 232.5s.3 57.7 36.5 54.1c0 0 26.1-16 19.5-46.6" class="st1"/><path d="M518.3 239.7s8.1 45.3 27 46.9c0 0 12.1-16.9-3.6-59.9" class="st1"/><path d="M520.9 228.3s14.7 54.7 24.4 58.3c0 0-9.1-49.2-16.3-68.4M453.5 366.8c28.5-16.6 57.1-33.1 85.6-49.7" class="st1"/><path d="M450.5 360.7s59.7-16.4 90.4-53.3" class="st1"/><path d="M437.1 352.5s30.1 4.2 59.8-10.6c0 0 29.3-24.4 32.7-50.8" class="st1"/><path d="M439.7 342.8s24.3 12 57.1-.9c0 0 22.8-25.9 27.6-60.6" class="st1"/><path d="M431.3 328.2s34.8 27.6 65.6 13.7c0 0 21.7-18.9 15.9-55.4" class="st1"/><path d="M446.8 330.1s28.3 25.8 50.1 11.8c0 0 21.9-16 2-47.4" class="st1"/><path d="M448.3 303.2s18.1 52.2 48.6 38.7c0 0 17.6-14.7-10.2-38.2" class="st1"/><path d="M455.2 310.9s15.5 43.2 41.7 30.9c0 0 15.3-18.9 2.3-40.1" class="st1"/><path d="M464.2 313.8s18.1 31.8 32.7 28.1c0 0 4.6-15.9-18.6-44" class="st1"/><path d="M463.1 304.6s25.5 37.2 33.8 37.3c0 0-19.9-34.5-30.3-47M579.9 375.3c-28.5-16.6-57.1-33.1-85.6-49.7" class="st1"/><path d="M582.9 369.2s-59.7-16.4-90.4-53.3" class="st1"/><path d="M596.2 361s-30.1 4.2-59.8-10.6c0 0-29.3-24.4-32.7-50.8" class="st1"/><path d="M593.6 351.3s-24.3 12-57.1-.9c0 0-22.8-25.9-27.6-60.6" class="st1"/><path d="M602.1 336.6s-34.8 27.6-65.6 13.7c0 0-21.7-18.9-15.9-55.4" class="st1"/><path d="M586.5 338.6s-28.3 25.8-50.1 11.8c0 0-21.9-16-2-47.4" class="st1"/><path d="M585 311.7s-18.1 52.2-48.6 38.7c0 0-17.6-14.7 10.2-38.2" class="st1"/><path d="M578.2 319.4s-15.5 43.2-41.7 30.9c0 0-15.3-18.9-2.3-40.1" class="st1"/><path d="M569.2 322.3s-18.1 31.8-32.7 28.1c0 0-4.6-15.9 18.6-44" class="st1"/><path d="M570.3 313s-25.5 37.2-33.8 37.3c0 0 19.9-34.5 30.3-47M712.1 369c-21.6-12.5-43.2-25.1-64.8-37.6" class="st1"/><path d="M714.4 364.4S669.2 352 646 324" class="st1"/><path d="M724.5 358.2s-22.8 3.2-45.3-8c0 0-22.2-18.5-24.7-38.5" class="st1"/><path d="M722.5 350.8s-18.4 9.1-43.3-.7c0 0-17.2-19.6-20.9-45.9" class="st1"/><path d="M728.9 339.7s-26.3 20.9-49.7 10.4c0 0-16.4-14.3-12.1-41.9" class="st1"/><path d="M717.2 341.2s-21.5 19.5-37.9 8.9c0 0-16.6-12.1-1.5-35.9" class="st1"/><path d="M716 320.8s-13.7 39.5-36.8 29.3c0 0-13.3-11.2 7.7-28.9" class="st1"/><path d="M710.8 326.7s-11.7 32.7-31.6 23.4c0 0-11.6-14.3-1.8-30.4" class="st1"/><path d="M704 328.9s-13.7 24.1-24.8 21.2c0 0-3.5-12 14.1-33.4" class="st1"/><path d="M704.8 321.9s-19.3 28.2-25.6 28.2c0 0 15-26.1 23-35.6M680.3 419.3l-99.6-57.9M683.8 412.2s-69.5-19.1-105.2-62.1" class="st1"/><path d="M699.3 402.6s-35 4.9-69.6-12.4c0 0-34.2-28.4-38-59.2" class="st1"/><path d="M696.3 391.3s-28.3 14-66.5-1.1c0 0-26.5-30.1-32.1-70.5" class="st1"/><path d="M706.1 374.3s-40.5 32.1-76.4 16c0 0-25.2-22-18.5-64.5" class="st1"/><path d="M688 376.6s-33 30-58.3 13.7c0 0-25.5-18.6-2.3-55.2" class="st1"/><path d="M686.3 345.2s-21.1 60.7-56.5 45c0 0-20.5-17.2 11.8-44.5" class="st1"/><path d="M678.3 354.3s-18.1 50.3-48.5 36c0 0-17.9-22-2.7-46.7" class="st1"/><path d="M667.8 357.6s-21.1 37.1-38.1 32.7c0 0-5.3-18.5 21.6-51.3" class="st1"/><path d="M669.1 346.8s-29.7 43.3-39.3 43.4c0 0 23.1-40.2 35.3-54.8M720.9 430.3c-21.2-13.2-42.5-26.3-63.7-39.5" class="st1"/><path d="M723.3 425.7s-44.8-13.7-67.2-42.3" class="st1"/><path d="M733.6 419.8s-22.9 2.5-45-9.4c0 0-21.7-19.1-23.6-39.2" class="st1"/><path d="M731.8 412.4s-18.7 8.6-43.2-1.9c0 0-16.7-20.1-19.5-46.5" class="st1"/><path d="M738.5 401.5s-26.9 20.1-50 8.9c0 0-16-14.8-10.8-42.3" class="st1"/><path d="M726.7 402.7s-22 18.9-38.2 7.8c0 0-16.2-12.6-.4-35.9" class="st1"/><path d="M726.2 382.2s-14.9 39.1-37.6 28.2c0 0-13-11.5 8.5-28.7" class="st1"/><path d="M720.8 388s-12.7 32.4-32.2 22.5c0 0-11.2-14.6-.9-30.4" class="st1"/><path d="M714 389.9s-14.4 23.7-25.4 20.5c0 0-3.1-12.1 15-32.9" class="st1"/><path d="M715 383s-20.1 27.6-26.4 27.5c0 0 15.8-25.7 24-34.9M753.1 540.3c-15.6-30.3-31.2-60.6-46.9-90.9" class="st1"/><path d="M759.1 536.7s-42.8-47.4-49-96.7" class="st1"/><path d="M775.3 536.9s-28.6-13-46.1-42.5c0 0-12-37.5-.2-62.4" class="st1"/><path d="M778.4 527s-27.9-3-49.2-32.6c0 0-5.4-35.2 9.7-68.1" class="st1"/><path d="M793.9 519s-45.6 4.7-64.7-24.6c0 0-8.3-28.5 16.9-57.1" class="st1"/><path d="M779.3 512.1s-39 6.7-50.1-17.6c0 0-10.2-26.1 24.7-42.4" class="st1"/><path d="M793 487.8s-44.8 35.3-63.8 6.7c0 0-7.1-22.6 30.1-27.6" class="st1"/><path d="M782.7 490.7s-37.5 29-53.5 3.7c0 0-2.9-25 20.3-36.3" class="st1"/><path d="M773.2 488.2s-33.5 17.6-44.1 6.2c0 0 4.9-16.4 40.7-28" class="st1"/><path d="M779.3 480.8s-42.9 18.2-50.2 13.7c0 0 36.5-19 52.6-24.1M705 600.8c10.3-32.5 20.7-64.9 31-97.4" class="st1"/><path d="M711.8 602.4s3.2-63.8 33.6-103" class="st1"/><path d="M723.1 614s-11-29.4-2.6-62.7c0 0 18-35 44-44.3" class="st1"/><path d="M732.3 609.2s-17.6-21.8-11.8-57.9c0 0 21-28.7 55-41.3" class="st1"/><path d="M749 614.5s-35.6-28.9-28.5-63.1c0 0 14.2-26.1 52.3-28.4" class="st1"/><path d="M743.5 599.2s-32.3-22.8-23-47.9c0 0 11.2-25.6 47.4-12.6" class="st1"/><path d="M770.4 591.7s-56.7-6.6-49.9-40.4c0 0 10.9-21.1 40.8 1.7" class="st1"/><path d="M761 586.5s-47-6-40.5-35.2c0 0 15.6-19.7 40-11.3" class="st1"/><path d="M756.1 578.1s-36.2-11.2-35.6-26.7c0 0 15-8.2 48.6 8.9" class="st1"/><path d="M765.7 577.1s-43.2-17.4-45.2-25.8c0 0 39.2 12.3 54.2 20.1M568.1 463.9c-32.6-5-65.2-10.1-97.8-15.1" class="st1"/><path d="M568.6 457.1s-61.5 6.5-103.6-16.7" class="st1"/><path d="M578.1 444.6s-26.5 14.9-59.5 11.9c0 0-36.2-12-49-35.4" class="st1"/><path d="M572.1 436.5s-18.3 20.1-53.5 20c0 0-30.6-15.8-47.8-46.4" class="st1"/><path d="M574.6 419.8s-22.3 38.4-56.1 36.7c0 0-27.1-9.7-35-45.8" class="st1"/><path d="M560.9 427.3s-17 34.3-42.3 29.2c0 0-26.2-6.9-19.1-43.5" class="st1"/><path d="M549.7 402.8s2.1 55.2-31.1 53.7c0 0-21.8-7.3-4.5-39.3" class="st1"/><path d="M546.1 412.5s1.3 45.9-27.6 44c0 0-21.2-12-16.8-36.5" class="st1"/><path d="M538.8 418.5s-5.2 36.2-20.2 38.1c0 0-10-13.1 1.2-47.8" class="st1"/><path d="M536.4 409.5s-10.2 43.9-17.9 47.1c0 0 5.9-39.4 11.1-54.9M516 430.2c-23.4 23.3-46.7 46.6-70.1 69.8" class="st1"/><path d="M510.9 425.7s-31.2 53.4-74.8 73.5" class="st1"/><path d="M506.4 410.7s-3.7 30.2-25.7 55c0 0-31.1 22.1-57.5 18.4" class="st1"/><path d="M496.3 410.7s5.4 26.6-15.6 55c0 0-30.9 15.3-65.7 11" class="st1"/><path d="M484.4 398.8s17.7 40.7-3.7 66.9c0 0-23.9 16-57.6 1.1" class="st1"/><path d="M482.2 414.3s17.6 34-1.6 51.4c0 0-21.1 17-46.3-10.4" class="st1"/><path d="M455.8 408.8s45.7 31 24.8 56.9c0 0-18.8 13.2-34.3-19.7" class="st1"/><path d="M461.6 417.4s37.7 26.1 19.1 48.3c0 0-22.2 9.9-39.4-8.1" class="st1"/><path d="M462 426.9s26.1 25.7 18.7 38.9c0 0-16.5.3-37.8-29.3" class="st1"/><path d="M453.4 423.4s29.4 34.2 27.3 42.3c0 0-28.2-28.1-37.6-41.5M493.7 452.1c17.3 28.1 34.7 56.1 52 84.2" class="st1"/><path d="M488.2 456.1s44.9 42.6 54.5 89.7" class="st1"/><path d="M472.5 457s28.5 10.5 47.7 37.6c0 0 14.4 35.3 4.8 60.2" class="st1"/><path d="M470.2 466.9s27.1.9 49.9 27.8c0 0 7.8 33.6-4.3 66.4" class="st1"/><path d="M455.9 475.8s43.7-7.9 64.3 18.9c0 0 10.2 26.9-12.1 56.4" class="st1"/><path d="M470.5 481.4s37.1-9.3 49.7 13.3c0 0 11.7 24.4-20.7 42.7" class="st1"/><path d="M459.1 505.8s40.6-37.4 61.1-11.2c0 0 8.6 21.3-27 28.9" class="st1"/><path d="M468.8 502.2s34.1-30.8 51.4-7.6c0 0 4.6 23.9-16.9 36.5" class="st1"/><path d="M478.1 503.9s31-19.5 42.1-9.3c0 0-3.5 16.2-37.2 30.1" class="st1"/><path d="M472.8 511.6s40-20.8 47.4-16.9c0 0-33.8 21-49 27.1M502.8 509.5c26.7-19.3 53.5-38.6 80.2-57.9" class="st1"/><path d="M507.1 514.7s39.2-47.8 85.5-60.8" class="st1"/><path d="M509.2 530.2s8.4-29.2 34-50.3c0 0 34.2-16.9 59.7-9.1" class="st1"/><path d="M519.1 531.8s-1.1-27.1 24.1-51.8c0 0 32.9-10.3 66.6-.5" class="st1"/><path d="M529 545.4s-11.1-43 14.2-65.5c0 0 26.1-12.1 57.1 8" class="st1"/><path d="M533.6 530.5s-12-36.4 9.6-50.5c0 0 23.5-13.5 44.1 17.5" class="st1"/><path d="M558.8 540s-40.3-37.8-15.6-60.1c0 0 20.6-10.1 30.8 24.8" class="st1"/><path d="M554.5 530.6s-33.1-31.7-11.3-50.7c0 0 23.5-6.3 37.6 14.2" class="st1"/><path d="M555.5 521.2s-21.7-29.5-12.3-41.3c0 0 16.4 2.3 32.7 34.9" class="st1"/><path d="M563.6 526s-23.6-38.4-20.3-46c0 0 23.4 32.2 30.6 46.9M465.6 435.8c17.3 28.1 34.7 56.1 52 84.2" class="st1"/><path d="M460.1 439.8s44.9 42.6 54.5 89.7" class="st1"/><path d="M444.5 440.8s28.5 10.5 47.7 37.6c0 0 14.4 35.3 4.8 60.2" class="st1"/><path d="M442.2 450.6s27.1.9 49.9 27.8c0 0 7.8 33.6-4.3 66.4" class="st1"/><path d="M427.9 459.5s43.7-7.9 64.3 18.9c0 0 10.2 26.9-12.1 56.4" class="st1"/><path d="M442.5 465.1s37.1-9.3 49.7 13.3c0 0 11.7 24.4-20.7 42.7" class="st1"/><path d="M431.1 489.5s40.6-37.4 61.1-11.2c0 0 8.6 21.3-27 28.9" class="st1"/><path d="M440.8 485.9s34.1-30.8 51.4-7.6c0 0 4.6 23.9-16.9 36.5" class="st1"/><path d="M450.1 487.6s31-19.5 42.1-9.3c0 0-3.5 16.2-37.2 30.1" class="st1"/><path d="M444.8 495.3s40-20.8 47.4-16.9c0 0-33.8 21-49 27.1M360.1 327c37.2-18.4 74.3-36.7 111.5-55.1" class="st1"/><path d="M356.8 319.1s76.2-15.5 117.8-59.2" class="st1"/><path d="M340.8 307.7s37.4 7.8 75.8-8.3c0 0 38.8-28.1 45.2-61" class="st1"/><path d="M344.9 295.7s29.5 17.1 71.7 3.7c0 0 30.7-30.6 39.7-73.6" class="st1"/><path d="M335.5 276.7s41.2 37.5 81.1 22.7c0 0 28.7-21.9 24.6-68.1" class="st1"/><path d="M354.8 280.4s33.3 34.7 61.8 19c0 0 28.8-18.2 6.5-59.3" class="st1"/><path d="M359 246.8s18.3 66.9 57.6 52.6c0 0 23.3-17-9.5-48.7" class="st1"/><path d="M366.9 257.1s15.8 55.5 49.7 42.3c0 0 20.8-22.4 6.3-50.1" class="st1"/><path d="M378 261.5s20 41.4 38.7 37.9c0 0 7.1-19.6-19.6-56.8" class="st1"/><path d="M377.4 249.8s28.8 48.8 39.2 49.6c0 0-22-44.9-34.1-61.5M696.7 627c-38.9 14.2-77.8 28.5-116.8 42.7" class="st1"/><path d="M699 635.2s-77.4 7.2-123.5 46.1" class="st1"/><path d="M713.8 648.3s-36.3-11.8-76.3 0c0 0-41.7 23.7-51.6 55.7" class="st1"/><path d="M708.4 659.8s-27.4-20.2-70.9-11.4c0 0-33.8 27-47.4 68.9" class="st1"/><path d="M715.6 679.7s-36.9-41.8-78.1-31.3c0 0-30.9 18.6-31.9 65" class="st1"/><path d="M696.8 673.9s-29.4-38.1-59.4-25.5c0 0-30.6 14.9-12.8 58.3" class="st1"/><path d="M689.1 706.9s-11-68.5-51.6-58.5c0 0-25 14.4 4.2 49.5" class="st1"/><path d="M682.3 695.8s-9.7-56.8-44.8-47.4c0 0-23.1 20-11.7 49.1" class="st1"/><path d="M671.8 690.3s-15.4-43.4-34.3-41.9c0 0-9.1 18.7 13.3 58.6" class="st1"/><path d="M671.1 701.9s-23.4-51.6-33.6-53.6c0 0 17 47.1 27.2 64.9M630.8 614.4c-41.4 2.7-82.7 5.5-124.1 8.2" class="st1"/><path d="M630.8 623s-76.3-14.9-131.5 9.6" class="st1"/><path d="M641.2 639.7s-31.5-21.6-73.2-21.4c0 0-46.6 11.1-65.1 39" class="st1"/><path d="M632.8 649.1S612.1 622 568 618.2c0 0-40.1 16.5-64.8 52.8" class="st1"/><path d="M634.2 670.3s-23.7-50.5-66.2-52c0 0-34.9 9.2-48.8 53.5" class="st1"/><path d="M617.8 659.5s-17.5-44.8-49.8-41.2c0 0-33.5 5.8-28.7 52.3" class="st1"/><path d="M601.1 688.9s8.7-68.8-33.1-70.6c0 0-28.1 6.8-9.9 48.7" class="st1"/><path d="M597.7 676.4s6.6-57.3-29.7-58.1c0 0-27.8 12.7-25 43.9" class="st1"/><path d="M589.2 668.1s-2.6-45.9-21.2-49.8c0 0-14 15.4-3.7 59.9" class="st1"/><path d="M585.2 679.1s-7.9-56.1-17.2-60.8c0 0 3.1 49.9 7.9 69.9" class="st1"/><path d="M580.8 648.3c-41.4 2.7-82.7 5.5-124.1 8.2" class="st1"/><path d="M580.7 656.8s-76.3-14.9-131.5 9.6" class="st1"/><path d="M591.1 673.5s-31.5-21.6-73.2-21.4c0 0-46.6 11.1-65.1 39" class="st1"/><path d="M582.8 683s-20.7-27.1-64.8-30.9c0 0-40.1 16.5-64.8 52.8" class="st1"/><path d="M584.1 704.2s-23.7-50.5-66.2-52c0 0-34.9 9.2-48.8 53.5" class="st1"/><path d="M567.7 693.3s-17.5-44.8-49.8-41.2c0 0-33.5 5.8-28.7 52.3" class="st1"/><path d="M551 722.8s8.7-68.8-33.1-70.6c0 0-28.1 6.8-9.9 48.7" class="st1"/><path d="M547.6 710.3s6.6-57.3-29.7-58.1c0 0-27.8 12.7-25 43.9" class="st1"/><path d="M539.1 702s-2.6-45.9-21.2-49.8c0 0-14 15.4-3.7 59.9" class="st1"/><path d="M535.1 713s-7.9-56.1-17.2-60.8c0 0 3.1 49.9 7.9 69.9M433.9 625.4c-39.7-12-79.3-24.1-119-36.1" class="st1"/><path d="M430.8 633.3s-66.1-40.8-126.4-37.4" class="st1"/><path d="M434.7 652.6s-21.9-31.3-61-45.8c0 0-47.5-6.1-74.7 13.5" class="st1"/><path d="M423.5 658.5s-9.8-32.7-49.8-51.8c0 0-43.3 1.3-79.3 26.5" class="st1"/><path d="M417.3 678.8s-4.4-55.6-43.6-72.1c0 0-35.9-3.7-64.6 32.8" class="st1"/><path d="M405.8 662.9s-.6-48.1-32.1-56.1c0 0-33.4-6.4-45.3 38.8" class="st1"/><path d="M379.8 684.6s32.4-61.3-6-77.8c0 0-28.6-3.6-26.4 42.1" class="st1"/><path d="M381 671.6s26.4-51.2-7.3-64.8c0 0-30.5 2.1-38.9 32.2" class="st1"/><path d="M376 660.9s13.8-43.9-2.2-54.1c0 0-18.5 9.4-24.6 54.8" class="st1"/><path d="M368.4 669.8s12.4-55.3 5.4-63c0 0-14.7 47.8-17.3 68.2M600.5 695.7c-41.3-3.4-82.6-6.9-123.9-10.3" class="st1"/><path d="M599.1 704.1s-73.2-26-131.4-10" class="st1"/><path d="M607 722.2s-28-26-69.2-32c0 0-47.8 4-70.2 28.9" class="st1"/><path d="M597.3 730.3s-16.4-29.9-59.5-40.2c0 0-42.1 10.3-72 42.6" class="st1"/><path d="M595.5 751.4s-16-53.4-57.7-61.3c0 0-35.9 3.9-56.2 45.6" class="st1"/><path d="M580.9 738.3s-10.7-46.9-43.1-48.1c0 0-34 .7-36.1 47.5" class="st1"/><path d="M560 764.9s18.8-66.8-22.2-74.8c0 0-28.8 2.5-17 46.7" class="st1"/><path d="M558.5 752s15.1-55.7-20.7-61.9c0 0-29.4 8.4-31.3 39.7" class="st1"/><path d="M551.3 742.6s4.2-45.8-13.5-52.4c0 0-16.1 13.1-12.5 58.7" class="st1"/><path d="M545.7 752.9s.5-56.7-8-62.7c0 0-4.3 49.8-2.6 70.3M480.6 678.5c-31.1-13.6-62.3-27.1-93.4-40.7" class="st1"/><path d="M477.4 684.7s-50-39.5-99.3-42.4" class="st1"/><path d="M478.7 700.7s-14.8-27.5-45.3-43.1c0 0-38.1-9.5-62.1 3.9" class="st1"/><path d="M469 704.5s-4.8-27.5-35.6-46.8c0 0-35.4-3.1-67.1 14.1" class="st1"/><path d="M462.1 720.4s1.7-45.7-28.6-62.8c0 0-28.9-6.4-55.7 20.6" class="st1"/><path d="M454.2 706.3s4.1-39.2-20.8-48.7c0 0-26.6-8.4-40.5 27.3" class="st1"/><path d="M431 721.5s32.2-46.8 2.5-63.9c0 0-23-5.6-25.5 31.7" class="st1"/><path d="M433.2 711.1s26.4-39.2.2-53.5c0 0-25-1.2-34.7 22.5" class="st1"/><path d="M430.1 701.9s15.4-34.4 3.3-44.2c0 0-16 5.9-25.2 42.3" class="st1"/><path d="M423.1 708.4s15.3-43.8 10.3-50.8c0 0-16.5 37.5-20.5 53.8M479.3 625c-31.1-13.6-62.3-27.1-93.4-40.7" class="st1"/><path d="M476.1 631.2s-50-39.5-99.3-42.4" class="st1"/><path d="M477.4 647.3s-14.8-27.5-45.3-43.1c0 0-38.1-9.5-62.1 3.9" class="st1"/><path d="M467.7 651.1s-4.8-27.5-35.6-46.8c0 0-35.4-3.1-67.1 14.1" class="st1"/><path d="M460.8 667s1.7-45.7-28.6-62.8c0 0-28.9-6.4-55.7 20.6" class="st1"/><path d="M452.9 652.9s4.1-39.2-20.8-48.7c0 0-26.6-8.4-40.5 27.3" class="st1"/><path d="M429.7 668.1s32.2-46.8 2.5-63.9c0 0-23-5.6-25.5 31.7" class="st1"/><path d="M431.9 657.7s26.4-39.2.2-53.5c0 0-25-1.2-34.7 22.5" class="st1"/><path d="M428.8 648.5s15.4-34.4 3.3-44.2c0 0-16 5.9-25.2 42.3" class="st1"/><path d="M421.8 655s15.3-43.8 10.3-50.8c0 0-16.5 37.5-20.5 53.8M377 542.9c-31.1-13.6-62.3-27.1-93.4-40.7" class="st1"/><path d="M373.8 549.1s-50-39.5-99.3-42.4" class="st1"/><path d="M375.1 565.2s-14.8-27.5-45.3-43.1c0 0-38.1-9.5-62.1 3.9" class="st1"/><path d="M365.4 569s-4.8-27.5-35.6-46.8c0 0-35.4-3.1-67.1 14.1" class="st1"/><path d="M358.5 584.9s1.7-45.7-28.6-62.8c0 0-28.9-6.4-55.7 20.6" class="st1"/><path d="M350.6 570.8s4.1-39.2-20.8-48.7c0 0-26.6-8.4-40.5 27.3" class="st1"/><path d="M327.4 586s32.2-46.8 2.5-63.9c0 0-23-5.6-25.5 31.7" class="st1"/><path d="M329.6 575.6s26.4-39.2.2-53.5c0 0-25-1.2-34.7 22.5" class="st1"/><path d="M326.5 566.4s15.4-34.4 3.3-44.2c0 0-16 5.9-25.2 42.3" class="st1"/><path d="M319.5 572.9s15.3-43.8 10.3-50.8c0 0-16.5 37.5-20.5 53.8M322.1 504.5l-12.9-101.1M315.1 504.9s8.4-63.1-14.4-107" class="st1"/><path d="M302 514.2s16.1-26.8 13.8-60.9c0 0-11.4-37.6-35.1-51.3" class="st1"/><path d="M293.8 507.9s21.2-18.2 22-54.6c0 0-15.5-32-46.4-50.4" class="st1"/><path d="M276.6 510s40.1-21.9 39.3-56.7c0 0-9.3-28.1-46.2-37.3" class="st1"/><path d="M284.6 496.1s35.8-16.6 31.2-42.8c0 0-6.4-27.1-44.2-20.9" class="st1"/><path d="M259.7 483.9s56.7 3.7 56.1-30.6c0 0-6.9-22.6-40.3-5.6" class="st1"/><path d="M269.8 480.5s47.2 2.6 46-27.2c0 0-11.8-22.1-37.1-18.3" class="st1"/><path d="M276.1 473.1s37.4-4.4 39.7-19.8c0 0-13.3-10.7-49.2 0" class="st1"/><path d="M266.9 470.4s45.5-9.3 48.9-17.1c0 0-40.7 5-56.8 9.9M524.9 707.8c-31.1-13.6-62.3-27.1-93.4-40.7" class="st1"/><path d="M521.7 714s-50-39.5-99.3-42.4" class="st1"/><path d="M523 730.1s-14.8-27.5-45.3-43.1c0 0-38.1-9.5-62.1 3.9" class="st1"/><path d="M513.3 733.8s-4.8-27.5-35.6-46.8c0 0-35.4-3.1-67.1 14.1" class="st1"/><path d="M506.4 749.7s1.7-45.7-28.6-62.8c0 0-28.9-6.4-55.7 20.6" class="st1"/><path d="M498.5 735.7s4.1-39.2-20.8-48.7c0 0-26.6-8.4-40.5 27.3" class="st1"/><path d="M475.3 750.8s32.2-46.8 2.5-63.9c0 0-23-5.6-25.5 31.7" class="st1"/><path d="M477.5 740.4s26.4-39.2.2-53.5c0 0-25-1.2-34.7 22.5" class="st1"/><path d="M474.4 731.2s15.4-34.4 3.3-44.2c0 0-16 5.9-25.2 42.3" class="st1"/><path d="M467.4 737.7s15.3-43.8 10.3-50.8c0 0-16.5 37.5-20.5 53.8M517.9 459.3s9.8-95.1 18.2-108.8M510.8 460.6c-1.3-2 11.7-72.3-16.3-119.9M508.2 466.5s-59.9-132.9-91.9-168.1M488 461.5s-97.1-107.7-133.6-125.3M473 471.7s-85.4-37.8-160.9-22.2M476.2 492.7s-126.4 8.9-149.2 31.1M478.2 512.1s-75.6 39.1-106.9 93.8M509.5 505.6s-63.2 46.3-78.2 101M510.1 512.7s-15 97.1-76.9 146.6" class="st1"/><path d="M510.8 517.3s16.9 33.2-38.4 169.4" class="st1"/><path d="M523.2 512.7s-34.5 37.8-5.9 141.4" class="st1"/><path d="M521.2 508.2s41 107.5 16.9 185.7M524.5 493.4s42.4 60.4 45 130.1M679.5 500.5c-26.3 32-52.7 64-79 96" class="st1"/><path d="M685.7 506.3s-63.1 45.4-83.1 102.3" class="st1"/><path d="M705 510.2s-37.3 8.2-65.7 38.7c0 0-23.9 41.5-16.2 74.2" class="st1"/><path d="M706.2 522.8s-33.9-3.5-66.9 26.1c0 0-15.5 40.5-6 83.4" class="st1"/><path d="M722.5 536.3s-53-17.3-83.3 12.6c0 0-17.2 31.7 5.5 72.2" class="st1"/><path d="M703.4 540.8s-44.6-17.9-64.1 8.1c0 0-18.8 28.4 18.4 56.7" class="st1"/><path d="M713.4 573.2s-44.2-53.5-74.1-24.3c0 0-14.3 25.1 28.7 40.5" class="st1"/><path d="M701.9 567s-37.2-44.1-62.7-18.2c0 0-9.8 28.9 14.8 48.3" class="st1"/><path d="M690.1 567.6s-35.3-29.6-50.8-18.7c0 0 1.6 20.7 41.1 43.8" class="st1"/><path d="M695.4 578s-46.3-32.7-56.1-29.2c0 0 38.5 31.9 56.3 42.1" class="st1"/><path d="M518.5 495s73 10.5 125.6 56.4M527.1 501s67.8 116.6 112.7 148.6" class="st1"/><path d="M525.1 489.3s99.7 105.6 158.3 116.6M549.2 486s120.5 59.9 170.7 63.9M557.5 483.4c-1.8 1.3 110.9 31.3 172.8 11.7M690 407.8c-48.2 43.7-151.8 43-151.8 43s86-19.5 141.4-103" class="st1"/><path d="M680.8 558.9c-9.6-21-19.1-42.1-28.7-63.1" class="st1"/><path d="M684.9 556.6s-27.4-33.5-29.9-67.1" class="st1"/><path d="M695.9 557.4s-18.9-9.8-29.8-30.3c0 0-6.9-25.8 2-42.3" class="st1"/><path d="M698.3 550.7s-18.8-3-32.2-23.7c0 0-2.5-24 8.8-45.8" class="st1"/><path d="M709.1 545.8s-31 1.7-43-18.8c0 0-4.7-19.6 13.4-38.1" class="st1"/><path d="M699.4 540.6s-26.6 3.2-33.3-13.6c0 0-6-18 18.1-27.9" class="st1"/><path d="M709.5 524.7s-31.5 22.4-43.4 2.4c0 0-4.1-15.6 21.3-17.7" class="st1"/><path d="M702.4 526.3s-26.4 18.4-36.4.7c0 0-1.1-17 14.9-23.9" class="st1"/><path d="M696.1 524.3s-23.2 10.8-30.1 2.7c0 0 3.8-10.9 28.5-17.6" class="st1"/><path d="M700.5 519.5s-29.6 10.9-34.4 7.6c0 0 25.3-11.6 36.4-14.5M378.9 317.2c-15.8 16.8-31.6 33.7-47.5 50.5" class="st1"/><path d="M375.3 314.2s-20.6 38.1-50.7 53.2" class="st1"/><path d="M371.8 303.8s-1.9 21.2-16.7 39.1c0 0-21.3 16.2-39.8 14.2" class="st1"/><path d="M364.7 304s4.4 18.5-9.7 38.8c0 0-21.3 11.4-45.7 9.2" class="st1"/><path d="M356.1 295.9s13.3 28.1-1 46.9c0 0-16.3 11.8-40.3 2.1" class="st1"/><path d="M355 306.8s13.1 23.4.1 36c0 0-14.3 12.4-32.7-6.2" class="st1"/><path d="M336.4 303.6s32.7 20.6 18.7 39.2c0 0-12.8 9.7-24.4-13" class="st1"/><path d="M340.6 309.5s27 17.4 14.5 33.3c0 0-15.3 7.5-27.8-4.8" class="st1"/><path d="M341.1 316.1s18.8 17.4 14 26.8c0 0-11.6.6-27.1-19.6" class="st1"/><path d="M335 313.9s21.3 23.3 20.1 28.9c0 0-20.4-19-27.3-28.1M676.4 639.4c3.4-22.8 6.9-45.7 10.3-68.5" class="st1"/><path d="M681.1 639.8s-4.7-43.1 11.5-72.6" class="st1"/><path d="M689.9 646.4s-10.5-18.5-8.5-41.7c0 0 8.3-25.4 24.7-34.4" class="st1"/><path d="M695.6 642.2s-14.1-12.7-14.1-37.4c0 0 11-21.5 32.4-33.5" class="st1"/><path d="M707.3 643.9s-26.9-15.5-25.8-39.2c0 0 6.7-19 32-24.6" class="st1"/><path d="M702 634.3s-24.1-11.8-20.5-29.6c0 0 4.8-18.3 30.4-13.5" class="st1"/><path d="M719.2 626.4s-38.6 1.6-37.7-21.7c0 0 5.1-15.3 27.5-3.2" class="st1"/><path d="M712.3 623.9s-32.1 1-30.9-19.2c0 0 8.3-14.8 25.5-11.9" class="st1"/><path d="M708.2 618.8s-25.4-3.6-26.7-14.1c0 0 9.2-7.1 33.5.7" class="st1"/><path d="M714.5 617.1s-30.8-7-33-12.4c0 0 27.6 4.1 38.4 7.6M706 512.5c-11.2-24.6-22.4-49.2-33.5-73.7" class="st1"/><path d="M710.9 509.9s-32-39.2-35-78.4" class="st1"/><path d="M723.7 510.7s-22.1-11.4-34.8-35.4c0 0-8-30.2 2.3-49.4" class="st1"/><path d="M726.6 503s-21.9-3.5-37.7-27.7c0 0-2.9-28.1 10.3-53.5" class="st1"/><path d="M739.1 497.2s-36.3 1.9-50.3-22c0 0-5.5-22.9 15.6-44.5" class="st1"/><path d="M727.9 491.2s-31.1 3.7-39-15.9c0 0-7-21 21.2-32.6" class="st1"/><path d="M739.6 472.5s-36.8 26.2-50.7 2.8c0 0-4.8-18.2 24.9-20.7" class="st1"/><path d="M731.4 474.4s-30.8 21.5-42.5.9c0 0-1.3-19.9 17.5-27.9" class="st1"/><path d="M724 472.1s-27.2 12.7-35.1 3.2c0 0 4.5-12.8 33.3-20.6" class="st1"/><path d="M729.1 466.4s-34.6 12.7-40.2 8.9c0 0 29.6-13.6 42.5-17" class="st1"/><path d="M668.5 525.7c-59.5 8.8-138.8-44.9-138.8-44.9s76.2 29.1 161.6-6.5M568.1 598.1c5.4-22.5 10.9-44.9 16.3-67.4" class="st1"/><path d="M572.7 598.8s-.9-43.3 17.8-71.3" class="st1"/><path d="M580.9 606.1s-8.8-19.4-4.8-42.2c0 0 10.5-24.6 27.6-32.1" class="st1"/><path d="M586.9 602.5S574 588.6 576.1 564c0 0 12.8-20.4 35.2-30.6" class="st1"/><path d="M598.4 605.2s-25.5-17.8-22.3-41.3c0 0 8.4-18.3 34-21.7" class="st1"/><path d="M594 595.2s-22.9-13.9-17.9-31.3c0 0 6.4-17.9 31.4-10.8" class="st1"/><path d="M611.8 588.8s-38.6-1.8-35.7-24.9c0 0 6.4-14.8 27.7-.8" class="st1"/><path d="M605.2 585.7s-32.1-1.8-29.1-21.8c0 0 9.6-14.1 26.5-9.6" class="st1"/><path d="M601.5 580.3s-25-5.8-25.4-16.4c0 0 9.8-6.2 33.3 3.7" class="st1"/><path d="M607.9 579.1s-30.1-9.7-31.8-15.2c0 0 27.1 6.5 37.6 11M578.9 564.4c-52.3-29.7-81.7-120.9-81.7-120.9s42 69.9 131.3 94.4M477.9 362.8c-7.8 19-15.6 38-23.4 56.9" class="st1"/><path d="M473.9 361.5s-5.1 38.2-25.3 60.2" class="st1"/><path d="M467.7 354s5.1 18.2-1.5 37.7c0 0-12.6 20.1-28.6 24.4" class="st1"/><path d="M461.9 356.4s9.5 14 4.2 35.3c0 0-14.1 16.2-35 22.1" class="st1"/><path d="M452.2 352.4s19.9 19.1 14 39.3c0 0-9.8 14.9-32.8 14.5" class="st1"/><path d="M454.7 361.8s18.3 15.3 11.5 29.9c0 0-8 14.8-29.1 5.2" class="st1"/><path d="M438.2 365s33.7 6.8 27.9 26.7c0 0-7.6 12.1-24.4-3.1" class="st1"/><path d="M443.6 368.6s27.9 5.9 22.6 23.1c0 0-10.4 11-24.6 4.8" class="st1"/><path d="M446.1 373.9s21.2 8.5 20.1 17.8c0 0-9.4 4.2-28.7-7.7" class="st1"/><path d="M440.3 374s25.1 12.6 25.8 17.7c0 0-22.9-9.3-31.6-14.7M463.8 391c41.9 33.2 55.3 117.3 55.3 117.3s-27.4-67.1-102.5-100.8M395 500.1c18.3 9.4 36.5 18.7 54.8 28.1" class="st1"/><path d="M393.3 503.9s37.6 8.2 57.9 30.2" class="st1"/><path d="M385.3 509.5s18.6-3.6 37.5 4.7c0 0 19 14.2 22 30.5" class="st1"/><path d="M387.2 515.4s14.7-8.3 35.5-1.3c0 0 15 15.4 19.1 36.8" class="st1"/><path d="M382.5 524.8s20.7-18.3 40.3-10.7c0 0 14.1 11 11.7 33.9" class="st1"/><path d="M392 523.1s16.8-16.9 30.7-8.9c0 0 14.1 9.2 2.8 29.4" class="st1"/><path d="M393.9 539.8s9.6-33 28.9-25.6c0 0 11.4 8.6-5.1 24.1" class="st1"/><path d="M397.9 534.7s8.2-27.3 24.9-20.6c0 0 10.1 11.2 2.8 24.9" class="st1"/><path d="M403.4 532.6s10.2-20.4 19.4-18.5c0 0 3.4 9.7-10.1 28" class="st1"/><path d="M403 538.4s14.6-23.9 19.8-24.3c0 0-11.2 22.1-17.3 30.2M421.8 516.4c36.6-39 121.5-45.4 121.5-45.4s-69.1 21.8-108.9 93.8M529 457.3s74.3-35.8 101-66.5" class="st1"/></g></svg>