<svg version="1.1" id="Layer_1" xmlns="http://www.w3.org/2000/svg" x="0" y="0" viewBox="0 0 1000 1000" style="enable-background:new 0 0 1000 1000" xml:space="preserve"><style>.st0,.st1,.st2,.st4,.st5{opacity:.52;fill:#fff;enable-background:new}.st1,.st2,.st4,.st5{opacity:.62}.st2,.st4,.st5{opacity:.6}.st4,.st5{opacity:.66}.st5{opacity:.71}</style><path class="st0" d="M502.1 345.5s83.5-64 32.6-228.8c0 0-17.3-66.9-50.4-70.9 0 0-14.6-3.6-27.4 23.4-5.8 12.3-11.4 38.2-11.4 38.2l-22.2 33.1s-9.2 36.6-7.1 52.4c8.6 63.7 49.5 146.3 81.5 159.4l4.4-6.8z"/><path class="st0" d="M507 360.8s81.7 12.9 136.7-145.3c0 0 24.3-61.8 7-88.6 0 0-6.7-13.1-28.1-2.5-14.2 7.1-43.5 32.6-43.5 32.6s-34.5 11.6-43.9 29.5c-1.8 3.4-6.4 8.8-13 22.8s-13.4 33.1-13.4 33.1-23.4 18-25.2 24.9c-11.7 43 9.1 72.7 17.3 95.4l6.1-1.9z"/><path class="st1" d="M511.9 369.2s54.2 6.4 106.8-9.3 91.8-31.3 103.9-53.6c0 0-2.2-7.5-26-8.6-9-.4-19-13.3-43.7-7.9-42.6 9.4-47 25.9-47 25.9l-40.7 22s-60.4 19.2-59.7 30.6l6.4.9z"/><path class="st0" d="M497.7 347.7s56-86-83.9-180.7c0 0-8-24.4-43.5-36 0 0-32.4-27.9-42.1-23.2-16.2 7.8-21.6 12-26 37.9-5.2 31.2 3 84.5 42.9 134.1 41.5 51.6 120.3 87.4 153.2 76.1l-.6-8.2z"/><path class="st1" d="M494.5 353.8s-19.7-14.3-78.5-9.9c0 0-29.8-1.3-47.1 8.4 0 0-22.8.7-33 3.7s-20.9 11.9-19.2 18.9c.5 2 15 7.1 18.9 9 6.8 3.5 24.4 5.2 33.3 5.3 47.1 1 67.6-5.3 67.6-5.3s59.9-18.4 65-31.7l-7 1.6z"/><path class="st2" d="M523.6 327.1s29.5-31.9 48.9-83.3c22.1-58.5 28.1-139.8-5.4-180.9 0 0-32.6-10.9-10.2 77.9 0 0-1.9 9.7-4.3 24.9-2.5 16.3-5.5 38.8-12.4 59.5-19.1 57.3-49.6 118-41.8 130.9 9.2-9 17.6-18.7 25.2-29"/><path class="st1" d="M468.3 360.5s-42.3-1-90.4-23.3c-54.7-25.3-101.1-72.1-114.2-125.5 0 0 17-24.7 37.3 12 4.7 8.5 16.5 22.4 27.4 38.3 0 0 21.7 6.9 38.7 16.2s29.2 23.6 29.2 23.6l41.8 26s65 22.8 67.5 34.8c-12.5.3-24.9-.4-37.3-2.1"/><path class="st1" d="M507.8 363.8s68.4 20 131.1-79.3c0 0 2.4-3.4 5.4-8.7 7.1-12.6 17.9-35.8 9.4-50.2 0 0-4.4-9.7-23.7-5.5s-51.8-2.2-80.7 29.8-53.7 90.6-46.8 114.4l5.3-.5z"/><path class="st2" d="M508.2 354s40.3-76.1-27.1-167.2c0 0-25.2-38.3-47.3-28 0 0-10.1 3.3-12.7 26.6s-19.1 59.9-.1 99.5 62.6 79.2 85.9 75.4l1.3-6.3z"/><path d="M464.5 363.6c-16.8-11-38.1-14.3-67-44-32.9-33.8-42.7-99.2-32-127.8 0 0 27.6-16.6 38.9 40.3 0 0 7.3 33.6 28.6 56.9 30.5 33.4 69.8 67.7 68.4 76.4-.1 0-23.2 7.5-36.9-1.8z" style="opacity:.78;fill:#fff;enable-background:new"/><path class="st4" d="M533.1 672.5s-18.5-64.7-99.8-84.4c-12.7-3.1-31.5-3-45.8-5.2 0 0-10.3-5.3-27.9-14.8-27.8-15-69.3-37.4-102.3-34.5 0 0 15 3.4 33.7 17.8 18 13.9 39.5 38.7 58.1 50.2 13.8 8.6 20.8 14.2 39.7 21s32 10.3 55.1 18.1c42.5 14.3 66.5 5.2 91.2 38.7"/><path class="st5" d="M535.1 648.2s4.4-98.3 75.3-147.2c11-7.6 29-14.7 42-22.1 0 0 8-8.8 21.6-24.2 21.5-24.4 53.6-60.8 86-70.7 0 0-54.7 47.1-75.8 98-3.9 9.5-14.9 15.1-20.5 24.3-9.8 10.5-20.3 20.3-31.4 29.3-35.8 29.4-84.9 72.2-97.2 112.6"/><path class="st4" d="M522.3 841.5s4.4-98.3 75.3-147.2c11-7.6 29-14.7 42-22.1 0 0 8-8.8 21.6-24.2 21.5-24.4 53.6-60.8 86-70.7 0 0-54.7 47.1-75.8 98-3.9 9.5-14.9 15.1-20.5 24.3-9.8 10.5-20.3 20.3-31.4 29.3-35.8 29.3-84.9 72.2-97.2 112.6"/><path class="st5" d="M534.2 610.9s20.8-60.5 74.2-76.9c8.3-2.6 20.9-3.4 30.4-5.4 0 0 6.7-3.9 18-10.8 17.9-10.9 44.7-27.3 66.9-26.9 0 0-42.9 18.5-65.5 46.1-4.2 5.2-12.1 6.5-17.3 11.1-8.1 4.6-16.5 8.6-25.1 12-27.8 11.1-66.5 28-81.6 50.8"/><path d="M542.9 632.4s-4.5-70.7-45.7-89.6c-6.4-2.9-23.8-7.1-31.1-9.4-6.8-2.5-13-6.3-18.3-11.2-13.9-12.9-61.9-32.2-78.9-31.4 0 0 53.9 19.1 71.5 52 3.3 6.1 27.7 22.5 39.3 29.6 21.5 13 51.4 32.8 63.2 60" style="opacity:.88;fill:#fff;enable-background:new"/><path d="M496.3 356c5.8 27.2 19.3 66.8 31.2 129.1 10.5 55.2 15.4 107.1 8.5 183.8-14.7 163.3-13.4 193.4-14.8 218s-7.5 54.5-9.8 62.9l17.2 4.5L540 745.8s12.1-125.7 7-183.3c-2.9-33.5-13.7-87.8-22.5-125.6-6.3-27.1-23.2-80.8-23.2-80.8s-10.8-27.2-5-.1z" style="fill:#fff"/></svg>