<svg xmlns="http://www.w3.org/2000/svg" xml:space="preserve" id="Layer_1" x="0" y="0" style="enable-background:new 0 0 1000 1000" version="1.1" viewBox="0 0 1000 1000"><style>.st2,.st3{opacity:.83;fill:#fff;enable-background:new}.st3{fill:none;stroke:#fff;stroke-miterlimit:10}.st12,.st14,.st4,.st5,.st6,.st8{opacity:.77;fill:#fff;enable-background:new}.st12,.st14,.st5,.st6,.st8{opacity:.4}.st12,.st14,.st6,.st8{opacity:.3}.st12,.st14,.st8{opacity:.53}.st12,.st14{opacity:.5}.st14{opacity:.31}</style><g id="Layer_5"><path d="M593.6 683.1s59.9-22.8 116.3-72.3 127.7-72.3 127.7-72.3l67.4-14.1s5.7-6.5-11.3-6.6-130.7 43.3-168.2 76.6-86.2 69.1-132.8 84.7l.9 4z" class="st2"/><path d="m740.9 583.5-2.7-17.2" class="st3"/><circle cx="737.5" cy="565.7" r="3.5" class="st2"/><path d="m754.6 574.3-3.4-20.9" class="st3"/><circle cx="750.4" cy="552.7" r="4.2" class="st2"/><path d="m780.8 560 1.1-21.1" class="st3"/><circle cx="781.1" cy="538" r="4.2" class="st2"/><path d="m760.9 570.4 11-18" class="st3"/><circle cx="771.8" cy="551.3" r="4.2" class="st2"/><path d="m886 520.7 17.4-28.7" class="st3"/><circle cx="903.2" cy="490.2" r="6.7" class="st2"/><path d="m892.6 521.4 34.3-16.4" class="st3"/><circle cx="927.9" cy="503.1" r="7.6" class="st2"/><path d="m882.2 527.2 35.9 12.7" class="st3"/><circle cx="920" cy="539.1" r="7.6" class="st2"/><path d="m865.7 526.5 13.1-15.9" class="st3"/><circle cx="878.8" cy="509.5" r="4.1" class="st2"/><path d="m869 531.7 8.4 11.2" class="st3"/><circle cx="878.1" cy="543.1" r="2.8" class="st2"/><path d="m847.8 536.8 11.9 16" class="st3"/><circle cx="860.8" cy="553.1" r="4" class="st2"/><path d="m836.5 538.6 11.9 16.1" class="st3"/><circle cx="849.5" cy="554.9" r="4" class="st2"/><path d="m825.2 542.3 12.1 10.8" class="st3"/><circle cx="838.1" cy="553.1" r="3.3" class="st2"/><path d="m819.6 544.6 18.9 17" class="st3"/><circle cx="839.9" cy="561.7" r="5" class="st2"/><path d="m853.2 530.5 13.9 12.4" class="st3"/><circle cx="868" cy="543" r="3.7" class="st2"/><path d="m852.6 535.1 17.6 15.8" class="st3"/><circle cx="871.6" cy="551" r="4.7" class="st2"/><path d="m860.6 528.8 7.6-19.3" class="st3"/><circle cx="867.9" cy="508.5" r="4.1" class="st2"/><path d="m854.7 529.2 7.7-19.2" class="st3"/><circle cx="862.1" cy="508.9" r="4.1" class="st2"/><path d="m842.7 533.7.6-21.5" class="st3"/><circle cx="842.5" cy="511.2" r="4.3" class="st2"/><path d="m832.5 538 4.4-21.2" class="st3"/><circle cx="836.3" cy="515.7" r="4.3" class="st2"/><path d="m820.6 543.3 4.5-21.1" class="st3"/><circle cx="824.6" cy="521.2" r="4.3" class="st2"/><path d="m811 547.2 4.6-21.2" class="st3"/><circle cx="815" cy="525" r="4.3" class="st2"/><path d="m815.8 546.3 3.5-17.1" class="st3"/><circle cx="818.9" cy="528.3" r="3.5" class="st2"/><path d="m800 551 3.5-16.5" class="st3"/><circle cx="803.1" cy="533.7" r="3.4" class="st2"/><path d="m794.7 555.1 5.4-26" class="st3"/><circle cx="799.5" cy="527.8" r="5.4" class="st2"/><path d="m749.2 582.2 20.3 6.2" class="st3"/><circle cx="770.5" cy="588" r="4.2" class="st2"/><path d="M768.6 568.3 794 576" class="st3"/><circle cx="795.3" cy="575.6" r="5.4" class="st2"/><path d="m794.7 554.9 25.4 7.8" class="st3"/><circle cx="821.3" cy="562.1" r="5.4" class="st2"/><path d="m788.5 557.6 17 10.5" class="st3"/><circle cx="806.5" cy="568" r="4" class="st2"/><path d="M562.7 689.4s-11.8-9.9-15.7-3.4c0 0 2.7 19.4-1.6 32.8-11.5 15.3-51.2 43-187.9 46.6l-1.5 6.3s126.1 17.3 198.7-45.8c-.2-.1-.5-.2-.7-.3 7.9-3.6 19.4-7.6 23.6-2.6 6.6 7.7 6.9 15 4.5 18.9s15.6-8.4 12-14.2-12.3-10.2-12.3-10.2 34.6-15.5 39.6-22.4c0 0-30.8 2.6-31.2-11.1-.4-13.8-8.3-22.1 1.6-34.1 0 0-32.4 25-29.1 39.5zm-15.8 27.1c0-2.2.8-4.8 3.1-8 .1.1 0 3.2-3.1 8z" class="st4"/><path d="M589.9 671.9s7.6 33.8 55.8 28.4c48.3-5.4 75.9 17.4 69.9 42.1-6 24.7-15.7 22.9-20.6 39-4.8 16.2-13.4 4.2-25 16.3-11.5 12.1-29.6 7.6-40.1 7s-16.7 16.4-28 10.3-23.1-20.8-23.6-25.3-36.7-24.2-35.8-35.3c1-10.9 23.9-66 47.4-82.5z" class="st5"/><path d="M588.9 689.8s14.6-42.7 3.9-74.2-10.4-30.5-16.3-35.8c-5.9-5.2-20.9-9.4-46.5-.2s-49.9-1.5-61 8.4-1.2 20.9-.5 28c2.1 25.6 14.1 49.4 33.4 66.3 30.1 26.9 32.5 21.6 32.5 21.6s31.1 13.1 54.5-14.1z" class="st6"/><path d="M579.9 690.4s21.8-20.7 42.5-63.8 29-32.2 34.8-63.5c5.9-31.3 8.6-58.8-29.5-45.6 0 0-8.3-6.8-7.8-13.1s-32.1-.5-48.2 1.2-21.6-29.9-35.7-6.9c-14.1 23-18.1 38.9-4.4 50.6 13.6 11.7 27.1 7.5 44.7 31.6s7.5 72 6.1 83.8c-1.2 11.6-17 16.8-2.5 25.7z" style="opacity:.17;fill:#fff;enable-background:new"/><path d="M596 697.5s10.9-28.1 11.2-75.9 12.4-41.5 4.4-72.3c-8.1-30.9-17.3-56.9-46.1-28.6 0 0-10.4-2.5-12.6-8.5-2.2-6-29.3 13.2-43.1 21.7s-32.3-17.8-35.3 9c-2.9 26.8.3 42.9 17.6 47.7 17.3 4.7 27.7-4.8 54 9.4 26.2 14.4 37.5 61.9 41.1 73.1 3.7 11-8.1 22.6 8.8 24.4z" class="st8"/><path d="M583.6 688.9s51.7-38.2 97.7-35.8c46 2.4 78.7 14.2 91.8-11.1s-28.3-36.5-28.9-45.2-10.8-29.9-17.6-39.2c-6.8-9.2-21.5-59.8-41.1-46.9 0 0 24 5.6 1.7 35.2-22.4 29.6-59.7 56.6-69.2 73.3-9.4 16.6-42 57.6-34.4 69.7z" class="st6"/><path d="M590.8 687.7s22.5-51.5 58.3-69.9c35.8-18.4 65.8-23.7 64.6-48.6-1.3-24.9-37.5-15.2-41.7-21.5s-21.3-17.9-30.4-21.9c-9.1-4-42.5-35.9-51.6-17.4 0 0 20.7-6.3 16.7 25.9-4 32.2-20.4 69.1-20.3 85.8 0 16.6-6.6 61.7 4.4 67.6z" class="st8"/><path d="M584.1 692.2s48.3 26.6 65.9 46.7c17.6 20.2 41.9 55 61.3 50.7 19.4-4.3 31-15.7 43.6-29.6 0 0 20.6-2.3 23.9-14.5 3.4-12.2-5.2-19.9 6.7-36.7 12-16.8 16.7-55.6-28.2-63.9s-59.4-9-81.6-4.2c-22.1 4.8-74.3 15.1-91.6 51.5z" style="opacity:.2;fill:#fff;enable-background:new"/><path d="M591.3 687.7s56.4 15.5 79.5 32 56.7 46.5 75.8 37.4 28.1-23.9 37.8-41.4c0 0 20.7-7.5 21.1-20.8.4-13.3-10.4-19.2-2.1-39.6 8.3-20.4 3.5-61.5-44.8-59.1s-63.5 5.4-85.2 15.6c-21.8 10.4-73.1 34-82.1 75.9z" class="st8"/><path d="M717 726.6c-29.2 9.7-75.8 21.8-90.6 7.8-16.6-15.7-36.1-33.5-36.5-58.3 1-.8 2-1.6 2.9-2.3 0 0 7.6 33.8 55.8 28.4 36.3-3.9 60.8 7.8 68.4 24.4zM582.4 698.7c-21.8 16.6-46.2 6.2-46.2 6.2s-2.4 5.2-32.5-21.6a98.923 98.923 0 0 1-33.4-66.3c-.6-6.6-9.2-16.6-1.5-25.9 14.6 15.7 43.1 28.4 75.7 40.7 29.9 11.2 37.2 42 37.9 66.9z" class="st6"/><path d="M383.6 445.6s-.8-69.9-30.5-146-26.2-157.9-26.2-157.9l10.7-74.1s-4.5-8.2-11 9.2S322 227 342 277.8c20 50.8 38.5 114.1 36.9 167.6l4.7.2z" class="st2"/><path d="m336.9 257.6-18.7-3.5" style="opacity:.5;fill:none;stroke:#fff;stroke-miterlimit:10;enable-background:new"/><circle cx="317.3" cy="254.6" r="3.8" style="opacity:.7;fill:#fff;enable-background:new"/><path d="m332.5 240.2-22.7-4.3" class="st3"/><circle cx="308.8" cy="236.4" r="4.6" class="st2"/><path d="m327.7 208.1-21.2-9.1" class="st3"/><circle cx="305.2" cy="199.5" r="4.6" class="st2"/><path d="m330.9 232.3-14.4-18" class="st3"/><circle cx="315.4" cy="214" r="4.6" class="st2"/><path d="M326.6 85.7 303.9 57" class="st3"/><circle cx="302" cy="56.6" r="7.3" class="st2"/><path d="m330 79.1-4-41.3" class="st3"/><circle cx="324.5" cy="36.2" r="8.3" class="st2"/><path d="M332 91.9 358.3 60" class="st3"/><circle cx="358.4" cy="57.8" r="8.3" class="st2"/><path d="m325.2 108.6-11.4-19.4" class="st3"/><circle cx="312.6" cy="88.7" r="4.5" class="st2"/><path d="m331.6 107.1 14.7-4.4" class="st3"/><circle cx="346.8" cy="102.1" r="3" class="st2"/><path d="m328.9 130.7 20.9-6.2" class="st3"/><circle cx="350.4" cy="123.6" r="4.3" class="st2"/><path d="m326.6 143 20.8-6.2" class="st3"/><circle cx="348.1" cy="135.9" r="4.3" class="st2"/><path d="m326.1 155.9 15.5-8.3" class="st3"/><circle cx="342" cy="146.8" r="3.6" class="st2"/><path d="m326.4 162.5 24.5-13" class="st3"/><circle cx="351.5" cy="148.1" r="5.6" class="st2"/><path d="m324.6 122.8 17.9-9.4" class="st3"/><circle cx="342.9" cy="112.3" r="4" class="st2"/><path d="m329 125.1 22.8-12.1" class="st3"/><circle cx="352.3" cy="111.7" r="5.1" class="st2"/><path d="m325.5 114.7-16.7-15.1" class="st3"/><circle cx="307.5" cy="99.6" r="4.5" class="st2"/><path d="m323.7 120.8-16.7-15" class="st3"/><circle cx="305.7" cy="105.7" r="4.5" class="st2"/><path d="m323.9 134.8-22-8.6" class="st3"/><circle cx="300.8" cy="126.5" r="4.7" class="st2"/><path d="m324.4 147-20-12.5" class="st3"/><circle cx="303.1" cy="134.7" r="4.7" class="st2"/><path d="m325.5 161-20-12.4" class="st3"/><circle cx="304.3" cy="148.8" r="4.7" class="st2"/><path d="m325.9 172.3-20-12.5" class="st3"/><circle cx="304.6" cy="159.9" r="4.7" class="st2"/><path d="m326.6 167.1-16-10" class="st3"/><circle cx="309.5" cy="157.2" r="3.8" class="st2"/><path d="m325.6 185-15.6-9.7" class="st3"/><circle cx="309.1" cy="175.4" r="3.7" class="st2"/><path d="m327.9 192-24.7-15.3" class="st3"/><circle cx="301.7" cy="176.8" r="5.8" class="st2"/><path d="m338.6 248.7 13.8-18.5" class="st3"/><circle cx="352.4" cy="229.1" r="4.6" class="st2"/><path d="m331.5 223.6 17.5-23.1" class="st3"/><circle cx="349" cy="198.9" r="5.8" class="st2"/><path d="m327.6 192 17.4-23.2" class="st3"/><circle cx="345" cy="167.3" r="5.8" class="st2"/><path d="m328.1 199.3 17.1-13.5" class="st3"/><circle cx="345.5" cy="184.7" r="4.3" class="st2"/><path d="M414.3 517.5c-.5-.1-.9-.3-1.5-.5-.9-.4-1.7-1-2.4-1.8-1-.9-1.9-2.1-2.6-3.3 0 .1 3 1.1 6.5 5.6z" class="st12"/><path d="M425.3 477.3s7.9-7.5 15.6-8.7c7.8-1.3 15.4 24.4 11.9 19.9-3.6-4.4-12-7.6-22.8-4-7.3 2.5-6.2 19.1-4.7 29.5.6-.5 1.2-1 1.7-1.6 22.8 65.8-5.8 146-24.5 187.3h.1c-53.3 137-212.4 276.9-212.4 276.9l-8.6-17.6c105.7-56.3 211-261.3 211-261.3h.3c43.8-121.8 32.2-164.5 22.4-178.9-.3-.5-.6-.9-.9-1.4-3.5-4.5-6.5-5.6-6.5-5.6.7 1.2 1.7 2.3 2.6 3.3-13.5-9.1-32-14.2-32-14.2-6-7.5 9.1-15.7 9.1-15.7-17.1-3.3-33.8-49.4-34.3-50.8 10.1 16.4 22 11.8 37.6 17.7 15.5 6 23-29.2 23-29.2 5.7 9 11.4 54.4 11.4 54.4z" class="st4"/><path d="M414.3 517.5c.3.4.6.8.9 1.4-.7-.7-1.6-1.4-2.4-1.9l-2.4-1.8c-1-.9-1.9-2.1-2.6-3.3 0 .1 3 1.1 6.5 5.6z" class="st12"/><path d="M370.8 445.4s37.5 4.9 50-46.5 46.3-71.2 69.3-55.8 17.5 24.7 32.2 35.7-.7 15.3 7.3 31.7c8.1 16.4-3.4 33.2-7.9 43.7s10.5 23.2.1 32.5-29.9 15.9-34.7 14.7c-4.8-1.2-38.5 28.6-49.5 23.4-11.1-5.2-58.7-49.3-66.8-79.4z" style="opacity:.28;fill:#fff;enable-background:new"/><path d="M388.6 453s-38.3-30.9-74.5-31.8c-36.2-.9-35.2-.7-42.8 3.3-7.7 4-17.5 17.8-17.6 47.6-.1 29.7-20.2 50.5-14.2 65.6 6 15.1 21 9 28.4 11 27 7.5 55.8 4 80.4-9.4 38.7-20.9 34.3-25.2 34.3-25.2s25.3-26.9 6-61.1z" class="st6"/><path d="M380.8 454.3s-13-30.1-49.4-67.4-22.1-41.7-52.1-59.4c-29.9-17.7-57-30.9-57.7 13.1 0 0-10.1 6-16.4 3-6.3-2.9-12.6 32.6-16.8 49.9-4.2 17.2-38.7 10.9-20.5 34 18.3 23.1 33.1 33.1 50.2 23.4 17.1-9.7 17.7-25 49.1-34s76.5 19.3 88 25.1c11.4 5.8 11.1 23.8 25.6 12.3z" class="st14"/><path d="M385.8 458.2s-19.7-67.3 0-113.5 44-75.3 23-98.1c-21-22.9-48.1 15.3-57.1 12.7s-34.6-.2-46.7 3.4c-12.1 3.6-69.4-.3-63.4 24.6 0 0 14.7-22.6 36.6 11.4 21.9 34 35.6 82.3 49.2 98.3s43.2 64.4 58.4 61.2z" class="st14"/><path d="M389.4 458.8s45.2-39.5 72.4-50c27.2-10.5 72-22.3 74.8-43.8 2.8-21.5-4.6-37.6-14.1-55.7 0 0 5.4-21.9-5.9-29.9-11.2-8-22.4-2.1-35.1-20.6s-50.7-37.8-76 4.9c-25.3 42.7-31.5 57.5-34.8 81.9-3.3 24.4-12.1 81.9 18.7 113.2z" style="opacity:.58;fill:#fff;enable-background:new"/><path d="M389.7 452.5s17.6-57.4 35.2-80.7 49.4-56.8 40.5-76.7c-8.9-19.9-23.7-29.5-41.4-40 0 0-7-21.4-20.8-22.3s-20 10.1-40.6.9c-20.6-9.1-63-5.5-61.9 44.3s3.6 65.4 13.5 88 32.8 76.2 75.5 86.5z" style="opacity:.61;fill:#fff;enable-background:new"/><path d="M474.4 335.7c-1 33.6-6 85.8-25.9 95.6-22.4 11-47.8 24.6-73.4 15.6-.5-1.4-.9-2.6-1.3-3.9 0 0 37.5 4.9 50-46.5 9.6-38.5 30.8-59.3 50.6-60.8z" class="st6"/><path d="M395.4 462.9c8.8 28.6-10.9 49.5-10.9 49.5s4.4 4.4-34.3 25.2c-24.6 13.4-53.4 16.8-80.4 9.3-6.9-1.8-20.5 3.3-27.1-8.2 21.6-9 45.2-33.5 70-62.2 22.6-26.2 57.1-22.1 82.7-13.6z" class="st5"/></g></svg>