<svg xmlns="http://www.w3.org/2000/svg" id="Layer_1" data-name="Layer 1" viewBox="0 0 1000 1000"><defs><style>.cls-10,.cls-2,.cls-3,.cls-4,.cls-5,.cls-7{fill:#fff;isolation:isolate}.cls-2{opacity:.73}.cls-3{opacity:.59}.cls-4{opacity:.84}.cls-5{opacity:.76}.cls-7{opacity:.57}.cls-10{opacity:.68}</style></defs><path d="M467.08 56.6S455.22 69 476 137.5s-5.25 65.56-5.25 103.4c0 25.47-4 29.56-3.88 35.85-7.5-9.78-16.08-18.61-29.14-42.19-19.72-35.6-25.2-31.12-25.2-31.12l-7.74 1s7.38 11.78 30.29 51.13 18.58 47.44 27.48 66.89 10.82 51.83 10.82 51.83c4.92 22.43 12.47 106.8 12.47 106.8s-1.77 6.38-10.82 4.81-45.76-15.41-62.34-27.06-22.95-30.32-22.95-30.32l-8.55 7.93c-4.51 11.71 30.24 42.51 39 47.32s30.28 12.6 36.1 13.54 26.14 8.38 30.95 17 6.54 27.25 15.13 48.2 13.76 17.5 24.91 67.88 11.08 88.17 12.24 115.76-2.42 17.44-2.42 17.44 5.56 3.15-20.7-10.79c-28.31-15-32.41-32.94-32.41-32.94s-6.47-8.89-12.35-24.9-9.6-18.51-13.18-34.84-8.1-24.47-8.1-24.47l-6.36 8.16s3.6 22.31 23.51 73.28 64.05 65.45 67.39 80.79-1.21 34-1.21 34-1.32 32.31-4.41 60.13-15.36 44.82-8 51.35c0 0 16.42-1.38 27.61-9.7s13.52-22 17.1-23.55c8.72-3.61 12.76-43.41 9.14-69.6-7.94-57.48-5.7-31.83-5.17-107s-6.46-71.45-6.46-71.45 10.27-19.32 43.37-25.29S670.52 591 670.52 591s9.75-17 12-34.85-3.07-36.63-3.07-36.63l-11.18 2.23s-.56 17.67-4.48 31.78a90.3 90.3 0 0 1-11.18 24.63s-29.9 27-51 36.07-51.61 3.12-51.61 3.12l-29.94-66.88c-8.66-16.13-13.3-56.25-13.3-56.25-17-70.39-14.85-117-23-154.68-.28-6.37-2.56-46.81-2.27-57.67.74-27.88 12.35-70.29 15.69-99s-8.89-38.64-17-72.11-7.6-39.8-7.6-39.8c.31-5.96-5.5-14.36-5.5-14.36Z" style="fill:#fff;isolation:isolate;opacity:.96"/><path d="M363.69 445.69s-81.56 6.07-91.36-106.69c0 0-2.2-93 91.7-47 0 0 53.93 29.89 52 96.38-.03-.01 3.66 41.73-52.34 57.31Z" class="cls-2"/><path d="M379.78 399.48s12.19-10.07 7-33.76-11.73-32.75-12.2-48.88 85.51-82.18 143.17-17.16c0 0 57.59 87.23-14.17 156.77 0 0-15.85 15.53-37.73 9.64-16.78-4.51-1.43-34.09-31.74-42.91s-40.77-1-47.81 2.48-11.59-7-13.73-11.7.92-9.96 7.21-14.48Z" class="cls-3"/><path d="M357.41 418.24s-13.16 8.58-31.85-5.18-24.17-23.6-38-29.9S185.32 439 220.83 520.31c0 0 54.83 89.25 141.15 42.56a46.52 46.52 0 0 0 22-34.33c2.15-18.43-29.07-13.77-25.72-47.29s13.87-41.21 19.46-47-1.85-14.13-5.18-18-8.9-2.65-15.13 1.99Z" class="cls-3"/><path d="M367.66 451.24s-40.21 1.43-56.46 42.29-13 77.77-3.25 96.76c0 0 9.16 9.68 33.4 3.24s40.5-26.17 44.66-40.15c0 0 13-29.38 9.16-50.53s-11.54-45.52-27.51-51.61ZM412.15 425.66s14.78-40.94 54.59-44.68 69.66 11.35 82.3 27.47c0 0 5 12.52-8.55 35.42s-35.66 33.37-48.79 33.19c0 0-29.05 4.05-45.5-6.67s-34.34-26.39-34.05-44.73Z" class="cls-4"/><path d="M379.67 540.69s18.35 3.21 35 7.93c8.74 2.48 14.9 8.88 22.18 7.9 21.14-2.86 27.73-7.63 32-30 .67-3.57-1.2-14.5-.76-18.24 2.29-19.68 7.65-34.94 5.7-41.14-2.3-7.38-26.85-.06-26.85-.06s-6.3 14.15-17.63 3.07-22.98-39.93-39.71-28.15c-13.4 9.44 3 33 6.61 48.86s-10.41 22.89-10.41 22.89-9.87 14.54-6.13 26.94Z" class="cls-5"/><path d="M404.62 402c-9.17 1-4 14.77-.5 25.75 1.9 5.88.37 15.49-4.75 19.53s-13.89 2.52-18.58-1.18c-9.9-7.82-22.49-19.07-24-2.13s10.78 29.11 20.29 34.94 16.38 11.17 23.13 4.48c7.44-7.38 1.56-13.81 1.6-20.78 0-9.62 2.49-8.32 2.49-8.32s-.37-2.87 8.21-.05c6.21 2.05 10.13 10 18.93 4.59 8-4.89 5.3-13.55 3-25.05S425 406 409.46 402.45a15.49 15.49 0 0 0-4.84-.45Z" style="opacity:.93;fill:#fff;isolation:isolate"/><path d="M655.48 530.05s-62.28-21.59-38.29-108.49c0 0 24.15-69.79 81.15-5.56 0 0 31.76 39.45 11.86 88.2 0 0-8.81 32.19-54.72 25.85Z" class="cls-2"/><path d="M680.23 500.87s11.85-3.58 14.58-22.82.37-28.09 4.49-40.21 86.27-33.71 111.1 33c0 0 18.61 83.21-54 111.91 0 0-16.08 6.46-30.7-4.91-11.21-8.72 8.4-25.75-11.69-42s-30-13.81-36.2-13.45-6.65-8.89-7-13.08 3.49-7.06 9.42-8.44Z" class="cls-7"/><path d="M658.42 507.61s-12.15 2.16-22.22-14-11.4-25.26-20-34.33-91.42 8.77-87.58 80.53c0 0 16 83.83 93.06 76.75a34.48 34.48 0 0 0 25.86-18.42c6.71-13-17.78-19.52-6-43.34s21.73-26.18 27.5-28.69 2.54-11.09 1.13-15-5.84-4.92-11.75-3.5Z" class="cls-7"/><path d="M656.86 535.44s-30.25-11.8-53.65 13.35S572 602.39 574 619.62c0 0 4.13 10.12 23.92 13.09s37.34-6.49 44.28-15.55c0 0 17.81-17.66 20.81-34.59s4.05-37.5-6.15-47.13ZM697 530.67S719.36 505 750 515s48.59 30.71 53.52 46.72c0 0 .25 10.9-16.16 23.56s-35.73 13.35-45.43 9c0 0-22.71-6.29-32-19.49s-18.22-30.56-12.93-44.12Z" class="cls-4"/><path d="M690.26 493.79c-7.06-2.23-7 9.71-7.48 18.94-.25 5-4 11.62-8.94 13s-11-2.58-13.48-6.82c-5.18-9-11.4-21.39-17.26-9.28s-.06 25.07 5.39 32.42 9.08 13.53 15.94 10.72c7.6-3.1 5-9.76 6.94-14.91 2.71-7.14 4.17-5.39 4.17-5.39s.52-2.28 6.11 2.58c4 3.51 4.75 10.67 12.77 9.47 7.28-1.09 7.7-8.36 9.16-17.65s.73-23.64-9.83-31.22a13.17 13.17 0 0 0-3.49-1.86Z" style="opacity:.97;fill:#fff;isolation:isolate"/><path d="M677.43 543.39s-14.8-3.13-20.29 23.28-7.6 47.67 17.67 57.45 39.83-4.52 43.59-21c5.31-23.17.32-34-10.73-49.47s-30.24-10.26-30.24-10.26Z" class="cls-5"/><path d="M429.67 197.9s32.7-23.77 8.26-69.44-45.51-45.77-57.28-31S364.5 127 362.87 162.1s47.4 54.46 66.8 35.8Z" style="opacity:.71;fill:#fff;isolation:isolate"/><path d="M408 203s-7.65-37 10.45-69.81c0 0 4.84-24.37 12.48-20.54s25.24 21.63 21.67 47.92S428.38 209.61 408 203Z" class="cls-10"/><path d="M410.54 152.39s-3.8-43.25-33.89-44.89-29 52-15 74.18S397.54 208.51 408 205s3.82-43.85 2.54-52.61Z" class="cls-10"/></svg>