<svg xmlns="http://www.w3.org/2000/svg" viewBox="0 0 1000 1000" style="enable-background:new 0 0 1000 1000" xml:space="preserve"><style>.st1{fill-opacity:0}.st2{fill:#fff}.st3{opacity:1.000000e-02;fill:none;stroke:#007aff;stroke-width:10;stroke-linejoin:round;enable-background:new}</style><path style="stroke:#fff;stroke-miterlimit:10" d="M-311.6-205.7h1621.1v1407.4H-311.6z" id="Layer_2"/><g id="Layer_1"><path class="st1" d="M528.6 934.3h1v1h-1v-1zm-214.8 0h1v1h-1v-1zm214.8-716.1h1v1h-1v-1zm-214.8 0h1v1h-1v-1z"/><path class="st2" d="M523.6 226.9s-11.7-10.1-24.7 117.6c-6.4 63.1-13.9 133-25.2 200.5-11.5 69-27 135.4-49.6 189.7-44.6 107.5-69.2 153.7-69.2 153.7l-24 41.1-12.1-4.9s12.1-7 47.7-84.8 62.9-162 75.1-194.7 25.7-119.2 30.9-156.4 15.8-129 18.2-144.8 3.5-36 7.8-55.1 3.2-33.6 14.6-59.4l1.9-6.4 8.6 3.9z"/><path class="st3" d="M523.6 226.9s-11.7-10.1-24.7 117.6c-6.4 63.1-13.9 133-25.2 200.5-11.5 69-27 135.4-49.6 189.7-44.6 107.5-69.2 153.7-69.2 153.7l-24 41.1-12.1-4.9s12.1-7 47.7-84.8 62.9-162 75.1-194.7 25.7-119.2 30.9-156.4 15.8-129 18.2-144.8 3.5-36 7.8-55.1 3.2-33.6 14.6-59.4l1.9-6.4 8.6 3.9z"/><path class="st1" d="M722.3 413.5h1v1h-1v-1zm0-328.4h1v1h-1v-1zm-330.7 0h1v1h-1v-1z"/><path d="M644.6 105c-9.1-4.8-22.6-7.8-42-7.7-77.7.4-75 56.8-76.8 85.8s-9.2 34.9-12.4 32.1-7.1-10.9-.7-43.5c6.4-32.6 27.7-55.8 18.8-75.7s-34.8-38-59.4-28.8-78.4 60.8-55.5 97.2 39 36.3 66 41.2c11.1 2 17.3 9.8 17.2 13.4s-17.5.8-17.5.8-36-12.5-55.7-22.3-25.8-31.9-54.4-15-33.6 20.2-30.7 59.7 44.2 50.5 65.6 45.6 20.1-9.2 50.3-32.7c26.4-20.5 40-22.6 42.7-19.6s-19.5 22-31.9 31.6c-20.5 15.8-24.3 7.8-34.6 30.7s-10.1 35 1 50.7 15.8 35.4 42.6 34.5 37.3-4.4 46.2-17.3 23.6-29.6 17.3-46.3-10.4-34.2-13.9-45.2-17.1-32.3-13.8-42.5c1.7-5.1 5.5 1 5.5.4 1.4 2.1 2.6 4.3 3.6 6.6 3.2 7.1 5.9 16.7 8.2 25.2 1.6 5.9 3 11.2 4.2 14.9 3.7 11.1 10.6 27.9 15.3 45.4s26.3 20.9 40.7 25 24.8.1 46.4-17.5 13.9-36.4 13.4-56.4-7.1-29.9-28.7-41.1-20-2.2-45.4-.9c-21.4 1.1-46.7-5.6-49.4-9.7-1.9-2.9 4.2-3.7 12.1-6.1 12.7-3.9 26 3.8 54.1-1.8s45.8-24.4 57.9-47.5c9-17.1 21-48.7-6.3-63.2z" style="opacity:.75;fill:#fff;enable-background:new"/><path d="M694 244.9c-2.3-10-8.8-22.2-21.6-36.8-51-58.6-92-19.7-115.1-2.1s-32.4 15.8-32.4 11.6 3.6-12.5 32.5-28.9 60.3-15.5 69.6-35.2 6-51.2-17-63.8-97.3-19.7-109.9 21.4S498 164.3 512 188c5.7 9.7 3.9 19.5 1.1 21.8S501 197 501 197s-14-35.4-19.5-56.8 7.3-40.4-24.2-51S420.1 77 392.1 105s-9.4 66.5 8.3 79.5 20.1 9.2 57.6 16.7c32.8 6.6 43.2 15.5 42.7 19.5s-29.4-.4-44.8-3.5c-25.4-5.2-21.8-13.3-45.9-6.1s-33.1 15.2-37.7 33.9-16.5 35.1 1.7 54.8 27.7 25.4 43.3 23.7 37.8-1.5 46.4-17.1 19.1-30.2 25.1-40 13.3-34 23.2-38.2c5-2.1 2.8 4.8 3.3 4.4-.7 2.4-1.6 4.7-2.7 7-3.3 7.1-8.8 15.4-13.7 22.7-3.4 5.1-6.5 9.6-8.5 12.9-6 10-14.2 26.2-24.4 41.2s1.4 33.6 7.6 47.1 16.1 18.8 43.6 23.7c27.4 4.9 36.6-13.2 51.5-26.7s18-24.9 12.4-48.6-11.4-16.6-29-35c-14.8-15.5-26.3-39-24.9-43.7 1-3.3 5.5.8 12.5 5.2 11.2 7.1 14.1 22.2 36.7 39.8s48.4 18.7 73.8 12.8c18.8-4.4 50.6-15.9 43.8-46.1z" style="opacity:.57;fill:#fff;enable-background:new"/><path class="st1" d="M607.6 226h1v1h-1v-1zm-88.9 0h1v1h-1v-1zm88.9-109.3h1v1h-1v-1zm-88.9 0h1v1h-1v-1z"/><path class="st2" d="M528.2 219.8s32.9-19.5 49.1-39 21.5-25.5 24.4-32.7-1.2 8.3-25.8 28.8-38.7 29.9-38.7 29.9 1.6-3 9.4-15.2c0 0-14 12.6-16.5 19.4s-6.4-.1 9.4-32.5c10-20.2 22.1-39.2 36.2-56.8 0 0-37.4 35.3-46.3 69.9l-5.8 23.1v6.2l4.6-1.1z"/><path class="st3" d="M528.2 219.8s32.9-19.5 49.1-39 21.5-25.5 24.4-32.7-1.2 8.3-25.8 28.8-38.7 29.9-38.7 29.9 1.6-3 9.4-15.2c0 0-14 12.6-16.5 19.4s-6.4-.1 9.4-32.5c10-20.2 22.1-39.2 36.2-56.8 0 0-37.4 35.3-46.3 69.9l-5.8 23.1v6.2l4.6-1.1z"/><path class="st1" d="M629.3 267.4h1v1h-1v-1zm-102.2 0h1v1h-1v-1zm102.2-36.5h1v1h-1v-1zm-102.2 0h1v1h-1v-1z"/><path class="st2" d="M532 236.3c13.3 7.5 27.2 13.7 41.6 18.6 24.3 8.3 50.7 7.5 50.7 7.5l-56.9-12.8-25.1-10.3s34.8 10.7 39.9 10.7c0 0-.7.5 5.3.1s13-1.1 13-1.1-12 .4-19.2-1.6-10.6-2.7-21.9-5.9-6.8-2.3-15.1-3.7-10-1.9-11-1.9"/><path class="st3" d="M532 236.3c13.3 7.5 27.2 13.7 41.6 18.6 24.3 8.3 50.7 7.5 50.7 7.5l-56.9-12.8-25.1-10.3s34.8 10.7 39.9 10.7c0 0-.7.5 5.3.1s13-1.1 13-1.1-12 .4-19.2-1.6-10.6-2.7-21.9-5.9-6.8-2.3-15.1-3.7-10-1.9-11-1.9"/><path class="st1" d="m554.8 287.4.7-.7.7.7-.7.7-.7-.7zm-51.7 53.7.7-.7.7.7-.7.7-.7-.7zm9.6-94.1.7-.7.7.7-.7.7-.7-.7zM461 300.7l.7-.7.7.7-.7.7-.7-.7z"/><path class="st2" d="M512.8 254s3.1 4.5-2.5 37.7-5.9 33.1-7.3 42.4c0 0 4-31.8 4.6-44.8s.8-17.7-3.5-7.7-14.2 31.4-14.2 31.4l22.9-59z"/><path class="st3" d="M512.8 254s3.1 4.5-2.5 37.7-5.9 33.1-7.3 42.4c0 0 4-31.8 4.6-44.8s.8-17.7-3.5-7.7-14.2 31.4-14.2 31.4l22.9-59z"/><path class="st1" d="M506.3 224h1v1h-1v-1zm-47.5 0h1v1h-1v-1zm47.5-77.4h1v1h-1v-1zm-47.5 0h1v1h-1v-1z"/><path class="st2" d="M501.3 219s-21.3-22.9-31.1-48.5l-6.3-18.8 14.8 25.6s7.1 14.5 7.9 15.6 14.7 26.1 14.7 26.1z"/><path class="st3" d="M501.3 219s-21.3-22.9-31.1-48.5l-6.3-18.8 14.8 25.6s7.1 14.5 7.9 15.6 14.7 26.1 14.7 26.1z"/><path class="st1" d="M513.6 236.9h1v1h-1v-1zm-84.7 0h1v1h-1v-1zm84.7-26.3h1v1h-1v-1zm-84.7 0h1v1h-1v-1z"/><path class="st2" d="M498.9 222.4s-4.2-2.3-21-5.2-10-1.1-10-1.1l11.3 4.7 10.7 4s-8.7 2.5-14.4 2.5 4.7-1.8-12.1.6-22.8 1.1-28.3-.7 8.8 4.7 11.8 4.7 15.6.4 22.9-.3 3.4.8 14-1.2 8.7-4.3 15.7-2.6 9.1 3.3 9.1 3.3l-9.7-8.7z"/><path class="st3" d="M498.9 222.4s-4.2-2.3-21-5.2-10-1.1-10-1.1l11.3 4.7 10.7 4s-8.7 2.5-14.4 2.5 4.7-1.8-12.1.6-22.8 1.1-28.3-.7 8.8 4.7 11.8 4.7 15.6.4 22.9-.3 3.4.8 14-1.2 8.7-4.3 15.7-2.6 9.1 3.3 9.1 3.3l-9.7-8.7z"/><path class="st1" d="M568.8 264.2h1v1h-1v-1zm-86.2 0h1v1h-1v-1zm86.2-65.6h1v1h-1v-1zm-86.2 0h1v1h-1v-1z"/><path class="st2" d="M507.8 235.3c-4.6 5.1-7.6.1-13 6.2s-5.1 9.3-3.6 13.6c3.1 8.8 17 1.2 21.3-3.1 4.3-4.3 4.9-17.1 5.5-22.1s1.3-8.1 1.3-8.1l4.2-1.4h5.4s12.7 8.4 20.7 4.8c4.1-1.9 11.5-8.9 11.5-8.9s5.7-10 0-10.4c-9.2-.7-9.6 6.2-18.4 8.9s-12-.6-17 1.6-6.4 3.4-6.4 3.4-.5-3.6-5.7-10.8-16.9-5.6-22.2-3.8-4.8 11.6-.3 11.2 12.5-1.9 16.6 0 4.9 4.2 4.9 4.2 3 1.7 2.2 4.6-2.4 5-7 10.1z"/><path class="st3" d="M507.8 235.3c-4.6 5.1-7.6.1-13 6.2s-5.1 9.3-3.6 13.6c3.1 8.8 17 1.2 21.3-3.1 4.3-4.3 4.9-17.1 5.5-22.1s1.3-8.1 1.3-8.1l4.2-1.4h5.4s12.7 8.4 20.7 4.8c4.1-1.9 11.5-8.9 11.5-8.9s5.7-10 0-10.4c-9.2-.7-9.6 6.2-18.4 8.9s-12-.6-17 1.6-6.4 3.4-6.4 3.4-.5-3.6-5.7-10.8-16.9-5.6-22.2-3.8-4.8 11.6-.3 11.2 12.5-1.9 16.6 0 4.9 4.2 4.9 4.2 3 1.7 2.2 4.6-2.4 5-7 10.1z"/><path class="st1" d="M707.1 810.7h1v1h-1v-1zm-325.6 0h1v1h-1v-1zm325.6-452.3h1v1h-1v-1zm-325.6 0h1v1h-1v-1z"/><path class="st2" d="M386.5 805.7s97.2-46.6 148.7-174c18.2-45 38.8-94.8 75.4-153.6 24-38.6 53.9-67.1 91.6-114.6 0 0-103.5 131.1-141 260.6-16.5 57.1-40.3 96.9-67 124.6-34 35-72.8 50.5-107.7 57z"/><path class="st3" d="M386.5 805.7s97.2-46.6 148.7-174c18.2-45 38.8-94.8 75.4-153.6 24-38.6 53.9-67.1 91.6-114.6 0 0-103.5 131.1-141 260.6-16.5 57.1-40.3 96.9-67 124.6-34 35-72.8 50.5-107.7 57z"/><g style="opacity:.77"><path class="st1" d="M444.7 695.5h1v1h-1v-1zm-161.7 0h1v1h-1v-1zm161.7-424h1v1h-1v-1zm-161.7 0h1v1h-1v-1z"/><path class="st2" d="M438.7 622.5c-5-35.6-5.7-28.2-30.5-74.6s-73.1-89-97.7-151.2-19.2-79.5-16.7-120.2c0 0-26.8 83.1 35 191.2 39.5 69.1 61.5 103 77.5 144.2 9 23.3 19.3 61.5 22 78.6 0 0 15.4-32.3 10.4-68z"/><path class="st3" d="M438.7 622.5c-5-35.6-5.7-28.2-30.5-74.6s-73.1-89-97.7-151.2-19.2-79.5-16.7-120.2c0 0-26.8 83.1 35 191.2 39.5 69.1 61.5 103 77.5 144.2 9 23.3 19.3 61.5 22 78.6 0 0 15.4-32.3 10.4-68z"/></g><g style="opacity:.78"><path class="st1" d="M346.7 902.6h1v1h-1v-1zm332.9-301.9h1v1h-1v-1zm-332.9 0h1v1h-1v-1z"/><path class="st2" d="M376.5 833.5c22.1-28.4 19-21.7 63.6-49.5s107.7-40.7 160-82.4 56.3-59.3 74.4-95.9c0 0-18.2 85.4-125.7 148.3-68.6 40.2-104.6 58.6-139 86.4-19.4 15.7-47.4 43.7-58.2 57.2.1 0 2.8-35.7 24.9-64.1z"/><path class="st3" d="M376.5 833.5c22.1-28.4 19-21.7 63.6-49.5s107.7-40.7 160-82.4 56.3-59.3 74.4-95.9c0 0-18.2 85.4-125.7 148.3-68.6 40.2-104.6 58.6-139 86.4-19.4 15.7-47.4 43.7-58.2 57.2.1 0 2.8-35.7 24.9-64.1z"/></g></g></svg>