<svg xmlns="http://www.w3.org/2000/svg" xml:space="preserve" id="Layer_1" x="0" y="0" style="enable-background:new 0 0 1000 1000" version="1.1" viewBox="0 0 1000 1000"><style>.st0,.st2{opacity:.57;fill:#fff;enable-background:new}.st2{opacity:.71}</style><path d="M548.8 180.9s1.9 1 6.4 10.7-.2 9.7-.2 9.7-3.4-5.4-7.3-8.1-13.1-2.1-20.7-12.3-64.5-37.6-64.5-37.6-19.4-24.4-30.9-24.9c-20.5-.8-42.1 24.5-47.5 49 0 0 .9 2.3-2.9 8.9s-12.6 4.9-12.1 19.8c0 0 1.1.2 3.6 10.1s-3.6 8 5.8 17.3c0 0-4.5-2-.2 8.3 0 0-4.7.4 2.2 9.5s6.2 5.7 15.5 9.3 1.4 5.1 14.3 8 29.8 2 34.6-1.4 18-10.1 25-16.8 19.6-12.9 22-14.8 11.4-5.8 18.1-8.2c6.7-2.4 18.3-10.7 22-4.3s-9.8 7.1-13 6.7-29.3 13.8-37.2 17.1-16.3 9.8-22.3 13.9-15.8 14.7-22.4 29-12.5 19.2-8.1 30-.4 7.7 4.7 14.7c0 0-2.9 2.7 6.4 10.7s13 5.5 13 5.5-8.8 4.8-.3 13.6 10.1 8.5 19.6 8.7 13.9-3.4 19-2.4-3.1.1 7.1 2.5 19.6 4.3 25.7-1.5c0 0 1.1 3 5.8-.3s10.1-10.7 9.8-15.3 1.5-5.4 2.8-8.9 8.9-32 7.5-42.9-.2-2.8.1-16.1c0 0-3.8-27.2.7-37.3s7.4-13.8 9.4-10.1.2 10.1-3.1 16.6-2.6 8.2-4.2 15.2c-1.5 7.1-.5 22.1-1 27s-10 66.4 9.2 66.6c0 0 3 .9 7.8 2.7s5.6 6 17 7.7l9.3 1.2s-.1 5.5 4.1 5.4 16.8-.8 20.4-6.4 1 0 8 3.3 25 10.4 38.6-7.4 17.8-12.4 23.4-15.5 8.6-4.9 5.4-15.1.7-17.3 1.4-21.4c0 0 4.6-7.4-10.5-21.6 0 0-3.9-10.3-6.6-15.3s-16.1-22-33.6-24.5c0 0-13.1-12.9-28.9-14.1s-9.7-2.4-18-2.4-8-2.8-11.6-4.5-4.9-5.4.4-5.1 14.6 3.7 16 4.9 13.6 4.2 16.8 5.2c6.2 1.6 12.2 3.7 18.1 6.4 10.2 4.6 3.7 4.9 18.5 7.7s12.8 4.7 22 3.1 14.2-8.3 19.1-13 6.6-3.8 10.2-10.7 3.6-11.4 3.6-11.4 2.9-2.1 3.8-7.2-1.4-10.4-1.4-10.4 11.3-7.9 8.8-25.2c0 0-1.6-4.5-3.1-9s1.2-2.4-1.2-12.6-15.1-17.9-15.1-17.9-.8-9.7-4.5-13.3c-2.6-2.4-5.6-4.3-8.9-5.7 0 0-3.3-6.2-5-8s-4.2-3.3-8.5-2.9-9.3.8-11.7 1.9-18.7 12.6-18.7 12.6-5.7 1-10.5 13-17.1 20.8-17.1 20.8-15 13.2-21.1 21.6-10.4 11-16.6 19.1-16 13.9-15.4 2.1c6.2-3.9 12.2-8.3 17.8-13 9.2-7.7 16.8-21.8 17.7-23.4s9.1-17.1 13.9-22.2 17.5-24.8 7.2-49.8c0 0-3.5-16.7-13.4-23.6s-21.4-7.1-29.9-7.3-10.8-6.4-22-8.7-16.5.5-16.5.5l-7.4 2.9s3.2-.6-4.4-2-15.6 3-15.6 3l-8.3 6s-6.1-.5-9.6 8.6c0 0-7.8.6-13.4 4.2s-12.9 7.8-14.6 23.5 2.2 22 11 32.3 8.2 6.3 21 22.7 23.8 22.5 32.8 26.8" class="st0"/><path d="M554.1 189.7c3 4-3.8-3.8 2.5 7.9 3.7 6.9-1.3 3.6-1.3 3.6s-2.7-2.2-5.3-4.2.8.4-14-8.4c-6.9-4.1-11.1-12.2-17.8-17.4-7.7-5.9-23.6-16.3-23.6-16.3s-24.4-19.6-33.3-19.3c-7.6.2-18.8 8.3-21 17.1-1.3 4.9 1 19.7-.1 25.5 0 0 .6 1.7-1.9 6.7s-8.2 3.6-7.9 14.8c0 0 .7.1 2.4 7.5s-2.3 6 3.8 12.9c0 0-3-1.5-.2 6.2 0 0-3.1.3 1.5 7.1s4.1 4.3 10.2 6.9.9 3.8 9.4 6 11.8-9.7 14.9-12.2c0 0 13.9-2.8 18.5-7.8 2.3-2.5 10.5-5.4 10.5-5.4 1.7-1.7 3.8-3.1 6-4.1 3.7-1.6 3.9-1.5 8.9-2.2 5-.7 13.2-6.8 15.7-2s1.6 2.3-2.6 4.4-14.4 4.1-14.4 4.1c-6.1 3.2-6.9 7.3-10.6 9.1-5.2 2.5-10.7 7.3-14.6 10.3-2.5 2-15.9 5.9-24.7 12.2-4.9 3.5-6.8 8.5-8.3 12.4-4.3 10.7 2.9 12.5 5.8 20.6s7 4.6 10.3 9.8c0 0-1.9 2 4.2 8s8.5 4.1 8.5 4.1-5.7 3.5-.2 10.1 6.6 6.3 12.9 6.5 9.1-2.5 12.4-1.8c3.3.8-2 .1 4.6 1.9s12.8 3.2 16.8-1.1c0 0 .7 2.2 3.8-.2s6.7-8 6.4-11.4 1-4 1.9-6.6 5.8-23.8 4.9-31.9-.2-2 0-12c-.7-4.6-.6-9.2.1-13.8.8-4.6 3.9-9.6 5-12.6 3-7.6 5.3-5 6.6-2.2s-.1 8.3-.1 8.3-5 10.1-6 15.4c-1 5.3-4.1 9.8-4.4 13.3s-6.6 49.5 6 49.7c0 0 2 .6 5.1 2s3.7 4.5 11.2 5.7l6.1.9s-.1 4.1 2.7 4 11-.6 13.3-4.8.7 0 5.2 2.5 16.4 7.9 25.3-5.5 11.7-9.2 15.3-11.5 5.6-3.6 3.6-11.2.5-12.9.9-16c0 0 3-5.5-6.9-16.1 0 0-3.8-9.2-5.6-13s-9.4-18.5-21.4-21.2c-1.7-.4-12.1-.3-17.3-2.4-6.7-2.8-10.5-8.3-10.3-8.9.3-1.2 5.9 0 14.4 2.4 4.1 1.1 13.1 3.6 14.4 4.3 6.7 3.4 18.1 7.1 26.5 7.2s4-3.2 7.1-6.7 11.6-5.2 11.6-5.2l-.3-10.1s1.9-1.5 2.5-5.3 7-4.2 7-4.2c-1.9-7.7-3.3-15.6-4.3-23.5l-2-6.7c-1-3.4.8-1.8-.8-9.4s-9.9-13.3-9.9-13.3-.5-7.2-2.9-9.9c-1.7-1.8-3.6-3.2-5.8-4.2-.2-.8-.5-1.5-1.1-2.1-1.3-1.7-3.5-2.5-5.6-2.2-2.8.3-6.1.6-7.7 1.4s-5.8 5.7-5.8 5.7-3.8.8-6.9 9.7-11.2 15.3-11.2 15.3-6.1 10-13.4 16.8c-5.4 5-7.2 7.5-11.3 13.5s-12.7 6.5-12.2-2.3c4.1-3 8-6.2 11.7-9.7 6-5.8 11-16.2 11.6-17.4s6-12.8 9.1-16.6 5-14.9-1.7-33.5c0 0-2.3-12.4-8.8-17.6s-14-5.3-19.6-5.4-7.1-4.8-14.5-6.5-10.8.3-10.8.3l-4.9 2.2s2.2-.4-2.8-1.4-10.2 2.2-10.2 2.2l-5.5 4.5s-4-.3-6.3 6.4c-3.1.3-6.1 1.4-8.8 3.2-3.6 2.7-8.4 5.8-9.6 17.6s1.4 16.4 7.2 24.1 5.4 4.7 13.7 16.9c8.4 12.2 31.1 16.8 31.1 16.8s4.5 4.6 7.4 8.7z" class="st0"/><path d="M549.7 274.2c-.3-3.1-.7-7.5-.8-12.3v-1.4c-.2-6.6.1-13.4 1.6-17.9-.6 1.5-1.1 3.1-1.4 4.6.2-1.2.6-2.4 1-3.5l-3.5 8.9c-5 14.4-8.6 29.3-10.8 44.4-1.3 8.9-2.1 17.9-2.2 26.9-.1 11 .3 22 1.3 32.9 1.1 13.1 2.9 28.5 5.8 47.6 12 79.9 30.3 117.9 40.2 159.8 3.8 15.7 2.6 40-2.5 68-2.6-5.4-5.5-10.7-8.8-15.8-5.2-7.8-11.1-15-17.7-21.7-42.8-44.6-123.6-93.4-151.5-121.9 9.5 10.9 31.4 34.8 78.4 80.8 55.3 54.2 71.4 72.8 78.5 85.1-9.9-6.3-25.4-14.7-49.2-25.8-95.6-44.7-87.9-32.8-87.9-32.8s118 41.9 134 68.4c8.7 14.4 12.3 22.3 14 26.8-.6 2-1.1 3.9-1.7 5.9-38.7 130.4-83.6 192.6-127.1 238.4L419.6 952l22.1 2.4S522 849.7 546.5 787.6c6.7-16.9 11.7-30.5 16.1-42.5 5.2-1.4 24-6.7 32.8-12 10.1-6.1 15.6-11 49.8-40.5S791.4 573 791.4 573s-22.9 17.9-81.5 54.1-9.7 3.3-74.7 54.5-28 15.6-28 15.6c15.8-25.3 88.9-103.6 88.9-103.6-44 37.2-45 34.3-109.4 104.5-5.5 6-9.4 10.5-13.5 15.2 5.1-16.3 9.1-31.2 14.2-50.4 12.2-45.9 10.8-77.4-4.7-145.3 0 0-22.7-51.4-26.6-75-5.2-31.3-11.3-55.8-13-83.2-.5-7.4-.4-15.1-.2-23.1.4-12.6 1.7-27.2 4.1-45.1.5-4 .9-7.6 1.6-12l.1-.4.8-2.4c0-.8 0-1.4.2-2.2z" style="opacity:.85;fill:#fff;enable-background:new"/><path d="M340.1 456.3s-1.4.8-4.9 8.2.1 7.4.1 7.4c1.5-2.4 3.3-4.5 5.5-6.3 2.9-2.1 9.9-1.6 15.5-9.5s48.5-28.9 48.5-28.9 14.6-18.7 23.2-19.1c15.4-.6 31.6 18.8 35.7 37.6 0 0-.7 1.7 2.1 6.9s9.5 3.8 9.1 15.2c0 0-.9.1-2.7 7.8s2.7 6.2-4.3 13.3c0 0 3.4-1.5.2 6.4 0 0 3.5.3-1.7 7.3s-4.7 4.4-11.7 7.1c-7 2.7-1 3.9-10.7 6.1s-22.4 1.5-26-1.1-13.5-7.8-18.7-12.9-14.7-9.9-16.5-11.4-8.6-4.5-13.6-6.3-13.7-8.2-16.5-3.3 7.4 5.5 9.8 5.2 22 10.6 27.9 13.2 12.2 7.5 16.8 10.6c4.5 3.1 11.9 11.3 16.9 22.3s9.4 14.7 6.1 23.1.3 5.9-3.5 11.3c0 0 2.2 2.1-4.8 8.2s-9.8 4.3-9.8 4.3 6.6 3.7.2 10.4-7.6 6.5-14.7 6.7-10.4-2.6-14.2-1.8 2.4.1-5.3 1.9-14.7 3.3-19.3-1.1c0 0-.8 2.3-4.4-.2s-7.6-8.2-7.3-11.7-1.1-4.2-2.1-6.8-6.7-24.6-5.6-32.9.2-2.1-.1-12.4c0 0 2.9-20.9-.5-28.7s-5.6-10.6-7-7.7-.2 7.7 2.3 12.8 2 6.3 3.1 11.7.4 17 .7 20.7 7.5 51-6.9 51.2c0 0-2.2.7-5.8 2.1s-4.2 4.6-12.8 5.9l-7 .9s.1 4.2-3.1 4.2-12.6-.6-15.3-4.9-.8 0-6 2.5-18.8 8-29-5.7-13.4-9.5-17.6-11.9-6.4-3.8-4.1-11.6-.5-13.3-1.1-16.4c0 0-3.5-5.7 7.9-16.6 0 0 2.9-7.9 4.9-11.8s12.1-16.9 25.2-18.8c0 0 9.9-9.9 21.7-10.8s7.3-1.9 13.5-1.9 6.1-2.2 8.7-3.4 3.6-4.1-.3-3.9-11 2.9-12 3.7-10.2 3.2-12.6 4c-4.7 1.2-9.3 2.9-13.6 4.9-7.7 3.5-2.8 3.7-13.9 5.9s-9.6 3.6-16.5 2.4-10.7-6.4-14.3-10-5-3-7.7-8.2-2.7-8.8-2.7-8.8c-1.6-1.4-2.6-3.4-2.9-5.5-.3-2.7 0-5.5 1.1-8 0 0-8.5-6.1-6.6-19.4 0 0 1.2-3.4 2.3-6.9s-.9-1.8.9-9.7 11.3-13.7 11.3-13.7.6-7.4 3.4-10.3c1.9-1.9 4.2-3.3 6.7-4.4 0 0 2.5-4.7 3.8-6.1 1.6-1.8 4-2.6 6.4-2.2 3.2.3 7 .6 8.8 1.5s14 9.6 14 9.6 4.3.8 7.9 10 12.9 15.8 12.9 15.8 11.3 10.2 15.9 16.5 7.8 8.4 12.5 14.7 12 10.7 11.5 1.6c-4.7-3-9.1-6.4-13.4-10-6.9-6-12.6-16.7-13.3-18s-6.8-13.1-10.4-17.1-13.2-19.1-5.5-38.2c0 0 2.7-12.8 10.1-18.1s16-5.5 22.5-5.6 8.1-4.9 16.6-6.7 12.4.4 12.4.4l5.6 2.2s-2.5-.5 3.3-1.5 11.7 2.3 11.7 2.3l6.2 4.6s4.6-.4 7.2 6.6c0 0 5.9.4 10 3.2s9.6 6 11 18.1-1.7 16.9-8.2 24.9-6.1 4.8-15.7 17.5-17.9 17.3-24.6 20.6" class="st2"/><path d="M336.1 463.1c-2.2 3.1 2.8-2.9-1.9 6.1-2.8 5.3 1 2.8 1 2.8s2.1-1.7 4-3.2-.6.3 10.5-6.5c5.2-3.2 8.4-9.4 13.4-13.3 5.8-4.5 17.7-12.5 17.7-12.5s18.3-15.1 25-14.8c5.8.2 14.1 6.4 15.8 13.1 1 3.8-.8 15.1.1 19.6 0 0-.4 1.3 1.4 5.1s6.2 2.8 5.9 11.3c0 0-.5.1-1.8 5.8s1.8 4.6-2.8 9.9c0 0 2.2-1.1.1 4.7 0 0 2.3.2-1.1 5.5s-3.1 3.3-7.6 5.3-.7 2.9-7 4.6-8.8-7.5-11.2-9.4c0 0-10.4-2.1-13.9-6-1.7-1.9-7.9-4.1-7.9-4.1-1.3-1.3-2.8-2.4-4.5-3.2-2.8-1.2-2.9-1.1-6.7-1.7s-9.9-5.2-11.8-1.5-1.2 1.8 2 3.4 10.8 3.1 10.8 3.1c4.6 2.5 5.2 5.6 8 7 3.9 1.9 8 5.6 11 7.9 1.9 1.5 12 4.5 18.6 9.4 3.6 2.7 5.1 6.6 6.2 9.5 3.2 8.2-2.2 9.6-4.3 15.8s-5.3 3.5-7.8 7.5c0 0 1.4 1.5-3.1 6.2s-6.4 3.2-6.4 3.2 4.3 2.7.2 7.8-5 4.8-9.7 5-6.8-2-9.3-1.3 1.5.1-3.5 1.5-9.6 2.4-12.6-.8c0 0-.5 1.7-2.9-.2s-5-6.1-4.8-8.7-.7-3.1-1.4-5.1-4.4-18.3-3.7-24.5.1-1.6 0-9.2c.5-3.5.5-7.1-.1-10.6s-2.9-7.4-3.8-9.7c-2.2-5.8-4-3.8-4.9-1.7s0 6.4 0 6.4 3.8 7.8 4.5 11.8c.7 4.1 3 7.5 3.3 10.2s4.9 38-4.5 38.2c0 0-1.5.5-3.8 1.6s-2.8 3.4-8.4 4.4l-4.5.7s0 3.1-2 3.1-8.3-.5-10-3.6-.5 0-3.9 1.9-12.3 6-19-4.2-8.8-7.1-11.5-8.9-4.2-2.8-2.7-8.6-.3-9.9-.7-12.3c0 0-2.3-4.2 5.2-12.4 0 0 2.8-7.1 4.2-10s7.1-14.3 16.1-16.4c1.3-.3 9.1-.2 13-1.9 5-2.1 7.9-6.4 7.7-6.9-.2-.9-4.5 0-10.8 1.8-3.1.9-9.9 2.8-10.8 3.3-5 2.6-13.6 5.4-19.9 5.5s-3-2.5-5.4-5.2-8.7-4-8.7-4l.2-7.8c-1.1-1.1-1.8-2.6-1.9-4.1-.4-2.9-5.2-3.2-5.2-3.2 1.4-5.9 2.5-11.9 3.3-18 0 0 .8-2.6 1.5-5.2s-.6-1.4.6-7.2 7.4-10.2 7.4-10.2.4-5.5 2.2-7.6c1.2-1.4 2.7-2.5 4.4-3.3.1-.6.4-1.2.9-1.6 1-1.3 2.6-1.9 4.2-1.7 2.1.2 4.6.4 5.8 1.1s4.3 4.4 4.3 4.4 2.8.6 5.2 7.4 8.4 11.8 8.4 11.8c2.8 4.7 6.2 9 10.1 12.9 3.3 3 6.2 6.5 8.5 10.4 3 4.6 9.5 5 9.2-1.8-3.1-2.3-6-4.8-8.8-7.5-4.5-4.4-8.3-12.5-8.7-13.4s-4.5-9.8-6.8-12.7-3.8-11.4 1.3-25.7c0 0 1.8-9.6 6.6-13.5s10.5-4.1 14.7-4.2 5.3-3.6 10.9-5 8.1.3 8.1.3l3.7 1.7s-1.6-.4 2.1-1.2 7.7 1.7 7.7 1.7l4.1 3.4s3-.3 4.7 4.9c2.4.2 4.6 1.1 6.6 2.4 2.7 2.1 6.3 4.5 7.2 13.5s-1.1 12.6-5.4 18.5-4 3.6-10.3 13-23.3 12.9-23.3 12.9-3.9 3.9-6.1 7z" class="st2"/><path d="M338.9 548.8s.2 10.3.2 17.8-.1 12.2-.1 12.2c.7 5 3 9.7 6.4 13.5 21.4 23.3 59.4 53.3 80 73.8s45.9 58.1 51.9 104.7c.3 2.1.4 4.3.5 6.5-5.5-7-14-17.5-29.2-33.6-22.8-24.1-47.5-46.5-73.7-66.9L302 631.2s69 49.6 92.8 77.4c22 25.7 49.3 53.2 46.8 52-19.6-9.2-39.9-16.8-60.7-22.7l-58.7-10.4s49.5 17.7 71.8 29.2c13.7 7.1 43.1 20.7 54.1 24.7 6.7 2.5 24.6 10.7 29.7 11.5-2.5 45-23.6 99.9-23.6 99.9l-14 25.5-18.6 33.2 22.7 2.3 17.2-31.8 17.1-40.5s18.7-51.8 15.4-115.6c-1.9-35.7-39.5-86.3-79.4-121.9-10.4-9.3-36.2-30.8-51-43.2-7.4-6.1-14.2-13.7-18.1-22.8l-6.6-29.2z" style="fill:#fff"/></svg>