<svg xmlns="http://www.w3.org/2000/svg" xml:space="preserve" style="enable-background:new 0 0 1000 1000" viewBox="0 0 1000 1000"><style>.st2,.st4,.st5{opacity:.83;fill:#fff;enable-background:new}.st4,.st5{opacity:.5}.st5{opacity:.3}.st10,.st13,.st6,.st7,.st8,.st9{opacity:.37;fill:#fff;enable-background:new}.st10,.st13,.st7,.st8,.st9{opacity:.2}.st10,.st13,.st8,.st9{opacity:.59}.st10,.st13,.st9{opacity:.39}.st10,.st13{opacity:.6}.st13{opacity:.31}.st14,.st15,.st16,.st17,.st19,.st22{opacity:.81;fill:#fff;enable-background:new}.st15,.st16,.st17,.st19,.st22{opacity:.64}.st16,.st17,.st19,.st22{opacity:.84}.st17,.st19,.st22{opacity:.55}.st19,.st22{opacity:.48}.st22{opacity:.49}</style><g id="Layer_16"><path d="m563 957.1 4.7 2.6s124.8-97.4-75.8-574.4c0 0-20.5-49-20.5-85.3l-5.8-.2s-2.1 46 26.3 107.6S653.1 803.9 563 957.1z" class="st2"/><path d="M605.3 849.2s40-47 58.3-56.9 60.4-40 28.1-89.8-74.4 14.1-28.1 34.4c46.3 20.3 86.4-24.6 77.2-61.8s-12.6-41.4-26.7-43.6c-14-2.1 1.1 33.7 31.6-12.6 30.5-46.3 19.7-127.1 58.6-131.6" style="opacity:.83;fill:none;stroke:#fff;stroke-miterlimit:10;enable-background:new"/><path d="M522.5 484.9s-35.1-26.7-67.4-74.4C423 363 331.3 274.7 315 339c7.8 3.6 14.8 10 19.3 15.3 6.7 7.7 21.1 3.5 21.1 3.5-3.9 10.1-16.1 6.7-20.3 2.5-4.2-4.2-12.3-3.8-8.1 2.8 4.1 6.4 15.1 28.1 15.7 29.4-1.1-1.4-19.6-25.4-20.3-18.2-.7 7.4-17.6 23.8-15.5 19.7 2.1-4.2 9.8-19.3.4-33.3-9.5-14-3.5-24.6-3.5-24.6.4 0 .8 0 1.2.1 1.9-5.9 19.5-51.3 93.2 1.3 0 0 37.2 34.4 63.2 72.3 16.7 23.9 36.2 45.6 58.3 64.6l2.8 10.5z" class="st4"/><path d="M567.4 922.2h8.4s60.4-154.4-97.6-265.4l-.5 4.2c0 .1 141 76.2 89.7 261.2z" class="st2"/><path d="M418.2 725c99 39 159 106.4 159 106.4" class="st5"/><path d="M549.9 805.3s-75.1-84.2-119-75.1c0 0 52.3 48.8 119 75.1z" class="st5"/><path d="M418.6 724.6s25.6 40.4 42.5 51.9c16.9 11.6 59.7 27.4 94.4 34.8 0 0-17.9-60-69.8-80.7-.1 0-30.9-14.1-67.1-6z" class="st5"/><path d="M430.2 730.6s42.5 58.9 118.3 74.4c0 0-51.3-87.8-118.3-74.4zM369.4 325.5s-14.7-95.5-89.9-160.1" class="st5"/><path d="M333.8 263s-34.4-31.6-86.7-23.8c.1-.1 20 25.9 86.7 23.8z" class="st6"/><path d="M333.8 263s-40.4-10.5-86.7-23.9" class="st6"/><path d="M280.7 167.4c-10.6-15.8-27.3-26.4-46.1-29.2 0 0 7 18.6 46.1 29.2z" class="st7"/><path d="M280.7 167.4s-21.6-13.3-46.1-29.2" class="st7"/><path d="M307.5 195.2c9.7-18 11.4-39.2 4.7-58.5 0 0-14.2 16-4.7 58.5z" class="st5"/><path d="M307.5 195.2s1.8-27.2 4.7-58.5" class="st5"/><path d="M379.1 327.9c9.7-18 11.4-39.2 4.7-58.5 0 0-14.2 16-4.7 58.5z" class="st8"/><path d="M379.1 327.9s1.8-27.2 4.7-58.5" class="st8"/><path d="M379.5 329c-20.4-1.1-40.3 6.4-54.9 20.8 0 0 20.5 6 54.9-20.8z" class="st9"/><path d="M379.5 329s-25.3 10-54.9 20.8" class="st9"/><path d="M478 659.7s-18.4 30.5-52.7 34.7c0 0-10 4.2-11.5 10 0 0 3.4-10 11.3-14 0 0-2.4-9.2 6.8-10 9.2-.8 17.1.3 20.3-2.4s17.6-8.8 25.8-18.3z" class="st10"/><path d="M477.7 660.9s14.4-32.7-1.9-63.1c0 0-2.3-10.6 1.5-15.2 0 0-6.2 8.6-4.9 17.3 0 0-8.9 3.4-4.2 11.4s10.1 13.8 9.7 17.9c-.4 4.1 2.8 19.6-.2 31.7z" class="st10"/><path d="M478 659.7s-6.3 11.3-37.4 11c0 0 12.9-5.5 11.1-8.2-1.8-2.6-5.8-7.4-10.5-8.4s8.4-2.9 10.3-.3c1.8 2.6-1.3-5.5-12.1-8.7 3.9-1.1 7.9-1.2 11.9-.5 7.4 1.1-2.6-8.1-6.1-10.5-3.4-2.4 9.5.5 12.1 5.5 2.6 5 3.7-2.1-3.4-9.2s24.9-2.1 24.1 29.3z" class="st5"/><path d="M478 659.7s-64.5 17.9-115 44.7-99-12.1-105.8-21.6-5.8-15.8-8.4-19c-2.6-3.2 1.6-6.3.5-11.5-.8-3.8-1.9-7.4-3.2-11.1 0 0 7.4-4.7 6.8-10-.5-5.3-4.7-16.3-2.6-19.5 2.1-3.2 8.4-13.2 9.5-17.4 1.1-4.2 16.9-19 27.4-16.4s19.5-19 33.2-19.5c13.7-.5 49.5-2.1 65.8 20s79.5 53.2 87.4 74.8c7.8 21.7 4.4 6.5 4.4 6.5z" style="opacity:.4;fill:#fff;enable-background:new"/><path d="M478 659.7s-131.4-1.6-164.5-60c0 0-9.5-10-10-19s-5.8-12.6-4.7-17.9c1.1-5.3-1.1-32.6 4.7-36.9s17.4-20 24.8-34.8c7.4-14.7 31.1-26.3 39-23.2 7.9 3.2 22.6 3.7 30.5 0 7.9-3.7 22.1.5 27.4 3.2 5.3 2.6 7.9 7.9 13.7 10.5 5.8 2.6 12.1 13.3 18.4 14.2 6.3 1 5.8 13.2 7.9 37.4 2.1 24.2 6.3 24.7 5.3 48.4-1.2 23.8.4 58.1 7.5 78.1z" style="opacity:.22;fill:#fff;enable-background:new"/><path d="M478 659.7s-20.3-5.3-75 16.8-69.5-31.6-69.5-31.6 1.6-31.6 21.1-30.5c19.5 1.1 27.4 10.5 27.4 9s7.4-14.7 21.1-5.3 26.2 33.2 74.9 41.6z" class="st13"/><path d="m474.3 658.1 1.4.3c-.5 0-1.1-.1-1.9-.2-4.1-.3-12.4-.3-25.9 2.6-11.4 2.4-26.5 6.8-46 14.7-54.8 22.1-69.5-31.6-69.5-31.6.4-5.6 1.6-11.2 3.5-16.5 2.9-7.5 8.1-14.6 17.5-14.1 19.5 1.1 27.4 10.5 27.4 9s7.4-14.7 21.1-5.3c13.4 9.3 25.9 32.3 72.4 41.1z" class="st13"/><path d="m252.8 495.8-.9-.2c.3.1.6.2.9.2z" class="st5"/><path d="m478 659.7-3.9-1.6c-5.3-9.5-24.7-50.6-70-46.3-33.8 3.1-49.1-6.7-56.5-17.5-2.2-3.4-4-7.1-5.1-10.9-4.2-13.7 17.9-23.7 20-29.5s2.6-44.8 54.8-20.5c40.2 18.7 54.5 83.6 59 112.4 1.2 8.5 1.7 13.9 1.7 13.9z" class="st13"/><path d="M398.9 656.2s-11.2-1.8-10.2-5.4c1.1-3.7 4.4-.2 4.4-.2s-.5-4.2 1.3-4c1.8.2 5.4.9 5.4 4.6 0 3.7 3.8 18.4 73.4 8.3 0-.2-53.7 17.5-74.3-3.3z" class="st14"/><path d="M403.9 643.9s-11.2-1.8-10.2-5.4c1.1-3.7 4.4-.2 4.4-.2s-.5-4.2 1.3-4c1.8.2 5.4.9 5.4 4.6 0 3.7 10 10.5 71.3 20.2-.1-.1-47.3-3.5-72.2-15.2z" class="st14"/><path d="M415 636.4s-9.4-3.2-8-5.7c1.4-2.5 3.8.6 3.8.6s.1-3.1 1.6-2.7c1.5.4 4.6 1.6 4 4.2s7.2 9.3 58.6 26.6c.1 0-40.1-10.3-60-23z" class="st14"/><path d="M449.9 587.6s-5.1-10.1-8.3-8c-3.2 2.2 1.2 4.2 1.2 4.2s-4.2.8-3.4 2.4c.7 1.6 2.6 4.9 6 3.7 3.5-1.2 18.7-2.1 30.8 67.1-.2.2 0-56.4-26.3-69.4z" class="st4"/><path d="M439.8 596.2s-5.1-10.1-8.3-8 1.2 4.2 1.2 4.2-4.2.8-3.5 2.4c.7 1.6 2.6 4.9 6 3.8 3.5-1.1 13.1 6.2 41.4 61.4 0 0-17.9-43.8-36.8-63.8z" class="st14"/><path d="M436.2 609.1s-5.9-8-7.9-5.9c-1.9 2.1 1.8 3.4 1.8 3.4s-2.9 1.1-2.1 2.4c.9 1.3 2.9 3.8 5.3 2.6 2.4-1.3 11.1 3.8 43.6 47.4-.1 0-22.5-35-40.7-49.9zM439.1 626.4s-5.6-5.5-6.8-3.5 1.8 2.4 1.8 2.4-2.2 1.3-1.4 2.1 2.7 2.6 4.4 1.3 9.1 1.6 39.5 31.3c-.1.1-21.5-24.3-37.5-33.6zM438 641.2s-5.7-2.3-4.6-4.3c1-2 2.3.4 2.3.4s.3-2.5 1.2-2.2c1.5.3 2.5 1.7 2.3 3.2-.5 2.1 3.8 7.2 34.6 19.9-.1.1-24.3-7.3-35.8-17z" class="st14"/><path d="M476.2 645.7c-6.2-18-20.1-36.6-27.4-62.9-10-35.9-51.1-44.2-60-43.7-9 .5-1.6 27.9-21.1 33.7-11.5 3.4-17.3 13.7-20.2 21.5-2.2-3.4-4-7.1-5.1-10.9-4.2-13.7 17.9-23.7 20-29.5 2.1-5.8 2.6-44.8 54.8-20.5 40.1 18.6 54.5 83.5 59 112.3zM447.9 660.8c-11.4 2.4-26.5 6.8-46 14.7-54.8 22.1-69.5-31.6-69.5-31.6.4-5.6 1.6-11.2 3.5-16.5 5.3 7.1 9.7 14.7 13.3 22.8 7.1 15.3 60.4 13.8 98.7 10.6z" class="st13"/><path d="M469.5 259.1s-34.9-7.4-50.1-38.4c0 0-7.3-8.1-13.2-7.7 0 0 10.6 0 16.9 6.1 0 0 7.9-5.3 11.7 3.2s5.4 16.2 8.9 18.4c3.5 2.1 14.2 13.8 25.8 18.4z" class="st15"/><path d="M468.2 259.1s35.6 2.9 58.9-22.5c0 0 9.3-5.7 14.9-3.6 0 0-10.1-3-17.9 1.1 0 0-6.1-7.3-12.1-.3s-9.8 14.1-13.8 15.1c-3.9 1-17.5 9.2-30 10.2z" class="st15"/><path d="M469.5 259.1s-12.8-2.3-22.7-31.7c0 0 9.5 10.4 11.3 7.8 1.9-2.6 5.1-7.9 4.5-12.7-.6-4.8 5.5 7 3.6 9.6-1.9 2.6 4.8-3 4.2-14.3 2.3 3.3 3.8 7.1 4.4 11 1.4 7.3 6.9-5.1 8-9.2 1.1-4 2.6 9.1-1.3 13.2-3.8 4.1 3.2 2.8 7.6-6.3 4.5-8.9 10.3 23.1-19.6 32.6z" class="st16"/><path d="M446.9 183.2s-2-11.2 1.8-11.4c3.8-.2 1.6 4.1 1.6 4.1s3.8-1.9 4.2-.2c.4 1.7.9 5.4-2.6 6.6-3.5 1.2-16.1 9.7 16.2 72 .2.1-34.2-44.8-21.2-71.1z" class="st16"/><path d="M460.1 183.8s-2-11.2 1.8-11.4c3.8-.2 1.6 4.1 1.6 4.1s3.8-1.9 4.2-.2c.4 1.7 1 5.4-2.6 6.6-3.5 1.2-6.7 12.9 4.3 73.9.1.1-12.2-45.5-9.3-73z" class="st16"/><path d="M470.8 191.9s-.1-10 2.7-9.4.7 3.8.7 3.8 3-.9 3.1.7c.1 1.6 0 4.8-2.7 5.2s-6.4 9.8-5.9 64.1c.1 0-3.4-41.4 2.1-64.4zM528.4 208.9s7.9-8.2 4.8-10.5c-3.1-2.3-3.6 2.6-3.6 2.6s-2.1-3.7-3.4-2.5-3.8 4-1.6 6.9 8.1 17-53.3 51c-.1 0 53.4-18.4 57.1-47.5z" class="st16"/><path d="M517 202.1s7.9-8.2 4.8-10.5c-3.1-2.3-3.6 2.6-3.6 2.6s-2.1-3.7-3.4-2.5c-1.3 1.2-3.8 4-1.6 6.9 2.3 2.9-1.6 14.4-44.4 59.2 0 .1 35.5-31.2 48.2-55.7z" class="st16"/><path d="M503.6 203s5.6-8.2 2.9-9.3-2.7 2.8-2.7 2.8-2-2.4-2.9-1.2c-.9 1.2-2.7 4-.7 5.8s0 11.7-30.5 56.7c.1-.1 25.8-32.7 33.9-54.8z" class="st16"/><path d="M488.2 211.4s3.3-7 1.1-7.6c-2.2-.6-1.7 2.5-1.7 2.5s-1.9-1.7-2.5-.6c-.6 1.1-1.6 3.4.2 4.6 1.8 1.2 1.5 9.1-16.6 47.6 0 0 16-28.3 19.5-46.5zM473.8 215.2s.3-6.1 2.6-5.8.4 2.3.4 2.3 2.4-.6 2.4.4c.2 1.5-.8 3-2.3 3.2-2.2.2-5.5 6-7.5 39.3 0 0-1-25.3 4.4-39.4z" class="st16"/><path d="M250.5 495.4c.4.1.9.2 1.4.3-.5 0-1.1-.1-1.9-.2.2 0 .4 0 .5-.1zM252.8 495.8l-.9-.2c.3.1.6.2.9.2zM319.6 379.6s6.3 49.8 6.7 62.1c.4 12.3 11.9-19.3 19.7-19 7.7.4.7 5.3 5.6 4.2 4.9-1.1 15.8-16.5 15.1-23.9-.7-7.4.7-15.5 6-16.5 5.3-1.1-56.2-46-63.9-48.8-.1.1 8.4 30.3 10.8 41.9z" class="st5"/><path d="M308.7 337.8s25.3 19 37.9 25.6c12.6 6.7 33.3 19 33.7 27 .4 8.1-1.4 20-5.6 23.5-4.2 3.5.7 9.5-2.5 14s-10.9 6.7-12.6 10.5c-1.8 3.9-6.3 5.3-11.5 3.8-5.2-1.4-20.4 13.7-21.4 5.3-1.1-8.3-2.5-70.1-18-109.7z" class="st7"/><path d="M568.1 371.1c-8.1-1.8-16.9 2.8-18.6 14.7-1.8 11.9-24.9 24.2-31.2 24.6-6.3.3-3.8 7.4-3.8 7.4s-9.1-4.2 2.1-10.9 25.9-21.8 23.5-28.4c-2.4-6.7-7.7-24.2-7.7-24.2s-20-45.1-56-51.1c-37-6.1-13.7 50.6-.2 62.7l3.5 10.2s-60-79.8-3.5-76.5c0 0 34.2 7 59.4 48 4.9.6 19.8 13.3 19.8 13.3 23.2 4.6 28.8-33.3 28.8-33.3 11.2 25.6-8.1 45.3-16.1 43.5z" class="st15"/><path d="M669.8 465.1c-.9 1.3-2 2.4-3.3 3.2-13.5 10.3-64.1 34-95.7-5.3 0 0-22.1-19.3-19.3-41.4 0 0 3.8-19.6 2.1-26.3-1.7-6.7 1.4-19.3 1.4-19.3s.9 1.3 2.6 3.4c10.4 13.1 49.8 60.5 87.2 71.4.1-.1 27.8 8.3 25 14.3z" class="st17"/><path d="M667.5 463.1c-.9 1.3-2 2.4-3.3 3.2-.1-.1-.2-.3-.2-.4-6.7-13-8.4-2.8-35.5 3.2-27 6-35.1-8.4-49.8-18.6S560.1 414 559 399.6c-1.1-14.4-4.6-22.5-4.6-22.5l.9.2c10.4 13.1 49.8 60.5 87.2 71.4 0 0 27.8 8.4 25 14.4z" class="st17"/><path d="M554.4 377s-4.2 11.9-10.2 31.9-24.6 27-33.3 54.4c-8.7 27.4-10.2 39.3-3.2 47.7 7 8.4-3.8 12.6-5.6 16.9s29.5 43.2 40 39.7 36.5-70.2 31.9-127.8-19.6-62.8-19.6-62.8z" style="opacity:.33;fill:#fff;enable-background:new"/><path d="M554.4 377s12.3 106.7-.7 146.7c0 0-22.5 24.9-18.2 29.1s9.1-.7 10.9 2.1c1.8 2.8-.7 8.8 18.6 12.3s20-4.9 23.5-3.8c3.5 1.1 7.7 10.2 17.6 5.3s21.4-9.5 18.6-21.8-35.1-79.7-40-93.7c-5-14-15.9-46.6-30.3-76.2z" class="st17"/><path d="M716.8 371.7c-2.1 12.6-17.4 13.2-31.1 12.6s-30 3.2-30 3.2c-81.1 14.2-102.8-10.9-102.8-10.9 1.2-1.4 2.6-2.4 4.3-3.1 3-1.3 6.2-2.3 9.4-2.8 7.7-1.6 9.1 1.6 31.8-4.2 22.6-5.8 29.5-21.1 42.1-26.3 2.1-.8 4.4-1 6.5-.3 10.6 2.8 21 20.2 24.5 21.9 4.2 2.1 39-16.8 39-16.8 4.2 2.4 8.4 14 6.3 26.7z" class="st5"/><path d="M647 339.7c-12.6 7.4-26.2 17-31.8 26.1-11.5 19-27.9 14.7-44.7 12.6-7.5-.9-11.3-3-13.3-5 3-1.3 6.2-2.3 9.4-2.8 7.7-1.6 9.1 1.6 31.8-4.2s29.5-21.1 42.1-26.3c2-.9 4.3-1 6.5-.4z" class="st5"/><path d="M717.3 372.7c-2.1 12.6-17.4 13.2-31.1 12.6-13.7-.5-30 3.2-30 3.2-41 7.2-66.9 4.3-82.4-.3l-.2-.2s65.8-.5 80-14.2c5.1-4.7 10.6-9 16.4-12.8.6.7 1.2 1.3 2 1.7 4.2 2.1 39-16.8 39-16.8 4.2 2.6 8.4 14.2 6.3 26.8z" class="st5"/><path d="M717.3 372.7c-2.1 12.6-17.4 13.2-31.1 12.6-13.7-.5-30 3.2-30 3.2-41 7.2-66.9 4.3-82.4-.3l-.2-.2s65.8-.5 80-14.2c5.1-4.7 10.6-9 16.4-12.8.6.7 1.2 1.3 2 1.7 4.2 2.1 39-16.8 39-16.8 4.2 2.6 8.4 14.2 6.3 26.8z" class="st5"/><path d="M557.1 373.5s104.4 2.9 133.3-3.8c0 0 6.8-1.1 7.4 15.8.5 16.9 6.3 14.7 7.9 22.1s-8.4 27.4-1.1 37.4c7.4 10 9 26.9 3.2 25.3-5.8-1.6-71.1-37.4-82.7-42.2-11.5-4.7-36.9-19.5-44.8-27.9s-23.8-18.6-23.2-26.7z" class="st19"/><path d="M557.6 379.3s32.3 100.8 13.9 177.7c-18.4 76.9 37.9 34.2 49.5 35.3 11.6 1.1 26.8 2.6 37.4-6.4 10.5-9 24.2-13.7 19.5-21.1-4.7-7.4-3.7-11.5 6.3-12.6 10-1.1 31.6-24.2 37.9-36.3 6.3-12.1 6.3-25.8 3.2-37.4-3.2-11.6-13.2-17.9-24.7-24.2-11.6-6.3-31.1-8.4-76.9-34.8-46-26.3-66.1-40.2-66.1-40.2z" class="st19"/><path d="M471.3 259.5s131.4-1.6 164.5-60c0 0 9.5-10 10-19 .5-8.9 5.8-12.6 4.7-17.9s1.1-32.7-4.7-36.9c-5.8-4.2-17.4-20-24.7-34.7-7.4-14.7-31.1-26.3-39-23.2s-22.6 3.7-30.5 0-22.1.5-27.4 3.2-7.9 7.9-13.7 10.5c-5.8 2.6-12.1 13.2-18.4 14.2s-5.8 13.2-7.9 37.4-6.4 24.8-5.3 48.4-.5 58-7.6 78z" style="opacity:.26;fill:#fff;enable-background:new"/><path d="M474.5 251.9S356.2 194.8 351 127.8c0 0-4.3-13.1-1-21.4 3.3-8.3.1-13.9 3.3-18.2 3.2-4.3 12.8-30 19.9-31.4s24.2-10.8 37.2-21c12.9-10.2 39.3-10.7 45.1-4.5s18.9 12.9 27.7 12.9c8.7 0 19.8 9.8 23.5 14.5s3.8 10.5 7.9 15.4c4.1 4.9 5.4 17.1 10.7 20.7 5.3 3.6-.3 14.4-8.7 37.2-8.4 22.8-4.8 25.1-15.8 46.1s-24.3 52.7-26.3 73.8z" style="opacity:.15;fill:#fff;enable-background:new"/><path d="m474.5 251.9-2.9-3.1c-.8-10.8-1-56.3-43.7-71.7-32-11.5-41.7-26.8-43.7-39.8-.6-4-.6-8.1 0-12.1 2-14.2 26.3-13.9 30.6-18.2s21.3-39.4 58.3 4.6c28.5 33.9 14 98.8 5.8 126.9-2.5 8.3-4.4 13.4-4.4 13.4z" class="st22"/><path d="M478.8 238.5c2-19-2.7-41.7 1.8-68.6 6.1-36.7-27.5-61.7-35.9-65s-13.2 24.6-33.3 21.6c-11.9-1.8-21.5 5-27.3 10.9-.6-4-.6-8.1 0-12.1 2-14.2 26.3-13.9 30.6-18.2 4.4-4.4 21.3-39.4 58.3 4.6 28.4 33.9 14 98.8 5.8 126.8z" class="st22"/><path d="M472.6 258.6s-54.4-90.8-54-169.9c.4-79.1-44.7-24.7-56.2-23.1s-26.7 3.6-35 14.7-20.5 18.9-14.2 24.9c6.3 6.1 6.2 10.4-3.3 13.7s-25.2 30.8-28.6 44-.3 26.6 5.4 37.2c5.7 10.6 16.9 14.4 29.6 17.9 12.7 3.5 32.2 1.1 82.8 16.3s73.5 24.3 73.5 24.3z" class="st6"/><path d="M464.3 113.2c1.5-.2 3.1 0 4.6.4 16.6 3.5 67.6 26.4 58.4 76 0 0-.2 29.3-18.8 41.7 0 0-17.4 9.9-21.3 15.6-3.9 5.7-15.5 11.5-15.5 11.5s.3-1.5.8-4.2c3.2-16.4 13.3-77.3-2.8-112.7 0 0-11.7-26.5-5.4-28.3z" class="st22"/><path d="M464.3 116.2c1.5-.2 3.1 0 4.6.4 0 .1-.1.3-.2.4-5.5 13.5 3.4 8.2 25.5 24.8 22.2 16.6 16.5 32.1 18.4 50 1.9 17.9-15.5 37.8-25.7 48.1S472.8 258 472.8 258l-.4-.8c3.2-16.4 13.3-77.3-2.8-112.7.1 0-11.6-26.5-5.3-28.3z" class="st22"/><path d="M472.9 258s72.8-78.9 111.6-95.2c0 0 33.5.8 34-5.1.4-5.9-6.5-6.4-5.5-9.6 1-3.2 7.1-5.2-2.8-22.1s-16.8-12-18.3-15.3c-1.5-3.3 2.7-12.5-7.5-16.7-10.1-4.2-21.2-10-28.6.1-7.5 10.1-37.5 78.6-44.8 91.5-7.4 12.7-25.1 42.3-38.1 72.4z" class="st5"/><path d="M362.9 138.5c11-6.7 21.3 4.6 29.9 15.3s22 20.7 22 20.7c63.7 52.2 58.9 85 58.9 85-1.8 0-3.5-.4-5.1-1.2-3-1.4-5.8-3.2-8.3-5.3-6.2-4.8-4.7-7.9-23.9-21.3s-35.2-8.6-47.4-14.7c-2-1-3.6-2.7-4.5-4.7-4.8-9.9 1.6-29.1.6-32.9-1.1-4.6-38.2-18.5-38.2-18.5-1-5 5-15.7 16-22.4z" class="st22"/><path d="M384.3 212.3c13.8 4.7 29.9 8.8 40.6 7 21.9-3.6 29.4 11.5 38.8 25.6 4.2 6.3 5.1 10.6 4.8 13.4-3-1.4-5.8-3.2-8.3-5.3-6.2-4.8-4.7-7.9-23.9-21.3s-35.2-8.6-47.4-14.7c-2.1-1-3.7-2.7-4.6-4.7z" class="st16"/><path d="M363.3 137.4c11-6.6 21.3 4.6 29.9 15.3 8.5 10.7 22 20.7 22 20.7 32.2 26.4 46.9 47.9 53.6 62.6v.3s-43.4-49.5-63-51.4c-6.9-.8-13.7-2.2-20.4-4.1.1-.9.1-1.8 0-2.6-1.1-4.6-38.2-18.5-38.2-18.5-.8-4.9 5.2-15.6 16.1-22.3z" class="st22"/><path d="M363.3 137.4c11-6.6 21.3 4.6 29.9 15.3 8.5 10.7 22 20.7 22 20.7 32.2 26.4 46.9 47.9 53.6 62.6v.3s-43.4-49.5-63-51.4c-6.9-.8-13.7-2.2-20.4-4.1.1-.9.1-1.8 0-2.6-1.1-4.6-38.2-18.5-38.2-18.5-.8-4.9 5.2-15.6 16.1-22.3z" class="st22"/><path d="M468.4 258.4s-65.9-81-90-98.5c0 0-5.3-4.5 7.2-15.9 12.4-11.4 7-14.4 11.6-20.4 4.6-6 26.2-11.5 29-23.6 2.8-12.1 14.5-24.3 17.1-18.9 2.6 5.5 18.1 78.3 22 90.1s9.3 40.6 8.1 52.1 1.6 30.3-5 35.1z" class="st7"/><path d="M472.5 254.2s55.4-90.3 125.6-126.5 1.2-51.1-5.6-60.5c-6.8-9.5-15.5-22-29.1-24.2-13.7-2.2-26.2-9.4-28.7-1s-6.4 10.4-13.7 3.5c-7.3-6.9-39-8.1-52.3-5-13.3 3.1-23.7 12-30.4 22s-5 21.7-2.2 34.6 13.9 29 23.8 80.9 12.6 76.2 12.6 76.2z" class="st6"/><path d="M468.3 303.7s-11.1-15.3-13.2-30c-2.1-14.7-7.9-15.8-14.2-7.9-6.3 7.9-10.5 23.2-17.4 22.6 0 0 5.3-7.9 5.3-14.2s5.3-28.4 15.3-26.9c0 0-36.3-2.6-39.5 6.8 0 0 17.4-13.2 26.9-13.7s25.8-.5 29 6.8c3.2 7.4 7.9 11.5 13.7 10 5.8-1.5 12.1-10.5 28.4-2.1 16.3 8.4 22.1 13.2 19.5 18.4-2.6 5.3-10 8.4-12.1 13.7-1.2 2.8-1.9 5.9-2.1 9 0 0-4.7-5.3-3.2-9.5 1.6-4.2 11.1-15.8-3.2-19-14.2-3.2-14.2-2.1-15.8 3.7-1.6 6-8 28.7-17.4 32.3z" class="st15"/></g></svg>