<svg xmlns="http://www.w3.org/2000/svg" xml:space="preserve" style="enable-background:new 0 0 1000 1000" viewBox="0 0 1000 1000"><style>.st0{opacity:.35;fill:#fff;enable-background:new}.st1{opacity:.36;fill:#fff}.st1,.st2,.st8,.st9{enable-background:new}.st2{opacity:.53;fill:none;stroke:#fff;stroke-miterlimit:10}.st8,.st9{opacity:.58;fill:#fff}.st9{opacity:.93;fill:none;stroke:#fff;stroke-miterlimit:10}</style><g id="Layer_17"><path d="M346.7 727.9s-9.8-.9-13.4 6.3c-3.6 7.1-5.4 11.1-10.2 15.6-4.9 4.5-12.5 9.4-18.3 13.4-5.8 4-20.9 11.6-22.3 15.6-1.3 4-9.8 25-11.6 29.4-1.7 3.9-1 8.4 1.8 11.6 2.7 3.6 9.4 16.5 10.7 22.7 1.3 6.2 5.8 16.1 12 19.6 6.3 3.6 24.5 19.6 27.2 21.8 2.7 2.2 24.5 0 29 3.6s11.1 3.6 16.5.9 11.1-9.4 15.2-8.9c4 .5 17.4-16.1 17.8-19.6.4-3.6 10.2-2.7 10.7-.4.4 2.2 5.4-25.9 5.4-31.2 0-5.3 1.8-33-1.8-39.2s-8.5-15.2-10.7-18.7c-2.2-3.6-37.4-22.3-44.1-23.6s-13.9-18.9-13.9-18.9z" class="st0"/><path d="M346.7 727.9s-20-5.8-27.2-4.5c-7.1 1.3-19.6 5.4-20.5 6.7-4.9 5.1-10.1 9.8-15.6 14.3-2.7 1.8-8.5 6.7-15.1 4.5-6.7-2.2-20.5-8.5-27.6-19.6-7.1-11.1-11.1-17.4-9.8-20 1.3-2.7.9-1.8 0-10.2s-.9-15.6-.9-15.6l5.4-4s0-7.6 2.7-10.7c2.7-3 22.3-29.9 24.1-34.3 0 0 13.4-4.5 17.8-4.5s13.4-1.3 16.5-4c2.7-2.4 6.2-3.6 9.8-3.1 3.1.5 24.5.5 24.5.5s11.1 15.6 12 20.9c.9 5.3 4.5 36.6 2.2 45.5-2.2 8.9-8.9 20.9-6.2 25s7.9 13.1 7.9 13.1z" class="st1"/><path d="M346.7 727.9s1.3-21.8 9.8-24.9 21.8-5.8 28.5-7.1c6.7-1.3 31.2-6.7 30.8-20-.4-13.4-2.2-20.9-4-23.6-1.8-2.7-6.7-15.1-8-18.3s-11.7-18-11.7-18l-12.9-18.3s-9.8-16-13.8-20c-2.3-2.3-5.9-3-8.9-1.8l-12.9 16-10.2 13.4c-1.6 2.1-3.4 4-5.4 5.8-2.2 1.8-9.4 10.7-9.4 10.7s-2.2 4.9-4.9 4.9-5.8 7.6-4.9 9.4c.9 1.7-11.6 3.1-12 .9-.4-2.2-2.7 28.5-2.7 28.5s20.5 29 24.5 30.3c4 1.3 12.9 2.2 16.5 7.1s9.8 13.4 11.6 25z" class="st0"/><path d="M346.7 727.9s22.7 4 29 9.4c6.2 5.3 28.1 24.5 32.5 30.8 4.5 6.2 32 2.7 32 2.7s22.3-21.3 25.4-24.5 16-37 16-37 3.1-24.5 1.8-32.1c-1.3-7.6-17.8-26.7-17.8-26.7s-21.3-16.9-41.4-19.6c0 0-6.7-4-8-5.8s-6.7 4.9-10.3 4.5c-2.7-.5-5.2-1.4-7.6-2.7 0 0-26.3 9.4-30.3 16.9-4 7.6-16.5 26.7-13.8 38.3 2.7 11.6 8 21.3 5.4 29.9-2.8 8.4-6.6 14.1-12.9 15.9z" class="st1"/><path d="m389.1 322-5.6 16.9-24.2 25-29.8 4-54-14.5-32.3-49.2-22.6-4.8" class="st2"/><path d="m290.8 459 25.8-16.1 47.5-43.5 27.5-11.3 28.2-37.1-3.3-75.8 21.8-16.9M275.5 353.4l-42 1.6-29-10.5" class="st2"/><path d="M461.7 337.3 444 382.4l-9.7 18.6-36.3 19.3-23.4 1.6-34.6 42-29.9 24.1-84.6-8M334.3 327.6l24.2-29.8 17.7-37.9-2.4-15.3" class="st2"/><path d="M374.6 541.3s47.6-42.7 53.2-54.9c0 0 30.6 30.6 48.4 4.8 17.7-25.8 16.1-50.8 23.4-57.3 7.3-6.5 27.4-43.5 14.5-72.6-12.9-29-52.4-88.7-63.7-104.8-11.3-16.1-31.4-34.7-33.1-41.9-6.6-1.1-13-2.7-19.3-4.8-8.9-3.2-73.4-46.8-126.5 4 0 0-30.6 12.1-45.1-10.5 0 0-10.5 16.9-3.2 41.2 7.2 24.2-6.4 66.1-15.2 83.1 0 0-8.1 11.3 4 45.1 12.1 33.9-8.1 49.2-5.6 69.3 2.4 20.2 43.5 83.9 91.1 92.7 0 0 45.1-9.7 54-8.1 8.7 1.8 23.1 14.7 23.1 14.7z" style="opacity:.53;fill:#fff;enable-background:new"/><path d="M600.4 388.8s-36.3 62.1-72.6 41.9c0 0-10.5-11.3-24.2-42.7-13.7-31.4-25.8-41.2-31.4-58-5.6-16.9-7.3-86.3 16.1-120.9s57.2-74.2 81.4-82.2 39.5-33.1 49.2-44.4c0 0 5.6 24.2 22.6 32.3 16.9 8.1 51.6 25.8 68.5 47.6s24.1 46.7 26.6 73.4c2.5 26.6 16.1 29.8 15.2 54-.9 24.2-16.1 108-47.6 118.5-31.3 10.4-104.6-15.4-103.8-19.5z" style="opacity:.34;fill:#fff;enable-background:new"/><path d="M612.5 399.4s1.6 58.9 46 60.5c44.3 1.6 118.5-38.3 119.7-87.9 1.2-49.6 33.9-77.4 38.7-93.1 4.8-15.7 7.2-50.8-10.9-82.2-18.1-31.4-41.2-64-58.1-90.7S708 70.8 710.4 51.5c0 0-25.4 7.3-52 12.1s-68.9 4.8-90.7 43.5c-21.8 38.7-52 66.5-54.4 140.3-2.4 73.7 27.8 217.7 53.2 209.2 25.4-8.5 46-57.2 46-57.2z" style="opacity:.3;fill:#fff;enable-background:new"/><path d="M710.4 51.5s-90.6 232.6-98 347.9" class="st2"/><path d="M737 93.8s-61.7 50.8-64 58c0 0-26.6-31.9-31.5-37.1-4.8-5.2-66.6-23.4-66.6-23.4" class="st2"/><path d="m767.3 133.7-70.2 32.7-50.8 64.1-34.6-36.7-58.5-58.9" class="st2"/><path d="m787.8 213.5-92.1 53.2-58.3 58.1-22.1 2.4-65.3-55.6-53.6-73.8" class="st2"/><path d="m778.1 352.6-60.4-14.5-99.2 19.3-78.6-22.9-70.1-77.4" class="st2"/><path d="M449.2 498.9s-3.6 36.3-36.3 20.6c-32.7-15.7-117.3 12.1-129.4-19.3s-85.9-65.3-101.6-68.9c-15.7-3.6-31.5-12.1-37.5-21.8-6-9.7-46-20.6-61.7-50.8 0 0 32.6-50.8 64-54.4s81-21.8 136.7 19.3 93.1 44.7 129.4 55.6 65.4 89.5 36.4 119.7z" style="opacity:.22;fill:#fff;enable-background:new"/><path d="M127.5 226.8s8.5 61.7 3.6 106.4c-4.8 44.7 70.1 88.3 118.5 101.6S367 505 396 506.2c29.1 1.2 47.2 10.9 54.4 7.3s65.3-4.8 35.1-139.1-192.3-142.7-218.9-147.6c-26.6-4.8-68.9 1.2-91.9-1.2s-47.2 1.2-47.2 1.2z" style="opacity:.38;fill:#fff;enable-background:new"/><path d="M602.8 392.9c-.5 6.4-7 1.6-11-.8-4-2.4-14-120.1-20-155.6s-13-67.7-20.5-73.4c-5.5-4.2-5.6-24.9-5.3-35.4h-.1s-32-6.7-18.1-13.9c0 0 12 6.1 17.5 9.1-.7-.6-13.7-11.6-7.8-18.1 6-6.6 9.7 1.2 9.1 5.4-.6 4.2 1.8 10.3 3.6 11.5 1.8 1.2 8.5-8.5 8.5-14.5 0-6.1 10.3-4.8 9.7 1.2-.6 6.1-5.4 12.7-12.1 15.7-6.6 3 16.3-.6 21.2-7.3s7.9 5.4 4.2 10.3c-2.7 3.6-16.5 3.5-23.1 3.2 5.7 13.1 8 53.5 14.2 64.3 7 12.1 11.9 2.4 15 45.1 3 42.8 15.5 146.8 15 153.2zM649.4 124.4s-32-6.6-18.1-13.9c0 0 12.1 6.1 17.5 9.1 0 0-13.9-11.5-7.9-18.1 6.1-6.7 9.7 1.2 9.1 5.4s1.8 10.3 3.6 11.5c1.8 1.2 8.5-8.5 8.5-14.5 0-6.1 10.3-4.8 9.7 1.2s-5.4 12.7-12.1 15.7c-6.6 3 16.3-.6 21.2-7.2s7.9 5.4 4.2 10.3c-3.6 4.8-26.6 3-26.6 3l-9.1-2.5z" class="st8"/><path d="M649.8 121.5s0 106-1.6 138.3c-1.6 32.2-42.7 133.8-48.4 144.3l3.2 16.1s46.8-93.5 55.7-156.4c8.9-62.9.2-139.9.2-139.9l-9.1-2.4z" class="st8"/><path d="M727 499.3s4.8 0-3.2 63.7-114.6 233-114.6 233" class="st9"/><path d="M574.6 653.3c3.2 50.8 62.1 98.4 62.1 98.4s93.5-8.1 116.9-46M645.5 600.1c4 60.5 34.7 77.4 34.7 77.4s35.5-7.3 46.8-30.6M683.4 561.4c0 28.2 21 57.3 21 57.3s35.5-5.6 50.8-26.6" class="st9"/><path d="M628.2 804.9c-1.5 15.9-2.3 84.9 93.1 99.1l17.7 56.4s-32.3-29-69.3-33.8c-37.1-4.9-188.7-43.5-254.8-135.5S323 702.5 323 702.5l8.1-6.5s87.9 74.2 100 93.5c0 0 25-135.5 16.1-160.4-8.9-25-52.4-48.4-52.4-48.4l6.4-4.8s44.4 25.8 49.2 37.1c4.8 11.3-2.4-98.4-18.6-120.1-16.1-21.8-57.2-62.1-57.2-62.1s-12.1-74.2-69.3-127.4c1.8.9 57.5 32 76.6 120.9 0 0 42.7 41.2 58.8 64.5 16.1 23.3 20.2 115.3 20.2 121.8 0 0 44.4-54 64.5-62.1 20.2-8.1 54.9-37.1 66.1-104 0 0 2.4-70.9-4.8-95.1-7.2-24.2 8.1-39.5 12.9-53.2 4.8-13.7 15.2-71 12.1-102.4-3.2-31.1-11.1-94.8 13.1-119.4-3 3.9-16.1 26.6-8.3 127.5 0 0-2.4 70.1-19.3 118.5 0 0-7.3 13.7-.8 36.3 4.7 16.5 6.4 47.2 7 62.5l5-10.8c-.3 2-5.6 34.8-7.2 43.4-1.6 8.9-10.5 79-75 111.3s-75.8 121.7-73.4 240.2c0 0 83.9 101.6 216.1 106.4 0 0-67.1-33.1-59.9-111.1-4.8-4.7-12.4-12.4-24.8-25.1-29-29.8-72.6-69.3-49.2-111.3 23.4-42 50.8-112.8 112.8-133.8 62-21 80.6 4 79.8-37.9 0 0 22.6 26.6 33.1 49.2s20.2 53.2 21 71.8c.8 18.5 9.7 29.8 13.7 35.5 4 5.6 15.2 129-87.9 150 0 0-58.9.8-66.9-8.1l-12.4 16z" style="opacity:.72;fill:#fff;enable-background:new"/></g></svg>