<svg xmlns="http://www.w3.org/2000/svg" xml:space="preserve" style="enable-background:new 0 0 1000 1000" viewBox="0 0 1000 1000"><style>.st0,.st2,.st4{opacity:.3;fill:#fff;enable-background:new}.st2,.st4{opacity:.65}.st4{opacity:.42}</style><g id="Layer_10"><path d="M494.5 245.7c.7-10.4 2.1-20.7 4.3-30.8-1.8 9.4-3 20.3-4.3 30.8z" class="st0"/><path d="M507.7 190.5c-2.7 3.1-4.8 7.9-6.5 13.7 4.4-17.5 10.3-34.6 17.7-51 1-2.6.3-5.6-1.8-7.4-6.5-6.4-25.3-7.9-31.8-8.2l-2.2-.1c-6.3-1.3-12.5-3.2-18.4-5.6-.1 0-.1 0-.2-.1-19-7.8-36.3-20.9-50.1-33.8-8-7.5-15.6-15.5-22.7-24-7.4-8.9-11.7-15-11.7-15l-.1-.1c.8.4 1.6.7 2.5.8 3.5.7 5.9-1.5 8.1-6.7 3.7-9 7.3-14.9 23.9-18.7 17.2-3.9 27.6 2.2 40.3 5.2 12.7 3 10.5 12.7 10.5 12.7 7.5-7.5 31.4 3 39.6 10.5 8.2 7.5 9.7 5.2 27.6 45.5 17.9 40.5-14.3 70.4-24.7 82.3z" style="opacity:.39;fill:#fff;enable-background:new"/><path d="M518.9 153.2c-7.4 16.5-13.3 33.5-17.7 51-.9 3.2-1.7 6.8-2.5 10.6-2.2 10.2-3.6 20.5-4.3 30.8-.8 6-1.5 11.9-2.5 17.3-4.5 25.4-30.6 46.7-30.6 46.7-6.7-4.1-10.4-22-6.7-43.7s3-74-3.7-95.6c-6.7-21.6-9.7-41.8-26.2-50.8-16.4-9-25.4-20.9-40.3-32.1s-21.7-41.8-11.9-33.6c1.1.9 2.1 1.7 3 2.5 1.4 1 2.8 1.9 4.3 2.7l.1.1s4.2 6.2 11.7 15c7.1 8.4 14.7 16.4 22.7 24 13.9 12.9 31.1 26 50.1 33.8 0 0 .1 0 .2.1 5.9 2.4 12.1 4.3 18.4 5.6l2.2.1c6.5.3 25.3 1.8 31.8 8.2 2.2 1.7 2.9 4.7 1.9 7.3z" class="st2"/><path d="M501.2 204.2c-.9 3.5-1.7 7-2.5 10.6.8-3.8 1.5-7.3 2.5-10.6zM519.1 152.2c-.1 4.1-1.4 16.5-13.6 37.4 0 0-.5 1.3-1.3 3.9 2.2-8.9 5.9-22.2 6.1-33.3.1-2.3 0-4.6-.3-6.9-.6-3.6-3.5-6.5-7.1-7.1-4.1-.8-9-.4-14.5.2-19.4 2.2-58.2-24.7-66.5-35.8-8.2-11.2-38.1-38.8-43.3-44.8 0 0-4.1-6.7-2.9-9.5 1.4 1 2.8 1.9 4.3 2.7.8.4 1.6.7 2.5.8 2.2 3.4 5 8.4 9.3 14.2 6.5 9 14.1 17 22.7 24 1.2 1 2.5 1.9 3.7 2.9 0 0 25 20.6 46.4 30.9 0 0 .1 0 .2.1 7.9 3.8 15.2 6.2 20.6 5.7.2 0 .5 0 .7-.1 0 0 23.8 0 31.1 8.3 1.5 1.7 2.2 4.1 1.9 6.4z" class="st0"/><path d="M536.8 132.5s-25.8 43.7-48.2 64.4-32.1 58.1-34 69.1c0 0 25-40 40.1-57.9s43.2-46 42.1-75.6z" class="st0"/><path d="M641 531.6c-28.4 47.7-26.7 70.8-28.5 76.7 2-1.8 3.7-4 5.1-6.4 4.9-8.1 11.7-19 12.7-18 0 0-18.3 29.6-19.3 36.9-8 62-65 153.2-106 187.6-20.3 16.8-38.8 35.6-55.3 56.1 5.4 36.1 10.3 80.1 9.7 120l-7.8-1.1s-.6-43.7-10.8-111.6c-.2-1.1-.3-2.1-.5-3.2-3.6-23.4-8.3-49.7-14.5-77.9-24.7-112-20.6-347.6 23.5-470.5 5.2-14.6 6.7-90.8 6.7-90.8 2.2-.5 1.7 27.5 1.1 48.2-.3 6 .1 12 1.2 17.9 2.8-13.1 25.3-53.2 29.4-174.7 0 0 1.1-9.5 6.2-10.1s5.6 5 6.2 11.8c.6 6.7-8.2 125.2-31.4 175.9 4.5-3.7 10.2-10.7 14.8-24.1 9-26.3 6.8-44.2 15.2-59.3 0 0-2.8 59.9-20.2 78.9-17.4 19-28 47.6-28 47.6S386.8 545 430.8 765.7c20-42 51.7-82.8 51.7-82.8 84.7-107.5 90.1-241.1 90.1-241.1s-.4-17.9-7.1-32.6c-6.7-14.7 4.8-47.1 4.8-47.1 1.9 10.2-3.4 19.1-3.6 35.4-.1 8.3 1.9 13.6 4 16.6-3.4-33 17.4-98 19.2-101.4 1.8-3.4 3.4-6.2 6.5-4.6 3 1.6 1.7 7 1.7 7-24.3 65.4-19 92.6-20.2 100.3 2-2.8 3.6-5.9 4.7-9.1 4.2-11.1 10.1-26.1 11.4-25.2 0 0-15.9 40.7-15.9 49.8.5 76.7-49.1 202.5-89.4 255.4-31 40.7-49.2 75.1-55.9 88.9 1 4.9 2.1 9.7 3.3 14.6 0 0 6.5 28.2 12.6 67.5 21.8-28.4 51.5-52.6 51.5-52.6C585.8 735.5 605 628.8 605 628.8s1.6-14.5-2.6-27.7c-4.3-13.2 9.3-37 9.3-37 .6 8.6-5.1 14.7-7 27.8-1 6.7.2 11.3 1.7 14.2.6-27.3 25.9-75.5 27.8-77.8s3.7-4.3 6.2-2.4c2.3 1.8.6 5.7.6 5.7z" style="opacity:.93;fill:#fff;enable-background:new"/><path d="M568.6 370.6c2.3-6.7 4.1-13.6 5.4-20.5-1.4 6.5-3.5 13.6-5.4 20.5z" class="st0"/><path d="M574.8 332.5c.9 3.4 1.1 6.9.5 10.3 1.8-12.2 2.6-24.5 2.3-36.8 0-1.9 1.3-3.6 3.1-4.2 5.8-2.3 18 1.7 22.2 3.2l1.4.5c4.3.9 8.7 1.3 13 1.3h.1c14 .1 28.4-3.6 40.5-8.1 7-2.6 13.9-5.7 20.6-9.1 7-3.6 11.3-6.4 11.3-6.4-.6 0-1.2 0-1.8-.1-2.4-.5-3.3-2.5-3.3-6.3 0-6.6-.7-11.3-10.1-18-9.8-7-18-5.9-26.8-7.3-8.8-1.5-9.9 5.2-9.9 5.2-2.7-6.7-20.5-6.4-27.7-3.8-7.1 2.6-7.5.7-29.4 21.4-21.8 20.7-9.4 47.9-6 58.2z" class="st4"/><path d="M577.6 306c.3 12.3-.5 24.6-2.3 36.8-.3 2.5-.7 4.9-1.2 7.3-1.3 7-3.1 13.8-5.5 20.5-1.1 4-2.2 7.9-3 11.5-3.9 17.2 7 37.4 7 37.4 5.3-.8 12.3-11.1 15.7-25.7s17.6-47.3 27.5-59.2c9.9-11.8 17.1-23.8 29.8-25.1 12.7-1.3 21.5-6.5 33.8-9.6 12.4-3.1 24.7-20.6 16.4-18-.9.3-1.8.5-2.6.7-1.1.3-2.3.5-3.5.6 0 0-4.3 2.7-11.3 6.4-6.7 3.4-13.6 6.5-20.6 9.1-12.1 4.5-26.4 8.2-40.5 8.1h-.1c-4.4 0-8.7-.5-13-1.3l-1.4-.5c-4.2-1.5-16.4-5.5-22.2-3.2-1.8.5-3 2.3-3 4.2z" class="st2"/><path d="M575.3 342.8c-.4 2.4-.8 4.9-1.2 7.3.5-2.4.9-4.8 1.2-7.3zM577.7 305.4c-1 2.6-3.4 10.8-1.2 27.1 0 0 0 .9-.2 2.8 1-6.2 2.1-15.5 4.9-22.6.5-1.5 1.2-2.9 2-4.2 1.4-2.1 3.9-3.2 6.4-2.6 3.2.9 6.2 2.2 9.1 4 11.6 6.5 43.2-.2 51.3-5.1 8.1-4.9 34.2-14.4 39.1-16.8 0 0 4.3-3.2 4.3-5.2-1.1.3-2.3.5-3.5.6-.6 0-1.2 0-1.8-.1-2.3 1.5-5.4 3.9-9.6 6.5-6.4 3.9-13.4 7-20.6 9.1-1 .3-2 .6-3.1.8 0 0-21.2 6.4-37.4 7.2h-.1c-5.9.3-11.2-.1-14.5-1.9-.2-.1-.3-.2-.4-.2-.1-.1-15-6.3-21.7-3-1.5.7-2.6 2-3 3.6z" class="st0"/><path d="M571.8 288.3s4.7 34.3 13.4 53.2c8.6 19 4.9 45 3.2 52.4 0 0-5.2-31.7-10-47-4.9-15.2-15.1-40.2-6.6-58.6zM611 566.5c2.9-5.8 5.4-11.8 7.4-17.9-2 5.8-4.8 11.9-7.4 17.9z" class="st0"/><path d="M621.2 532.8c.4 3.2.1 6.4-.8 9.4 3.1-10.8 5.3-21.8 6.6-33 .3-1.7 1.6-3.1 3.3-3.4 5.5-1.4 16 3.8 19.7 5.6.8.4 1.2.7 1.2.7 3.8 1.3 7.7 2.2 11.6 2.8h.1c12.7 1.8 26.1.2 37.6-2.3 6.7-1.5 13.3-3.4 19.7-5.7 6.8-2.4 11-4.4 11-4.4h.1c-.5 0-1.1-.1-1.6-.3-2.1-.8-2.7-2.7-2.2-6.2.8-6 .8-10.3-6.9-17.6-8-7.5-15.5-7.5-23.3-9.9s-9.6 3.5-9.6 3.5c-1.7-6.4-17.8-8.3-24.5-6.9-6.8 1.4-6.9-.3-29.2 15.7-22.4 16.2-14.6 42.3-12.8 52z" class="st4"/><path d="M627 509.2c-1.2 11.2-3.4 22.2-6.6 33-.5 2-1.2 4.2-2 6.5-2 6.1-4.5 12.1-7.4 17.9-1.5 3.5-2.9 6.9-4.1 10.1-5.6 15 1.7 34.7 1.7 34.7 4.9-.1 12.6-8.5 17.4-21.3 4.8-12.8 21.7-40.6 32.1-50.1 10.4-9.5 18.4-19.4 30-19 11.6.4 20.2-3.2 31.8-4.5 11.6-1.3 24.8-15.6 17-14.3-.9.1-1.7.3-2.4.3-1.1.1-2.1.2-3.2.1h-.1s-4.2 1.9-11 4.4c-6.5 2.3-13 4.2-19.7 5.7-11.5 2.6-24.9 4.1-37.6 2.3h-.1c-4-.6-7.9-1.5-11.6-2.8 0 0-.4-.3-1.2-.7-3.6-1.9-14.1-7-19.7-5.6-1.7.2-3 1.6-3.3 3.3z" class="st2"/><path d="M620.4 542.2c-.6 2.1-1.3 4.3-2 6.5.8-2.3 1.6-4.5 2-6.5zM627.2 508.6c-1.2 2.2-4.4 9.3-4.5 24.4 0 0-.1.9-.5 2.5 1.6-5.5 3.8-13.7 7.2-19.8.7-1.3 1.4-2.5 2.3-3.6 1.5-1.8 3.9-2.4 6.1-1.6 2.8 1.2 5.4 2.8 7.7 4.7 9.7 7.3 39 5.1 47 1.7 7.9-3.4 32.7-8.8 37.4-10.4 0 0 4.3-2.3 4.6-4.2-1.1.1-2.1.2-3.2.1-.5 0-1.1-.1-1.6-.3-2.2 1.1-5.3 2.9-9.5 4.7-6.3 2.8-12.9 4.7-19.7 5.7-.9.1-1.9.3-2.9.4 0 0-19.9 3.1-34.7 2h-.1c-5.4-.4-10.1-1.5-12.9-3.5-.1-.1-.3-.2-.4-.3-.1-.1-12.8-7.5-19.3-5.4-1.3.5-2.4 1.6-3 2.9z" class="st0"/><path d="M623.9 492.5s0 31.6 5.6 49.8c5.6 18.2-1.1 41.3-3.5 47.8 0 0-.8-29.3-3.3-43.7-2.5-14.5-8.7-38.4 1.2-53.9z" class="st0"/></g></svg>