<svg xmlns="http://www.w3.org/2000/svg" xml:space="preserve" style="enable-background:new 0 0 1000 1000" viewBox="0 0 1000 1000"><style>.st2,.st5,.st7,.st8,.st9{opacity:.47;fill:#fff;enable-background:new}.st5,.st7,.st8,.st9{opacity:.3}.st7,.st8,.st9{opacity:.2}.st8,.st9{opacity:.45}.st9{opacity:.27}</style><g id="Layer_11"><path d="M569.3 181.6c-18.4 64.6-82.5 86.7-82.5 86.7-31.6 69-7 281.3 5.3 355.6 6.7 40.2 5.9 94.6 3.7 136.1.2 61.4-20.4 220.6-20.4 220.6l-23.7-1.7c11.8-35.8 23.7-194.2 23.7-194.2l.2-.4c2-68.9-9.6-179.9-16.9-242.7-8.7-75.2-3.5-214.1-3.5-214.1 9.6-61.1-.4-68.6-.4-68.6-27.6-30.1-35.5-58.4-35.5-58.4-6.1-43.8-1.7-44.7 21.5-111.5 23.3-66.8 40.8-51.3 40.8-51.3-8.1.7-18.9 6.6-24.1 25.2-4.1 13.7-9 27.2-14.5 40.5-24.4 55.1-19.1 81.6-6.6 114.8 12.5 33.2 23.7 29.2 23.7 29.2-7.2-28.5 2-64.4 5.9-75 3.9-10.6 6.6-25.9 9.2-23.9 2.6 2 1.3 29.9-4.6 42.4-5.9 12.6-7.9 42.4-4 51.2 3.9 8.7 2.6-8.6 2.6-8.6-.6-20.6 7.9-38.5 7.9-46.5s-2-19.2 2.6-14.6 8.6 1.3 8.6 1.3c7.2-4.6 17.8 5.3 12.5 16.6-5.3 11.3-12.5 49.1-12.5 49.1 15.1-19.3 28.3-73 30.3-81s3.9-6 3.9-6c2 27.9-33.6 100.2-33.6 100.2C569.3 238.8 570.3 72 570 64.7c-.3-7.3 3.7-6.1 3.7-6.1 6.1 17.7-4.4 123-4.4 123z" style="opacity:.97;fill:#fff;enable-background:new"/><path d="M470.3 266.7s-66.4-49.1-19.9-129.4c0 0 8.6-10.6 17.3-23.2 8.6-12.6 33.2-65.7 47.8-67 14.6-1.3 17.9 17.9 22.6 44.5s32.5 43.8 20.6 98.2c-12 54.3-77.7 78.2-88.4 76.9z" style="opacity:.58;fill:#fff;enable-background:new"/><path d="M470.3 266.7s47.1-25.9 37.2-124.1c0 0-2.7-55.1-.7-67s-8.6-19.9-13.3-24.6c-4.6-4.7-17.9-35.2-37.8-7.3s-53.1 109.5-41.2 144.7c11.9 35.2 13.4 59.1 55.8 78.3z" class="st2"/><path d="M470.3 266.7s86.3-23.2 99.5-89.6c13.3-66.4 8-118.1 5.3-128.1s-10.6-24.6-20-17.9c-9.3 6.6-24.6 50.4-43.8 62.4-19.1 12-65.5 116.2-41 173.2z" class="st2"/><path d="M470.5 266.9s54.6-10.6 65.8-51.2c11.2-40.6 10.2-73 9-79.3-1.2-6.3-5.5-15.7-11.6-12-6.1 3.7-17.5 30.2-29.9 36.8-12.5 6.6-46 69.2-33.3 105.7z" style="opacity:.67;fill:#fff;enable-background:new"/><path d="M321.1 232.9s-16.6-8-20.4 47.3-7 56.9 6.7 88.6c0 0 11.9 19.7 39.1 36.7 0 0 9.2 3.6 14.5 51.7 0 0 24.7 106 47 161 22.2 55 63.4 160.7 68.2 206.8l14.4-2.5s-15.4-95.6-40.2-149.1-87.3-208.7-77.6-267.4c0 0 44.2-30.1 44.8-82.7 0 0-13.7-81.7-22.1-93.8 0 0-3.3 0-1.6 5.4 1.8 5.4 35.5 131.6-22.7 158.9 0 0 12.1-62 4.8-82.6 0 0-1.9-1.1-1.8 5.3.1 6.4 1.2 49.7-6.2 67.4 0 0-2.3-30.1-.6-39.7s-8.4-15-13-9.9c0 0-2.3 3.3-6.8.8s-.6 5.6 1 11.6c1.7 6-1.2 21.3 3.6 36.7 0 0 4.6 12.8-.2 7.1-4.8-5.7-9.5-28.6-7.6-39.4 1.9-10.8-2.9-32.1-5.3-33s-1.2 11.1-2.1 20c-.8 8.8-.4 37.8 11 57.8 0 0-7.7 5.3-24.1-17.1-16.4-22.4-25.9-41.4-18.7-88 1.5-11.1 2.3-22.3 2.6-33.6.4-15.4 7.3-22.1 13.3-24.3z" style="opacity:.75;fill:#fff;enable-background:new"/><path d="M359.7 408.1s-60.3-23.3-41.8-93.6c0 0 4.3-9.8 8.2-21.1s11.5-56.5 22.2-60.5 17.2 9.8 26.2 28.9 33.6 26.3 35.8 69.9c2.2 43.6-42.3 75.2-50.6 76.4z" class="st5"/><path d="M359.7 408.1s30.2-29.3 2.4-101.4c0 0-13.4-41-14.4-50.5-1-9.4-10.6-13.2-15.1-15.8-4.5-2.5-20.8-22.8-30.1 2.3s-17.4 93.6-1.1 117.7 22.2 42 58.3 47.7z" class="st2"/><path d="M359.7 408.1s60.3-35.4 56.6-88.2c-3.7-52.8-18.4-90.8-22.5-97.8-4-7-13.1-16.3-18.7-9.4s-8.1 43.2-20.2 56.1c-12 13-25.6 101.3 4.8 139.3z" class="st2"/><path d="M359.8 408.2s39-19.3 39.1-52.3c0-33-7.4-57.2-9.6-61.7-2.2-4.5-7.4-10.7-11.2-6.7-3.8 4.1-7 26.4-15 34-8 7.6-20.4 61.8-3.3 86.7z" class="st5"/><path d="M777.3 324.6c-5.4 55.5-14 56.7-33 85.9 0 0-15.1 17.6-45 29.8 0 0-9.8 2-23.1 48.8 0 0-42.3 101.1-73.6 151.9-29 47.1-81.5 134.7-98.9 183.1-9.7 33.6-18.6 123.4-18.6 123.4l-24.2-1.5c2.3-59.1 25.5-116 25.5-116s31.4-92.3 64.9-141.3c33.6-49 121.8-192.5 122-252.4 0 0-38.8-37.3-30.6-89.6 0 0 27.4-78.8 37.7-89.4 0 0 3.3.5.7 5.6-2.7 5.1-57.4 124.7-4.2 161.6 0 0-1.6-63.6 9.1-82.9 0 0 2.1-.8.9 5.6-1.2 6.4-9.6 49.2-5.1 68 0 0 7.3-29.5 7.3-39.3 0-9.8 10.8-13.4 14.5-7.7 0 0 1.7 3.7 6.6 1.9s-.3 5.6-3 11.3c-2.7 5.7-2.4 21.4-9.7 35.8 0 0-6.7 11.9-1 7.1s14.2-26.8 14.1-37.8c-.1-11 8.2-31.4 10.8-31.9s-.6 11.2-1.3 20.2c-.7 8.9-5.9 37.6-20.6 55.6 0 0 6.7 6.6 26.8-12.9 20-19.5 38.8-36.7 39.5-84.2 0 0 1.9-14.1 4.3-29.1s9-24.6 3.4-27.8c-.1-.1 9.3-7.3 3.8 48.2z" style="opacity:.54;fill:#fff;enable-background:new"/><path d="M685.3 437.2s-53.3-37.3-18.4-101.5c0 0 6.6-8.5 13.1-18.7s24.7-52.5 36.2-53.8c11.4-1.4 14.5 13.7 18.7 34.5 4.2 20.8 26.6 33.8 18.3 76.9s-59.5 63.5-67.9 62.6z" class="st5"/><path d="M685.3 437.2s36.6-21.4 26.6-98.6c0 0-3.3-43.3-2-52.8 1.3-9.4-7.2-15.5-11-19.1-3.8-3.6-14.9-27.3-29.9-5s-39.5 87.3-29.3 114.8 11.8 46.5 45.6 60.7z" class="st5"/><path d="M689 437.8s33.3-26.2 13-101.3c0 0-9.1-42.5-9.1-52s-9.3-14.4-13.5-17.4c-4.2-3-18.4-25-30.3-.8s-27.2 92-13.4 117.8c13.7 25.8 17.8 44.2 53.3 53.7z" class="st5"/><path d="M685.3 437.2s67.5-20.1 76.5-72.7 3.7-93.2 1.5-101.1c-2.3-7.8-8.9-19.1-16.1-13.7-7.2 5.4-18.3 40.4-33.2 50.2-14.9 9.9-49.3 92.9-28.7 137.3z" class="st7"/><path d="M681.2 437.1s58.4.1 78.1-39.4 25.2-73.1 25.3-79.9c0-6.8-2.5-17.3-9.5-14.7-7 2.6-24.1 27.6-38.3 31.8-14.2 4.2-61.3 62-55.6 102.2z" class="st7"/><path d="M685.4 437.4s42.8-9.5 50.8-41.7 6.5-57.7 5.4-62.7-4.7-12.3-9.4-9.2c-4.7 3.1-13.1 24.2-22.8 29.6s-34.8 55.5-24 84z" class="st5"/><path d="M474 937.9c27.2-52.8 49.7-107.9 67-164.7 27.3-90.8 124.9-229.4 171.5-261.2 5-4.7 7.8-11.3 7.9-18.1 0 0-32.9 26.1-88.6 54.5s-94.3 153.3-111.3 212.4c-17 59-39.7 168-46.5 177.1z" class="st8"/><path d="M472.4 939.4s39.7-18.2 73.8-77.2c34.1-59.1 123.8-172.6 197.6-201 73.8-28.4 77.2-21.6 77.2-21.6s-70.4-39.8-173.7 34.1c0 0-70.4 73.8-119.2 174.9 0 0-31.8 78.3-55.7 90.8z" class="st9"/><path d="M476.9 931s12.5-53.4-20.5-184-73.8-257.8-73.8-257.8-96.6-99.9-111.3-142c-14.7-42.1-31.8-46.6-38.6-51.2 0 0 6.8 51.2 9.1 106.8s131.7 270.3 171.5 329.4c39.8 59.1 63.6 198.8 63.6 198.8z" class="st8"/><path d="M476.1 930.2s-7.9-147.6-126-264.6c0 0-87.4-109-115.8-131.7 0 0 29.5 60.2 43.2 85.2 13.6 25 18.2 28.4 25 59.1 6.7 30.6 150.9 137.3 173.6 252z" class="st9"/><path d="M292.9 647.6s37.1-111 6.4-195.1c0 0-6.8-43.2-3.4-56.8 0 0-76.8 94.7-64.4 130 12.1 34.2 23.8 51.1 23.8 51.1l11.4 22.7 26.2 48.1z" class="st9"/></g></svg>