<svg xmlns="http://www.w3.org/2000/svg" xml:space="preserve" style="enable-background:new 0 0 1000 1000" viewBox="0 0 1000 1000"><style>.st2,.st3,.st4{opacity:.34;fill:#fff;enable-background:new}.st3,.st4{opacity:.41}.st4{opacity:.68}.st12,.st13,.st14,.st5,.st6,.st9{opacity:.67;fill:#fff;enable-background:new}.st12,.st13,.st14,.st6,.st9{opacity:.56}.st12,.st13,.st14,.st9{opacity:.64}.st12,.st13,.st14{opacity:.2}.st13,.st14{opacity:.4}.st14{opacity:.55}.st15{opacity:.7}</style><g id="Layer_13"><path d="m401.7 977.5-14.3-2.4s9.5-345 217.7-402.1c0 0 95.2-34.5 146.3-1.2 0 0 7.5 11.1 9.1 18.2l-2.8 1.2s-9.9-43.2-99.9-25.4-230.5 75-256.1 411.7z" style="opacity:.88;fill:#fff;enable-background:new"/><path d="M818.6 149c-1.8 2.4-59.2 80-82.1 176.6-8 33.9-33.9 82.8-67.6 137C605.2 565 513.7 686.3 463.6 760.9c0 0-53.5 140-60.4 217.5-.1 1.3-.2 2.5-.3 3.7 0 0-28.6-114.2 21.4-347.9s137.4-373 233.7-414 139.2-48.1 160.6-71.2z" style="opacity:.32;fill:#fff;enable-background:new"/><path d="M668.9 462.5c-63.7 102.4-155.2 223.7-205.4 298.4 0 0-53.5 140-60.4 217.5-25.8-155.5 111.2-356.7 171-428.1 36.7-43.7 71.6-71.7 94.8-87.8z" class="st2"/><path d="M401.1 725.3s-19 169.1-3.3 256.7c-1.1-3-51.4-141.5-79.2-297.6-15.8-89.1-24.3-183.9-12.1-262.5 0 0 17.8-190.9 3.6-231.9v.1c3.8 4.3 145.6 174.2 91 535.2z" class="st2"/><path d="M320.1 682.1C304.2 593 295.7 498.2 308 419.6c0 0 17.8-190.9 3.6-231.9v.1c70 105.9 21.9 416.8 8.5 494.3z" class="st3"/><path d="M590.5 37.1s-226.8 508-201.8 941.6l10.1-.6c-.1 0 33-560.4 191.7-941z" class="st4"/><path d="M694 560.7s19.8 9.5 27.8 39.7c0 0-19.9 14.9-5.7 30.3 14.3 15.5 32.4-2.1 32.7-5.1s6.5-26.2-24.1-26.8c0 0-4.8-28.8-17.5-37.2l-13.2-.9z" class="st5"/><ellipse cx="766.9" cy="598.6" class="st6" rx="15" ry="14.9"/><path d="M641.4 569.1s12.8 4.8 14.9 14.6c0 0 7.7-.6 12.5.6 2-2.2 5.2-3 8-2.1 5.1 1.5 17.8 8 18.4 24.1-.9 4.3.7 8.7 4.2 11.3 3.4 2.5 6.4 5.5 8.9 8.9 0 0-10.1 5.7-17.2 1.5l-.3 9.2-10.4-4.2s-1.8 8-6.5 9.2c0 0-8.9-2.4-10.1-7.1 0 0-2.7 13.4-14.3 12.5 0 0-3.9-2.4-2.4-10.7 0 0-4.2-10.1-8.6-14.6 0 0-6.9-22.6 12.5-34.2 0 0-3.3-11.3-19-16.4l9.4-2.6z" class="st6"/><path d="M650.3 587.7s-6.8 54.9 8.8 66.3l3.9 2.2 10.3-10.4s16.1 1 20.5-.2c0 0 .7-8.5.6-11.5l8.6-1.8s-18-42.9-44.9-49.1c0 .2-1.6 1-7.8 4.5z" style="opacity:.54;fill:#fff;enable-background:new"/><path d="M571.8 594c3.6 1.6 13.1 6.6 16.5 15 .6 1.6 2.1 2.7 3.9 2.7 3.7-.2 7.3 0 11 .5 1.1.2 2.2-.1 3-.8 2.5-1.9 5.8-2.5 8.8-1.5 6.3 1.9 22.2 10 23.2 29.8v1c-1 5.3 1.1 10.6 5.4 13.8 2.8 2.1 5.4 4.4 7.7 6.9 1.5 1.6 1.4 4.2-.2 5.7-.4.4-.9.7-1.5.9-3.8 1.4-7.8 1.8-11.8 1.3-2.2-.5-4.3.8-4.8 3-.1.2-.1.5-.1.7v.4c-.1 2.2-1.9 4-4.1 3.9-.5 0-.9-.1-1.4-.3l-3.8-1.5c-2-.9-4.4.1-5.2 2.2-1 2.5-2.7 5.7-5.4 7.2-1 .5-2.1.6-3.1.2-2.7-.9-5.3-2.2-7.6-3.8-1.8-1.3-4.3-.9-5.6.9-.1.1-.2.3-.3.4-2.2 4.3-6.4 9.4-13.8 9.7-1.4.1-2.8-.6-3.6-1.8-1.1-1.8-2.3-5-1.5-10.6.1-.8 0-1.5-.3-2.2-2.6-5.9-5.8-11.4-9.7-16.5-.4-.5-.7-1.1-1-1.8-2.7-5.5-5.2-27 13.3-40.3 1.6-1.2 2.2-3.4 1.2-5.2-3-5.4-7.4-9.8-12.8-12.9-1.9-1.1-2.6-3.6-1.4-5.5.5-.9 1.4-1.6 2.4-1.8.8-.1 1.7 0 2.6.3z" style="opacity:.61;fill:#fff;enable-background:new"/><path d="M581.6 616.9s-8.5 69.1 11.1 83.6l4.9 2.8 12.9-13.1s20.3 1.3 25.8-.2c0 0 .9-10.7.8-14.5l10.9-2.2s-22.7-54.1-56.6-61.9c0 .1-2.1 1.1-9.8 5.5z" class="st9"/><path d="M511.2 638c3.8.9 14.1 4 19 11.7.9 1.5 2.6 2.2 4.3 1.9 3.6-.8 7.2-1.3 10.9-1.5 1.1 0 2.1-.5 2.8-1.3 2.1-2.3 5.3-3.5 8.4-3.1 6.5.7 23.7 5.7 28.3 25 .1.3.1.6.1 1 0 5.3 3 10.2 7.8 12.6 3.1 1.5 6.1 3.3 8.9 5.4 1.8 1.4 2.1 3.9.7 5.6-.3.4-.8.8-1.2 1.1-3.5 2.1-7.3 3.3-11.4 3.5-2.2 0-4 1.7-4.1 4v1.1c.3 2.2-1.1 4.2-3.3 4.6-.5.1-.9.1-1.4 0l-4-.8c-2.2-.4-4.3 1-4.7 3.1-.5 2.7-1.6 6.1-3.9 8-.8.7-2 1-3 .8-2.8-.4-5.6-1.1-8.2-2.3-2-.9-4.4-.1-5.3 1.9-.1.2-.1.3-.2.5-1.3 4.7-4.5 10.4-11.8 12-1.4.3-2.9-.1-3.9-1.2-1.4-1.5-3.2-4.5-3.5-10.1 0-.8-.3-1.5-.7-2.1-3.7-5.3-7.9-10.1-12.6-14.4-.5-.5-.9-1-1.3-1.6-3.6-5-10.1-25.6 5.6-42.1 1.4-1.5 1.5-3.8.2-5.4-4-4.7-9.1-8.3-14.9-10.3-2.1-.8-3.1-3.1-2.3-5.2.4-.9 1.1-1.7 1.9-2.1.9-.4 1.9-.5 2.8-.3z" style="opacity:.8;fill:#fff;enable-background:new"/><path d="M525 658.7s4.4 69.5 26.4 80.1l5.4 1.8 10.2-15.3s20.2-2.5 25.3-5c0 0-1.1-10.7-1.9-14.4l10.3-4.2s-32.3-49-67.1-50.3c.1.1-1.7 1.5-8.6 7.3z" class="st3"/><path d="M484.8 396.9c3.4 1.9 12.5 7.6 15.2 16.3.5 1.7 1.9 2.9 3.7 3 3.7.2 7.3.6 10.9 1.4 1.1.3 2.2.1 3.1-.5 2.7-1.7 6-2 8.9-.7 6.1 2.4 21.3 11.8 20.6 31.7 0 .3-.1.6-.1 1-1.4 5.1.2 10.7 4.2 14.2 2.6 2.3 5 4.8 7.1 7.6 1.4 1.8 1 4.3-.7 5.6-.5.4-1 .6-1.6.7-3.9 1.1-7.9 1.2-11.9.3-2.1-.6-4.4.6-5 2.7-.1.2-.1.5-.1.7v.4c-.3 2.2-2.2 3.8-4.4 3.5-.5-.1-.9-.2-1.4-.4l-3.7-1.8c-2-1-4.3-.2-5.4 1.7-1.2 2.4-3.2 5.4-5.9 6.7-1 .4-2.1.4-3.1 0-2.6-1.1-5.1-2.6-7.3-4.4-1.7-1.4-4.2-1.3-5.7.4-.1.1-.2.3-.3.4-2.6 4.1-7.2 8.8-14.5 8.5-1.4 0-2.8-.9-3.4-2.1-1-1.9-1.9-5.2-.6-10.6.2-.7.1-1.5-.1-2.2-2.1-6.1-4.9-11.9-8.3-17.3-.3-.6-.6-1.2-.8-1.8-2.2-5.7-2.9-27.4 16.6-39 1.7-1 2.4-3.2 1.6-5.1-2.6-5.6-6.6-10.4-11.7-13.9-1.8-1.3-2.2-3.8-.9-5.6.6-.8 1.5-1.4 2.5-1.6.7-.4 1.7-.2 2.5.2z" style="opacity:.69;fill:#fff;enable-background:new"/><path d="M492.7 420.5s-14.3 68.2 4 84.3l4.6 3.2 14-11.9s20.2 3 25.7 2c0 0 1.8-10.6 2-14.3l11-1.3s-18.1-55.8-51.2-66.4c.1-.2-2.1.6-10.1 4.4z" class="st12"/><path d="M529.4 366.1c3.6 1.5 13.2 6.3 16.8 14.7.6 1.6 2.2 2.6 3.9 2.6 3.7-.2 7.3-.1 11 .3 1.1.1 2.2-.2 3-.8 2.5-1.9 5.8-2.6 8.8-1.6 6.3 1.7 22.4 9.5 23.8 29.3v1c-.9 5.3 1.3 10.6 5.6 13.7 2.8 2 5.5 4.3 7.9 6.8 1.5 1.6 1.5 4.1-.1 5.7-.4.4-.9.7-1.5.9-3.7 1.4-7.8 2-11.8 1.5-2.2-.4-4.3 1-4.7 3.2 0 .2-.1.5-.1.7v.4c0 2.2-1.8 4-4 4-.5 0-.9-.1-1.4-.3l-3.8-1.5c-2.1-.8-4.4.2-5.2 2.3-1 2.5-2.7 5.7-5.2 7.3-1 .5-2.1.6-3.1.3-2.7-.8-5.3-2.1-7.7-3.6-1.8-1.3-4.3-.8-5.6 1-.1.1-.2.3-.3.5-2.1 4.4-6.2 9.5-13.6 9.9-1.4.1-2.8-.6-3.6-1.8-1.2-1.8-2.4-5-1.8-10.5.1-.8 0-1.5-.3-2.2-2.7-5.8-6.1-11.3-10-16.4-.4-.5-.7-1.1-1-1.7-2.7-5.5-5.8-26.9 12.5-40.5 1.6-1.2 2.1-3.4 1.1-5.2-3.1-5.3-7.7-9.7-13.1-12.7-1.9-1.1-2.6-3.5-1.5-5.5.5-.9 1.4-1.6 2.4-1.9.8-.3 1.7-.3 2.6.1z" class="st13"/><path d="M539.7 388.7s-7.2 69.3 12.7 83.4l4.9 2.7 12.7-13.4s20.4.9 25.8-.7c0 0 .7-10.7.5-14.5l10.8-2.4s-23.7-53.6-57.8-60.7c.1 0-2 1-9.6 5.6z" class="st12"/><path d="M516.3 267.9c3.6 1.5 13.2 6.3 16.8 14.7.6 1.6 2.2 2.6 3.9 2.6 3.7-.2 7.3-.1 11 .3 1.1.1 2.2-.2 3-.8 2.5-2 5.8-2.6 8.8-1.7 6.3 1.7 22.4 9.5 23.8 29.4v1c-.9 5.3 1.3 10.6 5.6 13.7 2.8 2 5.5 4.3 7.9 6.8 1.5 1.6 1.5 4.2-.2 5.7-.4.4-.9.7-1.5.9-3.7 1.5-7.8 2-11.8 1.5-2.2-.4-4.3 1-4.7 3.2 0 .2-.1.5-.1.7v.4c0 2.2-1.8 4-4.1 4-.5 0-.9-.1-1.4-.3l-3.8-1.4c-2.1-.8-4.4.2-5.2 2.3-1 2.6-2.7 5.7-5.2 7.3-1 .5-2.1.7-3.1.3-2.8-.9-5.4-2.1-7.8-3.7-1.8-1.3-4.3-.8-5.6 1-.1.1-.2.3-.3.5-2.1 4.4-6.2 9.5-13.6 9.9-1.4.1-2.8-.6-3.6-1.8-1.2-1.8-2.4-5-1.8-10.5.1-.8 0-1.5-.3-2.2-2.7-5.8-6.1-11.3-10-16.4-.4-.5-.7-1.1-1-1.7-2.7-5.5-5.8-26.9 12.5-40.6 1.6-1.2 2.1-3.4 1.1-5.2-3.1-5.3-7.6-9.7-13-12.6-1.9-1.1-2.6-3.5-1.5-5.5.5-.9 1.4-1.6 2.4-1.9 1-.3 2-.3 2.8.1z" class="st14"/><path d="M526.6 290.6s-7.2 69.3 12.7 83.4l4.9 2.7 12.7-13.4s20.4.9 25.8-.7c0 0 .7-10.7.5-14.5l10.8-2.4S570.2 292 536.2 285c.1 0-2 1-9.6 5.6z" class="st12"/><g class="st15"><path d="M538.6 180.7c3 1.2 11.1 4.8 14.2 11.6.6 1.3 1.9 2.1 3.3 2 3-.3 6-.3 9 0 .9.1 1.8-.2 2.4-.8 2-1.7 4.7-2.3 7.2-1.6 5.3 1.2 18.7 7.2 20.4 23.4v.8c-.6 4.4 1.4 8.7 5 11.1 2.4 1.6 4.6 3.4 6.7 5.4 1.3 1.3 1.3 3.4 0 4.7-.3.3-.7.6-1.2.8-3 1.3-6.3 1.9-9.6 1.6-1.8-.3-3.5 1-3.8 2.8v.8c0 1.8-1.4 3.3-3.3 3.4-.4 0-.8-.1-1.1-.2l-3.2-1.1c-1.7-.6-3.6.3-4.2 2-.7 2.4-2.1 4.6-4 6.1-.8.5-1.7.6-2.6.3-2.3-.6-4.5-1.5-6.5-2.8-1.5-1-3.5-.6-4.5.9-.1.1-.2.3-.2.4-1.6 3.7-4.8 8-10.9 8.6-1.2.1-2.3-.4-3-1.3-1-1.3-2.1-4-1.7-8.6.1-.6-.1-1.3-.3-1.8-2.4-4.7-5.3-9.1-8.7-13.2-.3-.4-.6-.9-.9-1.3-2.4-4.4-5.5-22 9.1-33.7 1.3-1 1.6-2.9.7-4.3-2.7-4.3-6.6-7.7-11.1-10-1.6-.8-2.3-2.8-1.4-4.5.4-.8 1.1-1.3 1.9-1.6.9-.1 1.6-.1 2.3.1z" class="st13"/><path d="M547.7 199s-3.9 57.2 12.9 68.2l4.1 2.1 10-11.3s16.8.1 21.2-1.3c0 0 .3-8.8 0-11.9l8.8-2.3s-21.1-43.4-49.3-48.3c.1-.1-1.5.8-7.7 4.8z" class="st12"/></g><path d="M539.3 162.5c-3.2.5-11.8 2.4-16.3 8.4-.8 1.2-2.3 1.7-3.7 1.3-2.9-.9-5.8-1.5-8.8-1.9-.9-.1-1.7-.6-2.2-1.3-1.6-2-4.1-3.2-6.7-3.1-5.4.1-19.8 3.2-24.8 18.7-.1.3-.1.5-.2.8-.3 4.4-3.1 8.2-7.2 9.8-2.7 1.1-5.2 2.4-7.6 3.9-1.5 1-2 3-1 4.6.3.4.6.7 1 1 2.7 1.9 5.8 3.1 9.1 3.5 1.8.1 3.2 1.7 3.1 3.6 0 .2 0 .3-.1.5l-.1.3c-.4 1.8.7 3.6 2.5 4 .4.1.7.1 1.1.1l3.3-.4c1.8-.2 3.4 1 3.7 2.8.2 2.5 1.1 4.9 2.7 6.8.7.6 1.5.9 2.4.8 2.4-.1 4.7-.6 6.9-1.3 1.7-.7 3.6.2 4.2 1.9.1.2.1.3.1.5.8 3.9 3.1 8.8 8.9 10.6 1.1.4 2.4.1 3.3-.7 1.3-1.2 2.9-3.5 3.5-8 .1-.6.3-1.2.7-1.7 3.3-4.1 7.1-7.8 11.2-11.1.4-.4.8-.8 1.1-1.2 3.3-3.8 9.9-20.4-2-34.9-1.1-1.3-1-3.2.1-4.4 3.6-3.6 8-6.2 12.9-7.5 1.8-.5 2.8-2.3 2.3-4.1-.2-.8-.8-1.5-1.5-1.9-.4-.4-1.2-.6-1.9-.4z" style="opacity:.38;fill:#fff;enable-background:new"/><path d="M526.6 178.5s-7.9 56.7-26.6 64.1l-4.5 1.2-7.5-13.1s-16.4-3.3-20.5-5.6c0 0 1.6-8.7 2.4-11.7l-8.2-4s29.5-38.2 58.1-37.1c.1-.2 1.5 1.1 6.8 6.2z" class="st12"/><path d="M505.3 260.2c-3.2.5-11.8 2.4-16.3 8.4-.8 1.2-2.3 1.7-3.6 1.3-2.9-.9-5.8-1.5-8.8-1.9-.9-.1-1.7-.6-2.2-1.3-1.6-2-4.1-3.2-6.7-3.1-5.4.1-19.8 3.2-24.8 18.7-.1.3-.1.5-.1.8-.3 4.4-3.1 8.2-7.2 9.9-2.6 1.1-5.2 2.4-7.6 3.9-1.5 1-2 3.1-1 4.6.3.4.6.7 1 1 2.7 1.9 5.8 3.1 9.1 3.5 1.8.1 3.2 1.7 3.1 3.6 0 .2 0 .3-.1.5l-.1.3c-.4 1.8.7 3.6 2.5 4 .4.1.7.1 1.1.1l3.4-.4c1.8-.2 3.4 1 3.7 2.8.2 2.5 1.1 4.9 2.7 6.8.6.6 1.5.9 2.4.9 2.4-.1 4.7-.5 6.9-1.3 1.7-.7 3.6.2 4.2 1.8.1.2.1.3.2.5.9 3.9 3.1 8.8 8.9 10.6 1.1.4 2.4.1 3.3-.7 1.3-1.2 2.9-3.5 3.5-8 .1-.6.3-1.2.7-1.7 3.3-4.1 7.1-7.8 11.2-11.1.4-.4.8-.7 1.1-1.2 3.3-3.8 9.9-20.4-2-34.8-1.1-1.3-1-3.2.2-4.4 3.5-3.6 8-6.2 12.9-7.5 1.8-.5 2.8-2.3 2.3-4.1-.2-.8-.8-1.5-1.5-1.9-.8-.5-1.6-.7-2.4-.6z" class="st14"/><path d="M492.7 276.3s-7.9 56.8-26.6 64.1l-4.5 1.2-7.5-13.1s-16.4-3.3-20.5-5.6c0 0 1.6-8.7 2.4-11.7l-8.2-4s29.5-38.2 58.1-37.1c.1-.2 1.5 1 6.8 6.2z" class="st12"/><path d="M410.1 313.2c-3.2.5-11.8 2.4-16.3 8.4-.8 1.2-2.3 1.7-3.6 1.3-2.9-.9-5.8-1.5-8.8-1.9-.9-.1-1.7-.6-2.2-1.3-1.6-2-4.1-3.2-6.7-3.1-5.4.1-19.8 3.2-24.8 18.7-.1.3-.1.5-.2.8-.3 4.4-3.1 8.2-7.2 9.8-2.6 1.1-5.2 2.4-7.6 3.9-1.5 1-2 3.1-1 4.6.3.4.6.7 1 1 2.7 1.9 5.8 3.1 9.1 3.5 1.8.1 3.2 1.7 3.1 3.5 0 .2 0 .3-.1.5l-.1.3c-.4 1.8.7 3.6 2.5 4 .4.1.7.1 1.1.1l3.4-.4c1.8-.2 3.4 1 3.7 2.8.1 2.5 1.1 4.9 2.7 6.8.6.6 1.5.9 2.4.9 2.4-.1 4.7-.6 6.9-1.3 1.7-.7 3.6.1 4.2 1.8.1.2.1.3.2.5.9 3.9 3.1 8.8 8.9 10.6 1.1.3 2.4.1 3.3-.7 1.3-1.2 2.9-3.5 3.5-8 .1-.6.3-1.2.7-1.7 3.3-4.1 7.1-7.8 11.2-11.1.4-.4.8-.8 1.1-1.2 3.3-3.8 9.9-20.4-2-34.9-1.1-1.3-1-3.2.2-4.4 3.5-3.6 8-6.2 12.9-7.5 1.8-.5 2.8-2.3 2.3-4.1-.2-.8-.8-1.5-1.5-1.9-.7-.3-1.5-.4-2.3-.3z" style="opacity:.39;fill:#fff;enable-background:new"/><path d="M397.5 329.2s-7.9 56.7-26.6 64.1l-4.5 1.2-7.5-13.1s-16.4-3.3-20.4-5.7c0 0 1.6-8.7 2.4-11.7l-8.2-4s29.5-38.2 58.1-37.1c.1-.1 1.5 1.2 6.7 6.3z" class="st12"/><g class="st15"><path d="M406.4 254.3c-2.8.5-10.5 2.2-14.4 7.4-.7 1-2 1.5-3.2 1.1-2.5-.8-5.2-1.4-7.8-1.7-.8-.1-1.5-.5-2-1.1-1.4-1.8-3.6-2.8-5.9-2.7-4.8.1-17.5 2.9-21.9 16.6-.1.2-.1.5-.1.7-.3 3.9-2.7 7.3-6.3 8.7-2.3.9-4.6 2.1-6.7 3.4-1.4.9-1.8 2.7-.9 4 .2.4.5.7.9.9 2.4 1.7 5.1 2.7 8 3.1 1.6.1 2.9 1.5 2.7 3.2 0 .1 0 .3-.1.4l-.1.3c-.4 1.6.6 3.1 2.2 3.5.3.1.7.1 1 .1l3-.3c1.6-.2 3 .9 3.2 2.5.2 2.2 1 4.3 2.4 6 .6.5 1.4.8 2.2.7 2.1-.1 4.1-.5 6.1-1.2 1.5-.6 3.2.2 3.8 1.7.1.1.1.3.1.4.7 3.5 2.7 7.8 7.9 9.4 1 .3 2.1.1 2.9-.6 1.1-1 2.6-3.1 3.1-7.1.1-.6.3-1.1.6-1.5 2.9-3.6 6.3-6.9 9.9-9.8.4-.3.7-.7 1-1 2.9-3.4 8.7-18-1.8-30.8-.9-1.1-.9-2.8.1-3.9 3.1-3.2 7.1-5.5 11.4-6.7 1.6-.4 2.5-2 2.1-3.6-.2-.8-.7-1.4-1.4-1.8-.6-.3-1.3-.4-2-.3z" class="st13"/><path d="M395.2 268.4s-7 50.2-23.5 56.7l-4 1-6.6-11.6s-14.5-2.9-18.1-5c0 0 1.3-7.7 2.2-10.3l-7.2-3.6s26.1-33.7 51.4-32.8c0 0 1.2 1.1 5.8 5.6z" class="st12"/></g><g style="opacity:.75"><path d="M386.2 166.6c-2 1.3-7.3 5.5-8.5 11.1-.2 1.1-1 1.9-2.1 2.1-2.3.3-4.5.8-6.7 1.6-.6.2-1.3.2-2-.1-1.8-.9-3.9-.8-5.6.1-7.7 4-12.1 12.4-10.9 21 0 .2.1.4.2.6 1.2 3.1.5 6.7-1.7 9.1-1.5 1.6-2.8 3.3-4 5.2-.7 1.2-.4 2.7.8 3.5.3.2.6.3 1 .3 2.5.4 5 .2 7.4-.5 1.3-.5 2.8.1 3.3 1.4 0 .1.1.2.1.4v.3c.3 1.4 1.6 2.2 3 1.9.3-.1.6-.2.8-.3l2.2-1.3c1.2-.7 2.7-.4 3.5.8.9 1.7 2.4 3 4.1 3.8.7.2 1.4.1 2-.2 1.6-.9 3-1.9 4.3-3.2.9-1 2.5-1 3.5-.1l.3.3c2.1 3.2 5.8 4.9 9.6 4.4.9-.1 1.7-.7 2-1.5.7-2.2.7-4.6-.2-6.7-.1-.5-.1-.9 0-1.4.9-3.9 2.3-7.7 4.1-11.3.2-.4.3-.8.4-1.2 1-3.7.2-17.2-12.7-23.3-1.2-.5-1.7-1.8-1.3-3.1 1.3-3.6 3.5-6.9 6.4-9.4 1-.9 1.2-2.5.2-3.6-.4-.5-1-.8-1.6-.8-.8-.4-1.4-.3-1.9.1z" class="st13"/><path d="M382.7 181.7s13 41.6 2.6 52.7l-2.7 2.3-9.4-6.6s-12.5 3.1-16 2.8c0 0-1.8-6.5-2.1-8.8l-6.9-.1s7.9-35.9 27.9-44.5c-.1 0 1.3.4 6.6 2.2z" class="st12"/></g><path d="M413.3 411.9c-3.9.9-14.2 4-19.2 11.7-.9 1.5-2.6 2.2-4.3 1.9-3.6-.8-7.3-1.4-11-1.6-1.1 0-2.1-.5-2.9-1.3-2.2-2.4-5.3-3.5-8.5-3.1-6.6.6-23.9 5.7-28.7 25.2-.1.3-.1.6-.1 1 0 5.4-3.1 10.3-7.9 12.7-3.2 1.5-6.2 3.4-9 5.4-1.8 1.3-2.2 3.8-.9 5.6.4.5.8.9 1.4 1.2 3.5 2.1 7.4 3.3 11.5 3.5 2.3 0 4.1 1.8 4.1 4.1v1c-.4 2.2 1.1 4.3 3.3 4.6.5.1 1 .1 1.5 0l4-.8c2.2-.4 4.3.9 4.7 3.1.5 2.7 1.6 6.1 3.9 8.1.9.7 2 1 3.1.8 2.9-.4 5.7-1.1 8.3-2.3 2-1 4.4-.1 5.4 1.9.1.2.2.4.2.6 1.3 4.7 4.6 10.6 11.8 12.2 1.4.3 2.9-.1 3.9-1.1 1.5-1.6 3.3-4.6 3.5-10.2 0-.8.3-1.5.7-2.2 3.7-5.3 8-10.2 12.8-14.6.5-.5 1-1 1.3-1.6 3.7-5 10.3-25.8-5.5-42.5a4.11 4.11 0 0 1-.2-5.4c4-4.7 9.2-8.3 15.1-10.3 2.1-.7 3.2-3 2.5-5.1-.3-1-1.1-1.9-2.1-2.4-.8-.2-1.8-.3-2.7-.1z" style="opacity:.52;fill:#fff;enable-background:new"/><path d="M399.2 432.7s-4.7 70.1-26.9 80.8l-5.4 1.8-10.3-15.4s-20.4-2.6-25.6-5.1c0 0 1.1-10.7 2-14.5l-10.4-4.3s32.8-49.3 67.9-50.6c0 .1 1.9 1.5 8.7 7.3z" class="st6"/><path d="M462.2 463.3c-1.1-.9-2.2-1.9-3.3-2.9-2.5-2.4-4.5-5.3-5.9-8.5-1-2.6-3.9-3.8-6.5-2.9-.2.1-.5.2-.7.3l-.4.2c-2.4 1.4-5.4.6-6.8-1.7-.3-.5-.5-1-.6-1.6l-.9-5c-.5-2.7-3-4.5-5.7-4-3.3.6-7.7.9-11-.8-1.2-.7-2-1.8-2.3-3.1-.9-3.4-1.2-7-1.1-10.5.2-2.7-1.9-5.1-4.6-5.3h-.7c-4.9.5-11.2-.1-16.2-4.5-1.2-1-2.2-2.2-3.1-3.5-1-1.5-1.2-3.4-.5-5 1.1-2.4 3.7-5.7 10-8.6.9-.4 1.6-1 2.1-1.8 4.4-6.6 8-13.7 10.8-21.1.3-.8.7-1.5 1.2-2.2 4-6.4 24.7-23.4 50.8-12.8a5 5 0 0 0 3.8 0v.5c.1 0 .1.1.2.1 1 .4 6.1 2.5 11.4 4.9 0 .9.3 1.8.8 2.6v.1c2.6 3.7 4.8 7.6 6.7 11.7.5 1.2 1.6 2.2 2.8 2.6 3.6 1.4 6.4 4.5 7.4 8.3 2.2 7.8 4.3 29.7-15.7 43.9-.3.2-.7.4-1.1.6-6.1 2.4-10.3 8.1-10.8 14.7-.3 4.3-1.1 8.5-2.1 12.7-.7 2.6-3.5 4.2-6.1 3.5-.7-.1-1.3-.5-1.9-.9z" style="opacity:.58;fill:#fff;enable-background:new"/><path d="M446.2 455.3c-3.8 2.6-15.6 8.8-15.6 8.8-5.2-4.7-17.3-26.8-17.3-26.8l-22.2-4.8-.3-6.9c.5-4.5 2.1-8.8 4.6-12.5 17.1-26.9 75.1-54.5 75.1-54.5.1 0 .1.1.2.1 7.9 4.2 10.9 5.9 11.7 6.4l.3.1c.1.4.2.7.3 1.1 11 33.5-14.8 79.2-24.1 94-2 3.1-3.2 4.9-3.2 4.9l-9.5-9.9z" class="st12"/><path d="M409.8 515.9c-4.1 1.2-15.3 5-20.3 13.7-.9 1.7-2.8 2.6-4.6 2.3-4-.7-8-1.1-12-1.1-1.2 0-2.3-.5-3.2-1.3-2.5-2.5-5.9-3.6-9.4-3-7.1 1-25.7 7.3-29.9 28.7-.1.3-.1.7-.1 1.1.3 5.9-2.9 11.4-8 14.2-3.3 1.8-6.5 3.9-9.5 6.3-1.9 1.5-2.2 4.3-.6 6.2.4.5.9.9 1.5 1.2 3.9 2.1 8.2 3.2 12.6 3.3 2.5-.1 4.6 1.8 4.7 4.2v1.1c-.3 2.4 1.5 4.6 3.9 4.9.5.1 1 0 1.4-.1l4.4-1.1c2.4-.6 4.7.8 5.4 3.2.7 2.9 2.1 6.6 4.7 8.6 1 .7 2.2 1 3.4.8 3.1-.5 6.1-1.5 8.9-2.9 2.1-1.1 4.8-.3 5.9 1.8l.3.6c1.7 5.1 5.5 11.2 13.4 12.7 1.6.3 3.3-.2 4.3-1.5 1.5-1.7 3.3-5.1 3.3-11.2 0-.8.2-1.7.7-2.4 3.8-6 8.2-11.5 13.2-16.4.5-.5 1-1.1 1.3-1.7 3.7-5.6 9.9-28.5-8-45.9-1.6-1.5-1.8-4-.5-5.8 4.1-5.3 9.6-9.5 15.9-12 2.3-.9 3.3-3.5 2.4-5.7-.4-1-1.2-1.9-2.3-2.4-1.1-.6-2.2-.7-3.2-.4z" class="st9"/><path d="M395.5 539.2s-1.7 76.4-25.3 89l-5.8 2.2-11.9-16.2s-22.3-1.8-28-4.3c0 0 .7-11.7 1.4-15.8l-11.5-4.1s33.2-55.1 71.2-58.2c.2-.1 2.2 1.4 9.9 7.4z" class="st6"/><g style="opacity:.45"><path d="M570.1 80.9c-2.5-.3-9.4-.7-13.9 2.8-.9.7-2.1.8-3 .2-2-1.3-4-2.4-6.2-3.3-.6-.3-1.1-.8-1.3-1.4-.8-1.9-2.4-3.3-4.3-3.7-8.6-2.1-17.5 1.3-22.5 8.7-.1.2-.2.4-.3.5-1.2 3.2-4.1 5.4-7.5 5.8-2.2.2-4.4.6-6.5 1.3-1.4.4-2.1 1.8-1.7 3.2.1.3.3.7.5.9 1.6 2 3.7 3.6 6 4.6 1.3.5 2 2 1.6 3.3 0 .1-.1.3-.2.4l-.1.2c-.7 1.2-.3 2.8 1 3.5.3.1.5.2.8.3l2.6.4c1.4.2 2.3 1.5 2.1 2.9-.4 1.9-.2 3.9.6 5.7.3.6.9 1 1.6 1.2 1.8.4 3.6.6 5.4.4 1.4-.1 2.6.9 2.8 2.3v.4c-.5 3.8 1.2 7.6 4.3 9.8.8.5 1.7.6 2.6.2 2-1.2 3.6-3 4.3-5.3.2-.4.5-.8.9-1.1 3.3-2.3 6.9-4.3 10.7-5.9.4-.2.8-.4 1.1-.6 3.3-2.2 11.7-13 6-26.4-.5-1.2-.1-2.6 1.1-3.2 3.4-1.9 7.3-2.9 11.2-2.8 1.4 0 2.6-1.1 2.6-2.5 0-.7-.2-1.3-.7-1.8-.5-.7-1.1-1-1.6-1z" class="st13"/><path d="M557.2 90.1s-18 40.5-33.5 42l-3.6-.1-2.8-11.4s-11.5-6-14-8.6c0 0 3-6.1 4.3-8.2l-5.2-4.8s30.2-22.1 51.2-15.2c0 .1.8 1.4 3.6 6.3z" class="st12"/></g><g style="opacity:.6"><path d="M564.2 109.9c2.2 1 8 4 10.1 9.1.4 1 1.3 1.6 2.4 1.6 2.2-.1 4.5 0 6.7.3.7.1 1.3-.1 1.8-.5 1.5-1.2 3.5-1.5 5.4-.9 8.1 2.4 13.8 9.7 14.3 18.1v.6c-.6 3.2.7 6.5 3.3 8.4 1.7 1.3 3.3 2.7 4.7 4.2.9 1 .9 2.5-.1 3.5-.3.3-.6.4-.9.6-2.3.8-4.8 1.1-7.2.8-1.3-.3-2.6.6-2.9 1.9v.7c0 1.4-1.2 2.4-2.5 2.4-.3 0-.6-.1-.8-.2l-2.3-.9c-1.2-.5-2.7.1-3.2 1.3-.6 1.8-1.7 3.3-3.3 4.4-.6.3-1.3.4-1.9.1-1.7-.5-3.2-1.3-4.7-2.3-1.1-.8-2.6-.6-3.4.5-.1.1-.1.2-.2.3-1.5 3.4-4.7 5.7-8.4 5.9-.9.1-1.8-.4-2.3-1.2-1.1-2-1.4-4.2-1-6.4.1-.5 0-.9-.2-1.3-1.6-3.6-3.6-6.9-5.9-10.1-.2-.3-.4-.7-.6-1.1-1.6-3.4-3.2-16.5 8-24.6 1-.7 1.3-2.1.7-3.2-1.9-3.3-4.5-6-7.8-7.8-1.2-.7-1.6-2.2-.9-3.3.3-.5.8-.9 1.4-1.1.6-.1 1.2-.1 1.7.2z" class="st13"/><path d="M570.3 123.7s-5.1 42.1 6.9 50.9l3 1.7 7.9-8s12.4.7 15.7-.2c0 0 .5-6.5.5-8.8l6.7-1.3s-14-32.9-34.6-37.5c-.2 0-1.4.6-6.1 3.2z" class="st12"/></g><path d="M424.3 518.9c0 51.2-8.3 405.7-8.3 405.7l-9.5 19s-8.3-259.3 3.6-441.4c9-137-13.1-282.8-24.6-346.5-4.7-15.7-9.7-11-9.7-11 3.2-5.9 7 1.8 8.9 6.5-.5-2.7-.9-5.2-1.3-7.5-10.9-21.4-17.4-7.7-17.8-6.6 4.6-16.9 14.4-1.9 17.1 2.7-.3-1.5-.5-2.9-.8-4.2-20.2-48.2-31.5-5.4-32.8.2 10.4-52.3 29.3-10.2 32.2-3.3-1.2-5.9-1.9-9.3-2-9.7 2.6 6 5 12.2 7.3 18.6 7.4-29.1 23.5-2.5 24.2-1.4-15.1-19.6-20.8.4-22.2 7 45.2 131.5 35.7 323.7 35.7 371.9z" class="st4"/><ellipse cx="349.1" cy="135.6" class="st5" rx="5.8" ry="5.6"/><ellipse cx="410.2" cy="139.4" class="st5" rx="4.3" ry="4.1"/><ellipse cx="365.8" cy="136.8" class="st5" rx="4.8" ry="4.6"/><ellipse cx="375.9" cy="145.1" class="st5" rx="3.5" ry="3.4"/></g></svg>