<svg xmlns="http://www.w3.org/2000/svg" xml:space="preserve" style="enable-background:new 0 0 1000 1000" viewBox="0 0 1000 1000"><style>.st0{display:none}.st1{display:inline}.st3,.st4{opacity:.94;fill:#fff;enable-background:new}.st4{opacity:.55}.st14,.st15,.st6,.st7,.st8,.st9{opacity:.4;fill:#fff;enable-background:new}.st14,.st15,.st7,.st8,.st9{opacity:.58}.st14,.st15,.st8,.st9{opacity:.8}.st14,.st15,.st9{opacity:.49}.st14,.st15{opacity:.8;fill:none;stroke:#fff;stroke-width:2;stroke-miterlimit:10}.st15{opacity:.63}</style><g id="Layer_1"><g id="Layer_7"><path d="M587.3 830.9s48.4-58.2 77-64.7 35.4-2.6 32 10.5c0 0 .7 2.6 7.5 6.9 12.2 7.7-5.2 30.8-51.3 35.2s-53.7 10.1-65.2 12.1z" style="opacity:.53;fill:#fff;enable-background:new"/><path d="M488.4 294s-18.3-9.3-24.7-20c-6.5-10.7-18.8-18.3-21.7-18.8-2.8-.6-1.9-2.7 1.3-1.8 3.3.8 12.9 4.9 20.3 15.6s12.9 11.8 11.4 8.2c-1.5-3.6-13.1-24.5-42.4-42.9 0 0-4.5-2.5.4-2s26.6 14.7 40.1 32.8c0 0 3.6 1.5-2.1-8.9-5.7-10.3-23.4-48.3-34.2-56.9 0 0-22.6-13.1-13.9-24.2 0 0 5.7-3.2 12.6 12.4s49.3 88.4 51.4 87.5c2.1-.8-27.6-52.9-47.9-86.5 0 0-13.9-15.8-5.5-23.6 0 0 5.9-3.8 6.3 11.2 0 0-.6 8 8 22.3s19.6 36.1 19.8 31.6c0 0-5.7-13.9-22.6-43.9 0 0-7.8-17.5-.6-21.5 0 0 8-2.3 6.3 9.1-1.7 11.4-1.2 21.3 20 53.6 0 0 15.6 27.6 17.7 33.9 0 0 1.7 3 1.2-3.2s-9.7-28-11.8-43c0 0 .1-3.5 1.8-3s4.4 26.8 18.1 49.2c0 0 3.2 5.9-1.4-22.8 0 0-2.7-13.2-1.6-18.3 0 0 2-2.5 2.3 5.2s5.8 24.7 7.3 27.3 3 27.4 1.8 37.5c-1.1 10.1 12.7 56.2 18 79.9 5.3 23.6 52.9 194.4-54.7 467.7l-43 113.9-8.9-17.7c.3.2 198-340.7 70.9-639.9z" class="st3"/><path d="M488.3 294.7c-6.8-2.8-13-7-18-12.4-9.8-10.5-18.1-18.9-25.1-23.3-4.3-2.9-9.2-5-14.3-6-20.2-3.8-51.9-27.8-61.6-30.4-5.3-1.4-22.8 0-36.9-9.4-11.6-7.8-21.1-22.8-20-52.7 0 0 0-16 3-26.6 1.6-5.7 14.4-8.1 28.3-7.3 11.7.7 24.2 3.6 31.5 8.6 7.7 5.3 19.4 15.5 31.3 28.7 12.7 14.2 25.7 31.8 34.5 50.6 0 0 6.6 7.8 14.3 18 9.7 12.8 21.1 29.3 23.3 38.5.2.8 11.7 11.7 12.4 15.7 2.1 10.8-2.7 8-2.7 8z" class="st4"/><path d="M485.3 287.1s-35.8-47.2-86.9-74.7S336 112 344.5 87.2s18.1-33.7 24.5-37.1c6.4-3.4 13.1 3.4 13.1 3.4s8.9-8.4 13.5-7.2c4.6 1.3 61.2-4.2 76.3 132.9 0 0 18.3 77.6 28 101.2 9.6 23.6-14.6 6.7-14.6 6.7z" style="opacity:.67;fill:#fff;enable-background:new"/><path d="M394.1 114.8c-.4-18.7 17-32.7 35.3-28.9 5.3 1.1 10.4 1.5 13.7.2 9.7-3.8 44.3 20.7 46.8 78.9s30.2 117.4 10.8 127.9c-7.5 4.1-110.4-114.9-106.5-176 0-.8-.1-1.4-.1-2.1z" class="st6"/><path d="m504.4 250.3.3 1.2c.7 3.8 4 22 2.4 27.7-.3 1.7-.6 3.3-1.1 4.9-.4 1.2-1 2.4-1.8 3.4-1.4 2.1-5.7 1.8-6.6.4-1.8-2.6-8.8-18-13.6-25.4-5.2-8.3-9.7-16.9-13.7-25.9-.6-1.6-1-3.2-1.2-4.9-8-45.5-31.2-84.1-34.5-89.2-.3-.5-.6-.9-.8-1.4-12.7-24.1-17.8-43.7-18.6-59.3-.7-9.6.6-19.2 3.7-28.3 2.4-6.8 6.1-13.1 11-18.5 3.4-3.7 8.5-5.2 13.4-4h.1c55.4 14.5 68.2 89 56.8 135.9l-.6 2.4c-4.3 46.6 3.6 76.7 4.8 81z" class="st4"/><path d="M445.2 259.1c-4.3-2.9-9.2-5-14.3-6.1-20.2-3.8-51.9-27.8-61.6-30.4-5.3-1.4-22.8 0-36.9-9.4 20.4-.3 36.2-12.2 57.6 8.6 27.8 26.9 46.4 27.8 54.4 31.2 4.7 1.9 3 4.3.8 6.1zM500.1 166.9c-.2.8-.4 1.7-.6 2.4-1.2-7.4-2.5-18.2-3.7-33.7-2.9-40.7-18.3-79.4-52.7-104.8 55.6 14.7 68.3 89.2 57 136.1z" class="st7"/><path d="M415.5 637s-11-10.1-13.6-18.9c-2.5-8.8-9.7-16.5-11.6-17.5s-.8-2.3 1.3-1c5.3 3.6 9.3 8.8 11.2 14.9 3.1 9 6.8 10.8 6.4 8s-4.5-19.8-21.5-38.4c0 0-2.7-2.7.7-1.3s15.9 15.5 21.9 30.9c0 0 2.2 1.7.2-6.6s-7.1-38.6-13-46.8c0 0-13.4-13.6-5.1-19.8 0 0 4.6-1.1 6.5 11.2 1.9 12.4 17.6 71.9 19.2 71.7 1.7-.2-9.2-42.7-16.9-70.3 0 0-6.7-13.8.7-17.7 0 0 4.9-1.5 2.3 9.1 0 0-2 5.5 1.3 17.3s6.8 29.2 7.8 26.2c0 0-1.3-10.9-7.3-35.3 0 0-2.1-13.9 3.7-15.3 0 0 6.1-.1 2.7 7.6-3.4 7.7-5 14.8 3.7 41.6 0 0 5.6 22.5 5.9 27.4 0 0 .6 2.4 1.5-2s-1.4-21.7.1-32.6c0 0 .7-2.4 1.8-1.7s-2.2 19.7 3.1 38.1c0 0 1.1 4.8 3.5-16.3 0 0 .7-9.8 2.4-13.2 0 0 1.9-1.4.6 4.1s-.8 18.6-.2 20.6c.6 2.1-3.3 19.9-6 26.8-2.7 7.1-9 2.9-13.3-.8z" class="st8"/><path d="M416 636.9c-4.3-3.2-7.9-7.4-10.4-12.1-5-9.3-9.3-16.8-13.3-21.2-2.5-2.9-5.6-5.2-9-7-13.5-6.5-31.4-29.4-37.8-33-3.5-2-16.1-4.2-24.4-13.6-6.8-7.7-10.7-20-4.3-40.9 0 0 3-11.3 7.1-18.2 2.2-3.7 11.7-3 21.4.2 8.2 2.7 16.5 7 20.7 12 4.5 5.2 10.8 14.6 16.7 26.1 6.4 12.4 12.3 27.3 14.9 42.2 0 0 3.2 6.8 6.7 15.4 4.5 10.9 9.4 24.7 9.2 31.5 0 .6 6.1 10.5 5.8 13.4-.4 8.2-3.3 5.2-3.3 5.2z" class="st9"/><path d="M414.6 631.6s-16.1-40.3-46.7-69.5c-30.6-29.3-24.5-82.9-13.7-98.8s19.4-20.3 24.5-21.4 8.6 4.9 8.6 4.9 7.9-4.2 10.9-2.4c3 1.8 43.9 8.9 27.9 108.5 0 0-2.2 58.3 0 76.8 2.3 18.4-11.5 1.9-11.5 1.9z" class="st9"/><path d="M435.3 609.3v.9c-.2 2.8-1.4 16.3-3.7 20-.5 1.1-1.1 2.2-1.8 3.2-.5.8-1.2 1.5-1.9 2.1-1.4 1.2-4.4.1-4.8-1-.7-2.2-2.7-14.4-4.6-20.5-2-6.8-3.6-13.8-4.6-20.9-.1-1.2-.1-2.5.1-3.7 3.2-33.6-5.6-65.3-6.9-69.6-.1-.4-.2-.7-.3-1.1-4.3-19.6-4-34.4-1.6-45.6 1.4-6.9 4.2-13.4 8.1-19.2 3-4.4 6.8-8.1 11.3-10.9 3.1-1.9 7-2 10.2-.2 36.2 21.1 30.7 76 13.6 106.9-.3.5-.6 1.1-.9 1.6-12 32-12.2 54.7-12.2 58z" class="st4"/><path d="m448.4 549.7-.9 1.6c.6-5.5 1.8-13.3 4-24.5 5.9-29.2 2.6-59.5-16.7-84.1 36.3 21.2 30.8 76.1 13.6 107z" class="st8"/><path d="M566.7 428.6s16.7-4.3 23.9-11.9 18.7-11.6 21.1-11.5 2.1-1.8-.8-1.7-11.4 1.7-19.4 9.1c-8 7.5-12.7 7.3-10.8 4.7 1.9-2.7 15.1-17.7 42.5-27.5 0 0 4.2-1.2 0-1.7s-24.5 7.2-38.8 19.7c0 0-3.2.6 3.3-6.9 6.5-7.4 27.9-35.4 38.3-40.5 0 0 20.8-6.7 15.8-17.4 0 0-4.1-3.6-12.6 7.9s-56.4 63.6-58 62.5 32.2-38.4 54.9-62.3c0 0 14.3-10.5 8.8-18.4 0 0-4.2-4.2-7.2 8 0 0-.9 6.7-10.6 16.9s-22.6 26.1-21.9 22.4c0 0 7.2-10.4 26.4-31.9 0 0 9.6-13 4.4-17.5 0 0-6.1-3.3-6.8 6.3-.7 9.6-2.8 17.7-26.1 40.3 0 0-17.8 19.9-20.6 24.7 0 0-1.9 2.1-.5-2.8 1.5-4.9 13-21.3 17.4-33.2 0 0 .5-2.9-.9-2.7s-8.4 21.2-23.7 37.1c0 0-3.7 4.3 5.3-18.4 0 0 4.6-10.4 4.6-14.7 0 0-1.2-2.4-2.8 3.9s-9.2 19.3-10.9 21c-1.7 1.8-7.3 22-8.3 30.5-.9 8.5-20.5 43.8-29.2 62.2-8.6 18.4-78.4 150-39.5 393.5l14.8 101.2 10.5-12.9c-.1-.3-100.8-315.6 57.4-538z" class="st3"/><path d="M566.7 429.2c6.1-1 11.9-3.4 17-6.9 10-6.9 18.3-12.2 24.8-14.6 4.1-1.6 8.4-2.4 12.8-2.4 17.3.5 47.6-13.5 56-13.8 4.6-.2 18.7 4.1 32-1.1 11-4.2 21.4-14.9 25.9-39.5 0 0 2.9-13.2 2.4-22.3-.3-5-10.3-9.2-21.9-11.1-9.7-1.6-20.5-1.4-27.4 1.3-7.3 2.9-18.7 9.2-30.8 17.9-13 9.3-26.9 21.5-37.4 35.3 0 0-6.8 5.3-15 12.2-10.3 8.8-22.6 20.2-26 27.4-.3.6-11.7 7.5-13 10.7-3.8 8.3.6 6.9.6 6.9z" class="st8"/><path d="M570.5 423.5s38-32.3 84.7-45.6c46.8-13.3 69.3-71.1 66.9-93.1-2.4-22-8.8-30.9-13.4-34.9s-11.3.4-11.3.4-5.7-8.5-9.8-8.3-49.4-14.5-86.6 95.2c0 0-29 60.4-41.2 78s10.7 8.3 10.7 8.3z" style="opacity:.65;fill:#fff;enable-background:new"/><path d="M676.4 298.6c3.1-13.2-5-26.4-18.2-29.5-1.8-.4-3.7-.7-5.6-.7-4.5-.1-8.8-.6-11.3-2.3-7.3-4.9-40.1 9-52.7 56.2-12.6 47.3-45.9 90.9-31.9 103C562.2 430 668 351 675.9 300.2c0 0 .3-.6.5-1.6z" class="st6"/><path d="M641.2 342.2c7.7-2.4 15.9 1.9 18.2 9.6.3 1 .5 2.1.6 3.2.2 2.7.8 5.2 1.9 6.6 3.2 4.1-3.7 24.1-31.1 33.6s-52 31.1-59.7 23.3c-3-3 39.4-69.1 69.2-75.9 0-.1.3-.3.9-.4z" class="st8"/><path d="M562.3 390.4c-.2.3-.3.6-.5 1-1.2 3-7.1 17.4-6.8 22.4-.1 1.4 0 2.8.1 4.2.1 1.1.4 2.2.9 3.1.7 2 4.4 2.4 5.4 1.5 1.9-1.8 10.3-13.3 15.5-18.5 5.7-5.9 10.9-12.2 15.7-18.9.8-1.2 1.4-2.5 1.8-3.8 14.3-36 40-63.8 43.6-67.5.3-.3.6-.6.9-1 14.7-17.8 22.2-33.1 25.6-45.8 2.2-7.8 2.8-15.9 1.8-24-.8-6-2.7-11.9-5.8-17.1-2.1-3.6-6.1-5.8-10.3-5.6-48.1 2.4-71.3 61.6-70 102.1v2.1c-4.5 39.1-16.2 62.5-17.9 65.8z" class="st6"/><path d="M579 431.1c-.3 0-.6-.1-.9-.1-2.6-.5-14.9-3-18.1-5.5-1-.6-1.9-1.3-2.8-2-.7-.6-1.3-1.3-1.7-2-1-1.4.3-4.1 1.4-4.3 2.1-.5 13.6-1 19.5-2.1 6.6-1.2 13.2-1.8 19.8-2.1 1.2 0 2.3.2 3.4.5 30.8 6.5 61.1 1.7 65.2.9.4-.1.7-.1 1.1-.2 18.6-1.9 32.3-.1 42.4 3.3 6.2 2 12 5.3 16.9 9.5 3.7 3.2 6.8 7.2 8.9 11.6 1.5 3.1 1.1 6.7-.9 9.5-23.3 31.3-73.6 20.4-100.4 1.3-.4-.4-.9-.7-1.4-1-28.4-14.3-49.4-17-52.4-17.3z" style="opacity:.45;fill:#fff;enable-background:new"/><path d="M608.5 407.6c4.1-1.6 8.4-2.4 12.8-2.4 17.3.5 47.6-13.5 56-13.8 4.6-.2 18.7 4.1 32-1.1-16.6-3.9-27.5-16.5-48.8-3.4-27.7 17.1-43.1 14.5-50.2 15.8-4.3.9-3.3 3.2-1.8 4.9zM580.1 322.2v2.1c2.4-5.9 5.4-14.4 9.1-26.9 9.7-32.8 29.4-61.8 62.1-76.4-48.2 1.9-72.1 60.7-71.2 101.2z" class="st7"/><path d="m481.2 975.7 10-1.6c-35.8-95.6-64.6-346.7-64.6-346.7l-9.3-1.5s35.5 255.7 63.9 349.8z" style="opacity:.77;fill:#fff;enable-background:new"/><path d="M583.8 723.3s50.5-111.6 92.3-134c41.8-22.5 54.1-19.2 54.4 2.6 0 0 2.2 3.8 14.7 7.5 22.4 6.7 5.1 50.2-65 77s-79.4 38.7-96.4 46.9z" style="opacity:.74;fill:#fff;enable-background:new"/><path d="M501.6 966.9s-39.2-204.9 232-369.7" class="st14"/><path d="M728.7 582.7s-27.9 19.7-31.6 37M746.2 605.6s-24.1 25.1-70.8 30.2M644 662.4s43-.9 97.2-34.5M612.1 690.6s47.1.2 116.8-42.5M652 655s23.5-55.8 60.8-78.2M621.2 683.4s10.1-42.3 54-93.1" class="st14"/><path d="M498.3 962.5s10.3-128.6 198.9-182.1" class="st15"/><path d="M696.7 771s-19.9 7.1-24.9 16.9M703.4 787.5s-18.5 11-47.1 6.3M633.1 804.6s25.7 6.6 63.6-4.6M609.5 816.1s28 7.9 76.5-6.1M639.2 801.4s23.1-29.4 49.1-36.6M616.1 813.3s13-23.5 47.5-46.5" class="st15"/></g></g></svg>