<svg xmlns="http://www.w3.org/2000/svg" xml:space="preserve" style="enable-background:new 0 0 1000 1000" viewBox="0 0 1000 1000"><style>.st0{opacity:.87;fill:#fff}.st0,.st2,.st3,.st4{enable-background:new}.st2{opacity:.5;fill:none;stroke:#fff;stroke-miterlimit:10}.st3,.st4{opacity:.4;fill:#fff}.st4{opacity:.53}.st5{opacity:.81}.st10,.st11,.st12,.st5{fill:#fff;enable-background:new}.st10{opacity:.5}.st11,.st12{stroke:#fff}.st11{opacity:.55;stroke-miterlimit:10}.st12{opacity:.2}.st12,.st13,.st15{stroke-miterlimit:10}.st13{opacity:.3;fill:#fff;stroke:#fff;enable-background:new}.st15{opacity:.4}.st15,.st17,.st18{fill:#fff;stroke:#fff;enable-background:new}.st17{opacity:.2;stroke-width:1.0034;stroke-miterlimit:10.0344}.st18{opacity:.45;stroke-miterlimit:10}</style><g id="Layer_15"><path d="M642.8 194.7s17.1 3 8.2 58.6c-8.9 55.7-16.3 44.5-16.3 44.5s18.5 18.5-13.4 78.6-56.4 158-109 198.8c0 0 7.4 28.2-17.1 72.7s-20 129.8-13.4 149.1c6.7 19.3-3.7 31.9-3.7 31.9s10.4-8.2 24.5 30.4 36.3 80.1 43.8 83.8c7.4 3.7 1.5-23.7 1.5-23.7s-123.2-132-16.3-341.2S625 374.9 648.8 363.1c0 0-7.4-16.3 1.5-44.5s14.5-110.5 2.6-125c0 0-5.2-3.7-8.9-4.1l-1.2 5.2z" class="st0"/><path d="M690.3 566.3s-5.2 35.6-36.3 56c0 0 14.5 19.7-27.5 59.3-41.9 39.7-80.1 101.6-105 114.7 0 0 7.8 28.6-22.6 77.5 0 0-18.5 43.4-7 95.7 0 0 7.8 4.5 12.6-.4 0 0-52.1-90.3 59.7-202.1 1.5-1.5 40.1-54.5 51.2-57.9 11.1-3.3 14.1-2.2 14.1-2.2s0-11.1 4.8-16.3 53.8-64.2 63.9-123.1l-7.9-1.2z" style="opacity:.59;fill:#fff;enable-background:new"/><path d="M297.1 380.9s-12.9 86.5 3.5 131.5c16.3 45 .5 48 .5 48s9.4 0 29.2 25.2c19.8 25.2 101.9 102 116.3 149.9 0 0 90.1 50.1 141.3 184.7 0 0 12.2-2.2 11.1-16.7S476.6 748.8 451 717.6s-50-70.1-50-74.5c0-4.5-99-49.7-99-172.4 0-4.5 3.3-25.6 6.7-27.8 0 0-21.1-21.1 2.2-60.1l-13.8-1.9z" class="st0"/><path d="M527.8 937.9S490 797.7 324.2 787.7" class="st2"/><path d="M421 810s-42.3-13.4-32.3-83.4c-.2-9.8-1.7-19.5-4.5-28.9.1 0 47.9 33.3 36.8 112.3z" class="st3"/><path d="M438.2 820.6s-43.7 7.7-42.9 78.5c-1.5 9.7-4.2 19.1-8.2 28.1 0-.1 51.8-26.9 51.1-106.6zM363.1 792.2s-21.1 14.5-27.8 54.5c-6.7 40-77.9 64.5-85.7 64.5 0 0 35.2-28.2 56.7-83.4.1 0 24.6-42.2 56.8-35.6z" class="st4"/><path d="M357.6 792.5s-24 8.9-40.2 46.2c-16.2 37.3-91.2 43.8-98.7 41.9 0 0 38.8-19.7 75.3-67.2-.1-.1 33.9-35.2 63.6-20.9z" class="st5"/><path d="M326.7 788.4s-25.6.3-53.4 29.9c-27.8 29.6-100.6 10.4-107.1 6 0 0 43.1-5.4 93.5-37.8.1 0 43.9-21.5 67 1.9z" class="st5"/><path d="M518.9 881.3s-58.1-133.1 65-244.5" class="st2"/><path d="M522.2 714.7s24.7-36.9-27-85.3c-6-7.8-10.9-16.3-14.6-25.4.1 0-16.4 56 41.6 110.7z" class="st3"/><path d="M515.4 733.7s38.9-21.3 82.6 34.4c7.2 6.6 15.3 12.3 24 16.8 0 .1-57.2 11.5-106.6-51.2z" style="opacity:.75;fill:#fff;enable-background:new"/><path d="M545.1 681.8s38.9-21.3 82.6 34.5c7.2 6.6 15.3 12.3 24 16.8-.1-.1-57.3 11.4-106.6-51.3z" style="opacity:.63;fill:#fff;enable-background:new"/><path d="M642.3 670.6s25.5-1.9 55.8 25.2c30.2 27.1 101.1 1.7 107.2-3.2 0 0-45.1 0-96.4-29.7 0 0-45.6-17.7-66.6 7.7z" style="opacity:.28;fill:#fff;enable-background:new"/><path d="M602.3 423.7s24.3-8.1 60.2 10.9c35.9 19 98.5-22.9 103.2-29.1 0 0-42.6 8.8-100.8-5.4.1.1-48.3-6.1-62.6 23.6z" style="opacity:.24;fill:#fff;enable-background:new"/><path d="M540.8 548.4s2.4-25.5-24.1-56.3.3-101.1 5.2-107.1c0 0 .9 43.5 27.8 97 0 0 16.8 45.9-8.9 66.4z" class="st10"/><path d="M304.8 375.6s-.8-.7-2.3-1.9c-1.1-.9-2.6-2-4.3-3.3l-.5-.4c-.1-.1-.2-.2-.4-.3-.3-.2-.7-.5-1-.7l-1.7-1.2-.5-.3-.7-.5c-1.6-1.1-3.3-2.2-5.2-3.3-1-.6-2-1.2-3.1-1.8-13.3-7.5-31.4-14.8-48.8-11.7-6.1 1-11.8 3.3-16.9 6.8-4.3 2.9-8.2 6.5-11.4 10.6-20.5 25.4-15.6 41-7.4 49.7 4.1 4.2 9 7.4 14.5 9.4-4.5 2.3-2.6 36.9 46.7 22.8 2.8-.8 5.5-1.8 8.2-2.9 7.6-3.3 14.3-8.4 19.5-14.8 7.5-9 11.5-19.7 13.5-29.4.3-1.5.6-2.9.8-4.3.4-2.5.7-4.9.9-7.2 0-.4.1-.7.1-1.1v-.2c.1-1.3.2-2.6.2-3.8v-4.2c.1-3.7-.2-6-.2-6z" class="st11"/><ellipse cx="292.6" cy="353.5" class="st12" rx="2" ry="4.2" transform="rotate(-24.811 292.565 353.534)"/><ellipse cx="295.5" cy="349.7" class="st12" rx="2" ry="4.2" transform="rotate(-3.322 295.532 349.734) scale(.99998)"/><ellipse cx="299.6" cy="350.2" class="st12" rx="1.5" ry="2.3" transform="rotate(-3.322 299.567 350.23) scale(.99998)"/><ellipse cx="304.6" cy="351" class="st12" rx="4.5" ry="3.1" transform="rotate(-71.681 304.554 351.016)"/><path d="M301.4 349.7s-11.3-13.1 4-22.3c0 0 4.8-1.8 4.3.8-.4 2.2-2.6.9-2.6.9s-1.3-1.9-4.3 1.9c0 0-7.4 7.1 0 18.8l-1.4-.1zM319.6 356.7s19.8-9.9 3.5-30.7c0 0-5.6-5.2-5.9-1.6-.3 3.1 3 2.6 3 2.6s2.4-1.7 4.8 5c0 0 6.9 13.4-7.3 24l1.9.7zM289.2 352.7s7.5-8.7-2.8-14.9c0 0-3.3-1.2-2.9.5.3 1.5 1.7.6 1.7.6s.9-1.3 2.9 1.3c0 0 5 4.8.1 12.6l1-.1z" class="st10"/><path d="M309.6 252.6c-4.1 9.4-12.3 25.5-23.1 31.8-14.1 8.2-16.9 49.1-17.2 58.6-4.9-13.3-5.1-28.5-2-42.4.1-.6.3-1.3.4-1.9.4-1.8.9-3.5 1.4-5.2.2-.6.4-1.2.6-1.7.2-.6.3-.9.5-1.4.2-.5.5-1.3.7-2 .2-.4.3-.9.5-1.3.3-.7.5-1.3.8-2l.6-1.3.2-.4.7-1.4c1.1-2.3 2.3-4.6 3.7-6.8.2-.4.5-.8.8-1.2l.1-.2.6-.9.7-1c.3-.4.5-.7.8-1.1.3-.4.4-.6.7-.9.2-.3.6-.7.9-1.1 0 0 0-.1.1-.1.7-.8 1.3-1.5 2-2.2 1.7-1.7 3.5-3.3 5.5-4.7.7-.5 1.4-.9 2.2-1.3.4-.2.8-.4 1.1-.6l.8-.4.3-.1h.1c.4-.2.8-.3 1.2-.5 4.8-1.5 9.7-3.7 14.3-6.3z" class="st13"/><ellipse cx="300.3" cy="389.3" rx="2.7" ry="4" style="opacity:.3;fill:#fff;stroke:#fff;stroke-width:.9946;stroke-miterlimit:9.9464;enable-background:new" transform="rotate(-12.78 300.316 389.248)"/><ellipse cx="309.7" cy="390.8" class="st13" rx="2.1" ry="4.9" transform="rotate(-18.576 309.735 390.86)"/><ellipse cx="309.8" cy="399.5" class="st12" rx="2.1" ry="4.9" transform="rotate(-23.393 309.752 399.533)"/><ellipse cx="313.5" cy="397.7" class="st12" rx="1.3" ry="3" transform="rotate(-23.393 313.428 397.68)"/><ellipse cx="304.8" cy="399.4" class="st12" rx="2.2" ry="5.1" transform="rotate(-23.393 304.748 399.43)"/><ellipse cx="299.3" cy="394.1" class="st12" rx="1.8" ry="3.3" transform="rotate(-7.492 299.23 393.985)"/><ellipse cx="299.5" cy="401.8" class="st12" rx="2.5" ry="4.2" transform="rotate(-7.492 299.365 401.64)"/><ellipse cx="293.8" cy="399.5" class="st12" rx="4.2" ry="2.5" transform="rotate(-74.77 293.847 399.46)"/><ellipse cx="294" cy="389.7" class="st13" rx="4.4" ry="3" transform="rotate(-72.079 294.043 389.691)"/><ellipse cx="312.9" cy="385.8" class="st13" rx="2.1" ry="4.1" transform="rotate(-45.001 312.895 385.833)"/><ellipse cx="316.1" cy="382.3" class="st13" rx="2.1" ry="4.1" transform="rotate(-60 316.115 382.31)"/><ellipse cx="323.6" cy="382.8" class="st12" rx="2.8" ry="5" transform="rotate(-60 323.649 382.785)"/><ellipse cx="316.3" cy="393.6" class="st12" rx="2.1" ry="3.8" transform="rotate(-51.77 316.354 393.616)"/><ellipse cx="320.8" cy="389" class="st12" rx="2.8" ry="5" transform="rotate(-55.911 320.733 389.019)"/><ellipse cx="302.7" cy="375.1" class="st15" rx="4.1" ry="2.7" transform="matrix(.06053 -.9982 .9982 .06053 -90.036 654.627)"/><ellipse cx="302.6" cy="365.9" class="st15" rx="3.6" ry="2.9" transform="matrix(.06053 -.9982 .9982 .06053 -80.98 645.8)"/><ellipse cx="311.5" cy="373.2" rx="3.6" ry="2.9" style="opacity:.4;fill:#fff;stroke:#fff;stroke-width:1.0034;stroke-miterlimit:10.0344;enable-background:new" transform="rotate(-29.888 311.462 373.21)"/><ellipse cx="309.9" cy="378.7" class="st15" rx="2.2" ry="2.7" transform="rotate(-45.001 309.876 378.731)"/><ellipse cx="306.2" cy="382.9" class="st15" rx="2.2" ry="2.7" transform="rotate(-30 306.17 382.952)"/><ellipse cx="299.6" cy="382.9" class="st15" rx="2.7" ry="2.2" transform="rotate(-72.788 299.615 382.874)"/><ellipse cx="296.4" cy="378.2" class="st15" rx="2.7" ry="2.2" transform="rotate(-23.059 296.434 378.201)"/><ellipse cx="281.8" cy="381.4" class="st12" rx="3.6" ry="2.7" transform="rotate(-6.851 281.699 381.346)"/><ellipse cx="296.8" cy="371.7" class="st15" rx="2.2" ry="2.7" transform="rotate(-68.943 296.8 371.732)"/><ellipse cx="289.1" cy="375.4" class="st13" rx="2.2" ry="4.5" transform="matrix(.08507 -.9964 .9964 .08507 -109.525 631.485)"/><ellipse cx="279.5" cy="387.3" class="st12" rx="5.2" ry="2.5" transform="matrix(.97 -.2429 .2429 .97 -85.722 79.5)"/><ellipse cx="278.7" cy="375.9" class="st12" rx="5.2" ry="2.5"/><ellipse cx="282.1" cy="370.9" class="st12" rx="2.6" ry="3.9" transform="rotate(-75.93 282.11 370.895)"/><ellipse cx="283.6" cy="361.3" class="st12" rx="3.1" ry="5.1" transform="rotate(-66.473 283.615 361.328)"/><ellipse cx="288.2" cy="356" class="st12" rx="3.1" ry="5.1" transform="rotate(-41.952 288.177 356.006)"/><ellipse cx="310.6" cy="353.1" class="st12" rx="5.7" ry="2.7" transform="rotate(-68.15 310.609 353.12)"/><ellipse cx="315.8" cy="354.7" class="st12" rx="5" ry="2.7" transform="rotate(-68.15 315.831 354.718)"/><ellipse cx="319.4" cy="359.1" class="st12" rx="4.3" ry="2.3" transform="rotate(-37.079 319.416 359.156)"/><ellipse cx="289.4" cy="380.6" class="st13" rx="3.1" ry="1.5" transform="rotate(-18.414 289.4 380.628)"/><ellipse cx="289.1" cy="368.7" class="st13" rx="2.2" ry="4.5" transform="rotate(-55.39 289.077 368.73)"/><ellipse cx="291.5" cy="365.2" class="st12" rx="2.2" ry="4.5" transform="rotate(-48.239 291.503 365.265)"/><ellipse cx="295.2" cy="362.7" class="st12" rx="2.2" ry="4.5" transform="rotate(-30 295.181 362.693)"/><ellipse cx="298.4" cy="359.4" class="st13" rx="2.2" ry="4.5" transform="rotate(-30 298.336 359.44)"/><ellipse cx="301.3" cy="358.8" class="st13" rx="1.8" ry="3.6" transform="rotate(-16.081 301.288 358.744)"/><ellipse cx="305.4" cy="359.5" class="st13" rx="3.6" ry="1.8" transform="rotate(-74.817 305.416 359.474)"/><ellipse cx="311.4" cy="363.7" class="st13" rx="5" ry="2.4" transform="rotate(-54.02 311.369 363.663)"/><ellipse cx="316.9" cy="366.4" class="st13" rx="4" ry="2.1" transform="rotate(-10.848 316.987 366.428)"/><ellipse cx="317.8" cy="370.7" class="st13" rx="4" ry="2.1"/><ellipse cx="326.7" cy="376.7" class="st12" rx="2.1" ry="4" transform="matrix(.0828 -.9966 .9966 .0828 -75.72 671.092)"/><ellipse cx="324.2" cy="372.9" class="st12" rx="2.6" ry="1.4" transform="rotate(-5.171 324.192 372.916) scale(.99997)"/><ellipse cx="326" cy="367.3" class="st12" rx="4" ry="2.1" transform="rotate(-12.472 326.03 367.333)"/><ellipse cx="325.6" cy="363.8" class="st17" rx="4" ry="2.1" transform="rotate(-29.888 325.602 363.785)"/><ellipse cx="316.8" cy="376.5" class="st13" rx="2.7" ry="5.1" transform="rotate(-77.267 316.844 376.521)"/><ellipse cx="307.7" cy="362.8" class="st12" rx="3.2" ry="1.6" transform="rotate(-54.02 307.742 362.79)"/><ellipse cx="293.8" cy="382.9" class="st13" rx="3.2" ry="1.6" transform="rotate(-38.409 293.785 382.91)"/><ellipse cx="287.3" cy="384.9" class="st12" rx="3.2" ry="1.6" transform="rotate(-38.409 287.272 384.847)"/><ellipse cx="285.2" cy="390.3" class="st12" rx="3.2" ry="1.6" transform="rotate(-38.409 285.248 390.308)"/><ellipse cx="290.2" cy="396.4" class="st12" rx="2.7" ry="1.4" transform="rotate(-52.316 290.192 396.406)"/><ellipse cx="285.5" cy="396.2" class="st12" rx="5.4" ry="2.5" transform="rotate(-45.001 285.45 396.234)"/><path d="M295.6 402.6s-3.2 31.9 16.8 31.7c0 0 5.7-1.9 3.7-5.4-1.7-3.1-3 1.1-3 1.1s-.1 4.3-5.2 1.1c0 0-11.3-4.1-11-30l-1.3 1.5z" class="st10"/><path d="M295.7 402.4s2.9 20.3 15.3 17.1c0 0 3.3-2 1.5-3.9-1.5-1.7-1.7 1.1-1.7 1.1s.6 2.7-3.1 1.5c0 0-7.6-.8-11.5-17l-.5 1.2zM278.3 370.7s-18.8 8.2-22.6-4c0 0 0-3.8 2.6-3.3 2.2.4-.1 2-.1 2s-2.6.9.4 3.4c0 0 4.7 6.1 20.5.8l-.8 1.1zM282.9 391.2s-3.8 8.1-9.8 4.3c0 0-1.4-1.5-.3-2s.7.8.7.8-.6 1 1.4 1.3c0 0 4 1.2 7.8-5l.2.6z" class="st10"/><path d="M285 366.2s-13.4 6.1-16.6-4.1c0 0-.1-3.2 1.8-2.6 1.6.4 0 1.7 0 1.7s-1.9.7.4 2.8c0 0 3.6 5.1 14.9 1.3l-.5.9zM283.6 357.7s-24.1-32.7-4.9-44c0 0 6.6-1.3 7.1 3.7.4 4.3-3.5.5-3.5.5s-3-4.6-5.7 1.8c0 0-8 10.9 9.3 38.9l-2.3-.9zM327.4 359.8s27.3-28.1 41.6-11c0 0 2.4 6.3-2.4 7.5-4.1 1-1.1-3.4-1.1-3.4s3.9-3.5-2.7-5.2c0 0-11.9-6.2-35.9 14.6l.5-2.5z" class="st10"/><path d="M326.6 362.3s17.7-11.7 23.3-1c0 0 .5 3.6-2.1 3.7-2.3.1-.2-1.9-.2-1.9s2.5-1.4-.8-3.1c0 0-5.6-4.7-20.7 3.6l.5-1.3zM319.8 391.8s32.8 29.9 19.3 42.4c0 0-5.6 1.8-7.7-3.1-1.8-4.2 3-.8 3-.8s4.2 4.2 4.5-2.2c0 0 3.5-11.3-21.6-37.1l2.5.8zM319.9 385s10.7 12.2 22.2-2.6c0 0 2.6-4.8 0-4.4-2.2.3-1.3 2.5-1.3 2.5s1.6 1.4-2.6 4.2c0 0-8.1 7-18.2-1.2l-.1 1.5zM279.2 379s-16.9-10.7-24.8 8.9c0 0-1.2 6 1.6 4.9 2.4-.9.6-3.2.6-3.2s-2.4-1.1 1.4-5.3c0 0 6.9-10 21.6-3.6l-.4-1.7z" class="st10"/><path d="M278.8 383.6s-10.7-2-10.7 9.4c0 0 .6 3.2 1.8 2.1 1.2-1.1-.4-1.7-.4-1.7s-1.4-.1-.3-3c0 0 1.5-6.4 10.2-6.1l-.6-.7z" class="st10"/><path d="M325.2 378.8c.4.1.8.2 1.2.2 2.2.2 4-.6 4.1-1.8s-1.6-2.3-3.8-2.4h-1v-.8c.5-.3.9-.7.8-1.1-.1-.4-.3-.7-.7-.8l.2-2.5h.2c2.1-.5 3.7-1.8 3.4-2.9-.3-1.1-2.1-1.7-4.2-1.2l-.5-1.8c1.7-1.1 2.6-2.6 2-3.6s-2.6-.9-4.5.2l-.2.2-.4-.4c1-1.2 1.3-2.5.8-3.2-.5-.8-2.5-.7-4.2.3l-.6-.5.3-.6c1-2.6.7-5.1-.6-5.7-1.4-.6-3 .8-4.1 3l-.1-.1c.7-2.5.4-4.6-.8-5.1-1.2-.5-3.1 1.1-4.3 3.5l-.7-.2c.4-2-.3-3.9-1.7-4.4-1.4-.5-3.6.9-4.3 3.3-.1.3-.1.5-.2.8l-.4.1v-.8c-.1-1.3-.8-2.3-1.6-2.2-.8.1-1.4 1.1-1.3 2.4 0 .4.1.7.2 1l-.9.1c.1-.6.1-1.2.1-1.9-.1-2.3-1.1-4.1-2.3-4-1.1.1-1.9 2-1.8 4.3 0 .6.1 1.2.3 1.9-1-1.5-2.2-2.3-3-1.9-.8.4-1 2.2-.3 4.2-1.9-2.1-4.5-2.9-5.7-1.7-1.3 1.1-.8 3.8 1.1 5.9.4.4.8.8 1.2 1.1l-.4.4c-.5-.4-1.1-.8-1.8-1.1-2.6-1.1-5.2-.8-5.9.8-.7 1.6.9 3.8 3.5 4.9l-1.1 3.9c-1.3-.1-2.5.6-3 1.8-.1 1.3.6 2.5 1.7 2.9l-.1.5c-.4-.1-.9-.1-1.3-.1-2.9 0-5.2 1.1-5.2 2.5s2.3 2.5 5.2 2.5h.4l.2 1.3c-1 .7-1.3 2.2-.6 3.2.3.4.6.7 1.1.8l.1.9c-.3 0-.6.1-.9.2-2.8.7-4.8 2.4-4.4 3.7s2.9 1.9 5.7 1.2l.6-.2 1.9 2.5c0 .1.1.2.1.2l.2.1 1 1.3.3.3-.5.5c-2.1 2.1-3.1 4.7-2.1 5.6 1 1 3.5 0 5.6-2.1.3-.3.5-.5.7-.8l.3.2c-.1.4 0 .8.3 1.1.4.3 1 .1 1.7-.3l1.3.4v.1c-.6 2.2 0 4.3 1.3 4.7s2.9-1.1 3.5-3.4v-.1l.7.2c-.1.6-.1 1.2 0 1.8.3 2.3 1.7 4 3.1 3.8 1.4-.2 2.3-2.2 2-4.5 0-.3-.1-.7-.2-1l1-.3v.2c1.1 2.6 2.9 4.3 4 3.8s1.1-2.7.1-5.2l.4-.1c.1.5.3 1.1.5 1.6 1.1 2.5 2.8 4.1 3.9 3.7 1.1-.5 1.1-2.8 0-5.3-.2-.4-.3-.7-.5-1.1l.9-.2c.1.3.2.5.3.8.7 1.5 1.7 2.5 2.4 2.2.7-.3.6-1.7 0-3.2-.1-.3-.3-.6-.4-.8l1-1c1.6 1.2 3.5 1.5 4.2.6.7-.9.1-2.4-1.3-3.7l1-1.1.1.1c2.3 1.6 4.8 1.8 5.7.5.9-1.3-.1-3.1-2-4.7l.5-1.5c2 .8 4 .7 4.6-.4s-.5-3.5-2.9-4.9l.2-.7-.4-.9z" class="st13"/><path d="M315.7 378.2c.2.1.5.1.7.1 1.3.1 2.5-.4 2.5-1.1.1-.7-1-1.4-2.3-1.5h-.6v-.5c.3-.1.5-.4.5-.7 0-.2-.2-.4-.4-.5l.1-1.5h.1c1.3-.3 2.3-1.1 2.1-1.8s-1.3-1-2.6-.8l-.3-1.1c1-.7 1.6-1.6 1.3-2.2-.3-.6-1.6-.6-2.8.1l-.2.1-.2-.2c.6-.7.8-1.5.5-2-.4-.5-1.5-.5-2.6.2l-.4-.3c0-.1.1-.2.2-.4.6-1.6.5-3.2-.4-3.5-.9-.3-1.8.5-2.5 1.9h-.1c.4-1.5.2-2.8-.5-3.1-.7-.3-1.9.7-2.6 2.2l-.4-.1c.4-1-.1-2.2-1.1-2.7-1-.3-2.2.6-2.6 2-.1.2-.1.3-.1.5h-.3v-.5c0-.8-.5-1.4-1-1.3-.5.1-.9.7-.8 1.5 0 .2.1.4.1.6l-.5.1c.1-.4.1-.8.1-1.1-.1-1.4-.7-2.5-1.4-2.5s-1.2 1.2-1.1 2.6c0 .4.1.8.2 1.1-.6-.9-1.3-1.4-1.9-1.2-.6.2-.6 1.4-.2 2.6-1.2-1.3-2.7-1.8-3.5-1.1s-.5 2.3.7 3.6l.7.7-.3.2c-.3-.3-.7-.5-1.1-.7-1.6-.7-3.2-.5-3.6.5s.5 2.3 2.1 3l-.7 2.4c-.8-.2-1.6.3-1.8 1.1-.2.8.3 1.6 1.1 1.8l-.1.3h-.8c-1.8 0-3.2.7-3.2 1.6 0 .9 1.4 1.5 3.2 1.5h.2l.1.8c-.4.3-.6.8-.6 1.3.1.5.4 1 .9 1.2v.5l-.5.1c-1.7.4-2.9 1.4-2.7 2.3s1.8 1.1 3.5.7c.1 0 .3-.1.4-.1l1.2 1.6s0 .1.1.1l.1.1.6.8.2.2-.4.3c-1.3 1.3-1.9 2.9-1.3 3.5.6.6 2.2 0 3.5-1.3.2-.2.3-.3.4-.5l.2.1c-.1.2 0 .5.2.7.2.2.6.1 1-.2l.8.2v.1c-.4 1.4 0 2.6.8 2.9.8.3 1.8-.7 2.2-2.1l.4.1c-.1.4-.1.8 0 1.1.2 1.4 1 2.4 1.9 2.3.9-.1 1.4-1.3 1.2-2.7 0-.2-.1-.4-.1-.6l.6-.2v.1c.7 1.6 1.8 2.6 2.5 2.3.7-.3.7-1.7 0-3.2l.3-.1c.1.3.2.7.3 1 .7 1.5 1.7 2.5 2.4 2.3.7-.3.6-1.7 0-3.3-.1-.2-.2-.4-.3-.7l.5-.2c0 .2.1.3.2.5.4.9 1.1 1.5 1.4 1.3.4-.2.4-1.1 0-2-.1-.2-.2-.3-.3-.5l.6-.6c1 .7 2.1.9 2.6.4.5-.6 0-1.5-.8-2.2l.6-.7s.1 0 .1.1c1.4.9 3 1.1 3.5.3s-.1-1.9-1.2-2.9l.3-.9c1.3.5 2.4.4 2.8-.3.4-.7-.3-2.2-1.8-3l.1-.4.1-.5z" class="st13"/><path d="m309.1 376.7.4.1c.7 0 1.3-.2 1.3-.6s-.5-.7-1.2-.8h-.3v-.2c.2-.1.3-.2.3-.4 0-.1-.1-.2-.2-.3v-.8c.7-.2 1.2-.6 1.1-.9s-.7-.5-1.3-.4l-.2-.6c.5-.3.8-.8.7-1.1-.2-.3-.8-.3-1.4 0h-.3l-.1-.1c.3-.4.4-.8.2-1s-.8-.2-1.3.1l-.2-.2.1-.2c.3-.8.2-1.6-.2-1.8-.4-.2-1 .3-1.3 1 .2-.8.1-1.5-.2-1.6-.4-.1-1 .3-1.4 1.1l-.2-.1c.1-.7-.1-1.3-.6-1.4s-1.1.3-1.4 1c0 .1 0 .2-.1.2h-.1v-.2c0-.4-.2-.7-.5-.7s-.4.4-.4.8c0 .1 0 .2.1.3h-.3v-.6c0-.7-.4-1.3-.7-1.3s-.6.6-.6 1.4c0 .2 0 .4.1.6-.3-.5-.7-.7-1-.6-.3.1-.3.7-.1 1.3-.6-.7-1.4-.9-1.8-.5-.4.4-.2 1.2.4 1.9.1.1.3.2.4.4l-.1.1c-.2-.1-.4-.3-.6-.3-.8-.4-1.7-.2-1.9.3-.2.5.3 1.2 1.1 1.6l-.3 1.3c-.5 0-.9.2-1 .6 0 .4.2.8.5.9v.2h-.4c-.9 0-1.7.4-1.7.8s.7.8 1.7.8h.1v.4c-.2.2-.3.4-.3.7 0 .3.2.5.5.6v.3h-.3c-.9.2-1.5.8-1.4 1.2.1.4.9.6 1.8.4h.2l.6.8v.1l.3.4.1.1-.2.1c-.7.7-1 1.5-.7 1.8.3.3 1.1 0 1.8-.7l.2-.2.1.1c0 .1 0 .3.1.4.1.1.3 0 .5-.1l.4.1c-.2.7 0 1.4.4 1.5s.9-.4 1.1-1.1h.2v.6c.1.7.5 1.3 1 1.2.4-.1.7-.7.6-1.4 0-.1 0-.2-.1-.3l.3-.1v.1c.4.8.9 1.3 1.3 1.2s.4-.9 0-1.7h.1c0 .2.1.3.2.5.4.8.9 1.3 1.2 1.2.3-.1.3-.9 0-1.7 0-.1-.1-.2-.2-.3l.3-.1c0 .1.1.2.1.2.2.5.5.8.8.7.2-.1.2-.5 0-1 0-.1-.1-.2-.1-.3l.3-.3c.5.4 1.1.5 1.3.2.2-.3 0-.8-.4-1.2l.3-.3c.7.5 1.5.6 1.8.2.3-.4 0-1-.6-1.5l.1-.5c.7.3 1.3.2 1.5-.1.2-.4-.2-1.1-.9-1.6l.1-.2.5-.5z" class="st13"/><path d="M316.9 352.9c-1.2 4.4-3.1 8.5-5.6 12.3l-.1.1c-1.1 1.6-2.2 3.1-3.4 4.6l-.3.3-.2.2-.2.2c-.1.2-.3.3-.5.5-1 1.1-2 2.1-3.1 3-.1.1-.2.2-.3.2-1.6 1.5-3.4 2.8-5.2 4l-1 .7c-1.9 1.2-3.9 2.3-5.9 3.2-.6.3-1.2.6-1.9.8-.8.4-1.6.7-2.5 1l-.5.2-1.3.4c-.1 0-.2.1-.3.1-.8.3-1.7.5-2.6.8-.2 0-.3.1-.5.1-.1 0-.2 0-.3.1l-1.7.4c-.8.2-1.7.4-2.6.5-10 1.9-22 1.8-36.2-1.1-15.2-3.1-25.5-9.8-31.9-18.1-2.7-3.4-4.8-7.2-6.3-11.3-1.4-3.9-2.4-8-2.7-12.1-1.2-12.6 2.5-25 8.2-32.3 13.7-17.6 2.6-21.6 2.6-21.6 4.3-2.6 18.2-4.1 18.2-4.1 26.8-7.3 46.1-5.1 59.6 1.9 5.4 2.8 10.2 6.5 14.2 11 1.4 1.6 2.8 3.3 4 5 12 17.2 13 39.3 10.3 49z" class="st11"/><path d="M299 374.2c3 1.8 5.6 4.2 7.8 6.9v.1c.9 1.2 1.8 2.4 2.6 3.6 0 .1.1.2.2.3 0 0 0 .1.1.2 0 .1.1.1.1.2.1.1.2.3.3.5.6 1 1.1 2 1.5 3 0 .1.1.2.1.3.7 1.6 1.3 3.2 1.8 4.9.1.3.2.6.2.9.5 1.7.8 3.5 1 5.3.1.5.1 1.1.2 1.6.1.7.1 1.4.1 2.2V408.7c0 .5-.1 1-.1 1.4 0 .7-.1 1.4-.2 2.1-1 8.2-3.9 17.7-9.4 28.3-5.9 11.3-13.4 18.1-21.1 21.5-3.1 1.4-6.5 2.3-9.9 2.7-3.2.4-6.5.3-9.7-.2-9.7-1.6-18.1-7-22.2-13-9.9-14.3-15.5-6.4-15.5-6.4-1-3.9 1.3-15.1 1.3-15.1 1-22.6 7.2-37.3 15.6-46.6 3.3-3.6 7.2-6.7 11.6-9 1.5-.8 3.1-1.5 4.7-2.2 15.5-5.7 32.3-2 38.9 2zM295.4 372c-12.2-5.9-21.6-16.3-26.1-29-4.9-13.3-5.1-28.5-2-42.4.1-.6.3-1.3.4-1.9.4-1.8.9-3.5 1.4-5.2.2-.6.4-1.2.6-1.7.2-.6.3-.9.5-1.4.2-.5.5-1.3.7-2 .2-.4.3-.9.5-1.3.3-.7.5-1.3.8-2l.6-1.3.2-.4.7-1.4c1.1-2.3 2.3-4.6 3.7-6.8.2-.4.5-.8.8-1.2l.1-.2.6-.9.7-1c.3-.4.5-.7.8-1.1.3-.4.4-.6.7-.9.2-.3.6-.7.9-1.1 0 0 0-.1.1-.1.7-.8 1.3-1.5 2-2.2 1.7-1.7 3.5-3.3 5.5-4.7.7-.5 1.4-.9 2.2-1.3.4-.2.8-.4 1.1-.6.4-.2.8-.4 1.2-.5.4-.2.8-.3 1.2-.5 5-1.7 9.9-3.9 14.5-6.4 10.7-6 11.7-11 11.7-12.7 1.2 11.9 2.6 9.1 2.6 9.1 17.1 7 17.6 22.8 17.6 22.8 15.8 6.5 13.9 13.8 18.3 35.2 4.3 21.4-14.7 89.7-64.6 65.1z" class="st13"/><path d="M313 368.6c10.2-5.5 22.1-6.9 33.2-3.7 11.7 3.2 22.4 10.7 30.5 19.8.4.4.7.8 1.1 1.2 1 1.2 2 2.4 2.9 3.6l.9 1.3.7 1c.4.5.7 1 1 1.5l.7 1 1 1.6.6 1.1c.1.1.1.2.2.3.2.4.4.8.6 1.1 1.1 1.9 2 3.9 2.9 6 .2.4.3.8.4 1.1 0 .1 0 .1.1.2l.3.9c.1.3.2.6.3 1l.4 1.1.3.9c.1.3.2.8.3 1.2v.1c.2.8.4 1.7.5 2.5.4 2 .6 4.1.5 6.2 0 .7-.1 1.5-.2 2.2 0 .4-.1.7-.2 1.1-.1.4-.1.7-.2 1.1-.1.4-.2.7-.3 1-1.3 4.3-2.3 8.8-2.8 13.3-1.2 10.4 1.7 13.7 3 14.6-8.9-5.1-7.6-2.7-7.6-2.7-13.4 8.4-24.6.8-24.6.8-12.4 7.8-16.5 2.7-33.7-4.9-17-7.7-54.9-55.2-12.8-77.5z" class="st13"/><path d="M302.3 371s24.1-73.2 89.4-39.8c0 0 24.4-1.7 31.8 11.9s-1.1 19.3-1.1 19.3 24.1 10.9 7.5 29.2-57 38.6-98.8 18.2c0 .1-29.6-15.3-28.8-38.8z" class="st11"/><path d="M301.4 377.6s-69.2.7-59.7-64.5c0 0-8.5-20.2.9-30.5s16.7-4.7 16.7-4.7 2.3-23.6 22.6-14.8c20.4 8.8 49.3 37.3 44.2 78.7-.1.1-4.5 29.7-24.7 35.8z" class="st12"/><path d="M343.5 467.6c-1 10.1-11.9 14.8-11.9 14.8-7.2-15.8-35.1-12.6-35.1-12.6-5.6-1.7-10.7-4.7-14.7-8.9-9.8-10.5-10-26.5-7.2-41.3.8-4.1 1.8-8.1 2.9-11.8 1.6-5.7 4.1-11.2 7.4-16.1.8-1.2 1.6-2.3 2.3-3.3.6-.8 1.3-1.6 1.9-2.3l.2-.2c1.3-1.5 2.5-2.8 3.7-3.9l.6-.6c1.4-1.3 2.9-2.6 4.4-3.7.8-.6 1.6-1.2 2.5-1.7.8-.4 1.6-.7 2.4-.9.8-.2 1.9-.4 3-.5.8-.1 1.7-.2 2.6-.2.6 0 1.3-.1 2-.1h1.3c1.6 0 3.3 0 5.2.2h.4c1.3.1 2.6.2 3.9.4.9.1 1.7.2 2.6.4h.1l.4.1c2.9.5 5.7 1.1 8.5 2 13.2 3.9 27.4 12.2 36 28.4 1.4 2.6 2.6 5.2 3.6 8 15.7 42.9-29 53.8-29 53.8z" class="st12"/><path d="M281.9 460.9c-9.8-10.5-10-26.5-7.2-41.3.8-4.1 1.8-8.1 2.9-11.8 1.6-5.7 4.1-11.2 7.4-16.1.8-1.2 1.6-2.3 2.3-3.3.4 2.1.9 4.3 1.6 6.3 6.2 19.5-1.3 29.7-7.2 48.2-2.4 7.7-1.6 13.6.2 18z" class="st13"/><path d="m287.9 388.8-1.5 1.8c.3-.9.6-1.7 1.1-2.5.8-1.5 2.1-2.6 3.7-3.2l-3.3 3.9z" class="st12"/><path d="M228 365.8c-3.8 1.3-7.4 3-10.9 5-17.8 9.7-17.6 33.1-15.8 46.4-8.2-8.8-13.2-24.4 7.4-49.7 3.2-4.1 7.1-7.6 11.4-10.6 2.1 3.3 4.8 6.3 7.9 8.9z" class="st11"/><path d="M371.7 363.6c3.6-2.2 7.1-4.6 10.3-7.4 16.4-14 12-40.5 7.8-55.4 9.9 8.7 17.8 25.7 1.4 57.9-2.5 5.1-5.8 9.8-9.7 13.9-2.8-3.5-6.1-6.5-9.8-9z" class="st13"/><path d="M303.8 377.9s1 .3 2.9.8c1.3.4 3.1.8 5.3 1.3l.6.1c.2 0 .3.1.5.1l1.2.3 2 .4.6.1.8.1c1.9.4 3.9.7 6 1 1.2.2 2.4.3 3.6.5 15.2 1.7 34.7 1.3 49.5-8.4 5.2-3.3 9.6-7.7 12.9-12.9 2.8-4.4 5-9.2 6.3-14.2 9-31.4-1.7-43.8-12.7-48.7-5.4-2.2-11.1-3.3-16.9-3 3.3-3.9-12.1-34.9-51.9-2.7-2.3 1.8-4.4 3.8-6.4 5.9-5.7 6-9.9 13.3-12.2 21.2-3.3 11.2-2.8 22.6-.9 32.3.3 1.5.6 2.9.9 4.3.6 2.5 1.3 4.8 2 6.9.1.3.2.7.3 1 0 .1 0 .1.1.2.4 1.3.9 2.5 1.3 3.6.1.4.3.8.4 1.1.4 1 .8 1.9 1.1 2.8 1.6 3.9 2.7 5.9 2.7 5.9zM198 343.6c9.4 4.7 25.3 14.2 31.2 25.9 7.6 15.1 49.2 20.3 58.8 21.1-13.9 4.4-29.4 3.8-43.3-.2l-1.9-.5c-1.8-.5-3.5-1.1-5.3-1.8l-1.7-.7-1.4-.6c-.7-.3-1.3-.6-2-.9l-1.3-.6-2-1-1.3-.7-.4-.2c-.5-.2-.9-.5-1.4-.8-2.3-1.3-4.5-2.7-6.7-4.2l-1.2-.9-.2-.2c-.3-.2-.6-.5-.9-.7l-1-.8-1-.9-.9-.8-1.1-1-.1-.1c-.8-.7-1.5-1.5-2.1-2.2-1.7-1.8-3.2-3.8-4.5-6-.5-.8-.9-1.6-1.3-2.4-.2-.4-.4-.8-.5-1.2-.2-.4-.2-.6-.4-.9l-.1-.3v-.1c-.2-.4-.3-.8-.4-1.3-1.4-4.9-3.3-10.1-5.6-15z" class="st13"/><path d="M701 559.8s-.6-.6-1.8-1.5c-.9-.7-2-1.6-3.4-2.6l-.4-.3c-.1-.1-.2-.2-.3-.2l-.8-.6c-.4-.3-.9-.6-1.3-.9l-.4-.2c-.2-.1-.4-.2-.5-.4-1.3-.8-2.6-1.7-4.1-2.6-.8-.5-1.6-1-2.5-1.5-10.5-5.9-24.9-11.7-38.6-9.3-4.8.8-9.5 2.6-13.5 5.3-3.4 2.3-6.5 5.1-9 8.4-16.3 20.1-12.3 32.4-5.9 39.4 3.2 3.3 7.1 5.9 11.5 7.5-3.6 1.9-2 29.2 37 18.1 2.2-.6 4.4-1.4 6.5-2.3 6-2.6 11.3-6.6 15.5-11.7 5.4-6.8 9-14.7 10.7-23.2.2-1.1.5-2.3.7-3.4.3-2 .6-3.9.7-5.7 0-.3 0-.6.1-.8v-.2c0-1.1.1-2.1.2-3v-3.4c-.3-3-.4-4.9-.4-4.9z" class="st18"/><ellipse cx="691.2" cy="542.3" class="st12" rx="1.6" ry="3.3" transform="rotate(-24.811 691.216 542.356)"/><ellipse cx="693.6" cy="539.4" class="st12" rx="1.6" ry="3.3" transform="rotate(-3.322 693.538 539.363) scale(.99998)"/><ellipse cx="696.8" cy="539.7" class="st12" rx="1.2" ry="1.8" transform="rotate(-3.322 696.747 539.75) scale(.99998)"/><ellipse cx="700.7" cy="540.4" class="st12" rx="3.5" ry="2.4" transform="rotate(-71.681 700.654 540.396)"/><path d="M698.2 539.4s-9-10.4 3.2-17.6c0 0 3.8-1.4 3.4.6-.3 1.7-2 .7-2 .7s-1-1.5-3.4 1.5c0 0-5.9 5.6 0 14.9l-1.2-.1zM712.6 544.9s15.6-7.8 2.8-24.3c0 0-4.4-4.1-4.7-1.3-.2 2.4 2.4 2.1 2.4 2.1s1.9-1.3 3.8 3.9c0 0 5.4 10.6-5.8 19l1.5.6zM688.6 541.7s6-6.9-2.2-11.7c0 0-2.6-1-2.3.4.2 1.2 1.3.5 1.3.5s.7-1 2.3 1c0 0 4 3.8.1 9.9l.8-.1z" class="st10"/><path d="M704.7 462.5c-3.2 7.5-9.7 20.2-18.3 25.2-11.1 6.5-13.4 38.9-13.6 46.4-3.9-10.5-4-22.6-1.6-33.5l.4-1.5c.3-1.4.7-2.8 1.1-4.2.1-.5.3-.9.4-1.4.2-.5.2-.7.4-1.1s.4-1.1.6-1.6l.4-1c.2-.5.4-1.1.7-1.6l.5-1.1c0-.1.1-.2.1-.3.2-.4.3-.7.5-1.1.9-1.8 1.8-3.6 2.9-5.4l.6-1 .1-.2c.2-.2.3-.5.5-.7l.5-.8.6-.9c.2-.2.4-.5.5-.7.2-.2.5-.6.7-.9l.1-.1c.5-.6 1-1.2 1.6-1.7 1.3-1.4 2.8-2.6 4.3-3.7.6-.4 1.1-.7 1.7-1.1.3-.2.6-.3.9-.5l.7-.3.2-.1h.1l.9-.4c4-1 7.8-2.7 11.5-4.7z" class="st18"/><ellipse cx="700.3" cy="571.5" class="st13" rx="2.1" ry="3.2" transform="rotate(-12.89 700.292 571.471)"/><ellipse cx="704.7" cy="571.9" class="st13" rx="1.7" ry="3.9" transform="rotate(-18.576 704.844 571.972)"/><ellipse cx="704.8" cy="578.8" class="st12" rx="1.7" ry="3.9" transform="rotate(-23.393 704.778 578.79)"/><ellipse cx="707.7" cy="577.3" class="st12" rx="1" ry="2.4" transform="rotate(-23.393 707.688 577.298)"/><ellipse cx="700.9" cy="578.7" class="st12" rx="1.7" ry="4" transform="rotate(-23.393 700.831 578.698)"/><ellipse cx="696.6" cy="574.5" class="st12" rx="1.4" ry="2.6" transform="rotate(-7.492 696.306 574.319)"/><ellipse cx="696.7" cy="580.6" class="st12" rx="2" ry="3.3" transform="rotate(-7.492 696.402 580.363)"/><ellipse cx="692.2" cy="578.7" class="st12" rx="3.3" ry="2" transform="rotate(-74.77 692.22 578.71)"/><ellipse cx="692.4" cy="571" class="st13" rx="3.5" ry="2.4" transform="rotate(-72.079 692.405 571.024)"/><ellipse cx="707.3" cy="567.9" class="st13" rx="1.7" ry="3.2" transform="rotate(-45.001 707.283 567.942)"/><ellipse cx="709.8" cy="565.1" class="st13" rx="1.7" ry="3.2" transform="rotate(-60 709.843 565.162)"/><ellipse cx="718.6" cy="562.1" class="st17" rx="2.2" ry="4" transform="rotate(-60.112 718.595 562.106)"/><ellipse cx="710" cy="574.1" class="st12" rx="1.7" ry="3" transform="rotate(-51.77 710.064 574.154)"/><ellipse cx="713.5" cy="570.5" class="st12" rx="2.2" ry="4" transform="rotate(-55.911 713.483 570.484)"/><ellipse cx="699.3" cy="559.5" class="st15" rx="3.2" ry="2.1" transform="matrix(.06053 -.9982 .9982 .06053 98.479 1223.64)"/><ellipse cx="699.2" cy="552.2" class="st15" rx="2.8" ry="2.3" transform="matrix(.06053 -.9982 .9982 .06053 105.645 1216.661)"/><ellipse cx="704.7" cy="556.4" class="st15" rx="2.8" ry="2.3" transform="rotate(-30 704.703 556.4)"/><ellipse cx="704.9" cy="562.3" class="st15" rx="1.7" ry="2.2" transform="rotate(-45.001 704.91 562.321)"/><ellipse cx="702" cy="565.7" class="st15" rx="1.7" ry="2.2" transform="rotate(-30 701.963 565.691)"/><ellipse cx="696.7" cy="565.6" class="st15" rx="2.2" ry="1.7" transform="rotate(-72.788 696.77 565.575)"/><ellipse cx="694.3" cy="561.9" class="st15" rx="2.2" ry="1.7" transform="rotate(-23.059 694.259 561.929)"/><ellipse cx="682.7" cy="564.4" class="st12" rx="2.9" ry="2.2" transform="rotate(-6.851 682.497 564.29)"/><ellipse cx="694.6" cy="556.8" class="st15" rx="1.7" ry="2.2" transform="rotate(-68.943 694.551 556.81)"/><ellipse cx="688.4" cy="559.6" class="st13" rx="1.7" ry="3.5" transform="matrix(.08507 -.9964 .9964 .08507 72.243 1197.948)"/><ellipse cx="680.9" cy="569.1" class="st12" rx="4.1" ry="2" transform="rotate(-14.058 680.968 569.21)"/><ellipse cx="680.2" cy="560.1" class="st12" rx="4.1" ry="2"/><ellipse cx="682.9" cy="556.1" class="st12" rx="2.1" ry="3.1" transform="rotate(-75.93 682.9 556.094)"/><ellipse cx="684.1" cy="548.5" class="st12" rx="2.5" ry="4.1" transform="rotate(-66.473 684.063 548.515)"/><ellipse cx="687.7" cy="544.3" class="st12" rx="2.5" ry="4.1" transform="rotate(-41.952 687.704 544.333)"/><ellipse cx="705.5" cy="542.1" class="st12" rx="4.5" ry="2.1" transform="rotate(-68.15 705.473 542.046)"/><ellipse cx="709.6" cy="543.3" class="st12" rx="4" ry="2.1" transform="rotate(-68.15 709.596 543.31)"/><ellipse cx="712.4" cy="546.8" class="st12" rx="3.4" ry="1.8" transform="rotate(-37.079 712.47 546.864)"/><ellipse cx="688.7" cy="563.8" class="st13" rx="2.5" ry="1.2" transform="rotate(-18.414 688.7 563.863)"/><ellipse cx="688.4" cy="554.4" class="st13" rx="1.7" ry="3.5" transform="rotate(-55.39 688.473 554.42)"/><ellipse cx="690.3" cy="551.6" class="st12" rx="1.7" ry="3.5" transform="rotate(-48.239 690.384 551.662)"/><ellipse cx="696.6" cy="552.3" class="st17" rx="1.8" ry="3.6" transform="rotate(-29.888 696.584 552.332)"/><ellipse cx="695.8" cy="547.1" class="st13" rx="1.7" ry="3.5" transform="rotate(-30 695.748 547.08)"/><ellipse cx="698.1" cy="546.6" class="st13" rx="1.4" ry="2.9" transform="rotate(-16.081 698.056 546.531)"/><ellipse cx="701.4" cy="547.1" class="st13" rx="2.9" ry="1.4" transform="rotate(-74.817 701.403 547.079)"/><ellipse cx="706.1" cy="550.4" class="st13" rx="3.9" ry="1.9" transform="rotate(-54.02 706.104 550.434)"/><ellipse cx="710.5" cy="552.6" class="st13" rx="3.1" ry="1.7" transform="rotate(-10.848 710.61 552.665)"/><ellipse cx="711.2" cy="556" class="st13" rx="3.1" ry="1.7"/><ellipse cx="718.2" cy="560.7" class="st12" rx="1.7" ry="3.1" transform="matrix(.0828 -.9966 .9966 .0828 99.98 1230.028)"/><ellipse cx="716.2" cy="557.7" class="st12" rx="2.1" ry="1.1" transform="rotate(-5.171 716.202 557.713) scale(.99997)"/><ellipse cx="717.7" cy="553.2" class="st12" rx="3.1" ry="1.7" transform="rotate(-12.472 717.731 553.359)"/><ellipse cx="715.9" cy="548.9" class="st12" rx="3.1" ry="1.7" transform="rotate(-30 715.844 548.96)"/><ellipse cx="710.4" cy="560.6" class="st13" rx="2.2" ry="4" transform="rotate(-77.267 710.462 560.594)"/><ellipse cx="703.2" cy="549.7" class="st12" rx="2.5" ry="1.3" transform="rotate(-54.02 703.225 549.76)"/><ellipse cx="692.2" cy="565.7" class="st13" rx="2.5" ry="1.3" transform="rotate(-38.409 692.168 565.634)"/><ellipse cx="687" cy="567.2" class="st12" rx="2.5" ry="1.3" transform="rotate(-38.409 687.023 567.16)"/><ellipse cx="685.4" cy="571.5" class="st12" rx="2.5" ry="1.3" transform="rotate(-38.409 685.416 571.499)"/><ellipse cx="689.3" cy="576.3" class="st12" rx="2.2" ry="1.1" transform="rotate(-52.316 689.36 576.285)"/><ellipse cx="685.6" cy="576.2" class="st12" rx="4.3" ry="2" transform="rotate(-45.001 685.562 576.173)"/><path d="M693.6 581.2s-2.6 25.2 13.3 25c0 0 4.5-1.5 2.9-4.3-1.3-2.4-2.3.9-2.3.9s-.1 3.4-4.1.9c0 0-8.9-3.2-8.7-23.8l-1.1 1.3z" class="st10"/><path d="M693.7 581s2.3 16.1 12.1 13.5c0 0 2.6-1.6 1.2-3.1-1.2-1.3-1.3.9-1.3.9s.5 2.1-2.4 1.2c0 0-6-.6-9.1-13.4l-.5.9zM679.9 556s-14.9 6.5-17.9-3.2c0 0 0-3 2-2.6 1.7.3-.1 1.6-.1 1.6s-2.1.7.3 2.6c0 0 3.7 4.8 16.2.6l-.5 1zM683.6 572.2s-3 6.4-7.7 3.4c0 0-1.1-1.2-.2-1.6.9-.4.6.7.6.7s-.5.8 1.1 1c0 0 3.2.9 6.2-3.9v.4z" class="st10"/><path d="M685.3 552.4s-10.6 4.8-13.1-3.2c0 0-.1-2.5 1.4-2.1 1.3.3 0 1.3 0 1.3s-1.5.5.3 2.2c0 0 2.9 4.1 11.8 1.1l-.4.7zM684.1 545.7s-19-25.8-3.9-34.8c0 0 5.2-1 5.6 3 .3 3.4-2.8.4-2.8.4s-2.3-3.6-4.5 1.4c0 0-6.3 8.6 7.4 30.8l-1.8-.8zM718.8 547.4s21.6-22.2 32.9-8.7c0 0 1.9 5-1.9 5.9-3.2.8-.9-2.6-.9-2.6s3.1-2.8-2.2-4.2c0 0-9.4-5-28.4 11.6l.5-2z" class="st10"/><path d="M718.1 549.3s14-9.3 18.4-.8c0 0 .4 2.8-1.7 2.9-1.8 0-.1-1.5-.1-1.5s2-1.1-.7-2.4c0 0-4.4-3.7-16.4 2.8l.5-1zM712.7 572.7s26 23.6 15.3 33.6c0 0-4.4 1.4-6.1-2.4-1.4-3.3 2.4-.6 2.4-.6s3.4 3.4 3.6-1.7c0 0 2.8-8.9-17.1-29.3l1.9.4zM712.8 567.3s8.5 9.7 17.5-2.1c0 0 2-3.8 0-3.5-1.7.2-1 2-1 2s1.3 1.1-2 3.3c0 0-6.4 5.6-14.3-.9l-.2 1.2zM680.6 562.6s-13.4-8.4-19.7 7c0 0-1 4.7 1.3 3.9 1.9-.7.4-2.5.4-2.5s-1.9-.9 1.1-4.2c0 0 5.4-7.9 17.1-2.8l-.2-1.4z" class="st10"/><path d="M680.3 566.2s-8.4-1.6-8.5 7.5c0 0 .5 2.6 1.4 1.7s-.3-1.3-.3-1.3-1.1-.1-.3-2.3c0 0 1.1-5.1 8-4.9l-.3-.7z" class="st10"/><path d="M717 562.3c.3.1.6.1.9.2 1.7.1 3.2-.5 3.3-1.4s-1.3-1.8-3-1.9h-.8v-.6c.4-.2.7-.6.7-.9-.1-.3-.3-.6-.6-.7l.1-2h.1c1.7-.4 2.9-1.4 2.7-2.3-.2-.9-1.7-1.3-3.3-1l-.4-1.4c1.3-.9 2-2.1 1.6-2.8-.4-.8-2-.7-3.5.1l-.2.1-.3-.3c.8-1 1.1-2 .6-2.6-.5-.6-1.9-.6-3.3.2l-.5-.4.2-.5c.8-2 .6-4.1-.5-4.5-1.1-.4-2.4.7-3.2 2.4l-.1-.1c.5-1.9.3-3.7-.6-4-1-.4-2.4.8-3.4 2.8l-.6-.2c.3-1.6-.2-3.1-1.4-3.5-1.1-.4-2.8.7-3.4 2.6-.1.2-.1.4-.2.6h-.3v-.6c0-1-.6-1.8-1.3-1.8-.7 0-1.1.9-1.1 1.9 0 .3.1.5.2.8l-.7.1c.1-.5.1-1 .1-1.5-.1-1.8-.9-3.3-1.8-3.2-.9.1-1.5 1.6-1.4 3.4 0 .5.1 1 .3 1.5-.8-1.2-1.7-1.8-2.4-1.5-.7.3-.8 1.8-.2 3.3-1.5-1.7-3.5-2.3-4.5-1.4s-.6 3 .9 4.7c.3.3.6.6 1 .8l-.3.3c-.4-.3-.9-.6-1.4-.8-2.1-.9-4.2-.6-4.7.6s.7 3 2.7 3.9l-.8 3.1c-1.1-.2-2.1.5-2.3 1.5-.2.9.4 1.9 1.3 2.2l-.1.4c-.3 0-.7-.1-1-.1-2.3 0-4.1.9-4.1 2s1.9 2 4.1 2h.2l.1 1.1c-.5.4-.8 1.1-.8 1.7.1.7.6 1.2 1.2 1.5l.1.7c-.2 0-.5.1-.7.1-2.2.5-3.8 1.9-3.5 2.9.3 1.1 2.3 1.5 4.5.9l.5-.1 1.5 2c0 .1.1.1.1.2l.1.1.8 1 .2.2-.4.4c-1.7 1.7-2.4 3.7-1.6 4.5.8.8 2.8 0 4.5-1.7l.6-.6.2.2c-.1.3 0 .7.2.9.3.2.8.1 1.3-.2l1 .3v.1c-.5 1.8 0 3.4 1.1 3.7s2.3-.9 2.8-2.6v-.1l.5.2c-.1.5-.1 1 0 1.5.2 1.8 1.3 3.2 2.4 3 1.1-.1 1.8-1.7 1.6-3.5 0-.3-.1-.5-.2-.8l.7-.2.1.1c.9 2 2.3 3.4 3.2 3 .9-.4.8-2.2.1-4.1l.3-.1c.1.4.3.9.4 1.3.8 2 2.2 3.3 3.1 2.9.8-.4.8-2.3 0-4.2-.1-.3-.3-.6-.4-.8l.7-.2c.1.2.1.4.2.6.5 1.2 1.3 2 1.9 1.8s.5-1.4 0-2.6c-.1-.2-.2-.4-.3-.7l.8-.8c1.3 1 2.7 1.2 3.3.5s.1-1.9-1-2.9l.8-.8.1.1c1.8 1.2 3.8 1.4 4.5.4.7-1-.1-2.5-1.6-3.7l.4-1.1c1.6.7 3.2.6 3.7-.3.5-.9-.4-2.8-2.3-3.9l.2-.6-.3-.8z" class="st13"/><path d="M709.5 561.9c.2 0 .4.1.6.1 1.1.1 2-.3 2-.9.1-.6-.8-1.1-1.8-1.2h-.5v-.4c.2-.1.4-.3.4-.5s-.2-.4-.4-.4l.1-1.2h.2c1-.2 1.8-.9 1.7-1.4-.1-.6-1-.8-2-.6l-.3-.9c.8-.5 1.3-1.3 1-1.7-.3-.4-1.3-.5-2.2.1l-.1.1-.2-.2c.5-.6.7-1.2.4-1.6-.3-.4-1.2-.4-2 .1l-.3-.2.1-.3c.5-1.3.4-2.5-.3-2.8s-1.5.4-2 1.5c.3-1.2.2-2.2-.4-2.5s-1.5.5-2.1 1.7l-.4-.1c.3-.8-.1-1.7-.8-2.1-.8-.3-1.7.4-2.1 1.6 0 .1-.1.3-.1.4h-.2v-.4c0-.6-.4-1.1-.8-1.1s-.7.5-.7 1.2c0 .2 0 .3.1.5h-.4v-.9c0-1.1-.5-2-1.1-2-.5 0-.9 1-.9 2.1 0 .3.1.6.2.9-.5-.7-1.1-1.1-1.5-1s-.5 1.1-.1 2c-.9-1-2.2-1.4-2.8-.8s-.4 1.9.5 2.9c.2.2.4.4.6.5l-.2.2c-.3-.2-.5-.4-.8-.5-1.3-.6-2.6-.4-2.9.4-.3.8.4 1.8 1.7 2.4l-.5 1.9c-.6-.1-1.2.3-1.4.9-.1.6.3 1.2.8 1.4l-.1.3h-.6c-1.4 0-2.5.5-2.5 1.2s1.1 1.2 2.5 1.2h.1l.1.6c-.3.2-.5.6-.5 1.1.1.4.3.8.7.9v.4l-.4.1c-1.3.3-2.3 1.1-2.2 1.8.2.7 1.4.9 2.7.6l.3-.1.9 1.2v.1h.1l.5.6.2.1c-.1.1-.2.1-.2.2-1 1-1.5 2.3-1 2.7.5.5 1.7 0 2.7-1 .1-.1.2-.2.3-.4l.1.1c-.1.2 0 .4.1.6.2.1.5.1.8-.2l.6.2v.1c-.3 1.1 0 2.1.7 2.3.7.2 1.4-.6 1.7-1.6l.3.1v.9c.1 1.1.8 1.9 1.5 1.9s1.1-1.1 1-2.2c0-.2-.1-.3-.1-.5l.5-.1v.1c.5 1.3 1.4 2.1 1.9 1.8s.5-1.3 0-2.5h.2c.1.3.2.5.3.8.5 1.2 1.4 2 1.9 1.8.5-.2.5-1.4 0-2.6-.1-.2-.2-.3-.3-.5l.4-.1c0 .1.1.2.1.4.3.7.8 1.2 1.1 1.1.3-.1.3-.8 0-1.6-.1-.1-.1-.3-.2-.4l.5-.5c.8.6 1.7.7 2 .3.3-.4 0-1.2-.6-1.8l.5-.5c1.1.8 2.3.9 2.8.2s0-1.5-1-2.3l.2-.7c1 .4 1.9.4 2.3-.2.3-.5-.3-1.7-1.4-2.4l.1-.4.3-.4z" class="st13"/><path d="M704.3 560.7h.3c.6 0 1-.2 1-.5s-.4-.6-1-.6h-.2v-.2c.1-.1.2-.2.2-.3 0-.1-.1-.2-.2-.2v-.6c.5-.1.9-.5.9-.7-.1-.3-.5-.4-1.1-.3l-.1-.4c.4-.3.7-.7.5-.9-.1-.2-.7-.2-1.1 0l-.1-.1c.3-.3.3-.6.2-.8s-.6-.2-1.1.1l-.1-.1v-.2c.3-.7.2-1.3-.2-1.4-.4-.1-.8.2-1 .8.2-.6.1-1.2-.2-1.3-.3-.1-.8.3-1.1.9h-.2c.1-.4 0-.9-.4-1.1-.4-.1-.9.2-1.1.8v.2h-.1v-.2c0-.3-.2-.6-.4-.6s-.4.3-.3.6v.3h-.2v-.5c0-.6-.3-1-.6-1s-.5.5-.4 1.1c0 .2 0 .3.1.5-.2-.4-.6-.6-.8-.5-.2.1-.3.6-.1 1.1-.5-.5-1.1-.7-1.5-.4-.3.3-.2 1 .3 1.5l.3.3-.1.1c-.1-.1-.3-.2-.4-.3-.7-.3-1.3-.2-1.5.2s.2 1 .9 1.2l-.3 1c-.3 0-.6.2-.8.5 0 .3.1.6.4.7v.1h-.3c-.7 0-1.3.3-1.3.6s.6.6 1.3.6v.3c-.2.1-.3.3-.2.5 0 .2.2.4.4.5v.2h-.2c-.7.2-1.2.6-1.1.9.1.4.7.5 1.4.3h.2l.5.6.2.3.1.1-.1.1c-.5.5-.8 1.2-.5 1.4.2.2.9 0 1.4-.5l.2-.2h.1c-.1.1-.1.2 0 .3.1.1.3 0 .4-.1l.3.1c-.2.6 0 1.1.3 1.2.3.1.7-.3.9-.8h.2v.5c.1.6.4 1 .8 1s.6-.5.5-1.1v-.3l.2-.1c.3.7.7 1.1 1 1s.3-.7 0-1.3h.1c0 .1.1.3.1.4.3.6.7 1 1 .9s.3-.7 0-1.3c0-.1-.1-.2-.1-.3h.2c0 .1 0 .1.1.2.2.4.4.6.6.6s.2-.4 0-.8l-.1-.2.2-.3c.4.3.9.4 1.1.1.2-.2 0-.6-.3-.9l.3-.3c.6.4 1.2.4 1.4.1.2-.3 0-.8-.5-1.2l.1-.4c.5.2 1 .2 1.2-.1.2-.3-.1-.9-.7-1.3v-.2l.2.1z" class="st13"/><path d="M710.4 541.9c-1 3.4-2.5 6.7-4.4 9.7l-.1.1c-.8 1.3-1.7 2.5-2.7 3.6l-.2.3-.1.1-.2.2c-.1.1-.2.3-.4.4l-2.4 2.4-.2.2c-1.3 1.2-2.7 2.2-4.1 3.2-.3.2-.5.4-.8.5-1.5 1-3 1.8-4.7 2.6-.5.2-1 .4-1.5.7-.7.3-1.3.5-2 .8l-.4.1-1 .3c-.1 0-.1.1-.2.1-.7.2-1.3.4-2.1.6l-.4.1-.2.1-1.3.3c-.7.2-1.3.3-2 .4-1 .2 0 0 0 0-7.8 1.5-17.4 1.5-28.7-.8-12-2.5-20.1-7.8-25.3-14.3-2.1-2.7-3.8-5.7-5-8.9-1.1-3.1-1.9-6.3-2.2-9.6-.9-10 2-19.8 6.5-25.6 10.8-13.9 2.1-17.1 2.1-17.1 3.4-2.1 14.3-3.2 14.3-3.2 21.2-5.7 36.5-4 47.2 1.5 4.2 2.2 8.1 5.1 11.2 8.7 1.1 1.3 2.2 2.6 3.2 4 9.5 13.3 10.3 30.8 8.1 38.5z" class="st13"/><path d="M693.4 557c-9.6-4.6-17.1-12.9-20.7-22.9-3.9-10.5-4-22.6-1.6-33.5l.4-1.5c.3-1.4.7-2.8 1.1-4.2.1-.5.3-.9.4-1.4.2-.5.2-.7.4-1.1s.4-1.1.6-1.6l.4-1c.2-.5.4-1.1.7-1.6l.5-1.1c0-.1.1-.2.1-.3.2-.4.3-.7.5-1.1.9-1.8 1.8-3.6 2.9-5.4l.6-1 .1-.2c.2-.2.3-.5.5-.7l.5-.8.6-.9c.2-.2.4-.5.5-.7.2-.2.5-.6.7-.9l.1-.1c.5-.6 1-1.2 1.6-1.7 1.3-1.4 2.8-2.6 4.3-3.7.6-.4 1.1-.7 1.7-1.1.3-.2.6-.3.9-.5l.9-.4.9-.4c4-1.3 7.8-3 11.5-5 8.5-4.8 9.3-8.7 9.3-10.1 1 9.4 2.1 7.2 2.1 7.2 13.5 5.6 13.9 18 13.9 18 12.5 5.1 11 10.9 14.5 27.9 3.7 17.2-11.4 71.2-50.9 51.8z" class="st18"/><path d="M698.9 556.2s19.1-57.9 70.7-31.5c0 0 19.3-1.3 25.2 9.4s-.9 15.3-.9 15.3 19.1 8.6 5.9 23.1C786.7 587 754.7 603 721.6 587c.1 0-23.3-12.2-22.7-30.8z" class="st13"/><path d="M731.5 632.7c-.8 8-9.4 11.7-9.4 11.7-5.7-12.5-27.8-10-27.8-10-4.4-1.3-8.4-3.8-11.6-7.1-7.8-8.3-7.9-21-5.7-32.7.6-3.2 1.4-6.4 2.3-9.4 1.3-4.5 3.3-8.8 5.9-12.8.6-.9 1.2-1.8 1.8-2.6.6-.8 1-1.3 1.5-1.8 0-.1.1-.1.1-.2.9-1.1 1.9-2.1 2.9-3.1l.5-.5c1.1-1.1 2.3-2 3.5-2.9.6-.5 1.3-.9 1.9-1.3.6-.3 1.3-.6 1.9-.7.8-.2 1.6-.3 2.4-.4.7-.1 1.3-.1 2.1-.2l1.6-.1h1c1.3 0 2.6 0 4.1.1h.3c1 0 2 .2 3.1.3l2.1.3h.4c2.3.4 4.5.9 6.7 1.6 10.4 3.1 21.6 9.6 28.5 22.4 1.1 2 2 4.1 2.8 6.3 12.6 34.5-22.9 43.1-22.9 43.1z" style="opacity:.61;fill:#fff;stroke:#fff;stroke-miterlimit:10;enable-background:new"/><path d="M682.7 627.3c-7.8-8.3-7.9-21-5.7-32.7.6-3.2 1.4-6.4 2.3-9.4 1.3-4.5 3.3-8.8 5.9-12.8.6-.9 1.2-1.8 1.8-2.6.3 1.7.8 3.4 1.3 5 4.9 15.5-1 23.5-5.7 38.2-1.6 4.7-1.6 9.8.1 14.3z" class="st13"/><path d="m687.5 570.3-1.2 1.4c.2-.7.5-1.3.9-2 .6-1.2 1.7-2.1 2.9-2.5l-2.6 3.1z" class="st12"/><path d="M640 552.1c-3 1.1-5.9 2.4-8.7 3.9-14.1 7.7-13.9 26.2-12.5 36.7-6.5-6.9-10.4-19.3 5.8-39.4 2.6-3.2 5.6-6 9-8.4 1.8 2.7 4 5.2 6.4 7.2z" class="st18"/><path d="M753.8 550.3c2.9-1.7 5.6-3.7 8.1-5.9 13-11.1 9.5-32.1 6.2-43.8 7.8 6.9 14 20.3 1.1 45.8-2 4-4.6 7.7-7.7 11-2.2-2.7-4.8-5.1-7.7-7.1z" class="st13"/><path d="M700.1 561.7s.8.3 2.3.7c1.1.3 2.5.7 4.2 1.1l.5.1c.1 0 .2.1.4.1l1 .2 1.6.3.5.1c.2.1.4.1.6.1 1.5.3 3.1.5 4.8.8l2.9.4c12 1.3 27.4 1 39.2-6.6 4.1-2.6 7.6-6.1 10.2-10.2 2.2-3.5 3.9-7.3 5-11.2 7.1-24.9-1.4-34.7-10.1-38.5-4.3-1.8-8.9-2.6-13.5-2.4 2.6-3.1-9.6-27.6-41.1-2.1-1.8 1.4-3.5 3-5 4.7-4.5 4.8-7.8 10.5-9.7 16.8-2.3 8.3-2.5 17.1-.7 25.6.2 1.2.5 2.3.7 3.4.5 2 1 3.8 1.6 5.5.1.3.2.5.2.8v.1c.4 1 .7 2 1 2.9l.3.9c.3.8.6 1.5.9 2.2 1.3 2.6 2.2 4.2 2.2 4.2zM616.4 534.5c7.4 3.8 20 11.2 24.8 20.5 6 12 38.9 16.1 46.5 16.7-11 3.5-23.2 3-34.3-.1l-1.5-.4c-1.4-.4-2.8-.9-4.2-1.4l-1.5-.5-1.1-.4-1.5-.7-1-.5c-.5-.3-1.1-.5-1.6-.8l-1.1-.5-.3-.2-1.1-.6c-1.8-1-3.6-2.1-5.3-3.3l-.9-.7-.2-.1-.7-.5-.8-.6c-.3-.2-.6-.5-.8-.7l-.7-.6c-.3-.3-.6-.5-.9-.8l-.1-.1-1.7-1.7c-1.3-1.4-2.5-3-3.5-4.7-.4-.6-.7-1.2-1-1.9-.2-.3-.3-.6-.4-1-.1-.2-.2-.5-.3-.7l-.1-.2v-.1c-.1-.3-.2-.6-.3-1-1-4.4-2.6-8.5-4.4-12.4z" class="st13"/><path d="M646 205.8s-1.1-.9-3-2.5c-1.4-1.2-3.4-2.6-5.7-4.4l-.7-.5c-.2-.1-.3-.2-.5-.4l-1.3-1c-.7-.5-1.5-1-2.3-1.5l-.6-.4-.9-.6c-2.1-1.4-4.4-2.8-6.8-4.3-1.3-.8-2.7-1.6-4.1-2.4-17.5-9.9-41.5-19.5-64.5-15.5-8 1.3-15.6 4.4-22.4 8.9-5.7 3.9-10.9 8.6-15.2 14-27.1 33.5-20.6 54.1-9.7 65.7 5.4 5.5 11.9 9.8 19.2 12.4-6 3.1-3.4 48.7 61.7 30.2 3.7-1 7.3-2.3 10.8-3.9 10-4.4 18.9-11 25.8-19.5 9.9-11.9 15.1-26.1 17.9-38.8.4-1.9.8-3.8 1.1-5.6.5-3.3.9-6.5 1.2-9.4 0-.5.1-1 .1-1.4v-.3c.1-1.8.2-3.5.3-5.1v-1.6c0-1.4.1-2.7 0-3.9-.1-5.1-.4-8.2-.4-8.2z" style="opacity:.54;fill:#fff;stroke:#fff;stroke-miterlimit:10;enable-background:new"/><ellipse cx="629.7" cy="176.7" class="st12" rx="2.7" ry="5.5" transform="rotate(-24.811 629.715 176.747)"/><ellipse cx="633.6" cy="171.7" class="st12" rx="2.7" ry="5.5" transform="rotate(-3.322 633.62 171.75) scale(.99998)"/><ellipse cx="639" cy="172.4" class="st12" rx="1.9" ry="3" transform="rotate(-3.322 638.964 172.392) scale(.99998)"/><ellipse cx="645.5" cy="173.4" class="st12" rx="5.9" ry="4.1" transform="rotate(-71.681 645.54 173.434)"/><path d="M641.3 171.8s-15-17.3 5.2-29.4c0 0 6.4-2.4 5.7 1-.6 2.9-3.4 1.1-3.4 1.1s-1.7-2.5-5.6 2.5c0 0-9.8 9.4 0 24.9l-1.9-.1zM665.5 180.9s26.1-13 4.7-40.6c0 0-7.4-6.8-7.8-2.1-.4 4 3.9 3.5 3.9 3.5s3.2-2.2 6.3 6.5c0 0 9 17.7-9.7 31.7l2.6 1zM625.4 175.6s10-11.4-3.7-19.6c0 0-4.3-1.6-3.9.6.4 1.9 2.3.8 2.3.8s1.1-1.7 3.8 1.7c0 0 6.7 6.3.2 16.6l1.3-.1z" class="st10"/><path d="M652.2 43.5c-5.3 12.4-16.2 33.7-30.5 42-18.6 10.8-22.3 64.8-22.7 77.3-6.5-17.6-6.7-37.6-2.7-55.9.2-.8.4-1.6.6-2.5.6-2.3 1.2-4.7 1.9-6.9.2-.8.5-1.5.7-2.3.2-.8.4-1.2.6-1.8.3-.9.6-1.8 1-2.6.2-.6.4-1.1.7-1.7.4-.9.7-1.8 1.1-2.6.3-.6.5-1.2.8-1.8.1-.2.2-.4.2-.5l.9-1.8c1.4-3.1 3.1-6.1 4.9-8.9.3-.5.7-1.1 1-1.6l.2-.3c.3-.4.5-.8.8-1.2.3-.4.6-.9.9-1.3.3-.4.7-1 1-1.4l.9-1.1 1.2-1.5.1-.1c.9-1 1.7-2 2.6-2.9 2.2-2.3 4.6-4.4 7.2-6.2.9-.6 1.9-1.2 2.9-1.8.5-.3 1-.5 1.5-.8.5-.2.7-.3 1.1-.5l.3-.1h.1c.5-.2 1-.4 1.6-.6 6.6-2.4 13-5.2 19.1-8.6z" class="st13"/><ellipse cx="644.9" cy="225.5" class="st13" rx="3.6" ry="5.4" transform="rotate(-12.89 644.876 225.425)"/><ellipse cx="652.4" cy="226" class="st13" rx="2.8" ry="6.5" transform="rotate(-18.576 652.434 225.984)"/><ellipse cx="652.4" cy="237.5" class="st12" rx="2.8" ry="6.5" transform="rotate(-23.393 652.405 237.497)"/><ellipse cx="657.3" cy="235" class="st12" rx="1.7" ry="3.9" transform="rotate(-23.393 657.275 235.053)"/><ellipse cx="645.9" cy="237.3" class="st12" rx="2.9" ry="6.7" transform="rotate(-23.393 645.815 237.364)"/><ellipse cx="638.7" cy="230.3" class="st12" rx="2.3" ry="4.4" transform="rotate(-7.492 638.451 230.277)"/><ellipse cx="638.9" cy="240.4" class="st12" rx="3.3" ry="5.5" transform="rotate(-7.492 638.617 240.355)"/><ellipse cx="631.4" cy="237.4" class="st12" rx="5.5" ry="3.3" transform="rotate(-74.77 631.42 237.385)"/><ellipse cx="631.7" cy="224.5" class="st13" rx="5.8" ry="3.9" transform="rotate(-72.079 631.698 224.45)"/><ellipse cx="656.6" cy="219.4" class="st13" rx="2.8" ry="5.4" transform="rotate(-45.001 656.569 219.37)"/><ellipse cx="660.8" cy="214.7" class="st13" rx="2.8" ry="5.4" transform="rotate(-60 660.822 214.729)"/><ellipse cx="670.8" cy="215.4" class="st12" rx="3.6" ry="6.6" transform="rotate(-60 670.777 215.364)"/><ellipse cx="661.1" cy="229.6" class="st12" rx="2.8" ry="5.1" transform="rotate(-51.77 661.156 229.652)"/><ellipse cx="667" cy="223.6" class="st12" rx="3.6" ry="6.6" transform="rotate(-55.911 666.92 223.616)"/><ellipse cx="643.2" cy="205.2" class="st15" rx="5.4" ry="3.6" transform="matrix(.06053 -.9982 .9982 .06053 399.377 834.819)"/><ellipse cx="643" cy="193.1" class="st15" rx="4.7" ry="3.8" transform="matrix(.06053 -.9982 .9982 .06053 411.32 823.178)"/><ellipse cx="652.3" cy="200.1" class="st15" rx="4.7" ry="3.8" transform="rotate(-30 652.31 200.11)"/><ellipse cx="652.6" cy="210" class="st15" rx="2.9" ry="3.6" transform="rotate(-45.001 652.594 210.004)"/><ellipse cx="647.7" cy="215.6" class="st15" rx="2.9" ry="3.6" transform="rotate(-30 647.719 215.6)"/><ellipse cx="639" cy="215.5" class="st15" rx="3.6" ry="2.9" transform="rotate(-72.788 639.022 215.496)"/><ellipse cx="634.9" cy="209.3" class="st15" rx="3.6" ry="2.9" transform="rotate(-23.059 634.848 209.311)"/><ellipse cx="615.5" cy="213.6" class="st12" rx="4.8" ry="3.6" transform="rotate(-6.851 615.298 213.524)"/><ellipse cx="635.4" cy="200.7" class="st15" rx="2.9" ry="3.6" transform="rotate(-68.943 635.35 200.765)"/><ellipse cx="625.1" cy="205.6" class="st13" rx="2.9" ry="5.9" transform="matrix(.08507 -.9964 .9964 .08507 367.093 810.947)"/><ellipse cx="612.5" cy="221.4" class="st12" rx="6.9" ry="3.3" transform="rotate(-14.058 612.574 221.384)"/><ellipse cx="611.4" cy="206.3" class="st12" rx="6.9" ry="3.3"/><ellipse cx="615.9" cy="199.7" class="st12" rx="3.5" ry="5.1" transform="rotate(-75.93 615.908 199.69)"/><ellipse cx="617.9" cy="187.1" class="st12" rx="4.1" ry="6.8" transform="rotate(-66.473 617.879 187.085)"/><ellipse cx="624" cy="180" class="st12" rx="4.1" ry="6.8" transform="rotate(-41.952 623.931 180.043)"/><ellipse cx="653.6" cy="176.2" class="st12" rx="7.5" ry="3.6" transform="rotate(-68.15 653.532 176.196)"/><ellipse cx="660.5" cy="178.3" class="st12" rx="6.7" ry="3.6" transform="rotate(-68.15 660.432 178.316)"/><ellipse cx="665.2" cy="184.1" class="st12" rx="5.7" ry="3.1" transform="rotate(-37.079 665.197 184.152)"/><ellipse cx="625.6" cy="212.5" class="st13" rx="4.1" ry="2" transform="rotate(-18.414 625.58 212.526)"/><ellipse cx="625.1" cy="196.8" class="st13" rx="2.9" ry="5.9" transform="rotate(-55.39 625.152 196.791)"/><ellipse cx="628.3" cy="192.2" class="st12" rx="2.9" ry="5.9" transform="rotate(-48.239 628.325 192.214)"/><ellipse cx="633.2" cy="188.8" class="st12" rx="2.9" ry="5.9" transform="rotate(-30 633.183 188.83)"/><ellipse cx="637.4" cy="184.5" class="st13" rx="2.9" ry="5.9" transform="rotate(-30 637.343 184.561)"/><ellipse cx="641.3" cy="183.7" class="st13" rx="2.4" ry="4.8" transform="rotate(-16.081 641.249 183.657)"/><ellipse cx="646.7" cy="184.6" class="st13" rx="4.8" ry="2.4" transform="rotate(-74.817 646.7 184.567)"/><ellipse cx="656.8" cy="190.3" rx="6.6" ry="3.3" style="opacity:.3;fill:#fff;stroke:#fff;stroke-width:1.0021;stroke-miterlimit:10.021;enable-background:new" transform="rotate(-53.928 656.836 190.27)"/><ellipse cx="661.9" cy="193.7" class="st13" rx="5.2" ry="2.8" transform="rotate(-10.848 662.023 193.712)"/><ellipse cx="663" cy="199.4" class="st13" rx="5.2" ry="2.8"/><ellipse cx="674.8" cy="207.3" class="st12" rx="2.8" ry="5.2" transform="matrix(.0828 -.9966 .9966 .0828 412.33 862.668)"/><ellipse cx="671.5" cy="202.3" class="st12" rx="3.5" ry="1.9" transform="rotate(-5.171 671.48 202.337) scale(.99997)"/><ellipse cx="673.9" cy="194.9" class="st12" rx="5.2" ry="2.8" transform="rotate(-12.472 673.96 194.929)"/><ellipse cx="674.2" cy="189" class="st17" rx="5.3" ry="2.8" transform="rotate(-29.888 674.13 188.972)"/><ellipse cx="661.8" cy="207.1" class="st13" rx="3.6" ry="6.7" transform="rotate(-77.267 661.798 207.046)"/><ellipse cx="649.8" cy="189" class="st12" rx="4.2" ry="2.1" transform="rotate(-54.02 649.78 188.964)"/><ellipse cx="631.3" cy="215.5" class="st13" rx="4.2" ry="2.1" transform="rotate(-38.409 631.346 215.524)"/><ellipse cx="622.8" cy="218.1" class="st12" rx="4.2" ry="2.1" transform="rotate(-38.409 622.756 218.068)"/><ellipse cx="620.1" cy="225.3" class="st12" rx="4.2" ry="2.1" transform="rotate(-38.409 620.058 225.296)"/><ellipse cx="626.5" cy="233.3" class="st12" rx="3.6" ry="1.8" transform="rotate(-52.316 626.588 233.337)"/><ellipse cx="620.3" cy="233.1" class="st12" rx="7.2" ry="3.3" transform="rotate(-45.001 620.337 233.124)"/><path d="M633.8 241.5s-4.2 42.1 22.2 41.8c0 0 7.5-2.4 4.9-7.2-2.2-4.1-3.9 1.5-3.9 1.5s-.2 5.7-6.9 1.5c0 0-14.9-5.4-14.5-39.7l-1.8 2.1z" class="st10"/><path d="M633.8 241.2s3.8 26.8 20.2 22.6c0 0 4.3-2.7 1.9-5.2-2-2.2-2.2 1.5-2.2 1.5s.8 3.6-4 2c0 0-10.1-1.1-15.1-22.5l-.8 1.6zM610.9 199.4s-24.8 10.9-29.9-5.3c0 0 0-5.1 3.4-4.4 2.9.6-.1 2.7-.1 2.7s-3.5 1.2.5 4.5c0 0 6.2 8 27 1.1l-.9 1.4zM617 226.5s-5 10.7-12.9 5.6c0 0-1.9-2-.4-2.6 1.3-.5 1 1.1 1 1.1s-.8 1.4 1.9 1.7c0 0 5.2 1.6 10.3-6.6l.1.8z" class="st10"/><path d="M619.8 193.5s-17.7 8.1-21.9-5.4c0 0-.2-4.2 2.3-3.5 2.1.6 0 2.2 0 2.2s-2.5.9.5 3.7c0 0 4.8 6.8 19.7 1.8l-.6 1.2zM617.9 182.2s-31.8-43.1-6.5-58c0 0 8.7-1.7 9.4 4.9.5 5.7-4.7.7-4.7.7s-3.9-6.1-7.5 2.4c0 0-10.6 14.4 12.3 51.3l-3-1.3zM675.7 185s36-37.1 54.9-14.5c0 0 3.2 8.3-3.1 9.9-5.4 1.3-1.5-4.5-1.5-4.5s5.2-4.7-3.6-7c0 0-15.8-8.2-47.4 19.3l.7-3.2z" class="st10"/><path d="M674.6 188.3s23.4-15.5 30.7-1.3c0 0 .7 4.8-2.8 4.8-3 .1-.3-2.5-.3-2.5s3.3-1.9-1.1-4.1c0 0-7.4-6.2-27.3 4.7l.8-1.6zM665.7 227.3s43.4 39.4 25.5 56c0 0-7.3 2.3-10.2-4.1-2.4-5.5 4-1 4-1s5.6 5.6 6-2.9c0 0 4.7-14.9-28.5-49l3.2 1zM665.8 218.3s14.1 16.1 29.3-3.5c0 0 3.4-6.3 0-5.8-2.9.4-1.7 3.3-1.7 3.3s2.2 1.9-3.4 5.5c0 0-10.7 9.3-24-1.5l-.2 2zM612 210.4s-22.4-14.1-32.8 11.7c0 0-1.6 7.8 2.1 6.5 3.2-1.2.7-4.2.7-4.2s-3.2-1.5 1.9-7c0 0 9-13.2 28.5-4.7l-.4-2.3z" class="st10"/><path d="M611.6 216.5s-14.1-2.6-14.2 12.5c0 0 .8 4.3 2.4 2.8 1.4-1.3-.5-2.2-.5-2.2s-1.9-.1-.4-3.9c0 0 1.9-8.4 13.4-8.1l-.7-1.1z" class="st10"/><path d="m672.8 210 1.5.3c2.9.2 5.3-.8 5.4-2.3.1-1.5-2.1-3-5-3.2h-1.3v-1c.7-.4 1.1-1 1.1-1.5-.1-.5-.4-.9-.9-1.1l.2-3.3h.2c2.8-.6 4.8-2.3 4.5-3.9-.3-1.6-2.8-2.2-5.5-1.6l-.7-2.3c2.2-1.4 3.4-3.5 2.7-4.7s-3.4-1.3-5.9.2c-.1.1-.2.1-.3.2l-.5-.5c1.3-1.6 1.8-3.3 1-4.3s-3.2-1-5.5.4l-.8-.6c.1-.3.3-.5.4-.8 1.3-3.4 1-6.8-.8-7.5s-3.9 1.1-5.4 4l-.2-.1c.9-3.2.5-6.1-1.1-6.7-1.6-.6-4.1 1.4-5.7 4.7l-.9-.3c.5-2.7-.4-5.2-2.3-5.8-2.1-.7-4.7 1.2-5.7 4.3-.1.3-.2.7-.3 1l-.6.1c.1-.3.1-.7.1-1-.1-1.7-1.1-3-2.1-2.9s-1.9 1.5-1.8 3.1c0 .4.1.9.3 1.3l-1.2.2c.1-.8.2-1.6.1-2.4-.2-3-1.5-5.4-3-5.3s-2.5 2.6-2.3 5.7c0 .8.2 1.6.4 2.4-1.3-2-2.9-3.1-4-2.6s-1.3 3-.4 5.5c-2.5-2.8-5.9-3.8-7.6-2.3s-1 5 1.5 7.8c.5.5 1 1 1.6 1.4l-.6.5c-.7-.6-1.5-1-2.3-1.4-3.4-1.5-7-1-7.8 1.1-.9 2.1 1.1 5 4.6 6.5l-1.4 5.2c-2 0-3.6.9-3.9 2.4-.3 1.4.6 2.9 2.3 3.9l-.2.7c-.6-.1-1.2-.2-1.8-.2-3.8 0-6.9 1.5-6.9 3.3s3.1 3.3 6.9 3.3h.4l.2 1.7c-1.4 1-1.7 2.9-.7 4.3.3.5.8.9 1.4 1.1l.2 1.2c-.4 0-.8.1-1.1.2-3.7.9-6.3 3.1-5.9 4.9.4 1.8 3.8 2.5 7.5 1.6.3-.1.5-.2.8-.2l2.5 3.3c0 .1.1.2.1.3l.2.2 1.3 1.7.4.4-.7.6c-2.8 2.8-4 6.2-2.7 7.4s4.6.1 7.4-2.7c.3-.3.6-.7.9-1l.4.3c-.2.5 0 1.1.4 1.5.5.4 1.3.2 2.2-.4l1.7.5v.2c-.8 2.9 0 5.7 1.8 6.2s3.9-1.5 4.7-4.4v-.1l.9.2c-.1.8-.1 1.6 0 2.4.4 3 2.2 5.2 4 5 1.8-.2 3-2.9 2.6-5.9-.1-.4-.2-.9-.3-1.3l1.3-.4c0 .1.1.2.1.2 1.5 3.4 3.9 5.6 5.3 5s1.4-3.6.1-6.8l.5-.2c.2.7.4 1.4.7 2.1 1.4 3.3 3.7 5.4 5.1 4.8 1.4-.6 1.4-3.8 0-7-.2-.5-.5-1-.7-1.4l1.1-.3c.1.3.2.7.4 1 .9 2 2.3 3.3 3.1 3 .9-.4.8-2.3 0-4.3-.2-.4-.4-.7-.6-1.1l1.3-1.4c2.2 1.6 4.6 2 5.5.8.9-1.2.1-3.2-1.7-4.8l1.3-1.4.2.1c3 2 6.4 2.3 7.5.7 1.1-1.7-.2-4.2-2.6-6.2l.6-1.9c2.7 1.1 5.2.9 6.1-.5 1-1.7-.7-4.6-3.9-6.5l.3-1 .3-1.6z" class="st13"/><path d="M660.3 209.3c.3.1.6.1 1 .2 1.8.1 3.3-.5 3.3-1.4.1-1-1.3-1.8-3.1-2h-.8v-.6c.4-.2.7-.6.7-.9-.1-.3-.3-.6-.6-.7l.1-2h.2c1.7-.4 3-1.4 2.8-2.4-.2-.9-1.7-1.3-3.4-1l-.4-1.4c1.3-.9 2.1-2.2 1.7-2.9s-2.1-.8-3.6.1l-.2.1-.3-.3c.8-1 1.1-2 .6-2.6s-2-.6-3.4.2l-.5-.4c.1-.2.2-.3.2-.5.8-2.1.6-4.2-.5-4.6-1.1-.4-2.4.7-3.3 2.4l-.1-.1c.6-2 .3-3.8-.6-4.1-1-.4-2.5.8-3.5 2.9l-.6-.2c.3-1.7-.2-3.2-1.4-3.6-1.2-.4-2.9.7-3.5 2.6-.1.2-.1.4-.2.6h-.4v-.6c0-1-.6-1.8-1.3-1.8-.7 0-1.1.9-1.1 1.9 0 .3.1.6.2.8l-.7.1c.1-.5.1-1 .1-1.5-.1-1.9-.9-3.3-1.8-3.3-.9.1-1.6 1.6-1.4 3.5 0 .5.1 1 .3 1.5-.8-1.2-1.8-1.9-2.4-1.6-.7.3-.8 1.8-.2 3.4-1.5-1.7-3.6-2.3-4.7-1.4-1 .9-.6 3.1.9 4.8.3.3.6.6 1 .9l-.3.3c-.4-.3-.9-.6-1.4-.8-2.1-.9-4.3-.6-4.8.7-.5 1.3.7 3 2.8 3.9l-.9 3.2c-1-.1-2 .5-2.4 1.4-.1 1 .5 2 1.4 2.4l-.1.4c-.4 0-.7-.1-1.1-.1-2.3 0-4.2.9-4.2 2s1.9 2 4.2 2h.2l.1 1.1c-.5.4-.8 1.1-.8 1.8.1.7.6 1.3 1.2 1.5l.1.7-.7.1c-2.3.6-3.9 1.9-3.6 3 .3 1.1 2.3 1.5 4.6 1l.5-.1 1.6 2c0 .1 0 .1.1.2l.1.1.8 1.1.3.2c-.1.1-.3.2-.4.4-1.7 1.7-2.5 3.8-1.7 4.6.8.8 2.8 0 4.6-1.7l.6-.6.2.2c-.1.3 0 .7.2.9.3.2.8.1 1.3-.3l1 .3v.1c-.5 1.8 0 3.5 1.1 3.8 1.1.3 2.4-.9 2.9-2.7v-.1l.5.1c-.1.5-.1 1 0 1.5.2 1.9 1.3 3.2 2.5 3.1 1.2-.1 1.9-1.8 1.6-3.6 0-.3-.1-.6-.2-.8l.8-.2s0 .1.1.1c.9 2.1 2.3 3.5 3.2 3.1s.9-2.2.1-4.2l.3-.1c.1.4.3.9.4 1.3.9 2 2.3 3.3 3.1 3 .9-.4.8-2.3 0-4.3-.1-.3-.3-.6-.4-.9l.7-.2c.1.2.1.4.2.6.5 1.2 1.4 2 1.9 1.8s.5-1.4 0-2.6c-.1-.2-.2-.5-.3-.7l.8-.8c1.3 1 2.8 1.2 3.4.5s.1-2-1-3l.8-.9.1.1c1.9 1.3 3.9 1.4 4.6.4.7-1-.1-2.5-1.6-3.8l.4-1.2c1.6.7 3.2.6 3.8-.3.5-.9-.4-2.9-2.4-3.9l.2-.6-.2-.6z" class="st13"/><path d="M651.5 207.4c.2 0 .3.1.5.1.9.1 1.7-.3 1.7-.8.1-.5-.7-1-1.6-1h-.4v-.3c.2-.1.4-.3.4-.5s-.1-.3-.3-.4l.1-1h.1c.9-.2 1.5-.8 1.4-1.2-.1-.5-.9-.7-1.8-.5l-.2-.7c.7-.5 1.1-1.1.9-1.5s-1.1-.4-1.9.1l-.1.1-.2-.2c.4-.5.6-1 .3-1.3-.2-.3-1-.3-1.8.1l-.3-.2c0-.1.1-.2.1-.3.4-1.1.3-2.2-.3-2.4s-1.3.3-1.7 1.3c.3-1 .2-2-.3-2.2-.5-.2-1.3.4-1.8 1.5l-.3-.1c.2-.7-.1-1.5-.7-1.9-.7-.2-1.5.4-1.8 1.4l-.1.3h-.2v-.3c0-.5-.3-1-.7-.9-.4 0-.6.5-.6 1 0 .1 0 .3.1.4l-.4.1v-.8c0-1-.5-1.7-1-1.7s-.8.8-.7 1.8c0 .3.1.5.1.8-.4-.6-.9-1-1.3-.8-.4.2-.4 1-.1 1.8-.8-.9-1.9-1.2-2.4-.7s-.3 1.6.5 2.5c.1.2.3.3.5.5l-.2.2c-.2-.2-.5-.3-.7-.4-1.1-.5-2.2-.3-2.5.3-.3.7.4 1.6 1.4 2.1l-.4 1.7c-.6-.1-1.1.2-1.3.8-.1.5.2 1 .7 1.2v.2h-.5c-1.2 0-2.2.5-2.2 1.1 0 .6 1 1.1 2.2 1.1h.1l.1.6c-.3.2-.4.6-.4.9.1.4.3.7.6.8v.4l-.4.1c-1.2.3-2 1-1.9 1.6.1.6 1.2.8 2.4.5l.3-.1.8 1.1v.1l.4.5.1.1-.2.2c-.9.9-1.3 2-.9 2.4.4.4 1.5 0 2.4-.9l.3-.3.1.1c-.1.2 0 .4.1.5.2.1.4.1.7-.1l.5.2v.1c-.2.9 0 1.8.6 2 .6.2 1.3-.5 1.5-1.4l.3.1v.8c.1 1 .7 1.7 1.3 1.6.6-.1 1-.9.8-1.9 0-.1-.1-.3-.1-.4l.4-.1v.1c.5 1.1 1.2 1.8 1.7 1.6s.4-1.1 0-2.2h.2c.1.2.1.4.2.7.5 1.1 1.2 1.7 1.6 1.6.4-.2.4-1.2 0-2.2-.1-.2-.1-.3-.2-.4l.4-.1.1.3c.3.6.7 1.1 1 .9.3-.1.3-.7 0-1.3-.1-.1-.1-.2-.2-.4l.4-.4c.7.5 1.5.6 1.8.2.3-.4 0-1-.5-1.6l.4-.4c1 .7 2 .8 2.4.2s0-1.3-.8-2l.2-.6c.9.4 1.7.3 2-.2.3-.5-.2-1.5-1.3-2.1l.1-.3.4-1.3z" class="st13"/><path d="M661.9 175.9c-1.6 5.7-4.1 11.2-7.4 16.2l-.1.1c-1.4 2.1-2.9 4.1-4.5 6l-.4.4-.2.2-.3.3c-.2.2-.4.4-.6.7-1.3 1.4-2.6 2.7-4.1 4-.1.1-.2.2-.4.3-2.1 1.9-4.4 3.7-6.8 5.3-.4.3-.9.6-1.3.9-2.5 1.6-5.1 3-7.8 4.2-.8.4-1.6.7-2.5 1.1-1.1.5-2.2.9-3.3 1.3l-.7.2c-.6.2-1.2.4-1.7.6-.1.1-.2.1-.3.1-1.1.4-2.3.7-3.4 1l-.7.2c-.1 0-.3.1-.4.1-.8.2-1.5.4-2.3.5-1.1.3-2.2.5-3.4.7-13.2 2.5-29 2.4-47.9-1.4-20.1-4.1-33.6-13-42.1-23.9-3.5-4.5-6.3-9.5-8.3-14.9-1.9-5.1-3.1-10.5-3.6-15.9-1.6-16.7 3.3-33 10.9-42.7 18.1-23.2 3.5-28.6 3.5-28.6 5.7-3.5 24-5.4 24-5.4 35.4-9.6 60.8-6.7 78.7 2.6 9.6 5 17.8 12.2 24 21.1 15.5 22.7 16.9 51.9 13.4 64.7z" style="opacity:.67;fill:#fff;stroke:#fff;stroke-miterlimit:10;enable-background:new"/><path d="M563.5 306.4c-13-18.9-20.5-8.5-20.5-8.5-1.3-5.2 1.7-20 1.7-20 1.3-29.8 9.5-49.2 20.7-61.5 4.4-4.8 9.5-8.8 15.3-11.9 2-1.1 4.1-2 6.2-2.8 20.5-7.9 42.6-3.1 51.4 2.3 3.9 2.4 7.4 5.5 10.3 9.1l.1.1c1.2 1.5 2.4 3.1 3.4 4.8l.2.4c0 .1.1.1.1.2l.2.3c.1.2.2.4.4.6.7 1.3 1.4 2.6 2 4 .1.1.1.2.2.4.9 2.1 1.7 4.2 2.3 6.4l.3 1.2c.6 2.3 1 4.6 1.3 7 .1.7.2 1.4.2 2.2.1 1 .2 1.9.2 2.9V249.8c0 .6-.1 1.3-.1 1.9 0 .9-.2 1.9-.3 2.8-1.3 10.9-5.1 23.3-12.5 37.4-7.8 15-17.7 23.9-27.9 28.4-4.1 1.8-8.5 3-13 3.6-4.3.5-8.6.3-12.8-.3" class="st12"/><path d="M633.5 201.1c-16.1-7.7-28.5-21.5-34.5-38.3-6.5-17.6-6.7-37.6-2.7-55.9.2-.8.4-1.6.6-2.5.6-2.3 1.2-4.7 1.9-6.9.2-.8.5-1.5.7-2.3.2-.8.4-1.2.6-1.8.3-.9.6-1.8 1-2.6.2-.6.4-1.1.7-1.7.4-.9.7-1.8 1.1-2.6.3-.6.5-1.2.8-1.8.1-.2.2-.4.2-.5l.9-1.8c1.4-3.1 3.1-6.1 4.9-8.9.3-.5.7-1.1 1-1.6l.2-.3c.3-.4.5-.8.8-1.2.3-.4.6-.9.9-1.3.3-.4.7-1 1-1.4l.9-1.1 1.2-1.5.1-.1c.9-1 1.7-2 2.6-2.9 2.2-2.3 4.6-4.4 7.2-6.2.9-.6 1.9-1.2 2.9-1.8.5-.3 1-.5 1.5-.8.5-.2 1-.5 1.5-.7.5-.2 1-.4 1.6-.6 6.6-2.3 13-5.1 19.1-8.4 14.2-7.9 15.6-14.5 15.6-16.8 1.6 15.8 3.5 12 3.5 12 22.5 9.3 23.2 30 23.2 30 20.8 8.6 18.2 18.2 24.2 46.5 5.8 28.1-19.3 118.3-85.2 85.8z" class="st13"/><path d="M656.7 196.6c13.4-7.3 29.2-9.1 43.9-4.8 15.5 4.3 29.5 14.2 40.3 26.1.5.5 1 1.1 1.4 1.6l3.9 4.8c.4.5.8 1.1 1.2 1.7l1 1.3c.5.7.9 1.3 1.3 2l.9 1.3c.4.7.9 1.4 1.3 2.1.3.5.6 1 .8 1.4.1.2.2.3.3.4.3.5.6 1 .8 1.5 1.4 2.5 2.7 5.1 3.8 7.8l.6 1.5.1.3c.2.4.3.8.4 1.2s.3.9.5 1.3c.1.4.3 1 .5 1.4.1.5.2.8.4 1.2l.4 1.6v.1c.3 1.1.5 2.2.7 3.3.5 2.7.7 5.4.7 8.1 0 1-.1 1.9-.2 2.9 0 .5-.1 1-.2 1.5s-.2.9-.3 1.4-.2.9-.4 1.4c-1.7 5.7-3 11.6-3.7 17.5-1.6 13.8 2.3 18.1 3.9 19.2-11.7-6.8-10.1-3.6-10.1-3.6-17.7 11-32.5 1.1-32.5 1.1-16.4 10.2-21.8 3.6-44.4-6.5-22.8-10.1-72.9-72.6-17.3-102.1z" style="opacity:.53;fill:#fff;stroke:#fff;stroke-miterlimit:10;enable-background:new"/><path d="M642.6 199.8s31.8-96.6 118-52.6c0 0 32.1-2.3 42 15.6s-1.5 25.5-1.5 25.5 31.8 14.3 9.9 38.5-75.3 50.9-130.4 24.1c0 .2-39.1-20.1-38-51.1z" style="opacity:.32;fill:#fff;stroke:#fff;stroke-miterlimit:10;enable-background:new"/><path d="M641.3 208.5s-91.4 1-78.9-85.1c0 0-11.3-26.7 1.2-40.3s22.1-6.1 22.1-6.1 3-31.2 30-19.5 65.2 49.3 58.3 103.9c-.1 0-6 39.1-32.7 47.1z" class="st13"/><path d="M697.1 327.4c-1.3 13.4-15.6 19.5-15.6 19.5-9.5-20.8-46.4-16.7-46.4-16.7-7.4-2.2-14.1-6.3-19.4-11.8-13-13.9-13.2-35-9.5-54.5 1-5.4 2.3-10.7 3.8-15.6 2.2-7.6 5.5-14.7 9.8-21.3 1-1.5 2-3 3.1-4.3.8-1.1 1.6-2.1 2.4-3l.2-.3c1.7-2 3.3-3.7 4.9-5.2.3-.3.6-.5.8-.8 1.8-1.8 3.8-3.4 5.8-4.9 1-.8 2.1-1.5 3.2-2.2 1-.6 2.1-1 3.3-1.2 1.3-.3 2.6-.5 3.9-.7 1.1-.1 2.3-.2 3.5-.3.8 0 1.7-.1 2.6-.1h1.6c2.1 0 4.4 0 6.8.2h.5c1.7.1 3.4.3 5.2.5 1.1.1 2.3.3 3.4.5h.1l.6.1c3.8.6 7.5 1.5 11.2 2.6 17.4 5.1 36.1 16.1 47.5 37.5 1.8 3.4 3.4 6.9 4.7 10.5 21 57.1-38 71.5-38 71.5z" style="opacity:.25;fill:#fff;stroke:#fff;stroke-miterlimit:10;enable-background:new"/><path d="M615.6 318.5c-13-13.9-13.2-35-9.5-54.5 1-5.4 2.3-10.7 3.8-15.6 2.2-7.6 5.5-14.7 9.8-21.3 1-1.5 2-3 3.1-4.3.5 2.8 1.2 5.6 2.1 8.4 8.2 25.8-1.6 39.2-9.5 63.7-3.2 9.9-2.2 17.8.2 23.6z" class="st13"/><path d="m623.6 223.4-2 2.3c.3-1.1.8-2.2 1.5-3.3 1.1-2 2.8-3.5 4.9-4.3l-4.4 5.3z" class="st12"/><path d="M544.3 192.9c-5 1.8-9.8 3.9-14.5 6.5-23.5 12.9-23.2 43.7-20.8 61.2-10.8-11.6-17.4-32.1 9.7-65.7 4.3-5.4 9.4-10.1 15.1-14 2.9 4.6 6.5 8.6 10.5 12z" class="st18"/><path d="M734.2 190c4.8-2.8 9.3-6.1 13.5-9.8 21.6-18.4 15.8-53.4 10.3-73.1 13 11.5 23.5 33.9 1.8 76.4-3.3 6.7-7.6 12.9-12.8 18.3-3.6-4.5-7.9-8.5-12.8-11.8z" class="st13"/><path d="M644.6 208.9s1.3.4 3.8 1.1c1.8.5 4.1 1.1 7 1.8l.8.2c.2.1.4.1.6.1l1.6.4c.9.2 1.7.4 2.7.5l.7.1c.4.1.7.1 1.1.2 2.5.5 5.2.9 8 1.3 1.6.2 3.1.4 4.8.6 20 2.3 45.8 1.7 65.4-11 6.8-4.4 12.6-10.1 17.1-16.9 3.7-5.8 6.5-12.1 8.4-18.7 11.8-41.5-2.3-57.8-16.8-64.2-7.1-3-14.8-4.3-22.5-3.9 4.3-5.2-15.9-46.1-68.6-3.6-3 2.4-5.8 5-8.4 7.8-7.5 7.9-13 17.5-16.1 28-4.4 14.8-3.7 29.9-1.2 42.6.4 1.9.8 3.8 1.2 5.6.8 3.3 1.7 6.3 2.6 9.1.1.5.3.9.4 1.3 0 .1.1.2.1.2.6 1.7 1.2 3.3 1.7 4.8l.6 1.5c.5 1.3 1 2.6 1.5 3.7 2 4.7 3.5 7.4 3.5 7.4z" style="opacity:.36;fill:#fff;stroke:#fff;stroke-miterlimit:10;enable-background:new"/><path d="M504.8 163.6c12.4 6.3 33.4 18.7 41.2 34.2 10 20 64.9 26.8 77.7 27.9-18.3 5.9-38.8 4.9-57.2-.2l-2.5-.7c-2.4-.7-4.7-1.5-7-2.4-.8-.3-1.5-.6-2.3-.9l-1.8-.7c-.9-.4-1.8-.8-2.6-1.1l-1.7-.8c-.9-.4-1.8-.8-2.6-1.3l-1.8-.9-.5-.3-1.8-1c-3.1-1.7-6-3.5-8.8-5.6-.5-.4-1.1-.8-1.6-1.1l-.3-.2-1.2-.9c-.4-.3-.9-.7-1.3-1l-1.4-1.2-1.1-1-1.4-1.3-.1-.1c-1-1-1.9-1.9-2.8-2.9-2.2-2.4-4.2-5-5.9-7.8-.6-1-1.2-2-1.7-3.1-.3-.5-.5-1.1-.7-1.6-.2-.5-.3-.8-.5-1.2 0-.1-.1-.2-.1-.4v-.1c-.2-.6-.4-1.1-.5-1.6-2-7.2-4.6-14.1-7.7-20.7z" class="st18"/></g></svg>