<svg xmlns="http://www.w3.org/2000/svg" viewBox="0 0 1000 1000" style="enable-background:new 0 0 1000 1000" xml:space="preserve"><style>.st0,.st1,.st3{opacity:.69;fill:#fff;enable-background:new}.st1,.st3{opacity:.66}.st3{fill:none;stroke:#fff;stroke-miterlimit:10}.st4{opacity:.91;fill:#fff}.st4,.st6,.st7,.st9{enable-background:new}.st6{opacity:.55;fill:none;stroke:#fff;stroke-miterlimit:10}.st7,.st9{opacity:.48;fill:#fff}.st9{fill:none;stroke:#fff;stroke-miterlimit:10}</style><g id="Layer_2_1_"><path class="st0" d="M507.1 905.4h14.5l8.6-185.6s5.1-27.9 3.1-36.1-6.2-15.7-12.9-16.1-11 11.8-11 16.1c0 4.3 0 23.9 3.5 36.9 3.6 12.9-5.8 184.8-5.8 184.8z"/><path class="st1" d="M457.5 528.2s-4-16.5-6.8-23.8c0 0 8.1-2.5 11.2-1.5 0 0-1.5 14.7.6 26.8l-5-1.5"/><path class="st1" d="M455.7 521.1s-3.8-14.6-8.2-22.2c0 0 12.2-7.8 17.2-6.6 0 0-4.9 14.2-3.1 26.6l-5.9 2.2"/><path class="st1" d="M537.3 756.4s-50.6-77.1-62.4-141.9-15.3-81.1-22.1-103.6l8.3.3s6.1 155 82.6 242.8c0 .1 0 7.8-6.4 2.4z"/><path d="M461.3 537.5s-.6-34.7-28.8-52.9c-28.2-18.2-41.2-34.7-67.1-41.2-25.9-6.5-63.6-18.9-71.2-27.1-5.6-6.2-11.5-12.1-17.6-17.6-2.9-2.4 0-11.8-2.9-16.5s-2.9-9.4 0-11.8c2.9-2.3 2.4-6.5.6-10 0 0 5.3.6 5.9-1.8s1.2-11.2-.6-13.5c-1.8-2.4 7.7 0 8.2-4.7.6-4.7.6-11.2.6-11.2 3.2-1.6 6.1-3.6 8.8-5.9 2.9-2.9 5.9-11.2 5.9-11.2 2.2-1.7 3.5-4.3 3.5-7.1 0-4.7 4.1-12.9 6.5-12.9s8.8-3.5 11.8-10c1.6-3.7 4.5-6.7 8.2-8.2 0 0 4.7-5.9 5.9-7.7 1.2-1.8 5.9 4.1 7.7 2.9 1.8-1.2 3.5-8.8 5.9-8.8 2.4 0 54.2-7.7 52.9 68.9l33.5 78.3s-12.4-133-9.4-140.1c0 0 4.1 0 5.9-2.4s-2.4-11.2-2.4-11.2c1.9.6 3.9 1 5.9 1.2 1.8 0-2.3-8.2-2.3-8.2 2.8-1.7 5-4.2 6.5-7.1 2.9-5.3 10-2.9 11.2-6.5 1.2-3.5 11.2-1.2 14.1-4.7 2.9-3.5 18.3-2.4 19.4 5.3 1.2 7.7 6.5 14.1 12.4 14.1s17.1 1.8 21.8 13.5l8.2 1.8s4.1 5.3 9.4 5.9c5.3.6 14.7 9.4 19.4 7.7s1.8 10.6 5.3 12.4c3.5 1.8 0 5.3 4.1 6.5 0 0-5.3 8.2-1.8 10s14.7 14.7-2.9 35.3c-17.7 20.5-118.4 130-102.5 196.5z" style="opacity:.51;fill:#fff;enable-background:new"/><path class="st3" d="M294.2 416.2s65.9 21.8 78.3 23.5c12.4 1.8 78.9 45.5 82.2 72.9"/><path class="st3" d="M286.5 408s70.1 24.1 87.1 25.3c17.1 1.2 73 43.6 80.7 79.4"/><path class="st3" d="M454.2 512.1c-5.4-32.9-67-85.9-80.5-84.1S276 398.6 276 398.6"/><path class="st3" d="M274.7 392.1s54.7 18.8 71.8 30M274.7 386.2s47.1 14.1 84.2 39.4"/><path class="st3" d="M273.6 382.1s40 8.2 100.1 45.9"/><path class="st3" d="M271.8 374.4s75 22.3 117.1 59.2"/><path class="st3" d="M273.6 370.3s170.7 44.4 182.5 148.6"/><path class="st3" d="M458.4 522c-16.5-118.1-182.9-158.1-182.9-158.1"/><path class="st3" d="M280 358.5s84.2 15.5 144.6 83c0 0 33.8 33.8 36.1 89.5"/><path class="st3" d="M281 349.7s19.2 9 27.1 16.9M287.7 340.3s22.4 14.9 34.5 31.4M288.3 329.1s37.9 26.5 54.4 51.2M297.1 323.2s36.9 26.1 64.4 67.3M300.6 317.1s46.7 33.7 76.5 83.2"/><path class="st3" d="M303 312s48.3 31 95.4 104"/><path class="st3" d="M306.5 305s80.4 67.1 107.5 125.2"/><path class="st3" d="M307.6 299.5s95.4 75.7 116.9 142.1"/><path class="st3" d="M310.1 293.6s112.6 88.2 134.1 176.2"/><path class="st3" d="M313 292s123.6 92.4 139.5 196.6"/><path class="st3" d="M460.2 512.3s-22.5-43.7 111.9-197.9"/><path class="st3" d="M569.8 308.1S445.8 422.7 458.4 522c0 0-4.7-84.4 114.6-197.4"/><path class="st3" d="M460.2 512.6c-10.4-126.4-139.4-225-139.4-225"/><path class="st3" d="M324.8 282s128.9 95.2 133.6 240"/><path class="st3" d="M333 273.8s127.1 135.6 123 245.7"/><path class="st3" d="M328.3 277.3s108.9 75.3 128.9 235.4c0 0-7-150.2 90.3-239.7"/><path class="st3" d="M457.2 501s14.5-117.5 111.2-205.5"/><path class="st3" d="M564.3 289.1c-121.6 112-104 222.9-104 222.9"/><path class="st3" d="M454.8 513.5s4-146.6 104.3-236.8"/><path class="st3" d="M334.4 270.4s105.9 93.4 123.2 228.4"/><path class="st3" d="M347.7 268.1c99.7 101.3 109.1 242.5 109.1 242.5"/><path class="st3" d="M356.4 259.4S439.6 363 457.6 498.8"/><path class="st3" d="M368.9 261.8S446.6 385 456 505.1"/><path class="st3" d="M386 270.2c6 15.2 10.4 31.1 13.1 47.2M454.5 485.5s9.5-146 84-216.6"/><path class="st3" d="M529.8 263.4c-71.4 58.9-75.4 228.4-75.4 228.4"/><path class="st3" d="M519.9 256.7s-81.9 62.4-61.5 260.9"/><path class="st3" d="M458.4 523.9c-29-174.2 51-274.7 51-274.7"/><path class="st3" d="M457.6 505.1s-40-124 40.8-257.4"/><path class="st3" d="M459.2 514.5c-44.7-169.5 29.4-277.3 29.4-277.3"/><path class="st3" d="M455.2 502.8s-46.3-158.5 25.9-275.5"/><path class="st3" d="M466 229.6s-14.3 30.3-15.9 73.5M452.1 234.3s-9.6 52.3-8.1 101.8M443.4 238.5s-5 76.8-.6 108M435.7 265.2s.1 73.4 5.7 98.7"/><path class="st4" d="M587.3 502s-21.7 108.4-25.4 122.2-12.7 206.6-122.3 319.9l7.2 5s107.9-131.8 119.4-325.7c0 0 24.5-112.1 27.5-121l-6.4-.4z"/><path class="st1" d="M587.6 527.2s4.2-14.8 6.9-21.3c0 0-7.3-2.5-10.1-1.7 0 0 .9 13.4-1.4 24.2l4.6-1.2"/><path class="st1" d="M589.5 520.9s4-13.1 8.2-19.8c0 0-10.9-7.4-15.5-6.6 0 0 4 13 1.9 24.1l5.4 2.3"/><path d="M585.1 526.5s.3-22.4 26.6-37.9c26.3-15.6 38.7-30 62.5-35 23.8-5 58.5-14.9 65.7-22.1 5.3-5.4 10.8-10.6 16.7-15.4 2.8-2 .4-10.6 3.2-14.8 2.8-4.2 3-8.4.4-10.7-2.6-2.2-1.9-5.9-.2-9.1 0 0-4.8.4-5.3-1.8-.5-2.1-.7-10.2 1-12.2 1.7-2.1-7-.3-7.3-4.5-.2-3.4-.3-6.7-.2-10.1-2.8-1.5-5.5-3.4-7.9-5.6-2.6-2.7-5-10.3-5-10.3-2-1.6-3.1-4-3-6.5.2-4.3-3.3-11.8-5.5-11.9s-7.9-3.5-10.4-9.4c-1.3-3.4-3.9-6.2-7.2-7.7 0 0-4.1-5.5-5-7.1-.9-1.6-5.5 3.5-7.1 2.4-1.6-1.1-2.9-8.1-5-8.2-2.1-.1-49.1-8.7-50.5 60.5l-33.1 69.7s15.6-119.9 13.2-126.4c0 0-3.8-.1-5.3-2.3s2.5-10.1 2.5-10.1c-1.8.5-3.6.7-5.4.9-1.6-.1 2.4-7.4 2.4-7.4-2.5-1.6-4.4-3.9-5.7-6.6-2.5-4.9-9-3-10-6.2s-10.1-1.4-12.7-4.7c-2.6-3.3-16.5-2.7-17.9 4.1-1.3 6.9-6.3 12.6-11.7 12.4-5.4-.2-15.6 1-20.3 11.5l-7.6 1.3s-3.9 4.7-8.8 5c-4.9.4-13.7 8-17.9 6.3-4.2-1.7-2 9.5-5.2 11-3.3 1.5-.1 4.8-3.9 5.7 0 0 4.6 7.6 1.3 9.1-3.3 1.6-13.9 12.8 1.5 32s104.8 112.5 88.1 172.1z" style="opacity:.27;fill:#fff;enable-background:new"/><path class="st6" d="M740 431.4s-60.8 17.5-72.1 18.7c-11.3 1.2-73.3 38.5-77.3 63.3"/><path class="st6" d="M747.3 424.2s-64.6 19.5-80.2 20c-15.6.5-67.9 37-76.1 69.2"/><path class="st6" d="M591.1 512.8c6-29.6 63.9-75.4 76.1-73.4s90-23.4 90-23.4"/><path class="st6" d="M758.5 410.2S708 425.4 692.1 435M758.7 404.9s-43.4 11.2-78 32.9"/><path class="st6" d="M759.9 401.2s-36.7 6.1-92.7 38.2"/><path class="st6" d="M761.8 394.4s-69.1 17.7-108.6 49.6"/><path class="st6" d="M760.3 390.6s-156.9 34.5-171.1 128.3"/><path class="st6" d="M587 521.5c18.9-106.2 171.8-136.9 171.8-136.9"/><path class="st6" d="M754.8 379.7s-77.2 11.2-134.4 70.2c0 0-31.9 29.4-35.8 79.7"/><path class="st6" d="M754.2 371.7s-17.8 7.6-25.2 14.4M748.4 363s-20.9 12.7-32.5 27.2M748.3 352.8s-35.3 22.7-51.2 44.5M740.4 347.2s-34.4 22.4-60.8 58.7M737.4 341.6s-43.6 29-72.4 72.7"/><path class="st6" d="M735.4 336.9s-45 26.5-90.3 90.9"/><path class="st6" d="M732.4 330.4s-75.5 58-102.1 109.7"/><path class="st6" d="M731.5 325.4s-89.3 65.3-111.2 124.5"/><path class="st6" d="M729.6 320s-105.4 76.1-128 154.9"/><path class="st6" d="M727 318.5s-115.6 79.4-133.5 173.1"/><path class="st6" d="M585.6 512.7s21.9-38.7-95.4-182.6"/><path class="st6" d="M492.5 324.5s109.2 107.7 94.4 197c0 0 7.1-76.1-97.8-182.3"/><path class="st6" d="M585.6 513C599.2 399.1 720 314.3 720 314.3"/><path class="st6" d="M716.6 309.1S596.1 390.9 587 521.6"/><path class="st6" d="M709.3 301.3S589 419.7 589.2 519.4"/><path class="st6" d="M713.5 304.7s-101.7 64.5-125.2 208.6c0 0 11.3-135.6-74.4-219.7"/><path class="st3" d="M588.7 502.6s-9.4-106.7-94.5-189.4"/><path class="st6" d="M498.1 307.5c107.1 105.3 87.4 205 87.4 205"/><path class="st6" d="M590.5 514.1s1.2-132.7-87.2-217.6"/><path class="st6" d="M708.2 298.3s-99.6 80.9-119.7 202.4"/><path class="st6" d="M696.1 295.7C602 383.9 588.7 511.3 588.7 511.3"/><path class="st6" d="M688.5 287.6s-79.2 90.9-100.1 213"/><path class="st6" d="M677 289.3s-74.8 108.8-87.4 217.1"/><path class="st6" d="M661.2 296.4c-6 13.6-10.5 27.7-13.5 42.3M591.7 488.8s-3.8-132.3-69.3-198.6"/><path class="st6" d="M530.4 285.4c63.1 55.6 61.1 209 61.1 209"/><path class="st6" d="M539.7 279.7s72.6 59.1 47.4 237.9"/><path class="st6" d="M586.9 523.3c32.2-156.6-37.4-250.1-37.4-250.1"/><path class="st6" d="M588.2 506.4s40.5-110.8-28.7-234.1"/><path class="st6" d="M586.5 514.8c46.3-151.8-17.7-251.7-17.7-251.7"/><path class="st6" d="M590.5 504.3s47.4-141.8-14.5-249.9"/><path class="st6" d="M589.6 257s12 27.9 12 67M602.2 261.7s7 47.6 4 92.3M610 265.7s2 69.6-3 97.7M616.1 290.2s-2.5 66.4-8.5 89.1"/><path class="st4" d="M584.6 687.4s-33.4 76.9-38.3 86.4c-4.9 9.5-59.4 146.4-126.6 204.2l7.5 5.2s79.9-98.3 122.4-209.4c0 0 36-79.1 39.7-85.2l-4.7-1.2z"/><path class="st7" d="M580.8 706.1s5.4-10.3 8.6-14.7c0 0-5-3-7.2-2.9-1 6-2.6 12-4.9 17.6h3.5"/><path class="st7" d="M583.2 701.8s5-9.1 9.2-13.4c0 0-6.9-7.3-10.4-7.3 0 0 .9 10.3-2.4 18.2l3.6 2.5"/><path d="M579.1 705.2s3.8-16.5 25.8-23.8c22-7.3 33.4-16.1 51.9-15.9 18.4.1 45.7-1.7 52.2-5.9 4.8-3.2 9.7-6.1 14.8-8.7 2.4-1.1 2-7.8 4.7-10.4s3.6-5.8 2-7.8c-1.6-2.1-.5-4.7 1.3-6.8 0 0-3.6-.5-3.6-2.2s1.1-7.6 2.7-8.8c1.6-1.3-5.1-1.3-4.7-4.5.4-2.5.9-5.1 1.5-7.6-1.9-1.6-3.5-3.4-4.9-5.4-1.5-2.5-2-8.4-2-8.4-1.2-1.5-1.6-3.4-1.2-5.3.8-3.1-.6-9.3-2.2-9.7s-5.3-3.9-6.2-8.7c-.4-2.7-1.9-5.2-4.1-6.9 0 0-2.2-4.7-2.6-6.1-.5-1.4-4.6 1.7-5.6.7s-.9-6.5-2.4-6.9c-1.6-.4-34.9-14.3-47 36.7l-35.7 46.3s30.7-86.3 30-91.4c0 0-2.8-.7-3.5-2.5-.8-1.8 3.5-7 3.5-7-1.4.1-2.8 0-4.1-.2-1.2-.3 3-5 3-5-1.6-1.6-2.7-3.6-3.1-5.8-1.1-4-6.2-3.7-6.4-6.2s-7.3-2.7-8.7-5.5c-1.4-2.8-11.8-4.7-13.9.2-2.1 4.9-6.7 8.3-10.7 7.3s-11.7-1.7-16.9 5.3l-5.8-.3s-3.6 2.8-7.3 2.3-11.4 3.8-14.3 1.8c-2.8-2-3 6.7-5.6 7.3-2.7.6-.9 3.5-3.8 3.6 0 0 2.2 6.4-.5 6.9-2.7.6-12.3 7.3-4 23.9 8 16.5 59.3 99.9 37.4 141.4z" style="opacity:.28;fill:#fff;enable-background:new"/><path class="st9" d="M709 659.5s-47.8 3.3-56.4 2.3c-8.6-.9-60.5 16.8-67.3 34.5"/><path class="st9" d="M715.5 655.4s-50.9 4.1-62.6 2c-11.6-2.1-56.2 16.5-67.4 39.1"/><path class="st9" d="M585.7 696c9.2-20.9 59.3-45.7 68.1-42.2s70.3-2.9 70.3-2.9"/><path class="st9" d="M726 646.8s-39.8 3.2-53.1 7.7M727 642.9s-33.9 1.4-63 11.9"/><path class="st9" d="M728.5 640.4s-28.2-1.3-74.7 13.5"/><path class="st9" d="M731 635.6s-54 2.1-88.4 19.4"/><path class="st9" d="M730.5 632.6s-121.7.5-147.2 67.7"/><path class="st9" d="M581.2 701.8c31-75.7 149-73.9 149-73.9"/><path class="st9" d="M728.1 623.6s-58.9-4-110.8 30.5c0 0-28.3 16.7-39.3 53.3"/><path class="st9" d="M729 617.6s-14.4 2.7-21 6.6M726.1 610.2s-17.5 6.1-28.4 15M727.6 602.7s-29.8 11.2-45 24.8M722.7 597.3c-19.9 8.2-38.2 19.6-54.4 33.7M721.4 592.6s-36.9 14.5-65.2 42.2"/><path class="st9" d="M720.6 588.8s-37.5 12.4-81.4 52.9"/><path class="st9" d="M719.5 583.5s-65.2 30.9-93.1 64.9"/><path class="st9" d="M719.6 579.7s-76.6 34-102.2 74.5"/><path class="st9" d="M719 575.4s-90.2 39.5-119.5 94.2"/><path class="st9" d="M717.3 573.9S619 614.2 590.8 680.7"/><path class="st9" d="M581.6 695.1s22.4-25.2-41.5-150.4"/><path class="st9" d="M542.8 540.9s63.6 97.2 38.4 161c0 0 17.4-55.2-43.3-150.6"/><path class="st9" d="M581.6 695.3c28.3-82.2 131.3-125.7 131.3-125.7"/><path class="st9" d="M711.1 565.2s-102.2 41.3-129.9 136.6"/><path class="st9" d="M707 558.3s-108 68.4-123.8 142.2"/><path class="st9" d="M709.6 561.5S624 593 583.6 695.9c0 0 30-98.6-20-174.6"/><path class="st9" d="M585.6 688.1s10.1-80.5-39.7-155.4"/><path class="st9" d="M549.7 529.1c62.5 95.1 31.9 165.7 31.9 165.7"/><path class="st9" d="M585.1 696.9s22.1-98-29.8-175"/><path class="st9" d="M706.7 555.9s-86.6 44-121 130.7"/><path class="st9" d="M698.1 552c-83.8 50.3-113.9 142.5-113.9 142.5"/><path class="st9" d="M693.8 544.8s-73.1 54.7-108.1 141.8"/><path class="st9" d="M685 544.2s-72.8 68.6-99.4 146.8"/><path class="st9" d="M672.2 547c-6.6 9.1-12.2 18.9-16.7 29.1M590 678.3s18.3-98.5-19.6-158.1"/><path class="st9" d="M577.1 518c37.8 51.2 11.8 164.5 11.8 164.5"/><path class="st9" d="M584.9 515.2s44.3 55.3-2.9 183.7"/><path class="st9" d="M580.9 703.2C629.7 592.4 593.2 512 593.2 512"/><path class="st9" d="M584.6 690.8s47.7-75.6 16.2-177.9"/><path class="st9" d="M582 696.7c58.5-105 27.1-189.1 27.1-189.1"/><path class="st9" d="M586.6 689.6s57.7-97.4 29.2-187.4"/><path class="st3" d="M625.5 506.4s4.5 22.6-1.8 51.5"/><path class="st9" d="M634 511.9s-2.4 36.4-11.8 69M639.1 516.1s-9.6 51.9-17.8 71.8M639.7 535.2s-12.5 48.8-20.5 64.6"/><path class="st3" d="M706.8 124.9s-27.5 20.3-40.1 39.8"/><path class="st1" d="M518.4 352s-4.7-18.3-8.1-26.5c0 0 9.7-2.8 13.3-1.6 0 0-1.8 16.4.7 29.8l-5.9-1.7"/><path class="st1" d="M516.2 344.2s-4.6-16.3-9.7-24.7c0 0 14.6-8.7 20.5-7.4 0 0-5.8 15.8-3.7 29.5l-7.1 2.6M517.5 342l7.3 1.9M524.8 343.9s2.9-16.6 7.2-25.4"/><path class="st4" d="M533.7 857.8s4.7 7.6 11.3 7.6c6.6 0 2.4-12.5 0-18-.6-1.4-17.1-43.8-16-93.6 3.1-144.1-5.9-407.2-2.4-431.2h-11s8.5 201.7 6.3 317.1c-2.3 120.4 11.8 218.1 11.8 218.1z"/><path class="st3" d="M323.6 227.6s78.6 24.2 93.4 26.2c14.7 2 94.1 50.6 98.1 81.1"/><path class="st3" d="M314.5 218.4s83.5 26.8 103.9 28.1c20.4 1.3 87 48.4 96.2 88.3"/><path class="st3" d="M514.5 334.2c-6.4-36.6-79.9-95.5-96.1-93.5-16.1 2-116.5-32.8-116.5-32.8"/><path class="st3" d="M300.5 200.7s65.3 20.9 85.6 33.4M300.5 194.2s56.2 15.7 100.4 43.8"/><path class="st3" d="M299 189.6s47.7 9.2 119.4 51"/><path class="st3" d="M296.9 181.1s89.5 24.9 139.7 65.8"/><path class="st3" d="M299 176.5s203.6 49.4 217.6 165.2"/><path class="st3" d="M519.5 345.1c-19.7-131.3-218.1-175.8-218.1-175.8"/><path class="st3" d="M306.8 163.4s100.4 17.2 172.5 92.3c0 0 40.2 37.5 43.1 99.5"/><path class="st3" d="M307.9 153.6s22.9 10 32.3 18.8M315.9 143.1s26.7 16.6 41.2 34.9M316.6 130.7s45.2 29.4 64.8 56.9M327.1 124.2s44 29 76.8 74.8M331.3 117.4s55.7 37.5 91.3 92.5"/><path class="st3" d="M334.1 111.7s57.6 34.5 113.7 115.6"/><path class="st3" d="M338.4 103.9s95.9 74.6 128.2 139.2"/><path class="st3" d="M339.8 97.8S453.5 182 479.3 255.7"/><path class="st3" d="M342.6 91.2s134.2 98.1 160 195.9"/><path class="st3" d="M346.1 89.5s147.5 102.7 166.4 218.6"/><path class="st3" d="M521.7 334.6c-12.4-140.4-166.3-250-166.3-250"/><path class="st3" d="M360.1 78.4s153.8 105.8 159.4 266.7"/><path class="st3" d="M370 69.2s151.6 150.7 146.7 273.1"/><path class="st3" d="M371.6 65.5s126.4 103.8 147 253.9"/><path class="st3" d="M387.5 62.9c118.9 112.5 130.1 269.6 130.1 269.6"/><path class="st3" d="M397.8 53.3S497 168.5 518.6 319.4"/><path class="st3" d="M412.8 55.9s106.2 133.9 106 269.9M704.9 211.1S629 242 614.6 245.3s-88.6 58.5-89.5 89.3"/><path class="st3" d="M713.1 201.2s-80.5 34-100.6 37c-20.1 3.1-81.8 55.8-87 96.3"/><path class="st3" d="M525.6 333.7c2.7-37 70-102 86.3-101.4s112.8-42.7 112.8-42.7"/><path class="st3" d="M725.3 182.4s-62.9 26.5-81.9 40.6M724.7 175.9s-54.4 20.5-95.6 52.4"/><path class="st3" d="M725.6 171.1s-46.6 13.3-113.7 61.2"/><path class="st3" d="M726.9 162.5s-86.6 32.6-132.5 77.6"/><path class="st3" d="M724.3 158.1s-197.8 66.8-200.2 183.4"/><path class="st3" d="M521.7 345.1c6.5-132.4 199.6-194 199.6-194"/><path class="st3" d="M715.3 145.8s-98.2 25.9-162.5 106.8c0 0-36.3 40.8-32.9 102.8"/><path class="st3" d="M702.2 114.1s-42 33.2-58.9 62.3M691.1 108.5s-40.9 32.7-68.9 81.1M686.3 102.1s-51.7 42.2-81.6 100"/><path class="st3" d="M682.9 96.7s-53.8 39.3-101.7 125"/><path class="st3" d="M677.9 89.2s-88.1 82.6-113.8 149.7"/><path class="st3" d="M675.9 83.3S571.1 177 552.8 252.6"/><path class="st3" d="M672.4 77S548.5 186.4 532.7 285.9"/><path class="st3" d="M668.8 75.6S532.3 190.7 525 307.6"/><path class="st3" d="M518.4 334.9C516.7 194 659 71.5 659 71.5"/><path class="st3" d="M653.7 65.7s-142.5 118.7-132 279.4"/><path class="st3" d="M643 57.4S507.1 220.6 524.2 342"/><path class="st3" d="M641 53.9S525.6 168.2 520 319.4"/><path class="st3" d="M624.9 52.6C517.7 175 522.3 332.4 522.3 332.4"/><path class="st3" d="M613.7 44S526.4 167.3 520 319.4"/><path class="st3" d="M599 47.9s-86.1 140.5-80.6 276.3"/><path class="st0" d="M519 353.9s-32.3-49.7-49.2-60.2-51.9-30.1-74.4-36.6c-22.4-6.5-67.4-18.3-74.4-23.6.7-.7 1.3-1.6 1.9-2.4.5-.9 1.4-3.5.7-4.6s-6.3-4.6-10.1-7.4c-3.8-2.8-8.4-7.2-11.9-10.1.8-1.2 1.1-2.7.9-4.1-.5-2-2.8-2-1.4-4.8s.5-4.1-.7-5.4c-1.2-1.3-3.3-5.7-.5-6.1 2.8-.4-2.1-5.9-3.3-6.5 0 0 1.4-.9.7-2 0 0 2.6-1.3 1.6-2.6 0 0 .9-.9.7-1.8 0-2.6.7-5.1 1.9-7.4 1.4-2.6 6.8.2 6.5-15.3 1-4.7 4.2-8.7 8.7-10.7 0 0 .9-6.5-.9-11.3 0 0 12.2-4.1 15.9-14 0 0 6.5-13.5 7.7-19 0 0 1.9-6.3 2.8-7s4-.7 4.7-2.4c.7-1.7 7.5-1.3 13.9-11.3 0 0 4.4 1.3 10.8-12 0 0 16.4-.4 21.3-5.7 1.7-2.2 3.3-4.6 4.7-7 0 0 7 3 8.3 2.2 0 0 6.1 1.3 8.1.5s15.1 11.3 25.4 10.1c0 0 18.8 63.3 26.8 67.2 8 3.9 6.4-.8 50.5 93.4 0 0 8.9-14.9 12.2-27.1 3.1-11.3 11.2-24.4 14-34.9 2.8-10.5 26.2-96.8 37.4-105.6s33.7-26.2 44-4.4c0 0-.9 5.2 15-.9 0 0 17.8 17.4 32.8 22.7 0 0 13.1 28.8 30 38.4 0 0 11.2 26.2 27.1 47.1 0 0-6.6 21.8-2.8 31.4 0 0-31.3 34-89.4 56.3-60.4 23.1-111.9 79-111.9 104.3l-6.1.6z"/></g></svg>