<svg xmlns="http://www.w3.org/2000/svg" xml:space="preserve" id="Layer_1" x="0" y="0" style="enable-background:new 0 0 1000 1000" version="1.1" viewBox="0 0 1000 1000"><style>.st0,.st1{enable-background:new}.st0{opacity:.81;fill:#fff}.st1{opacity:.91}.st1,.st2{fill:#fff}.st3,.st4{opacity:.69;fill:#fff;enable-background:new}.st4{opacity:.62}</style><path d="M494.4 243.6c-8-16.1-13.4-29.9-36.6-50.9s-37.3-25.1-37.3-25.1 6.6 58 34.2 80.5 48.9 26.9 48.9 26.9c-1.3-10.9-4.4-21.5-9.2-31.4zM532.4 182.8c-3.9-23.7-5.3-34.4-21.1-71.2S480 65.4 480 65.4s-4.4 75.3 14.9 115.9 36.4 55.5 36.4 55.5 5-30.4 1.1-54z" class="st0"/><path d="M691.6 280.9s-16.4 34.9-58.3 39.3c-4 .7-8.2.9-12.3.5-4.6-.6-9.2-1.6-13.6-3.1 0 0 8.6-22.7 44.8-36.1 0 .1 28-4.6 39.4-.6z" class="st1"/><path d="M535.7 258.1s-8.4 37.6 22 66.8c2.8 3.1 5.9 5.7 9.4 7.9 4 2.4 8.2 4.4 12.6 5.9 0 0 7.2-23.2-13.2-55.9-.1 0-19.3-20.8-30.8-24.7z" class="st2"/><path d="M755.2 351s-7.8 72.6-83 127.3c-7 5.7-14.5 10.7-22.5 14.8-8.8 4.3-18 7.9-27.4 10.8 0 0 1.1-44.9 59.8-106.8.1 0 49.1-39.1 73.1-46.1z" class="st3"/><path d="M570 390.2s-8.4 44.4 27.5 90.4c3.2 4.6 6.9 8.9 11 12.9 4.6 4.2 9.5 8 14.7 11.3 0 0 7.4-26.8-17.1-74 0-.1-22.8-32.1-36.1-40.6zM693.1 555.7s-9.3 40.2-58.8 59.5c-4.7 2.2-9.7 3.8-14.7 4.9-5.8 1.1-11.6 1.7-17.5 1.8 0 0 3.5-25.4 43.3-51.5 0 .1 32.6-14.5 47.7-14.7z" class="st3"/><path d="M475.4 586.1s5.8 40.8 53.4 64.4c4.5 2.6 9.3 4.6 14.2 6.2 5.6 1.6 11.4 2.7 17.2 3.3 0 0-1.3-25.6-38.7-55 .1-.1-31.1-17.4-46.1-18.9z" class="st4"/><path d="M589.2 594s22.7-58.3 15.7-113.7c-.4-5.2-1.3-10.3-2.6-15.3-1.4-4.5-3.3-8.9-5.7-13 0 0-15.3 35.5-16.6 93.8 0 0 3.3 38.7 9.2 48.2z" class="st2"/><path d="M585.8 593s0-46.3 53.5-87.6c5-4.3 10.4-8.1 16.2-11.4 6.5-3.6 13.3-6.7 20.2-9.3 0 0 2.9 28.3-37.3 72.6 0 0-34.7 29.1-52.6 35.7zM482.6 378.8s2.7-64-49-118.6c-4.7-5.5-9.9-10.6-15.7-15-6.3-4.6-12.9-8.6-19.9-12 0 0-4.6 39.2 33.5 98.6 0-.1 33.4 38.6 51.1 47z" class="st4"/><path d="M469 403.9s-21-42.9-75.9-59.4c-5.2-1.9-10.6-3.2-16.1-4-5.9-.6-11.9-.8-17.9-.4 0 0 10.9 27.4 58.1 52.1.2 0 36.7 12.8 51.8 11.7z" class="st2"/><path d="M471.8 403.4s-44.3-36.1-112.1-26.6c-6.6.5-13.1 1.8-19.4 3.7-6.8 2.3-13.3 5.1-19.6 8.5 0 0 25.6 24.3 89.2 27.5-.1 0 46-4.3 61.9-13.1zM465.7 585.5s9.4-63.5-36.1-123.6c-4.1-6-8.7-11.6-14-16.7-5.7-5.3-11.9-10-18.5-14.1 0 0-8.6 38.6 22.9 102 0-.1 29 42.1 45.7 52.4z" class="st4"/><path d="M466.1 584.6s36-46.8 25.5-117.9c-.6-6.9-2-13.7-4-20.4-2.4-7.1-5.3-13.9-8.9-20.5 0 0-24.3 27-26.7 93.9 0-.1 5 48.3 14.1 64.9zM637.2 165.4s8.6 57-31.3 129.7c-3.6 7.2-7.7 14.1-12.2 20.6-5 6.9-10.4 13.5-16.3 19.7 0 0-7.8-33.6 19.7-104.6 0 .1 25.4-49.9 40.1-65.4z" class="st1"/><path d="M352.1 545.4s44.6-3.1 80.8 38.6c3.8 3.8 7.1 8.1 9.9 12.6 3 5.2 5.5 10.6 7.6 16.2 0 0-27.5 4.2-67.4-26.1 0-.1-25.7-26.9-30.9-41.3z" class="st4"/><path d="M297.5 615.5s45.4-36.3 114.8-18.6c6.8 1.3 13.5 3.4 19.9 6.2 7 3.3 13.7 7.2 20 11.6 0 0-26.2 24.8-91.3 22 0 0-47.3-9.6-63.4-21.2z" class="st3"/><path d="M529.9 228.8s1.5 8.8 1.2 10.8c-.8 5.9-1.6 12.7-2.2 20.1-1.7 20.8-1.9 41.7-.6 62.6l.4.7-.3.2c.1 1.3 0 2.6.1 3.9 1.7 23.4-2.8 65.7-1.5 102.5 2.7-4.2 5.5-8.6 9.2-14.6s16.9-27.5 17-27.6c4.7-10 9.9-19.9 15.5-29.8l7.9-25.3 4.5 2.8-4.7 11.4c-1.8.2 6.8-6.9 14.9-14.4s17.2-15.8 17.2-15.8l1.4 1.5s-9.1 16.5-20 26.3c-12.8 11.4-7.5 8.3-11.9 11.4l-8.2 15c-1.1 5.4-2.9 10.6-5.2 15.5-3.4 6.8-15.1 25.1-15.1 25.1s-4.5 9.3-8.3 15.3c-4.9 7.9-8.5 13.3-8.5 13.3.4 9.2-.7 14.2-3.1 27.8-1.3 7.5-1 5.1-1 5.4 1 32.1 1.9 67.7 1.9 67.7s11.8 33.7 16.1 54.4c2.6 12.8 5.7 25.8 9.1 39 2.3 8.8 3.9 20.3 6.5 29.2 3.4 10.8 7.6 21.3 12.6 31.4 0 0 5.3 11.4 8.7 20.6-1.5-12.1.4-6.4 2.2-26.1.7-7.9-.1-19.2.7-29.4.9-11.1 6.1-22.3 6.1-22.3l-1.4-31.7-4.5-6.3.5-12.1 1.1-6.4 9.5 42.4c1.4-8.2 2.7-16 4.4-24.8 6.2-31.9 1.3-9.4 9.4-42.6 2.8-11.6 6.2-35.6 8.7-45.2.9-3.4 3.2-12 3.2-12.1l1.9 1.2s-5 27.7-5.9 31.1c-2.5 9.6 1.2 9.8-3.3 31.7s-4 14.8-10.2 46.5c-4.4 15.7-7.8 31.6-10.4 47.7-1.4 8.9-1.8 24.7-2.4 31.1-1.8 19.7-1.5 62.2-1.5 62.2 3.2 8.6 12.3 24.6 16.5 32.6s4.5 19.9 4.5 19.9l7.7 26.1 7.9 29.8s12 25.1 17.4 37.1c3.5 7.9 6 12.3 9.2 18.7 0 0 .4 6-2.1 9.4s-12.5 10.9-12.5 10.9c-3.5-7-6-25.7-10-32.7-11.9-20.2-22.9-34.4-30.5-54.2-6.2-16.2-4.6-34.5-12.6-50.6S572 774.2 572 774.2s-14.5-39-18.3-43c-10.9-11.5-12.8-23.1-23.9-34.3-5.5-5.6-10.6-11.5-15.2-17.9-6.5-8.9-13.2-17.9-16.2-20.8-7-6.9-8.8-10.1-15.8-15.4-2.3-1.7-4.6-3.3-6.9-4.7-7.7-4.9-14.4-9.6-20-13.8-3.6-2.7-6.6-5.1-9.1-7.2-.9-.7-1.6-1.4-2.2-1.9-.4-.3-2.9-4.7-2.9-4.8l5.4.7.6.6c.6.5 1.3 1.1 2.1 1.8 2.4 2 5.3 4.3 8.9 7 5.6 4.2 12.2 8.7 19.8 13.6 2.3 1.5 4.7 3.2 7.1 5s3.4-4.2.1-9.8c-5.9-9.9-4.5-5.3-9.3-15.1-1.1-2.2-11.9-22.4-11.9-22.4s.2-8.4.1-8.5l3.1-2.2c-1.2 2-1.7 4.4-1.3 6.7.8 4 6.6 8.8 8.2 12.2 4.8 9.7 17.4 37.8 17.4 37.8 5.6 5.2 10.8 10.7 15.5 16.7 3.1 4 4.9 8.8 7.9 12.2.8.8 1.7 1.7 2.4 2.5 1.1 1.2 3.8 4.3 4 4.5v.1c2.9 2.9 9.4 9.4 12.1 12.2 11.1 11.3 12.4 13.9 23.3 25.4 3.8 4 18.1 26.1 20.2 14.9 1.8-9.7-12.8-32.1-18.2-50.5-8.4-28.7-23.2-72.3-28.9-100.3-4.7-23.2-10.2-23.4-11.9-53.9s6.6-44.5 5.2-68.2h-.3c0-.3 0-.6-.1-.9-.1-.8-.3-1.7-.5-2.7 0-.1-.1-.2-.1-.4h-.2l-3.4-9.3c-3.3-6.8-8.1-12.8-13.9-17.7-8.5-7.2-19-12.3-30-15.9-2.3-.8-4.5-1.4-6.4-1.8-.7-.2-2.3-.5-2.4-.5l.9-4.6c.1 0 1.9.4 2.6.6 2 .5 4.3 1.1 6.7 1.9 5.7 1.8 11.3 4.1 16.7 6.9 5.3 2.7 10.2 6 14.8 9.8 1.5 1.2 2.6 2.7 3.9 4-.2-.4-.4-.7-.6-1.1-3.8-6.4-7.9-12.6-12.3-18.5-4.9-6.7-10.3-13.6-15.8-20.4-1.9-2.4-6.5-7.7-7-8.2-.3-.3-.4-.5-.5-.6l3.5-3.2 2.1 2.4c1.6 1.9 3.5 4.1 5.4 6.5 5.6 6.8 11.1 13.8 16.1 20.6 4.5 6.1 8.7 12.4 12.6 19 1.2 2.1 2.3 4.2 3.2 6.1l.2.2.4-9.8c-2.1-49.7-5.1 5 3.8-82.5.1-1.3.8-8 .8-9.2l-25.4-52.5 1.7-1 23.4 43c.5-4.5-.5-36.7.9-53.8.6-7.6 1.4-14.4 2.2-20.4.3-2.1 1-6.5 1.1-6.9 0-.2 0-.3.1-.5l2.3-3.2z" style="opacity:.84;fill:#fff;enable-background:new"/></svg>