<svg version="1.1" id="Layer_1" xmlns="http://www.w3.org/2000/svg" x="0" y="0" viewBox="0 0 1000 1000" style="enable-background:new 0 0 1000 1000" xml:space="preserve"><style>.st1{opacity:.73;enable-background:new}.st1,.st2{fill:#fff}</style><path d="M748.1 962.2h1v1h-1v-1zm-626.4 0h1v1h-1v-1zm626.4-852.3h1v1h-1v-1zm-626.4 0h1v1h-1v-1z" style="opacity:.73;fill-opacity:0;enable-background:new"/><path class="st1" d="M461.7 933.4s-10.7-209.6-45.6-363c0 0-29.4-128.3-69.8-255.8 0 0-25.3-56.5-36.3-85.9 0 0 54.8 99.4 89.4 237.4s41.3 169.9 59.4 284.6 28.5 208.6 21.1 209.7c.1 0-23.4 12.1-18.2-27z"/><path class="st1" d="M442.5 723.7s56.6-53.6 161.2-81.5c0 0 49.5-11.2 96.6-23.9l47.8-10.5s-61.9 36.7-113.4 61c-21.3 10.1-56.2 24-81.8 33.5-8.8 3.2-16.5 6-22.2 7.8-22.4 7.1-62.7 14.4-88.2 13.6zM438 624.4s-62-35.1-166.5-9.2c0 0-49.1 14.8-96.2 26.4l-47.5 14.7s64.7 10.3 117.7 11.1c22 .3 57.5-2.5 83.4-5.5 8.9-1 16.7-2.1 22.5-3.1 22.5-3.8 62.3-18.2 86.6-34.4zM420.9 583.2s20.5-19.8 37.8-35.1c18.6-16.5 34.3-28.7 42.3-32.1 0 0 25.2-14.4 54.4-27.2l56.8-28s-51.8 46.6-77.3 67.5c-10.6 8.7-29.4 21.1-43.7 29.8-4.9 3-49.7 23.3-70.3 25.1zM406.2 520.1s15.2-32.7 28.5-58.5c14.4-28 27.4-49.5 35.2-57.2 14.1-20.2 29.9-39.1 47.4-56.4l58.6-59.4s-36.7 81.7-57.2 118c-8.5 15-28.2 35.1-41.1 51.8-2.9 3.7-16.8 19.4-36.5 36.2-10.5 9-26.7 21.5-34.9 25.5zM409.2 527.3s-37.6-5-67.7-7.7c-32.6-3-58.3-3.6-68.6-1-24.3 1.1-48.5 4.5-72.2 10.2l-79 18.5s93.3 13.5 136.2 15.8c17.8.9 44.5-5.2 65.5-7.2 7.2-.9 66.3-14.4 85.8-28.6zM385.9 431.4s-24.6-4.8-51.5-7.3c-29.1-2.7-58.9 2.8-68.9 5-22.9.9-45.6 3.9-67.9 8.8L121.8 454s82.3 12.3 121 14.4c16 .9 41.6-4.5 61.2-6.2 6.7-.6 61.1-18.3 81.9-30.8zM393.5 472.5s7.7-31.1 20.8-56.1c14.2-27 26.5-47.7 33.2-54.8 12.6-18.7 26.6-36.5 42-53l50.5-55s-37.5 79.6-57.2 114.5c-8.2 14.5-25.2 33.1-36.9 48.9-3.9 5.4-33.8 45.8-52.4 55.5z"/><path class="st1" d="M381.5 427.1s8-29.9 22.2-53.8c15.5-25.8 28.9-45.5 36.3-52.2 14-18 29.5-34.8 46.4-50.2l12.7-11.8 43.3-40.2s-40.6 76-62.1 109.4c-8.9 13.8-27.8 31.4-40.6 46.4-4.4 5.1-37.4 43.5-58.2 52.4zM378.9 406.1S354.5 390 329 382.3c-27.6-8.4-49.8-13.7-59.6-13.8-21.8-3.8-43.9-5.8-66-6l-74.4-1.1s77.5 27.9 114.3 37.7c15.2 4.1 40.3 4.5 59.3 7 6.4.8 55 6.9 76.3 0zM365.6 371.5s-18-16-38.2-25.4c-21.8-10.1-39.6-17.1-47.8-18.4-17.7-5.8-35.8-10-54.2-12.8l-62-9.8s60.7 32 90 44.4c12.1 5.1 33 8.5 48.5 12.8 5.3 1.5 45 12.4 63.7 9.2zM354.6 336.5s-14.6-17.7-31.5-29.3c-18.2-12.5-33.2-21.5-40.2-23.8-14.8-7.7-30.1-14.2-46-19.3L184 246.6s50.6 38.6 75.1 54.3c10.2 6.5 28 12.5 41.1 18.5 4.5 2.1 38.1 17.7 54.4 17.1zM325.5 263.5s-11.9-9.6-24.7-14.9c-13.9-5.8-25.2-9.7-30.3-10.2-11.1-3.1-22.5-5.2-33.9-6.4l-38.5-4.4S237 246 255.6 253c7.7 2.9 20.7 4.4 30.4 6.6 3.2.8 28.1 6.5 39.5 3.9zM354.4 347s3.6-31 12.1-56.8c9.3-27.9 17.5-49.2 22.3-56.9 8.5-19.4 18.4-38.1 29.6-56.1l36.4-59s-23.7 81.4-36.8 117.5c-5.4 15-17.7 34.9-25.8 51.6-2.6 5.7-23.5 48.3-37.8 59.7z"/><path class="st1" d="M325.4 266.6s-3-20.2 2.9-37.7c6.4-18.9 12-33.7 15.7-39.1 6.2-13.3 13.5-26 21.8-38l33.1-41.9s-11.6 56.8-20.8 81.4c-3.8 10.2-16.9 27.5-22.9 38.9-2.2 4-18.3 28.1-29.8 36.4z"/><path class="st1" d="M315.5 244.8s22.5-16.5 17.2-86.4c0-.1-18.8 42.8-17.2 86.4zM312 235.9s-7.5-19.7-62.6-44.6l-35.3-8.4s29.6 29.1 64.7 41.1l33.2 11.9z"/><path class="st2" d="M548.8 862s3.5-76.1 2.8-115.8c-1.1-60.8-4.8-105.7 10.1-204 0 0 20.8-136 53.2-271.9 0 0 22.1-60.9 31.4-92.3 0 0-49.7 107.8-75.2 254.2-20.1 115.7-34.3 234.7-34.3 234.7s-3.7 41-5.8 66.3c-10.1 121-13.7 219.5-5.9 220.1 0 0 19.2 5 24.3-3.2 2.7-4.2 2.4-74.3-.6-88.1z"/><path class="st2" d="m544.1 684.1-29.8-1.2s-75.2 7.5-128.9 34.3c0 0-41.1 22.9-81.3 42.9l-39.5 22.5s63.9-7.8 113.7-20c20.6-5 52.9-15.7 76.2-24.2 8-2.9 15-5.6 20-7.8 19.7-8.1 52.1-28.6 69.6-46.5zM544.8 710.2S614.1 723 683 795c0 0 31 35.4 62.1 67.8l29.7 34.5s-57.5-28.9-100.3-57.1c-17.7-11.7-44.5-32.6-63.6-48.5-6.5-5.5-12.2-10.3-16.2-14-15.9-14.5-39.6-44.7-49.9-67.5zM542.3 642.3s70.1-8.9 157.1 57.4c0 0 40 33.7 79.3 63.5l38.5 33s-63.5-15.8-112.7-36.2c-20.4-8.4-52.2-25.2-75.1-38.4-7.9-4.5-14.7-8.7-19.6-11.9-19.4-12.7-50.9-42.3-67.5-67.4zM543.6 649.8s-31.9-51.4-136.5-60.8c0 0-50.8-2-97.9-6.3l-49.3-1.6s49 29.8 93.7 47.2c18.5 7.2 50.5 15.9 74.4 21.3 8.2 1.9 15.5 3.3 21 4.2 21.6 3.6 64.2 3 94.6-4zM549.8 592s-25.1-20.9-46.1-36.8c-22.7-17.3-41.6-29.8-51-33.1 0 0-30-14.3-64.4-26.4L321 468.5s63.1 48.7 93.9 70.5c12.8 9 35.3 21.6 52.4 30.3 6 2.9 58.9 22.3 82.5 22.7zM560.6 539.8s-20.1-36.1-37.5-64.4c-18.9-30.7-35.5-54.1-45-62.3-17.8-21.8-37.5-42.1-58.9-60.4l-71.9-62.8s48.7 90.2 75.2 129.8c11 16.4 35.2 37.7 51.4 55.7 5.5 6.2 59 53.2 86.7 64.4z"/><path class="st2" d="M545.9 589s38.4-1 69.3-.6c33.5.5 60.1 2.7 71.1 6.5 25.9 3.8 51.4 10 76.2 18.4l84.3 27.7s-95.2 3.8-139.4 1.5c-18.3-1-46.8-10.2-68.9-14.6-7.6-1.6-70.5-22-92.6-38.9zM561.7 512.9s27.7-7.5 58.1-12.7c33-5.6 67.5-1.8 79.1-.1 26.2-.9 52.4.5 78.3 4.3l88 11.9s-92.9 21-136.8 26.7c-18.2 2.4-47.9-1.5-70.4-1.9-7.9 0-71.6-15.6-96.3-28.2zM572.1 458.3s25.5-12.6 53.9-23.5c30.8-11.8 63.8-14.8 75-15.4 24.5-5.9 49.5-9.6 74.6-11l84.5-5.5s-86.1 38.3-127.2 52.3c-17 5.8-45.6 7.8-66.9 11.8-7.4 1.5-69.2-1.3-93.9-8.7zM569.2 498.7s-11.1-30.6-29.2-54.2c-19.6-25.5-36.5-44.8-45.6-51.1-17.6-17.7-36.7-33.7-57.2-48l-68.6-48.8s52 75.7 79.2 108.5c11.3 13.6 34.3 30.1 50.2 44.5 5.6 5 46.4 42 71.2 49.1z"/><path class="st2" d="M571.7 463.1s-11.4-34.9-28.5-62.3c-18.5-29.7-34.3-52.2-42.5-59.7-15.9-20.3-33.5-39.3-52.4-56.9l-62.4-58.5s49.5 87.6 75 125.8c10.6 15.8 31.5 35.6 46.2 52.7 5 5.9 42.5 49.5 64.6 58.9z"/><path class="st2" d="M581.5 410.3s-11.6-33.5-29.9-59.5c-19.8-28.2-36.8-49.5-45.9-56.5-17.5-19.4-36.6-37.3-57.2-53.4l-68.4-54.6s52.8 83.4 80.2 119.6c11.4 15 34.4 33.5 50.3 49.5 5.5 5.5 46.4 46.6 70.9 54.9zM573.6 437s24.7-22.6 52-36c29.7-14.5 53.8-24.6 64.9-26.4 23.9-8.3 48.5-14.6 73.5-18.8l83.8-14.8s-82.5 45.6-122.2 63.4c-16.5 7.3-44.7 12.4-65.7 18.7-7.3 2-61 17.9-86.3 13.9z"/><path class="st2" d="M582.8 386.1s26.5-20.4 54.9-31.4c30.8-11.9 55.7-19.9 66.9-20.8 24.5-6.2 49.6-10.4 74.8-12.5l84.8-7.6s-86.1 38.4-127.2 52.7c-17.1 6-45.7 8.6-67.1 13-7.4 1.6-62.3 12.8-87.1 6.6zM594.9 345.6s19.2-19.8 41.5-32.2c24.1-13.5 43.8-23 53-25 19.7-8.1 40.1-14.5 60.8-19.2l69.9-16.5s-66.5 41.7-98.9 58.4c-13.4 6.9-37 12.5-54.3 18.7-5.9 2-50.3 17.8-72 15.8zM604.5 304.6s15.3-21.5 33.5-36.1c19.8-15.9 36.1-27.5 43.9-30.6 16.2-10.1 33.3-18.8 50.9-25.9l58.9-24.4s-54.4 48.3-81.2 68.3c-11.1 8.3-30.9 16.6-45.3 24.7-5 2.7-42 23.3-60.7 24zM616.1 258.5s13.2-17.3 29.1-28.9c17.3-12.6 31.6-21.8 38.4-24.2 14.3-8 29.3-14.8 44.7-20.4l51.8-19s-47.5 38.5-70.9 54.4c-9.7 6.6-27.1 13.1-39.8 19.4-4.3 2.1-36.8 18.4-53.3 18.7z"/><path class="st2" d="M631.6 218.9s12.8-12 27-19.1c15.4-7.8 27.9-13.2 33.7-14.2 12.4-4.5 25.2-7.9 38.2-10.2l43.6-8.2s-42.8 24.3-63.5 33.9c-8.6 4-23.3 6.8-34.2 10.1-3.7 1.1-31.6 9.7-44.8 7.7zM605.6 316.7s-6.7-35.2-18.7-63.8c-12.9-31-24.1-54.7-30.3-63.1-11.4-21.4-24.3-42-38.6-61.5L471.5 64s34 90.9 52 131c7.5 16.6 23.1 38.4 33.8 56.7 3.6 6.3 31 53.2 48.3 65zM619.3 260.1s-5.7-28.4-15.9-51.5c-11.1-25-20.8-44.1-26.1-50.9-9.9-17.3-21-33.9-33.3-49.6l-40.3-51.7s29.1 73.4 44.6 105.7c6.4 13.4 20 30.9 29.2 45.7 3 5.1 26.7 42.9 41.8 52.3z"/><path class="st2" d="M632 222.4s1.7-23.3-6.5-42.8c-9-21.1-16.6-37.5-21.3-43.2-8.2-14.6-17.6-28.5-28.1-41.6l-41.3-45s18.1 63.9 30.7 91.2c5.2 11.3 21.6 30 29.5 42.5 2.7 4.3 23.2 30.4 37 38.9z"/><path class="st2" d="M641.4 196.6s-27.1-16.9-27-97.2c.1 0 25.1 47.4 27 97.2zM644.6 186.2s6.9-23.1 67.7-56.2l39.5-12.5s-31.3 35.7-70.4 52.4l-36.8 16.3z"/></svg>