<svg version="1.1" id="Layer_1" xmlns="http://www.w3.org/2000/svg" x="0" y="0" viewBox="0 0 1000 1000" style="enable-background:new 0 0 1000 1000" xml:space="preserve"><style>.st0,.st1{opacity:.74;fill:#fff;enable-background:new}.st1{opacity:.62}.st2{opacity:.66;fill:#fff}.st2,.st3,.st4{enable-background:new}.st3{opacity:.57;fill:#fff}.st4{opacity:.85}.st4,.st5{fill:#fff}.st6,.st8{opacity:.8;fill:#fff;enable-background:new}.st8{opacity:.68}</style><path class="st0" d="M684.1 574.1s-49.2-34-66-20.7-6.3 30.7 5.5 31.4c0 5.9 2.4 11.5 6.7 15.5 7.4 7.2 21.7 7.2 30.2-3.2s23.6-23 23.6-23zM693 524.8s-31.6-20.6-32 10c.5 6.4 3.2 12.5 7.5 17.3 7.1 7.5 15.6 21.7 15.6 21.7s42.2-12.7 45.2-26.2.6-23.2-6.4-27.4-29.9 4.6-29.9 4.6zM684.7 575.9s-11.9 14.8-15.6 27.8-2 26.7 11.1 27.9 16.8-2.8 22.6-6.4c0 0 31 4.2 24-29.2 0 0-4-8.9-27.8-16.7l-14.3-3.4zM707 441s21.7-32 10.6-40.8-23.3-1.2-23 5.9c-4.2.4-8.1 2.3-11.1 5.3-4.8 5-3.8 13.4 4.6 17.6s18.9 12 18.9 12zM744.4 442.1s13.1-20.4-9.8-18.1c0 0-7.2 1.1-12.3 5.9s-15 11.1-15 11.1 12.5 24 22.8 24.6 17.3-1.6 20-6.1-5.7-17.4-5.7-17.4z"/><path class="st1" d="M705.8 441.5s-11.9-5.9-21.8-7-20 1-19.9 8.9 3.3 9.7 6.4 12.8c0 0-.9 18.7 23.5 11.8 0 0 6.3-3.1 10.4-17.9l1.4-8.6z"/><path class="st2" d="M592.4 689.2s32.1-22.7 25-34.7-21.4-9-23.6-2.2c-4.1-1-8.5-.6-12.3 1.2-6.3 3-8.5 11.3-2.2 18s13.1 17.7 13.1 17.7z"/><path class="st0" d="M626.9 702.9s19.8-14.7-2.5-20.3c0 0-7.2-1.5-13.7 1.4s-18.1 5.3-18.1 5.3 2.9 26.6 12.3 30.7 16.8 4.4 20.9 1 1.1-18.1 1.1-18.1z"/><path class="st3" d="M591 689.3s-9-9.5-17.9-13.8-19.1-5.8-21.9 1.6-.5 10.2 1.3 14.2c0 0-7.8 17.2 17.6 18.9 0 0 7-.8 16.3-13.2l4.6-7.7z"/><path class="st4" d="M609.1 465s-29-48.1-49.2-42.8-18.1 24.4-8.1 29.4c-2.4 5-2.6 10.9-.5 16.1 3.5 9 15.9 14.4 27.7 8.5s30.1-11.2 30.1-11.2z"/><path class="st4" d="M635.7 429s-19.1-29.9-32.1-3.2c0 0-3.7 8.7-.5 17.9s4.7 24.8 4.7 24.8 42.1 4.7 50.3-6 10-20 5.7-26.4-28.1-7.1-28.1-7.1z"/><path class="st4" d="M605.5 464.6S589 473 580.4 483s-12.7 22.5-1.8 28.5c11 5.9 15.8 3.8 22.3 2.8 0 0 25.4 15.3 33-16.5 0 0 .1-9.2-17.4-25l-11-8.2z"/><path class="st5" d="M493.3 439.2s-13.9-42.2-30.5-41.3-18.5 16-11.6 21.5c-2.8 3.5-4 8-3.3 12.4 1.1 7.6 9.8 13.8 20 11.2s25.4-3.8 25.4-3.8z"/><path class="st0" d="M520.4 415.6s-9.5-26.3-24.4-7.8c-2.7 4.1-4 9-3.6 13.9.4 5.5.3 11.1-.4 16.6l18.5 7.2s15.5 3.4 19.2.3c8.3-6.9 13.4-14.4 11.1-20s-20.4-10.2-20.4-10.2z"/><path class="st5" d="M493 438.5s-16.8 3.6-25.3 10-13.9 15.4-6.5 21.9 11.6 5.5 16.9 5.9c0 0 17 16.1 28.6-7.4 0 0 5-5.1-5.8-20.2l-7.9-10.2z"/><path class="st0" d="M548.9 415.3s34.7-29.3 27.1-43.4-22.8-9.6-25.3-1.4c-4.5-1-9.2-.2-13.2 2.2-6.8 4-9.2 14.2-2.6 22s14 20.6 14 20.6z"/><path class="st6" d="M582.6 429.4s21.3-19-2.5-24.4c-5-.7-10.2.2-14.7 2.5-5.1 2.6-10.5 4.7-16 6.4l.6 19.1s3 14.9 7.5 16.9c10 4.4 19.2 5.9 23.7 1.6s1.4-22.1 1.4-22.1z"/><path class="st0" d="M549.5 414.8s-10.3-13.2-19.8-18-20.4-5.9-23.5 3.2-.6 12.4 1.2 17.1c0 0-8.5 21.3 18.7 21.9 0 0 6.9 2.3 17-13.3l6.4-10.9z"/><path d="M341.2 392.1s24.2-20.5 18.9-30.4-16-6.7-17.7-.9c-3.2-.7-6.5-.2-9.2 1.5-4.8 2.8-6.5 9.9-1.8 15.4s9.8 14.4 9.8 14.4z" style="opacity:.34;fill:#fff;enable-background:new"/><path class="st1" d="M364.7 401.9s14.9-13.3-1.7-17.1c-3.5-.5-7.1.1-10.3 1.7-3.6 1.8-7.3 3.3-11.2 4.4l.4 13.4s2.1 10.5 5.2 11.8c7 3.1 13.4 4.1 16.6 1.1s1-15.3 1-15.3z"/><path class="st2" d="M341.6 391.8s-7.2-9.2-13.9-12.6-14.3-4.1-16.5 2.3-.4 8.7.9 12c0 0-5.9 14.9 13.1 15.3 0 0 4.9 1.6 11.9-9.3l4.5-7.7z"/><path class="st3" d="M352.7 273.6s34.8 20.9 45.4 11.2 2.9-21-5.1-20.9c-.2-4-2.1-7.7-5.2-10.2-5.3-4.5-14.9-4-20.2 3.4s-14.9 16.5-14.9 16.5z"/><path class="st4" d="M348.6 304.5s22.2 12.6 21.1-8.1c-.7-4.3-2.7-8.3-5.9-11.3-5.1-4.8-11.5-14-11.5-14s-27.9 10.3-29.3 19.6.6 15.7 5.6 18.2 20-4.4 20-4.4z"/><path class="st3" d="M355.1 272.7s7.4-10.5 9.3-19.4.1-18.1-8.8-18.3-11.2 2.6-14.9 5.3c0 0-21.1-1.6-14.9 20.7 0 0 3.1 5.8 19.5 10.1l9.8 1.6z"/><path class="st0" d="M233.7 240.2s-54.5 22-42.6 39.5 35.9 17 39.8 8.7c0 0 10 3.9 20.8 1.4s14.5-12.8 4-23.1-22-26.5-22-26.5z"/><path class="st0" d="M187.9 236.2s-16.3 29.1 12.6 26.5c0 0 9.1-1.3 15.5-8.1s18.9-15.5 18.9-15.5-16.1-35-29-36.2-21.8 1.7-25.2 8.2 7.2 25.1 7.2 25.1z"/><path class="st4" d="M232.8 240.4s17.7 14.6 30.4 16.8 25.3-.7 25-13.2-4.5-15.6-8.5-20.8c0 0 .6-29.9-30-20 0 0-7.9 4.7-12.7 28l-4.2 9.2z"/><path class="st5" d="M568.5 635.2s-40.8-35.6-57-24.8-8.6 27.6 1.9 29.3c-.6 5.4 1 10.7 4.5 14.8 5.9 7.2 18.7 8.6 27.3-.2s23.3-19.1 23.3-19.1z"/><path class="st0" d="M614.7 625.1s7.5-32.9-19.5-22.8c0 0-8.4 3.7-12.6 12.1s-13.7 20.2-13.7 20.2 25.2 30.2 38 28.1 20.5-7.5 21.8-14.7-14-22.9-14-22.9z"/><path class="st2" d="M568.8 634.4s13.8 10.7 20 21.6 7.9 23.4-3.3 27.3-15.3 1-21.1-.9c0 0-26.1 10.5-27.6-21 0 0 1.5-8.8 20.4-20.9l11.6-6.1z"/><path class="st5" d="M566.5 590.2s-31.8-12.8-26.1 15c1.7 5.7 5.2 10.7 10 14.2 7.7 5.5 18 16.7 18 16.7s34.6-19.2 34.6-32-4-21-11-23.6-25.5 9.7-25.5 9.7z"/><path class="st3" d="M623.5 271.8s57.7 32.9 73 15.5 1.3-36.1-11.2-35.4c-1-6.7-4.4-12.8-9.7-17-9-7.3-24-5.6-31.2 7.4s-20.9 29.5-20.9 29.5zM573.7 296.3s1.5 42.3 29.3 22.8c5.4-4.7 9.2-11.1 10.8-18.1 2.2-11.4 9.5-28.4 9.5-28.4s-38.1-30.4-52.1-24.4-21.2 14.5-20.5 23.6 23 24.5 23 24.5z"/><path class="st5" d="M623.3 273s-19.1-9.4-29.5-21.2-16.2-26.6-4.6-34.3 17.2-5.3 24.5-4.4c0 0 26.7-19.6 38.1 18.4 0 0 1 11.1-17 30.9L623.3 273z"/><path class="st8" d="M639.5 326.4s40.4 7.4 25.4-25.2c0 0-5.3-10.1-15.8-14.8s-25.7-15.7-25.7-15.7-33.7 32.6-29.8 48.2 11.1 24.7 19.9 26 26-18.5 26-18.5zM504.2 94.9c-5.8-11.3-15.7-27.2-3.4-38.5s25.4-10.2 30.9 2.9l2.5 11.9s5.9-9.8 25.2-6.3 7.5 28.6-5.3 31.5-14.8 3.8-22.7 5.6-21.5 4-21.5 4-2.8-5.4-5.7-11.1z"/><path class="st8" d="M509.9 106.3s-10.7-29.9-35.1-25.9-19.7 12.1-21.8 22.5 13.3 24.7 21.6 22.2c0 0-11.5 6.4-5.3 18.9s18.3 11.1 25.8 6c3.6-2.4 7.7-8.4 11.4-19.3s3.4-24.4 3.4-24.4z"/><path d="M511.4 114s8.1 38.4 41.6 37.5 19-31.1 6.6-30.7c0 0 13-1.6 15.6-10.2s1-25.7-19.1-22.3-28.6 10.1-43.1 16.3l-3.1 1.7 1.5 7.7z" style="opacity:.55;fill:#fff;enable-background:new"/><path class="st1" d="M310.1 372.8s-21.9 27.3-11 34.4 23.1.4 22.8-5.5c4.1-.4 7.9-2.1 11-4.7 4.8-4.3 3.9-11.3-4.3-14.6s-18.5-9.6-18.5-9.6z"/><path class="st8" d="M274.1 379.7s-8 22.2 13.5 15.2c0 0 6.8-2.5 10.6-8.2s12-13.7 12-13.7-17.5-20.2-27.5-18.7-16.4 5.1-17.9 10 9.3 15.4 9.3 15.4z"/><path class="st2" d="M308.6 375.4s15.4 4.2 27.3 3.2 22.8-6.1 20.4-15.7-6.7-11-11.2-14.1c0 0-4.5-23-30.6-8.7 0 0-6.4 5.3-6.7 24.3l.8 11z"/><path class="st8" d="M287.1 423.1s-23.8-27.4-39.9-10.7c0 0-7.1 10.9 2.5 19.6 0 0-12.9 4.5-7.7 17.4s16.3 11.5 25.4 9.5 26.7-15 26.7-15l6.3-4.1-13.3-16.7z"/><path class="st6" d="M311.9 523.5s-10.3-58.1-42.7-39.7c0 0-9 7-6.7 18.2 0 0-26.1 12.7-19.5 33.2s23.8 16.2 31.5 14.3 29.1-17.5 29.1-17.5l8.3-8.5z"/><path d="M320.7 527.9s20.5 15.7 40.6 9.2 19-22.2 4.3-31.3-23.1-1.9-23.1-1.9 1.3-13.2-4.5-18.7-16.6-7.2-23.7 1.6-1.8 37.2-1.8 37.2l8.2 3.9z" style="opacity:.6;fill:#fff;enable-background:new"/><path class="st1" d="M503.1 273.9s6.3-4.9 3.9-16.7-26.6-20.5-27.5.9c0 0-12.7 0-12.7 13.6s26 12.6 36.3 2.2z"/><path class="st3" d="M509.8 274.7s14.4 4.1 25-8 .1-17.2-9.5-16.8c0 0-1-3.5-10.2-3.5s-18.7 2.5-14.6 14.9c4 12.5 9.3 13.4 9.3 13.4z"/><path class="st1" d="M507.4 270.5s-12.7 7.7-9.9 23.3 13.6 11.3 19.5 4.1c0 0 3.4 1.5 9.4-5.1s10.2-15.2-2.3-20.4-16.7-1.9-16.7-1.9z"/><path class="st3" d="M468 180s13.7-.3 17.6-8.1 3.2-14.1-6.9-15l-4.7 1.3s2.5-12.4-10.8-5.7c-3 3.5-4 8.3-2.7 12.8 2 7.7 7.5 14.7 7.5 14.7z"/><path class="st3" d="M468.5 180.1s-5.3-13.7-14.1-18.3-8.9 4.9-7.4 7.9c0 0-10.2 2.4-6.5 10.5s13.5 5.6 18.3 4.8 9.7-4.9 9.7-4.9z"/><path class="st3" d="M468.3 180.8s-15-.9-20.4 5.3-1.7 13.1 5.6 12.6c0 0 4.6 10.6 13.9 6.2s4.8-10.5 4.9-17.8l-2.2-6.3M615.6 193.8c-2.5-.1-20.4-14.2-13-26.7s17.3-5.4 22.6.4c0 0 5.6-4.8 15.4.7 8.6 4.8 5.2 13.6-1.1 21.4s-23.9 4.2-23.9 4.2z"/><path class="st3" d="M612.9 188.9s-7.6-17.9-21.1-12.2-7.6 15.5-4.5 18.2c0 0-9.3 1.6-6.5 9.6s10.6 10.3 17.2 8.7 14.9-12.2 17.4-16.4l.7-2.1-3.2-5.8z"/><path class="st3" d="M616.9 197.3s6.8 18.8 18.3 16.6 4.8-14.6 2.4-16.3c0 0 7.8-1.9 4-9s-8.5-9.7-17.1-5.4-8.9 7.9-8.9 7.9l-.7 3.5 2 2.7z"/><path class="st4" d="m510.6 104.3-4.3.1c0 .1.2 7 .3 9.7.3 7.7.8 16.4 1.4 25.7 1.7 26.5 4.4 53 8.1 77.8 5.5 35.8 12.8 64.8 22.4 84.8 2.1 4.5 4.2 9.4 6.1 14.4-3.4-3.2-18.1-15-17.1-14.2-3.2-2.6-6-5.6-8.5-8.8-3.5-4.5-6.3-9.5-8.5-14.8-.7-1.8-1.3-3.4-1.7-4.8-.1-.5-.3-1-.4-1.4l-.1-.4-4.2.8c.1.4.3 1.1.6 2 .5 1.6 1.1 3.4 1.8 5.2 2.3 5.6 5.3 10.9 9 15.7 2.7 3.5 5.8 6.6 9.1 9.4-.5-.4 16.2 13 17.8 14.8.6.6 1.1 1.3 1.6 2 .3.4.7.9 1 1.5 1.5 2.4 2.7 4.4 3.7 5.9.1.2.2.3.4.6 1.8 5.5 3.6 10.9 5.1 16.8-1.3-2.7-2.5-5.4-3.9-7.8-2.9-4.9-7.4-9.3-14.5-14.7-2.2-1.7-12.6-9.2-15.5-11.3-16.7-12.7-26.2-24.8-30.5-42.7-1.3-5.6-2.7-11.5-4-17.6-3.4-15.7-6.6-32.4-9.6-49.2-1-5.9-3.3-19.5-3.5-20.8-.1-.5-.3-1.5-.3-1.6l-2.4.3c0 .1.7 4.5 1 6.2.8 4.9 1.8 10.4 2.8 16.2 3 16.8 6.2 33.6 9.6 49.3 1.3 6.2 2.7 12.1 4 17.6 4.4 18.5 14.2 31 31.4 44 2.9 2.2 13.3 9.7 15.5 11.4 6.9 5.2 11.1 9.4 13.9 14 2.3 3.9 4.3 7.9 6 12 1.2 2.8 2.2 5.7 3.2 8.6 3.7 16.5 6.5 33.3 8.3 50.1 2.6 24.4 2.9 46.5 1.5 63-5.5 21.2-10.7 38.3-15.8 52.1-4.6 12.3-10.1 24.3-16.3 35.9-1.1 2-3.1 5.5-5.5 9.7-.1-3.3-.3-7-.8-11.2-.2-1.6-.7-6.5-.8-7.1-1.5-13.2-2.1-24.4-2.5-50 0-8.6 1-17.3 2.9-25.7 2.4-10.7 5.5-21.3 9.3-31.6 2.7-7.4 5.5-14.5 8.4-21.1 1-2.3 1.9-4.4 2.8-6.1.3-.6 1-2.1 1-2.2l-3.2-1.5c0 .1-.8 1.6-1.1 2.2-.8 1.8-1.8 3.9-2.8 6.2-2.9 6.6-5.8 13.8-8.5 21.3-3.8 10.4-7 21.1-9.4 32-2 8.7-3 17.5-3 26.4.3 25.7 1 36.9 2.5 50.3.1.5.6 5.5.8 7.1.7 5.8.9 11.6.7 17.4-5.2 9.3-11.6 20.7-11.2 19.9-12.2 21.6-21.6 44.7-27.9 68.7-3.8 14.6-5.3 22.9-9 47.3-.5-1.1-.8-1.7-1.3-2.8 0 0-11.5-22.4-13.7-26.7-4.8-9.4-8.7-18-12.2-26.8-2.5-6.1-4.8-12.4-7.3-19.5-2-5.8-5.7-17.6-10.1-31.4-.1-2.3-.1-4.6.2-6.9.7-5.2 2.5-10.5 5.8-17.7 2.5-5.4 1.4-3.4 12.9-25 4.7-8.9 8.9-14.3 18.6-25.2.2-.3.2-.3.5-.5 13.7-15.4 19.8-24.5 25.8-41.5 6.8-19.4 6.5-36.2 1.7-48.7-.8-2-3.5-2-3.5-2l-3.6-2s.1.2.2.3.4.7.7 1.1c.8 1.5 1.6 3.1 2.2 4.7 4.5 11.6 4.8 26.8-1.7 45.2-5.8 16.4-11.6 25.1-25 40.1-.2.3-.2.3-.5.5-9.9 11.1-14.2 16.8-19.1 26-11.6 21.8-10.5 19.7-13 25.2-2.5 5.1-4.3 10.4-5.4 15.9-.9-2.8-2.6-7.9-3.2-10h.2c-4.2-19.6-7.8-33.7-11.2-44.6-2.5-13.7-4.6-28.4-6.2-44.2.1-.5.1-.9.1-1.5.5-4.3 1.4-8.5 2.6-12.7.2-.6.4-1.3.6-1.9.6-1.9 1.4-4 2.4-6.2.6-1.4 1.3-2.9 2-4.4 1.4-3 2.8-6 4.2-8.8l.7-1.3c5 .6 11.7-6.5 14.8-11.7 4.2-7.2.3-9.8.3-9.8l-3.7-5.9-6.5 7s-13.6 4.1-9.6 15.5c.3.8.7 1.6 1.2 2.3l-1 2c-1.5 2.9-2.9 5.9-4.3 9-.7 1.5-1.4 3.1-2 4.5-1 2.3-1.8 4.5-2.5 6.5l-.6 1.8c-2.3-29.3-3.1-61.4-2.3-96.3.8-36.8-8.2-66.4-23.8-89.3-5.2-7.7-16.5-19.2-16.5-19.2s-3.8-3.3-5.5-4.6c-1-.8-1.8-1.3-2.2-1.6l-3 4.2.5.3c.4.3.9.6 1.4 1 1.5 1.1 3.3 2.6 5.1 4.3 5.9 5.5 11.2 11.6 15.7 18.3 15 22.1 23.8 50.6 23 86.4-1.2 50.7 1 96.1 6.3 134.6-.8-1.3-1.5-2.6-2.3-3.7l-9.3-15.2-.1-.1c-6.5-8.8-12.3-20.9-17.3-35.4-4.1-11.8-7.4-23.8-10-35.9-1-4.3-1.7-8.3-2.4-11.8-.2-1.2-.8-4.3-.8-4.5 0-.1-.1-.3-.1-.4-12.7-32.1-32.2-64.4-56.7-95.7-15.1-19.1-31.4-37.2-48.8-54.2-5.8-5.7-11.2-10.7-16.1-15-1.7-1.5-3.2-2.8-4.5-3.9l-1.6-1.4-2.8 3.1 1.6 1.3c1.3 1.1 2.8 2.4 4.5 3.9 4.8 4.3 10.2 9.2 16 14.9 17.3 16.8 33.5 34.8 48.4 53.8 24.3 30.9 43.5 62.8 55.7 94.8.1.4.5 3.1.8 4.3.6 3.6 1.5 7.7 2.4 12 2.7 12.3 6 24.5 10.1 36.4 5.2 14.8 11.1 27.2 17.9 36.4l.8 1.3c-1.3-1-2.7-2-3.2-2.4-2.2-1.7-4-3.2-5.9-4.9-5.4-4.8-10.3-10.2-14.6-16-4.5-5.8-8.4-12.1-11.6-18.7-10.3-21.3-15.1-44.9-13.9-68.5 0-.7.1-1.3.1-1.8 0-.2 0-.4.1-.6l-4.2-.4c0 .2 0 .5-.1.7 0 .5-.1 1.2-.1 1.9-.5 9-.1 18.1 1.1 27 1.9 15.1 6.4 29.8 13.1 43.5 3.4 6.8 7.4 13.3 12 19.3 4.5 6 9.6 11.6 15.2 16.6 2 1.7 3.8 3.3 6.1 5 .9.7 4.4 3.4 5.3 4 3.4 2.6 6.5 5.6 9 9.1l3.8 6.2c1.7 3.5 3.2 7.1 4.5 10.7 3.1 18.5 6.9 35.4 11.6 50-.9-2.8 8.4 26.1 14 43.3-.3-.2-.6-.4-.8-.7-1.3-1.1-2.7-2.2-4.3-3.3-.2-.2-.5-.4-.7-.5-1.3-.9-2.5-1.8-4-2.7-2.6-1.7-18.1-10.5-22.9-13.6-9.6-6-18.6-12.9-26.7-20.8-14.4-14-22.8-32-29.9-59.1-.8-3.1-1.6-6.4-2.6-10.3-.4-1.5-2.2-9-2.4-10.2-.4-1.5-.6-2.3-.9-3.6l.7-.2-.9-2.3c-.3-.7-.8-1.8-1.1-2.6-1.9-7.9-4.2-15.6-7-23.2-4-10.2-7.5-24.4-10.7-41.5-2.4-13-4.4-26.9-6.1-40.8-.6-4.9-1.1-9.4-1.5-13.5-.1-1.4-.5-5-.5-5.1l-4.2.3c0 .1.3 3.7.5 5.2.4 4.1.9 8.6 1.5 13.5 1.7 14 3.7 28 6.2 41 2.9 15.6 6.1 28.7 9.7 38.8-.9-1.6-1.5-3-2.5-4.7-4.4-8.3-9.7-16.2-15.8-23.4-1.5-1.8-3.2-3.4-4.9-5-.6-.5-1.2-1.1-1.8-1.6l-1.5 1.8.4.3c.4.3.8.6 1.2 1.1 1.7 1.5 3.2 3.1 4.7 4.8 6 7.1 11.2 14.8 15.5 23 4 7.2 7.1 13.6 9.9 19.6 1.5 5.1 3 11.1 4.9 19.1l2.5 10.3c.9 3.9 1.8 7.2 2.6 10.4 7.3 27.8 16 46.3 31 61 8.3 8.1 17.5 15.3 27.4 21.4.6.4 1.9 1.1 2.8 1.7l-.4-.1c-23.5-7.5-27.8-9-38.2-14.6-2.4-1.3-4.7-2.6-7-4.1-10.1-6.4-18.9-17.5-26.4-32.2-4.3-8.6-8-17.5-10.9-26.7-1-3.2-1.9-6.1-2.6-8.8-.2-.9-.8-3.1-.8-3.3l-4.2.9c0 .2.6 2.5.9 3.4.7 2.7 1.6 5.7 2.7 9 3 9.4 6.7 18.5 11.1 27.3 7.8 15.2 17 27 27.9 33.8 2.4 1.5 4.8 2.9 7.3 4.2 10.8 5.8 15.2 7.3 38.9 14.9 12.1 3.9 19.7 6.9 25.7 10.8.2.1.4.3.6.4 1.4 1 2.7 2 4 3.1 2.8 2.3 5.2 5 7.1 8.1 0 .1.1.3.1.4 2.5 7.3 4.9 13.6 7.4 19.8 3.1 7.8 6.7 15.5 10.7 23.5-3.9-2.4-8.1-4.4-12.4-6-1.1-.4-2-.6-3-.9l.4-.8c-.4-3.1 1.3-4.2-6.8-7-2-.7-4-1-6-1.1-3.7 0-7.4.6-10.9 1.9 0 0-9.6-1.5 4.6 10.7 12.5 10.7 16.4 2.4 17.2.1 1 .3 2 .5 3.1.9 6.1 2.2 11.9 5.2 17.1 9.1l.1-.2c3.2 6.3 10.1 19.7 12.1 23.6 4.6 9 7.8 16 10.6 22.6 3.8 9 6.8 18.4 9.1 27.9-.6-2.8 16 67.5 16 67.5s7.8 33 10.7 46l-.1.1.1.1c.8 3.6 2.3 9.7 2.9 12.6l2.2 9.6v.2l7.8 54.3 5.3-.7-7.8-54.5v-.2c-.7-3.2-1.4-6.5-2.2-9.8-.6-2.8-2.1-8.8-2.9-12.3.6-.9 1.2-1.8 1.8-2.9 2.9-4.7 6.2-10.3 9.7-16.8 11.2-20.9 21-42.6 29.3-64.8l1.1-3c1.1-2.9 1.5-4.4 2.5-7h.1v-.2c6.6-18.2 10.5-30.4 13.7-43.3.2-.8.4-1.6.6-2.5 6.4-26.3 8.9-35.5 18.5-65 7.5-23.5 20.5-44.9 37.8-62.4 9.5-9.7 20.2-18.2 31.8-25.2 3.8-2.3 7.3-4.2 10.5-5.7 1.1-.5 2.1-1 2.9-1.3.3-.2.7-.3 1-.4L683 573c-.2.1-.6.2-1.1.5-.9.4-1.9.9-3 1.4-3.3 1.6-6.9 3.5-10.8 5.9-11.9 7.2-22.9 15.9-32.7 25.9-17.8 18-31 39.9-38.7 64-9.6 29.6-12.1 38.8-18.5 65.2-.2.9-.4 1.7-.6 2.5-2.5 10-5.7 20.2-9.8 32.2v-1.8c0-3.3-.3-14.8-.3-14.8.3-5.7.2-11.4-.2-17.1-.4-6.6-1.2-13.7-2.2-20.9-.5-4-1.1-7.8-1.7-11.2-.2-1.2-.8-4.4-.8-4.4-3-19.7-.9-36.7 4.5-50.5 1.1-2.9 2.5-5.7 4-8.5.5-.8.9-1.5 1.3-2.1l.5-.7-3.5-2.4c-.7 1-1.4 2.1-2 3.2-1.6 2.9-3.1 5.9-4.3 9-5.7 14.5-7.9 32.1-4.7 52.6.1.3.6 3.2.8 4.4.6 3.4 1.2 7.2 1.7 11.2 1 7.1 1.7 14.1 2.2 20.6.4 5.5.4 11.1.2 16.6 0 0 .3 18.3.3 19.7.1 4.3.1 7.1.2 8.8-.9 2.3-1.2 3.7-2.2 6.3-.4 1-.7 2-1.1 2.9-8.3 22.1-18 43.5-29.2 64.3-3.3 6.1-6.3 11.3-9.1 15.8-9.7-42.2-26.5-112.2-25.6-108.3-2.3-9.8-5.4-19.4-9.3-28.7-1.6-3.9-4.1-8.8-6.2-13.3 4.8-31.5 5.8-37.2 10-53.2 5.8-22 14.3-43.3 25.2-63.2 3.1 0 7.3-.6 13.4-2.6 10.4-3.4 23.1-9.9 38.3-20 3.7-2.5 7.2-5 10.5-7.7 12.4-10 21.5-20.7 27.8-31.5 2-3.3 3.7-6.8 5.2-10.5.5-1.2.9-2.5 1.3-3.8 7.4-13.9 16.2-27 26.5-39 14.9-17.2 30.8-29.2 46.7-37 4.9-2.5 10-4.5 15.3-6.1 1.6-.5 3-.9 4.2-1.1l1.4-.3-.7-4c-.3 0-.9.1-1.7.3-1.3.3-2.8.7-4.5 1.2-5.5 1.7-10.8 3.8-15.9 6.3-16.4 8.1-32.7 20.4-48 38-10.5 12.2-19.6 25.6-27.1 39.9-.1.1-.1.3-.2.4-.1.3-.1.6-.2.9-.2.8-.6 1.7-1 2.8-1.4 3.4-3 6.7-4.9 9.9-6 10.3-14.8 20.7-26.8 30.3-3.2 2.6-6.6 5.1-10.1 7.5-14.8 10-27.2 16.2-37.2 19.5-3 1.1-6.2 1.8-9.3 2.3h-.5c0-.1.1-.2.1-.3-.4.7 10.8-18 10.8-18 0-.3 7.7-14.8 9.5-18.3 4.6-8.6 8.3-16.7 11.9-25.1l8.4-5.2.2-.2c12.5-10.4 21.7-23.9 34.7-48.6 4.1-7.8 7.7-13.1 10.7-16.2.7-.8 1.6-1.6 2.5-2.2.3-.2.5-.3.5-.3l-1-3.3c-1 .3-2.5 1.3-4.6 3.5-3.2 3.4-7 8.9-11.2 16.9C577.9 507.7 569 521 557 531l-4 2.5c.8-1.9 1.6-3.6 2.3-5.6 3.5-9.2 6.9-20.3 10.5-32.5 0 0 4.8-11.6 5.6-20.2 4.1-15.9 8.5-33.8 13.3-55.8 11.3-51.3 21.3-89.6 30-116.8 3-9.5 5.7-16.9 7.9-22.5.8-1.9 1.4-3.5 2-4.8l.6-1.4-3.8-1.8c-.1.3-.4.8-.7 1.5-.6 1.3-1.3 2.9-2.1 4.9-2.2 5.7-4.9 13.2-7.9 22.8-8.7 27.3-18.7 65.7-30.1 117.1-2.9 13.2-5.7 25.1-8.3 36 0-14.6-.7-29.1-2.3-43.6-1.4-13.1-3.5-25.9-5.8-38.3h.2l-2.1-18.1c-1-26.8 5.3-44 29.7-81.7 1.9-3 3.7-6 5.5-9.1 8.4-15.2 14.7-31.4 18.8-48.3 1.4-5.8 2.5-11.1 3.3-15.9.3-1.7.5-3.2.7-4.5.1-.4.2-1.5.2-1.6l-4.3-.4c0 .1-.1 1.1-.2 1.5-.2 1.2-.4 2.7-.6 4.4-.8 4.7-1.8 9.9-3.2 15.6-4 16.5-10.2 32.4-18.4 47.3-1.7 3-3.5 6-5.3 8.9-21.7 33.6-29.5 51.5-30.4 74-1.4-5.2-2.9-10.3-4.4-15.1l-.1-.1c-3.1-9.8-6.8-19.4-11.1-28.7-9.4-19.5-16.6-48.2-22-83.7-3.8-24.6-6.4-51-8.1-77.4-.6-9.2-1-17.8-1.4-25.5-.2-2.8-.4-9.7-.4-9.8z"/></svg>