<svg xmlns="http://www.w3.org/2000/svg" viewBox="0 0 1000 1000" style="enable-background:new 0 0 1000 1000" xml:space="preserve"><style>.st2{opacity:.36;fill:#fff;enable-background:new}.st3,.st4{fill:none;stroke:#fff;stroke-width:.5;stroke-miterlimit:10}.st3{opacity:.36;enable-background:new}.st4{opacity:.82}.st4,.st6,.st8{enable-background:new}.st6{opacity:.67;fill:none;stroke:#fff;stroke-width:.5;stroke-miterlimit:10}.st8{opacity:.82;fill:#fff}</style><g id="Layer_5"><path class="st2" d="M443.9 800.2s3.3 3 5 2.5c1.7-.5-4.4-5.2-7.6-6.8-3.2-1.5-42-16.4-44.1-23-2.1-6.6-4.5-3-3.7-1.7s3.4 6.1 17.6 12.7 29 12 32.8 16.3z"/><path class="st3" d="M310.1 762.6c80.3-3.1 84.5 8.2 84.5 8.2-29.7-74.2-55.4-108.6-55.4-108.6"/><path class="st3" d="M426 686.3c-.8 5.4-6.6 31.4-16.3 48.3-9.8 16.9-15 36.2-15 36.2s-13.7 3.8-32.9 31.1"/><path class="st3" d="M394.6 770.8s6.9-7.4 41.7-9"/><path class="st2" d="M412.3 772.7c1.4 4.8 1.7 5.9 1.2 5.1-.4-.9-6.6-7.1-6.4-4.5.2 2.6.1 2.5-.5 1.5-.5-1-1.2-2.7-7-4.5-5.9-1.8-3.2 13.3-3.2 13.3s-1.6-3.6-1.1-.5c.5 3-3.9 6.4-3.9 6.4l-.2-1.1c-.2-2.7-1-1.1-1-1.1-1.1-1.8-2-3.8-2.5-5.9-.7-3-3.8 10.9-3.8 10.9.1-2.4-3.4 1.2-3.4 1.2.5-1.8-3.7 2.4-3 1.5.4-.5.4-1.2 0-1.8.3-1.8-5 4-5 4 .7-3.2-4.1 2-4.1 2 .6-2.2-3.6 2.2-3.6 2.2 1.3-2.9-8.7 6.2-8.7 6.2.4-1.7.9-3.4 1.6-5 1.1-2.7-.9-.9-.9-.9 2-.7 2.2-2.3 3.4-3.8 1.1-1.5-1.9-.4-1-1 .9-.6 3.2-3.2 3.5-4.8.2-1.6-2.4.7-2.4.7.6-1.1 1.4-2.2 2.2-3.1 1.6-1.7-2-.1-2-.1 1.7-1.8 3.5-3.4 5.4-4.9 2.8-2-.8-2.5-.8-2.5 1.2-1 2.5-1.8 3.8-2.4 1.4-.8-1-.7-1-.7 10.2-4.9 10.4-6.4 10.4-6.4-14.6 6.4-26.9 3.6-24.9 3 2.1-.6 2.6-.7 6.9-3.4 4.3-2.7-10.7.9-10.7.9 3-1.1 5-5.6 1.2-4.3-3.8 1.2-16 1.2-13.6.7 1.6-.4 3.1-1.3 4.3-2.5 2.5-2.6-9.3 2.4-8.1 1.6 1.2-.8 1.8-2.5.6-2.8-1.1-.2-3.6 1-3.6 1 1.1-1.4-1.7-.8-1.7-.8-4.2 1.9-10 .8-9.3 1 .7.2 1.4-.5 1.4-.5 1.9-2.7-5.2-1.5-5.2-1.5 2.5-.8-8.3-2.2-8.3-2.2 2.2-1.2 19.6-5.6 20.6-5.9 1-.3-1.2-1.2-1.2-1.2 2.8 0 5.6-.4 8.3-1.2 1-.5-1.3-1.1-1.3-1.1 3.2-.7 5.5.9 6.1 1 .6 0-.5-1.9-.5-1.9 1.2.3 2.4.7 3.6 1.2-.3-.5.2-1.6.2-1.6.8 1.2 4.3 1.4 5.7 1.4s-1-2.9-1-2.9c1 .2 1.9.4 2.8.7 1 .3.2-.9.2-.9 1.1.1 5.5 1 5.5 1v-1.2c1.5-.2 2.6 2.3 4.8 2.8s.3-2.6.3-2.6c3.1-.3 6.1.8 8.2 3 1.2.2.9-2.1.9-2.1 1.8 1.2 9 6.8 9 6.8s2.7.9-.4-2.9-9.4-6.1-10.9-6.6c0 0 1.9-.4 1.3-1.2-.5-.8-3.6-4.6-7.4-4.8 1.3-.8 2.9-1.2 4.5-1.2 2.5.1-7.2-5.4-10.1-6 0 0 4.2.4 5.9-.4s-1.8-2.2-1.8-2.2c.8.1 1.6.1 2.3-.1.7-.4-2.7-1.4-2.7-1.4s3 0 2.8-1.1-4-4.1-5.8-5.2c0 0 2.5.4 3.2-.8.7-1.2-5.8-5-5.8-5 1 .1 1.9-.1 2.9-.4.8-.6 2.7-2.1-.8-4.8-.6-.6-1.3-1.1-2.1-1.4-1.1-.4 2.2-.4 2.9-.4.7 0-1.2-2.9-3-3.7 0 0 1.3-.2-.3-2.4-1-1.2-2.1-2.2-3.5-2.9-.3-.1-.5-.2-.8-.2-2-.2 7.9-.4 6.8-2-1.1-1.5-4.9-8.5-7.6-9.5 0 0 4.1-.7 2-4.5-2.1-3.9-7.4-15.9-13-25.6 0 0 7.2 4.8 10.4 10.1s2.9 2.7 2.9 1.7c0 0 .7 5 2.1 4.3.9-.5 1.5-1.4 1.7-2.4 0 0 2.7 9.7 4 10.3 1.3.6 2.4.7 3.2-1.4 0 0 3.3 6.6 3 10.4 0 0 .9 1.4 3-1.3 2 2 2.8 4.9 2 7.6-1.2 4.9 2.5-1.1 2.5-1.1s.5 5.9 2.7 5.7c2.2-.3 2.9-3 2.9-3s2.9 5.2 1.3 7.3c-1.6 2.1 2.2.5 2.2.5s-1.5 2.4-.5 3.7c1 1.3 1.8-.8 1.8-.8s2.4 4 1.5 7.1 4.3-.1 4.3-.1l1.8-1.7s-1.1 6.1 1.2 8.5c0 0 .4.6 1.5-.6 0 0-3.3 16.5.9 22 0 0 2.3-1.3 1.4-11.5-.3-1.1-.6-2.2-1.1-3.2.9.3 1.7.8 2.4 1.4.8.9.1-5.3-.5-6.7 0 0 2 3.7 3.1 1 .6-1.6.7-3.4.2-5.1 0 0 2.6 1.5 3.6-1.8.4-1.6.5-3.2.4-4.9 0 0 1.2 2 2.3.7 1.1-1.4 2-5.9 2-5.9s.7 2 1.6 1 4.3-4.9 5.3-8.5c0 0 .5 1 1.9-1s7.8-17.7 8.4-19c.6-1.3 2 9.7 1.2 14.1-.8 4.3-1.1 6.4.3 6.2.9 0 1.8-.4 2.5-1 0 0-7.9 8.3-5.4 10.8s4.7-.6 4.7-.6-5.3 4.3-4.3 5.6c0 0 .9 1.1 1.8.4 0 0-5.6 5.6-4.1 7.3 1.6 1.8 3.2-.2 3.2-.2s-3.8 3.9-2.3 5.3c.6.6 1.5.7 2.2.2.1-.1.2-.2.3-.4 0 0-4.5 4.9-3.7 6.5.8 1.6 1.2 2.4 2.7 2.1 0 0-4 3.1-3.9 4.8.1 1.7 2.5.9 2.5.9s-9.5 5.6-7.7 6.4c0 0-12.2 5.6-9.1 7.2 0 0 13.2-7.6 16.7-7.8 0 0-4.6 3.6-2.2 2.9 2.4-.8 10.7-.6 10.7-.6s-2.7.8-1.3 1.5c1.4.7 7.9 2.1 9.8 1.8 0 0-1.7 1.6.4 1.1s8.7 0 8.7 0-12.9 7.1-17.7 7.8c-3.8.5-4.3 3.3-2.7 3.1 1.6-.1-16.1-1.7-13.9 1.6 1.2.5 2.4.9 3.6 1.3 2.4.5-6.3-.9-6.2-.4z"/><path class="st4" d="M405.6 236.3C527.2 268.4 528 286.8 528 286.8c-8.4-121.6-30.2-183.4-30.2-183.4"/><path class="st4" d="M616 178c-3.9 7.5-25.1 42.8-47.9 62.9-22.8 20.1-40.1 45.9-40.1 45.9s-22.3-.7-64.3 30.4M528.3 288.3s18.6-10.1 89.1 7.9"/><path d="M549.4 298.2c-.2 7.7-.4 9.4-.6 8-.2-1.4-6.4-13.4-7.4-9.5-1 3.9-1.2 3.7-1.4 2-.2-1.7-.4-4.4-8.3-9.7-7.9-5.3-11.2 18-11.2 18s-.7-5.9-1.4-1.3c-.7 4.7-8.9 7.5-8.9 7.5l.3-1.7c1-4-.9-2-.9-2-.8-3.2-1.1-6.5-.8-9.8.3-4.8-11 14.1-11 14.1 1.4-3.4-5.6.1-5.6.1 1.5-2.4-6.6 1.7-5.2.9.8-.6 1.2-1.6.9-2.6 1.4-2.5-9.4 3.5-9.4 3.5 2.7-4.3-7.1 1-7.1 1 1.9-2.9-6.3 1.5-6.3 1.5 3.3-3.6-16 5.1-16 5.1 1.4-2.3 3.1-4.5 4.9-6.6 3-3.4-.9-1.8-.9-1.8 3.4-.1 4.4-2.4 6.9-4s-2.7-1.5-1-1.9c1.7-.4 6.4-3.2 7.5-5.3s-3.9 0-3.9 0c1.5-1.4 3.1-2.6 4.9-3.6 3.2-1.8-2.9-1.1-2.9-1.1 3.4-1.8 6.9-3.4 10.5-4.6 5.2-1.7 0-4 0-4 2.1-1.2 4.5-1.2 6.9-1.8s-1.2-1.4-1.2-1.4c17.6-2.5 18.7-4.6 18.7-4.6-25 2.7-42-7-38.7-6.9 3.4.1 4.2.1 11.9-1.8 7.7-1.9-16.4-3.6-16.4-3.6 4.9-.2 10.1-5.9 3.9-5.8s-24.6-5.6-20.6-5.1c2.6.2 5.3-.4 7.6-1.7 5-2.6-15.1-.7-12.9-1.4 2.1-.7 3.8-2.9 2.3-3.7-1.5-.8-5.8-.2-5.8-.2 2.3-1.5-2.1-1.9-2.1-1.9-7.3.9-15.4-3.4-14.5-2.7s2.4-.1 2.4-.1c4.2-3.1-7-4.6-7-4.6 4.2-.1-11.5-6.9-11.5-6.9 3.9-.8 32 .8 33.6.8 1.6.1-1.2-2.2-1.2-2.2 4.6 1.5 11.4 2.5 13.1 2.2s-1.3-2.2-1.3-2.2c5.1.4 7.7 3.9 8.6 4.2.9.3.2-2.9.2-2.9 1.7 1 3.3 2.1 4.8 3.4-.2-.9 1.1-2.3 1.1-2.3.7 2.1 5.8 4 7.9 4.6 2 .6-.1-4.6-.1-4.6 1.3.7 2.7 1.4 3.9 2.2 1.3.9.7-1.2.7-1.2 1.6.7 7.7 3.9 7.7 3.9l.5-1.7c2.3.4 2.8 4.5 5.9 6.3 3 1.7 1.8-3.7 1.8-3.7 4.7.8 8.7 3.9 10.8 8.2 1.7.8 2.3-2.6 2.3-2.6 2.2 2.5 10.2 14 10.2 14s3.6 2.5.9-4.4c-2.8-6.9-11-13.1-13.1-14.6 0 0 2.9.3 2.6-1.1-.4-1.4-3.2-8.3-8.8-10.3 2.4-.6 4.9-.5 7.3.2 3.6 1.3-8.1-11.2-12.2-13.4 0 0 6.1 2.5 9 2 3-.5-1.7-4.1-1.7-4.1 1.1.5 2.3.8 3.6.9 1.2-.2-3.3-3.3-3.3-3.3s4.4 1.4 4.8-.3c.3-1.7-4-7.9-6.2-10.3 0 0 3.5 1.7 5.2.3 1.7-1.4-6.3-9.9-6.3-9.9s2.9 1.2 4.5.7c1.5-.5 5-1.8 1-7.3-.6-1.1-1.4-2.2-2.4-3-1.5-1 3.4.4 4.5.7s-.5-4.8-2.7-6.8c0 0 2 .3.7-3.5-.8-2.2-2.1-4.2-3.8-5.9-.3-.3-.7-.5-1.1-.7-3-1.3 12.1 3 11.1.2-.9-2.7-3.2-14.6-6.7-17.2 0 0 6.4.9 5.2-5.7s-3.3-26.5-7-43.2c0 0 8.5 10.3 10.6 19.5s3 5.3 3.6 3.8c0 0-1.5 7.6 1 7.2 1.6-.3 2.9-1.3 3.7-2.7 0 0-.6 15.4 1 16.9 1.7 1.5 3.3 2.2 5.5-.6 0 0 1.7 11.1-.5 16.5 0 0 .6 2.5 5.1-.5 0 0 3.5 5.4-.7 12s4.3-.4 4.3-.4-2.2 8.9 1.2 9.4c3.4.5 5.8-3 5.8-3s1.8 8.9-1.7 11.2 3 1.7 3 1.7-3.4 2.8-2.5 5.1c.9 2.3 3.2-.4 3.2-.4s1.7 7-1.2 11c-2.8 4 6.4 1.8 6.4 1.8l3.6-1.7s-4.6 8.3-2.4 12.9c0 0 .3 1.1 2.5-.3 0 0-13 22.6-9.2 32.4 0 0 4-.8 7.6-16.1.1-1.7.1-3.4 0-5.1 1.2.9 2.2 1.9 2.9 3.2.8 1.6 2.7-7.7 2.5-9.9 0 0 1.2 6.4 4.2 2.8 1.7-2 2.7-4.6 2.7-7.3 0 0 3.1 3.3 6.3-1 1.4-2.1 2.4-4.5 2.9-6.9 0 0 .8 3.6 3.1 2.1s5.8-7.6 5.8-7.6.1 3.2 1.9 2.3c1.8-.9 8.8-5.1 12.1-9.9 0 0 .3 1.7 3.3-.6 3.1-2.2 20.3-22.3 21.8-23.8s-1.8 15.1-5.1 21-4.8 8.7-2.5 9.2c1.4.4 2.9.3 4.2-.3 0 0-15.8 8.6-13.3 13.3s7 .8 7 .8-10 3.9-9.1 6.2c0 0 .8 2 2.5 1.4 0 0-11.1 5.6-9.6 8.8s4.9 1.1 4.9 1.1-7.5 4-5.9 6.6c.6 1.2 2.1 1.8 3.3 1.2.2-.1.4-.2.5-.4 0 0-9.1 5.1-8.7 7.7.5 2.7.7 4.1 3 4.3 0 0-7.4 2.7-8.1 5.2s3.3 2.5 3.3 2.5-16.9 3.8-14.6 5.8c0 0-21 2.5-17.1 6.4 0 0 23.5-5 28.8-3.7 0 0-8.6 3.2-4.6 3.2s16.3 4 16.3 4-4.4-.1-2.6 1.6c1.7 1.6 10.8 6.7 13.7 7 0 0-3.3 1.5.1 1.7 3.4.2 13.1 3.9 13.1 3.9s-22.7 4.5-30.3 3.3c-5.9-.9-8.1 2.8-5.6 3.3s-23.2-9.8-21.6-4c1.5 1.3 3.1 2.5 4.8 3.6 1.9 2.1-10.5-3.9-10.5-3.1z" style="opacity:.56;fill:#fff;enable-background:new"/><path class="st6" d="M780.4 480.3c-161.1-47.2-174.7-26.7-174.7-26.7 93.5-133.2 161-188.8 161-188.8"/><path class="st6" d="M580.1 268.7c-.7 11.3-.9 66.2 11.3 104.9s14.3 80.1 14.3 80.1 25.9 14.6 52.5 79"/><path class="st6" d="M605.7 453.6s-10.7-18.2-80.4-39.3"/><path d="M573.4 452c-5 8.9-6.1 11-4.8 9.5s16.6-10.9 15-5.8c-1.6 5.1-1.3 5.1.3 3.3 1.5-1.8 3.6-4.8 16.3-5.3 12.7-.5.4 28.2.4 28.2s4.8-6.3 2.5-.5c-2.4 5.8 5 14.7 5 14.7l.7-2c1.6-5.3 2.4-1.6 2.4-1.6 3.1-3.1 5.7-6.7 7.7-10.6 2.9-5.6 2.9 23.7 2.9 23.7.8-4.9 6.3 4 6.3 4-.1-3.7 6.4 6.6 5.3 4.6-.6-1.2-.3-2.7.8-3.6.2-3.8 8.3 10.5 8.3 10.5-.1-6.7 7.4 6 7.4 6-.2-4.6 6.2 6.1 6.2 6.1-1.2-6.4 14.8 16.9 14.8 16.9 0-3.7-.4-7.3-1-10.9-1.1-5.9 2.3-1.4 2.3-1.4-3.8-2.4-3.4-5.7-5.1-9.4-1.6-3.6 4.1.1 2.4-1.5-1.7-1.7-5.1-8-4.9-11.2s4.4 2.7 4.4 2.7c-.7-2.6-1.8-5.1-3.1-7.4-2.4-4.3 4.1.7 4.1.7-2.6-4.4-5.5-8.6-8.8-12.5-4.8-5.5 2.8-4.6 2.8-4.6-1.6-2.7-4.2-4.5-6.7-6.9-2.4-2.4 2.4-.8 2.4-.8-18.4-15-18.2-18.1-18.2-18.1 26.7 20.3 52.8 21 48.9 18.7-3.9-2.2-4.9-2.8-12.4-10.3-7.5-7.5 21.2 7.2 21.2 7.2-5.5-3.6-7.5-13.7-.4-9.3 7.1 4.4 31.9 10.6 27.1 8.4-3.2-1.6-5.8-4.1-7.5-7.2-4-6.5 17.7 9.6 15.7 7.3s-2.4-5.9 0-5.9 6.8 3.8 6.8 3.8c-1.6-3.3 3.7-.7 3.7-.7 7.7 6 19.9 6.7 18.4 6.8s-2.7-1.7-2.7-1.7c-2.6-6.4 11.2-.4 11.2-.4-4.8-2.9 17.8 0 17.8 0-3.9-3.6-37.1-21.2-39-22.2-1.9-1 2.9-1.7 2.9-1.7-6.3-1.5-14.7-5-16.4-6.5-1.8-1.5 3-1.6 3-1.6-6.1-3-11.5-.9-12.7-1.1-1.2-.2 1.8-3.4 1.8-3.4-2.6 0-5.2.2-7.8.6.8-1 .3-3.3.3-3.3-2.2 2-9.4.6-12.2-.1-2.8-.7 3.4-5.2 3.4-5.2-2-.2-4-.2-6-.1-2.1.2 0-2 0-2-2.3-.3-11.5-.9-11.5-.9l.6-2.3c-3-1.1-6.4 3.2-11 3.1s.5-5.4.5-5.4c-10.8-3.7-18 1.8-18 1.8-2.6-.2-.8-4.6-.8-4.6-4.2 1.4-21.3 9-21.3 9s-5.9.3 2.1-5.7c7.9-6 21.7-7.4 25-7.6 0 0-3.6-1.7-2.2-3s9.3-7.3 17.1-5.7c-2.3-2.4-5.3-4-8.5-4.8-5-1 17-7.1 23.2-6.9 0 0-8.7-1.3-11.7-3.9-3.1-2.6 4.7-3.6 4.7-3.6s-3.3-.3-4.6-1.4c-1.3-1.1 6-1.5 6-1.5s-5.9-1.5-5.2-3.7c.7-2.2 10-6.2 14.2-7.4 0 0-5.2-.5-6.1-3.3-1-2.8 14-6.9 14-6.9s-4.1-.7-5.6-2.3-4.5-5.5 3.8-9c1.5-.9 3.1-1.5 4.8-1.7 2.4-.2-4.2-1.9-5.6-2.3-1.4-.3 3.8-5.1 7.8-5.9 0 0-2.5-1 1.6-4.5 0 0 4.5-3.6 8.4-4.1.6-.1 1.2-.1 1.8 0 4.3.6-15.8-4.9-12.9-7.4s13.8-14.4 19.6-15c0 0-7.9-3.4-2-10.1 5.9-6.6 22-28 37.9-44.5 0 0-16.8 5.9-25.6 14.9-8.8 8.9-7.1 4-6.6 1.9 0 0-3.6 9.7-6.2 7.5-1.6-1.5-2.4-3.5-2.4-5.7 0 0-9.9 18-12.8 18.6s-5.2.2-5.9-4.5c0 0-9.6 11.6-10.8 19.2 0 0-2.4 2.4-5.4-4.1 0 0-7.7 3.7-7.5 14.3s-4.6-3.4-4.6-3.4-3.6 11.7-7.9 9.9-4.5-7.5-4.5-7.5-8.2 8.9-5.8 14-4.7-.1-4.7-.1 1.9 5.6-.6 7.6-3.4-2.6-3.4-2.6-6.7 6.8-6.2 13.4c.5 6.6-8.6-2.4-8.6-2.4l-2.9-4.4s-.5 12.7-6.2 16.4c0 0-1.2 1-2.7-2 0 0-.8 34.8-11.8 43.4 0 0-4-3.7 2.4-23.6 1-2 2.2-4 3.6-5.8-2 .1-3.9.7-5.6 1.6-2 1.4 2.2-10.7 3.9-13.1 0 0-5.8 6.5-6.7.4-.6-3.5.1-7.2 1.9-10.3 0 0-5.9 1.7-6.4-5.5-.1-3.4.4-6.7 1.4-9.9 0 0-3.3 3.5-5 .2s-1.4-12.7-1.4-12.7-2.4 3.6-3.7 1.3c-1.3-2.3-6.5-11.9-6.9-19.7 0 0-1.5 1.7-3.4-2.9s-7.9-39.4-8.5-42.2c-.6-2.8-8.3 18.5-8.7 27.5-.4 9-.6 13.3-3.4 12.3-1.8-.5-3.5-1.6-4.6-3.2 0 0 12.2 20.7 5.9 24.4-6.2 3.6-8.6-4-8.6-4s8.7 11.3 6.1 13.3c0 0-2.3 1.7-3.8-.2 0 0 8.9 14 4.9 16.7s-6.3-2.1-6.3-2.1 5.9 9.8 2.3 11.7c-1.5 1-3.5.6-4.6-.9-.2-.3-.3-.5-.4-.8 0 0 6.9 12.1 4.6 14.8s-3.6 4.2-6.4 2.9c0 0 6.6 8.2 5.7 11.6-.9 3.4-5.5.6-5.5.6s16.7 16 12.7 16.7c0 0 22.2 17.4 15.1 19.1 0 0-23.3-21.9-30.4-24.1 0 0 7.7 9.6 3.1 6.8s-21.4-6.6-21.4-6.6 5 2.9 1.9 3.6-17 .3-20.5-1.4c0 0 2.7 4-1.4 1.9s-17.6-4.5-17.6-4.5 22.8 20.8 32.4 24.7c7.4 3 7.3 8.7 4 7.6-3.2-1.1 33.3 4.8 27.4 10.3-2.6.4-5.3.6-7.9.8-4.2.2 14.1 1.9 13.6 2.9z" style="opacity:.38;fill:#fff;enable-background:new"/><path class="st4" d="M674.2 143.3c-86.3-.7-90.1 11.4-90.1 11.4 27.5-79 53.1-116 53.1-116"/><path class="st4" d="M545.4 66.8c1.2 5.7 8.9 32.8 20.4 50.3s18.3 37.6 18.3 37.6 14.9 3.6 37.1 31.7"/><path class="st4" d="M584.1 154.7s-7.9-7.5-45.3-8.1"/><path class="st8" d="M567.9 158.4c-1.2 5.1-1.5 6.3-1 5.4.4-.9 6.7-7.7 6.6-5s.1 2.7.6 1.6 1.1-2.9 7.3-4.9c6.2-2.1 4.2 13.9 4.2 13.9s1.5-3.8 1.2-.6c-.3 3.2 4.6 6.6 4.6 6.6l.1-1.2c0-2.9 1-1.2 1-1.2 1.1-2 1.9-4.1 2.3-6.3.6-3.2 4.8 11.3 4.8 11.3-.3-2.5 3.7 1.1 3.7 1.1-.6-1.8 4.1 2.4 3.3 1.5-.5-.5-.5-1.3-.1-1.8-.5-1.9 5.6 4 5.6 4-1-3.3 4.5 1.9 4.5 1.9-.8-2.3 3.9 2.2 3.9 2.2-1.5-3 9.7 6.3 9.7 6.3-.5-1.8-1.2-3.6-2-5.2-1.4-2.8 1-1 1-1-2.2-.7-2.5-2.4-3.8-3.9-1.3-1.5 2-.5 1-1.1-1-.6-3.7-3.2-4-4.8s2.6.7 2.6.7c-.7-1.2-1.6-2.3-2.6-3.2-1.8-1.8 2.1-.2 2.1-.2-1.9-1.8-3.9-3.5-6.1-5-3.1-2 .7-2.7.7-2.7-1.3-1-2.7-1.8-4.3-2.4-1.5-.8 1-.7 1-.7-11.2-4.8-11.6-6.4-11.6-6.4 16 6.3 29.1 3 26.8 2.4-2.3-.6-2.8-.7-7.6-3.4s11.5.6 11.5.6c-3.3-1-5.7-5.7-1.5-4.5s17.3.7 14.6.4c-1.8-.4-3.5-1.2-4.8-2.5-2.9-2.6 10.1 2.3 8.8 1.4-1.3-.8-2-2.6-.8-2.9 1.2-.3 3.9 1 3.9 1-1.3-1.4 1.7-.9 1.7-.9 4.7 1.9 10.8.5 10.1.8-.7.3-1.6-.5-1.6-.5-2.2-2.8 5.5-1.8 5.5-1.8-2.7-.8 8.8-2.5 8.8-2.5-2.4-1.2-21.3-5.2-22.4-5.5-1.1-.3 1.2-1.2 1.2-1.2-3 .1-6.1-.2-9.1-.9-1.1-.5 1.3-1.2 1.3-1.2-3.4-.6-5.8 1.2-6.4 1.2-.6 0 .4-2 .4-2-1.3.4-2.5.8-3.8 1.4.3-.6-.3-1.7-.3-1.7-.8 1.3-4.6 1.6-6 1.7s.9-3 .9-3c-1 .2-2 .5-3 .8-1 .4-.3-1-.3-1-1.2.2-5.8 1.2-5.8 1.2V133c-1.6-.1-2.7 2.5-5 3.1-2.3.6-.5-2.8-.5-2.8-3.3-.3-6.5 1-8.7 3.4-1.3.2-1-2.2-1-2.2-1.9 1.3-9.3 7.4-9.3 7.4s-2.9 1 .2-3.1 9.7-6.7 11.3-7.3c0 0-2-.3-1.5-1.2s3.6-4.9 7.7-5.2c-1.5-.9-3.2-1.3-4.9-1.2-2.6.2 7.4-5.9 10.5-6.7 0 0-4.5.6-6.3-.3-1.9-.9 1.8-2.4 1.8-2.4-.8.2-1.7.1-2.5-.1-.8-.4 2.8-1.6 2.8-1.6s-3.2.1-3.1-1.1c.1-1.2 4.1-4.5 5.9-5.7 0 0-2.6.5-3.5-.8-.9-1.2 5.9-5.4 5.9-5.4-1 .1-2.1 0-3.1-.3-1-.6-3-2.1.6-5 .6-.7 1.3-1.2 2.2-1.5 1.2-.4-2.4-.4-3.1-.3-.7 0 1.2-3.1 3-4 0 0-1.4-.1.2-2.4.9-1.3 2.2-2.4 3.6-3.2l.9-.3c2.2-.3-8.5-.2-7.4-1.9s4.8-9.1 7.6-10.2c0 0-4.4-.6-2.4-4.8s7-16.9 12.5-27.4c0 0-7.5 5.3-10.6 11-3.1 5.7-2.9 3-3 1.8 0 0-.4 5.3-2 4.6-1-.5-1.7-1.4-2-2.5 0 0-2.4 10.3-3.7 11-1.4.7-2.6.9-3.6-1.4 0 0-3.1 7.1-2.7 11 0 0-.8 1.5-3.2-1.2-2.1 2.2-2.7 5.3-1.7 8.1 1.6 5.2-2.8-1-2.8-1s-.1 6.3-2.5 6-3.3-3.1-3.3-3.1-2.8 5.5-.9 7.7-2.3.6-2.3.6 1.7 2.5.8 3.8c-1 1.4-2-.8-2-.8s-2.4 4.3-1.2 7.5-4.6.1-4.6.1l-2.1-1.8s1.5 6.3-.8 9c0 0-.4.7-1.6-.6 0 0 4.5 17.3.3 23.1 0 0-2.5-1.3-2.1-12 .2-1.2.5-2.3 1-3.4-.9.3-1.8.9-2.5 1.6-.8 1-.4-5.6.1-7 0 0-2 4-3.3 1.1-.8-1.7-1-3.6-.5-5.3 0 0-2.6 1.8-3.9-1.8-.5-1.7-.8-3.4-.7-5.1 0 0-1.2 2.2-2.5.8-1.3-1.4-2.5-6.1-2.5-6.1s-.7 2.1-1.7 1.2c-1-.9-4.9-5-6.2-8.8 0 0-.5 1.1-2.1-1-1.6-2-9.4-18.4-10.1-19.7s-1.5 10.3-.4 14.8 1.6 6.6 0 6.6c-1 0-2-.3-2.8-1 0 0 8.9 8.6 6.4 11.2-2.5 2.7-4.8-.8-4.8-.8s5.9 4.4 4.9 5.7c0 0-.9 1.2-1.9.5 0 0 6.4 5.7 4.8 7.6s-3.4-.1-3.4-.1 4.3 4 2.8 5.5c-.6.7-1.7.8-2.4.2l-.3-.3s5.1 5 4.4 6.7c-.8 1.7-1.2 2.6-2.7 2.4 0 0 4.4 3.1 4.4 4.9 0 1.8-2.6 1.1-2.6 1.1s10.5 5.6 8.6 6.5c0 0 13.4 5.5 10.2 7.3 0 0-14.6-7.6-18.4-7.6 0 0 5.1 3.7 2.5 3-2.7-.7-11.5-.3-11.5-.3s2.9.7 1.5 1.5-8.3 2.5-10.3 2.2c0 0 1.9 1.6-.4 1.1s-9.4.3-9.4.3 14.3 7.1 19.5 7.6c4.1.5 4.8 3.3 3.1 3.2-1.7-.1 17.1-2.3 15 1.3-1.2.6-2.5 1.1-3.8 1.5-2.5 1.1 6.8-.7 6.7-.1zM451.1 730.8s5.1 7.7 8.8 7.5c3.7-.1-6-12.6-11.6-17.3s-76.1-54.1-76.9-68.3c-.7-14.2-7.4-8.2-6.6-5.3.8 2.9 3.6 13.8 28.8 34.3 25.1 20.5 52.2 38.6 57.5 49.1z"/><path class="st4" d="M199.9 588.2c165 35.1 167.2 59.8 167.2 59.8-19.1-162.4-52.3-243.8-52.3-243.8"/><path class="st4" d="M478 496.6c-4.8 10.3-30.8 58.9-60.1 87.4-29.3 28.4-50.8 64-50.8 64s-29.9.5-84.2 44.8M367.1 648s18.2-11 89.9 3.6"/><path class="st8" d="M402.2 660.1c.2 10.3.1 12.6-.3 10.7-.4-1.9-9.5-17.5-10.5-12.3s-1.3 5.1-1.8 2.8-.8-5.9-11.9-12.5c-11.1-6.5-13.8 24.8-13.8 24.8s-1.3-7.9-2-1.6c-.7 6.2-11.5 10.6-11.5 10.6l.2-2.2c1.2-5.5-1.4-2.6-1.4-2.6-1.3-4.2-1.9-8.7-1.7-13.1.2-6.3-13.8 19.6-13.8 19.6 1.6-4.8-7.5.5-7.5.5 1.9-3.2-8.8 2.8-6.9 1.5 1.1-.8 1.5-2.2 1-3.5 1.7-3.4-12.4 5.3-12.4 5.3 3.3-5.9-9.4 1.8-9.4 1.8 2.4-4-8.4 2.5-8.4 2.5 4.1-5-21.2 7.9-21.2 7.9 1.8-3.2 3.8-6.3 6.1-9.1 3.8-4.8-1.4-2.4-1.4-2.4 4.5-.3 5.8-3.4 9-5.9s-3.7-1.8-1.4-2.5c2.2-.7 8.3-4.6 9.7-7.5s-5.2.2-5.2.2c1.9-2 4-3.7 6.3-5.1 4.2-2.7-4-1.3-4-1.3 4.4-2.7 9-5 13.8-6.9 6.9-2.6-.3-5.4-.3-5.4 2.7-1.7 5.9-1.9 9.2-2.9 3.2-.9-1.7-1.8-1.7-1.8 23.4-4.4 24.8-7.3 24.8-7.3-33.3 5.2-56.8-6.7-52.2-6.8 4.5-.1 5.6-.1 15.9-3.2 10.2-3.1-22.1-3.7-22.1-3.7 6.6-.6 13.2-8.5 4.8-8-8.4.5-33.3-5.9-28-5.5 3.6.1 7.1-.9 10.1-2.8 6.6-3.8-20.2 0-17.4-1 2.8-1 5-4.1 2.8-5.2s-7.8.2-7.8.2c3-2.2-2.9-2.4-2.9-2.4-9.7 1.7-20.8-3.6-19.5-2.7 1.3.8 3.2-.2 3.2-.2 5.4-4.4-9.7-5.7-9.7-5.7 5.6-.3-15.8-8.6-15.8-8.6 5.2-1.3 42.9-1 45.1-1 2.2 0-1.7-2.9-1.7-2.9 6.2 1.7 15.4 2.5 17.7 2.1 2.3-.5-1.9-2.9-1.9-2.9 6.8.3 10.6 4.7 11.8 5.1 1.2.4 0-3.9 0-3.9 2.3 1.3 4.5 2.7 6.6 4.2-.3-1.2 1.3-3.1 1.3-3.1 1 2.8 8.1 5 10.8 5.7 2.8.7-.5-6.2-.5-6.2 1.8.8 3.6 1.7 5.4 2.7 1.8 1.2.9-1.7.9-1.7 2.1.8 10.6 4.7 10.6 4.7l.6-2.3c3.1.4 4.1 5.9 8.3 8s2.2-5 2.2-5c11.3 1.9 15.1 10.2 15.1 10.2 2.4 1 2.9-3.7 2.9-3.7 3.1 3.2 14.6 18.1 14.6 18.1s5 3.1.9-5.9-15.6-16.9-18.4-18.7c0 0 4 .2 3.4-1.6-.6-1.8-4.8-10.9-12.4-13.2 3.2-1 6.6-1 9.8-.2 4.9 1.6-11.6-14.5-17.2-17.2 0 0 8.3 3 12.2 2.2 3.9-.8-2.5-5.4-2.5-5.4s3.1 1.3 4.8.9c1.6-.4 5.2-3.4 5.2-3.4s-3.8.7-3.4-1.5c.4-2.3-5.9-10.3-9-13.3 0 0 4.8 2 7 0s-9.1-12.8-9.1-12.8 4 1.3 6 .7c2-.7 6.6-2.7.9-9.8-.9-1.5-2-2.8-3.4-3.8-2-1.3 4.6.3 6 .7 1.4.4-.9-6.3-4.1-8.9 0 0 2.7.3.7-4.8 0 0-2.3-5.2-5.5-7.6-.5-.4-1-.7-1.5-.9-4-1.5 16.4 3.2 14.9-.4-1.4-3.6-5.3-19.3-10.1-22.6 0 0 8.7.7 6.6-7.9-2.1-8.7-6.1-35.3-12.2-57.5 0 0 12 13.3 15.5 25.4s4.3 6.9 5 4.8c0 0-1.5 10.3 1.9 9.6 2.1-.6 3.8-2 4.8-3.9 0 0 .1 20.7 2.5 22.5s4.5 2.7 7.4-1.2c0 0 3 14.8.4 22.1 0 0 .9 3.3 6.7-1 0 0 5 7-.2 16.2s5.7-.8 5.7-.8-2.4 12.1 2.3 12.6c4.7.5 7.5-4.5 7.5-4.5s3 11.8-1.5 15.1c-4.5 3.4 4.2 2.1 4.2 2.1s-4.4 4-3.1 7c1.3 3 4.2-.7 4.2-.7s2.7 9.2-.9 14.8c-3.6 5.6 8.7 2 8.7 2l4.7-2.5s-5.6 11.4-2.4 17.5c0 0 .5 1.4 3.4-.5 0 0-15.9 31.1-10.3 44 0 0 5.4-1.4 9.2-22 .1-2.3-.1-4.6-.4-6.9 1.7 1.1 3.1 2.5 4.2 4.1 1.1 2.2 3.2-10.5 2.7-13.4 0 0 2.1 8.5 5.8 3.6 2.2-2.9 3.3-6.4 3.2-10 0 0 4.4 4.3 8.3-1.8 1.7-2.9 2.9-6.1 3.5-9.5 0 0 1.3 4.7 4.3 2.5 3-2.1 7.3-10.6 7.3-10.6s.3 4.3 2.7 2.9c2.3-1.4 11.5-7.4 15.5-14.1 0 0 .5 2.2 4.4-1 4-3.2 25.8-31.1 27.6-33.3 1.9-2.2-1.4 20.3-5.5 28.5-4.1 8.1-5.8 12-2.8 12.5 1.9.5 3.9.2 5.7-.6 0 0-20.7 12.5-16.9 18.7 3.7 6.2 9.5.6 9.5.6s-13.1 5.9-11.8 8.9c0 0 1.2 2.6 3.4 1.7 0 0-14.6 8.2-12.3 12.5 2.2 4.3 6.6 1.2 6.6 1.2s-9.8 5.8-7.6 9.3c.9 1.6 2.9 2.2 4.5 1.4.3-.1.5-.3.7-.5 0 0-11.9 7.4-11.1 10.9.7 3.5 1.2 5.4 4.3 5.6 0 0-9.8 4.1-10.6 7.5-.8 3.4 4.6 3.1 4.6 3.1s-22.4 6.2-19.2 8.7c0 0-27.9 4.8-22.5 9.7 0 0 31.1-8.3 38.4-6.8 0 0-11.4 4.9-5.9 4.6 5.4-.3 22.1 4.4 22.1 4.4s-5.8.2-3.4 2.3c2.4 2.1 14.9 8.3 18.8 8.6 0 0-4.3 2.2.3 2.4 4.6.1 17.7 4.4 17.7 4.4s-30.1 7.5-40.4 6.4c-8-.9-10.6 4.3-7.2 4.8 3.4.6-31.7-11.6-29.2-3.9 2.1 1.6 4.3 3.1 6.6 4.4 3 1.8-14.1-5.4-14-4.3z"/><path class="st4" d="M709.6 725.3c-129.7-78.2-146.3-63.4-146.3-63.4 112.2-94.7 183.9-127.7 183.9-127.7"/><path class="st4" d="M583.5 494.6c-3.2 9.7-16 57.5-14.3 94.1 1.7 36.6-5.9 73.1-5.9 73.1s19.3 18.7 27.6 81M563.3 661.8s-5.1-18.4-61.1-52.8"/><path d="M531 644.5c-7.2 7.5-8.8 9.2-7.2 8.1s19.1-6.4 16.3-1.8c-2.9 4.6-2.5 4.7-.6 3.3s4.8-3.8 17.4-1c12.6 2.8-6.9 27.8-6.9 27.8s6.4-4.9 2.5.2c-3.8 5.1 1.2 15.8 1.2 15.8l1.4-1.8c3-4.8 2.8-1 2.8-1 3.9-2.2 7.3-5.1 10.3-8.4 4.3-4.8-3.3 24-3.3 24 2.1-4.6 5.2 5.6 5.2 5.6.8-3.7 4.6 8.1 4 5.8-.3-1.3.4-2.7 1.7-3.3 1.1-3.7 5.5 12.5 5.5 12.5 1.7-6.7 5.7 7.9 5.7 7.9 1-4.6 4.5 7.6 4.5 7.6.4-6.6 10.2 20.4 10.2 20.4.9-3.6 1.5-7.3 1.8-11 .5-6.1 2.6-.8 2.6-.8-3.1-3.4-1.9-6.5-2.6-10.5-.7-4 4 1.2 2.8-.9-1.2-2.1-3-9.2-1.9-12.3s3.7 3.8 3.7 3.8c0-2.7-.4-5.5-1.2-8.1-1.3-4.9 3.9 1.8 3.9 1.8-1.4-5-3.2-9.9-5.4-14.6-3.3-6.6 3.9-3.8 3.9-3.8-.8-3.1-3-5.5-4.8-8.5-1.7-3 2.5-.2 2.5-.2-14.3-19.5-13.2-22.5-13.2-22.5 21 26.9 46.5 34.4 43.3 31.1-3.3-3.2-4.1-4-9.5-13.3s18.9 12.6 18.9 12.6c-4.5-5-3.9-15.5 2-9.2 5.9 6.2 28.6 18.7 24.5 15.3-2.7-2.4-4.6-5.6-5.5-9.1-2.2-7.4 14.9 14 13.6 11.3-1.4-2.7-.8-6.5 1.5-5.8s5.7 5.5 5.7 5.5c-.7-3.7 3.8.2 3.8.2 5.9 7.9 17.8 11.8 16.3 11.5-1.5-.3-2.2-2.4-2.2-2.4-.9-7 11.2 2.5 11.2 2.5-3.9-4.1 17.6 4.6 17.6 4.6-2.9-4.6-31-30.4-32.6-32s3.3-1 3.3-1c-5.8-3.1-13.1-8.7-14.5-10.7-1.4-2 3.3-.8 3.3-.8-5.2-4.5-11.1-3.9-12.2-4.4-1.1-.5 2.7-2.9 2.7-2.9-2.6-.7-5.2-1.1-7.8-1.4 1.1-.7 1.2-3.2 1.2-3.2-2.7 1.4-9.4-1.9-11.9-3.3s4.7-4.3 4.7-4.3c-1.9-.7-3.9-1.2-5.9-1.7-2.1-.4.5-1.9.5-1.9-2.2-.9-11.1-3.9-11.1-3.9l1.2-2.1c-2.6-1.9-7.1 1.5-11.6.2s1.9-5.2 1.9-5.2c-9.7-6.4-18.2-2.8-18.2-2.8-2.5-.9.4-4.8.4-4.8-4.5.3-23.3 3.3-23.3 3.3s-5.9-1.2 3.5-5 23.2-1.7 26.5-1.1c0 0-3.1-2.6-1.4-3.5 1.7-.9 11.1-4.8 18.3-1.2-1.7-2.9-4.1-5.3-7.1-6.9-4.8-2.2 18.6-2.7 24.6-.8 0 0-8.2-3.5-10.5-6.9-2.3-3.4 5.5-2.2 5.5-2.2s-3.2-1.2-4.2-2.6c-1-1.4 6.3.1 6.3.1s-5.5-3-4.2-4.9c1.3-1.9 11.5-3.5 15.8-3.6 0 0-4.9-1.8-5.2-4.8-.2-2.9 15.6-3.2 15.6-3.2s-3.9-1.8-4.9-3.7c-1.1-1.9-3-6.6 6.1-7.9 1.7-.5 3.4-.7 5.2-.4 2.4.4-3.6-3-4.9-3.7-1.3-.7 5.1-4 9.2-3.7 0 0-2.2-1.6 2.7-4 0 0 5.3-2.3 9.3-1.8.6.1 1.2.2 1.7.4 4 1.7-14.3-9-10.7-10.6 3.6-1.7 17.3-10.6 23.1-9.7 0 0-6.9-5.4.7-10.4s28.9-21.8 48.8-34c0 0-18.1 1.5-29 8-10.9 6.5-8 2.1-7 .1 0 0-6.1 8.6-8 5.8-1.2-1.9-1.5-4.1-.9-6.2 0 0-14.4 15.2-17.4 14.9-3.1-.2-5.2-1.1-4.6-5.9 0 0-12.5 8.9-15.6 16 0 0-3 1.8-4.3-5.4 0 0-8.5 1.7-11 12.1s-3.7-4.5-3.7-4.5-6.6 10.6-10.4 7.7-2.5-8.5-2.5-8.5-10.3 6.6-9.4 12.2c1 5.6-4.6-1.3-4.6-1.3s.5 5.9-2.6 7.3c-3 1.3-2.6-3.4-2.6-3.4s-8.3 5-9.5 11.6c-1.2 6.6-7.8-4.5-7.8-4.5l-1.7-5.1s-3.8 12.3-10.4 14.5c0 0-1.4.7-2.1-2.7 0 0-9.8 34-22.9 39.7 0 0-3-4.8 8.5-22.6 1.6-1.7 3.2-3.3 5.1-4.8-2-.4-4-.3-5.9.2-2.4.8 4.9-9.9 7.3-11.9 0 0-7.4 4.8-6.7-1.4.3-3.6 2-7 4.5-9.6 0 0-6.2.1-4.9-7.1.8-3.3 2.1-6.5 4-9.4 0 0-4.2 2.5-4.9-1.1s1.9-12.9 1.9-12.9-3.2 2.9-4 .3c-.8-2.6-3.3-13.4-1.7-21.2 0 0-1.9 1.3-2.6-3.8-.7-5.1 2.5-40.8 2.6-43.7.1-2.9-13.1 16-15.7 24.8-2.6 8.8-4 12.9-6.6 11.2-1.7-1-3.1-2.5-3.7-4.4 0 0 6.6 23.6-.4 25.5-7 2-7.4-6.2-7.4-6.2s5.6 13.4 2.6 14.7c0 0-2.7 1.1-3.7-1.1 0 0 5.1 16.1.5 17.7-4.6 1.6-5.7-3.7-5.7-3.7s3.2 11.1-.8 12.1c-1.7.6-3.6-.3-4.2-2.1-.1-.3-.2-.6-.2-.9 0 0 3.7 13.7.7 15.8-3 2.1-4.6 3.2-7 1.2 0 0 4.4 9.8 2.6 12.9s-5.6-.9-5.6-.9 12.3 20.1 8.2 19.8c0 0 17.4 22.8 10 22.7 0 0-17.3-27.6-23.7-31.6 0 0 5 11.5 1.3 7.5-3.8-3.9-19.3-12.1-19.3-12.1s4.2 4.2 1 4.1c-3.2-.1-16.7-4.1-19.8-6.7 0 0 1.6 4.6-1.8 1.5s-16.2-9-16.2-9 17.1 26.4 25.5 32.7c6.5 4.9 4.9 10.5 2 8.6-2.9-1.9 31.5 13.3 24.3 17.3-2.7-.3-5.3-.7-8-1.3-4.8-.6 12.8 5.8 12 6.6z" style="opacity:.59;fill:#fff;enable-background:new"/><path class="st4" d="M397.6 376.7c92.8-11.4 98.4 1.1 98.4 1.1-39.4-81.7-71.5-118.3-71.5-118.3"/><path class="st4" d="M526.8 278.4c-.6 6.3-5.5 36.4-15.7 56.6-10.2 20.2-15.1 42.7-15.1 42.7s-15.6 5.7-36 38.7M496.1 377.8s7.5-9.1 47.8-14.3"/><path d="M518.7 376.2c2.2 6 2.6 7.4 2 6.4-.6-1-9.2-8.4-8.7-5.1.4 3.3.3 3.3-.5 2-.8-1.2-1.7-3.3-9.5-4.9s-3.1 17.5-3.1 17.5-2.4-4.4-1.5-.6-4.6 8.6-4.6 8.6l-.3-1.4c-.4-3.5-1.3-1.3-1.3-1.3-1.6-2.2-2.9-4.7-3.7-7.4-1.2-3.8-4.2 14.4-4.2 14.4 0-3.1-4.3 1.8-4.3 1.8.5-2.3-4.6 3.4-3.8 2.3.5-.7.4-1.6-.1-2.2.3-2.4-6.2 5.6-6.2 5.6.7-4.2-5.2 3-5.2 3 .6-2.9-4.4 3.2-4.4 3.2 1.4-3.8-10.9 9-10.9 9 .4-2.3 1-4.5 1.7-6.6 1.3-3.6-1.3-1.1-1.3-1.1 2.6-1.1 2.7-3.2 4.1-5.3 1.4-2.1-2.5-.3-1.4-1.2 1.2-.9 4-4.4 4.2-6.4.2-2-3 1.2-3 1.2.7-1.5 1.6-3 2.7-4.3 2-2.4-2.6 0-2.6 0 2-2.5 4.3-4.8 6.7-6.9 3.6-2.9-1.3-3.1-1.3-3.1 1.2-1.5 3.1-2.4 4.8-3.6 1.8-1.2-1.4-.7-1.4-.7 13-7.4 13.1-9.4 13.1-9.4-18.6 9.9-34.9 7.6-32.2 6.6 2.7-1 3.3-1.2 8.7-5.1 5.4-3.9-13.8 2.4-13.8 2.4 3.8-1.7 6.1-7.7 1.2-5.7-4.9 2-20.9 3.3-17.7 2.5 2.1-.7 4-2 5.4-3.7 3.1-3.6-11.9 4.2-10.5 3 1.4-1.2 2.1-3.4.6-3.6-1.5-.2-4.6 1.7-4.6 1.7 1.3-1.9-2.2-.8-2.2-.8-5.4 3-13 2.1-12.1 2.4s1.8-.8 1.8-.8c2.3-3.7-6.9-1.4-6.9-1.4 3.2-1.3-11.1-1.8-11.1-1.8 2.8-1.8 25.1-9.3 26.4-9.8s-1.6-1.4-1.6-1.4c4-.3 9.6-1.6 10.8-2.4 1.2-.7-1.7-1.3-1.7-1.3 4.1-1.2 7.2.6 8 .6.8 0-.8-2.3-.8-2.3 1.6.3 3.2.7 4.8 1.2-.4-.7.1-2.1.1-2.1 1.2 1.5 5.8 1.3 7.6 1.2 1.8-.1-1.5-3.6-1.5-3.6 1.3.1 2.5.3 3.7.5 1.3.3.2-1.2.2-1.2 1.4.1 7.2.6 7.2.6l-.1-1.5c1.9-.4 3.6 2.6 6.5 3s.3-3.4.3-3.4c3.9-.8 8 .3 11 3 1.6.1 1-2.8 1-2.8 2.5 1.3 12.3 7.7 12.3 7.7s3.6.8-.7-3.7-12.7-6.9-14.7-7.3c0 0 2.4-.7 1.7-1.6-.7-1-5-5.5-10-5.3 1.7-1.2 3.7-2 5.7-2.1 3.2-.1-9.8-6.2-13.7-6.6 0 0 5.5.1 7.7-1.2s-2.5-2.7-2.5-2.7c1 .1 2-.1 3-.4.9-.6-3.6-1.6-3.6-1.6s3.9-.3 3.6-1.7c-.3-1.4-5.6-4.9-8-6 0 0 3.2.2 4.1-1.4.9-1.6-8-5.7-8-5.7 1.3 0 2.5-.3 3.7-.8 1.1-.8 3.3-3-1.4-5.9-.8-.7-1.8-1.2-2.8-1.6-1.5-.4 2.8-.8 3.7-.8.9-.1-1.8-3.6-4.2-4.4 0 0 1.6-.4-.5-2.9-1.3-1.5-3-2.6-4.8-3.4-.4-.1-.7-.2-1.1-.2-2.7-.1 10.3-1.4 8.8-3.3-1.6-1.8-7.1-10.3-10.6-11.3 0 0 5.3-1.3 2.2-6-3-4.7-10.8-19.7-18.9-31.6 0 0 9.8 5.4 14.3 11.9s4 3.2 3.9 1.8c0 0 1.2 6.4 3.1 5.3 1.1-.8 1.9-1.9 2.1-3.3 0 0 4.3 12.2 6.1 12.8 1.8.6 3.2.7 4.1-2.2 0 0 4.8 8.1 4.8 13 0 0 1.2 1.7 3.8-2 2.8 2.3 4 6 3.2 9.6-1.2 6.5 3.2-1.6 3.2-1.6s1 7.6 3.9 7c2.9-.7 3.6-4.2 3.6-4.2s4.2 6.3 2.2 9.2c-2 2.9 2.9.4 2.9.4s-1.8 3.2-.4 4.8c1.4 1.5 2.4-1.3 2.4-1.3s3.4 4.9 2.5 8.9c-1 4 5.6-.6 5.6-.6l2.2-2.5s-1 7.9 2.2 10.8c0 0 .6.7 1.9-1 0 0-3.1 21.6 2.9 28.1 0 0 2.9-1.9.9-14.9-.4-1.4-1-2.7-1.6-4 1.2.3 2.3.8 3.3 1.6 1.1 1-.3-6.8-1.1-8.5 0 0 3 4.6 4.1.9.7-2.1.7-4.5-.1-6.6 0 0 3.5 1.6 4.6-2.8.4-2.1.5-4.2.1-6.3 0 0 1.7 2.5 3.1.6 1.4-1.9 2.1-7.7 2.1-7.7s1.1 2.5 2.2 1.2 5.3-6.7 6.3-11.5c0 0 .7 1.2 2.4-1.5 1.6-2.7 8.9-23.6 9.5-25.3.6-1.7 3.3 12.3 2.6 17.9-.7 5.6-1 8.3.9 8 1.2-.1 2.4-.7 3.2-1.5 0 0-9.7 11.6-6.2 14.5 3.5 2.9 5.7-1.6 5.7-1.6s-6.5 6.1-5.2 7.6c0 0 1.2 1.3 2.4.3 0 0-6.9 7.8-4.8 9.9s4.1-.6 4.1-.6-4.6 5.5-2.6 7c.8.8 2.1.7 2.9-.1.1-.1.2-.3.3-.5 0 0-5.5 6.8-4.4 8.7 1.2 1.9 1.8 3 3.7 2.4 0 0-4.9 4.4-4.8 6.6.2 2.2 3.4.9 3.4.9s-12 8.2-9.5 9.1c0 0-15.5 8.5-11.3 10.3 0 0 16.7-11.2 21.3-11.8 0 0-5.7 5.2-2.6 3.9s13.4-2 13.4-2-3.4 1.3-1.6 2 10.5 1.9 12.9 1.2c0 0-2.1 2.2.6 1.3 2.7-.9 11.4-1 11.4-1s-16.3 10.6-22.6 12c-4.9 1.1-5.4 4.7-3.3 4.3 2.1-.4-21.1-.4-18 3.6 1.6.5 3.2.9 4.8 1.3 2.7.6-8.8-.2-8.5.5z" style="opacity:.66;fill:#fff;enable-background:new"/><path class="st8" d="M427.5 971.1s33-244 26.3-254.3c-6.7-10.3 29.1-129 22.4-173.8l7.3-43.6c6.1-36.3 23.6-110.8 10.9-125.3l3.6-2.8s3.6 11.9 6.3 9.3 26.6-81.1 22.6-92.4l1.4-4.4s2.8 9.9 6.1 4.4c3.2-5.4 47.5-112.2 48.3-141.2l7.3 4s-75.1 194.1-80.7 228.4c0 0 69.3-87.4 69.4-92.6.1-1.3 0-2.6-.2-3.9-.3-1.4 9.2 3.8 6.7 6.2 0 0-2.9-2.4-5.9 3-3.1 5.4-61.8 86.6-68.4 91.4s-27.8 142.9-26 155c0 0 77.8-47.2 117.1-83.5 0 0 1.2-.6-.6-4.2 0 0 8.5-1.2 8.5 5.4l-5.8 1.2S500.3 534.3 485.5 544c0 0-30.3 155.3-26.3 170.4 0 0 34.2-15.1 100.8-55.7 0 0 2.7-1.5 2.4-7.3 0 0 6.7 3 5.4 8.2 0 0-86.8 47.5-106.9 58.4 0 0-19.7 200.7-26.9 252.5-.1.1-2.3 4.9-6.5.6z"/></g></svg>