<svg xmlns="http://www.w3.org/2000/svg" viewBox="0 0 1000 1000" style="enable-background:new 0 0 1000 1000" xml:space="preserve"><style>.st1,.st3{fill:#fff}.st3{opacity:.75}.st10,.st13,.st5,.st7{opacity:.24;fill:#fff;enable-background:new}.st10,.st13,.st7{opacity:.49}.st10,.st13{opacity:.63}.st13{opacity:.95}</style><g id="Layer_4"><g id="ZVnP6U" style="opacity:.84"><path class="st1" d="m431.2 287.8-.5.4c.2.1.4.3.6.4 0-.2 0-.5-.1-.8z"/><path class="st1" d="M441.5 276.2c-.3 4.9-2.9 11.7-4.9 16.2-.1.3-.3.6-.4.8-.2.5-.5 1-.7 1.4l-2.1 1.3h-1.1c-8.8-.6-17.3-3.2-24.9-7.7-8.6-5-12.5-12.9-10.9-21.2.4-1.9 1-3.8 1.9-5.6 5.8-11.9 17.1-16.2 29.1-10.9 9.5 4.2 14.5 14.6 14 25.7z"/><path class="st1" d="m439 294.6-2.1-1c-.2-.1-.4-.2-.7-.3.1-.3.3-.5.4-.8.6.4 1.1.9 1.6 1.4.2.2.5.4.8.7zM433 295.9h.3H433c.1 0 0 0 0 0z"/><path class="st1" d="M438.2 293.8c.3.2.5.5.8.8l-2.2-1c.1-.1.1-.2.1-.3.5.1.9.3 1.3.5zM578.1 716.2c-1.1 7.7-2.1 15.3-2.9 22.2l-1 1.3c.8-7 1.8-14.6 2.9-22.4l1-1.1z"/><path class="st1" d="M683.4 390c-.9 10.3-11.7 19.7-22.4 20.6-4 .4-7.6 2.4-10.2 5.4-9.2 12.3-16.8 26-26.6 37.7-19.4 23.2-33.8 49.4-44.6 77.5-.5 1.3-1 2.5-1.4 3.8-1.8 4.9-3.5 9.8-5.2 14.8-5.3 16.6-7.9 34.5-9.5 52.1-3.8 39.9-6.2 80-9.1 120-.4 5.1-.8 10.3-1.4 18.6 5.4-4.6 9-7.1 12-10.3 4.1-4.3 8.2-8.6 12.2-12.9-1.1 7.9-2.1 15.5-2.9 22.4l1-1.3c0 .4-.1.8-.2 1.3-7.6 10-15.1 20.2-22.5 30.4-5.5 7.7-4.3 20.8-6.2 31.4-.2 1.4-.5 2.9-.7 4.3-.5 2.9-1 5.7-1.4 8.5L523 936.4c-1.2 7.1-4.6 11.2-11.8 9.8-8.8-1.8-9.7-8.9-8.2-16.1 5.3-26.5 11.1-52.8 17.2-79 7.8-33.9 13.5-68.3 17-103 .2-1.8.4-3.7.6-5.5.1-1.3.3-2.6.4-3.9l1.2-12c1.5-16.3 2.8-32.6 3.9-48.9 1.3-15.1-2-30.2-9.4-43.4-3.3-5.3-7.2-10.3-11.5-14.9-20.9-23.4-42.3-46.4-62.2-70.8-4.3-5.3-8.4-10.9-12.2-16.7-15.4-23.6-26.1-50.1-36.6-76.7-2-4.6-5.9-8.2-10.6-9.8-10.2-2.9-18.3-9.7-20.6-19.5-.3-1.4-.5-2.8-.6-4.3-.7-12.1 5.7-20.3 15.7-23.9 4.7-1.9 9.9-1.8 14.5.1.9.4 1.7.8 2.5 1.3 3.5 2.3 6.5 5.3 8.6 9 2.7 4.7 3.5 10.2 2.4 15.4-1.1 5.7-3.7 11-7.6 15.2-.8.9-1.6 1.9-3.2 3.7 12.2 29.3 27.5 57.3 45.5 83.5 21.3 31.2 47.7 60.6 76 88.4l.6.6c2.7 2.7 5.5 5.3 8.2 8 1.7-16 4.1-28.6 4.1-41.2 0-44.9-.5-89.8-1.5-134.7-.3-13-4.6-25.5-12.3-36-2.3-3.2-4.8-6.3-7.5-9.2-.5-.6-1.1-1.2-1.7-1.7-16-16.3-32.6-32.1-47.7-49.3s-28.6-35.9-42.5-54.1c-.2-.3-.4-.5-.5-.8h1l2.2-1.3c.2-.3.3-.7.5-1.1l2.1 1c-.2-.3-.5-.5-.8-.8.5.3 1.1.5 1.6.8l.3.3c13.1 15 25.9 30.4 39 45.4 3.3 3.8 7.3 6.8 11 10.1 1-.6 1.9-1.1 2.9-1.7-4-11.7-7.9-23.5-11.8-35.2-4.6-13.6-10.7-29.1-15.6-42.6-.9-2.5-6.8-3.3-10.5-4.2-13-3.1-20.1-14.3-17.5-28.2 1.9-10.3 12.1-16.7 22.9-14.4 11.6 2.5 20.1 15.2 17.3 27.4-1.1 5-5 9.3-7.8 14 5.7 16.5 12.5 33.5 18.4 50.4h.1c3.7 10.7 7.2 21.4 10.5 32.3 4.9 16.1 15.3 26.3 26.2 36 5 4.5 10.1 8.9 14.8 13.7l3.1-1.2c-3.4-27.4-6.7-54.9-10.3-82.3-1.4-10.8-4.9-21.4-5.4-32.2-.4-9.5-2.4-19-5.9-27.8v.1c-6.1-15.1-17.3-28.1-30.2-39.6-.8-.7-1.5-1.3-2.2-2-4-3.6-7.9-7.3-11.8-11l-4-3.9c-8.9-8.8-17.7-17.9-26.5-26.8-8.2-.9-16.1-3.5-23.1-7.6-10.5-6.1-14-16.4-9-26.8 5.8-11.9 17.1-16.2 29.1-10.9.1 0 .3.1.4.2 9.3 4.3 14.2 14.6 13.6 25.6 0 .4 0 .8-.1 1.2-.7 5.7-4 13.4-5.9 17.3l-.4.2 21.6 19.2c2 1.8 4 3.6 6.1 5.4s3.7 3.4 5.6 5c9.7 8.6 19.7 17.5 30 26.8 0-6.1.5-8.5-.1-10.6-2.8-10.5-5.5-21-8.3-31.5-6.6-1.3-12.9-3.6-18.8-7-10.5-6-14-16.4-9-26.8 5.8-11.9 17.1-16.2 29.1-10.9 9.5 4.3 14.6 14.6 14 25.7-.3 4.3-2.3 10-4.2 14.5.8 14.7 4.3 30 7.3 44.5 3.2 15.6 7 31 10.1 46.6 2.9 14.2 5.7 28.4 9.8 42.6 15.5-30.6 24.7-62.9 30.7-96.3.5-2.9-4.5-7.9-7.9-10.5-10.3-7.8-14.1-19.3-9.4-30.8 4.1-10 14.9-16.9 24.1-12.1 6.8 3.6 12.7 11.5 16.2 19 3.9 8.4-.4 16.8-8.1 20.8-8.2 4.3-9.4 10.6-10.7 19.3-2 15.5-5.4 30.8-10 45.7-13.8 42.6-21.3 85-14.6 130.8 6.4 43.7 7.1 88.3 10.3 132.5 0 0 1.1.2 1.4-.2 25.9-46.4 45.2-96.2 57.3-147.9.9-3.7-5.4-9-7.1-14-2.6-7.2-7.1-16.1-5.2-22.1 2.3-6.8 10.2-13.5 17.1-15.9 4.3-1.6 12.7 3.2 16.6 7.7 8 9.1 3.6 25.7-6.2 33.3-4.2 3.4-7.3 8-8.9 13.2-5.7 19.5-10.5 39.4-15.6 59.1-1 3.2-.8 6.6.5 9.7 10.2-14.6 21-28.8 30.2-44.1 2.3-3.7-1.1-11-.5-16.4 1-8.1 1.1-18.3 5.7-23.2 4.2-4.5 14.7-5.7 21-3.6 8.3 2.9 12.9 11.7 11.9 22.1z"/><path d="M728.3 594.1c-1.1 10.1-10.2 14.6-20 11.7-9-2.7-13.9.7-18.9 8.5-5.8 8.8-12.4 17.1-19.6 24.8-11 11.8-23.2 22.5-35.1 33.4-1.4 1.3-2.9 2.6-4.3 3.9-1 .9-1.9 1.8-2.9 2.7-3.7 3.5-7.4 7-11 10.7-3.6 3.7-6.9 7.1-10.2 10.9l-1.2 1.3-2.5 2.9c-5.9 6.7-11.7 13.6-17.3 20.7-.8 1-1.6 1.9-2.3 2.9v.1c-2.6 3.3-5.1 6.5-7.6 9.8l-1 1.3c.8-7 1.8-14.6 2.9-22.4 0-.3.1-.7.2-1 3.1-3.4 6.2-6.9 9.3-10.4.5-.5 1-1 1.4-1.6 5.3-6 10.5-12.2 15.5-18.5 1.1-1.4 2.3-2.9 3.4-4.3 7.7-9.7 15-19.8 21.9-30.1.6-.9 1.2-1.9 1.9-2.9 5.1-7.8 9.9-15.8 14.5-24 3.9-6.9 7.5-14 11-21.2 3.1-6.4 3.2-10.1-2.1-15.6-6.8-7-10-16.9-4.9-26.3 2.9-5.4 8.4-11.1 13.8-12.8 10.5-3.3 19.3 3.6 23.4 15.7 3.4 9.9-1.8 20.6-11.2 27.8-6.1 4.6-11.2 10.4-15 17-3.1 5.6-6.2 11.2-9.2 16.9-6.8 12.9-13.5 26.3-20.8 40.3-.3.5-.5 1-.7 1.4.3-.3.6-.5.9-.8 12-10 23.5-20.5 34.5-31.7 9.8-10.1 18.7-21.1 26.3-32.9 1.6-2.5.5-7.1.1-10.7-1.1-9.6-1.1-20 8.3-23.7 6.2-2.4 16.9-2 21 2.1 5 5.5 8.3 16.3 7.5 24.1z" style="opacity:.7;fill:#fff;enable-background:new"/><path class="st1" d="M436.5 292.4c-.1.3-.3.6-.4.8-.2.5-.5 1-.7 1.4l-2.1 1.3h-1.1c-.6-1.7-.8-3.4-.8-5.1 0-.7-.1-1.4-.1-2.1 1.7 1.2 3.6 2.4 5.2 3.7z"/></g><path class="st3" d="M532.2 411.2c-9.5-2-23.3-6.5-41.6-16.2-11-5.9-21.7-12.4-32-19.5l-2.2-1.4-2.7-1.8a226 226 0 0 0-33-18.2c-1.8-.8-3.7-1.6-5.5-2.4-12.3-5.1-24.9-9.4-37.7-12.7-2.1-.5-4.2-1.1-6.2-1.5-30.4-7.1-51.8-7.1-49.6-8 2.2-.9 23.6-.2 50.4 4.8 2 .4 4.1.8 6.1 1.2 12.6 2.6 25 6.1 37.1 10.5 2.1.8 4.3 1.6 6.4 2.5 11.8 4.6 22.8 10.8 32.9 18.4.4.3.9.7 1.3 1 1.7 1.3 3.3 2.5 5 3.6 10.1 7.2 20.8 13.5 32 18.7 10.3 4.8 20.9 8.8 31.8 11.9 2.7 2.8 5.2 5.8 7.5 9.1z"/><path class="st3" d="M378 334.7s-10.8-20.7-30.2-34.1c0 0 24 22 24.1 33.5.1 10.2-22.5 19-45.9 25.2.1-.1 55.2-9.3 52-24.6z"/><path class="st3" d="M374.2 300.9s51.1 36.5 47.4 50.9c0 0-5.6 20.1-60.2 36.6 0 0 50.8-28.6 54.2-37.7 3.9-10.8-37-46.6-41.4-49.8z"/><path class="st3" d="M419.5 322.1s45.5 35.4 41 50.8c0 0-14.1 24.5-68.1 29.2 0 0 49.7-8.6 62.9-32.4 5.9-10.9-35.8-47.6-35.8-47.6z"/><path d="M496.1 394.2s-30.3-39.3-61.2-73.3-107-56.4-117.2 6.2c0 0-8.5 15.8-10.1 27.3-1.7 12.2 41.6 106.1 138.3 60.8.1 0 30.1-19.8 50.2-21z" style="opacity:.58;fill:#fff;enable-background:new"/><path class="st5" d="M539.8 725.2c-.3 4-.7 8-1.2 12-5.4-10.6-9.9-21.5-13.4-32.9-4.1-13-7.6-26.2-10.3-39.6-16.2-78.3-68.9-131.3-65.1-129.6 3.9 1.7 59.7 65.8 68.5 123.1 2.3 15.1 6.2 30 11.6 44.3 3 7.8 6.3 15.3 9.9 22.7z"/><path class="st5" d="M534.5 612v.8c-.1 6.4-.2 12.9-.4 19.3-.9 30.4-3.1 58.9-4 70.4-.3 3.4-.4 5.3-.4 5.3-1.4-1.3-2.8-2.5-4.3-3.5-2.6-1.8-5.3-3.5-8.1-4.9-4.2-2.3-8.6-4.3-13-6-1.9-.8-3.8-1.4-5.6-2.1-9.7-3.5-17.5-5.4-17.5-5.4-26.3-10.6-43.2-25.5-53.6-41.7-28.1-43.5-10-96.5-3.4-101.7 8.6-6.8 24.7-11.7 24.7-11.7l.5-.4c3.1-2.3 6.5-4.3 10-5.9 42.6-19.4 75.5 44.7 75.1 87.5z"/><path d="m544 397.5-3.1 1.2c-4.7-4.8-9.8-9.2-14.8-13.7-6.4-12.9-13.6-31.3-20.1-57-5-19.8-8.9-39.8-11.7-60-3.2-22.2-8.4-44-15.5-65.3-1.4-4.2-2.9-8.3-4.3-12.4-4.8-13.1-10-25.4-15.3-36.7-4.5-9.6-9.1-18.6-13.5-26.7-20.9-38.3-39.4-60.4-36.5-58.8 4.4 2.4 52.4 64.5 77 132.7 1.5 4.3 3 8.6 4.4 13 4.7 14.6 7.8 29.7 9.4 45 2.1 22.8 6.6 45.3 13.3 67.1 7.5 24.9 17.8 48.9 30.7 71.6z" style="opacity:.79;fill:#fff;enable-background:new"/><path class="st7" d="M528.2 191.3c-.8 11.1-1.8 22.2-2.9 33.2-1 10.4-2.1 20.6-3.1 30.4-3.5 31.5-7.2 58.3-9 70.9l-1.2 7.8c-1.9-2-4-3.9-6.1-5.7-5.2-4.2-10.8-8-16.6-11.3-2.6-1.5-5.2-2.9-7.9-4.3-12.8-6.5-26.1-12.1-39.7-16.6-.3-.2-.7-.3-1-.5-1-.4-1.9-.9-2.9-1.4-1.6-.8-3.2-1.6-4.7-2.5-12.5-6.6-24.2-14.5-35-23.7-84.4-72.9-40.8-182.9-28.3-191.6 13.4-9.3 38-14.8 38-14.8 74.5-48.9 125.4 61.1 120.4 130.1z"/><path class="st5" d="M537.8 742.7c-.2 1.9-.4 3.7-.6 5.5-6.5-6.1-12.3-12.9-17.3-20.2-5.1-7.3-9.8-14.8-14.1-22.7-2.4-4.4-5-8.6-7.7-12.5-25.4-37.2-60.6-55.1-58.1-54.8s45.1 25.4 63.7 57c1.1 1.9 2.1 3.7 3 5.6 4.3 8.9 9.6 17.4 15.7 25.2 4.7 6 9.8 11.7 15.4 16.9z"/><path class="st5" d="M523.3 729.4s-6.8-32.1-15.4-61.3-46.5-65.6-69.5-32.5c0 0-9.2 6.5-13.3 12.7-4.3 6.5-5 74.3 63.4 77.8 0-.1 22.8-2.3 34.8 3.3z"/><path d="M613 510.5c-4.4 4.4-9.1 8.5-14 12.3-10.5 8.1-17.7 11.1-21.6 12.1.5-1.3.9-2.5 1.4-3.8 6.7-2.8 13-6.2 18.9-10.4 5.7-4 10.9-8.6 15.6-13.7 17.9-19.6 55.7-28.4 57.6-28s-31.8 5.8-57.9 31.5z" style="opacity:.51;fill:#fff;enable-background:new"/><path d="M596.5 522.9s10.8-20.4 22.4-38.3c11.5-18 44.4-34.5 53.6-6.9 0 0 5 6.5 6.6 11.6 1.7 5.4-11.1 51.6-58.3 39-.1 0-15.1-6.5-24.3-5.4z" style="opacity:.35;fill:#fff;enable-background:new"/><path class="st10" d="M633.6 672.1c-1.2 1.4-2.5 2.8-3.7 4.3-.8.9-1.7 1.9-2.5 2.9-6.7 8-13 16.5-18.7 25.3-.9 1.4-1.9 3-2.9 4.5-5.9 9.5-11 19.5-15.3 29.7-.4.9-.7 1.8-1.1 2.7-.4.9-.6 1.4-.9 2.1-4.1 10.3-8.8 20.3-14 30.1-14.6 27.1-26.5 37.3-31.3 40.6.5-2.9 1-5.7 1.4-8.5 9.9-10.5 18.6-22.1 26-34.6 5.6-9.4 10.4-19.3 14.4-29.5.7-1.7 1.3-3.4 1.9-5.1.2-.4.3-.9.5-1.3 3.8-10.5 8.9-20.5 15.2-29.8.8-1.1 1.4-2.3 2.3-3.4.4-.5.8-1.1 1.2-1.6 6.6-9.3 13.8-18 21.7-26.3 1.3-1.4 2.5-2.7 3.8-4 16.8-17.1 31.9-28.6 33.7-29 1.7-.5-13.3 10.3-31.7 30.9z"/><path class="st7" d="M627.5 673.6s-1.6-20.2 6.1-39.6c0 0-7.1 27.9-2.1 36.1 4.5 7.3 24.6 2.1 44-5.3 0-.1-43.3 21.3-48 8.8z"/><path class="st10" d="M615 647.6s-19.9 51.9-10.8 60.3c0 0 13 11.4 59.4-4.5 0 0-49 5.4-55.5.7-7.8-5.7 5.2-51.9 6.9-56.5z"/><path class="st10" d="M592.3 685.7s-16.4 48.3-6.3 56.9c0 0 21.1 10.3 61.6-13.7 0 0-39.3 19.1-59.3 8.8-9.1-4.7 4-52 4-52z"/><path d="M615.4 765.4s-25.2 1-40.9 8.3c-1.5.7-2.9 1.4-4.3 2.3 0 0 .2-1.7.4-4.7.6-6.1 1.8-17.6 3.4-31.6.9-7.3 1.9-15.2 3.1-23.5 1.1-7.7 2.2-15.7 3.5-23.5 5.4-32 34.7-73.4 64.5-68.2 2 .3 3.9.9 5.7 1.6 5.2 2.1 9.9 5.2 13.8 9.3l2.2 2.2s1 .6 2.7 1.5c4.2 2.4 12.3 7.5 16.8 12.8 6.9 7.8 18.4 96.6-70.9 113.5z" style="opacity:.36;fill:#fff;enable-background:new"/><path d="M661.4 596.1s.8-4.3-4.4-9.6c-6.5-6.5-4.9-28 9.9-30.5 14.8-2.4 22.8 23 1.9 35.6 0 0-7 6.2-7.6 7.9-.5 1.6.2-3.4.2-3.4z" style="opacity:.59;fill:#fff;enable-background:new"/><path class="st13" d="M651.9 409.8s1.7-3.9-2.2-10.4c-4.9-7.9 1.3-28.5 16.2-27.2s17.1 28-5.9 35.1c0 0-8.2 4.3-9.1 5.8-.8 1.5 1-3.3 1-3.3zM464.3 264.3s-1.7-3.2-7.8-3.5c-7.6-.4-17.8-15-9.6-25.3 8.2-10.3 26.6 1.3 19.8 21.6 0 0-1.3 8.1-.7 9.5s-1.7-2.3-1.7-2.3zM508.2 180.7s-1.7-3.2-7.8-3.5c-7.5-.4-17.8-15-9.6-25.3 8.2-10.3 26.6 1.3 19.8 21.7 0 0-1.3 8.1-.7 9.5.5 1.3-1.7-2.4-1.7-2.4z"/></g></svg>