<svg xmlns="http://www.w3.org/2000/svg" viewBox="0 0 1000 1000" style="enable-background:new 0 0 1000 1000" xml:space="preserve"><style>.st1,.st2,.st3,.st4,.st5,.st6{opacity:.3;fill:#fff;enable-background:new}.st2,.st3,.st4,.st5,.st6{opacity:.67}.st3,.st4,.st5,.st6{opacity:.85}.st4,.st5,.st6{opacity:.52}.st5,.st6{opacity:.45}.st6{opacity:.19}.st7,.st8{fill:none;stroke:#fff;stroke-miterlimit:10}.st7{opacity:.67;enable-background:new}.st8{opacity:.3}.st10,.st11,.st12,.st8{enable-background:new}.st10{opacity:.18;fill:none;stroke:#fff;stroke-miterlimit:10}.st11,.st12{opacity:.47;fill:#fff}.st12{opacity:.18}</style><g id="Layer_14"><path d="M352.3 983h-13.5s118-345.6 145-453.5c27-107.9 30.3-212.4 8.4-284.9 0 0-11.8-75.9-5.1-97.8s13.5-32 13.5-32l3.8 1.7s-29.1 65.7 9.7 187.2c0 0 11.8 166.9-47.2 332.1S352.3 983 352.3 983z" style="opacity:.9;fill:#fff;enable-background:new"/><path class="st1" d="M413 861.6s32 43.8 52.3 30.4c20.2-13.5 28.7-13.5 45.5-18.6 16.9-5.1 42.1-18.6 28.7-33.7-13.5-15.2-37.1-28.6-62.4-25.2s-57.3 15.1-64.1 47.1z"/><path class="st2" d="M422.4 825.1s39.8 36.9 57.1 19.8c17.3-17.1 25.5-18.7 41.1-26.9 15.6-8.2 37.8-26.3 21.7-38.6s-41.9-21-66.1-12.8c-24.2 8-53.4 25.8-53.8 58.5z"/><path class="st3" d="M388.2 866.5s26.3 24.4 37.8 13.1c11.4-11.3 16.9-12.4 27.2-17.8s25-17.4 14.3-25.5c-10.7-8.1-27.7-13.9-43.7-8.5s-35.3 17-35.6 38.7z"/><path class="st4" d="M429.1 720.6s39.8 36.9 57.1 19.7c17.3-17.1 25.5-18.7 41.1-26.9 15.6-8.2 37.8-26.3 21.7-38.6-16.1-12.3-41.9-21-66.1-12.8-24.1 8.1-53.3 25.9-53.8 58.6z"/><path class="st2" d="M448.2 672.8s32 29.6 45.9 15.9c13.9-13.7 20.5-15.1 33-21.6 12.5-6.6 30.4-21.1 17.4-31-13-9.9-33.7-16.9-53.1-10.3-19.4 6.5-42.8 20.7-43.2 47z"/><path class="st5" d="M501.7 443.9s39.9 17.5 48.6 0c8.6-17.5 14.4-20.9 24.1-31.3 9.7-10.3 21.8-29.9 6.3-35-15.5-5.1-37.3-4.9-53.5 7.6-16.3 12.7-33.7 33.8-25.5 58.7z"/><path class="st1" d="M561.9 184s30.1 13.3 36.6 0 10.9-15.8 18.2-23.6 16.4-22.5 4.7-26.4c-11.7-3.8-28.1-3.7-40.3 5.8s-25.4 25.4-19.2 44.2z"/><path class="st1" d="M564.4 182.4s8.5 21.8 18.4 18.4c9.9-3.4 13.4-2.5 21-2.7s19.6-3.1 15.6-10.9-12.3-16-23.2-17.4c-10.8-1.3-25.5 0-31.8 12.6z"/><path class="st4" d="M429.9 717.1s20.9 23.1 31.7 14.2c10.8-8.9 15.6-9.4 24.9-13.3 9.3-3.9 23-13.1 14.4-21s-22.9-14.2-37.1-10.8c-14.3 3.6-32 12.2-33.9 30.9z"/><path class="st1" d="M481.3 578s20.9 23.2 31.7 14.2c10.8-8.9 15.6-9.4 24.9-13.3 9.3-3.9 23-13.1 14.4-21s-22.9-14.2-37.1-10.8c-14.3 3.6-32 12.2-33.9 30.9z"/><path class="st5" d="M498.1 514.2s-29.2 27-41.8 14.5-18.7-13.8-30.1-19.7c-11.4-6-27.7-19.3-15.9-28.3 11.8-9 30.7-15.4 48.4-9.4s39 18.9 39.4 42.9z"/><path class="st6" d="M524.8 265.2s-25.6 23.7-36.8 12.7-16.4-12-26.4-17.3c-10-5.3-24.3-16.9-13.9-24.8 10.4-7.9 27-13.5 42.5-8.3 15.5 5.3 34.3 16.7 34.6 37.7z"/><path class="st6" d="M504.8 281.5s-25.6 23.7-36.8 12.7-16.4-12.1-26.4-17.3c-10-5.3-24.3-16.9-13.9-24.8 10.4-7.9 26.9-13.5 42.5-8.3 15.6 5.3 34.3 16.6 34.6 37.7z"/><path class="st1" d="M597.5 497.3s-29.2 27-41.8 14.5c-12.7-12.5-18.7-13.7-30.1-19.7-11.4-6-27.7-19.3-15.9-28.3 11.8-9 30.7-15.4 48.4-9.4s39.1 19 39.4 42.9z"/><path class="st5" d="M599.2 353.2s-29.2 27-41.8 14.5-18.7-13.7-30.1-19.8-27.7-19.3-15.9-28.3c11.8-9 30.7-15.4 48.4-9.4s39.1 19 39.4 43z"/><path class="st6" d="M452.1 185.2s-25.4 23.5-36.3 12.6-16.2-11.9-26.2-17.1-24-16.7-13.8-24.5c10.3-7.8 26.7-13.4 42-8.2 15.4 5.1 34 16.4 34.3 37.2z"/><path class="st6" d="M482.2 183s-21.6 20-31 10.7c-9.4-9.3-13.8-10.2-22.3-14.6s-20.5-14.2-11.7-20.9 22.7-11.4 35.8-7c13.1 4.5 28.9 14.1 29.2 31.8zM500.6 137.2s-32.5 6.4-36-8-7.3-17.9-12.8-27.2-11.2-25.8 1.1-27c12.3-1.2 28.5 2.5 38.4 14.5s19.5 30.6 9.3 47.7z"/><path class="st6" d="M503.6 132.4s-20.7 19.2-29.7 10.3-13.3-9.7-21.4-14c-8.1-4.3-19.7-13.7-11.3-20.1 8.4-6.4 21.8-10.9 34.4-6.6s27.7 13.3 28 30.4z"/><path class="st1" d="M478.2 773.1s44.3 36 64.5 18.3 29.6-19.5 47.5-28.2 43.7-27.4 25.7-39.4c-18-11.9-47.1-20-74.8-11.1-27.8 8.8-61.5 27.4-62.9 60.4z"/><path class="st7" d="M500.7 757.1c-50.6 28.7-82.6 13.5-82.6 13.5s-23.6-23.6-28.7-40.5"/><path class="st8" d="M460.2 849.8c-50.6 28.7-82.6 13.5-82.6 13.5S354 839.7 349 822.8M433.2 720s-37.1 0-43.8-52.3"/><path class="st7" d="M438.3 701.5s-30.4-28.7-5.1-80.9c0 0 6.7-3.4 6.7-18.6"/><path class="st8" d="M470.3 529.5s-16.9 28.7 6.7 43.8c0 0 18.6 5 47.2-13.5M504 468.8s32 11.8 69.1-33.7M512.5 323.9s30.3-8.4 69.1-62.4M507.4 431.8s-23.6-8.4-25.3-45.5"/><path d="M493.9 200.8s-33.7 5.1-64.1-28.7" style="opacity:.19;fill:none;stroke:#fff;stroke-miterlimit:10;enable-background:new"/><path class="st8" d="M492.2 244.6s27-35.4 80.9-69.1"/><path class="st10" d="M497.3 135.1s23.6-5.1 38.8-50.6M487.2 146.9s3.4-30.3-23.6-60.7"/><path class="st11" d="M382.7 861.6s20.2-21.9 21.9-37.1c1.7-15.2 28.7-23.6 15.2-42.1s-27-25.3-43.8-20.2c-16.9 5-30.3 48.9-18.6 72.5 11.8 23.5 11.8 42.1 25.3 26.9z"/><path class="st11" d="M380.6 858.2s5.8-22.7 1.3-33.8 11.1-27-5.2-34.8-28.1-7.5-37.8 2.3c-9.8 9.8-2.8 45.1 14.1 57 16.9 11.9 23.9 24.8 27.6 9.3z"/><path class="st11" d="M310.2 762.2s-28.7-13.5-47.2-10.1c0 0 11.8 30.4 27 43.8 15.2 13.5 30.4 25.3 60.7 30.3 1.5-14.8-2-29.7-10.1-42.1-13.6-20.2-30.4-21.9-30.4-21.9z"/><path class="st3" d="M316.1 822.1s-31.7-.9-47.3 9.6c0 0 22.9 23.1 42.2 29.4 19.3 6.3 37.9 11.1 67.8 3.6-4.5-14.2-13.7-26.4-26.1-34.6-20.5-13.2-36.6-8-36.6-8z"/><path class="st2" d="M392.5 672.2s12-13 13-22 17-14 9-25-16-15-26-12-18 29-11 43 7 25 15 16z"/><path class="st1" d="M393.7 729.1s5-12 3.4-18.5 8.2-13.9-.1-19.5c-8.3-5.6-14.8-6.3-21-1.7-6.2 4.6-5.1 24.5 3.3 32.4 8.3 7.9 11.1 15.5 14.4 7.3zM368.5 634.2s-17-8-28-6c0 0 7 18 16 26s18 15 36 18c.9-8.8-1.2-17.6-6-25-8-12-18-13-18-13z"/><path class="st1" d="M365.4 692.3s-19.2-9-31.6-6.8c0 0 8 20.3 18.1 29.3 10.1 9 20.3 16.9 40.6 20.3 1-9.9-1.4-19.9-6.8-28.2-9-13.5-20.3-14.6-20.3-14.6zM421.7 540.5s-22.5-22.2-41.2-25.2c0 0 1.1 32.5 11 50.3s20.3 33.9 47.2 48.7c6.3-13.4 7.9-28.7 4.4-43.1-6.1-23.5-21.4-30.7-21.4-30.7z"/><path class="st2" d="M384.8 538.9s-33.2-13.3-52.8-6.4c0 0 17.7 37 36.3 52.1 18.6 15.1 37 28 70.6 30.3 0 0 .1-28.4-17.8-52.3-17.8-23.9-36.3-23.7-36.3-23.7z"/><path class="st1" d="M469.6 336.2s-17-16.7-31-18.9c0 0 .8 24.5 8.2 37.8 7.4 13.3 15.3 25.5 35.5 36.6 4.8-10.1 5.9-21.6 3.3-32.4-4.4-17.7-16-23.1-16-23.1z"/><path class="st1" d="M441.8 335s-25-9.9-39.7-4.8c0 0 13.3 27.8 27.3 39.2 14 11.3 27.8 21.1 53.1 22.8 0 0 .1-21.4-13.4-39.3S441.8 335 441.8 335z"/><path class="st12" d="M578.4 77.4s13.9-14.1 15.7-25.8c0 0-20.4.7-31.5 6.9s-21.2 12.7-30.5 29.6c8.4 4 17.9 4.9 27 2.7 14.8-3.7 19.3-13.4 19.3-13.4z"/><path class="st12" d="M579.4 54.3s8.3-20.8 4-33.1c0 0-23.2 11.1-32.6 22.8s-17.5 23.2-19 44.3c0 0 17.8 0 32.7-11.1 15-11.2 14.9-22.9 14.9-22.9z"/><path class="st1" d="M547.3 195s16.7-17 18.9-31c0 0-24.5.8-37.8 8.3-13.3 7.4-25.5 15.2-36.6 35.5 10.1 4.8 21.6 5.9 32.4 3.3 17.7-4.5 23.1-16.1 23.1-16.1z"/><path class="st1" d="M548.5 167.3s9.9-25 4.8-39.7c0 0-27.8 13.3-39.2 27.3-11.3 14-21.1 27.8-22.8 53.1 0 0 21.4.1 39.3-13.4 18.1-13.4 17.9-27.3 17.9-27.3zM401 701.1s-19.3-12.6-32.5-10.8c0 0 6.4 25.6 16.3 37.6 9.8 11.9 19.8 22.4 40.7 28.2 0 0 3.7-17.9-4.5-35.3-8.3-17.5-20-19.7-20-19.7z"/><path class="st4" d="M362.2 698.1s-25.8-10.3-41-4.9c0 0 13.7 28.7 28.2 40.5 14.5 11.7 28.7 21.8 54.9 23.5 0 0 .1-22-13.8-40.6s-28.3-18.5-28.3-18.5z"/><path class="st5" d="M567.5 403.2s19.2-9 31.6-6.8c0 0-8 20.3-18.1 29.3-10.1 9-20.3 16.9-40.6 20.3-1-9.9 1.4-19.9 6.8-28.2 9-13.5 20.3-14.6 20.3-14.6z"/><path class="st5" d="M570.7 409s25.8-10.3 41-4.9c0 0-13.8 28.7-28.2 40.4s-28.7 21.8-54.9 23.5c0 0 0-22 13.8-40.6 13.9-18.5 28.3-18.4 28.3-18.4z"/><path class="st1" d="M587.7 436.3s20.9 3.4 29.9 12.3c0 0-18 12.3-31.5 14-13.5 1.7-26.3 2.5-45.1-6.3 4.8-8.7 12.4-15.6 21.6-19.4 15.1-6.1 25.1-.6 25.1-.6z"/><path class="st1" d="M587 442.9s27.1 6.1 36.6 19.1c0 0-27.6 15.9-46.2 17.4-18.6 1.5-36 1.7-58.5-11.7 0 0 12.4-18.2 34.4-25.6 21.9-7.5 33.7.8 33.7.8zM618.9 245.8s20.9 3.4 29.9 12.3c0 0-18 12.3-31.5 14-13.5 1.7-26.3 2.5-45.1-6.3 4.8-8.8 12.4-15.7 21.6-19.5 15.1-6 25.1-.5 25.1-.5z"/><path class="st1" d="M618.2 252.4s27.1 6.1 36.6 19.1c0 0-27.6 15.9-46.2 17.4-18.6 1.5-36 1.7-58.5-11.7 0 0 12.4-18.2 34.4-25.6 21.9-7.5 33.7.8 33.7.8z"/><path class="st5" d="M464.9 408.9s-24.5-9.7-38.9-4.7c0 0 13 27.3 26.8 38.4 13.7 11.1 27.2 20.6 52 22.3 0 0 .1-20.9-13.1-38.5-13.2-17.7-26.8-17.5-26.8-17.5z"/><path class="st5" d="M465 426.8s-21-3.4-31.5 3.1c0 0 15.1 19.2 27.8 25.6s25.1 11.5 44.9 8.5c0 0-3.6-16.5-17.1-28.1s-24.1-9.1-24.1-9.1zM427.6 483.7s-26-4.4-39 3.5c0 0 18.4 24 34.2 32s30.9 14.5 55.5 11c0 0-4.3-20.5-20.8-34.9-16.6-14.6-29.9-11.6-29.9-11.6z"/></g></svg>