<svg xmlns="http://www.w3.org/2000/svg" viewBox="0 0 1000 1000" style="enable-background:new 0 0 1000 1000" xml:space="preserve"><style>.st0{opacity:.82;fill:#fff;enable-background:new}.st2{opacity:.76;fill:none;stroke:#fff;stroke-miterlimit:10}.st2,.st5,.st7,.st8{enable-background:new}.st5{opacity:.4;fill:none;stroke:#fff;stroke-miterlimit:10}.st7,.st8{opacity:.45}.st7{fill:none;stroke:#fff;stroke-miterlimit:10}.st8{fill:#fff}</style><g id="Layer_6"><path class="st0" d="M577.5 158.8s4-27.5 25-17.5 64 63.5 5.5 89-66 69.5-47.5 133.9c18.5 64.5 6 103.5 14.1 129.9 8.1 26.5 21 65 21 106.9s-3.5 100 2 135.9c5.5 36 1.5 99-3 114.4-4.5 15.5-1.1 45.5-1.1 45.5l10-7.5s-1-28 2.5-43 1-109.5-4-142.9c-5-33.5 3-87 4-96.5s-14.1-82-24.5-120.9c0 0 2.5-69.5-8.4-101s-28.5-97.9 5.5-124.9 59.5-26.5 67.5-58.5-56.5-110-74-48c-.1.2-2.5 9.1 5.4 5.2z"/><path d="M595.1 925.4s-41.3-238.5-107.7-317.1-169.8-112.9-169.8-112.9-7.6-4.2-8.4 1.2 8 3.4 8 3.4 116.2 45.1 171 124.6 88.5 247.4 94.6 303.3l12.3-2.5z" style="opacity:.49;fill:#fff;enable-background:new"/><path class="st0" d="m581.2 957.9 11.2-.8s-1.5-123.3 3.8-175.9c0 0-4.5-43.3-12-89.2-7.5-45.8-15.7-135-56.2-200.1 0 0-116.2-178.4-123.7-204.2 0 0-6-12.5-8.2-5-2.3 7.5 2.3 8.3 2.3 8.3s114.7 195.9 125.9 214.2 28.4 66.7 50.8 200.1c.1 0 18.1 25 6.1 252.6z"/><path class="st2" d="M271.3 387.3c8-2 17-17.3 17-17.3 37.4-41.7 110.5-85.5 110.5-85.5s-15.9-26.4-59.6-28.5c0 0-40.5-32.5-59.6-29.5s-34.7-10.2-34.7-10.2"/><path d="M619.5 57.6s-15 13.5-37.5 1.5-21.7-1.5-35.2-5.2C533.3 50 497.3 37.3 480 75.5c0 0-30.7 9.7-43.5 41.2 0 0-3.8 10.5.7 27.7s-2.2 25.5-4.5 41.2S429 254 489 265.2c0 0 28.5 10.5 44.2 27.7 15.7 17.2 62.2-3 62.2-3s27 7.5 38.2 3 16.5-14.2 24-35.2 36-26.2 45-37.5 28.5-41.2 5.2-81.7c0 0-6-22.5-6-41.2s-42.6-48-82.3-39.7z" style="opacity:.53;fill:#fff;enable-background:new"/><path class="st2" d="M443.3 238.2c7.5-1.5 24-15.8 24-15.8 35.2-30.7 104.2-63 104.2-63s-15-19.5-56.2-21c0 0-38.2-24-56.2-21.7-18 2.2-22.5 0-22.5 0"/><path class="st2" d="M560.5 299.2c-6-84.5 10.5-140.9 10.5-140.9s79.2 7.3 142.2 30.5M534.8 178.2s-9.8 36.7-6 50.2c3.8 13.5-3.8 49.5-6.7 54M572 153.8s-8-31.7-47.8-69.2c0 0-14.3-18.7-15-36M687.7 74.8c-39.7 11.2-53.2 6.7-66 12.7S582 134.8 582 134.8M610.5 95.8s3.8-8.2-7.5-32.2"/><path class="st2" d="M692.2 80.8c-1.5 8.2-21.7 21-21.7 21-79.5 30.7-93 57-93 57s21 42.7 34.5 77.2 30 52.5 30 52.5"/><path class="st2" d="M633.7 116.8s42 31.5 74.2 21.7"/><path class="st2" d="M677.2 137s15-20.3 25.5-21.7M603 215s-12 22.5-7.5 75M510 191s-45-18.7-53.2-20.2c-8.2-1.5-18-12.7-18-12.7"/><path class="st2" d="M477.8 178.2s-31.9 18.4-42.4 43.9M554.2 119s21.8-35.4 19.5-48c-1.3-7.4-5.7-13.9-12.1-17.9"/><path class="st2" d="M546.7 53.8s24.5 24.5 23.7 33"/><path d="M348.5 413.9s-12.5 11.1-31.1 1-18-1.4-29.2-4.6c-11.2-3.2-41-14.1-55.5 17.6 0 0-25.6 7.9-36.4 33.9 0 0-3.2 8.7.4 23s-2 21.1-4 34.2c-2 13.1-3.6 56.6 46.2 66.3 0 0 23.6 8.9 36.5 23.3s51.7-2.1 51.7-2.1 22.3 6.4 31.7 2.8c9.4-3.6 13.8-11.7 20.1-29.1 6.4-17.4 30-21.5 37.6-30.8s23.9-34 4.9-67.8c0 0-4.8-18.7-4.7-34.3.2-15.4-35.1-40-68.2-33.4z" style="opacity:.2;fill:#fff;enable-background:new"/><path class="st5" d="M201.1 562.7c6.2-1.2 20-12.9 20-12.9 29.5-25.3 86.9-51.6 86.9-51.6s-12.3-16.3-46.5-17.8c0 0-31.6-20.2-46.5-18.4s-18.7-.2-18.7-.2"/><path class="st5" d="M298 614.1c-4.4-70.1 9.6-116.9 9.6-116.9s65.7 6.5 117.8 26.3M277.4 513.5s-8.3 30.4-5.3 41.7c3 11.2-3.4 41.1-6 44.8M308.5 493.4s-6.4-26.4-39.2-57.8c0 0-11.7-15.7-12.2-30M405.1 428.6c-33.1 9.1-44.2 5.3-54.8 10.1-10.6 4.9-33.3 38.9-33.3 38.9M340.8 445.5s3.2-6.8-6-26.8"/><path class="st5" d="M408.7 433.6c-1.3 6.8-18.2 17.3-18.2 17.3-66.2 25-77.5 46.7-77.5 46.7s17.1 35.6 28.1 64.3c11 28.7 24.6 43.8 24.6 43.8"/><path class="st5" d="M360 463.1s34.6 26.4 61.5 18.5"/><path class="st5" d="M395.9 480.2s12.6-16.7 21.3-17.9M333.8 544.4s-10.1 18.6-6.7 62.2M256.8 523.9s-37.2-15.9-44.1-17.1c-6.8-1.3-14.8-10.7-14.8-10.7"/><path d="M230.1 513.1s-26.6 15-35.5 36.1" style="opacity:.3;fill:none;stroke:#fff;stroke-miterlimit:10;enable-background:new"/><path class="st5" d="M294 464.5s18.3-29.3 16.5-39.7c-1.1-6.2-4.7-11.6-9.9-14.9"/><path class="st5" d="M288.2 410.3s20.2 20.5 19.5 27.5"/><path class="st7" d="M627.2 768.7s-5 14.2-10.8 16.9"/><path class="st8" d="M590.4 889.2c1.3.1 2.6-.7 3-2 4.9-15.8 35.7-114 64.1-162.4.2-.3.3-.5.6-.7 1.1-1 4.6-4.4 1.2-5.2-4-1-5 .5-5 4.5s-30.2 64.5-66.2 161.9c-.6 1.4.2 3.1 1.6 3.6.2.2.5.3.7.3z"/><path class="st8" d="M646.7 790c.4-.2.7-.5 1-.8 1.5-2 7.9-9.4 20.8-6.9 15 2.9 12.6-2.9 21.1-3.1 8.4-.2 30.5.8 34.2-23 .1-.7.5-1.4 1.1-1.8 3.3-2.6 15.2-13.1 16.8-30.4v-.3c0-1.1-.2-7.3-5.3-15.6-5.6-9.1-3.2-15-4.6-24.4-1.5-9.4-9.8-39.5-45.8-35.7h-.4c-2.1-.1-18.7-1.4-29.9-8.1-10.8-6.4-30.4 8.8-34.4 12-.5.4-1 .6-1.6.6-3.6.2-16.6 1-21.5 4.9-5.6 4.5-6.9 11-7.6 24.4-.6 13.3-16 21.2-19.2 29.3-3.2 8.1-9 28.4 11 47.4.2.2.3.3.4.5 1.2 1.9 7.5 12.5 10.5 22.2 3.2 10.7 32.2 19.9 53.4 8.8z"/><path class="st7" d="M716.6 655.5c-4 2.2-11 13.2-11 13.2-12.1 19.5-37 43.4-45.6 51.5-1.1 1-1.2 2.8-.2 4 .3.3.7.6 1.1.7 5.2 2 15.6 4.5 31.3.4.5-.1.9-.1 1.4 0 4.1 1.1 26.3 6.4 35.3 2.4 9.9-4.4 12.9-3.9 12.9-3.9M638.9 641.1c15.4 39.9 18.1 71.3 18.5 80 .1 1.4-.9 2.7-2.3 2.9-10 1.9-49.6 8.9-84.3 6.9"/><path class="st7" d="M674.7 705.8s-.8-22.7-5.4-29.8c-4.5-7.1-6.5-29-5.6-32M656.7 723s11.1 20 40.2 34.4c.1.1.3.1.4.2 1.5 1.1 11.5 8.8 14.7 17.8"/><path class="st7" d="M605.3 791.7c20.8-13.4 29.3-13.2 35.5-18.8s16.9-48.4 16.9-48.4M645.8 766.2s-.7 5.4 9.9 17.1"/><path class="st7" d="M601.7 789c-.5-4.6 7.3-14.1 8.6-15.6l.4-.4c32.5-25.6 40.6-41.8 42.5-46.9.4-1 .2-2.1-.6-2.9-4.3-4.6-20.3-22.1-32.1-37-13.7-17.4-26.3-24.8-26.3-24.8"/><path class="st7" d="M628.9 758.2s-29.5-10.7-46.3.5M629.3 696.7s2.9-15-8.8-44.2M686.6 694.1s29 2.8 34 2.3 12.5 4.2 12.5 4.2"/><path class="st7" d="M707.3 695.8s15-16.1 16.6-32.5M673.9 743s-6.2 24.1-2.8 30.9c2.1 4 5.7 6.9 10.1 8.1"/><path class="st7" d="M689.6 779s-18.3-9.7-19.3-14.7"/><path d="M257 269.2s25.8 16.3 19 44.8c-6.8 28.5-16.3 94.9 16.3 112.6s62.4 21.7 82.7 12.2c20.3-9.5 35.3 16.3 80.1-8.1s47.5-9.5 63.7-10.9c16.3-1.4 57-17.6 57-63.7s5.4-78.7 20.4-109.9c14.9-31.2-20.4-47.5-31.2-58.3-10.8-10.8-25.8-39.4-28.5-61-2.7-21.7-80-43.4-112.6-13.6 0 0-3.7 11.2-60.7-18.6 0 0-45.1-3-60 45.8-.1-.1-92.3 17.5-46.2 128.7z" style="opacity:.76;fill:#fff;enable-background:new"/><path class="st2" d="M361.5 94.3C353.3 173 381.8 215 381.8 215c-2.7 39.4 22.7 74.9 22.7 74.9s68.2 7.8 106.2-5.8 63.7-44.8 85.4-37.9"/><path class="st2" d="M381.8 215s35.3-27.1 42-55.6c0 0 52.9-10.8 65.1-58.3"/><path class="st2" d="M404 193s-11.7-23.1.5-80.1M377.7 265.9s-46.9 13.5-100.8 35.6M393.3 283.8s120-59.3 205.5-60.7"/><path class="st2" d="M402.2 280.1s73.2-80 109.9-172.3M486.9 289.9s76.6 6.5 90.2 33.6M404.5 289.9c57.1 32.9 56.7 33 87.1 63.4l23.7 66.8M397.6 291.6c-14.7 64.2-14.9 63.9-35.1 101.9l-56.9 42.3M491.7 353.3c2.7.8 60.1 16.5 84.1 2.7M384.9 347.7c1 2.6 32.9 76.6 58.3 87.7"/></g></svg>