<svg xmlns="http://www.w3.org/2000/svg" viewBox="0 0 1000 1000" style="enable-background:new 0 0 1000 1000" xml:space="preserve"><style>.st2{opacity:.57;fill:none;stroke:#fff;stroke-miterlimit:10;enable-background:new}.st3{opacity:.88;fill:#fff}.st3,.st4,.st8{enable-background:new}.st4{opacity:.88;fill:none;stroke:#fff;stroke-miterlimit:10}.st8{opacity:.58;fill:#fff}</style><g id="Layer_3"><path d="m662 39.8-71.1 163.7-32.6 60.4S481 140.1 472.5 128.1c0 0-23.5-45.2-27.8-47.3l-3 1.5s21.5 31.1 25.8 43.1c7 19.7 72.7 98.9 86.6 147.6 0 0-27.3 96.8-32.6 104.3l-132.2-207-5.1 3.3 134.5 216.1s-57.8 166.9-59.9 178.6c0 0-51.3-103.8-63.1-123-11.8-19.3-40.7-72.7-40.7-72.7l-4.4 3.2s106.3 171.7 103.9 204.6c-2.4 32.9-22.5 122.7-34.5 164.5 0 0-26.5-70.6-30.5-89.8-4-19.2-81.8-165.4-101.9-187.8l-4.3 2.7s73.3 107.2 99.7 189.1 33.6 81 33.6 101.9c0 0-12.8 87.5-32.9 135.6-20.1 48.1-29.7 73-29.7 73s.8 8.8 8.1 1.6c7.3-7.2 34.5-83.5 34.5-83.5l9.6-38.5s53-30.5 81-35.3c28.1-4.8 143.6-26.5 152.4-24.9l.8-6.4s-170 17.6-233.4 53.7c0 0 18.4-89 26.5-101.9l82.6-114.7-1.3-3.7-81.3 112.3s24.1-148.7 48.1-159.9 92-44.4 113.9-55.1c21.9-10.7 127.3-53 127.3-53l-.7-4.8S476.2 559.2 469.8 567.8c0 0 29.4-123.5 49.8-139.1l178.6-146-3.7-3.2-180.1 142.7s37.4-133.2 63.7-178.1c26.7-45.9 88.2-202.7 88.2-202.7l-4.3-1.6z" style="opacity:.89;fill:#fff;enable-background:new"/><path d="M458.8 815.3s35.3-133.7 139.1-78.1c0 0 42.8 27.8 43.9 48.1 1.1 20.3-27.8 95.2-84.5 105.9-59.3 11.2-101.7-7.4-98.5-75.9z" style="opacity:.57;fill:#fff;enable-background:new"/><path class="st2" d="m464.5 816.5 30.9-68.2M473.4 813.7l32.1-74.6M480.6 810.9l35.7-77.8M467.7 818.1l10.9 59.8M476.2 814.1l17.2 73.8M493 807.7l39.3-81.4M487 811.7l17.2 79M504.7 805.3l39.7-80.6M497 810.9l22.5 82.6M515.5 802.5l40.9-79M509.9 808.5l21.2 85M524.7 802.1l42.1-76.2M519.5 806.5l23.7 87.4M533.9 799.7l42.9-71.4M546.8 796.9l38.9-65.4M558.4 795.3l36.1-59.8M568.4 794.1l33.3-55.4M581.3 792.4l28.4-46.1M594.1 789.6l24.5-36.9M608.3 788l19.5-27.2M622.2 786.8 635 770M527.1 805.3l23.7 86.2M536.3 804.5l23.7 85M543.6 801.7l25.6 85.8M552.4 800.9l27.7 81.4M560.4 799.3l28.1 77M568.4 798.1l28.5 72.2M576.1 796.5l28.4 66.8M584.5 795.3l27.3 60.5M592 793.7l26.2 53.2M599.2 792.6l24.6 44.1M607.2 791.5l21.4 37.4M617.6 790.4l16.1 28.4"/><path class="st3" d="M599.9 200.3S738.1 195 706.4 81.6c0 0-17.8-47.8-37.4-53.3-19.6-5.5-99 6.4-121.8 59.4-23.7 55.3-14.8 100.8 52.7 112.6z"/><path class="st4" d="m671.1 178.9-71.2 12.5-.8-.5-55.9-23.6"/><path class="st4" d="M684.6 169.8 606 183.7l-1.1-.1-68.3-32.9"/><path class="st4" d="m693.6 160.3-84.4 14.2-1.2-1.4-71.8-33.6"/><path class="st4" d="m702.8 146-90.6 20.1-1.6-3-73.8-39.1M618.6 154.1l88.4-17.5M624.8 147.8l86-22.7M617.7 151.9l-78.3-39.3M627.2 138.9l83.6-24.5M621.8 143l-80.2-42.2M631.6 130.4l79-26.3M637.1 118.5l72.3-23.7M641.2 107.5l66.2-22.2M644.6 97.9l61.3-20.4M648.9 85.8 700.2 68M654.5 73.8 695.8 58M659.1 60.4 690 47.3M663.4 47.1l19.2-8.9M624.6 135.8l-79-41.9M627.4 127l-77.8-41.7M631.7 120.6l-78.1-43.8M634.4 112.1 561 67.3M637.7 104.6l-69-44.2M640.7 97.1l-64.3-43.6M643.9 90l-59-42.4M646.9 82l-53.2-39.8M650.1 75.1l-46.2-37.2M652.7 68.3 615 34.6M655.5 60.7l-31.9-29.1M658.8 50.7l-24.1-21.8"/><path d="M441.3 532.6s86.6-112.1-22.1-158.9c0 0-48.8-16.3-66-4.3-17.2 12-60 81.9-33.9 133.4 27.5 53.7 68.6 75.4 122 29.8z" style="opacity:.77;fill:#fff;enable-background:new"/><path d="M442.7 716.9s17.4-122.2 56.3-126.6c0 0 25.3-5.2 13.2 67.8-13.8 83.5-36.9 109.9-59.8 112.7 0 0-15.5 6.5-10-51.7.2-.7.3-1.4.3-2.2z" style="opacity:.41;fill:#fff;enable-background:new"/><path d="M380.7 646.3s-107.5 64.2-134.2-55.1c0 0-17.1-115 51.3-124.1S454.5 504 427.2 583.7c0 0-12.8 40.7-46.5 62.6z" style="opacity:.52;fill:#fff;enable-background:new"/><path class="st8" d="M537.9 537.7s16-169.6 146.5-133.7c0 0 82.4 33.2 8.1 153.4 0 0-24.1 40.6-92.5 40.1-66.5-.4-62.1-59.8-62.1-59.8z"/><path class="st3" d="M548.1 398.1s102.1 98.8 158.3-15.2c55.4-112.3-90.4-157-132.6-129.2-41.9 27.6-82.9 61.6-25.7 144.4z"/><path class="st4" d="m685 270.9-11.7 26.7 37.4 4.8"/><path class="st4" d="m674.3 264.4-23.5 50.9 67.4 20.8"/><path class="st4" d="M667.9 261.2S642.2 296 639 326.5c0 0 48.7 27.8 78.1 22.5"/><path class="st4" d="M651.9 254.8s-23 46.5-21.9 76.5c0 0 40.1 24.6 84 31.6"/><path class="st4" d="M640.6 250.5s-21.4 61-25.1 92c0 0 61 28.3 93.1 34.8"/><path class="st4" d="M623 246.8s-21.4 73.8-13.9 105.4c0 0 31 29.5 91.9 39.7"/><path class="st4" d="M613.4 245.2s-20.8 77.5-17.6 117.1c0 0 39 29.4 98.9 40.6"/><path class="st4" d="M587.7 246.8s-5.4 96.8-3.7 124.1c0 0 57.2 38.5 104.3 39.6"/><path class="st4" d="M573.8 253.8s-5.4 98.9 3.7 126.2c0 0 57.6 37.4 106.8 35.3"/><path class="st4" d="M559.3 263.4s1.1 112.3 6.4 121.4c5.3 9.1 89.3 40.2 110.2 38.1"/><path class="st4" d="M540.1 278.3s-.5 87.7 16 114.4 99.5 37.4 107 38"/><path d="M473 309.9s-60.2 57.8-116.3-10.4 20.8-136.4 54.6-136.4S558 211.3 473 309.9z" style="opacity:.42;fill:#fff;enable-background:new"/><path class="st8" d="M539.6 236.1s-61 48.1-109.1-76.2c0 0-34.5-130.8 59.4-55.3s49.7 131.5 49.7 131.5z"/><path d="M402.5 845.3s-47.8 8.4-50.2-67.3c0 0 7.3-75.4 48.4-12.5s1.8 79.8 1.8 79.8z" style="opacity:.26;fill:#fff;enable-background:new"/></g></svg>