<svg id="Layer_1" data-name="Layer 1" xmlns="http://www.w3.org/2000/svg" viewBox="0 0 1000 1000"><defs><style>.cls-1,.cls-11{fill:#fff}.cls-1,.cls-11,.cls-7{isolation:isolate}.cls-11{opacity:.64}.cls-5{fill-opacity:0}.cls-7{fill:none;stroke:#007aff;stroke-linejoin:round;stroke-width:10px;opacity:.01}</style></defs><path class="cls-1" d="M378.7 539.18s8.06-94.55 71.83-109.13a273.13 273.13 0 0 1 62-4c33.52 1.79 26.3-2.61 26.3-2.61s-14.65 29.23-30.16 61.81-37.4 44.42-63.94 52.19-66.03 1.74-66.03 1.74Z"/><path d="M602.18 421.65s22.17-35.93 31.43-51.64 12.35-53.61 3.65-77.75-47.71-64.56-55.57-73.54-5.34-10.95-9-21.9c0 0-46 58.94-47.72 120.7s27.79 83.08 44.63 94l26.11 12.63Z" style="fill:#fcfcfc;isolation:isolate"/><path d="M424.16 293s40.53 5.2 58.12 7.13 53.91-9.2 73.67-25 45.15-62.32 51-72 8.52-8.31 17.58-15.24c0 0-69.53-16.44-127.67 4.42s-68.73 52.67-73.62 70.4l-3.53 25.91Z" style="opacity:.64;fill:#fcfcfc;isolation:isolate"/><path d="M404.94 267.38s-29.89-16.2-44.54-26.62-42.46-53-46.34-78.28 13.3-74.94 15.61-86.29-.62-12-2.62-23.39c0 0 61.88 23 91.2 78 11.28 21.14 13.07 45.16 12.55 61.14-.83 25.64-8 50.2-13.36 60.49l-6.1 14.57Z" style="opacity:.77;fill:#fcfcfc;isolation:isolate"/><path class="cls-5" d="M390.34 401.78h1v1h-1Zm-125.93 0h1v1h-1Zm125.93-171.72h1v1h-1Zm-125.92 0h1v1h-1Z"/><path d="M380.67 385.85s14.06-48.18-6.26-91.15-72.1-50.92-94.48-59.16l-10.58-.54s5.3 3.23 3.24 33.85-5.92 80.35 58 108.6l44.14 19.43Z" style="fill:#fcfcfc"/><path class="cls-7" d="M380.67 385.85s14.06-48.18-6.26-91.15-72.1-50.92-94.48-59.16l-10.58-.54s5.3 3.23 3.24 33.85-5.92 80.35 58 108.6l44.14 19.43Z"/><g style="opacity:.77"><path class="cls-5" d="M779.31 424.31h1v1h-1Zm-196.68 0h1v1h-1Zm196.68-212.69h1v1h-1Zm-196.68 0h1v1h-1Z"/><path d="M597.07 419.38s-10-24.48-9.49-56.94 18-71.47 80.92-102.94c0 0 21.47-8 46-19s45.95-18 45.95-18l14-6-21 37.47s-4 44-12 64.93-31 48.94-56.95 63.94-68.93 20.48-73.42 31" style="fill:#fff"/><path class="cls-7" d="M597.07 419.38s-10-24.48-9.49-56.94 18-71.47 80.92-102.94c0 0 21.47-8 46-19s45.95-18 45.95-18l14-6-21 37.47s-4 44-12 64.93-31 48.94-56.95 63.94-68.93 20.48-73.42 31"/></g><path d="M640.89 473.42S721 532 775.4 481c0 0 31-19 43.53-69.93 0 0 .12-9.55 14-27 0 0 7.59-6.54 13.09-10.19S755.57 341 711.09 351.82s-68.34 84.46-76.3 103l-.29 15.33Z" style="opacity:.89;isolation:isolate;fill:#fff"/><path class="cls-11" d="M376.69 518.16s52.73-45.88 49.45-93.47-.13-51.93-29-69.55-42.23-31.05-42.23-31.05S313 393 308.73 419.27s8.77 48.74 24.41 68.09 35.63 38.41 35.63 38.41ZM251 656s38.19-48.81 15.51-96.69l-20.77-34-12.21-38.75s-41.79 70.29-29.38 107.16 34.69 60.94 34.69 60.94Z"/><path class="cls-1" d="M254.74 674.88s5.7-42.16-12.65-62.53-53.59-33-84.23-49.37l-14.61-5.76s19.54 68.24 33.61 85.07c27.37 32.81 35.62 28.39 47.82 29.06 20.32 1.11 30.06 3.53 30.06 3.53Z"/><path d="M411.26 262.52s-4.61.69-4.33 2.3c.81 4.6-.86 15.88-.11 21.1 1 6.7-2.51 18.73-1.92 25 1.86 19.72-9.19 82.48-9.49 83.07-.44.82-3.16 8.87-5.18 14.79a5.91 5.91 0 0 1-2.45-3.38c-3.41-10.32-4.19-20.36-8.23-19-.32.12-3.29 7.77-3.53 7.89 0 0 .28 4.66 0 4.56h-.11a41.45 41.45 0 0 1 4.37 9c1.87 5.68 3.29 9.69 4.29 12.37a23.82 23.82 0 0 0 .92 2.26c-3.79 11-7.43 21.46-8.28 22.56-1.07 1.4-12.62 8.88-12.75 9-6.23 7.74 1 12.64 1.64 28.49s-1.83 32.65-2.79 48.71c-.22 3.71-4.19 20.32-4.25 21.41-.54 10.33-12.72 33.17-12.72 33.17-2.63 8.47-2.69 31.67-4.67 41.55-2.13 10.69-6.21 8.47-16 33.09-5.91 15-2.38 24.94-5 35.12-6.57 25.38-13.33 39.68-26.43 53.25-3 3.11-9-7-6.59-18.11 2.88-13.29 2.87-18.22-.46-23.37-1.07-1.64-3-14.4-2.76-14.09-3.28-4.09-9.86-2.3-13.21-8.32-2-3.51-5.66-8.65-5.66-8.65l-6.71-7.2s-3.94-10.13-5.14-10.27-4.13 2.64-4.21 3.3c0 .2 6.32 15.67 6.32 15.67s5.37.22 7.89 4.51c.33.55.65 1.1 1 1.65 3.55 6.39 9.37 11.42 12.91 15.78.07.1-.26 10.51.5 11.68 1.91 3 .19 11.29-2.3 22.75s.5 16.76-.38 25.89c-.32 3.22-.51 6.06-.62 8.5-.06 1.48-6.7 8.54-6.7 8.54-7.65 10.57-6.7 15.78-10.12 26-1.21 3.66-2.24 7.09-3.56 11.95-.15.58-.32 1.17-.53 2-5.92 21.94-14 36-26.89 59.1-8.93 16-14.19 25.71-23 35a93.48 93.48 0 0 1-8.24 7.81c-.83.69-1.6 1.24-2.22 1.69l-.66.46-1.1 5.17-1.8 9.45 12.56-5.56a59.71 59.71 0 0 0 13.21-8.62c6.51-5.62 13.76-17.91 13.76-17.91s1.31-6.23 3-12.46a52 52 0 0 1 5.78-12.44s10.15-15.39 16.2-30.37 6.9-30.75 7.09-31.33c1.28-4.73 2.28-8.06 3.44-11.56 5.51-16.51 18.36-34.69 34.51-51.48 14.06-14.57 23.35-32.23 30.22-58.79a231.73 231.73 0 0 1 10.34-32.44c10-25.13 16.85-46.63 19.11-57.94 4.45-22.21 12.95-27.08 18.62-36 1.25-2 16.84-11.13 29.71-13.33 2-.34 15.49-2.18 17-2.46 3.48-.62 7.27-1 14.09-1.6 19.66-1.65 26.1-2.41 37.34-5a130 130 0 0 0 44.2-18.81c1-.71 2.1-1.44 3.14-2.18A438.87 438.87 0 0 1 561 500.91c4-2.23 7.45-4.08 11.3-6 1.51-.76 5.81-1.81 7.24-2.53.36-.18 4.86-2.8 6-4.1 3.24-1.68 10-6.29 13.94-7.46 8-2.41 14-.7 23.33-2 5.8-.83 10.44-3 14.89-3.68 1.56-.26 5.45-1 5.52-1l-3.3-4.71a60.89 60.89 0 0 0-6.62-.08c-4.4.74-6.31-.05-12.06.77a140.2 140.2 0 0 0-29.58 7.39c1.3-3.31 6.63-11.89 7.62-16.28 3.64-16.15.91-28.59 1-34.77a47.23 47.23 0 0 1 1.81-5.82c.18-.55-.65-5.58-.57-5.79l-2.34-.3s-2.88 5.33-3.18 6.45a53.46 53.46 0 0 0-1.19 7.43c0 3.94 3.12 8.43.92 18.54-1 4.36-6.89 12.84-7.88 17.55a72.4 72.4 0 0 1-3.35 11.07 29.38 29.38 0 0 1-3.76 6.81c-1 .52-2 1.05-3.07 1.61-1.37.7-8.78 3.28-10.33 4.06-3.94 2-7.8 2.42-11.83 4.72-6.13 3.48-19.38 13.8-19.38 13.8s-9.47 3.79-15.93 8.39c-1 .7-9.19 4.08-10.19 4.75-13 8.68-21.85 9.51-36.87 12.94-10.78 2.47-15.78 9.8-35.09 11.42-7.05.58-11 1-14.79 1.68l-14.62 2.49a220.75 220.75 0 0 0-25.43 5.55c.24-1.38.29-2 .61-3.78a69.83 69.83 0 0 0 1.11-14.72c-.24-.92-7.09 2.27-7.2 1.88a10.44 10.44 0 0 1 0 2.37 78 78 0 0 1-1.26 9.13c-.69 3.63-1.39 8.19-1.39 8.19a39.6 39.6 0 0 0-5.28 3 141.87 141.87 0 0 0 2.11-15.62c.05-1 .69-10.25.92-14 1-16.29 3.13-33.68 2.48-49.79-.56-14.14-6.2-9.24 7.78-32.32 0-.06 10.8-29 10.8-29s10.56-17.42 16.92-48.53c2.3-11.14 3.34-37.47 4.18-46.57 0 0 4.58-9.23 4.93-10.85a47.79 47.79 0 0 1 4.7-13.48 36 36 0 0 1 8.09-10.18l-4.86-5.63a42.84 42.84 0 0 0-9.8 12.31c-.56 1-.9 2.09-1.38 3.14-.55-5.14-1.14-10.33-1.92-15.7s-2.21-5.18-3-9.86c-.32-1.74-.48-11.2-.49-11.28Zm508-46.53-10.53.42c-.08 0-14.58 3.83-18.62 5.74-1.91.92-8.3 2.26-8.31 2.26-6.9 3.51-8.53 6.74-10.45 9.08a13 13 0 0 0-.8 1.07c-.83 1.18-6.49 11.76-9.24 15.86-5.5 8.22-12.74 15.92-23.06 23.66-21.35 16-39.37 31.56-46.53 39.19-2.61 2.79-10.54 10.33-16.54 16.27.15-.89.33-1.72.46-2.64 1-7.09.69-23.78.69-23.93l-4.75.69s-4.26-.57-4.25-.2c.1 5.84 3 15.88 2.1 22.6-.26 1.91-4 7.31-4.36 9 0 0-10.77 9.91-16.7 15.51l14.67 1c12.82-12.11 29.31-28 35.12-34.21 6.9-7.34 17.55-21.93 38.64-37.76 10.85-8.17 25.17-15.78 31.06-24.55 3-4.45 7.3-16.18 7.89-17 .18-.25.34-.45.5-.65 1.15-1.4 5.29-3.94 11.34-7 1.63-.82 3.37-1.71 5.24-2.6 4-1.88 8.23-3.76 12.48-5.59 1.46-.59 13.88-6.16 14-6.19Z" style="opacity:.81;isolation:isolate;fill:#fff"/></svg>