<svg version="1.1" id="Layer_1" xmlns="http://www.w3.org/2000/svg" x="0" y="0" viewBox="0 0 1000 1000" style="enable-background:new 0 0 1000 1000" xml:space="preserve"><style>.st1{opacity:.86;fill:#fff}.st1,.st2,.st3{enable-background:new}.st2{opacity:.6;fill:#fff}.st3{opacity:.9}.st3,.st4{fill:#fff}.st13,.st6,.st7,.st9{opacity:.84;fill:#fff;enable-background:new}.st13,.st7,.st9{opacity:.92}.st13,.st9{opacity:.99}.st13{opacity:.67}</style><path d="M457.6 148.5c-2.1-13.2-4.6-23.9-1.3-47s8.7-31.8 8.7-31.8 18.3 37.8 13.4 63.7-13.5 38.1-13.5 38.1c-3.6-7.3-6-15-7.3-23z" style="opacity:.96;fill:#fff;enable-background:new"/><path class="st1" d="M455.9 140.1c-7.9-16.5-13.5-30.4-34.6-53.3s-33.2-28.4-33.2-28.4 10.1 56.8 35 81.6 42.9 31.4 42.9 31.4c-1.9-10.9-5.3-21.4-10.1-31.3zM398.1 132.1c-8.3-15.4-14.2-28.7-35.2-49s-32.6-24.2-32.6-24.2 12.2 55.6 36.8 77.3 42 25.9 42 25.9c-2.3-10.5-6-20.6-11-30z"/><path class="st2" d="M386.9 146.6c-13.1-6.4-23.5-12.5-48.2-15.9s-35.1-.3-35.1-.3 34.2 31.8 62.2 34.4 42.9-3.1 42.9-3.1c-6.6-6.1-13.9-11.1-21.8-15.1z"/><path class="st3" d="M406.8 196.5c-12.8-4.8-15.1-7.3-39.4-9.3s-37.8 5.1-37.8 5.1 32.8 24.9 60.5 26 42.5-4.1 42.5-4.1-13-12.9-25.8-17.7zM512.8 212.6c5.2-15.3 8.5-28.2 25.9-50s28.6-27.3 28.6-27.3-.7 52.2-21.5 75.9-37.9 30.4-37.9 30.4c0-9.9 1.7-19.7 4.9-29z"/><path class="st4" d="M636.3 483.7c9.7-8.4 17-16 38-23.4s31.2-5.9 31.2-5.9-20.6 36.8-44.7 43.8-39.1 3.8-39.1 3.8c3.7-6.9 8.7-13.1 14.6-18.3z"/><path class="st2" d="M531.3 320.9c3.3-12.1 4.5-17.6 16.1-35.6s22.3-21.8 22.3-21.8.9 39.7-13.2 59.5-25.9 26.3-25.9 26.3-2.6-16.3.7-28.4z"/><path d="M610.9 430.5c1.1-16.3 1.3-23.6 10.1-50.1s19.3-34.6 19.3-34.6 8.7 49.7-2.3 79.2-22.3 41.4-22.3 41.4-5.9-19.6-4.8-35.9z" style="opacity:.7;fill:#fff;enable-background:new"/><path class="st6" d="M635.1 422c12.4-18.2 17.7-26.6 45.5-51.3s44.9-27 44.9-27-24.8 63.9-57 90.5-52.8 32.8-52.8 32.8 7.1-26.9 19.4-45z"/><path class="st7" d="M456.9 232.2s-21.9 26.5-10.7 65.1c.8 3.8 2.2 7.5 3.9 11 2.1 3.9 4.5 7.6 7.2 11 0 0 15-15.4 12.9-52 0 .1-6.2-26.3-13.3-35.1z"/><path class="st4" d="M385.1 329.8s26.1 23.8 54.8 20.5c2.8-.1 5.6-.6 8.3-1.5 3-1.2 6-2.6 8.7-4.3 0 0-8.6-14.9-34.6-18.9 0 0-30-.4-37.2 4.2z"/><path class="st7" d="M436.6 367.4s17.8 34.3 61.6 40.3c4.2.9 8.5 1.2 12.8 1 4.8-.4 9.5-1.2 14.2-2.4 0 0-9.4-22.2-47.4-36.6 0 .1-29.3-5.6-41.2-2.3z"/><path d="M443.1 421.7s6 24.8 16.5 39.6 21 16 25.8 19.4c3.4 2.3 6.9 4.3 10.6 6.2 0 0-4.8-25.3-18-41.6s-25.6-19-34.9-23.6z" style="opacity:.79;fill:#fff;enable-background:new"/><path class="st9" d="M468.6 518.1s.8 28 26.7 43c2.4 1.7 5 3 7.8 3.9 3.1 1 6.4 1.6 9.7 1.9 0 0 .8-17.6-18.8-37-.1.1-16.9-11.1-25.4-11.8z"/><path d="M407.8 546.5s-15.3 50.6 17.9 108.8c2.9 5.8 6.4 11.3 10.4 16.4 4.5 5.4 9.4 10.5 14.7 15.1 0 0 11.9-30.2-8.7-88.4 0-.1-20.8-40.3-34.3-51.9z" style="opacity:.72;fill:#fff;enable-background:new"/><path class="st2" d="M390.5 700.8s-5.3 29.5 21.3 56.7c2.4 2.8 5.1 5.3 8.1 7.6 3.4 2.4 7 4.5 10.8 6.2 0 0 4.9-17.9-13.6-46.8.1-.1-16.9-19.2-26.6-23.7z"/><path class="st6" d="M450.2 753.1s3.5-46.6 44.1-82.4c3.7-3.7 7.8-6.9 12.2-9.7 4.7-2.9 9.7-5.3 14.9-7.2 0 0-.1 28.8-31.7 69 .1 0-26.4 25.6-39.5 30.3z"/><path d="M576.3 643.8s16.2-43.4 65-64.9c4.6-2.3 9.4-4.2 14.4-5.5 5.3-1.2 10.8-2 16.2-2.2 0 0-8 27.4-49.3 56-.1 0-32.5 16.1-46.3 16.6z" style="opacity:.73;fill:#fff;enable-background:new"/><path d="M578 664.4s25.7-22.5 65.7-17.6c3.9.2 7.8.9 11.5 2 4 1.3 7.9 2.9 11.7 4.9 0 0-14.7 15-52.2 17.8.1 0-27.2-1.9-36.7-7.1z" style="opacity:.66;fill:#fff;enable-background:new"/><path class="st13" d="M529.2 786.3s11.7-45 58-71.9c4.3-2.8 8.9-5.2 13.7-7.1 5.2-1.8 10.5-3.2 15.9-4 0 0-5.2 28.2-43.4 61.3.1 0-30.5 19.7-44.2 21.7z"/><path class="st4" d="M529.2 785.6s-10.1-41.6 16.6-85.9c2.3-4.4 5.1-8.6 8.3-12.4 3.5-4 7.4-7.7 11.5-11.1 0 0 8.1 25-9.1 70.2.1.1-16.7 30.9-27.3 39.2z"/><path class="st7" d="M536.2 457s-21.5 35.5-16.2 95.4c.3 5.8 1 11.6 2.1 17.3 1.3 6 3 12 5 17.8 0 0 14.5-20.1 16.6-75.4.1.1-2.3-40.6-7.5-55.1z"/><path class="st9" d="M613.9 792.5s-28-14.9-63.1 2.3c-3.5 1.5-6.9 3.3-10 5.6-3.4 2.6-6.5 5.5-9.4 8.6 0 0 16.6 10.7 50.9 2 .1 0 24.2-10.4 31.6-18.5z"/><path class="st13" d="M370.9 251s46.3-6.4 75 37.4l5.7 14.4 6.5 16.5s-29 6.5-63.8-24.5c0-.1-20.9-28.2-23.4-43.8z"/><path class="st4" d="m405.9 156.6-2.1 2.5 1.6 1.7c1.4 1.4 3 3.1 4.8 5 5.2 5.6 13.7 13.4 20 20.9 8.5 10 29.3 36.4 29.3 36.4s13 21.9 22.6 36.9c3.3 5.2 8.4 11.2 6.8 9.3-5.1-6-14.3-12.7-23.7-22.1-1.2-1.2-2.5-2.5-3.8-3.7-7-6.9-14.5-14.2-22-21.2-2.6-2.5-9.8-9.3-10-9.4l-2.1 2.6c.1.1 7.3 6.9 9.9 9.3 7.5 7.1 14.9 14.3 21.9 21.2 1.3 1.3 2.5 2.5 3.8 3.7 9.3 9.3 16.7 17.2 21.7 23.1 7.3 8.7 8.6 13.9 13.8 21.3.6.8 6.7 13.2 7.2 14 5.9 10.8 16.3 24 16.3 24s15.6 34 20 46.7c5.6 16.5 15.7 35.7 15.7 35.7l6.8 34.1-1.7 19.3s-1.7-.9-7.2-15.3c-1-2.7-2.1-5.4-3.2-8.2-3.3-8.6-6.9-17.4-10.4-26-1.2-3-4.6-11.1-4.7-11.2l-.1-.2c-8.3-14-15.9-28.7-26.5-41.6-11.4-13.9-25.2-25.1-37-36-4.1-3.8-7.9-7.1-11.3-9.9-1.2-1-3.8-3.1-4-3.3l-.3-.2-1.9 2.8c.2.1.5.5 1.1.9.9.7 1.9 1.5 3.1 2.5 3.4 2.8 7.1 6.1 11.2 9.9 8.6 8 17.3 17.2 25.9 26.9-4.8-3.8-10.1-6.9-15.8-9.3-6.1-2.4-12.4-4.3-18.8-5.5-2.2-.4-4.2-.8-6.1-1-.6-.1-2.2-.2-2.3-.2l-.3 3.4c.1 0 1.6.2 2.2.3 1.8.2 3.8.6 5.9 1 6.3 1.2 12.4 3 18.3 5.4 7.1 2.9 19.7 9.1 19.7 9.1s10.1 11.3 12.1 13.7c7.8 9.5 6.3 10.8 11.8 19.1s8.2 10.5 10.3 14c.2.4 3.3 8 4.5 11 .9 2.2-2 .3-2.7-.6-2.3-3.4-4.8-6.6-7.7-9.5-1.3-1.4-2.5-2.7-3.6-3.8-.4-.4-1.3-1.2-1.4-1.3l-2.1 2.6 1.3 1.2c1 1 2.2 2.2 3.5 3.6 3.9 4.3 7.6 8.8 10.9 13.6 4 5.6 7.5 11.6 10.5 17.8 0 0 .9 4.7 1.2 5.6 1.1 2.8 3.1 11 4.2 13.7 6.4 16.8 9 23.8 10.8 31.5 1.2 13.9 1.6 27.8 1.2 41.7 0 1.1-2.2 21.6-2.3 24.3-.9 26.3-9.8 61.9-29.7 104.5-.5-3.6-1.1-7.3-1.8-12.4s-3.2-23.2-3.2-23.3c-.2-8-.8-16.2-1.7-24.3l2-19.1-3.7.6-.1 9c-3.4-23.7-9-53.3-16.3-76.8-2.9-9.4-5.8-17.9-8.7-25.5-1-2.7-1.9-5-2.7-7-.3-.7-1-2.4-1-2.5l-2.9 1.4c0 .1.7 1.8 1 2.4.8 2 1.7 4.3 2.7 6.9 2.8 7.5 5.8 16 8.7 25.3 6.7 21.8 11.8 44.1 15.3 66.7l-8.3-20.4-3.4-3.5s5.5 18.5 9.8 28.1c5.1 11.3.4 7 2.4 10.3l1.1 12.4c-.8 3.9-1.1 7.9-1 11.8.3 5.5 2.7 21.1 2.7 21.1s.3 7.5 1.1 12.6c1 6.7 1.7 11.3 1.7 11.3-2.9 6-3.5 9.6-5.8 19.4-1.2 5.4-.8 3.7-.9 3.9-9.7 21.1-20.2 44.5-20.2 44.5s-17.1 19-25.7 31.6c-5.3 7.8-10.9 15.6-16.9 23.4-3.9 5.2-8.2 12.4-12.4 17.5-5.2 6.2-10.8 12-16.9 17.3 0 0-6.6 6.1-11.4 11.2 4.3-7.6 1.5-4.4 5.9-18 1.8-5.5 5.5-12.8 7.8-19.8 1.6-5.4 2.4-11 2.3-16.6l9.8-20.8 4.7-2.9 3.1-8.2 1.1-4.6-18.1 25.5c1.4-5.9 2.8-11.4 4.1-17.8 4.9-23 1.8-6.6 5.9-31.1 1.4-8.6 6-25.5 7.1-32.6.4-2.5 1.3-8.9 1.3-9l-1.5.3s-4.5 19.9-4.9 22.4c-1.1 7.1-3.5 6.2-6.7 22s-1.5 11-6.5 34c-1.6 11.7-3.8 23.3-6.7 34.8-1.6 6.3-5.7 17-7.1 21.4-4.4 13.6-16.5 36.8-16.5 36.8-4.5 4.8-6.3 3.8-11.3 7.9-3.1 2.6-6 5.5-8.7 8.6l-5.5 10-24 20.7s-14.9 13.2-21.7 19.6c-4.5 4.2-7.3 6.5-11.2 9.8 0 0-1.9 3.8-1.3 6.8s5 10.9 5 10.9c4.2-3.6 11.1-15.4 15.7-18.8 13.4-10 24.5-16.3 34.9-27.3 8.6-9 12.7-21.6 22.4-30.1s16.2-10.9 16.2-10.9 15.5-10.2 19-11.8c10.3-4.5 15.1-3.8 25.4-8.1 5.1-2.1 10.1-4.7 14.9-7.5 6.7-4.1 13.5-8.1 16.3-9.2 6.5-2.6 8.5-4.2 14.6-5.6 2-.5 3.9-.9 5.8-1.2 6.3-1.1 11.9-2.2 16.8-3.4 3.1-.8 5.7-1.5 7.9-2.2.8-.2 1.4-.5 2-.7.3-.1 3.2-2.3 3.2-2.3l-3.7-1.2-.5.2c-.5.2-1.2.4-1.9.6-2.1.7-4.7 1.3-7.7 2.1-4.8 1.2-10.3 2.3-16.6 3.4-1.9.3-3.9.7-6 1.2s-4.2 1.2-6.3 1.8c3.6-2.4 5.3-5.6 9-8.4 6.6-4.9 4.4-2.2 10.2-7.3 1.3-1.2 14-11.5 14-11.5s2.2-5.7 2.3-5.8l-1.4-2.4c.2 1.7-.2 3.4-1.1 4.9-1.6 2.4-4.3 4.6-6.3 6.4-5.8 5.1-17.8 14.6-24.3 19.5-7.2 5.4-8 2.8-14.7 6.6-3.1 1.8-5.7 4.5-8.6 5.8-.7.3-1.6.6-2.2 1-1.1.5-3.7 1.8-3.9 1.9-2.7 1.1-8.7 3.6-11.2 4.6-10.3 4.3-17.4 5.9-27.8 10.4-3.6 1.6-9.2 3.6-9.4 3.7s3.3-1.9-2.4.3c0 0 17.4-17.8 26.1-28.5 13.5-16.7 35.2-41.5 46.8-58.5 9.6-14.1 13.2-12.6 22.8-32.5 9.7-19.8 8.2-31.6 15.8-46.9l.2.1.3-.5c.3-.5.7-1 1.1-1.7 0-.1.1-.1.2-.2l.1.1 4.8-5.3c4.1-3.6 8.8-6.2 14-7.8 7.8-2.2 15.9-2.8 23.9-1.9 1.7.2 3.3.4 4.7.7l1.7.3.7-3.3c-.1 0-1.4-.3-1.9-.4-1.5-.3-3.1-.5-4.9-.7-4.2-.5-8.5-.5-12.7-.2-4.2.3-8.3 1-12.3 2.2-1.2.4-2.5 1-3.7 1.5.2-.2.4-.4.7-.5 4.3-3.2 8.7-6.2 13.2-8.9 5.1-3.1 10.5-6.1 16-9 1.9-1 6.4-3.2 6.8-3.5.2-.1.4-.2.5-.3l-1.4-3.1-2 1c-1.6.8-3.4 1.7-5.3 2.8-5.5 2.9-11 6-16.2 9.1-4.7 2.8-9.3 5.8-13.6 9.1-1.4 1-2.7 2.1-3.8 3.1l-.2.1-5.5 6.2c15.3-32.5 27-51.9 32.5-77.2 0 0 4.1-15.9 4.5-16.8 1.1-2.5 3.6-3.6 5.2-7.2 4.7-10.4 6.4-18.7 14.1-33.7.4-.8 1.7-5.6 2.1-6.4l31.2-27.7-.8-1.2-27.2 21.9c5.5-11.7 10.4-23.8 14.5-36.1 1.7-5.2 3.1-10 4.3-14.2.4-1.5 1.2-4.7 1.3-5 0-.1.1-.2.1-.4l-.6-2.5s-3.5 5.4-3.8 6.9c-1.1 4.2-2.5 8.9-4.2 14-4.8 14.3-10.5 28.3-17.2 41.8l-.4.3.2.2c-.4.9-.7 1.7-1.2 2.6-7.7 15.1-13.8 27.8-18.5 38.2-.6 1.2-.9 2.1-1.4 3.2.9-5.1 1.4-10.2 1.6-15.4.1-2.7.4-11.9.4-13 1.2-35.9 1.7-86.1-3.1-115-3.9-23.4-12.7-35.5-22.2-59.1-6-14.8-12-20.5-20.6-38.3-4.2-8.6-12.3-25.9-12.3-25.9l-.4-4.5-3.4-12.5-.1-.2c-1.1-6.5-2.6-12.9-4.3-19.3l.9-.1c-.2-3.3 0-6.5.5-9.8.3-2.5.8-5.2 1.3-8s1.2-5.4 1.8-7.9c.2-.9.8-3 .8-3.2l-3.1-1c0 .2-.7 2.4-.9 3.3-.6 2.6-1.2 5.3-1.8 8.1s-1.8 3.5-2.2 6.2c-.2 1.4-3.1-6.9-5.6-13.9-2.9-8.5-2.9-20.8-6.5-29.9-4.4-11.1-12.3-18.7-16.8-29-1.6-3.6-3.9-4.7-4.3-5.4-.2-.4-1.6-7.7-1.7-7.9l-2.9 1.5c.1.2 1.2 2.5 1.6 3.5 1.3 2.9 5 7.8 6.6 11.4 4.5 10.3 9.5 16.6 13.9 27.8 3.6 9.1 4.1 20.7 7 29.1 4.4 12.6 3.3 23.7 5.5 32.8 0 0-.9-4.6 3.5 10.6 1.1 4 6.1 11.9 6.1 11.9l-.6-.9c-7.3-13.4-19.6-39.2-27.6-51.9-7.9-12.4-22.8-33.8-22.8-33.8s-17.1-16.3-27.4-28.4c-6.4-7.6-12.2-14.2-17.5-19.8-1.8-2-3.5-3.7-4.9-5.1l-1.7-1.3z"/></svg>