<svg version="1.1" id="Layer_21" xmlns="http://www.w3.org/2000/svg" x="0" y="0" viewBox="0 0 1000 1000" style="enable-background:new 0 0 1000 1000" xml:space="preserve"><style>.st0,.st1,.st2,.st3,.st4{opacity:.1;fill:#fff;enable-background:new}.st1,.st2,.st3,.st4{opacity:.2}.st2,.st3,.st4{opacity:.3}.st3,.st4{opacity:.6}.st4{opacity:.4}</style><path class="st0" d="M466.8 830.7c-3.1-.6-6.3-.9-9.5-.9-1.6-.2-3.2-.2-4.8 0-1.7.4-3.4.9-4.9 1.7-1.7.9-3.3 1.8-4.9 2.9-1.6 1.1-3.2 2.4-4.7 3.4-2.5 2.1-5.5 3.5-8.7 4.3-2.9.6-5.8.4-8.6-.5-2.9-.8-6.1-2.4-9.2-3.2-1.6-.5-3.2-.8-4.8-1.2s-3.2-.7-4.9-1c-3.4-.9-6.8-1.4-10.6-2.7 4.6-6.3 10.5-10.8 16.8-14.6 3.1-2.2 6.4-4.2 9.8-6 6.9-3.1 15-2.1 21 2.6 1.7 1.2 3.3 2.6 4.9 3.9s3.1 2.6 4.7 3.7c2.7 2.2 5.9 3.7 9.3 4.2 3.1.9 6.2 2.1 9.2 3l-.1.4z"/><path class="st1" d="M464.9 835.2c-2.3-2.2-4.8-4.2-7.5-6-1.2-1-2.6-1.9-4-2.6-1.6-.6-3.3-1.1-5.1-1.3-1.9-.2-3.8-.3-5.7-.2-1.9 0-4 .3-5.8.3-3.3.4-6.6-.1-9.6-1.2-2.7-1.1-5.1-2.8-6.9-5.1-2-2.3-3.8-5.3-6-7.8l-3.3-3.6c-1.1-1.2-2.3-2.3-3.5-3.6-2.3-2.6-4.9-4.9-7.4-8 7.3-2.8 14.7-3.3 22.1-3 3.8-.2 7.7-.1 11.5.3 7.5 1.1 13.8 6.4 16.3 13.6.8 1.9 1.3 4 2 5.9s1.2 3.9 1.9 5.7c1 3.3 2.9 6.3 5.5 8.6 2.1 2.5 4 5.1 6.1 7.6l-.6.4zM480.5 784.4c-2.3-2.2-4.8-4.2-7.5-6-1.2-1-2.6-1.9-4-2.6-1.6-.6-3.3-1.1-5.1-1.3-1.9-.2-3.8-.3-5.7-.2-1.9 0-4 .2-5.8.3-3.3.4-6.6-.1-9.6-1.2-2.7-1.1-5.1-2.8-6.9-5.1-2-2.3-3.8-5.3-6-7.8l-3.3-3.6c-1.1-1.2-2.3-2.3-3.5-3.6-2.4-2.6-4.9-4.9-7.4-8 7.3-2.8 14.7-3.3 22.1-3 3.8-.2 7.7 0 11.5.3 7.5 1.2 13.8 6.4 16.2 13.7.8 1.9 1.3 4 2 5.9s1.2 3.9 1.9 5.7c.6 1.7 1.4 3.3 2.3 4.9.9 1.3 2 2.6 3.2 3.8 2.1 2.5 4 5.1 6.1 7.6l-.5.2z"/><path class="st2" d="M509.3 646.9c-4.3 1.2-8.6 2-13 2.4-2.2.4-4.4.6-6.6.5-2.4-.3-4.7-.9-6.9-1.8-4.6-1.8-9.1-5-13.2-7.8s-7.7-4.8-11.2-5.5c-3.3-.8-6.8-1.1-10.2-.8-3.4.2-7 1-10.8 1.5-3.9.4-7.9.3-11.8-.2-4.2-.4-8.9-.8-15.4-1.1-.6 5.9.8 11.9 4 16.9 3.2 4.7 7.1 8.9 11.4 12.7 4.3 3.9 9.2 7 14.5 9.2 5.1 2 10.5 2.9 16 2.6 5.6-.3 10.9-2.2 15.3-5.6 4.8-3.3 9-7.5 13.2-10.7 1.9-1.6 4-2.9 6.2-4.2 2.1-.9 4.2-1.7 6.4-2.4 4.2-1.5 8.3-3.5 12.4-5.1l-.3-.6z"/><path class="st2" d="M520.9 631.9c-4.4-.3-8.8-1-13.1-2.1-2.2-.3-4.3-.9-6.4-1.7-2.1-1.1-4.1-2.4-5.9-4-3.8-3.2-6.9-7.8-9.9-11.8s-5.7-7.1-8.7-8.9c-2.9-1.8-6.1-3.2-9.4-4.2-3.2-1-7-1.3-10.7-2.2-3.8-.9-7.5-2.3-11-4.1-3.9-1.8-8.1-3.7-14.2-6.1-2.5 5.4-3.2 11.5-1.9 17.3 1.5 5.5 3.7 10.8 6.5 15.7 2.7 5.1 6.3 9.7 10.6 13.5 4.2 3.6 9 6.2 14.3 7.8 5.3 1.6 11 1.5 16.3-.2 5.6-1.5 11-4.1 16-5.7 4.4-1.8 9.2-2.5 14-2 4.5-.1 9-.5 13.4-.7l.1-.6zM490.8 737.2c-3.9.1-7.8-.1-11.7-.7-2-.1-3.9-.4-5.8-.9-2-.7-3.8-1.7-5.5-3-3.6-2.5-6.8-6.3-9.7-9.5s-5.6-5.8-8.5-7.1c-2.7-1.4-5.6-2.3-8.6-2.9-3-.6-6.3-.6-9.6-1-3.5-.5-6.8-1.4-10.1-2.7-3.6-1.2-7.5-2.6-13.1-4.2-.9 6.9-.7 10.5 1.5 15 2.6 5.4 3.1 5.8 6 10.2 2.9 4.2 6.4 8 10.6 11 4 2.8 8.5 4.8 13.3 5.7 4.9.9 9.9.4 14.4-1.6 4.8-1.9 8.9-1 13.1-2.9 3.8-1.9 7.9-3 12.2-3 4-.5 7.9-1.2 11.8-1.8l-.3-.6zM497.6 726.4c-3.5-1.7-6.9-3.7-10.1-6-1.7-1-3.3-2.2-4.7-3.5-1.4-1.6-2.6-3.3-3.5-5.2-2-3.9-3.1-8.7-4.2-12.9s-2.3-7.7-4.2-10.2c-1.8-2.5-3.9-4.7-6.3-6.5-2.4-1.9-5.3-3.4-8.1-5.3-2.8-2-5.4-4.4-7.7-7-2.6-2.7-5.5-5.8-9.7-9.7-4 5.7-5.5 9-5.6 14-.2 6 .1 6.6.6 11.8.6 5.1 2 10.1 4.3 14.7 2.3 4.3 5.4 8.1 9.2 11.1 3.9 3.1 8.6 4.9 13.5 5.2 5.1.6 8.3 3.2 12.9 3.5 2.2.1 4.4.4 6.5.8 1.9.6 3.8 1.3 5.6 2.1 3.7 1.4 7.6 2.5 11.3 3.8l.2-.7z"/><path class="st2" d="M579.7 41.5c-4.9 1.1-9.6 2.9-14.1 5.2-4.5 2.3-8.8 5-12.8 8-8 6.1-15.1 13.3-21.2 21.3-12.2 16-20.4 34.7-26.4 53.9s-9.3 39.2-11.3 59.2l-.8 7.5c-.2 2.5-.3 5-.5 7.5-.2 5-.6 10.1-.7 15.1-.1 10.1-.4 20.1 0 30.2 1.1 40.3 5.9 80.5 12.8 120.2l5.6 29.7c2 9.9 4.2 19.8 6.3 29.7.5 2.5 1.1 4.9 1.6 7.5.5 2.8.7 5.1 1.1 7.8.6 5.1 1.1 10.1 1.6 15.2l1.1 15.2.7 15.2c1.5 40.7 0 81.5-4.4 121.9-.8 10.2-2.3 20.2-3.6 30.3s-2.5 20.2-4.4 30.2l-5.2 30.1c-.8 5-2 10-3 15l-3.2 14.9C481.4 811.9 456 889.6 423 964.1l-15.9-7.3c33.8-73 60.3-149.2 78.9-227.5l3.4-14.7c1.1-4.9 2.4-9.8 3.3-14.7l5.7-29.6c2.1-9.8 3.3-19.8 4.9-29.8s3.1-19.9 4.1-29.9c5-39.9 7.2-80.2 6.4-120.4l-.4-15.1-.9-15c-.4-5-.8-10-1.3-15-.3-2.4-.5-5.1-.9-7.3s-1-4.9-1.4-7.4c-1.9-9.9-4-19.8-5.8-29.8l-5.1-30c-6.2-40.1-10.4-80.6-10.7-121.2-.3-10.1.2-20.3.5-30.4.2-5.1.7-10.1 1-15.2.2-2.5.3-5.1.6-7.6l.9-7.6c2.3-20.2 6.1-40.3 12.4-59.6s15-38.1 27.6-54.1c6.3-8 13.6-15.2 21.8-21.2 4.1-3 8.4-5.6 13-7.8 4.6-2.3 9.4-4 14.4-5l.2.6z"/><path class="st2" d="M600.4 451.7c-5.4.5-10.7 1.3-16 2.4-5.1 1-10.1 2.3-15 3.9-5.2 1.8-9.9 4.9-13.6 9-2.3 2.3-4.4 4.8-6.4 7.3-2.2 2.5-4.4 5.2-6.7 7.8-2.3 2.4-4.7 4.7-7.3 6.8-2.4 1.9-5.1 3.5-7.9 4.8-2.5 1-5.1 1.9-7.8 2.6l.3 2.1c2.7.2 5.5.4 8.2.8 6 .9 12.3 3.1 19 5.9 3.3 1.3 6.8 2.8 10.3 4.1 3.4 1.3 6.9 2.3 10.4 3.1 6.5 1.4 13.3 1 19.5-1.2 6.1-2.1 11.9-4.9 17.4-8.3 5.5-3.6 10.8-7.4 15.4-12.3 2.4-2.4 4.6-4.9 6.6-7.6 2-2.8 3.9-5.7 5.7-8.8.8-1.6 1.7-3 2.4-4.7s1.4-3.4 2-5.2c1.3-3.6 2.3-7.4 2.9-11.3-16.3-2.7-27.9-1.9-39.4-1.2z"/><path class="st3" d="m574.7 36.7-.3 1.5c-.1.5-.3.9-.4 1.4-.2.5-.5.9-.9 1.2-.2.2-.5.4-.7.6l-.8.6c-.2.2-.5.4-.7.7-.2.2-.4.5-.5.7-.1.2-.2.5-.3.7h-.2v-.8c-.1-.6-.2-1.2-.5-1.8-.1-.3-.2-.7-.3-1-.1-.3-.2-.7-.2-1-.1-.6 0-1.3.2-1.9.2-.6.5-1.1.9-1.6s.8-1 1.2-1.4c.2-.2.5-.4.8-.6.3-.2.6-.3.8-.5s.3-.2.5-.2l.5-.2c.4-.1.7-.2 1.1-.2 0 1.3-.1 2.6-.2 3.8zM585.8 44.9c-.5 0-.9-.1-1.4-.2-.4-.1-.9-.2-1.3-.3-.5-.1-.9-.4-1.2-.8l-.6-.6-.6-.7c-.2-.2-.4-.4-.7-.6-.2-.2-.5-.3-.7-.4-.2-.1-.5-.1-.7-.2v-.2l.7-.1c.6-.1 1.1-.3 1.6-.6.3-.1.6-.3.9-.4l.9-.3c.6-.2 1.2-.2 1.7 0s1.1.4 1.5.7c.5.3 1 .6 1.4 1 .2.2.4.4.6.7.2.2.4.5.5.8s.2.3.2.4.1.3.2.5c.1.3.2.7.3 1-1 .3-2.1.4-3.3.3z"/><path class="st2" d="M509.3 405.5c2.3-1.5 4.6-3.1 6.9-4.6 2.9-2 8.3-2.6 8.5-6.3 1.9-37.7 12.5-48.6 20-53.5 5.3-3.5 14.2-7.3 20.8-9.4 6.2-2.4 13.9-3.8 20.6-6.4 3.4-1.3 6.7-2.7 10.1-4.2 3.2-1.6 6.6-3.1 10.1-4.6 7.2-2.9 13.9-6.4 22.4-9.3.2 17.2-.2 36.5-6.3 51.6-2.7 8-7.5 18-13.1 24.2-7.1 8-10.2 8.7-17.1 12.6-6.7 4.2-15 6.2-24.2 6.3-4.5.1-9.3-.3-13.8-.4-4.6-.3-9.1-.5-13.2-.4-4 0-7.9.3-11.9 1.1-3.7.7-6.8 2.4-10.2 3.7-2.8 1-5.7 2-8.5 2.9l-1.1-3.3z"/><path class="st4" d="M514 495.4c1.9-1.3 3.8-2.5 5.7-3.8 2.4-1.6 6.9-2.2 7.1-5.2 1.6-31.2 10.4-40.2 16.6-44.3 5.4-3.3 11.2-5.9 17.2-7.8 5.2-2 11.5-3.1 17.1-5.3 2.8-1 5.6-2.2 8.3-3.4s5.5-2.5 8.3-3.8c6-2.4 11.5-5.3 18.5-7.7.1 14.2-.1 30.2-5.2 42.8-2.2 6.6-6.2 14.9-10.8 20.1-5.9 6.6-8.4 7.2-14.1 10.5-5.5 3.5-12.4 5.1-20 5.2-3.8.1-7.7-.2-11.5-.3-3.8-.3-7.5-.4-11-.4-3.3 0-6.6.3-9.8.9-3.1.6-5.7 2-8.4 3.1-2.3.9-4.7 1.6-7 2.4l-1-3z"/><path class="st2" d="M512.7 434.2c1.9-1.3 3.8-2.5 5.7-3.8 2.4-1.6 6.9-2.2 7.1-5.2 1.6-31.2 10.4-40.2 16.6-44.3 5.4-3.3 11.2-5.9 17.2-7.8 5.2-2 11.5-3.1 17.1-5.3 2.8-1 5.6-2.2 8.3-3.4s5.5-2.5 8.3-3.8c6-2.4 11.5-5.3 18.5-7.7.1 14.2-.1 30.2-5.2 42.7-2.2 6.6-6.2 14.9-10.8 20.1-5.9 6.6-8.4 7.2-14.1 10.5-5.5 3.5-12.4 5.1-20.1 5.2-3.8.1-7.7-.2-11.4-.3-3.8-.3-7.5-.4-11-.4-3.3 0-6.6.3-9.8.9-3.1.6-5.7 2-8.5 3.1-2.3.9-4.7 1.6-7 2.4l-.9-2.9zM387.6 370.8c7.2-1.1 14.3-2.2 21.1-2.4 6.8-.5 13.6-.6 20.4-.2 7.2.5 14.2 2.9 20.3 6.7 3.7 2.2 7.2 4.5 10.6 7.1 3.6 2.5 7.4 5.1 11.1 7.6 3.7 2.3 7.5 4.4 11.5 6.1 3.7 1.6 7.6 2.7 11.6 3.3 4 .5 8.1.7 12.1.6l-.4 2.5c-3.6 1.2-7.2 2.5-10.8 4-7.3 3.1-14.5 8.1-22.1 14-3.8 2.8-7.6 5.9-11.6 8.7-3.9 2.7-7.9 5.2-12.1 7.5-8.2 4-16.8 6-25.2 5.2-8.4-.6-16.8-2.2-24.9-4.5-14.2-5.3-18.9-6.8-23.7-10.4-3.5-2.6-7.5-4.5-11-7.4-3.5-2.9-6.9-5.9-10.2-9.1-1.6-1.7-3.2-3.3-4.7-5.1s-3-3.8-4.3-5.9c-2.9-4.2-5.4-8.6-7.5-13.3 20-8.9 35-11.9 49.8-15z"/><path class="st4" d="M404.9 332.2c7.1 1.7 14.1 3.2 20.5 5.6 6.5 2.1 12.8 4.5 19 7.4 6.5 3.2 12.1 7.9 16.3 13.8 2.6 3.4 5 6.9 7.2 10.5 2.4 3.7 4.9 7.5 7.5 11.2 2.6 3.5 5.4 6.9 8.4 10 2.9 2.8 6.1 5.3 9.6 7.4 3.5 1.9 7.2 3.6 11 5l-1.3 2.2c-3.8-.2-7.6-.3-11.5-.3-8 .2-16.5 2.1-25.7 4.7-4.6 1.2-9.3 2.6-14 3.8-4.6 1.1-9.3 1.9-14 2.4-9.2.7-17.8-.7-25.3-4.5-7.6-3.7-14.8-8.2-21.4-13.5-11.2-10.2-15-13.4-18.1-18.4-2.3-3.8-5.3-7-7.5-10.9-2.2-4-4.2-8.1-6-12.3-.8-2.2-1.8-4.2-2.5-6.5s-1.4-4.6-1.8-7c-1.2-5-1.8-10-2-15.1 21.7-.9 36.8 1.9 51.6 4.5zM554.5 36.9c.4.9.7 1.8 1 2.7.3.9.5 1.8.7 2.7.2 1 .1 2-.2 2.9-.2.5-.3 1.1-.6 1.6s-.4 1.1-.6 1.7c-.2.6-.3 1.1-.4 1.7-.1.5-.1 1.1 0 1.7.1.5.2 1.1.3 1.6h-.3c-.3-.4-.6-.9-.9-1.3-.7-.9-1.6-1.7-2.6-2.5l-1.5-1.2c-.5-.4-1-.9-1.4-1.3-.8-.9-1.3-2-1.5-3.2-.2-1.1-.3-2.3-.2-3.4.1-1.2.3-2.3.6-3.5.2-.6.4-1.1.6-1.7.3-.5.5-1.1.9-1.6.2-.3.3-.5.5-.8s.4-.5.6-.8c.5-.5 1-1 1.5-1.4 1.3 1.9 2.5 3.9 3.5 6.1z"/><path class="st2" d="M384.9 476.1c3.7-.9 7.3-1.8 10.8-2.5 3.5-.9 7-1.8 10.5-2.8 6.9-2 13.8-5.6 20.3-7.5 6.1-2.1 12.7-2.6 19-1.4 6.3 1.2 12.6 4.1 19.4 9.1 3.4 2.2 6.9 5 10.5 7.3 3.5 2.4 7.1 4.4 10.9 6.3 3.5 1.7 7.2 2.9 11 3.6 3.6.6 7.1 0 10.6-.2s7-.4 10.5-.8l-.2 3.2c-3.1 1.1-6.1 2.2-9.3 3.2-3.5 1-7 1.6-10.3 3.3-3.6 1.8-6.9 3.9-10.1 6.4-3.4 2.5-6.8 5.3-10.2 8.4-3.5 2.8-7 6.1-10.7 8.7-7.3 5.6-15.1 9.1-23 9.8-8 1-16.1-.2-23.5-3.4-7.6-3.7-14.9-8.1-21.8-12.9-14.1-8.2-27.3-18-37.7-31.7 8.4-2.8 15.8-4 23.3-6.1z"/><path class="st2" d="M390.2 424.9c3.8-.1 7.5-.2 11.1-.2 3.7-.1 7.3-.3 10.9-.6 7.2-.5 14.7-2.6 21.4-3.1 6.4-.8 12.9.1 18.9 2.6 5.9 2.5 11.5 6.6 17.1 13 2.9 2.9 5.7 6.3 8.7 9.4 2.9 3 6 5.8 9.3 8.4 3.1 2.4 6.4 4.3 10 5.8 3.4 1.3 6.9 1.5 10.4 2s6.9 1 10.4 1.5l-.8 3.1c-3.2.4-6.5.9-9.7 1.2-3.6.3-7.1.1-10.8 1.1-3.9 1-7.6 2.4-11.2 4.2-3.8 1.7-7.7 3.8-11.8 6.1-4 2-8.1 4.5-12.3 6.3-8.3 3.9-16.7 5.7-24.5 4.8-8-.7-15.6-3.6-22.1-8.2-6.6-5.2-12.9-11-18.7-17.1-12.1-11-23-23.3-30.2-38.8 8.6-1.3 16.2-1 23.9-1.5zM587.7 668c-2.2.2-4.4.5-6.5.6s-4.2.5-6.3.9c-4.2.7-8.4 2.2-12.3 2.8-3.7.8-7.5.5-11.1-.6-4-1.4-7.6-3.7-10.6-6.8-1.8-1.5-3.6-3.4-5.5-5-1.8-1.6-3.8-3.1-5.8-4.5-1.9-1.2-3.9-2.2-6.1-2.9-2-.5-4.1-.7-6.2-.7-2-.1-4.1-.3-6.1-.4l.3-1.8c1.9-.4 3.7-.8 5.6-1.1 2.1-.2 4.2-.6 6.2-1.1 2.2-.8 4.3-1.8 6.3-3 2.1-1.2 4.3-2.6 6.6-4.1s4.5-3 6.9-4.2c8.4-5.2 18.9-5.3 27.4-.2 4.1 2.7 8 5.8 11.7 9.1 7.6 5.8 14.5 12.5 19.5 21.2-5.1 1-9.5 1.2-14 1.8z"/><path class="st2" d="M588.8 624.2c-1.9 1.1-3.8 2.1-5.7 3s-3.7 2.1-5.5 3.2c-3.6 2.2-6.9 5.3-10.3 7.3-3.1 2.1-6.7 3.4-10.5 3.7-4.2.2-8.5-.5-12.4-2.2-2.2-.7-4.7-1.8-7-2.5-2.3-.8-4.7-1.4-7.1-1.9-4.3-1-8.7-.5-12.7 1.4-1.9.7-3.9 1.3-5.8 2l-.4-1.8c1.6-1.1 3.1-2.2 4.7-3.2 4-2 7.5-4.9 10-8.6 1.5-1.9 3-4 4.5-6.3s3-4.5 4.7-6.6c5.7-8 15.5-12.1 25.2-10.7 4.9 1 9.6 2.3 14.3 4 9.2 2.5 18.2 5.9 26.1 12.1-4.2 2.9-8.2 4.8-12.1 7.1z"/><path class="st1" d="m493.3 302.6 3-.8c2.5-.4 5-1.2 7.3-2.2 2.4-1.3 4.6-3 6.6-4.9 4.2-3.9 7.7-9.3 10.8-14 3.2-4.9 6.2-8.4 9.7-10.7 3.3-2.2 6.8-4 10.6-5.2 3.7-1.2 8-1.9 12.2-3 4.4-1.2 8.6-3 12.5-5.2 4.4-2.2 9.2-4.7 16.1-7.7 2.4 8.8 2.7 13.4.8 19.6-2.3 7.4-3 8.1-5.9 14.1-2.9 6-6.9 11.4-11.6 16.1-4.6 4.3-10.2 7.6-16.2 9.6-6.1 2.1-12.6 2.2-18.8.5-6.5-1.5-11.6.2-17.4-1.4-2.7-.9-5.5-1.5-8.4-1.9-2.6-.1-5.2-.1-7.8.2h-4l.5-3.1z"/><path class="st2" d="m493.8 293.2 2.7-1.6c2.3-1.1 4.5-2.5 6.4-4.1 2-1.9 3.7-4.1 5.1-6.5 3-4.9 4.9-11 6.7-16.4 1.7-5.5 3.8-9.8 6.4-12.9 2.6-3 5.5-5.7 8.8-7.8 3.2-2.2 7.2-3.9 11-6.2 3.9-2.4 7.4-5.2 10.7-8.4 3.7-3.3 7.6-6.9 13.5-11.7 4.7 7.8 6.2 12.2 6 18.7-.3 7.8-.7 8.6-1.9 15.2s-3.5 12.8-6.9 18.6c-3.3 5.4-7.8 10-13 13.6-5.3 3.6-11.6 5.5-18 5.5-6.7.3-11.1 3.4-17.1 3.3-5.5-.4-11 .6-16.1 2.7-1.3.4-2.6.7-3.9 1l-.4-3z"/><path class="st1" d="m497.8 146.5-1.5-.4c-1.2-.2-2.4-.6-3.6-1.2-1.2-.7-2.3-1.5-3.2-2.5-2-2.1-3.7-4.5-5.2-7-1.2-2.1-2.8-3.9-4.6-5.4-1.6-1.1-3.3-2-5.2-2.7-1.8-.7-3.9-1-6-1.6-2.1-.7-4.2-1.6-6.1-2.7-2.1-1.1-4.5-2.4-7.9-3.9-1.2 4.3-1.5 6.6-.5 9.7.7 2.4 1.6 4.8 2.8 7 1.4 3 3.3 5.7 5.6 8 2.2 2.2 4.9 3.8 7.9 4.9 3 1.1 6.2 1.2 9.3.4 3.2-.7 5.7.2 8.6-.5 1.4-.4 2.7-.7 4.1-.8 1.3 0 2.5 0 3.8.2h2l-.3-1.5z"/><path class="st2" d="m500.8 152-1.1-1.1c-.9-.8-1.8-1.8-2.5-2.8-.7-1.2-1.2-2.4-1.5-3.7-.6-2.8-1-5.7-1-8.6 0-2.4-.4-4.8-1.3-7-.8-1.8-1.9-3.4-3.1-4.9-1.2-1.5-2.9-2.8-4.4-4.4-1.5-1.6-2.8-3.4-4-5.4-1.3-2-2.7-4.3-4.8-7.3-3.2 3.1-4.6 5-5.3 8.1-.6 2.4-1 4.9-1.1 7.5-.3 3.3 0 6.6.8 9.7.9 3 2.4 5.8 4.4 8.1 2 2.4 4.8 4.2 7.8 5 3.1 1 4.8 3.1 7.7 3.8 1.4.3 2.7.8 4 1.4 1.1.6 2.2 1.3 3.2 2.1.6.4 1.1.7 1.7 1l.5-1.5z"/><path class="st0" d="m470 830.2 1.5 1.2c1.1 1.1 2.4 2 3.7 2.8 1.5.7 3.1 1.2 4.8 1.5 3.4.7 7.4.5 10.8.3 3-.3 5.9 0 8.8.9 2.3.8 4.4 1.9 6.4 3.4 2 1.4 3.8 3.3 5.9 5 2.2 1.7 4.6 3.2 7.1 4.3 2.7 1.4 5.6 2.9 9.6 5.2-3.5 4.3-5.7 6.2-9.5 7.5-3 1-6 1.8-9.1 2.2-4 .7-8.1.7-12.1 0-3.8-.7-7.4-2.3-10.5-4.5-3.2-2.3-5.6-5.5-7-9.2-1.6-3.8-4.3-5.6-5.6-9.1-.6-1.7-1.3-3.3-2.1-4.8-.9-1.3-1.8-2.6-2.9-3.8-.5-.7-1-1.3-1.4-2l1.6-.9z"/><path class="st1" d="m472.2 825.6 1.8.5c1.5.5 3 .9 4.5 1.1 1.7.1 3.4-.1 5-.5 3.4-.8 6.9-2.5 10-4 2.6-1.5 5.5-2.4 8.5-2.7 2.4-.2 4.9 0 7.2.5s4.8 1.5 7.4 2.2c2.7.7 5.5 1.1 8.2 1.1 3 .2 6.3.4 10.9.9-1.5 5.4-2.7 7.9-5.7 10.6-2.3 2.1-4.8 4-7.5 5.6-3.4 2.3-7.2 3.9-11.1 4.9-3.8.8-7.7.9-11.5.1s-7.4-2.8-10.1-5.6c-3-2.8-6.2-3.5-8.7-6.1-1.2-1.3-2.5-2.5-3.9-3.6-1.3-.9-2.7-1.7-4.2-2.3-.7-.4-1.4-.8-2.1-1.3l1.3-1.4z"/><path class="st1" d="m473.5 799.5 1.8.5c1.5.5 3 .9 4.5 1.1 1.7.1 3.4-.1 5-.5 3.4-.8 6.9-2.5 10-4 2.6-1.5 5.5-2.4 8.4-2.7 2.4-.2 4.9 0 7.2.5s4.8 1.5 7.4 2.2c2.7.7 5.5 1.1 8.2 1.1 3 .2 6.3.4 10.9.9-1.5 5.4-2.7 7.9-5.7 10.6-2.3 2.1-4.8 4-7.5 5.6-3.4 2.3-7.2 3.9-11.1 4.9-3.8.8-7.7.8-11.5 0-3.9-.8-7.4-2.7-10.1-5.6-3-2.8-6.2-3.5-8.7-6.1-1.2-1.3-2.5-2.5-3.9-3.6-1.3-.9-2.7-1.7-4.2-2.3-.7-.4-1.4-.8-2.1-1.3l1.4-1.3z"/><path class="st2" d="m491.7 191-2.3-.5c-1.9-.3-3.7-.8-5.4-1.5-1.8-.9-3.5-2.1-5-3.5-3.2-2.8-5.9-6.7-8.3-10.1-1.9-3-4.4-5.7-7.4-7.7-2.5-1.6-5.2-2.8-8-3.6-2.8-.8-5.9-1.2-9.1-1.9-3.3-.8-6.4-2-9.4-3.6-3.3-1.5-6.9-3.2-12.1-5.4-1.6 6.6-1.7 10-.1 14.6 1.9 5.4 2.4 5.9 4.7 10.4 2.3 4.4 5.4 8.3 9 11.7 3.5 3.1 7.7 5.4 12.2 6.8 4.6 1.4 9.4 1.4 14-.1 4.8-1.3 8.6-.1 12.8-1.4 3.8-1.5 7.9-2 12-1.6 1 0 2-.1 3-.1l-.6-2.5z"/><path class="st2" d="m492.7 192.1-1.8-1.5c-1.5-1.1-2.9-2.4-4.1-3.8-1.2-1.7-2.1-3.5-2.8-5.4-1.5-3.9-2.1-8.7-2.7-12.8s-1.5-7.6-3-10.3c-1.5-2.6-3.3-4.9-5.4-6.9-2.1-2-4.7-3.8-7.2-6s-4.8-4.8-6.7-7.5c-2.2-2.9-4.6-6.1-8.3-10.3-4.4 5.1-6.2 8.1-6.9 12.9-.8 5.7-.6 6.4-.6 11.4 0 4.9.9 9.8 2.6 14.5 1.7 4.4 4.3 8.3 7.7 11.6 3.4 3.3 7.7 5.6 12.4 6.4 4.9 1.1 7.7 3.9 12 4.7 2.1.3 4.2.8 6.2 1.5 1.8.7 3.5 1.6 5.2 2.6.9.5 1.8.9 2.7 1.3l.7-2.4zM526.5 80.2l-.8-.8c-.7-.6-1.2-1.3-1.7-2-.5-.8-.8-1.7-1.1-2.6-.4-2-.7-4-.7-6 0-1.7-.3-3.3-.9-4.9-.6-1.2-1.3-2.4-2.2-3.4-.9-1-2-2-3-3.1-1.1-1.1-2-2.4-2.7-3.8-.9-1.4-1.9-3-3.3-5.1-2.3 2.1-3.2 3.4-3.7 5.6-.4 1.7-.7 3.4-.8 5.2-.2 2.3 0 4.6.5 6.8.6 2.1 1.6 4 3 5.7 1.4 1.7 3.3 2.9 5.4 3.5 2.2.7 3.3 2.1 5.3 2.7 1 .3 1.9.6 2.8 1 .8.4 1.5.9 2.3 1.4.4.2.8.5 1.2.7l.4-.9z"/><path class="st4" d="m534.3 71.1-.8-.8c-.7-.6-1.2-1.3-1.7-2-.5-.8-.8-1.7-1.1-2.6-.4-2-.7-4-.7-6 0-1.7-.3-3.3-.9-4.9-.6-1.2-1.3-2.4-2.2-3.4-.9-1-2-2-3-3.1-1.1-1.1-2-2.4-2.7-3.8-.9-1.4-1.9-3-3.3-5.1-2.3 2.2-3.2 3.4-3.7 5.6-.4 1.7-.7 3.4-.8 5.2-.2 2.3 0 4.6.5 6.8.6 2.1 1.6 4 3 5.7 1.4 1.7 3.3 2.9 5.4 3.5 2.2.7 3.3 2.1 5.3 2.7 1 .3 1.9.6 2.8 1 .8.4 1.5.9 2.3 1.4.4.2.8.5 1.2.7l.4-.9z"/><path class="st4" d="m525.9 79.5-.3-.7c-.3-.6-.5-1.2-.7-1.9-.1-.7-.1-1.4 0-2.1.2-1.5.6-3 1.1-4.5.5-1.2.7-2.4.7-3.7-.1-1-.3-2-.6-3s-.9-1.9-1.3-3-.7-2.2-.9-3.4c-.2-1.2-.5-2.6-1-4.5-2.2.9-3.2 1.6-4.2 3-.8 1.1-1.5 2.3-2 3.5-.8 1.6-1.3 3.3-1.5 5-.1 1.6.1 3.3.6 4.8.5 1.6 1.6 3 2.9 4 1.4 1.1 1.8 2.4 3.1 3.3.6.4 1.2.9 1.7 1.4.4.5.9 1.1 1.2 1.6.2.3.4.6.6.8l.6-.6z"/><path class="st1" d="m507.7 119.4 1.4.5c1.1.5 2.3.8 3.5 1 1.3.1 2.6 0 3.9-.2 2.8-.6 5.4-1.6 8-2.8 2.1-1 4.3-1.6 6.7-1.8 1.9 0 3.8.2 5.6.7 1.8.5 3.7 1.3 5.7 2 2.1.6 4.2 1 6.4 1.2 2.3.3 4.9.6 8.5 1.1-1.3 4.1-2.4 6.1-4.8 8-1.9 1.6-3.9 3-6.1 4.1-2.7 1.6-5.7 2.8-8.8 3.4-3 .5-6.1.4-9-.4-3-.8-5.6-2.4-7.7-4.7-2.2-2.3-4.7-2.9-6.6-5.1-.9-1.1-1.8-2-2.9-2.9-1-.7-2.1-1.4-3.2-2-.5-.3-1.1-.7-1.6-1.1l1-1z"/><path class="st2" d="m506.6 117.1 1.5-.2c1.2 0 2.4-.2 3.6-.6 1.2-.5 2.4-1.1 3.5-1.9 2.2-1.7 4.3-3.7 6.1-5.9 1.4-1.8 3.2-3.3 5.3-4.4 1.7-.8 3.5-1.4 5.4-1.8 1.8-.3 3.9-.3 6-.6s4.3-.8 6.3-1.6c2.2-.7 4.7-1.6 8.1-2.6.5 4.3.4 6.5-1 9.3-1 2.2-2.3 4.3-3.8 6.3-1.8 2.6-4 4.9-6.6 6.8-2.5 1.7-5.3 2.9-8.3 3.4-3 .6-6.1.2-8.9-1-3-1.2-5.5-.7-8.1-1.8-1.2-.6-2.5-1.1-3.8-1.4-1.2-.2-2.5-.4-3.7-.4-.6-.1-1.3-.2-1.9-.3l.3-1.3zM526.7 83l.9.5c.7.4 1.5.8 2.3 1 .9.2 1.8.3 2.7.3 1.9-.1 3.8-.5 5.7-1.1 1.5-.5 3.1-.7 4.7-.5 1.3.1 2.5.5 3.7 1 1.2.5 2.3 1.3 3.7 2 1.3.6 2.7 1.1 4.2 1.5 1.6.4 3.3.9 5.6 1.7-1.3 2.7-2.3 3.9-4.1 5-1.4.9-3 1.6-4.5 2.2-2 .8-4.2 1.3-6.4 1.4-2.1 0-4.1-.4-6-1.2-1.9-.8-3.6-2.2-4.7-4-1.3-1.8-2.9-2.5-3.9-4.1-.9-1.6-2.1-3-3.6-4-.3-.3-.7-.6-1-.9l.7-.8z"/><path class="st2" d="M481.3 76.2c1 .9 2.1 1.7 3 2.6s2 1.7 3.1 2.4c2 1.6 4.4 2.9 6.4 4.3 1.9 1.4 3.5 3.1 4.7 5.1 1.3 2.2 2.1 4.7 2.4 7.3.3 1.4.5 2.9.8 4.3.3 1.4.6 2.9 1.1 4.3.4 1.3 1 2.6 1.7 3.8.7 1.1 1.6 2.1 2.5 3 .7.8 1.4 1.6 2.1 2.3l-.7.8c-.8-.6-1.6-1.1-2.4-1.7-1-.8-2-1.6-3.1-2.3-1.2-.7-2.5-1.2-3.8-1.7-1.3-.5-2.8-.9-4.2-1.3s-3-.9-4.4-1.4c-2.8-.9-5.4-2.6-7.5-4.7-2.1-2.1-3.6-4.6-4.6-7.4-.9-2.8-1.6-5.7-2.2-8.6-1.4-5.6-2.3-11.1-1.6-16.7 2.5 2 4.5 3.9 6.7 5.6zM568.7 64.1c-.4-.4-.7-.8-1.1-1.1s-.7-.8-1-1.2c-.7-.8-1.2-1.7-1.8-2.4-.6-.7-1.3-1.3-2.1-1.7-.9-.5-1.9-.7-2.9-.8-.5-.1-1.2-.1-1.7-.2-.6-.1-1.1-.2-1.7-.3-.5-.1-1-.3-1.5-.6l-1.2-.9-1-.8-.3.3c.2.3.5.6.7.9.4.4.7.8 1 1.2.3.5.5.9.7 1.4.2.5.4 1.1.6 1.6s.4 1.2.7 1.7c.4 1.1 1.1 2 2 2.8.9.8 1.9 1.3 3 1.7 1.1.3 2.3.5 3.4.7 2.2.5 4.4.6 6.6.3-.9-1.1-1.7-1.8-2.4-2.6z"/><path class="st3" d="M578.4 52.6c-.3-.3-.5-.6-.8-.8s-.5-.5-.7-.8c-.5-.5-.9-1.2-1.3-1.7s-.9-.9-1.5-1.2c-.6-.3-1.3-.5-2-.6-.4-.1-.8-.1-1.2-.2-.4 0-.8-.1-1.2-.2-.4-.1-.7-.2-1.1-.4l-.9-.6-.7-.6-.2.2c.2.2.3.4.5.7.3.3.5.5.7.8.2.3.4.7.5 1 .2.4.3.8.4 1.2.2.4.3.8.5 1.2.3.8.8 1.5 1.4 2 .6.5 1.3.9 2.1 1.2.8.2 1.6.4 2.4.5 1.5.4 3.1.4 4.7.2-.6-.8-1.1-1.3-1.6-1.9z"/><path class="st2" d="M556.6 178.2c-2 .3-4 .6-5.8.9s-3.8.5-5.8.7c-3.8.4-7.8.2-11.3.5-3.4.2-6.8 1.2-9.9 2.8-3.3 1.8-6.3 4.3-8.7 7.2-1.4 1.5-2.8 3.3-4.3 4.9-1.5 1.6-3 3.1-4.7 4.5-1.6 1.3-3.3 2.5-5.1 3.4-1.8.8-3.6 1.4-5.4 1.8-1.5.4-3 .9-4.4 1.3l.3 1.5c1.5-.1 2.9-.2 4.4-.3 1.9-.3 3.8-.5 5.7-.5 2 .1 4 .4 6 .8s4.2 1 6.4 1.6 4.4 1.2 6.7 1.7c4.3 1 8.8 1 13.1-.1 4.2-1 8.1-2.9 11.5-5.5 3.3-2.8 6.5-5.9 9.4-9.1 6.1-5.9 11.5-12.2 14.9-19.7-4.9.3-8.9 1.1-13 1.6z"/><path class="st1" d="M545.8 186.3c-1.9.7-3.8 1.4-5.5 2.1s-3.6 1.3-5.5 1.9c-3.6 1.2-7.6 1.8-11 2.9-3.3 1-6.4 2.6-9.1 4.8-2.9 2.5-5.3 5.5-7 8.9-1.1 1.8-2.1 3.8-3.2 5.7-1.1 1.9-2.3 3.7-3.6 5.4-1.3 1.6-2.7 3.1-4.3 4.4-1.6 1.1-3.2 2.1-4.9 2.9-1.4.7-2.7 1.5-4.1 2.2l.6 1.4 4.2-1.2c1.8-.7 3.6-1.2 5.5-1.7 2-.3 4-.5 6-.4 2.1 0 4.3.1 6.6.3s4.6.3 6.8.2c4.4.1 8.8-.9 12.8-2.8 3.9-1.9 7.3-4.5 10-7.8 2.7-3.5 5.1-7.1 7.3-10.9 4.7-7 8.7-14.4 10.5-22.4-4.5 1.2-8.2 2.8-12.1 4.1z"/><path class="st4" d="M553.7 71.7c-.3-.3-2.3-1.7-2.8-2.3-.5-.6-1.1-1-1.8-1.4-.8-.4-1.6-.6-2.4-.6-.5-.1-.9-.1-1.4-.2-.5-.1-.9-.1-1.4-.3-.9-.2-1.6-.6-2.3-1.2l-.8-.6-.2.2.6.8c.3.3.6.6.8 1l.6 1.2c.2.4.3.9.5 1.3s.3.9.5 1.4c.4.9.9 1.7 1.7 2.3.7.6 1.6 1.1 2.5 1.3.9.2 1.9.4 2.8.5 1.8.4 3.6.4 5.4.2-.6-.8-1.7-3-2.3-3.6z"/><path class="st2" d="M519 577.2c1.5.2 3.1.3 4.6.5 2.2.4 4.4.5 6.6.3 2.4-.4 4.7-1 6.8-2 4.5-1.9 9-5.3 13-8.2s7.6-5 11-5.8c3.3-.9 6.8-1.2 10.2-1.1 3.4.1 7 .8 10.9 1.2 3.9.3 7.9.1 11.8-.5 4.2-.5 8.9-1.1 15.4-1.5.8 5.9-.5 11.9-3.5 17-3.1 4.8-6.8 9.1-11 13-4.2 4-9 7.3-14.2 9.7-5.1 2.1-10.5 3.1-16 3-5.6-.1-11-1.9-15.5-5.2-4.8-3.2-9.2-7.3-13.5-10.3-2-1.5-4.1-2.8-6.3-4-2.1-.9-4.2-1.6-6.4-2.1-1.4-.5-2.8-1-4.2-1.6l.3-2.4zM518.3 546.7l4.5-1.1c2.2-.4 4.3-1 6.3-1.8 2.1-1.1 4.1-2.5 5.8-4.1 3.7-3.3 6.8-8 9.6-12s5.5-7.2 8.5-9.2c2.9-1.9 6-3.4 9.2-4.4 3.2-1 6.9-1.5 10.7-2.5 3.8-1 7.5-2.5 10.9-4.4 3.8-1.9 8-3.9 14.1-6.5 2.7 5.3 3.5 11.4 2.3 17.2-1.4 5.5-3.4 10.9-6.1 15.9-2.6 5.2-6.1 9.8-10.3 13.8-4.1 3.7-8.9 6.4-14.1 8.1-5.3 1.7-11 1.8-16.3.2-5.6-1.4-11.1-3.8-16.1-5.3-4.5-1.7-9.3-2.2-14-1.7-1.5 0-3 0-4.5-.1l-.5-2.1zM490.9 739.8c1 .4 2.1.7 3.1 1.1 1.4.6 2.9 1 4.5 1.3 1.7.1 3.4 0 5-.3 3.4-.6 7-2.2 10.2-3.6 2.7-1.3 5.6-2.1 8.5-2.3 2.4-.1 4.9.2 7.2.9 2.3.6 4.7 1.7 7.3 2.6 2.7.8 5.4 1.3 8.2 1.5 3 .3 6.3.7 10.9 1.4-.4 4.2-2.2 8.1-5.1 11.2-2.9 2.8-6.2 5.2-9.7 7.2-3.5 2.1-7.4 3.6-11.4 4.4-3.8.7-7.8.5-11.5-.5-3.8-1-7.2-3.1-9.8-6.1-2.8-3-5.2-6.5-7.6-9.3-1.1-1.4-2.4-2.6-3.7-3.8-1.3-.9-2.6-1.8-4-2.5l-2.7-1.8.6-1.4z"/><path class="st2" d="m494.3 734.3 3.3-.3c1.6 0 3.1-.2 4.6-.6 1.6-.6 3.1-1.3 4.5-2.3 2.9-1.9 5.6-4.8 8-7.4 1.9-2.3 4.3-4.1 6.9-5.5 2.2-1 4.6-1.7 7-2.1 2.4-.4 5-.3 7.7-.6 2.8-.3 5.5-.9 8.1-1.9 2.9-.9 6-1.9 10.5-3 1.3 4 1.2 8.3-.2 12.3-1.6 3.7-3.6 7.2-6 10.5s-5.3 6.2-8.7 8.5c-3.2 2.1-6.9 3.5-10.8 4.2-3.9.6-7.9 0-11.4-1.6-3.8-1.6-7.4-3.9-10.7-5.5-1.6-.8-3.2-1.5-4.9-2-1.6-.3-3.2-.6-4.8-.7-1.1-.2-2.1-.3-3.1-.5v-1.5zM419.4 566c2.8-.9 5.5-1.7 8.1-2.4s5.3-1.7 7.9-2.6c5.2-1.8 10.2-4.6 15-6.3 4.6-1.8 9.5-2.7 14.5-2.5 5.4.3 10.7 1.7 15.6 4 2.8 1.1 5.7 2.5 8.6 3.6 2.9 1.2 5.8 2.2 8.8 3 2.8.7 5.8 1.2 8.7 1.3 2.7-.1 5.5-.4 8.1-1l3.3-.5-.5 3.3c-.5.2-1 .4-1.6.6-2.6.8-5.2 1.7-7.7 2.9-2.6 1.3-5 2.9-7.3 4.7-2.4 1.8-4.8 3.8-7.2 6s-5 4.3-7.6 6.3c-4.9 4-10.7 6.7-16.9 8-6 1.3-12.2 1.2-18.2-.1-6-1.6-12-3.6-17.8-6-11.5-3.8-22.4-8.7-31.4-16.3 6.4-2.7 12-4.1 17.6-6z"/><path class="st4" d="M427.5 514.2c2.8.6 5.6 1.1 8.3 1.7s5.5 1 8.2 1.4c5.4.8 11.1.8 16.2 1.5 4.9.6 9.7 2.2 13.9 4.7 4.6 2.8 8.7 6.5 11.9 10.9 1.9 2.2 3.8 4.9 5.9 7.3 2 2.4 4.1 4.7 6.4 6.8 2.2 2 4.5 3.8 7 5.3 2.5 1.2 5 2.2 7.6 2.9l3.1 1.1-2 2.6c-.6-.1-1.1-.1-1.7-.2-2.7-.6-5.4-.9-8.1-1.1-2.9 0-5.8.3-8.6.8-3 .4-6 1.1-9.2 1.9s-6.4 1.5-9.6 2c-6.2 1.2-12.6.8-18.7-1-5.9-1.7-11.3-4.7-16-8.7-4.6-4.3-8.8-8.9-12.8-13.7-8.3-8.8-15.6-18.3-20-29.2 6.8.7 12.4 2.1 18.2 3z"/><path class="st2" d="M398.9 257.9c3.1.3 6.1.6 9 1s5.9.5 8.9.7c5.9.4 12-.3 17.5 0 5.3.1 10.5 1.4 15.4 3.6 5.2 2.6 9.9 6.1 13.8 10.5 2.3 2.2 4.6 4.8 7 7.2 2.4 2.4 4.9 4.6 7.5 6.6 2.5 1.9 5.2 3.6 8.1 4.9 2 .8 4.1 1.4 6.2 1.9l-.6 4.1c-2-.2-4.1-.3-6.1-.1-3.1.3-6.2.9-9.2 1.7-3.1.8-6.4 1.8-9.7 2.9-3.3 1-6.7 2.2-10.1 3-6.5 1.9-13.4 2.1-20.1.8-6.5-1.3-12.6-3.9-18-7.7-5.3-4.1-10.3-8.6-15-13.4-9.7-8.6-18.5-18-24.2-29.2 7.1.1 13.3 1 19.6 1.5z"/><path class="st2" d="M413.4 296.1c2.6.3 5.3.5 7.8.8s5.1.5 7.6.6c5 .3 10.3-.2 15 0 4.6.1 9 1.2 13.2 3.1 4.5 2.2 8.5 5.3 11.8 9 2 1.9 3.9 4.1 6 6.1 2 2 4.2 3.9 6.4 5.6 2.2 1.6 4.5 3.1 6.9 4.2 1.7.7 3.5 1.2 5.3 1.6l-.5 3.5c-1.7-.2-3.5-.2-5.2-.1-2.7.2-5.3.7-7.9 1.5-2.7.7-5.4 1.5-8.3 2.5s-5.7 1.9-8.6 2.6c-5.6 1.6-11.5 1.8-17.2.7-5.5-1.1-10.8-3.3-15.4-6.6-4.5-3.5-8.8-7.4-12.9-11.5-8.3-7.4-15.9-15.4-20.8-25 6.2.2 11.4 1.1 16.8 1.4z"/></svg>