<svg xmlns="http://www.w3.org/2000/svg" viewBox="0 0 1000 1000" style="enable-background:new 0 0 1000 1000" xml:space="preserve"><style>.st1,.st2{fill:#fff}.st2{opacity:.35;enable-background:new}</style><g id="Layer_20"><g style="opacity:.57"><path class="st1" d="M427.7 250.2c-.9-3.9-2.2-7.6-3.8-11.3-2.2 8.5-5.4 17-10.1 24.2-8.8 13.2-11.3 23.3-22.1 33.2-3.9 3.5-19.5 7.3-18.9-6.1.5-10.4 19.1-12.2 30.7-35.1 4.4-8.8 5.3-23.7 5.4-38.9-13.3-14.9-33.4-28.1-60.5-33.3-2.6-.5-5.2-1-7.8-1.4 1.4 7.9 3.3 15.6 5.6 23.3 9.6 28.4 14.4 43 8.4 53.6-7.7 13.6-28.9 4.7-31.5-8.4-4-20.4 3.5-27.8 3-46.2-.3-10.8-5.4-19-12.2-25.1-10.1-.5-20.2-.4-30.2.2-13.5.8-26.9 2.9-40 6.4.5 2.3 1.1 4.5 1.6 6.7 2 7.4 4.6 14.6 7.5 21.7 10.7 23.4 8.7 31.9 4.5 41.5-5.4 12.3-16.3 7.9-20.5 4.8-11.3-8.5-4.7-32.2-2.6-42.6 1.8-9.6 1.9-19.4.2-28.9-2 .7-3.9 1.5-5.6 2.4 0 0-45.3 18.2-78.9 32.7 3 3.7 6.3 7.1 9.9 10.2 9.5 7.7 10.4 11.7 10.6 16.6.3 6.3-5.2 6.8-7.7 6.3-6.6-1.2-8.8-12.6-10-17.5-1.4-5-3.9-9.7-7.1-13.8-13.6 6-24.7 11.1-29.2 13.8 0 0 .9 14 4.1 34.9 8.5-1.8 11.9-.3 15.5 2 5.3 3.4 2.5 8.2.7 9.9-3.3 3.2-9.3 1.9-14.3.2 1.7 9.5 3.7 19.9 6.3 30.7 3.7-.7 6-1.3 6-1.3 17.9-5 23.6-2.5 29.9 1.5 8.1 5.2 3.8 12.5 1.1 15.1-7.3 7.1-23.4-.3-30.5-3-1.3-.5-2.5-.9-3.7-1.2 5 19.1 11.7 39 20.3 57 8 1 16.6-.4 23.9-6.6 12-10.3 12.4-19.4 27.7-28.6 9.8-5.9 27.8 2.5 23.5 15.2-3.3 9.9-15.4 15.4-39.1 25.6-8.7 4.1-17.1 9-25 14.5 5.8 9.4 12.9 18 20.9 25.5 17 15.6 35.9 29 56.4 39.7 7.3-11.2 13.8-22.9 19.3-35.1 6.4-14.5 7.2-24.8 16.1-36.4 3.2-4.1 18-10.5 19.6 2.8 1.3 10.4-7.4 20.5-24.3 39.9 0 0-14.1 16.8-21.2 33.4 22.6 10.1 48.3 16.1 72.8 9.3 0 0 38.2-9.2 47.5-58.5 0 0 8.4-33.2-4.7-52.8-.5-.7-1-1.5-1.6-2.2.1 0 2-1 5.1-2.8 11.7-6.9 40.6-26.8 52.2-61 .5-.4 12.3-32.1 6.8-56.7zm-255 47.7c-3.5 2-7.1 1.8-8.6-.8s2.1-6 5.6-8c3.5-2 7.8-.5 9.3 2.1 1.5 2.5-2.7 4.6-6.3 6.7zm33.8-17.7c-1-9.5 2.8-17.7 8.4-18.3 5.7-.6 9.3 7.4 10.4 16.9 1 9.5-1 16.8-6.7 17.4-5.7.7-11.1-6.5-12.1-16zm19.6 51.3c-3.9 4.2-8.4 5.7-10.9 3.4-2.5-2.3 1.1-8.2 5-12.4 3.9-4.2 6.6-5 9.1-2.7 2.5 2.4.7 7.6-3.2 11.7zm11.6 51.1c-3.4 3.7-7.4 5.1-9.6 3-2.2-2.1 1-7.2 4.4-10.9 3.4-3.7 5.8-4.4 8-2.4 2.2 2.1.6 6.7-2.8 10.3zm40.2-11.6c-7.2 9.6-16.4 14-22.1 9.7-5.8-4.3.5-17.6 7.7-27.2 7.2-9.6 12.7-12.1 18.4-7.8s3.2 15.6-4 25.3zm7.7-53.7c-6.2.7-12.1-7.2-13.2-17.6-1.1-10.4 3-19.3 9.2-19.9 6.2-.7 10.2 8.1 11.3 18.5 1.1 10.3-1.2 18.3-7.3 19zm17.1 59.3c-1.5 4.8-4.6 7.7-7.4 6.8-2.8-.9-2.2-6.9-.6-11.7 1.6-4.8 5.9-7.3 8.8-6.4 2.9 1 .7 6.5-.8 11.3zm16.3-54.5c-7.1-3.2-6.2-17.4-1-29.2 5.3-11.9 13-17 20.1-13.8 7.1 3.2 7.1 15.6 1.9 27.5-5.3 11.8-13.9 18.6-21 15.5zm16.1 22.1c-2.3-.1-4.2-3.3-4.1-7.2.1-3.9 2-7.1 4.4-7 2.4.1 4.2 3.3 4.1 7.2 0 3.8-2 7-4.4 7zm12 36.1c-1.5 4.3-4.3 6.9-6.9 6-2.5-.9-1.8-6.3-.3-10.6s3.2-5.8 5.8-4.8c2.6.8 2.9 5.2 1.4 9.4z"/><path class="st1" d="m676.4 899.1-25.5-22.5c-2.9-73.2-10.9-134.9-22-186.9-4.6-21.4-9.7-41.3-15.2-59.5-1.4-4.5-2.7-8.8-4.1-13.1-5.7-17.6-12.3-34.9-19.8-51.8-37.4-84.5-83-122.1-110.4-138.1-1.7-1-3.4-2-5.1-2.9-.9-.5-1.7-.9-2.6-1.4-3.5-1.8-7.1-3.4-10.8-4.8-.9-.4-1.8-.7-2.8-1h.1-.1l-2.4-1.4c-3.8-2.2-7.5-4.3-11.3-6.4-11.4-6.3-23.1-12.3-34.8-18-11.8-5.6-23.8-11-35.9-15.8-2.6-1-5.2-2.1-7.9-3.1-.3-.4-.5-.7-.8-1.1-.3-.4-.5-.7-.8-1.1.1 0 2-1 5.1-2.8 2.2.7 4.4 1.5 6.6 2.3 12.5 4.4 24.8 9.3 37 14.5 12.2 5.2 24.2 10.8 36 16.8 6 2.9 11.7 6 17.6 9.1l1.1-.6c60.2 28 103.2 87.7 133.9 156.1 4.3 9.5 8.3 19.2 12.1 28.9 3.7 9.5 7.1 19.1 10.4 28.7.7 1.9 1.3 3.9 1.9 5.8 4.8 14.6 9.2 29.3 13.2 43.9 4.6 16.9 8.7 33.6 12.2 49.9 21.2 96.3 25.1 176.3 25.1 176.3z"/><path class="st1" d="M369.2 367.5c-3.1 1.8-5 2.7-5.1 2.8 0 0 2-1 5.1-2.8zM458.1 417c.9.3 1.9.7 2.8 1-.9-.3-1.8-.6-2.8-1 0 .1 0 .1 0 0zM460.9 418.1c3.7 1.4 7.3 3 10.8 4.8-3.6-1.8-7.2-3.4-10.8-4.8z"/><path class="st1" d="M365 371.3c.3.4.5.7.8 1.1-9.6-3.6-19.3-7-29-9.7l1-4.5c10.6 2.5 21.1 5.6 31.5 9.2-3.2 1.8-5.1 2.8-5.1 2.8.2.4.5.8.8 1.1zM479.4 427.1l-1.1 1.9-16.8-10c-1.1-.6-2.2-1.3-3.3-1.9h-.1c.9.3 1.9.7 2.8 1 3.7 1.4 7.3 3 10.8 4.8.9.4 1.7.9 2.6 1.4 1.7.8 3.4 1.8 5.1 2.8z"/></g><path class="st2" d="m515.4 282.4-10.3 6S376.3 140.1 249 222c0 0-18.9 8-24.3-9.2 0 0-34.3 24.8-50.9-7.4s-9.2-37.1-1.9-40.6c7.3-3.5 11.4-18.5 17.4-22.1 5.9-3.6 48.9 14.2 69.2 21.6 20.3 7.4 7.5-6.3-23.6-31.4-31.2-25.1 1.3-29.2 12.8-33.7 11.6-4.5 25 .9 29.4 29.2 0 0 38 57.8 38.7 18.8 0 0-8.9-24.5-33.3-47.6s23.9-32.7 23.9-32.7 9.7-.7 17.8 15.7c-1.2 11.1 3.4 23.5 9.6 34.7 6.9 31.7 14.8 53.8 26.3 35.2 0 0-15.6-15.9-26.3-35.2-.9-4.3-1.9-8.8-2.8-13.4-1.8-9.2-4.2-16.1-6.8-21.3.5-4.4 1.8-8.5 4.2-12.4 0 0 11.7-5.9 28.2 27.7s45.6 80.8 43.9 38.8c-1.7-42-29.9-40.3-42.3-56.8-12.4-16.5-6.2-24.3 15.5-16.7 21.6 7.5 27.2-7.3 33.2 3 6 10.3 17.2 25.3 21.8 52.2 4.5 26.9 14.8 51.5 23.5 32.8 8.7-18.7-35.2-72.9-21.9-81.5 13.3-8.6 30.2 20.9 30.2 20.9s27.9-15.6 34.4 4.5-13.7 74 4.7 56.2c18.3-17.8 13.6-72.7-5.5-92.5-19.1-19.9-5.2-35.3 7.2-17.5 12.3 17.9 51.8 43.7 50.4 58.9-1.4 15.2-23.2 56.4-17.8 73.7s19.6-31.7 24.2-50.8 24.8 3.6 17.7 35.1-3.1 19.2 18.5 26.8c21.6 7.5 22.3 46.6 13.2 54.2-9.1 7.5-13.6-34.7-35.3-25.5-21.7 9.2-23.8 16-16.3 26.4 7.4 10.4 24.3 24.5 40.9 26 16.6 1.5-26 10.2-69.8.7-.4-.1-16.8-4.4-11.6 15.6z"/><path class="st2" d="m736.7 963.3-17-12.7S598.2 522.7 505.1 288.4l10.3-6s180.4 470.9 221.3 680.9zM333.6 117.3c-6.2-11.2-10.7-23.6-9.6-34.7 2.5 5.2 4.9 12.1 6.8 21.3 1 4.6 1.9 9.1 2.8 13.4z"/><path d="M654.8 880.8s-16.6-293.2-44.7-459.4l8.4-1.6s51.8 332.5 46.4 472.5l-10.1-11.5z" style="opacity:.33;fill:#fff;enable-background:new"/><path d="M688.6 638c-1.2 7.1-4.2 14.9-8 22.5-.5.9-1 1.8-1.4 2.8-2.6 4.9-5.5 9.7-8.5 14.2s-5.9 8.4-8.8 12c-17.9 22.2-26.7-11.7-39.5-30-12.9-18.3-21.7-23.1-37.6-22-15.9 1.2 9.8 23.3 26 34s26.1 18.2 25 44.5c-1.1 26.3-28.7 39.7-58.7 50.2-30 10.5-29.9-5.3-33.6-22.9-3.7-17.5 7.7-41.6 1.1-55.4-6.6-13.8-22.2-2-13 26.6 9.3 28.6 5 46.7-2.8 60.5s-37.6 21.7-64.8 29.8-11.2-7.6.8-23.7 19.2-51.1 7.8-71.9c-11.3-20.9-13.6-10.5-8.8 24.3s-17.6 32.8-29.6 62.1S419 818 419 818c-13-17-35.2-4.5-35.2-4.5-25.6-8.9 10.2-40 25.3-74.3 15-34.3-7.4-35-14.1-5.2s-34 84.1-40.2 79.6c-6.2-4.5-26.6 1.6-45.5 6.4-18.9 4.9-19.7-1.8-9.8-37.9s-7.4-20.5-19.9.8c-12.5 21.3-30.1 26.4-22.8 17.8 7.4-8.6 5.1-12.7 5.1-12.7-6.1-49.4 5-40.5 36.9-57.4s23.4-24.3 6.9-17.9-61.6 38-65.4 36.3c-3.8-1.6-.7-6.7 6.9-17.9 7.6-11.2 9.2-28.2 9.2-28.2 22.6-31 44.3-22.4 81-33.6 36.7-11.2-6.7-13.8-26.6-13s-54.5 33.4-66.4 33.6c-11.9.2 4.9-10.1 7.6-25.7 2.7-15.6 12.4-34.5 46.1-27.5s74.9-10.4 74.9-10.4c49.5 7.1 46.5-2.4 46.5-2.4s-42.9-22.4-93.3-4.5-52.9.5-52.9.5c17.4-2.4 26.7-17.4 26.7-17.4s33.5-19.4 85.7-12.1c52.2 7.3 38.8-5.7 13.2-14.6-25.6-8.9-72.3 10.6-72.3 10.6-45.6 7.8-1.4-27.9-1.4-27.9 21.3-2 32.1-19.5 32.1-19.5 19.1-6.2 61.9 16.2 61.9 16.2 18.6-1 42.8 22.4 42.8 22.4 34.5 12.4 23.3-9.8 12.3-18.7L455.8 544c-7.4-20.5-28.2-23.7-51-20.5-22.8 3.2-49 .8-35-7.1 13.9-8 23.3-24.3 34.8-33.8 11.4-9.5 32.6 4.3 32.6 4.3 35.1-8.7 52.3 6.1 58.4 11.9 6.1 5.8 3.8 45.2 20.7 33.6 16.9-11.7 6.7-29.8-8.5-37.8-15.1-8-10.8-11.5-10.8-11.5 73-18.5 67.6 11.4 65.2 24.4-2.5 13 8.1 56.2 8.1 56.2 12.6-22.6 43.1-9.3 43.1-9.3 6-.4 11.6-.7 16.7-.8 4.2-.1 8 0 11.6.2 1.2.1 2.3.1 3.4.2 5.7.4 11.3 1.4 16.8 3.1 17 5.5 22.3 17.4 20.6 36.6-.5 6-2 10.1-4.1 12.9-3.5 4.8-8.6 5.5-13.5 4.6-.7-.1-1.3-.2-1.9-.4-4.2-1.2-8.2-3-11.9-5.4l-.6-.2c-45.8-14.6-62.7-14.7-47.3 3.8 8.8 10.6 32.7 11 51.6 9.3 3.6-.3 7.1-.7 10.2-1.1.7-.1 1.3-.2 2-.3 8.1-1.1 13.7-2.3 13.7-2.3.2.1.4.3.6.4 7.3 4.7 9 13.2 7.3 23z" style="opacity:.68;fill:#fff;enable-background:new"/><path d="M513.3 468.6c.1 6.4 1.2 12.8 3.1 18.9.2.8.5 1.6.7 2.4 1.3 4.2 3 8.4 4.7 12.4s3.4 7.5 5.2 10.7c10.9 20 22.7-5.3 35.5-17.9 12.8-12.6 20.4-15.1 32.8-11.8s-11.1 17-25.4 23.1c-14.3 6.1-23.2 10.6-26.1 31.5-3 20.9 16.9 35.4 39 48 22.1 12.6 24.3.1 29.8-13.2s-.1-33.8 7.1-43.8 17.8 1.6 6.4 22.8-10.7 36.1-6.5 48.1c4.2 12 26.5 22.5 46.8 32.8 20.2 10.3 9.9-4.4 2.8-18.8s-7.7-43 4.2-57.8c11.9-14.8 12.3-6.2 3.5 20.5s9.1 28.3 14.3 53.1c5.2 24.8 8.8 19.8 8.8 19.8 12.7-11.5 28.4 1.5 28.4 1.5 21.5-3.3-2.3-33-9.2-62.2-6.9-29.2 10.9-26.5 11.8-2.1 1 24.4 14.6 71.2 20.2 68.5 5.5-2.6 20.7 5.1 34.9 11.6s15.7 1.4 13.2-28.4c-2.6-29.9 8.8-15.1 15.5 3.5 6.8 18.6 20 25.1 15.4 17.3s-2.2-10.8-2.2-10.8c11.9-38.1 1.9-32.6-20.9-50.5-22.8-17.9-14.9-22.6-2.9-15.2s43 38.8 46.3 38.1 1.5-5.2-2.9-15.1c-4.4-9.9-3.2-23.6-3.2-23.6-13.4-27.7-31.7-24-59-38.1-27.3-14.1 7.2-9.9 22.8-6.4 15.6 3.5 38.2 34.2 47.5 36.1 9.3 1.9-2.4-8.7-2.3-21.4.1-12.7-4.8-29-32.4-28.3-27.6.7-57.5-19-57.5-19-40.1-1.5-36.2-8.6-36.2-8.6s37-11.5 74.2 9.9 41.6 8 41.6 8c-13.4-4.4-18.5-17.6-18.5-17.6s-23.6-20.1-65.7-21.8-29.8-10.1-8.3-13.5c21.5-3.3 55.4 18.8 55.4 18.8 34.8 12.7 5.1-21.7 5.1-21.7-16.5-4.7-22.5-20-22.5-20-14.1-7.6-51.2 3.8-51.2 3.8-14.5-3.4-37 11.5-37 11.5-29 4.8-17-11.1-7-16.5l16.7-9.1c8.8-15.1 25.7-14.6 43.1-8.8 17.5 5.8 38.4 7.7 28.6-.6s-14.9-22.5-22.5-31.7-26.4-1.3-26.4-1.3c-26.4-11.9-42.1-2.8-47.7 1-5.6 3.7-9.5 35.1-21.2 23.5-11.6-11.7-1-24.4 12.1-28.6 13-4.1 10.2-7.5 10.2-7.5-54.9-25.1-54.9-.7-54.9 9.8 0 10.6-14.5 43.1-14.5 43.1-6.6-19.7-32.5-13.6-32.5-13.6-4.7-1.2-9-2.2-13-3-3.3-.7-6.3-1.2-9.2-1.5l-2.7-.3c-4.5-.5-9.1-.5-13.7 0-14.2 1.8-20.1 10.5-21.5 25.8-.4 4.8.1 8.3 1.3 10.7 2.1 4.2 6 5.5 10 5.6h1.6c3.5-.3 6.9-1.2 10.2-2.5l.5-.1c38.2-4.9 51.5-2.6 36.7 9.8-8.5 7.1-27.3 3.9-42-.1-2.8-.8-5.5-1.6-7.9-2.3l-1.5-.5c-6.3-2.1-10.5-3.8-10.5-3.8-.2.1-.4.1-.5.2-6.2 2.8-8.8 9.2-8.9 17.2z" style="opacity:.31;fill:#fff;enable-background:new"/><path d="M446.8 417.2c.8.4 1.6.9 2.4 1.3-2-.7-3.1-.9-3.1-.9l.7-.4z" style="opacity:.3;fill:#fff;enable-background:new"/></g></svg>