<svg version="1.1" width="24" height="24" xmlns="http://www.w3.org/2000/svg" shape-rendering="crispEdges">
  <rect x="7" y="19" width="1" height="1" fill="#AE0808" />
  <rect x="8" y="19" width="1" height="1" fill="#EAE6E6" />
  <rect x="9" y="19" width="1" height="1" fill="#AE0808" />
  <rect x="10" y="19" width="1" height="1" fill="#121212" />
  <rect x="14" y="19" width="1" height="1" fill="#121212" />
  <rect x="15" y="19" width="1" height="1" fill="#AE0808" />
  <rect x="16" y="19" width="1" height="1" fill="#EAE6E6" />
  <rect x="7" y="20" width="1" height="1" fill="#AE0808" />
  <rect x="8" y="20" width="1" height="1" fill="#EAE6E6" />
  <rect x="9" y="20" width="1" height="1" fill="#AE0808" />
  <rect x="10" y="20" width="1" height="1" fill="#121212" />
  <rect x="11" y="20" width="1" height="1" fill="#121212" />
  <rect x="12" y="20" width="1" height="1" fill="#121212" />
  <rect x="13" y="20" width="1" height="1" fill="#121212" />
  <rect x="14" y="20" width="1" height="1" fill="#121212" />
  <rect x="15" y="20" width="1" height="1" fill="#AE0808" />
  <rect x="16" y="20" width="1" height="1" fill="#EAE6E6" />
  <rect x="7" y="21" width="1" height="1" fill="#AE0808" />
  <rect x="8" y="21" width="1" height="1" fill="#EAE6E6" />
  <rect x="9" y="21" width="1" height="1" fill="#AE0808" />
  <rect x="10" y="21" width="1" height="1" fill="#AE0808" />
  <rect x="11" y="21" width="1" height="1" fill="#EAE6E6" />
  <rect x="12" y="21" width="1" height="1" fill="#AE0808" />
  <rect x="13" y="21" width="1" height="1" fill="#EAE6E6" />
  <rect x="14" y="21" width="1" height="1" fill="#AE0808" />
  <rect x="15" y="21" width="1" height="1" fill="#AE0808" />
  <rect x="16" y="21" width="1" height="1" fill="#EAE6E6" />
  <rect x="10" y="22" width="1" height="1" fill="#EAE6E6" />
  <rect x="11" y="22" width="1" height="1" fill="#AE0808" />
  <rect x="12" y="22" width="1" height="1" fill="#EAE6E6" />
  <rect x="13" y="22" width="1" height="1" fill="#AE0808" />
  <rect x="14" y="22" width="1" height="1" fill="#EAE6E6" />
  <rect x="10" y="23" width="1" height="1" fill="#AE0808" />
  <rect x="11" y="23" width="1" height="1" fill="#EAE6E6" />
  <rect x="12" y="23" width="1" height="1" fill="#AE0808" />
  <rect x="13" y="23" width="1" height="1" fill="#EAE6E6" />
  <rect x="14" y="23" width="1" height="1" fill="#AE0808" />
</svg>