<svg width="24" height="24" viewBox="0 0 24 24" fill="none" xmlns="http://www.w3.org/2000/svg">
<path d="M6 12H5V13H6V12Z" fill="black"/>
<path d="M7 12H6V13H7V12Z" fill="black"/>
<path d="M8 12H7V13H8V12Z" fill="black"/>
<path d="M9 13H8V14H9V13Z" fill="black"/>
<path d="M10 14H9V15H10V14Z" fill="black"/>
<path d="M11 14H10V15H11V14Z" fill="black"/>
<path d="M12 14H11V15H12V14Z" fill="black"/>
<path d="M13 14H12V15H13V14Z" fill="black"/>
<path d="M14 14H13V15H14V14Z" fill="black"/>
<path d="M15 14H14V15H15V14Z" fill="black"/>
<path d="M16 14H15V15H16V14Z" fill="black"/>
<path d="M17 14H16V15H17V14Z" fill="black"/>
<path d="M18 14H17V15H18V14Z" fill="black"/>
<path d="M19 14H18V15H19V14Z" fill="black"/>
<path d="M10 15H9V16H10V15Z" fill="#282828"/>
<path d="M11 15H10V16H11V15Z" fill="black"/>
<path d="M12 15H11V16H12V15Z" fill="black"/>
<path d="M13 15H12V16H13V15Z" fill="black"/>
<path d="M14 15H13V16H14V15Z" fill="black"/>
<path d="M15 15H14V16H15V15Z" fill="black"/>
<path d="M16 15H15V16H16V15Z" fill="black"/>
<path d="M17 15H16V16H17V15Z" fill="black"/>
<path d="M18 15H17V16H18V15Z" fill="black"/>
<path d="M19 15H18V16H19V15Z" fill="black"/>
<path d="M10 16H9V17H10V16Z" fill="#282828"/>
<path d="M11 16H10V17H11V16Z" fill="#282828"/>
<path d="M12 16H11V17H12V16Z" fill="black"/>
<path d="M13 16H12V17H13V16Z" fill="black"/>
<path d="M14 16H13V17H14V16Z" fill="black"/>
<path d="M15 16H14V17H15V16Z" fill="black"/>
<path d="M16 16H15V17H16V16Z" fill="black"/>
<path d="M17 16H16V17H17V16Z" fill="black"/>
<path d="M18 16H17V17H18V16Z" fill="black"/>
<path d="M19 16H18V17H19V16Z" fill="black"/>
<path d="M19 17H18V18H19V17Z" fill="#282828"/>
<path d="M11 17H10V18H11V17Z" fill="#282828"/>
<path d="M12 17H11V18H12V17Z" fill="#282828"/>
<path d="M13 17H12V18H13V17Z" fill="#282828"/>
<path d="M14 17H13V18H14V17Z" fill="#282828"/>
<path d="M15 17H14V18H15V17Z" fill="#282828"/>
<path d="M16 17H15V18H16V17Z" fill="#282828"/>
<path d="M17 17H16V18H17V17Z" fill="#282828"/>
<path d="M18 17H17V18H18V17Z" fill="#282828"/>
</svg>
