<svg version="1.1" width="24" height="24" xmlns="http://www.w3.org/2000/svg" shape-rendering="crispEdges">
  <rect x="11" y="13" width="1" height="1" fill="#18409A" />
  <rect x="12" y="13" width="1" height="1" fill="#5B76B4" />
  <rect x="13" y="13" width="1" height="1" fill="#5B76B4" />
  <rect x="14" y="13" width="1" height="1" fill="#5B76B4" />
  <rect x="15" y="13" width="1" height="1" fill="#5B76B4" />
  <rect x="5" y="14" width="1" height="1" fill="#18409A" />
  <rect x="6" y="14" width="1" height="1" fill="#18409A" />
  <rect x="7" y="14" width="1" height="1" fill="#18409A" />
  <rect x="8" y="14" width="1" height="1" fill="#5B76B4" />
  <rect x="9" y="14" width="1" height="1" fill="#5B76B4" />
  <rect x="10" y="14" width="1" height="1" fill="#5B76B4" />
  <rect x="11" y="14" width="1" height="1" fill="#5B76B4" />
  <rect x="12" y="14" width="1" height="1" fill="#5B76B4" />
  <rect x="13" y="14" width="1" height="1" fill="#5B76B4" />
  <rect x="14" y="14" width="1" height="1" fill="#5B76B4" />
  <rect x="15" y="14" width="1" height="1" fill="#5B76B4" />
  <rect x="16" y="14" width="1" height="1" fill="#5B76B4" />
  <rect x="17" y="14" width="1" height="1" fill="#5B76B4" />
  <rect x="18" y="14" width="1" height="1" fill="#5B76B4" />
  <rect x="19" y="14" width="1" height="1" fill="#18409A" />
  <rect x="4" y="15" width="1" height="1" fill="#18409A" />
  <rect x="5" y="15" width="1" height="1" fill="#18409A" />
  <rect x="6" y="15" width="1" height="1" fill="#18409A" />
  <rect x="7" y="15" width="1" height="1" fill="#18409A" />
  <rect x="8" y="15" width="1" height="1" fill="#5B76B4" />
  <rect x="9" y="15" width="1" height="1" fill="#5B76B4" />
  <rect x="10" y="15" width="1" height="1" fill="#233A6D" />
  <rect x="11" y="15" width="1" height="1" fill="#5B76B4" />
  <rect x="12" y="15" width="1" height="1" fill="#5B76B4" />
  <rect x="13" y="15" width="1" height="1" fill="#233A6D" />
  <rect x="14" y="15" width="1" height="1" fill="#5B76B4" />
  <rect x="15" y="15" width="1" height="1" fill="#5B76B4" />
  <rect x="16" y="15" width="1" height="1" fill="#233A6D" />
  <rect x="17" y="15" width="1" height="1" fill="#5B76B4" />
  <rect x="18" y="15" width="1" height="1" fill="#5B76B4" />
  <rect x="19" y="15" width="1" height="1" fill="#18409A" />
  <rect x="20" y="15" width="1" height="1" fill="#18409A" />
  <rect x="4" y="16" width="1" height="1" fill="#18409A" />
  <rect x="5" y="16" width="1" height="1" fill="#18409A" />
  <rect x="6" y="16" width="1" height="1" fill="#18409A" />
  <rect x="7" y="16" width="1" height="1" fill="#18409A" />
  <rect x="8" y="16" width="1" height="1" fill="#5B76B4" />
  <rect x="9" y="16" width="1" height="1" fill="#5B76B4" />
  <rect x="10" y="16" width="1" height="1" fill="#233A6D" />
  <rect x="11" y="16" width="1" height="1" fill="#5B76B4" />
  <rect x="12" y="16" width="1" height="1" fill="#5B76B4" />
  <rect x="13" y="16" width="1" height="1" fill="#233A6D" />
  <rect x="14" y="16" width="1" height="1" fill="#5B76B4" />
  <rect x="15" y="16" width="1" height="1" fill="#5B76B4" />
  <rect x="16" y="16" width="1" height="1" fill="#233A6D" />
  <rect x="17" y="16" width="1" height="1" fill="#5B76B4" />
  <rect x="18" y="16" width="1" height="1" fill="#5B76B4" />
  <rect x="19" y="16" width="1" height="1" fill="#18409A" />
  <rect x="20" y="16" width="1" height="1" fill="#18409A" />
  <rect x="5" y="17" width="1" height="1" fill="#18409A" />
  <rect x="6" y="17" width="1" height="1" fill="#18409A" />
  <rect x="7" y="17" width="1" height="1" fill="#18409A" />
  <rect x="8" y="17" width="1" height="1" fill="#5B76B4" />
  <rect x="9" y="17" width="1" height="1" fill="#5B76B4" />
  <rect x="10" y="17" width="1" height="1" fill="#5B76B4" />
  <rect x="11" y="17" width="1" height="1" fill="#5B76B4" />
  <rect x="12" y="17" width="1" height="1" fill="#5B76B4" />
  <rect x="13" y="17" width="1" height="1" fill="#5B76B4" />
  <rect x="14" y="17" width="1" height="1" fill="#5B76B4" />
  <rect x="15" y="17" width="1" height="1" fill="#5B76B4" />
  <rect x="16" y="17" width="1" height="1" fill="#5B76B4" />
  <rect x="17" y="17" width="1" height="1" fill="#5B76B4" />
  <rect x="18" y="17" width="1" height="1" fill="#5B76B4" />
  <rect x="19" y="17" width="1" height="1" fill="#18409A" />
</svg>