<svg width="25" height="24" viewBox="0 0 25 24" fill="none" xmlns="http://www.w3.org/2000/svg">
<path d="M12.3906 14H11.3906V15H12.3906V14Z" fill="#FF6464"/>
<path d="M12.3906 15H11.3906V16H12.3906V15Z" fill="black"/>
<path d="M11.3906 15H10.3906V16H11.3906V15Z" fill="#FF6464"/>
<path d="M12.3906 16H11.3906V17H12.3906V16Z" fill="#FF6464"/>
<path d="M13.3906 14H12.3906V15H13.3906V14Z" fill="#FF6464"/>
<path d="M13.3906 15H12.3906V16H13.3906V15Z" fill="black"/>
<path d="M13.3906 16H12.3906V17H13.3906V16Z" fill="#FF6464"/>
<path d="M14.3906 14H13.3906V15H14.3906V14Z" fill="#FF6464"/>
<path d="M14.3906 15H13.3906V16H14.3906V15Z" fill="black"/>
<path d="M14.3906 16H13.3906V17H14.3906V16Z" fill="#FF6464"/>
<path d="M15.3906 14H14.3906V15H15.3906V14Z" fill="#FF6464"/>
<path d="M15.3906 15H14.3906V16H15.3906V15Z" fill="black"/>
<path d="M15.3906 16H14.3906V17H15.3906V16Z" fill="#FF6464"/>
<path d="M16.3906 14H15.3906V15H16.3906V14Z" fill="#FF6464"/>
<path d="M17.3906 14H16.3906V15H17.3906V14Z" fill="#FF6464"/>
<path d="M16.3906 15H15.3906V16H16.3906V15Z" fill="white"/>
<path d="M17.3906 15H16.3906V16H17.3906V15Z" fill="black"/>
<path d="M18.3906 15H17.3906V16H18.3906V15Z" fill="#FF6464"/>
<path d="M16.3906 16H15.3906V17H16.3906V16Z" fill="#FF6464"/>
<path d="M17.3906 16H16.3906V17H17.3906V16Z" fill="#FF6464"/>
</svg>
