<?xml version="1.0" encoding="UTF-8" ?>
<svg version="1.1" width="24" height="24" xmlns="http://www.w3.org/2000/svg" shape-rendering="crispEdges">
<rect x="11" y="14" width="1" height="1" fill="#050505" />
<rect x="12" y="14" width="1" height="1" fill="#FFF8F7" />
<rect x="13" y="14" width="1" height="1" fill="#FFF8F7" />
<rect x="14" y="14" width="1" height="1" fill="#FFF8F7" />
<rect x="15" y="14" width="1" height="1" fill="#FFF8F7" />
<rect x="16" y="14" width="1" height="1" fill="#050505" />
<rect x="12" y="15" width="1" height="1" fill="#FFF8F7" />
<rect x="13" y="15" width="1" height="1" fill="#050505" />
<rect x="14" y="15" width="1" height="1" fill="#050505" />
<rect x="15" y="15" width="1" height="1" fill="#FFF8F7" />
<rect x="16" y="15" width="1" height="1" fill="#F7422E" />
<rect x="14" y="16" width="1" height="1" fill="#F7422E" />
<rect x="15" y="16" width="1" height="1" fill="#F7422E" />
<rect x="16" y="16" width="1" height="1" fill="#F7422E" />
<rect x="13" y="17" width="1" height="1" fill="#F7422E" />
<rect x="15" y="17" width="1" height="1" fill="#F7422E" />
</svg>