<svg width="25" height="25" viewBox="0 0 25 25" fill="none" xmlns="http://www.w3.org/2000/svg">
<path d="M13.5234 2.48828H12.5234V3.48828H13.5234V2.48828Z" fill="#F58F0F"/>
<path d="M14.5234 2.48828H13.5234V3.48828H14.5234V2.48828Z" fill="#F58F0F"/>
<path d="M15.5234 2.48828H14.5234V3.48828H15.5234V2.48828Z" fill="#F58F0F"/>
<path d="M11.5234 3.48828H10.5234V4.48828H11.5234V3.48828Z" fill="#FFD900"/>
<path d="M12.5234 3.48828H11.5234V4.48828H12.5234V3.48828Z" fill="#FFD900"/>
<path d="M13.5234 3.48828H12.5234V4.48828H13.5234V3.48828Z" fill="#FFD900"/>
<path d="M14.5234 3.48828H13.5234V4.48828H14.5234V3.48828Z" fill="#FFD900"/>
<path d="M15.5234 3.48828H14.5234V4.48828H15.5234V3.48828Z" fill="#FFD900"/>
<path d="M16.5234 3.48828H15.5234V4.48828H16.5234V3.48828Z" fill="#FFD900"/>
<path d="M17.5234 3.48828H16.5234V4.48828H17.5234V3.48828Z" fill="#FFD900"/>
<path d="M10.5234 4.48828H9.52344V5.48828H10.5234V4.48828Z" fill="#FFD900"/>
<path d="M11.5234 4.48828H10.5234V5.48828H11.5234V4.48828Z" fill="#FFD900"/>
<path d="M12.5234 4.48828H11.5234V5.48828H12.5234V4.48828Z" fill="#FFD900"/>
<path d="M13.5234 4.48828H12.5234V5.48828H13.5234V4.48828Z" fill="#FFD900"/>
<path d="M14.5234 4.48828H13.5234V5.48828H14.5234V4.48828Z" fill="#FFD900"/>
<path d="M15.5234 4.48828H14.5234V5.48828H15.5234V4.48828Z" fill="#FFD900"/>
<path d="M16.5234 4.48828H15.5234V5.48828H16.5234V4.48828Z" fill="#FFD900"/>
<path d="M17.5234 4.48828H16.5234V5.48828H17.5234V4.48828Z" fill="#FFD900"/>
<path d="M18.5234 4.48828H17.5234V5.48828H18.5234V4.48828Z" fill="#FFD900"/>
<path d="M9.52344 5.48828H8.52344V6.48828H9.52344V5.48828Z" fill="#FFD900"/>
<path d="M10.5234 5.48828H9.52344V6.48828H10.5234V5.48828Z" fill="#FFD900"/>
<path d="M11.5234 5.48828H10.5234V6.48828H11.5234V5.48828Z" fill="#FFD900"/>
<path d="M12.5234 5.48828H11.5234V6.48828H12.5234V5.48828Z" fill="#FFD900"/>
<path d="M13.5234 5.48828H12.5234V6.48828H13.5234V5.48828Z" fill="#FFD900"/>
<path d="M14.5234 5.48828H13.5234V6.48828H14.5234V5.48828Z" fill="#FFD900"/>
<path d="M15.5234 5.48828H14.5234V6.48828H15.5234V5.48828Z" fill="#FFD900"/>
<path d="M16.5234 5.48828H15.5234V6.48828H16.5234V5.48828Z" fill="#FFD900"/>
<path d="M17.5234 5.48828H16.5234V6.48828H17.5234V5.48828Z" fill="#FFD900"/>
<path d="M18.5234 5.48828H17.5234V6.48828H18.5234V5.48828Z" fill="#FFD900"/>
<path d="M19.5234 5.48828H18.5234V6.48828H19.5234V5.48828Z" fill="#FFD900"/>
<path d="M9.52344 6.48828H8.52344V7.48828H9.52344V6.48828Z" fill="#F58F0F"/>
<path d="M10.5234 6.48828H9.52344V7.48828H10.5234V6.48828Z" fill="#FFD900"/>
<path d="M11.5234 6.48828H10.5234V7.48828H11.5234V6.48828Z" fill="#F58F0F"/>
<path d="M12.5234 6.48828H11.5234V7.48828H12.5234V6.48828Z" fill="#FFD900"/>
<path d="M13.5234 6.48828H12.5234V7.48828H13.5234V6.48828Z" fill="#F58F0F"/>
<path d="M14.5234 6.48828H13.5234V7.48828H14.5234V6.48828Z" fill="#FFD900"/>
<path d="M15.5234 6.48828H14.5234V7.48828H15.5234V6.48828Z" fill="#F58F0F"/>
<path d="M16.5234 6.48828H15.5234V7.48828H16.5234V6.48828Z" fill="#FFD900"/>
<path d="M17.5234 6.48828H16.5234V7.48828H17.5234V6.48828Z" fill="#F58F0F"/>
<path d="M18.5234 6.48828H17.5234V7.48828H18.5234V6.48828Z" fill="#FFD900"/>
<path d="M19.5234 6.48828H18.5234V7.48828H19.5234V6.48828Z" fill="#F58F0F"/>
</svg>
