<svg width="25" height="24" viewBox="0 0 25 24" fill="none" xmlns="http://www.w3.org/2000/svg">
<path d="M11.7578 3H10.7578V4H11.7578V3Z" fill="#2E2E2E"/>
<path d="M12.7578 3H11.7578V4H12.7578V3Z" fill="#2E2E2E"/>
<path d="M13.7578 3H12.7578V4H13.7578V3Z" fill="#444444"/>
<path d="M14.7578 3H13.7578V4H14.7578V3Z" fill="#444444"/>
<path d="M15.7578 3H14.7578V4H15.7578V3Z" fill="#444444"/>
<path d="M16.7578 3H15.7578V4H16.7578V3Z" fill="#444444"/>
<path d="M10.7578 4H9.75781V5H10.7578V4Z" fill="#2E2E2E"/>
<path d="M11.7578 4H10.7578V5H11.7578V4Z" fill="#444444"/>
<path d="M12.7578 4H11.7578V5H12.7578V4Z" fill="#444444"/>
<path d="M13.7578 4H12.7578V5H13.7578V4Z" fill="#444444"/>
<path d="M14.7578 4H13.7578V5H14.7578V4Z" fill="#444444"/>
<path d="M15.7578 4H14.7578V5H15.7578V4Z" fill="#444444"/>
<path d="M16.7578 4H15.7578V5H16.7578V4Z" fill="#444444"/>
<path d="M17.7578 4H16.7578V5H17.7578V4Z" fill="#444444"/>
<path d="M9.75781 5H8.75781V6H9.75781V5Z" fill="#2E2E2E"/>
<path d="M10.7578 5H9.75781V6H10.7578V5Z" fill="#444444"/>
<path d="M11.7578 5H10.7578V6H11.7578V5Z" fill="#444444"/>
<path d="M12.7578 5H11.7578V6H12.7578V5Z" fill="#444444"/>
<path d="M13.7578 5H12.7578V6H13.7578V5Z" fill="#444444"/>
<path d="M14.7578 5H13.7578V6H14.7578V5Z" fill="#444444"/>
<path d="M15.7578 5H14.7578V6H15.7578V5Z" fill="#444444"/>
<path d="M16.7578 5H15.7578V6H16.7578V5Z" fill="#444444"/>
<path d="M17.7578 5H16.7578V6H17.7578V5Z" fill="#444444"/>
<path d="M18.7578 5H17.7578V6H18.7578V5Z" fill="#444444"/>
<path d="M9.75781 6H8.75781V7H9.75781V6Z" fill="black"/>
<path d="M10.7578 6H9.75781V7H10.7578V6Z" fill="black"/>
<path d="M11.7578 6H10.7578V7H11.7578V6Z" fill="black"/>
<path d="M12.7578 6H11.7578V7H12.7578V6Z" fill="black"/>
<path d="M13.7578 6H12.7578V7H13.7578V6Z" fill="black"/>
<path d="M14.7578 6H13.7578V7H14.7578V6Z" fill="black"/>
<path d="M15.7578 6H14.7578V7H15.7578V6Z" fill="black"/>
<path d="M16.7578 6H15.7578V7H16.7578V6Z" fill="black"/>
<path d="M17.7578 6H16.7578V7H17.7578V6Z" fill="black"/>
<path d="M18.7578 6H17.7578V7H18.7578V6Z" fill="black"/>
<path d="M19.7578 6H18.7578V7H19.7578V6Z" fill="black"/>
<path d="M20.7578 6H19.7578V7H20.7578V6Z" fill="black"/>
</svg>
