<svg width="25" height="24" viewBox="0 0 25 24" fill="none" xmlns="http://www.w3.org/2000/svg">
<path d="M11.6484 2H10.6484V3H11.6484V2Z" fill="black"/>
<path d="M12.6484 2H11.6484V3H12.6484V2Z" fill="black"/>
<path d="M13.6484 2H12.6484V3H13.6484V2Z" fill="black"/>
<path d="M14.6484 2H13.6484V3H14.6484V2Z" fill="black"/>
<path d="M15.6484 2H14.6484V3H15.6484V2Z" fill="black"/>
<path d="M16.6484 2H15.6484V3H16.6484V2Z" fill="black"/>
<path d="M10.6484 3H9.64844V4H10.6484V3Z" fill="black"/>
<path d="M11.6484 3H10.6484V4H11.6484V3Z" fill="black"/>
<path d="M12.6484 3H11.6484V4H12.6484V3Z" fill="black"/>
<path d="M13.6484 3H12.6484V4H13.6484V3Z" fill="black"/>
<path d="M14.6484 3H13.6484V4H14.6484V3Z" fill="black"/>
<path d="M15.6484 3H14.6484V4H15.6484V3Z" fill="black"/>
<path d="M16.6484 3H15.6484V4H16.6484V3Z" fill="black"/>
<path d="M17.6484 3H16.6484V4H17.6484V3Z" fill="black"/>
<path d="M10.6484 4H9.64844V5H10.6484V4Z" fill="black"/>
<path d="M11.6484 4H10.6484V5H11.6484V4Z" fill="black"/>
<path d="M12.6484 4H11.6484V5H12.6484V4Z" fill="black"/>
<path d="M13.6484 4H12.6484V5H13.6484V4Z" fill="black"/>
<path d="M14.6484 4H13.6484V5H14.6484V4Z" fill="black"/>
<path d="M15.6484 4H14.6484V5H15.6484V4Z" fill="black"/>
<path d="M16.6484 4H15.6484V5H16.6484V4Z" fill="black"/>
<path d="M17.6484 4H16.6484V5H17.6484V4Z" fill="black"/>
<path d="M9.64844 5H8.64844V6H9.64844V5Z" fill="#444444"/>
<path d="M10.6484 5H9.64844V6H10.6484V5Z" fill="#444444"/>
<path d="M11.6484 5H10.6484V6H11.6484V5Z" fill="#444444"/>
<path d="M12.6484 5H11.6484V6H12.6484V5Z" fill="#444444"/>
<path d="M13.6484 5H12.6484V6H13.6484V5Z" fill="#444444"/>
<path d="M14.6484 5H13.6484V6H14.6484V5Z" fill="#444444"/>
<path d="M15.6484 5H14.6484V6H15.6484V5Z" fill="#444444"/>
<path d="M16.6484 5H15.6484V6H16.6484V5Z" fill="#444444"/>
<path d="M17.6484 5H16.6484V6H17.6484V5Z" fill="#444444"/>
<path d="M18.6484 5H17.6484V6H18.6484V5Z" fill="#444444"/>
<path d="M8.64844 6H7.64844V7H8.64844V6Z" fill="black"/>
<path d="M9.64844 6H8.64844V7H9.64844V6Z" fill="black"/>
<path d="M10.6484 6H9.64844V7H10.6484V6Z" fill="black"/>
<path d="M11.6484 6H10.6484V7H11.6484V6Z" fill="black"/>
<path d="M12.6484 6H11.6484V7H12.6484V6Z" fill="black"/>
<path d="M13.6484 6H12.6484V7H13.6484V6Z" fill="black"/>
<path d="M14.6484 6H13.6484V7H14.6484V6Z" fill="black"/>
<path d="M15.6484 6H14.6484V7H15.6484V6Z" fill="black"/>
<path d="M16.6484 6H15.6484V7H16.6484V6Z" fill="black"/>
<path d="M17.6484 6H16.6484V7H17.6484V6Z" fill="black"/>
<path d="M18.6484 6H17.6484V7H18.6484V6Z" fill="black"/>
<path d="M19.6484 6H18.6484V7H19.6484V6Z" fill="black"/>
</svg>
