<svg width="24" height="24" viewBox="0 0 24 24" fill="none" xmlns="http://www.w3.org/2000/svg">
<path d="M16 2H15V3H16V2Z" fill="black"/>
<path d="M17 2H16V3H17V2Z" fill="black"/>
<path d="M18 2H17V3H18V2Z" fill="black"/>
<path d="M15 3H14V4H15V3Z" fill="black"/>
<path d="M19 3H18V4H19V3Z" fill="black"/>
<path d="M15 4H14V5H15V4Z" fill="black"/>
<path d="M17 4H16V5H17V4Z" fill="#FF0000"/>
<path d="M19 4H18V5H19V4Z" fill="black"/>
<path d="M14 5H13V6H14V5Z" fill="black"/>
<path d="M18 5H17V6H18V5Z" fill="black"/>
<path d="M19 5H18V6H19V5Z" fill="black"/>
<path d="M14 6H13V7H14V6Z" fill="black"/>
</svg>
