<svg width="24" height="24" viewBox="0 0 24 24" fill="none" xmlns="http://www.w3.org/2000/svg">
<path d="M9 4H8V5H9V4Z" fill="black"/>
<path d="M10 4H9V5H10V4Z" fill="black"/>
<path d="M11 4H10V5H11V4Z" fill="black"/>
<path d="M12 4H11V5H12V4Z" fill="black"/>
<path d="M13 4H12V5H13V4Z" fill="black"/>
<path d="M14 4H13V5H14V4Z" fill="black"/>
<path d="M15 4H14V5H15V4Z" fill="black"/>
<path d="M16 4H15V5H16V4Z" fill="black"/>
<path d="M17 4H16V5H17V4Z" fill="black"/>
<path d="M18 4H17V5H18V4Z" fill="black"/>
<path d="M8 5H7V6H8V5Z" fill="black"/>
<path d="M9 5H8V6H9V5Z" fill="black"/>
<path d="M10 5H9V6H10V5Z" fill="black"/>
<path d="M18 5H17V6H18V5Z" fill="black"/>
<path d="M19 5H18V6H19V5Z" fill="black"/>
<path d="M7 6H6V7H7V6Z" fill="black"/>
<path d="M8 6H7V7H8V6Z" fill="black"/>
<path d="M9 6H8V7H9V6Z" fill="black"/>
<path d="M19 6H18V7H19V6Z" fill="black"/>
<path d="M20 6H19V7H20V6Z" fill="black"/>
<path d="M7 7H6V8H7V7Z" fill="black"/>
<path d="M8 7H7V8H8V7Z" fill="black"/>
<path d="M20 7H19V8H20V7Z" fill="black"/>
<path d="M7 8H6V9H7V8Z" fill="black"/>
<path d="M8 8H7V9H8V8Z" fill="black"/>
<path d="M20 8H19V9H20V8Z" fill="black"/>
<path d="M7 9H6V10H7V9Z" fill="black"/>
<path d="M8 9H7V10H8V9Z" fill="black"/>
<path d="M20 9H19V10H20V9Z" fill="black"/>
<path d="M6 10H5V11H6V10Z" fill="#444444"/>
<path d="M7 10H6V11H7V10Z" fill="#444444"/>
<path d="M8 10H7V11H8V10Z" fill="#444444"/>
<path d="M9 10H8V11H9V10Z" fill="#444444"/>
<path d="M20 10H19V11H20V10Z" fill="#444444"/>
<path d="M6 11H5V12H6V11Z" fill="#444444"/>
<path d="M7 11H6V12H7V11Z" fill="#009DFF"/>
<path d="M8 11H7V12H8V11Z" fill="#009DFF"/>
<path d="M9 11H8V12H9V11Z" fill="#444444"/>
<path d="M20 11H19V12H20V11Z" fill="#444444"/>
<path d="M21 11H20V12H21V11Z" fill="#009DFF"/>
<path d="M6 12H5V13H6V12Z" fill="#444444"/>
<path d="M7 12H6V13H7V12Z" fill="#009DFF"/>
<path d="M8 12H7V13H8V12Z" fill="#009DFF"/>
<path d="M9 12H8V13H9V12Z" fill="#444444"/>
<path d="M20 12H19V13H20V12Z" fill="#444444"/>
<path d="M21 12H20V13H21V12Z" fill="#009DFF"/>
<path d="M6 13H5V14H6V13Z" fill="#444444"/>
<path d="M7 13H6V14H7V13Z" fill="#009DFF"/>
<path d="M8 13H7V14H8V13Z" fill="#009DFF"/>
<path d="M9 13H8V14H9V13Z" fill="#444444"/>
<path d="M20 13H19V14H20V13Z" fill="#444444"/>
<path d="M21 13H20V14H21V13Z" fill="#009DFF"/>
<path d="M6 14H5V15H6V14Z" fill="#444444"/>
<path d="M7 14H6V15H7V14Z" fill="#009DFF"/>
<path d="M8 14H7V15H8V14Z" fill="#009DFF"/>
<path d="M9 14H8V15H9V14Z" fill="#444444"/>
<path d="M20 14H19V15H20V14Z" fill="#444444"/>
<path d="M21 14H20V15H21V14Z" fill="#009DFF"/>
<path d="M6 15H5V16H6V15Z" fill="#444444"/>
<path d="M7 15H6V16H7V15Z" fill="#444444"/>
<path d="M8 15H7V16H8V15Z" fill="#444444"/>
<path d="M9 15H8V16H9V15Z" fill="#444444"/>
<path d="M20 15H19V16H20V15Z" fill="#444444"/>
</svg>
