<svg version="1.1" width="24" height="24" xmlns="http://www.w3.org/2000/svg" shape-rendering="crispEdges">
  <rect x="5" y="6" width="1" height="1" fill="#FF0000" />
  <rect x="20" y="6" width="1" height="1" fill="#FF0000" />
  <rect x="6" y="7" width="1" height="1" fill="#000000" />
  <rect x="19" y="7" width="1" height="1" fill="#000000" />
  <rect x="6" y="8" width="1" height="1" fill="#000000" />
  <rect x="19" y="8" width="1" height="1" fill="#000000" />
  <rect x="5" y="9" width="1" height="1" fill="#363636" />
  <rect x="6" y="9" width="1" height="1" fill="#666666" />
  <rect x="7" y="9" width="1" height="1" fill="#666666" />
  <rect x="19" y="9" width="1" height="1" fill="#666666" />
  <rect x="20" y="9" width="1" height="1" fill="#363636" />
  <rect x="4" y="10" width="1" height="1" fill="#363636" />
  <rect x="5" y="10" width="1" height="1" fill="#666666" />
  <rect x="6" y="10" width="1" height="1" fill="#666666" />
  <rect x="7" y="10" width="1" height="1" fill="#666666" />
  <rect x="8" y="10" width="1" height="1" fill="#666666" />
  <rect x="19" y="10" width="1" height="1" fill="#666666" />
  <rect x="20" y="10" width="1" height="1" fill="#363636" />
  <rect x="4" y="11" width="1" height="1" fill="#363636" />
  <rect x="5" y="11" width="1" height="1" fill="#666666" />
  <rect x="6" y="11" width="1" height="1" fill="#666666" />
  <rect x="7" y="11" width="1" height="1" fill="#666666" />
  <rect x="8" y="11" width="1" height="1" fill="#666666" />
  <rect x="19" y="11" width="1" height="1" fill="#666666" />
  <rect x="20" y="11" width="1" height="1" fill="#363636" />
  <rect x="4" y="12" width="1" height="1" fill="#363636" />
  <rect x="5" y="12" width="1" height="1" fill="#666666" />
  <rect x="6" y="12" width="1" height="1" fill="#666666" />
  <rect x="7" y="12" width="1" height="1" fill="#666666" />
  <rect x="8" y="12" width="1" height="1" fill="#666666" />
  <rect x="19" y="12" width="1" height="1" fill="#666666" />
  <rect x="20" y="12" width="1" height="1" fill="#363636" />
  <rect x="4" y="13" width="1" height="1" fill="#363636" />
  <rect x="5" y="13" width="1" height="1" fill="#666666" />
  <rect x="6" y="13" width="1" height="1" fill="#666666" />
  <rect x="7" y="13" width="1" height="1" fill="#666666" />
  <rect x="8" y="13" width="1" height="1" fill="#666666" />
  <rect x="19" y="13" width="1" height="1" fill="#666666" />
  <rect x="20" y="13" width="1" height="1" fill="#363636" />
  <rect x="4" y="14" width="1" height="1" fill="#363636" />
  <rect x="5" y="14" width="1" height="1" fill="#666666" />
  <rect x="6" y="14" width="1" height="1" fill="#666666" />
  <rect x="7" y="14" width="1" height="1" fill="#666666" />
  <rect x="8" y="14" width="1" height="1" fill="#666666" />
  <rect x="19" y="14" width="1" height="1" fill="#666666" />
  <rect x="20" y="14" width="1" height="1" fill="#363636" />
  <rect x="4" y="15" width="1" height="1" fill="#363636" />
  <rect x="5" y="15" width="1" height="1" fill="#363636" />
  <rect x="6" y="15" width="1" height="1" fill="#666666" />
  <rect x="7" y="15" width="1" height="1" fill="#666666" />
  <rect x="8" y="15" width="1" height="1" fill="#666666" />
  <rect x="19" y="15" width="1" height="1" fill="#666666" />
  <rect x="20" y="15" width="1" height="1" fill="#363636" />
  <rect x="5" y="16" width="1" height="1" fill="#363636" />
  <rect x="6" y="16" width="1" height="1" fill="#363636" />
  <rect x="7" y="16" width="1" height="1" fill="#666666" />
  <rect x="19" y="16" width="1" height="1" fill="#363636" />
</svg>