<svg width="24" height="24" viewBox="0 0 24 24" fill="none" xmlns="http://www.w3.org/2000/svg">
<path d="M5 9H4V10H5V9Z" fill="black"/>
<path d="M5 8H4V9H5V8Z" fill="black"/>
<path d="M5 7H4V8H5V7Z" fill="black"/>
<path d="M21 7H20V8H21V7Z" fill="black"/>
<path d="M21 9H20V10H21V9Z" fill="black"/>
<path d="M21 8H20V9H21V8Z" fill="black"/>
<path d="M5 6H4V7H5V6Z" fill="#FF0000"/>
<path d="M21 6H20V7H21V6Z" fill="#FF0000"/>
<path d="M8 9H7V10H8V9Z" fill="#009DFF"/>
<path d="M7 9H6V10H7V9Z" fill="#009DFF"/>
<path d="M20 9H19V10H20V9Z" fill="#009DFF"/>
<path d="M6 10H5V11H6V10Z" fill="#93D5FF"/>
<path d="M5 10H4V11H5V10Z" fill="#009DFF"/>
<path d="M8 10H7V11H8V10Z" fill="#93D5FF"/>
<path d="M6 9H5V10H6V9Z" fill="#009DFF"/>
<path d="M7 10H6V11H7V10Z" fill="#93D5FF"/>
<path d="M9 10H8V11H9V10Z" fill="#009DFF"/>
<path d="M20 10H19V11H20V10Z" fill="#93D5FF"/>
<path d="M21 10H20V11H21V10Z" fill="#009DFF"/>
<path d="M6 11H5V12H6V11Z" fill="#93D5FF"/>
<path d="M5 11H4V12H5V11Z" fill="#009DFF"/>
<path d="M7 11H6V12H7V11Z" fill="#009DFF"/>
<path d="M8 11H7V12H8V11Z" fill="#93D5FF"/>
<path d="M9 11H8V12H9V11Z" fill="#009DFF"/>
<path d="M20 11H19V12H20V11Z" fill="#93D5FF"/>
<path d="M21 11H20V12H21V11Z" fill="#009DFF"/>
<path d="M6 12H5V13H6V12Z" fill="#93D5FF"/>
<path d="M5 12H4V13H5V12Z" fill="#009DFF"/>
<path d="M7 12H6V13H7V12Z" fill="#009DFF"/>
<path d="M8 12H7V13H8V12Z" fill="#93D5FF"/>
<path d="M9 12H8V13H9V12Z" fill="#009DFF"/>
<path d="M20 12H19V13H20V12Z" fill="#93D5FF"/>
<path d="M21 12H20V13H21V12Z" fill="#009DFF"/>
<path d="M6 13H5V14H6V13Z" fill="#93D5FF"/>
<path d="M5 13H4V14H5V13Z" fill="#009DFF"/>
<path d="M7 13H6V14H7V13Z" fill="#009DFF"/>
<path d="M8 13H7V14H8V13Z" fill="#93D5FF"/>
<path d="M9 13H8V14H9V13Z" fill="#009DFF"/>
<path d="M20 13H19V14H20V13Z" fill="#93D5FF"/>
<path d="M21 13H20V14H21V13Z" fill="#009DFF"/>
<path d="M6 14H5V15H6V14Z" fill="#93D5FF"/>
<path d="M5 14H4V15H5V14Z" fill="#009DFF"/>
<path d="M6 15H5V16H6V15Z" fill="#009DFF"/>
<path d="M7 14H6V15H7V14Z" fill="#93D5FF"/>
<path d="M7 15H6V16H7V15Z" fill="#009DFF"/>
<path d="M8 14H7V15H8V14Z" fill="#93D5FF"/>
<path d="M8 15H7V16H8V15Z" fill="#009DFF"/>
<path d="M9 14H8V15H9V14Z" fill="#009DFF"/>
<path d="M20 14H19V15H20V14Z" fill="#93D5FF"/>
<path d="M20 15H19V16H20V15Z" fill="#009DFF"/>
<path d="M21 14H20V15H21V14Z" fill="#009DFF"/>
</svg>
