<svg width="25" height="24" viewBox="0 0 25 24" fill="none" xmlns="http://www.w3.org/2000/svg">
<path d="M9.60938 4H8.60938V5H9.60938V4Z" fill="black"/>
<path d="M10.6094 4H9.60938V5H10.6094V4Z" fill="black"/>
<path d="M11.6094 4H10.6094V5H11.6094V4Z" fill="black"/>
<path d="M12.6094 4H11.6094V5H12.6094V4Z" fill="black"/>
<path d="M13.6094 4H12.6094V5H13.6094V4Z" fill="black"/>
<path d="M14.6094 4H13.6094V5H14.6094V4Z" fill="black"/>
<path d="M15.6094 4H14.6094V5H15.6094V4Z" fill="black"/>
<path d="M16.6094 4H15.6094V5H16.6094V4Z" fill="black"/>
<path d="M17.6094 4H16.6094V5H17.6094V4Z" fill="black"/>
<path d="M18.6094 4H17.6094V5H18.6094V4Z" fill="black"/>
<path d="M8.60938 5H7.60938V6H8.60938V5Z" fill="black"/>
<path d="M9.60938 5H8.60938V6H9.60938V5Z" fill="black"/>
<path d="M10.6094 5H9.60938V6H10.6094V5Z" fill="black"/>
<path d="M18.6094 5H17.6094V6H18.6094V5Z" fill="black"/>
<path d="M19.6094 5H18.6094V6H19.6094V5Z" fill="black"/>
<path d="M7.60938 6H6.60938V7H7.60938V6Z" fill="black"/>
<path d="M8.60938 6H7.60938V7H8.60938V6Z" fill="black"/>
<path d="M9.60938 6H8.60938V7H9.60938V6Z" fill="black"/>
<path d="M19.6094 6H18.6094V7H19.6094V6Z" fill="black"/>
<path d="M20.6094 6H19.6094V7H20.6094V6Z" fill="black"/>
<path d="M7.60938 7H6.60938V8H7.60938V7Z" fill="black"/>
<path d="M8.60938 7H7.60938V8H8.60938V7Z" fill="black"/>
<path d="M20.6094 7H19.6094V8H20.6094V7Z" fill="black"/>
<path d="M7.60938 8H6.60938V9H7.60938V8Z" fill="black"/>
<path d="M8.60938 8H7.60938V9H8.60938V8Z" fill="black"/>
<path d="M20.6094 8H19.6094V9H20.6094V8Z" fill="black"/>
<path d="M7.60938 9H6.60938V10H7.60938V9Z" fill="black"/>
<path d="M8.60938 9H7.60938V10H8.60938V9Z" fill="black"/>
<path d="M20.6094 9H19.6094V10H20.6094V9Z" fill="black"/>
<path d="M6.60938 10H5.60938V11H6.60938V10Z" fill="#444444"/>
<path d="M7.60938 10H6.60938V11H7.60938V10Z" fill="#444444"/>
<path d="M8.60938 10H7.60938V11H8.60938V10Z" fill="#444444"/>
<path d="M9.60938 10H8.60938V11H9.60938V10Z" fill="#444444"/>
<path d="M20.6094 10H19.6094V11H20.6094V10Z" fill="#444444"/>
<path d="M6.60938 11H5.60938V12H6.60938V11Z" fill="#444444"/>
<path d="M7.60938 11H6.60938V12H7.60938V11Z" fill="#009DFF"/>
<path d="M8.60938 11H7.60938V12H8.60938V11Z" fill="#009DFF"/>
<path d="M9.60938 11H8.60938V12H9.60938V11Z" fill="#444444"/>
<path d="M20.6094 11H19.6094V12H20.6094V11Z" fill="#444444"/>
<path d="M21.6094 11H20.6094V12H21.6094V11Z" fill="#009DFF"/>
<path d="M6.60938 12H5.60938V13H6.60938V12Z" fill="#444444"/>
<path d="M7.60938 12H6.60938V13H7.60938V12Z" fill="#009DFF"/>
<path d="M8.60938 12H7.60938V13H8.60938V12Z" fill="#009DFF"/>
<path d="M9.60938 12H8.60938V13H9.60938V12Z" fill="#444444"/>
<path d="M20.6094 12H19.6094V13H20.6094V12Z" fill="#444444"/>
<path d="M21.6094 12H20.6094V13H21.6094V12Z" fill="#009DFF"/>
<path d="M6.60938 13H5.60938V14H6.60938V13Z" fill="#444444"/>
<path d="M7.60938 13H6.60938V14H7.60938V13Z" fill="#009DFF"/>
<path d="M8.60938 13H7.60938V14H8.60938V13Z" fill="#009DFF"/>
<path d="M9.60938 13H8.60938V14H9.60938V13Z" fill="#444444"/>
<path d="M20.6094 13H19.6094V14H20.6094V13Z" fill="#444444"/>
<path d="M21.6094 13H20.6094V14H21.6094V13Z" fill="#009DFF"/>
<path d="M6.60938 14H5.60938V15H6.60938V14Z" fill="#444444"/>
<path d="M7.60938 14H6.60938V15H7.60938V14Z" fill="#009DFF"/>
<path d="M8.60938 14H7.60938V15H8.60938V14Z" fill="#009DFF"/>
<path d="M9.60938 14H8.60938V15H9.60938V14Z" fill="#444444"/>
<path d="M20.6094 14H19.6094V15H20.6094V14Z" fill="#444444"/>
<path d="M21.6094 14H20.6094V15H21.6094V14Z" fill="#009DFF"/>
<path d="M6.60938 15H5.60938V16H6.60938V15Z" fill="#444444"/>
<path d="M7.60938 15H6.60938V16H7.60938V15Z" fill="#444444"/>
<path d="M8.60938 15H7.60938V16H8.60938V15Z" fill="#444444"/>
<path d="M9.60938 15H8.60938V16H9.60938V15Z" fill="#444444"/>
<path d="M20.6094 15H19.6094V16H20.6094V15Z" fill="#444444"/>
</svg>
