<svg width="24" height="24" viewBox="0 0 24 24" fill="none" xmlns="http://www.w3.org/2000/svg">
<path d="M13 2H12V3H13V2Z" fill="#FF0000"/>
<path d="M15 2H14V3H15V2Z" fill="#0016FF"/>
<path d="M13 3H12V4H13V3Z" fill="#FF0000"/>
<path d="M14 3H13V4H14V3Z" fill="black"/>
<path d="M15 3H14V4H15V3Z" fill="#0016FF"/>
<path d="M14 4H13V5H14V4Z" fill="black"/>
<path d="M13 5H12V6H13V5Z" fill="black"/>
<path d="M14 5H13V6H14V5Z" fill="black"/>
<path d="M15 5H14V6H15V5Z" fill="black"/>
<path d="M12 6H11V7H12V6Z" fill="black"/>
<path d="M13 6H12V7H13V6Z" fill="black"/>
<path d="M14 6H13V7H14V6Z" fill="black"/>
<path d="M15 6H14V7H15V6Z" fill="black"/>
<path d="M16 6H15V7H16V6Z" fill="black"/>
</svg>
