<svg width="24" height="24" viewBox="0 0 24 24" fill="none" xmlns="http://www.w3.org/2000/svg">
<path d="M11 2H10V3H11V2Z" fill="#455E27"/>
<path d="M10 2H9V3H10V2Z" fill="#77944B"/>
<path d="M9 2H8V3H9V2Z" fill="#77944B"/>
<path d="M12 2H11V3H12V2Z" fill="#455E27"/>
<path d="M13 2H12V3H13V2Z" fill="#455E27"/>
<path d="M14 2H13V3H14V2Z" fill="#77944B"/>
<path d="M15 2H14V3H15V2Z" fill="#77944B"/>
<path d="M16 2H15V3H16V2Z" fill="#455E27"/>
<path d="M17 2H16V3H17V2Z" fill="#455E27"/>
<path d="M9 3H8V4H9V3Z" fill="#455D27"/>
<path d="M10 3H9V4H10V3Z" fill="#77944B"/>
<path d="M8 3H7V4H8V3Z" fill="#455D27"/>
<path d="M11 3H10V4H11V3Z" fill="#77944B"/>
<path d="M12 3H11V4H12V3Z" fill="#455E27"/>
<path d="M13 3H12V4H13V3Z" fill="#455E27"/>
<path d="M14 3H13V4H14V3Z" fill="#77944B"/>
<path d="M15 3H14V4H15V3Z" fill="#455E27"/>
<path d="M16 3H15V4H16V3Z" fill="#455E27"/>
<path d="M17 3H16V4H17V3Z" fill="#77944B"/>
<path d="M9 4H8V5H9V4Z" fill="#77944B"/>
<path d="M18 3H17V4H18V3Z" fill="#77944B"/>
<path d="M10 4H9V5H10V4Z" fill="#455D27"/>
<path d="M8 4H7V5H8V4Z" fill="#77944B"/>
<path d="M11 4H10V5H11V4Z" fill="#455D27"/>
<path d="M12 4H11V5H12V4Z" fill="#455E27"/>
<path d="M13 4H12V5H13V4Z" fill="#455E27"/>
<path d="M14 4H13V5H14V4Z" fill="#455E27"/>
<path d="M15 4H14V5H15V4Z" fill="#455E27"/>
<path d="M16 4H15V5H16V4Z" fill="#455E27"/>
<path d="M9 5H8V6H9V5Z" fill="#455D27"/>
<path d="M17 4H16V5H17V4Z" fill="#455E27"/>
<path d="M18 4H17V5H18V4Z" fill="#455E27"/>
<path d="M10 5H9V6H10V5Z" fill="#455D27"/>
<path d="M8 5H7V6H8V5Z" fill="#77944B"/>
<path d="M11 5H10V6H11V5Z" fill="#455E27"/>
<path d="M12 5H11V6H12V5Z" fill="#455E27"/>
<path d="M13 5H12V6H13V5Z" fill="#77944B"/>
<path d="M14 5H13V6H14V5Z" fill="#455E27"/>
<path d="M15 5H14V6H15V5Z" fill="#455E27"/>
<path d="M9 6H8V7H9V6Z" fill="#455E27"/>
<path d="M16 5H15V6H16V5Z" fill="#77944B"/>
<path d="M17 5H16V6H17V5Z" fill="#455E27"/>
<path d="M18 5H17V6H18V5Z" fill="#455E27"/>
<path d="M10 6H9V7H10V6Z" fill="#455E27"/>
<path d="M8 6H7V7H8V6Z" fill="#455E27"/>
<path d="M11 6H10V7H11V6Z" fill="#455E27"/>
<path d="M12 6H11V7H12V6Z" fill="#77944B"/>
<path d="M13 6H12V7H13V6Z" fill="#455E27"/>
<path d="M14 6H13V7H14V6Z" fill="#455E27"/>
<path d="M15 6H14V7H15V6Z" fill="#455E27"/>
<path d="M16 6H15V7H16V6Z" fill="#77944B"/>
<path d="M17 6H16V7H17V6Z" fill="#77944B"/>
<path d="M18 6H17V7H18V6Z" fill="#77944B"/>
<path d="M19 6H18V7H19V6Z" fill="#455E27"/>
<path d="M20 6H19V7H20V6Z" fill="#455E27"/>
</svg>
