<?xml version="1.0" encoding="UTF-8" ?>
<svg version="1.1" width="24" height="24" xmlns="http://www.w3.org/2000/svg" shape-rendering="crispEdges">
<rect x="9" y="2" width="1" height="1" fill="#FF8181" />
<rect x="12" y="2" width="1" height="1" fill="#BC0000" />
<rect x="13" y="2" width="1" height="1" fill="#BC0000" />
<rect x="14" y="2" width="1" height="1" fill="#BC0000" />
<rect x="15" y="2" width="1" height="1" fill="#BC0000" />
<rect x="18" y="2" width="1" height="1" fill="#FF8181" />
<rect x="10" y="3" width="1" height="1" fill="#FF8181" />
<rect x="12" y="3" width="1" height="1" fill="#BC0000" />
<rect x="13" y="3" width="1" height="1" fill="#BC0000" />
<rect x="14" y="3" width="1" height="1" fill="#FF8181" />
<rect x="15" y="3" width="1" height="1" fill="#BC0000" />
<rect x="17" y="3" width="1" height="1" fill="#FF8181" />
<rect x="9" y="4" width="1" height="1" fill="#FF8181" />
<rect x="12" y="4" width="1" height="1" fill="#BC0000" />
<rect x="13" y="4" width="1" height="1" fill="#BC0000" />
<rect x="14" y="4" width="1" height="1" fill="#FF8181" />
<rect x="15" y="4" width="1" height="1" fill="#BC0000" />
<rect x="18" y="4" width="1" height="1" fill="#FF8181" />
<rect x="12" y="5" width="1" height="1" fill="#BC0000" />
<rect x="13" y="5" width="1" height="1" fill="#BC0000" />
<rect x="14" y="5" width="1" height="1" fill="#BC0000" />
<rect x="15" y="5" width="1" height="1" fill="#BC0000" />
<rect x="11" y="6" width="1" height="1" fill="#464646" />
<rect x="12" y="6" width="1" height="1" fill="#464646" />
<rect x="13" y="6" width="1" height="1" fill="#464646" />
<rect x="14" y="6" width="1" height="1" fill="#464646" />
<rect x="15" y="6" width="1" height="1" fill="#464646" />
<rect x="16" y="6" width="1" height="1" fill="#464646" />
</svg>