<svg width="25" height="25" viewBox="0 0 25 25" fill="none" xmlns="http://www.w3.org/2000/svg">
<path d="M13.1172 2.48828H12.1172V3.48828H13.1172V2.48828Z" fill="#FFD900"/>
<path d="M14.1172 2.48828H13.1172V3.48828H14.1172V2.48828Z" fill="#FFD900"/>
<path d="M15.1172 2.48828H14.1172V3.48828H15.1172V2.48828Z" fill="#FFD900"/>
<path d="M12.1172 3.48828H11.1172V4.48828H12.1172V3.48828Z" fill="#FFD900"/>
<path d="M13.1172 3.48828H12.1172V4.48828H13.1172V3.48828Z" fill="#FFD900"/>
<path d="M14.1172 3.48828H13.1172V4.48828H14.1172V3.48828Z" fill="#FFD900"/>
<path d="M15.1172 3.48828H14.1172V4.48828H15.1172V3.48828Z" fill="#FFD900"/>
<path d="M16.1172 3.48828H15.1172V4.48828H16.1172V3.48828Z" fill="#FFD900"/>
<path d="M11.1172 4.48828H10.1172V5.48828H11.1172V4.48828Z" fill="#5EA8A6"/>
<path d="M12.1172 4.48828H11.1172V5.48828H12.1172V4.48828Z" fill="#5EA8A6"/>
<path d="M13.1172 4.48828H12.1172V5.48828H13.1172V4.48828Z" fill="#5EA8A6"/>
<path d="M14.1172 4.48828H13.1172V5.48828H14.1172V4.48828Z" fill="#5EA8A6"/>
<path d="M15.1172 4.48828H14.1172V5.48828H15.1172V4.48828Z" fill="#5EA8A6"/>
<path d="M16.1172 4.48828H15.1172V5.48828H16.1172V4.48828Z" fill="#5EA8A6"/>
<path d="M17.1172 4.48828H16.1172V5.48828H17.1172V4.48828Z" fill="#5EA8A6"/>
<path d="M10.1172 5.48828H9.11719V6.48828H10.1172V5.48828Z" fill="#DA1E2F"/>
<path d="M11.1172 5.48828H10.1172V6.48828H11.1172V5.48828Z" fill="#54318D"/>
<path d="M12.1172 5.48828H11.1172V6.48828H12.1172V5.48828Z" fill="#DA1E2F"/>
<path d="M13.1172 5.48828H12.1172V6.48828H13.1172V5.48828Z" fill="#54318D"/>
<path d="M14.1172 5.48828H13.1172V6.48828H14.1172V5.48828Z" fill="#DA1E2F"/>
<path d="M15.1172 5.48828H14.1172V6.48828H15.1172V5.48828Z" fill="#54318D"/>
<path d="M16.1172 5.48828H15.1172V6.48828H16.1172V5.48828Z" fill="#DA1E2F"/>
<path d="M17.1172 5.48828H16.1172V6.48828H17.1172V5.48828Z" fill="#54318D"/>
<path d="M18.1172 5.48828H17.1172V6.48828H18.1172V5.48828Z" fill="#DA1E2F"/>
<path d="M8.11719 6.48828H7.11719V7.48828H8.11719V6.48828Z" fill="#FFD900"/>
<path d="M9.11719 6.48828H8.11719V7.48828H9.11719V6.48828Z" fill="#FFD900"/>
<path d="M10.1172 6.48828H9.11719V7.48828H10.1172V6.48828Z" fill="#5EA8A6"/>
<path d="M11.1172 6.48828H10.1172V7.48828H11.1172V6.48828Z" fill="#5EA8A6"/>
<path d="M12.1172 6.48828H11.1172V7.48828H12.1172V6.48828Z" fill="#5EA8A6"/>
<path d="M13.1172 6.48828H12.1172V7.48828H13.1172V6.48828Z" fill="#5EA8A6"/>
<path d="M14.1172 6.48828H13.1172V7.48828H14.1172V6.48828Z" fill="#5EA8A6"/>
<path d="M15.1172 6.48828H14.1172V7.48828H15.1172V6.48828Z" fill="#5EA8A6"/>
<path d="M16.1172 6.48828H15.1172V7.48828H16.1172V6.48828Z" fill="#5EA8A6"/>
<path d="M17.1172 6.48828H16.1172V7.48828H17.1172V6.48828Z" fill="#5EA8A6"/>
<path d="M18.1172 6.48828H17.1172V7.48828H18.1172V6.48828Z" fill="#5EA8A6"/>
<path d="M19.1172 6.48828H18.1172V7.48828H19.1172V6.48828Z" fill="#FFD900"/>
<path d="M20.1172 6.48828H19.1172V7.48828H20.1172V6.48828Z" fill="#FFD900"/>
<path d="M9.11719 7.48828H8.11719V8.48828H9.11719V7.48828Z" fill="#FFD900"/>
<path d="M10.1172 7.48828H9.11719V8.48828H10.1172V7.48828Z" fill="#FFD900"/>
<path d="M11.1172 7.48828H10.1172V8.48828H11.1172V7.48828Z" fill="#FFD900"/>
<path d="M12.1172 7.48828H11.1172V8.48828H12.1172V7.48828Z" fill="#FFD900"/>
<path d="M13.1172 7.48828H12.1172V8.48828H13.1172V7.48828Z" fill="#FFD900"/>
<path d="M14.1172 7.48828H13.1172V8.48828H14.1172V7.48828Z" fill="#FFD900"/>
<path d="M15.1172 7.48828H14.1172V8.48828H15.1172V7.48828Z" fill="#FFD900"/>
<path d="M16.1172 7.48828H15.1172V8.48828H16.1172V7.48828Z" fill="#FFD900"/>
<path d="M17.1172 7.48828H16.1172V8.48828H17.1172V7.48828Z" fill="#FFD900"/>
<path d="M18.1172 7.48828H17.1172V8.48828H18.1172V7.48828Z" fill="#FFD900"/>
<path d="M19.1172 7.48828H18.1172V8.48828H19.1172V7.48828Z" fill="#FFD900"/>
</svg>
