<svg width="24" height="24" viewBox="0 0 24 24" fill="none" xmlns="http://www.w3.org/2000/svg">
<path d="M11 2H10V3H11V2Z" fill="#D9BF9A"/>
<path d="M12 2H11V3H12V2Z" fill="#D9BF9A"/>
<path d="M13 2H12V3H13V2Z" fill="#D9BF9A"/>
<path d="M14 2H13V3H14V2Z" fill="#D9BF9A"/>
<path d="M15 2H14V3H15V2Z" fill="#D9BF9A"/>
<path d="M10 3H9V4H10V3Z" fill="#D9BF9A"/>
<path d="M11 3H10V4H11V3Z" fill="#D9BF9A"/>
<path d="M12 3H11V4H12V3Z" fill="#D9BF9A"/>
<path d="M13 3H12V4H13V3Z" fill="#D9BF9A"/>
<path d="M14 3H13V4H14V3Z" fill="#D9BF9A"/>
<path d="M15 3H14V4H15V3Z" fill="#D9BF9A"/>
<path d="M16 3H15V4H16V3Z" fill="#D9BF9A"/>
<path d="M10 4H9V5H10V4Z" fill="#D9BF9A"/>
<path d="M11 4H10V5H11V4Z" fill="#D9BF9A"/>
<path d="M12 4H11V5H12V4Z" fill="#D9BF9A"/>
<path d="M13 4H12V5H13V4Z" fill="#D9BF9A"/>
<path d="M14 4H13V5H14V4Z" fill="#D9BF9A"/>
<path d="M15 4H14V5H15V4Z" fill="#D9BF9A"/>
<path d="M16 4H15V5H16V4Z" fill="#D9BF9A"/>
<path d="M7 5H6V6H7V5Z" fill="#D9BF9A"/>
<path d="M8 5H7V6H8V5Z" fill="#6A522B"/>
<path d="M9 5H8V6H9V5Z" fill="#D9BF9A"/>
<path d="M10 5H9V6H10V5Z" fill="#D9BF9A"/>
<path d="M11 5H10V6H11V5Z" fill="#D9BF9A"/>
<path d="M12 5H11V6H12V5Z" fill="#D9BF9A"/>
<path d="M13 5H12V6H13V5Z" fill="#D9BF9A"/>
<path d="M14 5H13V6H14V5Z" fill="#D9BF9A"/>
<path d="M15 5H14V6H15V5Z" fill="#D9BF9A"/>
<path d="M16 5H15V6H16V5Z" fill="#D9BF9A"/>
<path d="M17 5H16V6H17V5Z" fill="#D9BF9A"/>
<path d="M18 5H17V6H18V5Z" fill="#6A522B"/>
<path d="M19 5H18V6H19V5Z" fill="#D9BF9A"/>
<path d="M7 6H6V7H7V6Z" fill="#D9BF9A"/>
<path d="M8 6H7V7H8V6Z" fill="#D9BF9A"/>
<path d="M9 6H8V7H9V6Z" fill="#6A522B"/>
<path d="M10 6H9V7H10V6Z" fill="#6A522B"/>
<path d="M11 6H10V7H11V6Z" fill="#6A522B"/>
<path d="M12 6H11V7H12V6Z" fill="#6A522B"/>
<path d="M13 6H12V7H13V6Z" fill="#6A522B"/>
<path d="M14 6H13V7H14V6Z" fill="#6A522B"/>
<path d="M15 6H14V7H15V6Z" fill="#6A522B"/>
<path d="M16 6H15V7H16V6Z" fill="#6A522B"/>
<path d="M17 6H16V7H17V6Z" fill="#6A522B"/>
<path d="M18 6H17V7H18V6Z" fill="#D9BF9A"/>
<path d="M19 6H18V7H19V6Z" fill="#D9BF9A"/>
<path d="M8 7H7V8H8V7Z" fill="#D9BF9A"/>
<path d="M9 7H8V8H9V7Z" fill="#D9BF9A"/>
<path d="M10 7H9V8H10V7Z" fill="#D9BF9A"/>
<path d="M11 7H10V8H11V7Z" fill="#D9BF9A"/>
<path d="M12 7H11V8H12V7Z" fill="#D9BF9A"/>
<path d="M13 7H12V8H13V7Z" fill="#D9BF9A"/>
<path d="M14 7H13V8H14V7Z" fill="#D9BF9A"/>
<path d="M15 7H14V8H15V7Z" fill="#D9BF9A"/>
<path d="M16 7H15V8H16V7Z" fill="#D9BF9A"/>
<path d="M17 7H16V8H17V7Z" fill="#D9BF9A"/>
<path d="M18 7H17V8H18V7Z" fill="#D9BF9A"/>
</svg>
