<svg width="24" height="24" viewBox="0 0 24 24" fill="none" xmlns="http://www.w3.org/2000/svg">
<path d="M10 2H9V3H10V2Z" fill="#4C2979"/>
<path d="M11 2H10V3H11V2Z" fill="#4C2979"/>
<path d="M12 2H11V3H12V2Z" fill="#4C2979"/>
<path d="M13 2H12V3H13V2Z" fill="#4C2979"/>
<path d="M11 3H10V4H11V3Z" fill="#4C2979"/>
<path d="M12 3H11V4H12V3Z" fill="#4C2979"/>
<path d="M13 3H12V4H13V3Z" fill="#4C2979"/>
<path d="M14 3H13V4H14V3Z" fill="#4C2979"/>
<path d="M12 4H11V5H12V4Z" fill="#4C2979"/>
<path d="M13 4H12V5H13V4Z" fill="#4C2979"/>
<path d="M14 4H13V5H14V4Z" fill="#4C2979"/>
<path d="M15 4H14V5H15V4Z" fill="#4C2979"/>
<path d="M11 5H10V6H11V5Z" fill="#4C2979"/>
<path d="M12 5H11V6H12V5Z" fill="#4C2979"/>
<path d="M13 5H12V6H13V5Z" fill="#4C2979"/>
<path d="M14 5H13V6H14V5Z" fill="#4C2979"/>
<path d="M15 5H14V6H15V5Z" fill="#4C2979"/>
<path d="M16 5H15V6H16V5Z" fill="#4C2979"/>
<path d="M9 6H8V7H9V6Z" fill="#4C2979"/>
<path d="M10 6H9V7H10V6Z" fill="#FFF400"/>
<path d="M11 6H10V7H11V6Z" fill="#4C2979"/>
<path d="M12 6H11V7H12V6Z" fill="#4C2979"/>
<path d="M13 6H12V7H13V6Z" fill="#4C2979"/>
<path d="M14 6H13V7H14V6Z" fill="#4C2979"/>
<path d="M15 6H14V7H15V6Z" fill="#4C2979"/>
<path d="M16 6H15V7H16V6Z" fill="#4C2979"/>
<path d="M17 6H16V7H17V6Z" fill="#FFF400"/>
<path d="M18 6H17V7H18V6Z" fill="#4C2979"/>
<path d="M9 7H8V8H9V7Z" fill="#4C2979"/>
<path d="M10 7H9V8H10V7Z" fill="#4C2979"/>
<path d="M11 7H10V8H11V7Z" fill="#FFF400"/>
<path d="M12 7H11V8H12V7Z" fill="#FFF400"/>
<path d="M13 7H12V8H13V7Z" fill="#FFF400"/>
<path d="M14 7H13V8H14V7Z" fill="#FFF400"/>
<path d="M15 7H14V8H15V7Z" fill="#FFF400"/>
<path d="M16 7H15V8H16V7Z" fill="#FFF400"/>
<path d="M17 7H16V8H17V7Z" fill="#4C2979"/>
<path d="M18 7H17V8H18V7Z" fill="#4C2979"/>
<path d="M10 8H9V9H10V8Z" fill="#4C2979"/>
<path d="M11 8H10V9H11V8Z" fill="#4C2979"/>
<path d="M12 8H11V9H12V8Z" fill="#4C2979"/>
<path d="M13 8H12V9H13V8Z" fill="#4C2979"/>
<path d="M14 8H13V9H14V8Z" fill="#4C2979"/>
<path d="M15 8H14V9H15V8Z" fill="#4C2979"/>
<path d="M16 8H15V9H16V8Z" fill="#4C2979"/>
<path d="M17 8H16V9H17V8Z" fill="#4C2979"/>
</svg>
