<svg width="25" height="24" viewBox="0 0 25 24" fill="none" xmlns="http://www.w3.org/2000/svg">
<path d="M12.6875 12H11.6875V13H12.6875V12Z" fill="#00C8FF"/>
<path d="M12.6875 11H11.6875V12H12.6875V11Z" fill="black"/>
<path d="M12.6875 10H11.6875V11H12.6875V10Z" fill="white"/>
<path d="M11.6875 12H10.6875V13H11.6875V12Z" fill="white"/>
<path d="M11.6875 11H10.6875V12H11.6875V11Z" fill="white"/>
<path d="M11.6875 10H10.6875V11H11.6875V10Z" fill="white"/>
<path d="M18.6875 12H17.6875V13H18.6875V12Z" fill="#00C8FF"/>
<path d="M18.6875 11H17.6875V12H18.6875V11Z" fill="black"/>
<path d="M18.6875 10H17.6875V11H18.6875V10Z" fill="white"/>
<path d="M17.6875 12H16.6875V13H17.6875V12Z" fill="white"/>
<path d="M17.6875 11H16.6875V12H17.6875V11Z" fill="white"/>
<path d="M17.6875 10H16.6875V11H17.6875V10Z" fill="white"/>
<path d="M12.6875 13H11.6875V14H12.6875V13Z" fill="#00C8FF"/>
<path d="M18.6875 13H17.6875V14H18.6875V13Z" fill="#00C8FF"/>
<path d="M12.6875 14H11.6875V15H12.6875V14Z" fill="#00C8FF"/>
<path d="M18.6875 14H17.6875V15H18.6875V14Z" fill="#00C8FF"/>
<path d="M12.6875 15H11.6875V16H12.6875V15Z" fill="#00C8FF"/>
<path d="M18.6875 15H17.6875V16H18.6875V15Z" fill="#00C8FF"/>
<path d="M12.6875 16H11.6875V17H12.6875V16Z" fill="#00C8FF"/>
<path d="M18.6875 16H17.6875V17H18.6875V16Z" fill="#00C8FF"/>
<path d="M12.6875 17H11.6875V18H12.6875V17Z" fill="#00C8FF"/>
<path d="M18.6875 17H17.6875V18H18.6875V17Z" fill="#00C8FF"/>
</svg>
