<svg width="25" height="24" viewBox="0 0 25 24" fill="none" xmlns="http://www.w3.org/2000/svg">
<path d="M17.3438 7H16.3438V8H17.3438V7Z" fill="black"/>
<path d="M16.3438 8H15.3438V9H16.3438V8Z" fill="black"/>
<path d="M15.3438 9H14.3438V10H15.3438V9Z" fill="black"/>
<path d="M10.3438 10H9.34375V11H10.3438V10Z" fill="#1C1C1C"/>
<path d="M11.3438 10H10.3438V11H11.3438V10Z" fill="black"/>
<path d="M12.3438 10H11.3438V11H12.3438V10Z" fill="black"/>
<path d="M13.3438 10H12.3438V11H13.3438V10Z" fill="black"/>
<path d="M14.3438 10H13.3438V11H14.3438V10Z" fill="black"/>
<path d="M10.3438 11H9.34375V12H10.3438V11Z" fill="#1C1C1C"/>
<path d="M11.3438 11H10.3438V12H11.3438V11Z" fill="black"/>
<path d="M12.3438 11H11.3438V12H12.3438V11Z" fill="black"/>
<path d="M13.3438 11H12.3438V12H13.3438V11Z" fill="black"/>
<path d="M14.3438 11H13.3438V12H14.3438V11Z" fill="black"/>
<path d="M10.3438 12H9.34375V13H10.3438V12Z" fill="#1C1C1C"/>
<path d="M11.3438 12H10.3438V13H11.3438V12Z" fill="#1C1C1C"/>
<path d="M12.3438 12H11.3438V13H12.3438V12Z" fill="black"/>
<path d="M13.3438 12H12.3438V13H13.3438V12Z" fill="black"/>
<path d="M14.3438 12H13.3438V13H14.3438V12Z" fill="black"/>
<path d="M9.34375 13H8.34375V14H9.34375V13Z" fill="#1C1C1C"/>
<path d="M11.3438 13H10.3438V14H11.3438V13Z" fill="#1C1C1C"/>
<path d="M12.3438 13H11.3438V14H12.3438V13Z" fill="#1C1C1C"/>
<path d="M13.3438 13H12.3438V14H13.3438V13Z" fill="#1C1C1C"/>
<path d="M8.34375 14H7.34375V15H8.34375V14Z" fill="#1C1C1C"/>
</svg>
