<svg width="25" height="24" viewBox="0 0 25 24" fill="none" xmlns="http://www.w3.org/2000/svg">
<path d="M9.66406 11H8.66406V12H9.66406V11Z" fill="#0900FF"/>
<path d="M9.66406 10H8.66406V11H9.66406V10Z" fill="#0800FF"/>
<path d="M14.6641 11H13.6641V12H14.6641V11Z" fill="#0900FF"/>
<path d="M15.6641 12H14.6641V13H15.6641V12Z" fill="#0800FF"/>
<path d="M16.6641 11H15.6641V12H16.6641V11Z" fill="#0900FF"/>
<path d="M20.6641 11H19.6641V12H20.6641V11Z" fill="#0900FF"/>
<path d="M20.6641 10H19.6641V11H20.6641V10Z" fill="#0800FF"/>
<path d="M9.66406 12H8.66406V13H9.66406V12Z" fill="#0900FF"/>
<path d="M14.6641 12H13.6641V13H14.6641V12Z" fill="#0900FF"/>
<path d="M14.6641 13H13.6641V14H14.6641V13Z" fill="#0900FF"/>
<path d="M16.6641 12H15.6641V13H16.6641V12Z" fill="#0900FF"/>
<path d="M16.6641 13H15.6641V14H16.6641V13Z" fill="#0900FF"/>
<path d="M20.6641 12H19.6641V13H20.6641V12Z" fill="#0900FF"/>
<path d="M10.6641 13H9.66406V14H10.6641V13Z" fill="#0900FF"/>
<path d="M10.6641 12H9.66406V13H10.6641V12Z" fill="#7D78FF"/>
<path d="M10.6641 11H9.66406V12H10.6641V11Z" fill="#7D78FF"/>
<path d="M10.6641 10H9.66406V11H10.6641V10Z" fill="#0800FF"/>
<path d="M11.6641 13H10.6641V14H11.6641V13Z" fill="#0900FF"/>
<path d="M11.6641 12H10.6641V13H11.6641V12Z" fill="#ADAAFF"/>
<path d="M11.6641 11H10.6641V12H11.6641V11Z" fill="#7D78FF"/>
<path d="M11.6641 10H10.6641V11H11.6641V10Z" fill="#0800FF"/>
<path d="M12.6641 13H11.6641V14H12.6641V13Z" fill="#0900FF"/>
<path d="M12.6641 12H11.6641V13H12.6641V12Z" fill="#7D78FF"/>
<path d="M12.6641 11H11.6641V12H12.6641V11Z" fill="#ADAAFF"/>
<path d="M12.6641 10H11.6641V11H12.6641V10Z" fill="#0800FF"/>
<path d="M13.6641 13H12.6641V14H13.6641V13Z" fill="#0900FF"/>
<path d="M13.6641 12H12.6641V13H13.6641V12Z" fill="#7D78FF"/>
<path d="M13.6641 11H12.6641V12H13.6641V11Z" fill="#7D78FF"/>
<path d="M13.6641 10H12.6641V11H13.6641V10Z" fill="#0800FF"/>
<path d="M17.6641 13H16.6641V14H17.6641V13Z" fill="#0900FF"/>
<path d="M17.6641 12H16.6641V13H17.6641V12Z" fill="#7D78FF"/>
<path d="M17.6641 11H16.6641V12H17.6641V11Z" fill="#7D78FF"/>
<path d="M17.6641 10H16.6641V11H17.6641V10Z" fill="#0800FF"/>
<path d="M18.6641 13H17.6641V14H18.6641V13Z" fill="#0900FF"/>
<path d="M18.6641 12H17.6641V13H18.6641V12Z" fill="#ADAAFF"/>
<path d="M18.6641 11H17.6641V12H18.6641V11Z" fill="#7D78FF"/>
<path d="M18.6641 10H17.6641V11H18.6641V10Z" fill="#0800FF"/>
<path d="M19.6641 13H18.6641V14H19.6641V13Z" fill="#0900FF"/>
<path d="M19.6641 12H18.6641V13H19.6641V12Z" fill="#7D78FF"/>
<path d="M19.6641 11H18.6641V12H19.6641V11Z" fill="#ADAAFF"/>
<path d="M19.6641 10H18.6641V11H19.6641V10Z" fill="#0800FF"/>
</svg>
