<svg width="25" height="24" viewBox="0 0 25 24" fill="none" xmlns="http://www.w3.org/2000/svg">
<path d="M9.28906 11H8.28906V12H9.28906V11Z" fill="#0900FF"/>
<path d="M14.2891 11H13.2891V12H14.2891V11Z" fill="#0900FF"/>
<path d="M15.2891 11H14.2891V12H15.2891V11Z" fill="#0900FF"/>
<path d="M16.2891 11H15.2891V12H16.2891V11Z" fill="#0900FF"/>
<path d="M20.2891 11H19.2891V12H20.2891V11Z" fill="#0900FF"/>
<path d="M9.28906 12H8.28906V13H9.28906V12Z" fill="#0900FF"/>
<path d="M14.2891 12H13.2891V13H14.2891V12Z" fill="#0900FF"/>
<path d="M16.2891 12H15.2891V13H16.2891V12Z" fill="#0900FF"/>
<path d="M20.2891 12H19.2891V13H20.2891V12Z" fill="#0900FF"/>
<path d="M10.2891 13H9.28906V14H10.2891V13Z" fill="#0900FF"/>
<path d="M11.2891 13H10.2891V14H11.2891V13Z" fill="#0900FF"/>
<path d="M12.2891 13H11.2891V14H12.2891V13Z" fill="#0900FF"/>
<path d="M13.2891 13H12.2891V14H13.2891V13Z" fill="#0900FF"/>
<path d="M17.2891 13H16.2891V14H17.2891V13Z" fill="#0900FF"/>
<path d="M18.2891 13H17.2891V14H18.2891V13Z" fill="#0900FF"/>
<path d="M19.2891 13H18.2891V14H19.2891V13Z" fill="#0900FF"/>
</svg>
