<?xml version="1.0" encoding="UTF-8" ?>
<svg version="1.1" width="24" height="24" xmlns="http://www.w3.org/2000/svg" shape-rendering="crispEdges">
<rect x="6" y="10" width="1" height="1" fill="#383838" />
<rect x="7" y="10" width="1" height="1" fill="#383838" />
<rect x="8" y="10" width="1" height="1" fill="#383838" />
<rect x="9" y="10" width="1" height="1" fill="#383838" />
<rect x="10" y="10" width="1" height="1" fill="#00F4FF" />
<rect x="11" y="10" width="1" height="1" fill="#00F4FF" />
<rect x="12" y="10" width="1" height="1" fill="#00F4FF" />
<rect x="13" y="10" width="1" height="1" fill="#00F4FF" />
<rect x="6" y="11" width="1" height="1" fill="#383838" />
<rect x="7" y="11" width="1" height="1" fill="#383838" />
<rect x="8" y="11" width="1" height="1" fill="#AEAEAE" />
<rect x="9" y="11" width="1" height="1" fill="#00F4FF" />
<rect x="10" y="11" width="1" height="1" fill="#00F4FF" />
<rect x="11" y="11" width="1" height="1" fill="#00F4FF" />
<rect x="12" y="11" width="1" height="1" fill="#9FFBFF" />
<rect x="13" y="11" width="1" height="1" fill="#00F4FF" />
<rect x="7" y="12" width="1" height="1" fill="#383838" />
<rect x="8" y="12" width="1" height="1" fill="#AEAEAE" />
<rect x="9" y="12" width="1" height="1" fill="#00F4FF" />
<rect x="10" y="12" width="1" height="1" fill="#00F4FF" />
<rect x="11" y="12" width="1" height="1" fill="#9FFBFF" />
<rect x="12" y="12" width="1" height="1" fill="#00F4FF" />
<rect x="13" y="12" width="1" height="1" fill="#00F4FF" />
<rect x="7" y="13" width="1" height="1" fill="#383838" />
<rect x="8" y="13" width="1" height="1" fill="#383838" />
<rect x="8" y="14" width="1" height="1" fill="#383838" />
</svg>