<svg width="24" height="24" viewBox="0 0 24 24" fill="none" xmlns="http://www.w3.org/2000/svg">
<path d="M11 10H10V11H11V10Z" fill="#00D9FF"/>
<path d="M12 10H11V11H12V10Z" fill="#00D9FF"/>
<path d="M17 10H16V11H17V10Z" fill="#00D9FF"/>
<path d="M18 10H17V11H18V10Z" fill="#00D9FF"/>
<path d="M10 11H9V12H10V11Z" fill="#00D9FF"/>
<path d="M11 11H10V12H11V11Z" fill="white"/>
<path d="M12 11H11V12H12V11Z" fill="black"/>
<path d="M16 11H15V12H16V11Z" fill="#00D9FF"/>
<path d="M17 11H16V12H17V11Z" fill="white"/>
<path d="M18 11H17V12H18V11Z" fill="black"/>
<path d="M11 12H10V13H11V12Z" fill="#FF68AA"/>
<path d="M12 12H11V13H12V12Z" fill="#FF68AA"/>
<path d="M17 12H16V13H17V12Z" fill="#FF68AA"/>
<path d="M18 12H17V13H18V12Z" fill="#FF68AA"/>
<path d="M11 13H10V14H11V13Z" fill="#FF68AA"/>
<path d="M12 13H11V14H12V13Z" fill="#FF68AA"/>
<path d="M17 13H16V14H17V13Z" fill="#FF68AA"/>
<path d="M18 13H17V14H18V13Z" fill="#FF68AA"/>
</svg>
