<svg width="24" height="24" viewBox="0 0 24 24" fill="none" xmlns="http://www.w3.org/2000/svg">
<path d="M12 8H11V9H12V8Z" fill="#8A49C5"/>
<path d="M11 8H10V9H11V8Z" fill="#8A49C5"/>
<path d="M17 8H16V9H17V8Z" fill="#8A49C5"/>
<path d="M18 8H17V9H18V8Z" fill="#8A49C5"/>
<path d="M11 9H10V10H11V9Z" fill="#8A49C5"/>
<path d="M12 9H11V10H12V9Z" fill="#8A49C5"/>
<path d="M17 9H16V10H17V9Z" fill="#8A49C5"/>
<path d="M18 9H17V10H18V9Z" fill="#8A49C5"/>
<path d="M11 13H10V14H11V13Z" fill="#8A49C5"/>
<path d="M12 13H11V14H12V13Z" fill="#8A49C5"/>
<path d="M17 13H16V14H17V13Z" fill="#8A49C5"/>
<path d="M18 13H17V14H18V13Z" fill="#8A49C5"/>
<path d="M11 14H10V15H11V14Z" fill="#8A49C5"/>
<path d="M12 14H11V15H12V14Z" fill="#8A49C5"/>
<path d="M17 14H16V15H17V14Z" fill="#8A49C5"/>
<path d="M18 14H17V15H18V14Z" fill="#8A49C5"/>
<path d="M12 15H11V16H12V15Z" fill="#8A49C5"/>
<path d="M17 15H16V16H17V15Z" fill="#8A49C5"/>
</svg>
