<svg width="24" height="24" viewBox="0 0 24 24" fill="none" xmlns="http://www.w3.org/2000/svg">
<path d="M8 10H7V11H8V10Z" fill="#444444"/>
<path d="M9 10H8V11H9V10Z" fill="#444444"/>
<path d="M10 10H9V11H10V10Z" fill="#444444"/>
<path d="M11 10H10V11H11V10Z" fill="#444444"/>
<path d="M12 10H11V11H12V10Z" fill="#444444"/>
<path d="M13 10H12V11H13V10Z" fill="#444444"/>
<path d="M14 10H13V11H14V10Z" fill="#444444"/>
<path d="M15 10H14V11H15V10Z" fill="#444444"/>
<path d="M16 10H15V11H16V10Z" fill="#444444"/>
<path d="M17 10H16V11H17V10Z" fill="#444444"/>
<path d="M18 10H17V11H18V10Z" fill="#444444"/>
<path d="M19 10H18V11H19V10Z" fill="#444444"/>
<path d="M20 10H19V11H20V10Z" fill="#444444"/>
<path d="M8 11H7V12H8V11Z" fill="#444444"/>
<path d="M9 11H8V12H9V11Z" fill="#444444"/>
<path d="M10 11H9V12H10V11Z" fill="#717171"/>
<path d="M11 11H10V12H11V11Z" fill="#717171"/>
<path d="M12 11H11V12H12V11Z" fill="#717171"/>
<path d="M13 11H12V12H13V11Z" fill="#717171"/>
<path d="M14 11H13V12H14V11Z" fill="#717171"/>
<path d="M15 11H14V12H15V11Z" fill="#717171"/>
<path d="M16 11H15V12H16V11Z" fill="#717171"/>
<path d="M17 11H16V12H17V11Z" fill="#717171"/>
<path d="M18 11H17V12H18V11Z" fill="#717171"/>
<path d="M19 11H18V12H19V11Z" fill="#717171"/>
<path d="M20 11H19V12H20V11Z" fill="#444444"/>
<path d="M9 12H8V13H9V12Z" fill="#444444"/>
<path d="M10 12H9V13H10V12Z" fill="#5E5E5E"/>
<path d="M11 12H10V13H11V12Z" fill="#5E5E5E"/>
<path d="M12 12H11V13H12V12Z" fill="#5E5E5E"/>
<path d="M13 12H12V13H13V12Z" fill="#5E5E5E"/>
<path d="M14 12H13V13H14V12Z" fill="#5E5E5E"/>
<path d="M15 12H14V13H15V12Z" fill="#5E5E5E"/>
<path d="M16 12H15V13H16V12Z" fill="#5E5E5E"/>
<path d="M17 12H16V13H17V12Z" fill="#5E5E5E"/>
<path d="M18 12H17V13H18V12Z" fill="#5E5E5E"/>
<path d="M19 12H18V13H19V12Z" fill="#5E5E5E"/>
<path d="M20 12H19V13H20V12Z" fill="#444444"/>
<path d="M9 13H8V14H9V13Z" fill="#444444"/>
<path d="M10 13H9V14H10V13Z" fill="#444444"/>
<path d="M11 13H10V14H11V13Z" fill="#444444"/>
<path d="M12 13H11V14H12V13Z" fill="#444444"/>
<path d="M13 13H12V14H13V13Z" fill="#444444"/>
<path d="M14 13H13V14H14V13Z" fill="#444444"/>
<path d="M15 13H14V14H15V13Z" fill="#444444"/>
<path d="M16 13H15V14H16V13Z" fill="#444444"/>
<path d="M17 13H16V14H17V13Z" fill="#444444"/>
<path d="M18 13H17V14H18V13Z" fill="#444444"/>
<path d="M19 13H18V14H19V13Z" fill="#444444"/>
</svg>
