<?xml version="1.0" encoding="UTF-8" ?>
<svg version="1.1" width="24" height="24" xmlns="http://www.w3.org/2000/svg" shape-rendering="crispEdges">
<rect x="7" y="10" width="1" height="1" fill="#000000" />
<rect x="8" y="10" width="1" height="1" fill="#000000" />
<rect x="9" y="10" width="1" height="1" fill="#000000" />
<rect x="10" y="10" width="1" height="1" fill="#000000" />
<rect x="11" y="10" width="1" height="1" fill="#000000" />
<rect x="12" y="10" width="1" height="1" fill="#000000" />
<rect x="13" y="10" width="1" height="1" fill="#000000" />
<rect x="14" y="10" width="1" height="1" fill="#000000" />
<rect x="15" y="10" width="1" height="1" fill="#000000" />
<rect x="16" y="10" width="1" height="1" fill="#000000" />
<rect x="17" y="10" width="1" height="1" fill="#000000" />
<rect x="18" y="10" width="1" height="1" fill="#000000" />
<rect x="19" y="10" width="1" height="1" fill="#000000" />
<rect x="8" y="11" width="1" height="1" fill="#00FFF4" />
<rect x="9" y="11" width="1" height="1" fill="#00FFF4" />
<rect x="10" y="11" width="1" height="1" fill="#00FFF4" />
<rect x="11" y="11" width="1" height="1" fill="#9BFFFB" />
<rect x="12" y="11" width="1" height="1" fill="#00FFF4" />
<rect x="13" y="11" width="1" height="1" fill="#00FFF4" />
<rect x="14" y="11" width="1" height="1" fill="#00FFF4" />
<rect x="15" y="11" width="1" height="1" fill="#00FFF4" />
<rect x="16" y="11" width="1" height="1" fill="#00FFF4" />
<rect x="17" y="11" width="1" height="1" fill="#9BFFFB" />
<rect x="18" y="11" width="1" height="1" fill="#00FFF4" />
<rect x="19" y="11" width="1" height="1" fill="#00FFF4" />
<rect x="9" y="12" width="1" height="1" fill="#00FFF4" />
<rect x="10" y="12" width="1" height="1" fill="#9BFFFB" />
<rect x="11" y="12" width="1" height="1" fill="#00FFF4" />
<rect x="12" y="12" width="1" height="1" fill="#00FFF4" />
<rect x="15" y="12" width="1" height="1" fill="#00FFF4" />
<rect x="16" y="12" width="1" height="1" fill="#9BFFFB" />
<rect x="17" y="12" width="1" height="1" fill="#00FFF4" />
<rect x="18" y="12" width="1" height="1" fill="#00FFF4" />
</svg>