<svg width="25" height="25" viewBox="0 0 25 25" fill="none" xmlns="http://www.w3.org/2000/svg">
<path d="M11.9141 10.4688H10.9141V11.4688H11.9141V10.4688Z" fill="white"/>
<path d="M12.9141 10.4688H11.9141V11.4688H12.9141V10.4688Z" fill="black"/>
<path d="M13.9141 10.4688H12.9141V11.4688H13.9141V10.4688Z" fill="black"/>
<path d="M17.9141 10.4688H16.9141V11.4688H17.9141V10.4688Z" fill="white"/>
<path d="M18.9141 10.4688H17.9141V11.4688H18.9141V10.4688Z" fill="black"/>
<path d="M19.9141 10.4688H18.9141V11.4688H19.9141V10.4688Z" fill="black"/>
<path d="M11.9141 11.4688H10.9141V12.4688H11.9141V11.4688Z" fill="white"/>
<path d="M12.9141 11.4688H11.9141V12.4688H12.9141V11.4688Z" fill="black"/>
<path d="M13.9141 11.4688H12.9141V12.4688H13.9141V11.4688Z" fill="white"/>
<path d="M17.9141 11.4688H16.9141V12.4688H17.9141V11.4688Z" fill="white"/>
<path d="M18.9141 11.4688H17.9141V12.4688H18.9141V11.4688Z" fill="black"/>
<path d="M19.9141 11.4688H18.9141V12.4688H19.9141V11.4688Z" fill="white"/>
<path d="M11.9141 12.4688H10.9141V13.4688H11.9141V12.4688Z" fill="white"/>
<path d="M12.9141 12.4688H11.9141V13.4688H12.9141V12.4688Z" fill="black"/>
<path d="M13.9141 12.4688H12.9141V13.4688H13.9141V12.4688Z" fill="black"/>
<path d="M11.9141 13.4688H10.9141V14.4688H11.9141V13.4688Z" fill="#76F9FF"/>
<path d="M12.9141 13.4688H11.9141V14.4688H12.9141V13.4688Z" fill="#76F9FF"/>
<path d="M17.9141 12.4688H16.9141V13.4688H17.9141V12.4688Z" fill="white"/>
<path d="M18.9141 12.4688H17.9141V13.4688H18.9141V12.4688Z" fill="black"/>
<path d="M19.9141 12.4688H18.9141V13.4688H19.9141V12.4688Z" fill="black"/>
<path d="M19.9141 13.4688H18.9141V14.4688H19.9141V13.4688Z" fill="#76F9FF"/>
<path d="M20.9141 13.4688H19.9141V14.4688H20.9141V13.4688Z" fill="#76F9FF"/>
</svg>
