<svg width="25" height="24" viewBox="0 0 25 24" fill="none" xmlns="http://www.w3.org/2000/svg">
<path d="M8.17188 18H7.17188V19H8.17188V18Z" fill="black"/>
<path d="M9.17188 18H8.17188V19H9.17188V18Z" fill="black"/>
<path d="M10.1719 18H9.17188V19H10.1719V18Z" fill="black"/>
<path d="M10.1719 19H9.17188V20H10.1719V19Z" fill="black"/>
<path d="M11.1719 19H10.1719V20H11.1719V19Z" fill="#5E5E5E"/>
<path d="M12.1719 19H11.1719V20H12.1719V19Z" fill="#5E5E5E"/>
<path d="M13.1719 19H12.1719V20H13.1719V19Z" fill="black"/>
<path d="M9.17188 20H8.17188V21H9.17188V20Z" fill="black"/>
<path d="M10.1719 20H9.17188V21H10.1719V20Z" fill="black"/>
<path d="M11.1719 20H10.1719V21H11.1719V20Z" fill="black"/>
<path d="M12.1719 20H11.1719V21H12.1719V20Z" fill="#5E5E5E"/>
<path d="M13.1719 20H12.1719V21H13.1719V20Z" fill="black"/>
<path d="M14.1719 20H13.1719V21H14.1719V20Z" fill="black"/>
<path d="M8.17188 21H7.17188V22H8.17188V21Z" fill="black"/>
<path d="M9.17188 21H8.17188V22H9.17188V21Z" fill="black"/>
<path d="M10.1719 21H9.17188V22H10.1719V21Z" fill="black"/>
<path d="M11.1719 21H10.1719V22H11.1719V21Z" fill="black"/>
<path d="M12.1719 21H11.1719V22H12.1719V21Z" fill="black"/>
<path d="M13.1719 21H12.1719V22H13.1719V21Z" fill="black"/>
<path d="M14.1719 21H13.1719V22H14.1719V21Z" fill="black"/>
<path d="M8.17188 22H7.17188V23H8.17188V22Z" fill="black"/>
<path d="M9.17188 22H8.17188V23H9.17188V22Z" fill="black"/>
<path d="M10.1719 22H9.17188V23H10.1719V22Z" fill="black"/>
<path d="M11.1719 22H10.1719V23H11.1719V22Z" fill="black"/>
<path d="M12.1719 22H11.1719V23H12.1719V22Z" fill="black"/>
<path d="M13.1719 22H12.1719V23H13.1719V22Z" fill="black"/>
<path d="M14.1719 22H13.1719V23H14.1719V22Z" fill="black"/>
<path d="M8.17188 23H7.17188V24H8.17188V23Z" fill="black"/>
<path d="M9.17188 23H8.17188V24H9.17188V23Z" fill="black"/>
<path d="M10.1719 23H9.17188V24H10.1719V23Z" fill="black"/>
<path d="M11.1719 23H10.1719V24H11.1719V23Z" fill="black"/>
<path d="M12.1719 23H11.1719V24H12.1719V23Z" fill="black"/>
<path d="M13.1719 23H12.1719V24H13.1719V23Z" fill="black"/>
<path d="M14.1719 23H13.1719V24H14.1719V23Z" fill="black"/>
</svg>
