<svg width="25" height="24" viewBox="0 0 25 24" fill="none" xmlns="http://www.w3.org/2000/svg">
<path d="M10.1641 19H9.16406V20H10.1641V19Z" fill="#FF953B"/>
<path d="M13.1641 19H12.1641V20H13.1641V19Z" fill="#FF953B"/>
<path d="M9.16406 20H8.16406V21H9.16406V20Z" fill="#F57100"/>
<path d="M10.1641 20H9.16406V21H10.1641V20Z" fill="#FF953B"/>
<path d="M11.1641 20H10.1641V21H11.1641V20Z" fill="#FF953B"/>
<path d="M11.1641 19H10.1641V20H11.1641V19Z" fill="white"/>
<path d="M12.1641 20H11.1641V21H12.1641V20Z" fill="#FF953B"/>
<path d="M12.1641 19H11.1641V20H12.1641V19Z" fill="white"/>
<path d="M13.1641 20H12.1641V21H13.1641V20Z" fill="#FF953B"/>
<path d="M14.1641 20H13.1641V21H14.1641V20Z" fill="#F57100"/>
<path d="M8.16406 21H7.16406V22H8.16406V21Z" fill="#F57100"/>
<path d="M9.16406 21H8.16406V22H9.16406V21Z" fill="#F57100"/>
<path d="M10.1641 21H9.16406V22H10.1641V21Z" fill="#FF953B"/>
<path d="M11.1641 21H10.1641V22H11.1641V21Z" fill="#F57100"/>
<path d="M12.1641 21H11.1641V22H12.1641V21Z" fill="#F57100"/>
<path d="M13.1641 21H12.1641V22H13.1641V21Z" fill="#FF953B"/>
<path d="M14.1641 21H13.1641V22H14.1641V21Z" fill="#F57100"/>
<path d="M8.16406 22H7.16406V23H8.16406V22Z" fill="#F57100"/>
<path d="M9.16406 22H8.16406V23H9.16406V22Z" fill="#F57100"/>
<path d="M10.1641 22H9.16406V23H10.1641V22Z" fill="#F57100"/>
<path d="M11.1641 22H10.1641V23H11.1641V22Z" fill="#F57100"/>
<path d="M12.1641 22H11.1641V23H12.1641V22Z" fill="#F57100"/>
<path d="M13.1641 22H12.1641V23H13.1641V22Z" fill="#F57100"/>
<path d="M14.1641 22H13.1641V23H14.1641V22Z" fill="#F57100"/>
<path d="M8.16406 23H7.16406V24H8.16406V23Z" fill="#CB5E00"/>
<path d="M9.16406 23H8.16406V24H9.16406V23Z" fill="#CB5E00"/>
<path d="M10.1641 23H9.16406V24H10.1641V23Z" fill="#F57100"/>
<path d="M11.1641 23H10.1641V24H11.1641V23Z" fill="#F57100"/>
<path d="M12.1641 23H11.1641V24H12.1641V23Z" fill="#F57100"/>
<path d="M13.1641 23H12.1641V24H13.1641V23Z" fill="#F57100"/>
<path d="M14.1641 23H13.1641V24H14.1641V23Z" fill="#CB5E00"/>
</svg>
