<svg width="24" height="24" viewBox="0 0 24 24" fill="none" xmlns="http://www.w3.org/2000/svg">
  <rect x="10" y="19" width="1" height="1" fill="white"/>
  <rect x="14" y="19" width="1" height="1" fill="white"/>
  <rect x="10" y="20" width="1" height="1" fill="white"/>
  <rect x="14" y="20" width="1" height="1" fill="white"/>
  <rect x="10" y="21" width="1" height="1" fill="#F1AD00"/>
  <rect x="11" y="21" width="1" height="1" fill="#F2AD00"/>
  <rect x="12" y="21" width="1" height="1" fill="#F2AD00"/>
  <rect x="13" y="21" width="1" height="1" fill="#F2AD00"/>
  <rect x="14" y="21" width="1" height="1" fill="#F2AD00"/>
  <rect x="9" y="22" width="1" height="1" fill="#F2AD00"/>
  <rect x="10" y="22" width="1" height="1" fill="#F2AD00"/>
  <rect x="11" y="22" width="1" height="1" fill="#F2AD00"/>
  <rect x="12" y="22" width="1" height="1" fill="white"/>
  <rect x="13" y="22" width="1" height="1" fill="white"/>
  <rect x="14" y="22" width="1" height="1" fill="#F2AD00"/>
  <rect x="15" y="22" width="1" height="1" fill="#F2AD00"/>
  <rect x="7" y="23" width="1" height="1" fill="#F2AD00"/>
  <rect x="8" y="23" width="1" height="1" fill="#F2AD00"/>
  <rect x="9" y="23" width="1" height="1" fill="#F2AD00"/>
  <rect x="10" y="23" width="1" height="1" fill="#F2AD00"/>
  <rect x="11" y="23" width="1" height="1" fill="#F2AD00"/>
  <rect x="12" y="23" width="1" height="1" fill="white"/>
  <rect x="13" y="23" width="1" height="1" fill="white"/>
  <rect x="14" y="23" width="1" height="1" fill="#F2AD00"/>
  <rect x="15" y="23" width="1" height="1" fill="#F2AD00"/>
  <rect x="16" y="23" width="1" height="1" fill="#F2AD00"/>
</svg>