<svg width="25" height="24" viewBox="0 0 25 24" fill="none" xmlns="http://www.w3.org/2000/svg">
<path d="M10.5312 19H9.53125V20H10.5312V19Z" fill="#373737"/>
<path d="M11.5312 19H10.5312V20H11.5312V19Z" fill="black"/>
<path d="M12.5312 19H11.5312V20H12.5312V19Z" fill="black"/>
<path d="M9.53125 20H8.53125V21H9.53125V20Z" fill="#EFECEC"/>
<path d="M10.5312 20H9.53125V21H10.5312V20Z" fill="#EFECEC"/>
<path d="M11.5312 20H10.5312V21H11.5312V20Z" fill="#EFECEC"/>
<path d="M12.5312 20H11.5312V21H12.5312V20Z" fill="#EFECEC"/>
<path d="M13.5312 20H12.5312V21H13.5312V20Z" fill="#EFECEC"/>
<path d="M13.5312 19H12.5312V20H13.5312V19Z" fill="#373737"/>
<path d="M14.5312 20H13.5312V21H14.5312V20Z" fill="#EFECEC"/>
<path d="M8.53125 21H7.53125V22H8.53125V21Z" fill="#373737"/>
<path d="M8.53125 22H7.53125V23H8.53125V22Z" fill="black"/>
<path d="M9.53125 21H8.53125V22H9.53125V21Z" fill="#373737"/>
<path d="M9.53125 22H8.53125V23H9.53125V22Z" fill="black"/>
<path d="M10.5312 21H9.53125V22H10.5312V21Z" fill="#373737"/>
<path d="M11.5312 21H10.5312V22H11.5312V21Z" fill="#373737"/>
<path d="M12.5312 21H11.5312V22H12.5312V21Z" fill="#373737"/>
<path d="M13.5312 21H12.5312V22H13.5312V21Z" fill="#373737"/>
<path d="M14.5312 21H13.5312V22H14.5312V21Z" fill="#373737"/>
<path d="M14.5312 22H13.5312V23H14.5312V22Z" fill="black"/>
<path d="M10.5312 22H9.53125V23H10.5312V22Z" fill="#EFECEC"/>
<path d="M11.5312 22H10.5312V23H11.5312V22Z" fill="#EFECEC"/>
<path d="M12.5312 22H11.5312V23H12.5312V22Z" fill="#EFECEC"/>
<path d="M13.5312 22H12.5312V23H13.5312V22Z" fill="#EFECEC"/>
<path d="M10.5312 23H9.53125V24H10.5312V23Z" fill="#373737"/>
<path d="M11.5312 23H10.5312V24H11.5312V23Z" fill="#373737"/>
<path d="M12.5312 23H11.5312V24H12.5312V23Z" fill="#373737"/>
<path d="M13.5312 23H12.5312V24H13.5312V23Z" fill="#373737"/>
</svg>
