<svg width="25" height="24" viewBox="0 0 25 24" fill="none" xmlns="http://www.w3.org/2000/svg">
<path d="M10.8281 19H9.82812V20H10.8281V19Z" fill="white"/>
<path d="M12.8281 19H11.8281V20H12.8281V19Z" fill="#FF6100"/>
<path d="M11.8281 19H10.8281V20H11.8281V19Z" fill="white"/>
<path d="M13.8281 19H12.8281V20H13.8281V19Z" fill="white"/>
<path d="M9.82812 20H8.82812V21H9.82812V20Z" fill="#5BA2EF"/>
<path d="M10.8281 20H9.82812V21H10.8281V20Z" fill="#5BA2EF"/>
<path d="M12.8281 20H11.8281V21H12.8281V20Z" fill="#FF6100"/>
<path d="M11.8281 20H10.8281V21H11.8281V20Z" fill="#5BA2EF"/>
<path d="M13.8281 20H12.8281V21H13.8281V20Z" fill="#5BA2EF"/>
<path d="M14.8281 20H13.8281V21H14.8281V20Z" fill="#5BA2EF"/>
<path d="M8.82812 21H7.82812V22H8.82812V21Z" fill="#5BA2EF"/>
<path d="M9.82812 21H8.82812V22H9.82812V21Z" fill="#5BA2EF"/>
<path d="M10.8281 21H9.82812V22H10.8281V21Z" fill="#5BA2EF"/>
<path d="M11.8281 21H10.8281V22H11.8281V21Z" fill="#5BA2EF"/>
<path d="M12.8281 21H11.8281V22H12.8281V21Z" fill="#5BA2EF"/>
<path d="M13.8281 21H12.8281V22H13.8281V21Z" fill="#5BA2EF"/>
<path d="M14.8281 21H13.8281V22H14.8281V21Z" fill="#5BA2EF"/>
<path d="M8.82812 22H7.82812V23H8.82812V22Z" fill="#5BA2EF"/>
<path d="M9.82812 22H8.82812V23H9.82812V22Z" fill="#5BA2EF"/>
<path d="M10.8281 22H9.82812V23H10.8281V22Z" fill="#5BA2EF"/>
<path d="M11.8281 22H10.8281V23H11.8281V22Z" fill="#5BA2EF"/>
<path d="M12.8281 22H11.8281V23H12.8281V22Z" fill="#5BA2EF"/>
<path d="M13.8281 22H12.8281V23H13.8281V22Z" fill="#5BA2EF"/>
<path d="M14.8281 22H13.8281V23H14.8281V22Z" fill="#5BA2EF"/>
<path d="M8.82812 23H7.82812V24H8.82812V23Z" fill="white"/>
<path d="M9.82812 23H8.82812V24H9.82812V23Z" fill="white"/>
<path d="M10.8281 23H9.82812V24H10.8281V23Z" fill="#5BA2EF"/>
<path d="M11.8281 23H10.8281V24H11.8281V23Z" fill="#5BA2EF"/>
<path d="M12.8281 23H11.8281V24H12.8281V23Z" fill="#5BA2EF"/>
<path d="M13.8281 23H12.8281V24H13.8281V23Z" fill="#5BA2EF"/>
<path d="M14.8281 23H13.8281V24H14.8281V23Z" fill="white"/>
</svg>
