<svg width="25" height="24" viewBox="0 0 25 24" fill="none" xmlns="http://www.w3.org/2000/svg">
<path d="M10.1797 18H9.17969V19H10.1797V18Z" fill="#787878"/>
<path d="M9.17969 18H8.17969V19H9.17969V18Z" fill="#787878"/>
<path d="M8.17969 18H7.17969V19H8.17969V18Z" fill="#787878"/>
<path d="M10.1797 19H9.17969V20H10.1797V19Z" fill="#787878"/>
<path d="M13.1797 19H12.1797V20H13.1797V19Z" fill="#787878"/>
<path d="M9.17969 20H8.17969V21H9.17969V20Z" fill="black"/>
<path d="M10.1797 20H9.17969V21H10.1797V20Z" fill="black"/>
<path d="M11.1797 20H10.1797V21H11.1797V20Z" fill="black"/>
<path d="M11.1797 19H10.1797V20H11.1797V19Z" fill="#787878"/>
<path d="M12.1797 20H11.1797V21H12.1797V20Z" fill="white"/>
<path d="M12.1797 19H11.1797V20H12.1797V19Z" fill="white"/>
<path d="M12.1797 21H11.1797V22H12.1797V21Z" fill="white"/>
<path d="M12.1797 22H11.1797V23H12.1797V22Z" fill="white"/>
<path d="M12.1797 23H11.1797V24H12.1797V23Z" fill="white"/>
<path d="M13.1797 20H12.1797V21H13.1797V20Z" fill="black"/>
<path d="M14.1797 20H13.1797V21H14.1797V20Z" fill="black"/>
<path d="M8.17969 21H7.17969V22H8.17969V21Z" fill="black"/>
<path d="M9.17969 21H8.17969V22H9.17969V21Z" fill="black"/>
<path d="M10.1797 21H9.17969V22H10.1797V21Z" fill="black"/>
<path d="M11.1797 21H10.1797V22H11.1797V21Z" fill="black"/>
<path d="M13.1797 21H12.1797V22H13.1797V21Z" fill="black"/>
<path d="M14.1797 21H13.1797V22H14.1797V21Z" fill="black"/>
<path d="M8.17969 22H7.17969V23H8.17969V22Z" fill="#5CA5EF"/>
<path d="M9.17969 22H8.17969V23H9.17969V22Z" fill="#5CA5EF"/>
<path d="M10.1797 22H9.17969V23H10.1797V22Z" fill="black"/>
<path d="M11.1797 22H10.1797V23H11.1797V22Z" fill="black"/>
<path d="M13.1797 22H12.1797V23H13.1797V22Z" fill="black"/>
<path d="M14.1797 22H13.1797V23H14.1797V22Z" fill="#5CA5EF"/>
<path d="M10.1797 23H9.17969V24H10.1797V23Z" fill="black"/>
<path d="M11.1797 23H10.1797V24H11.1797V23Z" fill="black"/>
<path d="M13.1797 23H12.1797V24H13.1797V23Z" fill="black"/>
</svg>
