<svg width="24" height="25" viewBox="0 0 24 25" fill="none" xmlns="http://www.w3.org/2000/svg">
<g clip-path="url(#clip0_47995_54973)">
<path d="M10 19.7695H9V20.7695H10V19.7695Z" fill="white"/>
<path d="M13 19.7695H12V20.7695H13V19.7695Z" fill="white"/>
<path d="M10 20.7695H9V21.7695H10V20.7695Z" fill="white"/>
<path d="M13 20.7695H12V21.7695H13V20.7695Z" fill="white"/>
<path d="M10 21.7695H9V22.7695H10V21.7695Z" fill="#FF79AF"/>
<path d="M11 21.7695H10V22.7695H11V21.7695Z" fill="#FF79AF"/>
<path d="M11 20.7695H10V21.7695H11V20.7695Z" fill="#FF79AF"/>
<path d="M12 21.7695H11V22.7695H12V21.7695Z" fill="#FF79AF"/>
<path d="M12 20.7695H11V21.7695H12V20.7695Z" fill="#FF79AF"/>
<path d="M13 21.7695H12V22.7695H13V21.7695Z" fill="#FF79AF"/>
<path d="M8 22.7695H7V23.7695H8V22.7695Z" fill="#FF79AF"/>
<path d="M9 22.7695H8V23.7695H9V22.7695Z" fill="#FF79AF"/>
<path d="M10 22.7695H9V23.7695H10V22.7695Z" fill="#FF79AF"/>
<path d="M11 22.7695H10V23.7695H11V22.7695Z" fill="#FFA7CA"/>
<path d="M12 22.7695H11V23.7695H12V22.7695Z" fill="#FFA7CA"/>
<path d="M13 22.7695H12V23.7695H13V22.7695Z" fill="#FF79AF"/>
<path d="M14 22.7695H13V23.7695H14V22.7695Z" fill="#FF79AF"/>
<path d="M8 23.7695H7V24.7695H8V23.7695Z" fill="#FF79AF"/>
<path d="M9 23.7695H8V24.7695H9V23.7695Z" fill="#FF79AF"/>
<path d="M10 23.7695H9V24.7695H10V23.7695Z" fill="#FFA7CA"/>
<path d="M11 23.7695H10V24.7695H11V23.7695Z" fill="#FFA7CA"/>
<path d="M12 23.7695H11V24.7695H12V23.7695Z" fill="#FFA7CA"/>
<path d="M13 23.7695H12V24.7695H13V23.7695Z" fill="#FFA7CA"/>
<path d="M14 23.7695H13V24.7695H14V23.7695Z" fill="#FF79AF"/>
</g>
<defs>
<clipPath id="clip0_47995_54973">
<rect width="24" height="24" fill="white" transform="translate(0 0.769531)"/>
</clipPath>
</defs>
</svg>
