<svg width="25" height="24" viewBox="0 0 25 24" fill="none" xmlns="http://www.w3.org/2000/svg">
<path d="M10.4297 19H9.42969V20H10.4297V19Z" fill="white"/>
<path d="M13.4297 19H12.4297V20H13.4297V19Z" fill="white"/>
<path d="M10.4297 20H9.42969V21H10.4297V20Z" fill="white"/>
<path d="M13.4297 20H12.4297V21H13.4297V20Z" fill="white"/>
<path d="M10.4297 21H9.42969V22H10.4297V21Z" fill="#28B96F"/>
<path d="M11.4297 21H10.4297V22H11.4297V21Z" fill="white"/>
<path d="M12.4297 21H11.4297V22H12.4297V21Z" fill="white"/>
<path d="M13.4297 21H12.4297V22H13.4297V21Z" fill="#28B96F"/>
<path d="M10.4297 22H9.42969V23H10.4297V22Z" fill="#6BE0A4"/>
<path d="M11.4297 22H10.4297V23H11.4297V22Z" fill="#6BE0A4"/>
<path d="M12.4297 22H11.4297V23H12.4297V22Z" fill="#6BE0A4"/>
<path d="M13.4297 22H12.4297V23H13.4297V22Z" fill="#6BE0A4"/>
</svg>
