<?xml version="1.0" encoding="UTF-8" ?>
<svg version="1.1" width="24" height="24" xmlns="http://www.w3.org/2000/svg" shape-rendering="crispEdges">
<rect x="9" y="19" width="1" height="1" fill="#222222" />
<rect x="10" y="19" width="1" height="1" fill="#222222" />
<rect x="11" y="19" width="1" height="1" fill="#222222" />
<rect x="12" y="19" width="1" height="1" fill="#222222" />
<rect x="8" y="20" width="1" height="1" fill="#FFF9EF" />
<rect x="9" y="20" width="1" height="1" fill="#EF4D98" />
<rect x="10" y="20" width="1" height="1" fill="#FFC92F" />
<rect x="11" y="20" width="1" height="1" fill="#D536FC" />
<rect x="12" y="20" width="1" height="1" fill="#FFF9EF" />
<rect x="13" y="20" width="1" height="1" fill="#FFF9EF" />
<rect x="7" y="21" width="1" height="1" fill="#FFF9EF" />
<rect x="8" y="21" width="1" height="1" fill="#FFF9EF" />
<rect x="9" y="21" width="1" height="1" fill="#36F3FC" />
<rect x="10" y="21" width="1" height="1" fill="#EF4D98" />
<rect x="11" y="21" width="1" height="1" fill="#FFC92F" />
<rect x="12" y="21" width="1" height="1" fill="#D536FC" />
<rect x="13" y="21" width="1" height="1" fill="#FFF9EF" />
<rect x="7" y="22" width="1" height="1" fill="#FFF9EF" />
<rect x="8" y="22" width="1" height="1" fill="#FFF9EF" />
<rect x="9" y="22" width="1" height="1" fill="#43F288" />
<rect x="10" y="22" width="1" height="1" fill="#36F3FC" />
<rect x="11" y="22" width="1" height="1" fill="#EF4D98" />
<rect x="12" y="22" width="1" height="1" fill="#FFC92F" />
<rect x="13" y="22" width="1" height="1" fill="#FFF9EF" />
<rect x="7" y="23" width="1" height="1" fill="#FFF9EF" />
<rect x="8" y="23" width="1" height="1" fill="#FFF9EF" />
<rect x="9" y="23" width="1" height="1" fill="#43F288" />
<rect x="10" y="23" width="1" height="1" fill="#43F288" />
<rect x="11" y="23" width="1" height="1" fill="#36F3FC" />
<rect x="12" y="23" width="1" height="1" fill="#EF4D98" />
<rect x="13" y="23" width="1" height="1" fill="#FFF9EF" />
</svg>