<svg width="25" height="24" viewBox="0 0 25 24" fill="none" xmlns="http://www.w3.org/2000/svg">
<path d="M10.8203 18H9.82031V19H10.8203V18Z" fill="#CF3F58"/>
<path d="M11.8203 18H10.8203V19H11.8203V18Z" fill="#CF3F58"/>
<path d="M12.8203 18H11.8203V19H12.8203V18Z" fill="#CF3F58"/>
<path d="M13.8203 18H12.8203V19H13.8203V18Z" fill="#CF3F58"/>
<path d="M10.8203 19H9.82031V20H10.8203V19Z" fill="#CF3F58"/>
<path d="M11.8203 19H10.8203V20H11.8203V19Z" fill="#CF3F58"/>
<path d="M12.8203 19H11.8203V20H12.8203V19Z" fill="#CF3F58"/>
<path d="M13.8203 19H12.8203V20H13.8203V19Z" fill="#CF3F58"/>
<path d="M9.82031 20H8.82031V21H9.82031V20Z" fill="#016737"/>
<path d="M10.8203 20H9.82031V21H10.8203V20Z" fill="#016737"/>
<path d="M11.8203 20H10.8203V21H11.8203V20Z" fill="#3BB44B"/>
<path d="M12.8203 20H11.8203V21H12.8203V20Z" fill="#CF3F58"/>
<path d="M13.8203 20H12.8203V21H13.8203V20Z" fill="#CF3F58"/>
<path d="M14.8203 20H13.8203V21H14.8203V20Z" fill="#016737"/>
<path d="M8.82031 21H7.82031V22H8.82031V21Z" fill="#016737"/>
<path d="M9.82031 21H8.82031V22H9.82031V21Z" fill="#016737"/>
<path d="M10.8203 21H9.82031V22H10.8203V21Z" fill="#3BB44B"/>
<path d="M11.8203 21H10.8203V22H11.8203V21Z" fill="#3BB44B"/>
<path d="M12.8203 21H11.8203V22H12.8203V21Z" fill="#CF3F58"/>
<path d="M13.8203 21H12.8203V22H13.8203V21Z" fill="#CF3F58"/>
<path d="M14.8203 21H13.8203V22H14.8203V21Z" fill="#016737"/>
<path d="M8.82031 22H7.82031V23H8.82031V22Z" fill="#016737"/>
<path d="M9.82031 22H8.82031V23H9.82031V22Z" fill="#016737"/>
<path d="M10.8203 22H9.82031V23H10.8203V22Z" fill="#3BB44B"/>
<path d="M11.8203 22H10.8203V23H11.8203V22Z" fill="#3BB44B"/>
<path d="M12.8203 22H11.8203V23H12.8203V22Z" fill="#CF3F58"/>
<path d="M13.8203 22H12.8203V23H13.8203V22Z" fill="#CF3F58"/>
<path d="M14.8203 22H13.8203V23H14.8203V22Z" fill="#016737"/>
<path d="M8.82031 23H7.82031V24H8.82031V23Z" fill="#3BB44B"/>
<path d="M9.82031 23H8.82031V24H9.82031V23Z" fill="#3BB44B"/>
<path d="M10.8203 23H9.82031V24H10.8203V23Z" fill="#3BB44B"/>
<path d="M11.8203 23H10.8203V24H11.8203V23Z" fill="#3BB44B"/>
<path d="M12.8203 23H11.8203V24H12.8203V23Z" fill="#CF3F58"/>
<path d="M13.8203 23H12.8203V24H13.8203V23Z" fill="#CF3F58"/>
<path d="M14.8203 23H13.8203V24H14.8203V23Z" fill="#3BB44B"/>
</svg>
