<svg version="1.1" width="24" height="24" xmlns="http://www.w3.org/2000/svg" shape-rendering="crispEdges">
  <rect x="8" y="18" width="1" height="1" fill="#FFFFFF" />
  <rect x="9" y="18" width="1" height="1" fill="#FFFFFF" />
  <rect x="10" y="18" width="1" height="1" fill="#8F8F8F" />
  <rect x="14" y="18" width="1" height="1" fill="#8F8F8F" />
  <rect x="15" y="18" width="1" height="1" fill="#FFFFFF" />
  <rect x="7" y="19" width="1" height="1" fill="#FFFFFF" />
  <rect x="8" y="19" width="1" height="1" fill="#FFFFFF" />
  <rect x="9" y="19" width="1" height="1" fill="#FFFFFF" />
  <rect x="10" y="19" width="1" height="1" fill="#FFFFFF" />
  <rect x="11" y="19" width="1" height="1" fill="#8F8F8F" />
  <rect x="12" y="19" width="1" height="1" fill="#8F8F8F" />
  <rect x="13" y="19" width="1" height="1" fill="#8F8F8F" />
  <rect x="14" y="19" width="1" height="1" fill="#FFFFFF" />
  <rect x="15" y="19" width="1" height="1" fill="#FFFFFF" />
  <rect x="16" y="19" width="1" height="1" fill="#FFFFFF" />
  <rect x="6" y="20" width="1" height="1" fill="#FFFFFF" />
  <rect x="7" y="20" width="1" height="1" fill="#FFFFFF" />
  <rect x="8" y="20" width="1" height="1" fill="#FFFFFF" />
  <rect x="9" y="20" width="1" height="1" fill="#FFFFFF" />
  <rect x="10" y="20" width="1" height="1" fill="#FFFFFF" />
  <rect x="11" y="20" width="1" height="1" fill="#FFFFFF" />
  <rect x="12" y="20" width="1" height="1" fill="#FFFFFF" />
  <rect x="13" y="20" width="1" height="1" fill="#FFFFFF" />
  <rect x="14" y="20" width="1" height="1" fill="#FFFFFF" />
  <rect x="15" y="20" width="1" height="1" fill="#FFFFFF" />
  <rect x="16" y="20" width="1" height="1" fill="#FFFFFF" />
  <rect x="17" y="20" width="1" height="1" fill="#FFFFFF" />
  <rect x="5" y="21" width="1" height="1" fill="#1C35E5" />
  <rect x="6" y="21" width="1" height="1" fill="#FFFFFF" />
  <rect x="7" y="21" width="1" height="1" fill="#D33434" />
  <rect x="8" y="21" width="1" height="1" fill="#FFFFFF" />
  <rect x="9" y="21" width="1" height="1" fill="#FFFFFF" />
  <rect x="10" y="21" width="1" height="1" fill="#FFFFFF" />
  <rect x="11" y="21" width="1" height="1" fill="#FFFFFF" />
  <rect x="12" y="21" width="1" height="1" fill="#FFFFFF" />
  <rect x="13" y="21" width="1" height="1" fill="#FFFFFF" />
  <rect x="14" y="21" width="1" height="1" fill="#FFFFFF" />
  <rect x="15" y="21" width="1" height="1" fill="#FFFFFF" />
  <rect x="16" y="21" width="1" height="1" fill="#FFFFFF" />
  <rect x="17" y="21" width="1" height="1" fill="#FFFFFF" />
  <rect x="18" y="21" width="1" height="1" fill="#FFFFFF" />
  <rect x="5" y="22" width="1" height="1" fill="#D33434" />
  <rect x="6" y="22" width="1" height="1" fill="#D33434" />
  <rect x="7" y="22" width="1" height="1" fill="#D33434" />
  <rect x="8" y="22" width="1" height="1" fill="#FFFFFF" />
  <rect x="9" y="22" width="1" height="1" fill="#FFFFFF" />
  <rect x="10" y="22" width="1" height="1" fill="#C6C6C6" />
  <rect x="11" y="22" width="1" height="1" fill="#FFFFFF" />
  <rect x="12" y="22" width="1" height="1" fill="#C6C6C6" />
  <rect x="13" y="22" width="1" height="1" fill="#FFFFFF" />
  <rect x="14" y="22" width="1" height="1" fill="#C6C6C6" />
  <rect x="15" y="22" width="1" height="1" fill="#FFFFFF" />
  <rect x="16" y="22" width="1" height="1" fill="#C6C6C6" />
  <rect x="17" y="22" width="1" height="1" fill="#FFFFFF" />
  <rect x="18" y="22" width="1" height="1" fill="#FFFFFF" />
  <rect x="5" y="23" width="1" height="1" fill="#FFFFFF" />
  <rect x="6" y="23" width="1" height="1" fill="#FFFFFF" />
  <rect x="7" y="23" width="1" height="1" fill="#FFFFFF" />
  <rect x="8" y="23" width="1" height="1" fill="#FFFFFF" />
  <rect x="9" y="23" width="1" height="1" fill="#FFFFFF" />
  <rect x="10" y="23" width="1" height="1" fill="#C6C6C6" />
  <rect x="11" y="23" width="1" height="1" fill="#FFFFFF" />
  <rect x="12" y="23" width="1" height="1" fill="#C6C6C6" />
  <rect x="13" y="23" width="1" height="1" fill="#FFFFFF" />
  <rect x="14" y="23" width="1" height="1" fill="#C6C6C6" />
  <rect x="15" y="23" width="1" height="1" fill="#FFFFFF" />
  <rect x="16" y="23" width="1" height="1" fill="#C6C6C6" />
  <rect x="17" y="23" width="1" height="1" fill="#FFFFFF" />
  <rect x="18" y="23" width="1" height="1" fill="#FFFFFF" />
</svg>