<svg width="25" height="24" viewBox="0 0 25 24" fill="none" xmlns="http://www.w3.org/2000/svg">
<path d="M10.8047 19H9.80469V20H10.8047V19Z" fill="#121212"/>
<path d="M11.8047 19H10.8047V20H11.8047V19Z" fill="#121212"/>
<path d="M12.8047 19H11.8047V20H12.8047V19Z" fill="#121212"/>
<path d="M13.8047 19H12.8047V20H13.8047V19Z" fill="#121212"/>
<path d="M9.80469 20H8.80469V21H9.80469V20Z" fill="#121212"/>
<path d="M10.8047 20H9.80469V21H10.8047V20Z" fill="#121212"/>
<path d="M11.8047 20H10.8047V21H11.8047V20Z" fill="#AE0808"/>
<path d="M12.8047 20H11.8047V21H12.8047V20Z" fill="#EAE6E6"/>
<path d="M13.8047 20H12.8047V21H13.8047V20Z" fill="#121212"/>
<path d="M14.8047 20H13.8047V21H14.8047V20Z" fill="#121212"/>
<path d="M8.80469 21H7.80469V22H8.80469V21Z" fill="#121212"/>
<path d="M8.80469 22H7.80469V23H8.80469V22Z" fill="#121212"/>
<path d="M9.80469 21H8.80469V22H9.80469V21Z" fill="#121212"/>
<path d="M9.80469 22H8.80469V23H9.80469V22Z" fill="#121212"/>
<path d="M10.8047 21H9.80469V22H10.8047V21Z" fill="#AE0808"/>
<path d="M11.8047 21H10.8047V22H11.8047V21Z" fill="#EAE6E6"/>
<path d="M12.8047 21H11.8047V22H12.8047V21Z" fill="#AE0808"/>
<path d="M13.8047 21H12.8047V22H13.8047V21Z" fill="#EAE6E6"/>
<path d="M14.8047 21H13.8047V22H14.8047V21Z" fill="#121212"/>
<path d="M14.8047 22H13.8047V23H14.8047V22Z" fill="#121212"/>
<path d="M10.8047 22H9.80469V23H10.8047V22Z" fill="#EAE6E6"/>
<path d="M11.8047 22H10.8047V23H11.8047V22Z" fill="#AE0808"/>
<path d="M13.8047 22H12.8047V23H13.8047V22Z" fill="#AE0808"/>
<path d="M12.8047 22H11.8047V23H12.8047V22Z" fill="#EAE6E6"/>
<path d="M10.8047 23H9.80469V24H10.8047V23Z" fill="#AE0808"/>
<path d="M11.8047 23H10.8047V24H11.8047V23Z" fill="#EAE6E6"/>
<path d="M13.8047 23H12.8047V24H13.8047V23Z" fill="#EAE6E6"/>
<path d="M12.8047 23H11.8047V24H12.8047V23Z" fill="#AE0808"/>
</svg>
