<svg width="25" height="24" viewBox="0 0 25 24" fill="none" xmlns="http://www.w3.org/2000/svg">
<path d="M10.5078 19H9.50781V20H10.5078V19Z" fill="#C6472B"/>
<path d="M9.50781 20H8.50781V21H9.50781V20Z" fill="#FFAB99"/>
<path d="M10.5078 20H9.50781V21H10.5078V20Z" fill="#E8765D"/>
<path d="M11.5078 20H10.5078V21H11.5078V20Z" fill="#FFAB99"/>
<path d="M13.5078 20H12.5078V21H13.5078V20Z" fill="#FFAB99"/>
<path d="M8.50781 21H7.50781V22H8.50781V21Z" fill="#C6472B"/>
<path d="M9.50781 21H8.50781V22H9.50781V21Z" fill="#E8765D"/>
<path d="M10.5078 21H9.50781V22H10.5078V21Z" fill="#C6472B"/>
<path d="M11.5078 21H10.5078V22H11.5078V21Z" fill="#E8765D"/>
<path d="M11.5078 19H10.5078V20H11.5078V19Z" fill="#E8765D"/>
<path d="M12.5078 21H11.5078V22H12.5078V21Z" fill="#C6472B"/>
<path d="M12.5078 19H11.5078V20H12.5078V19Z" fill="#C6472B"/>
<path d="M14.5078 21H13.5078V22H14.5078V21Z" fill="#C6472B"/>
<path d="M13.5078 21H12.5078V22H13.5078V21Z" fill="#E8765D"/>
<path d="M13.5078 19H12.5078V20H13.5078V19Z" fill="#E8765D"/>
<path d="M8.50781 22H7.50781V23H8.50781V22Z" fill="#E8765D"/>
<path d="M9.50781 22H8.50781V23H9.50781V22Z" fill="#FFAB99"/>
<path d="M10.5078 22H9.50781V23H10.5078V22Z" fill="#E8765D"/>
<path d="M11.5078 22H10.5078V23H11.5078V22Z" fill="#FFAB99"/>
<path d="M12.5078 22H11.5078V23H12.5078V22Z" fill="#E8765D"/>
<path d="M12.5078 20H11.5078V21H12.5078V20Z" fill="#E8765D"/>
<path d="M14.5078 22H13.5078V23H14.5078V22Z" fill="#E8765D"/>
<path d="M14.5078 20H13.5078V21H14.5078V20Z" fill="#E8765D"/>
<path d="M13.5078 22H12.5078V23H13.5078V22Z" fill="#FFAB99"/>
<path d="M8.50781 23H7.50781V24H8.50781V23Z" fill="#C6472B"/>
<path d="M9.50781 23H8.50781V24H9.50781V23Z" fill="#E8765D"/>
<path d="M10.5078 23H9.50781V24H10.5078V23Z" fill="#C6472B"/>
<path d="M11.5078 23H10.5078V24H11.5078V23Z" fill="#E8765D"/>
<path d="M12.5078 23H11.5078V24H12.5078V23Z" fill="#C6472B"/>
<path d="M14.5078 23H13.5078V24H14.5078V23Z" fill="#C6472B"/>
<path d="M13.5078 23H12.5078V24H13.5078V23Z" fill="#E8765D"/>
</svg>
