<svg width="25" height="24" viewBox="0 0 25 24" fill="none" xmlns="http://www.w3.org/2000/svg">
<path d="M9.1875 19H8.1875V20H9.1875V19Z" fill="#313131"/>
<path d="M10.1875 19H9.1875V20H10.1875V19Z" fill="white"/>
<path d="M13.1875 19H12.1875V20H13.1875V19Z" fill="white"/>
<path d="M14.1875 19H13.1875V20H14.1875V19Z" fill="#313131"/>
<path d="M8.1875 20H7.1875V21H8.1875V20Z" fill="#313131"/>
<path d="M9.1875 20H8.1875V21H9.1875V20Z" fill="#313131"/>
<path d="M10.1875 20H9.1875V21H10.1875V20Z" fill="white"/>
<path d="M11.1875 20H10.1875V21H11.1875V20Z" fill="white"/>
<path d="M12.1875 20H11.1875V21H12.1875V20Z" fill="white"/>
<path d="M13.1875 20H12.1875V21H13.1875V20Z" fill="white"/>
<path d="M14.1875 20H13.1875V21H14.1875V20Z" fill="#313131"/>
<path d="M8.1875 21H7.1875V22H8.1875V21Z" fill="#313131"/>
<path d="M15.1875 20H14.1875V21H15.1875V20Z" fill="#313131"/>
<path d="M7.1875 21H6.1875V22H7.1875V21Z" fill="#313131"/>
<path d="M9.1875 21H8.1875V22H9.1875V21Z" fill="#313131"/>
<path d="M10.1875 21H9.1875V22H10.1875V21Z" fill="white"/>
<path d="M11.1875 21H10.1875V22H11.1875V21Z" fill="#37946E"/>
<path d="M12.1875 21H11.1875V22H12.1875V21Z" fill="#37946E"/>
<path d="M13.1875 21H12.1875V22H13.1875V21Z" fill="white"/>
<path d="M14.1875 21H13.1875V22H14.1875V21Z" fill="#313131"/>
<path d="M15.1875 21H14.1875V22H15.1875V21Z" fill="#313131"/>
<path d="M8.1875 22H7.1875V23H8.1875V22Z" fill="white"/>
<path d="M9.1875 22H8.1875V23H9.1875V22Z" fill="white"/>
<path d="M10.1875 22H9.1875V23H10.1875V22Z" fill="white"/>
<path d="M11.1875 22H10.1875V23H11.1875V22Z" fill="white"/>
<path d="M12.1875 22H11.1875V23H12.1875V22Z" fill="#37946E"/>
<path d="M13.1875 22H12.1875V23H13.1875V22Z" fill="white"/>
<path d="M14.1875 22H13.1875V23H14.1875V22Z" fill="white"/>
<path d="M10.1875 23H9.1875V24H10.1875V23Z" fill="white"/>
<path d="M11.1875 23H10.1875V24H11.1875V23Z" fill="white"/>
<path d="M12.1875 23H11.1875V24H12.1875V23Z" fill="#37946E"/>
<path d="M13.1875 23H12.1875V24H13.1875V23Z" fill="white"/>
</svg>
