<svg width="25" height="24" viewBox="0 0 25 24" fill="none" xmlns="http://www.w3.org/2000/svg">
<path d="M10.5 19H9.5V20H10.5V19Z" fill="#170000"/>
<path d="M13.5 19H12.5V20H13.5V19Z" fill="#170000"/>
<path d="M9.5 20H8.5V21H9.5V20Z" fill="#FAEAEA"/>
<path d="M14.5 20H13.5V21H14.5V20Z" fill="#FAEAEA"/>
<path d="M10.5 20H9.5V21H10.5V20Z" fill="#FAEAEA"/>
<path d="M11.5 20H10.5V21H11.5V20Z" fill="#170000"/>
<path d="M11.5 19H10.5V20H11.5V19Z" fill="#170000"/>
<path d="M12.5 20H11.5V21H12.5V20Z" fill="#170000"/>
<path d="M12.5 19H11.5V20H12.5V19Z" fill="#170000"/>
<path d="M13.5 20H12.5V21H13.5V20Z" fill="#FAEAEA"/>
<path d="M8.5 21H7.5V22H8.5V21Z" fill="#F70404"/>
<path d="M9.5 21H8.5V22H9.5V21Z" fill="#F70404"/>
<path d="M14.5 21H13.5V22H14.5V21Z" fill="#F70404"/>
<path d="M10.5 21H9.5V22H10.5V21Z" fill="#FAEAEA"/>
<path d="M11.5 21H10.5V22H11.5V21Z" fill="#FAEAEA"/>
<path d="M12.5 21H11.5V22H12.5V21Z" fill="#FAEAEA"/>
<path d="M13.5 21H12.5V22H13.5V21Z" fill="#FAEAEA"/>
<path d="M8.5 22H7.5V23H8.5V22Z" fill="#170000"/>
<path d="M9.5 22H8.5V23H9.5V22Z" fill="#F70404"/>
<path d="M14.5 22H13.5V23H14.5V22Z" fill="#F70404"/>
<path d="M10.5 22H9.5V23H10.5V22Z" fill="#F70404"/>
<path d="M11.5 22H10.5V23H11.5V22Z" fill="#F70404"/>
<path d="M12.5 22H11.5V23H12.5V22Z" fill="#F70404"/>
<path d="M13.5 22H12.5V23H13.5V22Z" fill="#F70404"/>
<path d="M8.5 23H7.5V24H8.5V23Z" fill="#170000"/>
<path d="M9.5 23H8.5V24H9.5V23Z" fill="#170000"/>
<path d="M14.5 23H13.5V24H14.5V23Z" fill="#170000"/>
<path d="M10.5 23H9.5V24H10.5V23Z" fill="#170000"/>
<path d="M11.5 23H10.5V24H11.5V23Z" fill="#170000"/>
<path d="M12.5 23H11.5V24H12.5V23Z" fill="#170000"/>
<path d="M13.5 23H12.5V24H13.5V23Z" fill="#170000"/>
</svg>
