<svg width="25" height="24" viewBox="0 0 25 24" fill="none" xmlns="http://www.w3.org/2000/svg">
<path d="M9.52344 19H8.52344V20H9.52344V19Z" fill="#313131"/>
<path d="M10.5234 19H9.52344V20H10.5234V19Z" fill="#707070"/>
<path d="M11.5234 19H10.5234V20H11.5234V19Z" fill="#BEBEBE"/>
<path d="M12.5234 19H11.5234V20H12.5234V19Z" fill="#707070"/>
<path d="M13.5234 19H12.5234V20H13.5234V19Z" fill="#BEBEBE"/>
<path d="M9.52344 20H8.52344V21H9.52344V20Z" fill="#313131"/>
<path d="M10.5234 20H9.52344V21H10.5234V20Z" fill="#707070"/>
<path d="M11.5234 20H10.5234V21H11.5234V20Z" fill="#BEBEBE"/>
<path d="M12.5234 20H11.5234V21H12.5234V20Z" fill="#707070"/>
<path d="M13.5234 20H12.5234V21H13.5234V20Z" fill="#BEBEBE"/>
<path d="M14.5234 20H13.5234V21H14.5234V20Z" fill="#313131"/>
<path d="M8.52344 21H7.52344V22H8.52344V21Z" fill="#313131"/>
<path d="M9.52344 21H8.52344V22H9.52344V21Z" fill="#313131"/>
<path d="M10.5234 21H9.52344V22H10.5234V21Z" fill="#707070"/>
<path d="M11.5234 21H10.5234V22H11.5234V21Z" fill="#707070"/>
<path d="M12.5234 21H11.5234V22H12.5234V21Z" fill="#707070"/>
<path d="M13.5234 21H12.5234V22H13.5234V21Z" fill="#707070"/>
<path d="M14.5234 21H13.5234V22H14.5234V21Z" fill="#313131"/>
<path d="M8.52344 22H7.52344V23H8.52344V22Z" fill="#9C9C9C"/>
<path d="M9.52344 22H8.52344V23H9.52344V22Z" fill="#9C9C9C"/>
<path d="M10.5234 22H9.52344V23H10.5234V22Z" fill="#707070"/>
<path d="M11.5234 22H10.5234V23H11.5234V22Z" fill="#707070"/>
<path d="M12.5234 22H11.5234V23H12.5234V22Z" fill="#707070"/>
<path d="M13.5234 22H12.5234V23H13.5234V22Z" fill="#707070"/>
<path d="M14.5234 22H13.5234V23H14.5234V22Z" fill="#9C9C9C"/>
<path d="M8.52344 23H7.52344V24H8.52344V23Z" fill="#9C9C9C"/>
<path d="M9.52344 23H8.52344V24H9.52344V23Z" fill="#9C9C9C"/>
<path d="M10.5234 23H9.52344V24H10.5234V23Z" fill="#D0D0D0"/>
<path d="M11.5234 23H10.5234V24H11.5234V23Z" fill="#D0D0D0"/>
<path d="M12.5234 23H11.5234V24H12.5234V23Z" fill="#D0D0D0"/>
<path d="M13.5234 23H12.5234V24H13.5234V23Z" fill="#D0D0D0"/>
<path d="M14.5234 23H13.5234V24H14.5234V23Z" fill="#9C9C9C"/>
</svg>
