<svg width="25" height="24" viewBox="0 0 25 24" fill="none" xmlns="http://www.w3.org/2000/svg">
<path d="M10.8438 19H9.84375V20H10.8438V19Z" fill="#D56200"/>
<path d="M11.8438 19H10.8438V20H11.8438V19Z" fill="#FF9F4D"/>
<path d="M12.8438 19H11.8438V20H12.8438V19Z" fill="#D56200"/>
<path d="M13.8438 19H12.8438V20H13.8438V19Z" fill="#FF9F4D"/>
<path d="M9.84375 20H8.84375V21H9.84375V20Z" fill="#003F80"/>
<path d="M10.8438 20H9.84375V21H10.8438V20Z" fill="#3F91E5"/>
<path d="M11.8438 20H10.8438V21H11.8438V20Z" fill="#003F80"/>
<path d="M12.8438 20H11.8438V21H12.8438V20Z" fill="#003F80"/>
<path d="M13.8438 20H12.8438V21H13.8438V20Z" fill="#003F80"/>
<path d="M14.8438 20H13.8438V21H14.8438V20Z" fill="#3F91E5"/>
<path d="M8.84375 21H7.84375V22H8.84375V21Z" fill="#003F80"/>
<path d="M9.84375 21H8.84375V22H9.84375V21Z" fill="#003F80"/>
<path d="M10.8438 21H9.84375V22H10.8438V21Z" fill="#003F80"/>
<path d="M11.8438 21H10.8438V22H11.8438V21Z" fill="#3F91E5"/>
<path d="M12.8438 21H11.8438V22H12.8438V21Z" fill="#003F80"/>
<path d="M13.8438 21H12.8438V22H13.8438V21Z" fill="#3F91E5"/>
<path d="M14.8438 21H13.8438V22H14.8438V21Z" fill="#003F80"/>
<path d="M8.84375 22H7.84375V23H8.84375V22Z" fill="#003F80"/>
<path d="M9.84375 22H8.84375V23H9.84375V22Z" fill="#003F80"/>
<path d="M10.8438 22H9.84375V23H10.8438V22Z" fill="#003F80"/>
<path d="M11.8438 22H10.8438V23H11.8438V22Z" fill="#003F80"/>
<path d="M12.8438 22H11.8438V23H12.8438V22Z" fill="#3F91E5"/>
<path d="M13.8438 22H12.8438V23H13.8438V22Z" fill="#003F80"/>
<path d="M14.8438 22H13.8438V23H14.8438V22Z" fill="#003F80"/>
<path d="M8.84375 23H7.84375V24H8.84375V23Z" fill="#003F80"/>
<path d="M9.84375 23H8.84375V24H9.84375V23Z" fill="#003F80"/>
<path d="M10.8438 23H9.84375V24H10.8438V23Z" fill="#003F80"/>
<path d="M11.8438 23H10.8438V24H11.8438V23Z" fill="#003F80"/>
<path d="M12.8438 23H11.8438V24H12.8438V23Z" fill="#003F80"/>
<path d="M13.8438 23H12.8438V24H13.8438V23Z" fill="#003F80"/>
<path d="M14.8438 23H13.8438V24H14.8438V23Z" fill="#003F80"/>
</svg>
