<svg width="25" height="24" viewBox="0 0 25 24" fill="none" xmlns="http://www.w3.org/2000/svg">
<path d="M10.4922 19H9.49219V20H10.4922V19Z" fill="white"/>
<path d="M10.4922 20H9.49219V21H10.4922V20Z" fill="white"/>
<path d="M13.4922 19H12.4922V20H13.4922V19Z" fill="white"/>
<path d="M10.4922 21H9.49219V22H10.4922V21Z" fill="white"/>
<path d="M13.4922 20H12.4922V21H13.4922V20Z" fill="white"/>
<path d="M11.4922 20H10.4922V21H11.4922V20Z" fill="white"/>
<path d="M10.4922 22H9.49219V23H10.4922V22Z" fill="white"/>
<path d="M12.4922 20H11.4922V21H12.4922V20Z" fill="white"/>
<path d="M13.4922 21H12.4922V22H13.4922V21Z" fill="white"/>
<path d="M10.4922 23H9.49219V24H10.4922V23Z" fill="white"/>
<path d="M11.4922 23H10.4922V24H11.4922V23Z" fill="white"/>
<path d="M12.4922 23H11.4922V24H12.4922V23Z" fill="white"/>
<path d="M11.4922 21H10.4922V22H11.4922V21Z" fill="#FF9191"/>
<path d="M12.4922 21H11.4922V22H12.4922V21Z" fill="white"/>
<path d="M13.4922 22H12.4922V23H13.4922V22Z" fill="white"/>
<path d="M11.4922 22H10.4922V23H11.4922V22Z" fill="white"/>
<path d="M12.4922 22H11.4922V23H12.4922V22Z" fill="#FF9191"/>
<path d="M13.4922 23H12.4922V24H13.4922V23Z" fill="white"/>
</svg>
