<svg width="25" height="24" viewBox="0 0 25 24" fill="none" xmlns="http://www.w3.org/2000/svg">
<path d="M10.1953 18H9.19531V19H10.1953V18Z" fill="#9A9A9A"/>
<path d="M11.1953 18H10.1953V19H11.1953V18Z" fill="#3E3E3E"/>
<path d="M12.1953 18H11.1953V19H12.1953V18Z" fill="#3E3E3E"/>
<path d="M13.1953 18H12.1953V19H13.1953V18Z" fill="#9A9A9A"/>
<path d="M9.19531 19H8.19531V20H9.19531V19Z" fill="#9A9A9A"/>
<path d="M10.1953 19H9.19531V20H10.1953V19Z" fill="#9A9A9A"/>
<path d="M11.1953 19H10.1953V20H11.1953V19Z" fill="#2C2C2C"/>
<path d="M12.1953 19H11.1953V20H12.1953V19Z" fill="#2C2C2C"/>
<path d="M13.1953 19H12.1953V20H13.1953V19Z" fill="#9A9A9A"/>
<path d="M14.1953 19H13.1953V20H14.1953V19Z" fill="#9A9A9A"/>
<path d="M8.19531 20H7.19531V21H8.19531V20Z" fill="#5E5E5E"/>
<path d="M14.1953 20H13.1953V21H14.1953V20Z" fill="#5E5E5E"/>
<path d="M9.19531 20H8.19531V21H9.19531V20Z" fill="#5E5E5E"/>
<path d="M10.1953 20H9.19531V21H10.1953V20Z" fill="#5E5E5E"/>
<path d="M11.1953 20H10.1953V21H11.1953V20Z" fill="#2C2C2C"/>
<path d="M12.1953 20H11.1953V21H12.1953V20Z" fill="#2C2C2C"/>
<path d="M13.1953 20H12.1953V21H13.1953V20Z" fill="#5E5E5E"/>
<path d="M8.19531 21H7.19531V22H8.19531V21Z" fill="#3E3E3E"/>
<path d="M14.1953 21H13.1953V22H14.1953V21Z" fill="#3E3E3E"/>
<path d="M9.19531 21H8.19531V22H9.19531V21Z" fill="#3E3E3E"/>
<path d="M10.1953 21H9.19531V22H10.1953V21Z" fill="#5E5E5E"/>
<path d="M11.1953 21H10.1953V22H11.1953V21Z" fill="#5E5E5E"/>
<path d="M12.1953 21H11.1953V22H12.1953V21Z" fill="#5E5E5E"/>
<path d="M13.1953 21H12.1953V22H13.1953V21Z" fill="#5E5E5E"/>
<path d="M8.19531 22H7.19531V23H8.19531V22Z" fill="#3E3E3E"/>
<path d="M14.1953 22H13.1953V23H14.1953V22Z" fill="#3E3E3E"/>
<path d="M9.19531 22H8.19531V23H9.19531V22Z" fill="#3E3E3E"/>
<path d="M10.1953 22H9.19531V23H10.1953V22Z" fill="#5E5E5E"/>
<path d="M11.1953 22H10.1953V23H11.1953V22Z" fill="#5E5E5E"/>
<path d="M12.1953 22H11.1953V23H12.1953V22Z" fill="#7EEAB3"/>
<path d="M13.1953 22H12.1953V23H13.1953V22Z" fill="#5E5E5E"/>
<path d="M8.19531 23H7.19531V24H8.19531V23Z" fill="#3E3E3E"/>
<path d="M14.1953 23H13.1953V24H14.1953V23Z" fill="#3E3E3E"/>
<path d="M9.19531 23H8.19531V24H9.19531V23Z" fill="#3E3E3E"/>
<path d="M10.1953 23H9.19531V24H10.1953V23Z" fill="#5E5E5E"/>
<path d="M11.1953 23H10.1953V24H11.1953V23Z" fill="#5E5E5E"/>
<path d="M12.1953 23H11.1953V24H12.1953V23Z" fill="#5E5E5E"/>
<path d="M13.1953 23H12.1953V24H13.1953V23Z" fill="#5E5E5E"/>
</svg>
